<?xml version="1.0" standalone="no"?>
<!DOCTYPE svg PUBLIC "-//W3C//DTD SVG 1.1//EN" "http://www.w3.org/Graphics/SVG/1.1/DTD/svg11.dtd" >
<svg xmlns="http://www.w3.org/2000/svg" xmlns:xlink="http://www.w3.org/1999/xlink" version="1.1">
<metadata>
Created by FontForge 20170731 at Sun Nov  8 19:11:13 2015
 By Aleksey,,,
Copyright (c) 2014 by Rodrigo Saiani. All rights reserved.
</metadata>
<defs>
<font id="Tenez-Black" horiz-adv-x="0" >
  <font-face 
    font-family="Tenez-Black"
    font-weight="400"
    font-stretch="normal"
    units-per-em="1000"
    panose-1="0 0 10 0 0 0 0 0 0 0"
    ascent="753"
    descent="-247"
    x-height="397"
    cap-height="637"
    bbox="-606 -383 1325 1053"
    underline-thickness="50"
    underline-position="-150"
    unicode-range="U+0020-FB02"
  />
<missing-glyph horiz-adv-x="500" 
d="M410 720v-1000h-317v1000h317zM333 653h-165v-33h65v-37h-66v-33h166v33h-66v37h66v33zM267 524h-100v-104h166v34h-66v70zM233 490v-36h-33v36h33zM333 393h-166v-33h66v-37h-66v-33h100v70h66v33zM333 333h-33v-66h-133v-34h166v100zM333 211h-100v-56h34v23h33v-47
h-100v80h-33v-113h166v113zM333 38h-166v-113h166v113zM300 5v-47h-100v47h100zM333 -98h-166v-33h70l-70 -47v-33h166v33h-102l70 47h32v33z" />
    <glyph glyph-name="fi" unicode="fi" horiz-adv-x="683" 
d="M636 12q18 -9 18 -14q0 -6 -8 -6q-3 0 -27.5 2t-59 3.5t-59.5 1.5q-26 0 -56.5 -1.5t-52 -3.5t-24.5 -2q-7 0 -7 6q0 2 0.5 3t2.5 2.5t3.5 2.5t5.5 3t7 4q20 13 25.5 41t5.5 98v150q0 38 -12 51q-15 15 -62 15h-81v-204q0 -79 9 -109.5t35 -41.5q14 -5 17 -7.5t3 -6.5
q0 -6 -7 -6q-3 0 -27.5 1.5t-58.5 3.5t-60 2t-58.5 -2t-56 -3.5t-26.5 -1.5q-7 0 -7 6q0 2 0.5 3t2.5 2.5t3.5 2.5t5.5 3t7 4q26 13 32.5 43.5t6.5 116.5v170v21q-25 -1 -47 -1q-13 0 -13 13t13 13h49q12 131 88 195t191 64q80 0 143 -34.5t63 -85.5q0 -34 -21.5 -54
t-54.5 -20q-66 0 -92 83q-14 48 -31.5 70t-45.5 22t-45.5 -21t-17.5 -64v-155h123q45 0 132.5 9t89.5 9q8 0 8 -7q0 -4 -5 -17t-7 -19q-7 -28 -7 -145v-37q0 -79 9.5 -118t37.5 -53z" />
    <glyph glyph-name="fl" unicode="fl" horiz-adv-x="705" 
d="M659 15q17 -11 17 -16q0 -6 -7 -6l-57 3q-57 4 -92 4q-25 0 -58 -2t-56.5 -3.5t-26.5 -1.5q-7 0 -7 6q0 7 17 17q28 18 35 61t7 183v104q-56 0 -178 2v-202q0 -79 9 -109.5t35 -41.5q14 -5 17 -7.5t3 -6.5q0 -6 -7 -6q-3 0 -27.5 1.5t-58.5 3.5t-60 2t-58.5 -2t-56 -3.5
t-26.5 -1.5q-7 0 -7 6q0 2 0.5 3t2.5 2.5t3.5 2.5t5.5 3t7 4q26 13 32.5 43.5t6.5 116.5v170v21q-22 -1 -45 -1q-13 0 -13 13t13 13q1 0 17 -0.5t30 -0.5q11 131 84 195.5t182 64.5q77 0 143 -36q16 1 32 4t28.5 6t23.5 6.5t19.5 7t14.5 6.5t9 5l3 1q6 0 6 -6q0 -1 -3 -16.5
t-6 -52t-3 -88.5v-226q0 -129 8.5 -176t41.5 -69zM253 387l178 3v179q-6 27 -28.5 44t-58.5 17q-41 0 -66 -24t-25 -67v-152z" />
    <glyph glyph-name="T_h.liga" unicode="Th" horiz-adv-x="1236" 
d="M1197 14q16 -11 16 -15q0 -6 -7 -6q-11 0 -57 3.5t-75 3.5q-30 0 -76.5 -3.5t-47.5 -3.5q-7 0 -7 6q0 5 18 16q16 13 20 31t4 77v173q0 42 -10.5 58t-36.5 16q-34 0 -60.5 -49.5t-26.5 -135.5q0 -96 6 -128t33 -44q4 -2 8.5 -3.5t6.5 -2t3 -2.5t1 -5q0 -7 -8 -7
q-5 0 -56 3.5t-83 3.5q-25 0 -57.5 -2t-56 -3.5t-26.5 -1.5q-8 0 -8 6q0 2 0.5 3.5t2 2.5l3 2t5 2.5t6.5 2.5q27 13 34.5 58.5t7.5 193.5v195q0 61 -3 85t-15 39q-25 30 -104 30q-54 0 -69 -26q-6 -9 -8.5 -29.5t-4.5 -86t-2 -189.5v-136q0 -79 6.5 -101t33.5 -31
q21 -9 21 -15t-7 -6q-3 0 -34 1.5t-70 3.5t-57 2t-57 -2t-70 -3.5t-34 -1.5q-7 0 -7 6t21 15q27 9 33.5 31t6.5 100v137q0 124 -2 189.5t-4.5 86t-8.5 29.5q-15 26 -53 26q-42 0 -70.5 -37t-63.5 -156q-5 -15 -11 -15t-6 9q0 1 1 23.5t1.5 60.5t0.5 78q0 25 -5.5 41.5
t-5.5 17.5q0 7 7 7q3 0 12 -1t29.5 -3t52.5 -4t93 -3t140 -1q109 0 222 5t185 9.5t84 4.5q7 0 7 -5q0 -2 -2 -35t-3.5 -91t-1.5 -120v-101q33 107 145 107q88 0 127.5 -41t39.5 -129v-111q0 -59 5.5 -77t28.5 -32z" />
    <glyph glyph-name="f_b.liga" unicode="fb" horiz-adv-x="964" 
d="M739 404q78 0 136.5 -54t58.5 -150q0 -99 -64 -157t-163 -58q-31 0 -52.5 7.5t-57.5 29.5q-50 30 -55 30q-9 0 -24 -11l-54 -44q-17 -12 -26 -12q-11 0 -11 14q0 1 1 15.5t2 47.5t1 80q0 415 -2 428q-5 26 -27 43t-58 17q-41 0 -66 -24t-25 -67v-151q58 3 81 3
q16 0 16 -14t-16 -14l-81 2v-201q0 -79 9 -109.5t35 -41.5q14 -5 17 -7.5t3 -6.5q0 -6 -7 -6q-3 0 -27.5 1.5t-58.5 3.5t-60 2t-58.5 -2t-56 -3.5t-26.5 -1.5q-7 0 -7 6q0 2 0.5 3t2.5 2.5t3.5 2.5t5.5 3t7 4q26 13 32.5 43.5t6.5 116.5v170v21q-22 -1 -45 -1q-13 0 -13 13
t13 13q1 0 17 -0.5t30 -0.5q11 131 84 195.5t182 64.5q80 0 150 -40q28 6 53.5 16t39.5 17t19 7q8 0 8 -9q0 -2 -1.5 -23.5t-1.5 -36.5v-252h4q26 76 126 76zM680 5q35 0 50.5 41t15.5 154q0 99 -11.5 136.5t-46.5 37.5q-80 0 -79 -177v-34q2 -158 71 -158z" />
    <glyph glyph-name="f_f.liga" unicode="ff" horiz-adv-x="720" 
d="M556 620q-17 0 -27.5 -10t-10.5 -27q0 -20 17 -47.5t36.5 -65.5t23.5 -80q25 1 50 1q16 0 16 -14t-16 -14h-49v-199q0 -70 12 -105.5t46 -44.5q27 -7 27 -14t-7 -7q-3 0 -33 1.5t-69 3.5t-65 2q-25 0 -58 -2t-56.5 -3.5t-26.5 -1.5q-7 0 -7 6q0 2 0.5 3t2.5 2.5t3.5 2.5
t5.5 3t7 4q26 13 32.5 43.5t6.5 116.5v183v8q-46 1 -128 1h-29v-17v-185q0 -69 10.5 -105t39.5 -45q9 -3 12.5 -5t5 -3.5t1.5 -5.5q0 -7 -7 -7q-3 0 -30 1.5t-62.5 3.5t-58.5 2q-25 0 -58 -2t-56.5 -3.5t-26.5 -1.5q-7 0 -7 6q0 2 0.5 3t2.5 2.5t3.5 2.5t5.5 3t7 4
q26 13 32.5 43.5t6.5 116.5v190h-52q-13 0 -13 13t13 13q26 0 52 -1v1q0 116 73.5 179t180.5 63q91 0 142 -44q49 61 138 61q54 0 82 -19.5t29 -50.5q0 -28 -19 -46.5t-47 -18.5q-26 0 -38 13.5t-23 45.5q-14 47 -43 47zM289 387q82 0 129 1q3 68 17 118q-14 59 -37 84.5
t-59 25.5t-57.5 -23t-21.5 -66v-140h29z" />
    <glyph glyph-name="f_f_b.liga" unicode="ffb" horiz-adv-x="1335" 
d="M1079 404q78 0 136.5 -54t58.5 -150q0 -99 -64 -157t-163 -58q-31 0 -52.5 7.5t-57.5 29.5q-50 30 -55 30q-9 0 -24 -11l-54 -44q-16 -12 -26 -12q-11 0 -11 14q0 1 1 15.5t2 47.5t1 80q0 415 -2 428q-5 26 -27 43t-58 17q-41 0 -66 -24t-25 -67v-149h46l25 1
q16 0 16 -14t-16 -14q-34 0 -71 1v-200q0 -79 9 -109.5t35 -41.5q14 -5 17 -7.5t3 -6.5q0 -6 -7 -6q-3 0 -27.5 1.5t-58.5 3.5t-60 2q-25 0 -58 -2t-56.5 -3.5t-26.5 -1.5q-7 0 -7 6q0 2 0.5 3t2.5 2.5t3.5 2.5t5.5 3t7 4q26 13 32.5 43.5t6.5 116.5v170v22h-40h-121v-40
v-162q0 -79 9 -109.5t35 -41.5q14 -5 17 -7.5t3 -6.5q0 -6 -7 -6q-3 0 -27.5 1.5t-58.5 3.5t-60 2t-58.5 -2t-56 -3.5t-26.5 -1.5q-7 0 -7 6q0 2 0.5 3t2.5 2.5t3.5 2.5t5.5 3t7 4q26 13 32.5 43.5t6.5 116.5v130q0 35 4 60h-39q-13 0 -13 13t13 13h43q21 99 89 149t164 50
q81 0 136 -37q71 97 211 97q80 0 150 -40q28 6 53.5 16t39.5 17t19 7q8 0 8 -9q0 -2 -1.5 -23.5t-1.5 -36.5v-252h4q26 76 126 76zM374 387h42q4 42 11 67q-16 57 -37.5 84t-58.5 27q-34 0 -56 -25t-22 -72v-80q41 -1 121 -1zM1020 5q35 0 50.5 41t15.5 154
q0 99 -11.5 136.5t-46.5 37.5q-80 0 -79 -177v-34q2 -158 71 -158z" />
    <glyph glyph-name="f_f_h.liga" unicode="ffh" horiz-adv-x="1340" 
d="M1295 14q16 -11 16 -15q0 -6 -7 -6q-11 0 -57 3.5t-75 3.5q-30 0 -76.5 -3.5t-47.5 -3.5q-7 0 -7 6q0 5 18 16q16 13 20 31t4 77v173q0 42 -10.5 58t-36.5 16q-34 0 -60.5 -49.5t-26.5 -135.5v-65q0 -43 9 -67t41 -38q17 -11 17 -16q0 -6 -7 -6l-57 3q-57 4 -92 4
q-25 0 -58 -2t-56.5 -3.5t-26.5 -1.5q-7 0 -7 6q0 7 17 17q28 18 35 61t7 183v309q-6 27 -28.5 44t-58.5 17q-41 0 -66 -24t-25 -67v-149h46l25 1q16 0 16 -14t-16 -14q-34 0 -71 1v-200q0 -79 9 -109.5t35 -41.5q14 -5 17 -7.5t3 -6.5q0 -6 -7 -6q-3 0 -27.5 1.5t-58.5 3.5
t-60 2q-25 0 -58 -2t-56.5 -3.5t-26.5 -1.5q-7 0 -7 6q0 2 0.5 3t2.5 2.5t3.5 2.5t5.5 3t7 4q26 13 32.5 43.5t6.5 116.5v170v22h-40h-121v-40v-162q0 -79 9 -109.5t35 -41.5q14 -5 17 -7.5t3 -6.5q0 -6 -7 -6q-3 0 -27.5 1.5t-58.5 3.5t-60 2t-58.5 -2t-56 -3.5t-26.5 -1.5
q-7 0 -7 6q0 2 0.5 3t2.5 2.5t3.5 2.5t5.5 3t7 4q26 13 32.5 43.5t6.5 116.5v130q0 35 4 60h-39q-13 0 -13 13t13 13h43q21 99 89 149t164 50q81 0 136 -37q71 97 211 97q77 0 143 -36q16 1 32 4t28.5 6t23.5 6.5t19.5 7t14.5 6.5t9 5l3 1q6 0 6 -6q0 -1 -3 -16.5t-6 -52
t-3 -88.5v-189q33 107 145 107q88 0 127.5 -41t39.5 -129v-111q0 -59 5.5 -77t28.5 -32zM374 387h42q4 42 11 67q-16 57 -37.5 84t-58.5 27q-34 0 -56 -25t-22 -72v-80q41 -1 121 -1z" />
    <glyph glyph-name="f_f_i.liga" unicode="ffi" horiz-adv-x="1023" 
d="M980 12q18 -9 18 -14q0 -6 -8 -6q-3 0 -27.5 2t-59 3.5t-59.5 1.5q-26 0 -56.5 -1.5t-52 -3.5t-24.5 -2q-7 0 -7 6q0 2 0.5 3t2.5 2.5t3.5 2.5t5.5 3t7 4q20 13 25.5 41t5.5 98v150q0 33 -14 48q-14 14 -80 14h-61v-200q0 -79 9 -109.5t35 -41.5q14 -5 17 -7.5t3 -6.5
q0 -6 -7 -6q-3 0 -27.5 1.5t-58.5 3.5t-60 2t-58.5 -2t-56 -3.5t-26.5 -1.5q-7 0 -7 6q0 2 0.5 3t2.5 2.5t3.5 2.5t5.5 3t7 4q26 13 32.5 43.5t6.5 116.5v170v20h-149v-38v-162q0 -79 9 -109.5t35 -41.5q14 -5 17 -7.5t3 -6.5q0 -6 -7 -6q-3 0 -27.5 1.5t-58.5 3.5t-60 2
t-58.5 -2t-56 -3.5t-26.5 -1.5q-7 0 -7 6q0 2 0.5 3t2.5 2.5t3.5 2.5t5.5 3t7 4q26 13 32.5 43.5t6.5 116.5v130q0 35 4 60h-67q-13 0 -13 13t13 13h72q21 99 88.5 149t163.5 50q77 0 130 -33q73 93 218 93q80 0 143 -34.5t63 -85.5q0 -34 -21.5 -54t-54.5 -20q-66 0 -92 83
q-14 48 -31.5 70t-45.5 22t-45.5 -21t-17.5 -64v-155h123q45 0 132.5 9t89.5 9q8 0 8 -7q0 -4 -5 -17t-7 -19q-7 -28 -7 -145v-37q0 -79 9.5 -118t37.5 -53zM271 390h151q4 44 17 84q-14 46 -35 68.5t-55 22.5t-56 -25t-22 -72v-78z" />
    <glyph glyph-name="f_f_j.liga" unicode="ffj" horiz-adv-x="988" 
d="M942 408q8 0 8 -7q0 -4 -5 -17t-7 -19q-7 -28 -7 -145v-142q-7 -293 -193 -293q-46 0 -75 26t-30 65q-1 31 17.5 49t45.5 18t42 -14t22 -45q13 -63 47 -63q14 0 23.5 9.5t9.5 24.5q0 18 -14 41.5t-30 45.5t-30 59t-14 78v223q0 38 -12 51q-15 15 -62 15h-81v-204
q0 -79 9 -109.5t35 -41.5q14 -5 17 -7.5t3 -6.5q0 -6 -7 -6q-3 0 -27.5 1.5t-58.5 3.5t-60 2t-58.5 -2t-56 -3.5t-26.5 -1.5q-7 0 -7 6q0 2 0.5 3t2.5 2.5t3.5 2.5t5.5 3t7 4q26 13 32.5 43.5t6.5 116.5v170q0 16 1 23q-105 0 -150 -1v-40v-162q0 -79 9 -109.5t35 -41.5
q14 -5 17 -7.5t3 -6.5q0 -6 -7 -6q-3 0 -27.5 1.5t-58.5 3.5t-60 2t-58.5 -2t-56 -3.5t-26.5 -1.5q-7 0 -7 6q0 2 0.5 3t2.5 2.5t3.5 2.5t5.5 3t7 4q26 13 32.5 43.5t6.5 116.5v130q0 36 4 60h-54q-13 0 -13 13t13 13h59q21 99 88.5 149t163.5 50q77 0 130 -33q73 93 218 93
q80 0 143 -34.5t63 -85.5q0 -34 -21.5 -54t-54.5 -20q-66 0 -92 83q-14 48 -31.5 70t-45.5 22t-45.5 -21t-17.5 -64v-155h123q45 0 132.5 9t89.5 9zM269 390h151q4 44 17 84q-15 46 -35.5 68.5t-54.5 22.5t-56 -25t-22 -72v-78z" />
    <glyph glyph-name="f_f_k.liga" unicode="ffk" horiz-adv-x="1335" 
d="M1305 19q4 -4 8.5 -7.5t6.5 -5t3.5 -3.5t1.5 -4q0 -6 -8 -6q-3 0 -20.5 1.5t-44 3.5t-51.5 2q-32 0 -87 -4l-54 -3q-7 0 -7 6q0 3 10.5 11.5t10.5 15.5q0 20 -85 148q-12 20 -19 20q-5 0 -12 -5l-9 -6v-63q0 -43 9 -67t41 -38q17 -11 17 -16q0 -6 -7 -6l-57 3
q-57 4 -92 4q-25 0 -58 -2t-56.5 -3.5t-26.5 -1.5q-7 0 -7 6q0 7 17 17q28 18 35 61t7 183v309q-6 27 -28.5 44t-58.5 17q-41 0 -66 -24t-25 -67v-149h46l25 1q16 0 16 -14t-16 -14q-34 0 -71 1v-200q0 -79 9 -109.5t35 -41.5q14 -5 17 -7.5t3 -6.5q0 -6 -7 -6
q-3 0 -27.5 1.5t-58.5 3.5t-60 2q-25 0 -58 -2t-56.5 -3.5t-26.5 -1.5q-7 0 -7 6q0 2 0.5 3t2.5 2.5t3.5 2.5t5.5 3t7 4q26 13 32.5 43.5t6.5 116.5v170v22h-40h-121v-40v-162q0 -79 9 -109.5t35 -41.5q14 -5 17 -7.5t3 -6.5q0 -6 -7 -6q-3 0 -27.5 1.5t-58.5 3.5t-60 2
t-58.5 -2t-56 -3.5t-26.5 -1.5q-7 0 -7 6q0 2 0.5 3t2.5 2.5t3.5 2.5t5.5 3t7 4q26 13 32.5 43.5t6.5 116.5v130q0 35 4 60h-39q-13 0 -13 13t13 13h43q21 99 89 149t164 50q81 0 136 -37q71 97 211 97q77 0 143 -36q16 1 32 4t28.5 6t23.5 6.5t19.5 7t14.5 6.5t9 5l3 1
q6 0 6 -6q0 -1 -3 -16.5t-6 -52t-3 -88.5v-284q102 69 135 97.5t33 46.5t-32 33q-19 9 -19 13q0 5 7 5l41 -3q41 -4 61 -4q17 0 55 3t42 3q8 0 8 -6q0 -7 -37 -15q-41 -7 -126 -70l-14 -10q102 -155 202 -276zM374 387h42q4 42 11 67q-16 57 -37.5 84t-58.5 27
q-34 0 -56 -25t-22 -72v-80q41 -1 121 -1z" />
    <glyph glyph-name="f_f_l.liga" unicode="ffl" horiz-adv-x="1045" 
d="M999 15q17 -11 17 -16q0 -6 -7 -6l-57 3q-57 4 -92 4q-25 0 -58 -2t-56.5 -3.5t-26.5 -1.5q-7 0 -7 6q0 7 17 17q28 18 35 61t7 183v309q-6 27 -28.5 44t-58.5 17q-41 0 -66 -24t-25 -67v-149h46l25 1q16 0 16 -14t-16 -14q-34 0 -71 1v-200q0 -79 9 -109.5t35 -41.5
q14 -5 17 -7.5t3 -6.5q0 -6 -7 -6q-3 0 -27.5 1.5t-58.5 3.5t-60 2q-25 0 -58 -2t-56.5 -3.5t-26.5 -1.5q-7 0 -7 6q0 2 0.5 3t2.5 2.5t3.5 2.5t5.5 3t7 4q26 13 32.5 43.5t6.5 116.5v170v22h-40h-121v-40v-162q0 -79 9 -109.5t35 -41.5q14 -5 17 -7.5t3 -6.5q0 -6 -7 -6
q-3 0 -27.5 1.5t-58.5 3.5t-60 2t-58.5 -2t-56 -3.5t-26.5 -1.5q-7 0 -7 6q0 2 0.5 3t2.5 2.5t3.5 2.5t5.5 3t7 4q26 13 32.5 43.5t6.5 116.5v130q0 35 4 60h-39q-13 0 -13 13t13 13h43q21 99 89 149t164 50q81 0 136 -37q71 97 211 97q77 0 143 -36q16 1 32 4t28.5 6
t23.5 6.5t19.5 7t14.5 6.5t9 5l3 1q6 0 6 -6q0 -1 -3 -16.5t-6 -52t-3 -88.5v-226q0 -129 8.5 -176t41.5 -69zM374 387h42q4 42 11 67q-16 57 -37.5 84t-58.5 27q-34 0 -56 -25t-22 -72v-80q41 -1 121 -1z" />
    <glyph glyph-name="f_h.liga" unicode="fh" horiz-adv-x="994" 
d="M955 14q16 -11 16 -15q0 -6 -7 -6q-11 0 -57 3.5t-75 3.5q-30 0 -76.5 -3.5t-47.5 -3.5q-7 0 -7 6q0 5 18 16q16 13 20 31t4 77v173q0 42 -10.5 58t-36.5 16q-33 0 -58.5 -44.5t-28.5 -123.5v-42q0 -58 6.5 -91t28.5 -54q17 -11 17 -16q0 -6 -7 -6q-3 0 -25.5 1.5
t-54 3.5t-54.5 2q-25 0 -58 -2t-56.5 -3.5t-26.5 -1.5q-7 0 -7 6q0 7 17 17q28 18 35 61t7 183v309q-6 27 -28.5 44t-58.5 17q-41 0 -66 -24t-25 -67v-151q58 3 81 3q16 0 16 -14t-16 -14l-81 2v-201q0 -79 9 -109.5t35 -41.5q14 -5 17 -7.5t3 -6.5q0 -6 -7 -6
q-3 0 -27.5 1.5t-58.5 3.5t-60 2t-58.5 -2t-56 -3.5t-26.5 -1.5q-7 0 -7 6q0 2 0.5 3t2.5 2.5t3.5 2.5t5.5 3t7 4q26 13 32.5 43.5t6.5 116.5v170v21q-22 -1 -45 -1q-13 0 -13 13t13 13q1 0 17 -0.5t30 -0.5q11 131 84 195.5t182 64.5q75 0 144 -37q21 4 42 9.5t35.5 10
t26.5 8.5l18 6l7 3q6 0 6 -6q0 -1 -3 -16.5t-6 -52t-3 -88.5v-188q33 106 145 106q88 0 127.5 -41t39.5 -129v-111q0 -59 5.5 -77t28.5 -32z" />
    <glyph glyph-name="f_j.liga" unicode="fj" horiz-adv-x="646" 
d="M600 408q8 0 8 -7q0 -4 -5 -17t-7 -19q-7 -28 -7 -145v-142q-1 -293 -193 -293q-46 0 -75 26t-30 65q-1 31 17.5 49t45.5 18t42 -14t22 -45q13 -63 47 -63q14 0 23.5 9.5t9.5 24.5q0 18 -14 41.5t-30 45.5t-30 59t-14 78v223q0 38 -12 51q-15 15 -62 15h-81v-204
q0 -79 9 -109.5t35 -41.5q14 -5 17 -7.5t3 -6.5q0 -6 -7 -6q-3 0 -27.5 1.5t-58.5 3.5t-60 2t-58.5 -2t-56 -3.5t-26.5 -1.5q-7 0 -7 6q0 2 0.5 3t2.5 2.5t3.5 2.5t5.5 3t7 4q26 13 32.5 43.5t6.5 116.5v170v21q-25 -1 -47 -1q-13 0 -13 13t13 13h49q12 131 88 195t191 64
q80 0 143 -34.5t63 -85.5q0 -34 -21.5 -54t-54.5 -20q-66 0 -92 83q-14 48 -31.5 70t-45.5 22t-45.5 -21t-17.5 -64v-155h123q45 0 132.5 9t89.5 9z" />
    <glyph glyph-name="f_k.liga" unicode="fk" horiz-adv-x="994" 
d="M964 19q4 -4 8.5 -7.5t6.5 -5t3.5 -3.5t1.5 -4q0 -6 -8 -6q-3 0 -20.5 1.5t-44 3.5t-51.5 2q-32 0 -86 -4l-55 -3q-7 0 -7 6q0 3 10.5 11.5t10.5 15.5q0 20 -85 148q-12 20 -19 20q-5 0 -12 -5l-8 -5v-24q0 -58 6.5 -91t28.5 -54q17 -11 17 -16q0 -6 -7 -6
q-3 0 -25.5 1.5t-54 3.5t-54.5 2q-25 0 -58 -2t-56.5 -3.5t-26.5 -1.5q-7 0 -7 6q0 7 17 17q28 18 35 61t7 183v309q-6 27 -28.5 44t-58.5 17q-41 0 -66 -24t-25 -67v-151q58 3 81 3q16 0 16 -14t-16 -14l-81 2v-201q0 -79 9 -109.5t35 -41.5q14 -5 17 -7.5t3 -6.5
q0 -6 -7 -6q-3 0 -27.5 1.5t-58.5 3.5t-60 2t-58.5 -2t-56 -3.5t-26.5 -1.5q-7 0 -7 6q0 2 0.5 3t2.5 2.5t3.5 2.5t5.5 3t7 4q26 13 32.5 43.5t6.5 116.5v170v21q-22 -1 -45 -1q-13 0 -13 13t13 13q1 0 17 -0.5t30 -0.5q11 131 84 195.5t182 64.5q75 0 144 -37q21 4 42 9.5
t35.5 10t26.5 8.5l18 6l7 3q6 0 6 -6q0 -1 -3 -16.5t-6 -52t-3 -88.5v-284q101 69 134 97.5t33 46.5t-32 33q-19 9 -19 13q0 5 7 5l41 -3q41 -4 61 -4q17 0 55 3t42 3q8 0 8 -6q0 -7 -37 -15q-41 -7 -126 -70l-14 -10q102 -155 202 -276z" />
    <glyph glyph-name=".notdef" horiz-adv-x="500" 
d="M410 720v-1000h-317v1000h317zM333 653h-165v-33h65v-37h-66v-33h166v33h-66v37h66v33zM267 524h-100v-104h166v34h-66v70zM233 490v-36h-33v36h33zM333 393h-166v-33h66v-37h-66v-33h100v70h66v33zM333 333h-33v-66h-133v-34h166v100zM333 211h-100v-56h34v23h33v-47
h-100v80h-33v-113h166v113zM333 38h-166v-113h166v113zM300 5v-47h-100v47h100zM333 -98h-166v-33h70l-70 -47v-33h166v33h-102l70 47h32v33z" />
    <glyph glyph-name=".null" 
 />
    <glyph glyph-name="nonmarkingreturn" horiz-adv-x="333" 
 />
    <glyph glyph-name="space" unicode=" " horiz-adv-x="210" 
 />
    <glyph glyph-name="exclam" unicode="!" horiz-adv-x="314" 
d="M146 182q-6 83 -30.5 163.5t-45 134.5t-20.5 76q0 37 30 60.5t77 23.5t77 -23.5t30 -60.5q0 -22 -20.5 -76t-45 -134.5t-30.5 -163.5h-22zM157 127q35 0 56 -19.5t21 -51.5q0 -31 -21 -50.5t-56 -19.5q-33 0 -54.5 19t-21.5 51q0 31 21.5 51t54.5 20z" />
    <glyph glyph-name="quotedbl" unicode="&#x22;" horiz-adv-x="412" 
d="M109 341q-3 68 -17.5 118.5t-28 78.5t-13.5 44q0 28 17.5 43t48.5 15t48.5 -15t17.5 -43q0 -16 -13.5 -44t-28 -78.5t-17.5 -118.5h-14zM289 341q-3 68 -17.5 118.5t-28 78.5t-13.5 44q0 28 17.5 43t48.5 15t48.5 -15t17.5 -43q0 -16 -13.5 -44t-28 -78.5t-17.5 -118.5
h-14z" />
    <glyph glyph-name="numbersign" unicode="#" horiz-adv-x="449" 
d="M424 390q8 0 8 -12t-8 -12h-101l-28 -150h109q8 0 8 -12t-8 -12h-113l-33 -179q-3 -13 -15 -13q-10 0 -8 13l32 179h-127l-33 -179q-3 -13 -15 -13q-10 0 -8 13l32 179h-97q-8 0 -8 12t8 12h101l27 150h-103q-8 0 -8 12t8 12h107l29 164q3 15 16 15t10 -15l-30 -164h126
l29 164q3 15 16 15t10 -15l-30 -164h97zM271 216l27 150h-126l-28 -150h127z" />
    <glyph glyph-name="dollar" unicode="$" horiz-adv-x="654" 
d="M577 192q0 -79 -55.5 -126t-135.5 -58v-83q0 -8 -12 -8t-12 8v80h-17q-14 0 -36 2v-82q0 -8 -12 -8t-12 8v85q-33 5 -74.5 18t-53.5 13q-28 0 -34 -29q-3 -10 -8 -10q-6 0 -6 8q0 41 -0.5 75.5t-1 55.5t-1 35t-0.5 20l-1 7q0 6 6 6q7 0 9 -9q36 -142 165 -170v185l-9 2
q-172 38 -172 166q0 71 52.5 113t128.5 49v105q0 8 12 8t12 -8v-103h8q24 0 45 -3v106q0 8 12 8t12 -8v-109q27 -6 61 -18t44 -12q19 0 22 24q3 16 9 16q7 0 7 -8q0 -24 1.5 -49.5t3.5 -46t3.5 -37t2.5 -26.5l2 -10q0 -5 -5 -5q-6 0 -8 8q-60 114 -143 142v-153l14 -3
q92 -22 134.5 -60.5t42.5 -110.5zM315 530h-6v-144q9 -4 17 -5l36 -9v154q-30 4 -47 4zM221 465q0 -49 64 -72v135q-31 -6 -47.5 -23t-16.5 -40zM344 24q12 0 18 1v169q-22 7 -43 12l-10 3v-183q22 -2 35 -2zM386 29q66 16 66 74q0 31 -14.5 49.5t-51.5 32.5v-156z" />
    <glyph glyph-name="percent" unicode="%" horiz-adv-x="857" 
d="M216 304q-80 0 -133 47.5t-53 118.5q0 73 53 121.5t133 48.5t133 -48.5t53 -121.5q0 -71 -53 -118.5t-133 -47.5zM114 -4q-15 0 -15 7q0 4 7 11l642 615q7 7 18 7q13 0 13 -7q0 -4 -7 -11l-645 -617q-5 -5 -13 -5zM216 318q26 0 37.5 32t11.5 120q0 89 -11.5 122.5
t-37.5 33.5t-37.5 -33.5t-11.5 -122.5q0 -88 11.5 -120t37.5 -32zM641 -10q-80 0 -133 47.5t-53 118.5q0 73 53 121.5t133 48.5t133 -48.5t53 -121.5q0 -71 -53 -118.5t-133 -47.5zM641 4q26 0 37.5 32t11.5 120q0 89 -11.5 122.5t-37.5 33.5t-37.5 -33.5t-11.5 -122.5
q0 -88 11.5 -120t37.5 -32z" />
    <glyph glyph-name="ampersand" unicode="&#x26;" horiz-adv-x="779" 
d="M772 117q7 0 7 -6q0 -4 -3 -13q-11 -38 -66.5 -75.5t-129.5 -37.5q-64 0 -114 33q-61 -33 -148 -33q-121 0 -201.5 43t-80.5 124q0 112 153 160q-36 42 -53 76.5t-17 79.5q0 77 61.5 124.5t146.5 47.5q73 0 125 -32.5t52 -84.5q0 -48 -42.5 -82.5t-105.5 -49.5
q1 -2 5 -5.5t5 -5.5l195 -214q9 30 9 58q0 66 -22.5 97t-80.5 43q-15 3 -15 10q0 6 7 6q1 0 49 -3.5t79 -3.5q25 0 56.5 1.5t55 3.5t26.5 2q7 0 7 -6q0 -5 -11 -8l-8 -3q-47 -16 -71 -46t-39 -99q-11 -46 -24 -72l33 -36q44 -49 85 -49q47 0 66 46q4 10 9 10zM327 623
q-27 0 -45 -21t-18 -56q0 -38 18.5 -66.5t64.5 -78.5q46 40 46 132q0 90 -66 90zM352 4q53 0 98 24q-33 24 -87 85l-102 117l-42 47q-15 -42 -15 -96q0 -81 38.5 -129t109.5 -48z" />
    <glyph glyph-name="quotesingle" unicode="'" horiz-adv-x="152" 
d="M69 341q-3 68 -17.5 118.5t-28 78.5t-13.5 44q0 28 17.5 43t48.5 15t48.5 -15t17.5 -43q0 -16 -13.5 -44t-28 -78.5t-17.5 -118.5h-14z" />
    <glyph glyph-name="parenleft" unicode="(" horiz-adv-x="330" 
d="M246 -235q-100 136 -144.5 252t-44.5 264t44.5 264t144.5 252h26q-51 -136 -74 -252t-23 -264t23 -264t74 -252h-26z" />
    <glyph glyph-name="parenright" unicode=")" horiz-adv-x="330" 
d="M84 -235h-26q51 136 74 252t23 264t-23 264t-74 252h26q100 -136 144.5 -252t44.5 -264t-44.5 -264t-144.5 -252z" />
    <glyph glyph-name="asterisk" unicode="*" horiz-adv-x="402" 
d="M201 639q18 0 29.5 -11t11.5 -28q0 -13 -17.5 -48t-23.5 -69q-6 34 -23.5 69t-17.5 48q0 17 11.5 28t29.5 11zM52 532q6 17 20 24t30 2q13 -4 40.5 -31t58.5 -44q-35 5 -74 -0.5t-50 -2.5q-16 5 -23 19.5t-2 32.5zM349 532q6 -18 -1 -32.5t-23 -19.5q-12 -3 -50.5 2.5
t-73.5 0.5q31 17 58.5 44t39.5 31q16 5 30 -2t20 -24zM99 413q8 10 42.5 28t59.5 42q-16 -31 -22 -69.5t-14 -48.5q-10 -14 -25.5 -16.5t-30.5 8.5t-17.5 27t7.5 29zM293 357q-16 -11 -31.5 -8.5t-25.5 16.5q-7 10 -13 48.5t-22 69.5q25 -24 60 -42t42 -28q10 -13 7.5 -29
t-17.5 -27z" />
    <glyph glyph-name="plus" unicode="+" horiz-adv-x="560" 
d="M445 287q8 0 8 -12t-8 -12h-153v-153q0 -8 -12 -8t-12 8v153h-153q-8 0 -8 12t8 12h153v153q0 8 12 8t12 -8v-153h153z" />
    <glyph glyph-name="comma" unicode="," horiz-adv-x="283" 
d="M66 -153q-9 0 -9 8q0 7 9 9q50 12 92 51.5t42 86.5q0 13 -10 13q-4 0 -21.5 -15t-41.5 -15q-30 0 -53.5 23t-23.5 59q0 37 25 60t62 23q43 0 69.5 -29.5t26.5 -80.5q0 -43 -16 -78t-38 -55.5t-47 -35t-42 -19.5t-24 -5z" />
    <glyph glyph-name="hyphen" unicode="-" horiz-adv-x="365" 
d="M303 225q12 0 12 -15t-12 -15q-19 0 -56.5 0.5t-55.5 0.5l-128 -1q-13 0 -13 14q0 15 13 16q48 -2 124 -2q22 0 65 1t51 1z" />
    <glyph glyph-name="period" unicode="." horiz-adv-x="281" 
d="M140 150q41 0 66 -22.5t25 -60.5q0 -37 -25 -59.5t-66 -22.5q-39 0 -64.5 22.5t-25.5 59.5t25.5 60t64.5 23z" />
    <glyph glyph-name="slash" unicode="/" horiz-adv-x="376" 
d="M25 -85q-10 -1 -10 6q0 3 3 9l326 767q5 12 17 12q10 0 11 -5q0 -5 -3 -11l-327 -767q-5 -11 -17 -11z" />
    <glyph glyph-name="zero" unicode="0" horiz-adv-x="624" 
d="M312 572q120 0 197.5 -80t77.5 -213t-77.5 -213t-197.5 -80t-197.5 80t-77.5 213t77.5 213t197.5 80zM312 0q33 0 51 19t28.5 80.5t10.5 179.5t-10.5 179.5t-28.5 80.5t-51 19t-51 -19t-28.5 -80.5t-10.5 -179.5t10.5 -179.5t28.5 -80.5t51 -19z" />
    <glyph glyph-name="one" unicode="1" horiz-adv-x="452" 
d="M316 572q7 0 7 -5q0 -2 -1.5 -25t-3.5 -60.5t-2 -72.5v-178q0 -117 8.5 -157t42.5 -56q6 -3 13 -6l10.5 -4.5l7 -3t4.5 -2.5t1 -3q0 -6 -7 -6l-69 3q-69 4 -111 4q-30 0 -70 -2t-68.5 -3.5t-31.5 -1.5q-7 0 -7 6q0 5 14 9q59 15 72 42t13 112v134q0 126 -14.5 162.5
t-80.5 53.5q-12 3 -12 10q0 9 10 9q52 2 117 12t109.5 19.5t48.5 9.5z" />
    <glyph glyph-name="two" unicode="2" horiz-adv-x="606" 
d="M113 63q-24 0 -24 -20q0 -5 4.5 -16.5t4.5 -18.5q0 -19 -23 -19q-26 0 -26 52q0 81 40.5 138t117.5 85q76 27 105 67t29 100q0 56 -27.5 89t-77.5 33q-33 0 -54.5 -15.5t-21.5 -40.5t26.5 -54t26.5 -53q0 -26 -21.5 -41t-54.5 -15q-34 0 -57.5 23t-23.5 63q0 66 64.5 109
t173.5 43q98 0 167.5 -41.5t69.5 -103.5q0 -70 -62 -111.5t-171 -54.5q-231 -28 -231 -215q0 -9 2 -27h7q-2 12 -2 28q0 58 41 100t118 42q44 0 129.5 -22.5t115.5 -22.5q35 0 54.5 23.5t24.5 78.5q1 12 9 12t8 -7q0 -35 -13 -116q-13 -77 -41.5 -110t-83.5 -33
q-54 0 -177 35.5t-146 35.5z" />
    <glyph glyph-name="three" unicode="3" horiz-adv-x="602" 
d="M272 -15q-109 0 -165 38t-56 98q0 44 28 68.5t67 24.5q30 0 48 -14.5t18 -40.5q0 -20 -30 -49.5t-30 -50.5q0 -26 22.5 -41.5t57.5 -15.5q51 0 87 35.5t36 105.5q0 142 -125 142q-10 0 -23 -1.5t-14 -1.5q-21 0 -21 19t21 19q5 0 30 -4.5t38 -4.5q93 0 93 126
q0 60 -27.5 90.5t-74.5 30.5q-38 0 -61 -14.5t-23 -41.5q0 -15 17.5 -40t17.5 -44q0 -27 -19 -43t-46 -16q-34 0 -56.5 20.5t-22.5 54.5q0 64 63.5 101t150.5 37q115 0 187 -37.5t72 -96.5q0 -62 -65.5 -97.5t-182.5 -39.5v-5q82 -2 141 -16t96 -47t37 -82q0 -72 -79.5 -119
t-206.5 -47z" />
    <glyph glyph-name="four" unicode="4" horiz-adv-x="523" 
d="M465 115h-61q2 -45 13.5 -65.5t43.5 -34.5q23 -11 23 -16q0 -6 -7 -6q-1 0 -67 3.5t-107 3.5q-35 0 -89 -4l-53 -3q-7 0 -7 6q0 2 1.5 3.5t7.5 4t11 5.5q29 17 39 36t11 67h-208q-11 0 -11 12q0 9 7 17l338 402q15 18 20.5 22t16.5 4q19 0 19 -17q0 -4 -0.5 -24
t-1.5 -54.5t-1 -67.5v-238v-10h62q26 0 26 -21q0 -13 -6 -18.5t-20 -6.5zM50 161h175v1v188q0 10 -4 10t-13 -11z" />
    <glyph glyph-name="five" unicode="5" horiz-adv-x="590" 
d="M247 -15q-89 0 -142.5 40t-53.5 102q0 34 20.5 53.5t51.5 19.5q29 0 47 -14.5t18 -40.5q0 -22 -17.5 -50t-17.5 -46q0 -47 65 -47q54 0 89 40.5t35 109.5q0 74 -33 112t-93 38q-47 0 -98 -27l-5 -2.5t-4.5 -2.5t-3.5 -2t-4 -1q-7 0 -14 6t-7 13v259q0 22 21 22
q2 0 87.5 -4.5t133.5 -4.5q36 0 81 2t76 4t33 2q9 0 9 -8q0 -58 -65 -107.5t-166 -49.5q-41 0 -82 8.5t-66.5 16.5t-29.5 8q-9 0 -9 -10v-135q61 42 165 42q116 0 192 -45t76 -124q0 -77 -82 -127t-207 -50z" />
    <glyph glyph-name="six" unicode="6" horiz-adv-x="600" 
d="M372 339q77 0 134 -43t57 -119q0 -83 -69.5 -137.5t-166.5 -54.5q-121 0 -193 80.5t-72 199.5q0 130 83 218.5t202 88.5q73 0 123.5 -34t50.5 -89q0 -33 -21 -51.5t-53 -18.5q-28 0 -47 15t-19 42q0 15 11.5 37.5t11.5 38.5q0 20 -17.5 31.5t-45.5 11.5q-62 0 -82 -53
q-14 -36 -15 -184v-51q9 35 45 53.5t83 18.5zM326 2q41 0 60.5 37.5t19.5 129.5q0 73 -20.5 105.5t-62.5 32.5q-80 0 -80 -147q0 -83 20.5 -120.5t62.5 -37.5z" />
    <glyph glyph-name="seven" unicode="7" horiz-adv-x="524" 
d="M527 569q15 0 15 -14q0 -8 -25 -39l-165 -199q-49 -60 -68.5 -89t-19.5 -51t9.5 -56.5t9.5 -56.5q0 -37 -22.5 -58t-57.5 -21t-57.5 23t-22.5 60q0 21 7.5 42.5t17.5 38t33.5 42.5t40 42t54.5 52t60 58q31 31 49 51q-15 -3 -37 -3q-20 0 -103 8.5t-102 8.5q-34 0 -55 -12
l-26 -96q-3 -9 -9 -9q-7 0 -7 8q0 1 5 41.5t10.5 107.5t5.5 131q0 10 8 10q7 0 9 -6q7 -23 8 -28q45 9 96 9q31 0 109.5 -8.5t102.5 -8.5q43 0 71 5.5t40 11t16 5.5z" />
    <glyph glyph-name="eight" unicode="8" horiz-adv-x="542" 
d="M360 340q76 -33 111.5 -71.5t35.5 -97.5q0 -88 -77.5 -137t-195.5 -49q-84 0 -141.5 38t-57.5 97q0 44 30.5 79.5t85.5 57.5q-50 28 -74.5 61.5t-24.5 84.5q0 72 64 120.5t153 48.5q83 0 137.5 -32t54.5 -84q0 -73 -101 -116zM277 555q-42 0 -68.5 -21t-26.5 -56
q0 -42 34 -67.5t107 -55.5l15 -6q50 35 50 103q0 45 -32.5 74t-78.5 29zM244 2q51 0 82 28t31 74q0 11 -2 20.5t-8 18t-11 15.5t-15.5 14t-17 11.5t-21 11.5t-21.5 10.5t-24 10.5t-24 10l-43 21q-63 -41 -63 -120q0 -59 35.5 -92t101.5 -33z" />
    <glyph glyph-name="nine" unicode="9" horiz-adv-x="584" 
d="M225 218q-75 0 -131 42.5t-56 121.5q0 81 67 135.5t163 54.5q128 0 199.5 -83t71.5 -197q0 -132 -86.5 -219.5t-218.5 -87.5q-71 0 -121.5 29.5t-50.5 77.5q0 29 20.5 46.5t50.5 17.5q27 0 46 -14t19 -39q0 -13 -10.5 -33t-10.5 -34q0 -34 69 -34q36 0 61.5 15.5
t34.5 39.5q10 26 12.5 64t2.5 169q-9 -35 -46 -53.5t-86 -18.5zM277 555q-46 0 -64 -34.5t-18 -126.5q0 -144 83 -144q81 0 81 148q0 84 -19.5 120.5t-62.5 36.5z" />
    <glyph glyph-name="colon" unicode=":" horiz-adv-x="281" 
d="M140 400q41 0 66 -22.5t25 -60.5q0 -37 -25 -59.5t-66 -22.5q-39 0 -64.5 22.5t-25.5 59.5t25.5 60t64.5 23zM140 154q41 0 66 -22.5t25 -60.5q0 -37 -25 -59.5t-66 -22.5q-39 0 -64.5 22.5t-25.5 59.5t25.5 60t64.5 23z" />
    <glyph glyph-name="semicolon" unicode=";" horiz-adv-x="283" 
d="M140 404q41 0 66 -22.5t25 -60.5q0 -37 -25 -59.5t-66 -22.5q-39 0 -64.5 22.5t-25.5 59.5t25.5 60t64.5 23zM66 -153q-9 0 -9 8q0 7 9 9q50 12 92 51.5t42 86.5q0 13 -10 13q-4 0 -21.5 -15t-41.5 -15q-30 0 -53.5 23t-23.5 59q0 37 25 60t62 23q43 0 69.5 -29.5
t26.5 -80.5q0 -43 -16 -78t-38 -55.5t-47 -35t-42 -19.5t-24 -5z" />
    <glyph glyph-name="less" unicode="&#x3c;" horiz-adv-x="560" 
d="M115 162q0 7 10 13l246 153q11 6 15 6t8 -5.5t4 -10.5t-13 -12l-232 -144l232 -144q13 -7 13 -12t-4 -10.5t-8 -5.5t-15 6l-246 153q-10 6 -10 13z" />
    <glyph glyph-name="equal" unicode="=" horiz-adv-x="560" 
d="M107 344q0 12 8 12h330q8 0 8 -12t-8 -12h-330q-8 0 -8 12zM107 204q0 12 8 12h330q8 0 8 -12t-8 -12h-330q-8 0 -8 12z" />
    <glyph glyph-name="greater" unicode="&#x3e;" horiz-adv-x="560" 
d="M431 162q0 -7 -10 -13l-246 -153q-11 -6 -15 -6t-8 5.5t-4 10.5t13 12l232 144l-232 144q-13 7 -13 12t4 10.5t8 5.5t15 -6l246 -153q10 -6 10 -13z" />
    <glyph glyph-name="question" unicode="?" horiz-adv-x="572" 
d="M235 195v16q0 79 49 118q26 21 37 52t11 90q0 80 -23 115t-72 35q-38 0 -60.5 -13.5t-22.5 -37.5q0 -17 18.5 -40.5t18.5 -44.5q0 -27 -21 -42t-50 -15q-31 0 -50.5 18.5t-19.5 51.5q0 61 61 101.5t161 40.5q118 0 184 -41.5t66 -115.5q0 -60 -48.5 -99t-138.5 -66
q-40 -12 -57.5 -36t-17.5 -66v-21h-25zM252 127q35 0 56 -19.5t21 -51.5q0 -31 -21 -50.5t-56 -19.5q-33 0 -54.5 19t-21.5 51q0 31 21.5 51t54.5 20z" />
    <glyph glyph-name="at" unicode="@" horiz-adv-x="723" 
d="M548 359q7 0 7 -7q0 -8 -5 -33l-23 -119q-12 -60 -12 -81q0 -37 37 -37q39 0 77 40.5t38 124.5q0 108 -82.5 172.5t-207.5 64.5q-135 0 -228 -82t-93 -214q0 -123 88.5 -199.5t215.5 -76.5q116 0 200 52q21 15 25 15q10 0 10 -11q0 -6 -15 -16q-88 -61 -220 -61
q-138 0 -234 81.5t-96 215.5q0 143 100.5 230t246.5 87q136 0 226 -70t90 -189q0 -95 -54.5 -148t-118.5 -53q-108 0 -108 97q0 3 0.5 6.5t1 10.5t0.5 14h-4q-19 -75 -44.5 -103.5t-76.5 -28.5q-52 0 -92 39.5t-40 103.5q0 80 57 132.5t135 52.5q31 0 65.5 -15t39.5 -15
q13 0 51.5 10t42.5 10zM326 66q35 0 58.5 86.5t23.5 142.5q0 52 -32 52q-37 0 -62 -75.5t-25 -140.5t37 -65z" />
    <glyph glyph-name="A" unicode="A" horiz-adv-x="755" 
d="M376 -6q-10 0 -10 6q0 2 0.5 3.5t2 2.5t3 1.5t5 1.5t6.5 2q49 13 49 44q0 27 -35 140q-5 15 -24 16q-29 2 -121 2q-66 0 -80 -1q-14 0 -18 -10q-22 -67 -28 -93q-6 -27 -6 -41q0 -22 14.5 -34.5t50.5 -22.5q15 -4 15 -10q0 -7 -9 -7q-2 0 -41.5 3t-60.5 3q-16 0 -45 -3
l-29 -3q-10 0 -10 7q0 8 9 9q32 5 52 30.5t44 92.5q137 384 151 429q4 12 4 16t-25 12q-24 10 -26 15q0 7 13 8q58 3 119 12t96.5 16.5t36.5 7.5q7 0 7 -8q0 -3 -5 -10.5t-5 -14.5q0 -6 6 -25q18 -62 73.5 -215.5t99.5 -262.5q19 -47 33 -68t33 -30q26 -10 26 -16
q0 -5 -9 -5q-4 0 -35 1.5t-75.5 3t-80.5 1.5q-33 0 -73 -1.5t-67.5 -3t-30.5 -1.5zM261 236q99 0 108 2q10 1 10 10q0 4 -2 10l-94 284q-3 9 -6 9q-2 0 -6 -9l-98 -284q-4 -12 -4 -15q0 -5 8 -6q9 -1 84 -1z" />
    <glyph glyph-name="B" unicode="B" horiz-adv-x="750" 
d="M382 -7q-6 0 -71.5 4.5t-105.5 4.5q-29 0 -65.5 -2t-63 -3.5t-29.5 -1.5q-7 0 -7 6t18 14q23 10 30 36q10 42 10 266q0 226 -10 263q-7 26 -30 37q-18 8 -18 14t7 6q3 0 27 -1.5t57.5 -3.5t59.5 -2q34 0 103.5 4.5t87.5 4.5q159 0 220 -29q36 -18 56 -48.5t20 -66.5
q0 -68 -65 -110.5t-205 -48.5v-2h17q125 0 197 -32q95 -39 95 -122q0 -187 -335 -187zM346 342q76 0 99.5 29.5t23.5 123.5q0 76 -24.5 103t-85.5 27q-29 0 -40 -12q-7 -11 -7 -40v-208q0 -14 7 -18.5t27 -4.5zM375 7q63 0 92 40t29 123q0 76 -27.5 115t-93.5 39
q-38 0 -50.5 -11t-12.5 -46v-85q0 -132 11 -153q12 -22 52 -22z" />
    <glyph glyph-name="C" unicode="C" horiz-adv-x="704" 
d="M654 275q8 0 8 -7l-2 -26q-3 -27 -5.5 -92t-2.5 -159q0 -7 -8 -7t-9 15q-3 32 -39 32q-18 0 -84 -23t-112 -23q-158 0 -258.5 90t-100.5 239t103 239.5t261 90.5q51 0 110.5 -22.5t66.5 -22.5q24 0 27 29q3 16 11 16t8 -9q0 -52 7 -120q4 -51 9 -89.5t8 -54.5t3 -17
q0 -7 -7 -7t-10 9l-14 47q-31 108 -84.5 167.5t-121.5 59.5q-48 0 -78.5 -24t-50 -95.5t-19.5 -196.5q0 -126 16.5 -196t46 -94.5t79.5 -24.5q27 0 56.5 10t61 31.5t57.5 62t39 93.5l18 69q2 10 10 10z" />
    <glyph glyph-name="D" unicode="D" horiz-adv-x="819" 
d="M386 639q176 0 284 -88t108 -237t-108 -237t-284 -88q-3 0 -33.5 2t-72.5 4.5t-75 2.5q-29 0 -65.5 -2t-63 -3.5t-29.5 -1.5q-7 0 -7 6q0 2 0.5 3l1 2t2.5 2.5t3.5 2t5 2.5t5.5 3q23 10 30 36q10 42 10 267q0 227 -10 265q-8 26 -30 37q-18 8 -18 14t7 6q3 0 29.5 -1.5
t63 -3.5t65.5 -2q33 0 75 2t72.5 4.5t33.5 2.5zM396 4q79 0 115.5 69t36.5 241q0 173 -36.5 242t-115.5 69q-58 0 -74 -45q-10 -31 -10 -265q0 -236 10 -266q15 -45 74 -45z" />
    <glyph glyph-name="E" unicode="E" horiz-adv-x="719" 
d="M643 54q0 -16 4.5 -26t10 -13t10 -6t4.5 -6q0 -6 -7 -6q-13 0 -202 1.5t-242 1.5q-47 0 -86 -0.5t-60.5 -1.5t-27.5 -1q-7 0 -7 6q0 5 19 15q23 10 30 35q10 44 10 262q0 227 -10 265q-8 26 -30 37q-19 8 -19 14t7 6q5 0 33.5 -1.5t72.5 -3.5t87 -2q59 0 239 3.5t186 3.5
q7 0 7 -6q0 -4 -7 -7t-14.5 -13.5t-7.5 -30.5q0 -31 5.5 -73.5t10.5 -73.5t5 -33q0 -8 -7 -8t-10 12q-22 66 -51 110t-62.5 65t-63 29t-65.5 8q-51 0 -67 -20q-24 -29 -25 -242q1 -14 10 -19t35 -5q41 0 66 11.5t38 29t31 57.5q3 8 9 8q5 0 5 -7q0 -1 -1.5 -16.5t-2.5 -41
t-1 -51.5q0 -30 1 -54.5t2.5 -38t1.5 -15.5q0 -7 -5 -7q-6 0 -9 8q-18 40 -31 57.5t-38 29t-66 11.5q-26 0 -34.5 -5t-10.5 -18q2 -231 27 -257q16 -17 65 -17q85 -3 151.5 64t90.5 220q1 16 11 16q6 0 6 -8q0 -1 -5 -42.5t-10.5 -102t-5.5 -107.5z" />
    <glyph glyph-name="F" unicode="F" horiz-adv-x="667" 
d="M653 631q0 -4 -7 -7t-14 -13.5t-7 -30.5q0 -28 5 -66.5t10 -66.5t5 -30q0 -8 -6 -8q-7 0 -11 12q-26 77 -66 122t-76 57.5t-81 12.5q-51 0 -68 -20q-25 -29 -25 -263q0 -16 12.5 -20t57.5 -4q35 0 62 27.5t53 88.5q3 8 9 8q5 0 5 -7q0 -2 -1.5 -20t-2.5 -47.5t-1 -59.5
q0 -35 1 -63.5t2.5 -44t1.5 -18.5q0 -7 -5 -7q-6 0 -9 8q-43 116 -115 116q-43 0 -56 -3.5t-14 -17.5q0 -87 1.5 -129t7.5 -70.5t14.5 -37t27.5 -15.5q28 -11 28 -15q0 -6 -7 -6q-3 0 -33 1.5t-72 3.5t-74 2q-29 0 -65.5 -2t-63 -3.5t-29.5 -1.5q-7 0 -7 6q0 5 18 15
q23 10 30 35q10 46 10 266q0 227 -10 265q-8 26 -30 37q-18 8 -18 14t7 6q2 0 93 -3.5t151 -3.5q97 0 218.5 3.5t136.5 3.5q7 0 7 -6z" />
    <glyph glyph-name="G" unicode="G" horiz-adv-x="731" 
d="M664 -15q-6 0 -9 12q-7 34 -41 34q-32 0 -98 -21t-114 -21q-159 0 -260 86t-101 230q0 151 107 242.5t270 91.5q56 0 116 -20t68 -20q13 0 19 6.5t8 22.5q3 16 11 16t8 -12q0 -49 2.5 -91t5.5 -67.5t6 -43.5t5.5 -27.5t2.5 -11.5q0 -7 -8 -7q-4 0 -9 9
q-64 126 -117.5 178t-119.5 52q-35 0 -59.5 -13t-45.5 -46.5t-31 -98t-10 -160.5q1 -172 32.5 -238.5t105.5 -66.5q67 0 67 76v54q0 59 -6 74.5t-33 27.5q-19 9 -19 14q0 6 7 6q3 0 27 -2t56.5 -3.5t57.5 -1.5q29 0 66 1.5t63.5 3.5t29.5 2q7 0 7 -6q0 -3 -3 -4.5
t-10.5 -4.5t-12.5 -6q-23 -12 -28 -33t-5 -101v-97q0 -15 -8 -15z" />
    <glyph glyph-name="H" unicode="H" horiz-adv-x="856" 
d="M797 14q19 -10 19 -15q0 -6 -7 -6q-3 0 -29.5 1.5t-63.5 3.5t-66 2q-28 0 -65 -2t-63.5 -3.5t-29.5 -1.5q-7 0 -7 6q0 5 19 15q18 8 25.5 28.5t10 67t3.5 157.5q-1 26 -19.5 31t-96.5 5q-76 0 -94.5 -5t-19.5 -31q1 -111 3.5 -157.5t10 -67t25.5 -28.5q19 -10 19 -15
q0 -6 -7 -6q-3 0 -29.5 1.5t-63.5 3.5t-65 2q-29 0 -66 -2t-63.5 -3.5t-29.5 -1.5q-7 0 -7 6q0 5 19 15q23 10 30 35q10 46 10 266q0 227 -10 265q-8 26 -30 37q-19 8 -19 14t7 6q3 0 29.5 -1.5t63.5 -3.5t66 -2q28 0 65 2t63.5 3.5t29.5 1.5q7 0 7 -6t-19 -14
q-19 -9 -26 -25.5t-10 -64t-3 -167.5q1 -28 19.5 -33.5t94.5 -5.5q78 0 96.5 5.5t19.5 33.5q0 120 -3 167.5t-10 64t-26 25.5q-19 8 -19 14t7 6q3 0 29.5 -1.5t63.5 -3.5t65 -2q29 0 66 2t63.5 3.5t29.5 1.5q7 0 7 -6t-19 -14q-23 -11 -30 -36q-10 -44 -10 -266
q0 -227 10 -264q8 -27 30 -37z" />
    <glyph glyph-name="I" unicode="I" horiz-adv-x="445" 
d="M64 -6q-7 0 -7 6t19 15q23 10 30 35q10 44 10 265q0 227 -10 265q-8 26 -30 37q-19 8 -19 14t7 6q3 0 29.5 -1.5t63.5 -3.5t66 -2q28 0 65 2t63.5 3.5t29.5 1.5q7 0 7 -6t-19 -14q-28 -13 -33.5 -58t-5.5 -244q0 -227 10 -264q6 -26 29 -36q19 -9 19 -15t-7 -6
q-3 0 -29.5 2t-63.5 3.5t-65 1.5q-29 0 -66 -1.5t-63.5 -3.5t-29.5 -2z" />
    <glyph glyph-name="J" unicode="J" horiz-adv-x="615" 
d="M568 637q7 0 7 -6q0 -3 -1.5 -4t-7 -4t-10.5 -6q-25 -16 -31.5 -46t-7.5 -129v-144q0 -313 -293 -313q-82 0 -142.5 35t-60.5 109q0 42 26.5 68t65.5 26q34 0 54.5 -20t20.5 -49q0 -21 -19.5 -50.5t-19.5 -50.5q0 -24 18 -38.5t51 -14.5q46 0 65.5 31.5t19.5 91.5v262
q0 121 -7.5 163t-37.5 69q-3 2 -7 5t-5.5 4.5t-1.5 4.5q0 6 7 6q3 0 29.5 -1.5t63.5 -3.5t66 -2q28 0 65 2t63.5 3.5t29.5 1.5z" />
    <glyph glyph-name="K" unicode="K" horiz-adv-x="782" 
d="M751 27q21 -22 21 -26q0 -7 -9 -7q-1 0 -45 3t-69 3q-52 0 -126 -3t-76 -3q-6 0 -6 6q0 5 12 12q12 10 12 17q0 13 -28 87.5t-62 144.5q-9 15 -17 15t-28 -23l-17 -17q1 -139 7.5 -174.5t31.5 -46.5q19 -9 19 -15t-7 -6q-3 0 -29.5 2t-63.5 3.5t-65 1.5q-29 0 -66 -1.5
t-63.5 -3.5t-29.5 -2q-7 0 -7 6t19 15q23 10 30 35q10 44 10 265q0 227 -10 265q-8 26 -30 37q-19 8 -19 14t7 6q3 0 29.5 -1.5t63.5 -3.5t66 -2q28 0 65 2t63.5 3.5t29.5 1.5q7 0 7 -6t-19 -14q-28 -13 -33.5 -58t-5.5 -244v-60l139 148q42 44 65.5 90t23.5 70q0 35 -47 57
q-9 4 -9 9q0 7 10 7q3 0 29.5 -1.5t63 -3t63.5 -1.5q16 0 37 1.5t37 3t18 1.5q6 0 6 -6t-16 -10q-72 -16 -159 -108l-70 -74q63 -139 135 -254t112 -157z" />
    <glyph glyph-name="L" unicode="L" horiz-adv-x="682" 
d="M198 630q34 0 73.5 2t66 3.5t30.5 1.5q7 0 7 -6q0 -5 -23 -14q-22 -10 -29 -36q-10 -43 -10 -280q0 -146 3 -192t12 -63q15 -29 77 -29q172 0 222 260q2 16 11 16q7 0 6 -16q-21 -158 -21 -227q0 -16 4.5 -26t10 -13t10 -6t4.5 -6q0 -6 -7 -6q-1 0 -101.5 1.5t-182.5 1.5
q-77 0 -194 -1.5t-120 -1.5q-7 0 -7 6q0 4 19 12q15 7 22 16t12 44t5.5 80.5t0.5 149.5q0 238 -10 278q-8 27 -30 38q-19 8 -19 14t7 6q2 0 24.5 -1.5t57.5 -3.5t69 -2z" />
    <glyph glyph-name="M" unicode="M" horiz-adv-x="958" 
d="M681 635q11 0 39.5 -2.5t53.5 -2.5q33 0 87 4l54 3q7 0 7 -6q0 -5 -19 -14q-15 -7 -21.5 -15.5t-11.5 -39.5t-6 -76.5t-1 -139.5v-31v-72t0.5 -58.5t1 -47.5t2 -36.5t2.5 -28.5t4 -20t5 -15t6.5 -10t8.5 -7.5t10 -5.5q19 -11 19 -15q0 -6 -7 -6q-3 0 -32 0.5t-69 1
t-71 0.5q-26 0 -60 -0.5t-58 -1t-27 -0.5q-7 0 -7 6q0 3 1.5 4.5t6.5 5t10 7.5q29 23 35.5 69.5t6.5 215.5q0 75 -0.5 137t-0.5 95v39t-3 6q-2 0 -5 -6q-3 -8 -12 -30.5t-30.5 -77t-50.5 -124.5l-141 -347q-4 -9 -10 -9q-5 0 -9 8l-243 531q-2 5 -5 5q-4 0 -4 -5
q-3 -76 -3 -229q0 -67 0.5 -108t6 -72.5t9 -46t18 -26.5t23.5 -15.5t34 -11.5q22 -7 22 -14q0 -6 -9 -6q-3 0 -48.5 3t-68.5 3q-20 0 -63 -3t-46 -3q-9 0 -9 7q0 4 16 9q26 7 37.5 11t25.5 16t19 28t10.5 49t6.5 76t1 111l-1 212q0 51 -12 71t-46 31q-18 5 -18 11q0 7 8 7
q3 0 25.5 -0.5t53.5 -1.5t53 -1q30 1 68 3t44 2q22 0 32 -22l164 -364l3 -4q1 0 4 4l134 342q11 27 20.5 35.5t29.5 8.5z" />
    <glyph glyph-name="N" unicode="N" horiz-adv-x="741" 
d="M631 -26q-7 0 -21 12l-452 393q-18 17 -28 17q-7 0 -7 -12v-200q0 -82 20.5 -116t77.5 -55q18 -7 18 -13t-9 -6q-6 0 -53 3t-60 3t-54.5 -3t-50.5 -3t-9 7q0 4 15 8q31 7 48 21.5t28.5 59t11.5 125.5v166q0 100 -6 141t-24 61q-12 13 -29.5 23t-28 15t-10.5 9q0 6 6 6
l28 -3q28 -3 41 -3q20 0 41.5 3t27.5 3q13 0 38 -19q90 -69 246.5 -194t178.5 -146q3 -3 5 -3q3 0 3 4v168q0 79 -23 117.5t-74 53.5q-19 5 -19 13q0 6 8 6q7 0 54 -3t60 -3q21 0 58.5 3t38.5 3q8 0 8 -6q0 -5 -16 -10q-43 -13 -60.5 -50t-17.5 -124v-457q0 -15 -9 -15z" />
    <glyph glyph-name="O" unicode="O" horiz-adv-x="794" 
d="M397 649q155 0 255.5 -91t100.5 -241q0 -149 -101 -240.5t-255 -91.5t-255 91.5t-101 240.5q0 150 100.5 241t255.5 91zM397 -2q65 0 96 75.5t31 243.5q0 172 -31 245t-96 73t-96 -73t-31 -245q0 -168 31 -243.5t96 -75.5z" />
    <glyph glyph-name="P" unicode="P" horiz-adv-x="727" 
d="M319 176q-5 0 -5 -6v-40q0 -59 9 -83.5t29 -32.5q5 -2 10 -4.5t7.5 -3.5t4.5 -2t3 -2.5t1 -3.5q0 -5 -7 -5q-3 0 -31.5 1.5t-67 3.5t-67.5 2t-65.5 -2t-63 -3.5t-29.5 -1.5q-7 0 -7 6q0 5 18 15q23 10 30 35q10 46 10 266q0 227 -10 265q-8 26 -30 37q-18 8 -18 14t7 6
q3 0 29.5 -1.5t63 -3.5t65.5 -2q39 0 102 4.5t75 4.5q161 0 242.5 -60t81.5 -168t-78.5 -177t-206.5 -69q-27 0 -50 2.5t-36.5 5.5t-15.5 3zM326 608q-6 -8 -8.5 -25.5t-4 -79.5t-1.5 -188q0 -87 1 -108q1 -12 8.5 -17t29.5 -5q67 0 97 55.5t31 168.5q-1 114 -25.5 165
t-78.5 51q-35 0 -49 -17z" />
    <glyph glyph-name="Q" unicode="Q" horiz-adv-x="794" 
d="M737 -6q6 0 6 -7q0 -27 -11 -63.5t-32.5 -75t-60 -64.5t-85.5 -26q-43 0 -86.5 23.5t-73.5 52t-70 55.5t-75 32q-6 -6 -21.5 -23t-22 -23t-19.5 -13t-26 -7q-27 0 -27 25q0 21 29.5 37.5t77.5 17.5q49 46 90 54v1q-129 20 -209 108t-80 219q0 150 100.5 241t255.5 91
t255.5 -91t100.5 -241q0 -149 -101 -240.5t-255 -91.5q-81 0 -135 -50q36 -1 136 -15.5t156 -14.5q82 0 118.5 19.5t54.5 59.5q4 10 10 10zM397 635q-65 0 -96 -73t-31 -245q0 -168 31 -243.5t96 -75.5t96 75.5t31 243.5q0 172 -31 245t-96 73z" />
    <glyph glyph-name="R" unicode="R" horiz-adv-x="806" 
d="M650 -37q-46 0 -97 25.5t-87 56t-75.5 56t-65.5 25.5q-10 0 -10 -13q2 -55 9.5 -73t27.5 -26q5 -2 10 -4.5t7.5 -3.5t4.5 -2t3 -2.5t1 -3.5q0 -5 -7 -5q-3 0 -31.5 1.5t-67 3.5t-66.5 2q-29 0 -66 -2t-63.5 -3.5t-29.5 -1.5q-7 0 -7 6q0 5 19 15q23 10 30 35
q10 46 10 266q0 229 -11 267q-7 24 -29 35q-19 8 -19 14t7 6q3 0 29.5 -1.5t63.5 -3.5t66 -2q40 0 105.5 4.5t71.5 4.5q153 0 241 -69.5t88 -178.5q0 -119 -84 -191.5t-207 -72.5q-30 0 -74 6v-2q20 -2 112.5 -23t168.5 -21q115 0 139 89q1 5 4 5q6 0 11 -19t5 -43
q0 -64 -38.5 -110t-98.5 -46zM354 141q69 0 100.5 60.5t31.5 189.5q0 122 -26 178t-80 56q-46 0 -57 -23q-8 -15 -9 -62t0 -225v-157q0 -10 8 -13.5t32 -3.5z" />
    <glyph glyph-name="S" unicode="S" horiz-adv-x="655" 
d="M67 -16q-7 0 -7 11q0 2 1.5 36.5t1.5 63.5q0 32 -2 62.5t-4 48.5t-2 20q0 8 7 8q6 0 11 -11q25 -51 48.5 -87t56.5 -69t75 -50t93 -17q58 0 92.5 28.5t34.5 76.5t-33.5 75.5t-126.5 49.5l-51 12q-208 47 -208 201q0 96 76.5 148t179.5 52q52 0 96.5 -11.5t72.5 -23
t41 -11.5t18.5 7t7.5 22q3 18 11 18t8 -9q0 -43 4 -91q2 -20 5 -47l5 -45t2 -20q0 -6 -7 -6t-10 9q-45 92 -104.5 143.5t-146.5 51.5q-58 0 -88 -25t-30 -64q0 -41 30.5 -63t96.5 -38l89 -21q110 -26 161 -72.5t51 -133.5q0 -56 -25 -101t-66 -72t-89 -41t-99 -14
q-68 0 -142 23t-85 23q-33 0 -40 -34q-3 -13 -10 -13z" />
    <glyph glyph-name="T" unicode="T" horiz-adv-x="720" 
d="M199 -7q-7 0 -7 6t21 15q27 9 33.5 31t6.5 100v137q0 124 -2 189.5t-4.5 86t-8.5 29.5q-15 26 -53 26q-42 0 -70.5 -37t-63.5 -156q-5 -15 -11 -15t-6 9q0 1 1 23.5t1.5 60.5t0.5 78q0 25 -5.5 41.5t-5.5 17.5q0 7 7 7q3 0 12 -1t29.5 -3t52.5 -4t93 -3t140 -1t140 1
t93 3t52.5 4t29.5 3t12 1q7 0 7 -7q0 -1 -5.5 -17.5t-5.5 -41.5q0 -40 0.5 -78t1.5 -60.5t1 -23.5q0 -9 -6 -9t-11 15q-35 119 -63.5 156t-70.5 37q-38 0 -53 -26q-6 -9 -8.5 -29.5t-4.5 -86t-2 -189.5v-136q0 -79 6.5 -101t33.5 -31q21 -9 21 -15t-7 -6q-3 0 -34 1.5
t-70 3.5t-57 2t-57 -2t-70 -3.5t-34 -1.5z" />
    <glyph glyph-name="U" unicode="U" horiz-adv-x="726" 
d="M378 -15q-147 0 -224.5 71t-77.5 238v210q0 57 -6 78.5t-26 33.5q-3 2 -7 4t-5.5 3t-3.5 2.5t-2.5 2.5t-0.5 3q0 6 7 6q3 0 28 -1.5t60 -3.5t63 -2q29 0 66 2t63.5 3.5t29.5 1.5q7 0 7 -6q0 -2 -1 -3l-3 -3t-4.5 -3t-7.5 -4.5t-10 -6.5q-14 -9 -19.5 -18.5t-9.5 -39.5
t-4 -88l-1 -231q0 -93 40 -140.5t116 -47.5q30 0 58.5 12t55 38.5t42.5 77.5t16 120v208q0 59 -17.5 83.5t-60.5 34.5q-15 5 -15 11t7 6l36 -3q36 -4 60 -4q25 0 58.5 3.5t35.5 3.5q6 0 6 -6q0 -3 -3.5 -5t-12.5 -4.5t-13 -4.5q-33 -13 -45.5 -43t-12.5 -108v-178
q0 -153 -69.5 -228t-192.5 -75z" />
    <glyph glyph-name="V" unicode="V" horiz-adv-x="750" 
d="M365 -27q-5 0 -9 6l-241 528q-19 40 -37 62t-45 39q-24 17 -25 22q0 7 9 7q104 -7 186 -7q41 0 104 3.5t66 3.5q10 0 10 -7q0 -5 -8 -7q-1 -1 -2 -1l-4 -1q-31 -9 -40.5 -17t-9.5 -22q0 -20 18.5 -75.5t39 -106.5t46 -112.5t28.5 -68.5t6 -7t7 8q108 235 131 300
q12 34 12 51q0 21 -14.5 31.5t-52.5 17.5q-14 3 -14 9q0 7 9 7q2 0 42 -3t64 -3q23 0 57 3l34 3q10 0 10 -7t-9 -9q-47 -7 -69.5 -30.5t-49.5 -80.5l-240 -530q-3 -6 -9 -6z" />
    <glyph glyph-name="W" unicode="W" horiz-adv-x="1116" 
d="M1099 635q9 0 9 -7t-8 -8q-47 -7 -70 -31t-45 -80l-210 -518q-3 -6 -9 -6t-8 6l-206 511q-106 -305 -185 -512q-3 -6 -8 -6t-9 6q-94 232 -241 517q-26 52 -42 74t-34 30q-16 7 -20.5 10.5t-4.5 8.5t9 5q1 0 33 -1.5t77.5 -2.5t79.5 -1q37 0 106 2l69 3q9 0 9 -5
q0 -6 -21 -13q-21 -6 -29 -15t-8 -25q0 -25 38 -135t70 -189q1 -3 2 -3t2 3q79 217 96 276q-18 45 -26.5 60t-24.5 26q-4 3 -7.5 5t-5 3t-2.5 2.5t-1 4.5q0 5 9 5q3 0 29 -1.5t63.5 -2.5t67.5 -1q48 0 86 1t59 2.5t27 1.5q9 0 9 -5q0 -8 -21 -13q-24 -6 -34 -15t-10 -25
q0 -17 21.5 -84t46.5 -140t29 -89q4 -13 5 -13t6 12q6 15 19.5 48t21.5 53t20.5 50t19.5 50t14.5 41.5t11 36.5t3.5 23q0 21 -14.5 33.5t-46.5 20.5q-14 4 -14 10t7 6q3 0 36.5 -2.5t52.5 -2.5q26 0 64 2z" />
    <glyph glyph-name="X" unicode="X" horiz-adv-x="742" 
d="M721 20q4 -2 7.5 -3.5t6.5 -2.5t5.5 -2.5t4.5 -2t4 -1.5t3 -2t2 -1.5t1.5 -1t1 -1.5t0.5 -2q0 -7 -6 -7q-2 0 -30.5 1.5t-68.5 3.5t-69 2t-64.5 -2t-61 -3.5t-29.5 -1.5q-9 0 -9 7q0 4 10 16t10 20t-15.5 34t-57.5 89.5t-70 107.5q-122 -154 -122 -210q0 -35 49 -50
q10 -3 10 -8q0 -6 -8 -6q-3 0 -23.5 1.5t-48 3.5t-48.5 2t-49.5 -2t-47.5 -4l-20 -1q-7 0 -7 5q0 6 9 7q47 11 71 28q75 58 224 252q-8 15 -17 28q-91 150 -141.5 214.5t-98.5 87.5q-22 11 -22 15q0 7 8 7q2 0 52 -3.5t88 -3.5q30 0 69.5 2t68 3.5t30.5 1.5q7 0 7 -6
q0 -1 -11 -12q-10 -9 -10 -17q0 -28 112 -196q92 125 92 167q0 23 -29 40q-5 3 -13.5 6.5t-11.5 6t-3 5.5q0 6 7 6l16 -1q16 -2 40 -4t43 -2q29 0 60.5 2t51.5 3.5t21 1.5q6 0 6 -5q0 -1 -0.5 -2.5t-2 -2.5l-3 -2t-4 -2t-4.5 -1.5t-6 -2t-7 -2.5q-44 -14 -95.5 -60.5
t-148.5 -164.5l18 -26q85 -124 167 -229.5t107 -116.5z" />
    <glyph glyph-name="Y" unicode="Y" horiz-adv-x="700" 
d="M189 -7q-7 0 -7 6q0 5 19 15q28 10 34 44t6 172q0 33 -10.5 60.5t-42.5 75.5l-97 148q-39 59 -54 78t-27 25q-18 8 -18 14q0 5 9 5q3 0 30.5 -1.5t67 -3t70.5 -1.5q26 0 60.5 1.5t59.5 3t28 1.5q7 0 7 -6q0 -5 -19 -13q-21 -8 -21 -22q0 -18 34.5 -83.5t119.5 -212.5
l71 132q40 74 40 124t-57 66q-10 3 -10 9t11 6q3 0 24 -1.5t49.5 -3t48.5 -1.5q14 0 43 3l29 3q9 0 9 -6q0 -7 -9 -10q-38 -12 -62 -36t-52 -75l-115 -211q-3 -5 -3 -14q0 -203 10 -237q6 -23 29 -33q19 -10 19 -15q0 -6 -7 -6q-3 0 -29.5 1.5t-63.5 3.5t-65 2q-29 0 -66 -2
t-63.5 -3.5t-29.5 -1.5z" />
    <glyph glyph-name="Z" unicode="Z" horiz-adv-x="702" 
d="M34 -7q-7 0 -7 6q0 2 1 4t2 3t3 3.5t4 4.5q75 106 190 301q66 111 99 171t40.5 78.5t7.5 29.5q0 18 -44 19h-6q-100 0 -150.5 -36t-103.5 -154q-5 -12 -12 -12t-7 8q0 2 5.5 29.5t10.5 66t5 65.5t-5 38.5t-5 12.5q0 6 7 6q1 0 103 -1.5t182 -1.5q54 0 121.5 1t113 1.5
t46.5 0.5q7 0 7 -6q0 -3 -2 -4.5t-6.5 -4.5t-8.5 -8q-13 -16 -170 -299q-26 -47 -53.5 -96t-42.5 -75.5t-28.5 -50.5t-18.5 -36t-5 -18q0 -22 31 -22q23 0 47 3q94 14 167.5 79.5t97.5 194.5q2 16 12 16q5 0 5 -8q0 -1 -5.5 -42.5t-10.5 -102t-5 -107.5q0 -11 1 -30t1 -20
q0 -6 -7 -6q-1 0 -112.5 1t-189.5 1q-77 0 -189.5 -1.5t-115.5 -1.5z" />
    <glyph glyph-name="bracketleft" unicode="[" horiz-adv-x="380" 
d="M360 734h-138v-936h138v-26h-244v988h244v-26z" />
    <glyph glyph-name="backslash" unicode="\" horiz-adv-x="410" 
d="M439 -85q-12 0 -17 11l-297 717q-3 7 -3 11q1 5 11 5q13 0 17 -12l297 -717q2 -8 2 -9q0 -7 -10 -6z" />
    <glyph glyph-name="bracketright" unicode="]" horiz-adv-x="380" 
d="M264 760v-988h-244v26h138v936h-138v26h244z" />
    <glyph glyph-name="asciicircum" unicode="^" horiz-adv-x="540" 
d="M57 410q-7 0 -7 7q0 9 101 147q9 14 15 21.5t15.5 20.5t17.5 25q2 3 6.5 9.5t6 8.5t5 7t5.5 6.5t5 5t5 5t5.5 3.5t7 2.5t7.5 1t8 0.5q5 0 9 -0.5t8 -2t7 -2.5t6.5 -4.5t5.5 -5t6 -7t5.5 -7.5t6.5 -9.5l7 -10.5q18 -25 48 -67q99 -138 101 -147q0 -7 -7 -7t-34.5 24.5
t-167.5 151.5h-2q-140 -127 -167.5 -151.5t-34.5 -24.5z" />
    <glyph glyph-name="underscore" unicode="_" horiz-adv-x="556" 
d="M50 -55q0 12 8 12h440q8 0 8 -12t-8 -12h-440q-8 0 -8 12z" />
    <glyph glyph-name="grave" unicode="`" horiz-adv-x="400" 
d="M312 454q-3 0 -5 1q-109 41 -175 78q-29 16 -40 28t-11 28q0 18 11 29t30 12q23 1 57.5 -29.5t133.5 -137.5q4 -4 4 -6q0 -3 -5 -3z" />
    <glyph glyph-name="a" unicode="a" horiz-adv-x="575" 
d="M566 85q8 0 8 -8q0 -45 -25.5 -68.5t-95.5 -23.5q-61 0 -95 23t-44 75q-30 -98 -159 -98q-58 0 -91.5 23.5t-33.5 70.5q0 36 22 61t64 40t86.5 22.5t106.5 12.5v83q0 51 -18 70.5t-55 19.5q-28 0 -43.5 -10.5t-15.5 -25.5q0 -10 10 -30.5t10 -34.5q0 -24 -20.5 -40
t-52.5 -16q-34 0 -53.5 17.5t-19.5 48.5q0 45 51.5 76t158.5 31q57 0 99.5 -9t77 -30t52 -59.5t17.5 -94.5v-142q0 -35 23 -35q26 0 26 43q0 8 10 8zM243 33q27 0 46.5 33t19.5 85v48l-8 -2q-60 -12 -80 -32q-18 -17 -18 -61q0 -71 40 -71z" />
    <glyph glyph-name="b" unicode="b" horiz-adv-x="600" 
d="M75 -15q-12 0 -12 14q0 1 1 15.5t2 47.5t1 80v288q0 52 -10 86.5t-16 41.5t-19 19q-7 7 -7 12q0 8 10 8q57 0 105.5 13t76.5 26t33 13q8 0 8 -9q0 -2 -0.5 -12.5t-1 -23.5t-0.5 -24v-252h3q26 76 126 76q78 0 136.5 -54t58.5 -150q0 -99 -64 -157t-163 -58q-31 0 -52 7.5
t-57 29.5q-52 30 -56 30q-8 0 -24 -11l-54 -44q-16 -12 -25 -12zM316 5q35 0 50.5 41t15.5 154q0 99 -11.5 136.5t-46.5 37.5q-80 0 -79 -177v-34q2 -158 71 -158z" />
    <glyph glyph-name="c" unicode="c" horiz-adv-x="504" 
d="M476 127q6 0 6 -6v-2q-27 -134 -209 -134q-108 0 -175.5 56.5t-67.5 146.5q0 101 72 158.5t197 57.5q44 0 84.5 -12.5t41.5 -12.5q16 0 22 24q3 8 9 8q7 0 7 -9q0 -46 3.5 -85.5t7 -60.5t3.5 -22q0 -8 -7 -8t-10 10q-38 150 -124 150q-105 0 -105 -170q0 -185 114 -185
q44 0 77.5 23t45.5 64q3 9 8 9z" />
    <glyph glyph-name="d" unicode="d" horiz-adv-x="612" 
d="M578 33q13 -5 13 -11q0 -7 -9 -7q-42 0 -92.5 -6t-85 -12t-36.5 -6q-7 0 -7 6q0 2 1.5 15t3.5 33.5t3 37.5h-2q-29 -98 -124 -98q-88 0 -150.5 57.5t-62.5 146.5q0 96 62.5 155.5t150.5 59.5q79 0 110 -53h1v36q-1 106 -9 140.5t-31 47.5q-18 11 -18 17q0 7 9 7
q56 0 110 11.5t85 23.5t33 12q6 0 6 -6l-1 -18q-2 -18 -4 -62t-2 -109l1 -278q0 -81 7 -104.5t38 -35.5zM362 189q1 190 -80 190q-34 0 -48 -41.5t-16 -148.5q2 -97 15.5 -136.5t45.5 -39.5q37 0 59.5 46t23.5 130z" />
    <glyph glyph-name="e" unicode="e" horiz-adv-x="529" 
d="M494 122q7 0 7 -6q0 -4 -3 -14q-18 -52 -74 -84.5t-135 -32.5q-117 0 -188 59t-71 153t70.5 150.5t181.5 56.5q96 0 159 -44.5t63 -115.5q0 -46 -39 -46l-247 1q2 -90 29.5 -130.5t90.5 -40.5q110 0 147 84q4 10 9 10zM283 390q-37 0 -50.5 -36.5t-14.5 -133.5l100 1
q16 0 19.5 6.5t3.5 36.5q0 71 -14 98.5t-44 27.5z" />
    <glyph glyph-name="f" unicode="f" horiz-adv-x="379" 
d="M215 620q-17 0 -27.5 -10t-10.5 -27q0 -20 17 -48t36.5 -66t23.5 -80l76 2q16 0 16 -14t-16 -14l-75 2v-201q0 -70 12 -105.5t46 -44.5q27 -7 27 -14t-7 -7q-3 0 -33 1.5t-69 3.5t-65 2t-58.5 -2t-56 -3.5t-26.5 -1.5q-7 0 -7 6q0 2 0.5 3t2.5 2.5t3.5 2.5t5.5 3t7 4
q26 13 32.5 43.5t6.5 116.5v183v8q-23 -1 -47 -1q-13 0 -13 13t13 13q1 0 17.5 -0.5t30.5 -0.5q11 260 197 260q54 0 82 -19.5t29 -50.5q0 -28 -19 -46.5t-47 -18.5q-26 0 -38 13.5t-23 45.5q-14 47 -43 47z" />
    <glyph glyph-name="g" unicode="g" horiz-adv-x="534" 
d="M342 49q99 0 144.5 -29.5t45.5 -90.5q0 -144 -258 -144q-123 0 -180 17t-57 54q0 48 86 62q-90 15 -90 91q0 91 149 106q-68 15 -107 52t-39 89q0 68 63.5 108t166.5 40q30 0 55 -3q12 59 47 87.5t72 28.5q34 0 53 -18t19 -46q0 -25 -17 -42t-43 -17q-43 0 -54 43
q-3 11 -5.5 14t-8.5 3q-11 0 -23.5 -15.5t-18.5 -40.5q71 -14 112.5 -51t41.5 -91q0 -68 -64 -108.5t-166 -40.5h-9q-67 0 -91.5 -7.5t-24.5 -24.5q0 -26 51 -26h150zM266 388q-33 0 -47.5 -29.5t-15.5 -102.5q1 -73 15.5 -103t47.5 -30t47.5 30t15.5 103q-1 73 -15.5 102.5
t-47.5 29.5zM276 -201q162 0 162 65q0 49 -75 49l-161 1q-31 -2 -46 -17t-15 -37q0 -29 28.5 -45t106.5 -16z" />
    <glyph glyph-name="h" unicode="h" horiz-adv-x="656" 
d="M616 14q16 -11 16 -15q0 -6 -7 -6q-11 0 -57 3.5t-75 3.5q-30 0 -76.5 -3.5t-47.5 -3.5q-7 0 -7 6q0 5 18 16q16 13 20 31t4 77v189q0 58 -42 58q-38 0 -65 -49t-27 -136q0 -96 6 -128t33 -44q4 -2 8.5 -3.5t6.5 -2t3 -2.5t1 -5q0 -7 -8 -7q-5 0 -56 3.5t-83 3.5
q-25 0 -57.5 -2t-56 -3.5t-26.5 -1.5q-8 0 -8 6q0 2 0.5 3.5t2 2.5l3 2t5 2.5t6.5 2.5q27 13 34.5 58.5t7.5 193.5v112q0 111 -8.5 145.5t-42.5 56.5q-2 2 -5 3.5t-4.5 2.5l-3 2t-2.5 2t-1.5 2t-1 2.5t-0.5 2.5q0 8 13 8q41 0 80 4.5t66.5 11.5t49 14t32.5 11l12 5q6 0 6 -6
q0 -1 -3 -16.5t-6 -52t-3 -88.5v-191q32 109 146 109q87 0 126.5 -41t39.5 -129v-111q0 -59 5.5 -77t28.5 -32z" />
    <glyph glyph-name="i" unicode="i" horiz-adv-x="351" 
d="M163 448q-46 0 -75.5 26t-29.5 70q0 43 29.5 69.5t75.5 26.5q48 0 77 -26.5t29 -69.5t-29.5 -69.5t-76.5 -26.5zM32 -8q-7 0 -7 6q0 2 0.5 3t2.5 2.5t3.5 2.5t5.5 3t7 4q26 13 32.5 43.5t6.5 115.5v38q0 68 -8.5 100t-29.5 45q-19 13 -20 16q0 6 13 6q79 2 133.5 9.5
t76 14.5t24.5 7q8 0 8 -7q0 -4 -4.5 -14.5t-7.5 -21.5q-7 -29 -7 -145v-37q0 -87 10.5 -122.5t42.5 -51.5q12 -6 12 -10q0 -7 -7 -7q-3 0 -28 2t-59 3.5t-59 1.5t-58 -1.5t-56.5 -3.5t-26.5 -2z" />
    <glyph glyph-name="j" unicode="j" horiz-adv-x="314" 
d="M156 463q-46 0 -75.5 26t-29.5 70q0 43 29.5 69.5t75.5 26.5q48 0 77 -26.5t29 -69.5t-29.5 -69.5t-76.5 -26.5zM64 -215q-46 0 -75 26t-30 65q-1 31 17.5 49t45.5 18t42 -14t22 -45q13 -63 47 -63q14 0 23.5 9.5t9.5 24.5q0 18 -14 41.5t-30 45.5t-30 59t-14 78v123
q0 68 -8.5 100t-29.5 45q-19 13 -20 16q0 6 13 6q79 2 133.5 9.5t76.5 14.5t25 7q8 0 8 -7q0 -4 -4.5 -14.5t-7.5 -21.5q-9 -36 -7 -145v-134q-1 -293 -193 -293z" />
    <glyph glyph-name="k" unicode="k" horiz-adv-x="652" 
d="M622 19q4 -4 8.5 -7.5t6.5 -5t3.5 -3.5t1.5 -4q0 -6 -8 -6q-3 0 -20.5 1.5t-44 3.5t-51.5 2q-32 0 -86 -4l-55 -3q-7 0 -7 6q0 3 10.5 11.5t10.5 15.5q0 20 -85 148q-12 20 -19 20q-5 0 -12 -5l-8 -5q0 -95 6 -127t33 -44q4 -2 8.5 -3.5t6.5 -2t3 -2.5t1 -5q0 -7 -8 -7
q-5 0 -56 3.5t-83 3.5q-25 0 -57.5 -2t-56 -3.5t-26.5 -1.5q-8 0 -8 6q0 2 0.5 3.5t2 2.5l3 2t5 2.5t6.5 2.5q27 13 34.5 58.5t7.5 193.5v112q0 111 -8.5 145.5t-42.5 56.5q-2 2 -5 3.5t-4.5 2.5l-3 2t-2.5 2t-1.5 2t-1 2.5t-0.5 2.5q0 8 13 8q41 0 80 4.5t66.5 11.5t49 14
t33.5 11l11 5q6 0 6 -6q0 -1 -3 -16.5t-6 -52t-3 -88.5v-284q101 69 134 97.5t33 46.5t-32 33q-19 9 -19 13q0 5 7 5l41 -3q41 -4 61 -4q17 0 55 3t42 3q8 0 8 -6q0 -7 -37 -15q-41 -7 -126 -70l-14 -10q102 -155 202 -276z" />
    <glyph glyph-name="l" unicode="l" horiz-adv-x="364" 
d="M42 -7q-7 0 -7 6q0 7 17 17q28 18 35 61t7 183v116q0 111 -8.5 145.5t-42.5 56.5q-2 2 -5 3.5t-4.5 2.5l-3 2t-2.5 2t-1.5 2t-1 2.5t-0.5 2.5q0 8 13 8q41 0 80 4.5t66.5 11.5t49 14t32.5 11l12 5q6 0 6 -6q0 -1 -3 -16.5t-6 -52t-3 -88.5v-226q0 -129 8.5 -176t41.5 -69
q17 -11 17 -16q0 -6 -7 -6l-57 3q-57 4 -92 4q-25 0 -58 -2t-56.5 -3.5t-26.5 -1.5z" />
    <glyph glyph-name="m" unicode="m" horiz-adv-x="912" 
d="M871 16q18 -13 18 -17q0 -6 -8 -6q-11 0 -56.5 3.5t-74.5 3.5l-119 -7q-7 0 -7 6q0 4 18 18q13 11 16 28t3 69v179q0 57 -36 57q-25 0 -45 -29q-31 -45 -31 -127v-80q0 -53 5.5 -68t26.5 -30q18 -13 18 -17q0 -6 -8 -6q-11 0 -56.5 3.5t-74.5 3.5l-119 -7q-7 0 -7 6
q0 4 18 18q13 11 16 28t3 69v179q0 57 -36 57q-25 0 -45 -29q-31 -45 -31 -127v-60q0 -70 5 -91.5t24 -29.5t19 -14t-7 -6q-2 0 -23 1.5t-51.5 3.5t-55.5 2t-57.5 -2t-56 -3.5t-26.5 -1.5q-7 0 -7 6q0 5 18 15q28 15 34 34.5t6 92.5v75q0 80 -6.5 103.5t-32.5 34.5
q-18 8 -19 13q0 7 9 7q43 0 96 7.5t89.5 15t38.5 7.5q7 0 7 -6q0 -2 -2 -18.5t-4.5 -45t-2.5 -57.5h3q31 127 156 127q118 0 134 -117h2q36 117 154 117q136 0 136 -154v-136q0 -53 5.5 -68t26.5 -30z" />
    <glyph glyph-name="n" unicode="n" horiz-adv-x="645" 
d="M605 14q16 -11 16 -15q0 -6 -7 -6q-11 0 -57 3.5t-75 3.5q-30 0 -76.5 -3.5t-47.5 -3.5q-7 0 -7 6q0 5 18 16q16 13 20 31t4 77v189q0 58 -42 58q-38 0 -65 -49t-27 -136v-51q0 -70 5 -91.5t24 -29.5t19 -14t-7 -6q-2 0 -23 1.5t-51.5 3.5t-55.5 2t-57.5 -2t-56 -3.5
t-26.5 -1.5q-7 0 -7 6q0 5 18 15q28 15 34 34.5t6 92.5v75q0 80 -6.5 103.5t-32.5 34.5q-18 8 -19 13q0 7 9 7q43 0 96 7.5t89.5 15t38.5 7.5q7 0 7 -6q0 -2 -2 -18.5t-4.5 -45t-2.5 -57.5q28 127 151 127q87 0 126.5 -41t39.5 -129v-111q0 -59 5.5 -77t28.5 -32z" />
    <glyph glyph-name="o" unicode="o" horiz-adv-x="568" 
d="M284 404q113 0 183.5 -57t70.5 -152t-70.5 -152t-183.5 -57t-183.5 57t-70.5 152t70.5 152t183.5 57zM284 0q36 1 52 41.5t17 153.5q-1 113 -17 153.5t-52 41.5q-36 -1 -52 -41.5t-17 -153.5q1 -113 17 -153.5t52 -41.5z" />
    <glyph glyph-name="p" unicode="p" horiz-adv-x="600" 
d="M387 404q78 0 130.5 -57t52.5 -147q0 -98 -55 -156.5t-146 -58.5q-92 0 -123 65v-140q0 -83 48 -98q19 -7 19 -13t-7 -6q-5 0 -60.5 3.5t-88.5 3.5q-25 0 -57.5 -2t-56 -3.5t-26.5 -1.5q-7 0 -7 6q0 5 18 15q24 14 32 50t8 114v228q0 83 -6 103.5t-34 36.5q-3 2 -6 3.5
t-4.5 2.5t-3.5 2t-3 2t-1.5 2l-1 2t-0.5 3q0 7 9 7q43 0 94 7.5t85 15t36 7.5q7 0 7 -6q0 -2 -3.5 -19.5t-6.5 -49t-3 -67.5h2q18 146 159 146zM319 15q36 0 49.5 37.5t13.5 147.5q0 104 -14.5 136.5t-45.5 32.5q-35 0 -56.5 -43.5t-22.5 -125.5q-1 -185 76 -185z" />
    <glyph glyph-name="q" unicode="q" horiz-adv-x="593" 
d="M533 -90q0 -85 24 -98q14 -8 14 -13q0 -6 -7 -6q-4 0 -49 3.5t-71 3.5q-25 0 -57.5 -2t-56 -3.5t-26.5 -1.5q-7 0 -7 6q0 5 18 15q24 14 32 50t8 114l-1 83h-3q-26 -76 -126 -76q-76 0 -135.5 58t-59.5 146q0 97 64.5 156t162.5 59q34 0 55.5 -8.5t72.5 -39.5
q31 -19 37 -19q10 0 33 19l46 37q13 11 24 11q12 0 12 -13q0 -2 -1 -16.5t-2 -47.5t-1 -80v-337zM284 384q-35 0 -50.5 -41t-15.5 -154q0 -99 11.5 -136.5t46.5 -37.5q80 0 79 187v34q-2 148 -71 148z" />
    <glyph glyph-name="r" unicode="r" horiz-adv-x="489" 
d="M393 404q42 0 64 -23t22 -62t-18.5 -60.5t-50.5 -21.5q-25 0 -41.5 14t-21.5 31t-12 31t-17 14q-27 0 -42 -57.5t-16 -128.5v-30q0 -48 11.5 -67t46.5 -31q19 -7 19 -13q0 -7 -8 -7q-4 0 -30.5 1.5t-63 3.5t-64.5 2q-25 0 -58 -2t-56.5 -3.5t-26.5 -1.5q-7 0 -7 6
q0 5 19 15q27 12 33.5 33.5t6.5 78.5v132q0 47 -7 66t-32 30q-13 4 -16.5 6t-3.5 7q0 7 10 7q47 0 98.5 7.5t84 15t33.5 7.5q8 0 8 -7q0 -1 -3 -21t-5.5 -58.5t-0.5 -86.5h1q13 79 51.5 126t92.5 47z" />
    <glyph glyph-name="s" unicode="s" horiz-adv-x="497" 
d="M249 -15q-45 0 -104.5 16.5t-61.5 16.5q-7 0 -10.5 -4t-6.5 -16q-1 -9 -8 -9t-7 9v9.5t0.5 16t0.5 20.5q0 25 -5 61t-5 38q0 7 6 7q5 0 9 -10q23 -69 74.5 -104.5t116.5 -35.5q38 0 59 15t21 42q0 24 -16.5 39t-67.5 27l-68 16q-72 18 -104 46.5t-32 83.5q0 65 56.5 100
t140.5 35q36 0 72 -8.5t58.5 -17t26.5 -8.5q11 0 16 23q1 9 8 9q8 0 8 -10q0 -35 5 -64t10 -44t5 -16q0 -6 -6 -6t-11 9q-30 57 -80 88t-103 31q-79 0 -79 -45q0 -22 17.5 -34t55.5 -20l86 -19q72 -16 107 -47.5t35 -83.5q0 -51 -36 -88t-84 -52.5t-99 -15.5z" />
    <glyph glyph-name="t" unicode="t" horiz-adv-x="410" 
d="M240 -15q-86 0 -127 40.5t-41 136.5v166q0 22 -5.5 29.5t-22.5 9.5l-17 2q-13 1 -13 11t13 11q80 6 123 40.5t84 118.5q6 11 13 11q8 0 8 -12l-1 -153q0 -7 6 -7l110 1q15 0 15 -14t-13 -14q-10 0 -24.5 0.5t-40 1t-47.5 0.5q-7 0 -7 -6l-2 -259q0 -66 57 -66
q30 0 46.5 20t16.5 53q0 12 9 12t9 -13q0 -52 -34.5 -86t-114.5 -34z" />
    <glyph glyph-name="u" unicode="u" horiz-adv-x="623" 
d="M593 27q13 -5 13 -11q0 -7 -9 -7q-43 0 -90 -5.5t-77.5 -11t-32.5 -5.5q-10 0 -12 11q-9 26 -10 100q-25 -113 -143 -113q-79 0 -120.5 37t-41.5 127v134q0 41 -6.5 56.5t-25.5 23.5q-18 10 -19 14q0 6 10 6q39 0 90 4.5t87 8.5t38 4q10 0 10 -11q0 -2 -1.5 -11.5
t-3 -34.5t-1.5 -64v-158q0 -92 48 -92q31 0 52 39.5t22 108.5q-1 113 -5 144t-19 40q-3 2 -7.5 4.5t-6 4l-3 3t-1.5 4.5q0 6 10 6q35 0 84.5 4.5t86 8.5t39.5 4q7 0 7 -5q0 -1 -0.5 -7t-1.5 -17t-2.5 -27t-2 -41.5t-0.5 -55.5v-74q0 -84 7 -108.5t38 -37.5z" />
    <glyph glyph-name="v" unicode="v" horiz-adv-x="534" 
d="M263 -26q-5 0 -9 6l-168 311q-37 68 -55 79q-5 3 -10.5 6t-7.5 4.5t-4.5 3t-3 3t-0.5 3.5q0 7 9 7q2 0 21 -1.5t48.5 -3.5t57.5 -2q29 0 85 3t57 3q8 0 8 -7q0 -4 -10 -10q-25 -15 -25 -39q0 -16 11.5 -43t60.5 -125q4 -6 6 -6q3 0 6 8q56 116 56 163q0 36 -50 44
q-11 2 -11 8q0 7 9 7q2 0 34.5 -3t51.5 -3q23 0 57 3l34 3q10 0 10 -7t-9 -9q-47 -7 -70.5 -30.5t-48.5 -80.5l-131 -289q-3 -6 -9 -6z" />
    <glyph glyph-name="w" unicode="w" horiz-adv-x="748" 
d="M231 -26q-5 0 -8 7l-129 282q-28 61 -40 81.5t-27 29.5q-5 3 -10.5 5.5t-7 3.5t-3 2.5t-1.5 4.5q0 7 8 7q2 0 20.5 -1.5t47 -3.5t53.5 -2q26 0 76 3l51 3q6 0 6 -7q0 -4 -12 -11q-21 -11 -21 -34q0 -37 57 -146l9 -16q2 0 6 10l35 86q14 35 14 55q0 25 -24 43
q-14 9 -14 14q0 7 7 7l46 -3q45 -4 67 -4q23 0 75 3l52 3q7 0 7 -7q0 -5 -15 -10q-21 -8 -21 -34q0 -19 22.5 -74t35.5 -80q5 -8 6 -8q2 0 9 17l28 65q22 52 22 72q0 22 -24 38q-14 10 -14 15q0 6 7 6q1 0 21.5 -3t32.5 -3q11 0 23.5 1.5t21.5 3t10 1.5q9 0 9 -7
q0 -5 -19 -13q-18 -9 -28 -23t-28 -56l-136 -316q-3 -7 -9 -7t-9 7q-26 59 -141 293q-3 6 -8 6t-8 -7l-120 -293q-3 -6 -8 -6z" />
    <glyph glyph-name="x" unicode="x" horiz-adv-x="558" 
d="M541 14l6 -4l4.5 -3l3 -2t2 -2.5t0.5 -2.5q0 -7 -7 -7q-3 0 -30 1.5t-63.5 3.5t-63.5 2q-23 0 -52.5 -2t-50.5 -3.5t-24 -1.5q-7 0 -7 6q0 5 17 15q22 15 24 20v5q0 2 -1 4.5t-3 6.5t-4 7.5t-6 10t-8 12.5t-11 16t-13 19t-16.5 23.5t-19.5 27.5l-52 -75q-24 -35 -24 -53
q0 -20 30 -27q17 -4 17 -10q0 -7 -9 -7q-2 0 -26 3t-37 3q-23 0 -57 -3l-34 -3q-10 0 -10 7t9 9q48 10 82.5 40t102.5 128q-2 2 -7.5 10t-8.5 13q-63 92 -90.5 125.5t-56.5 46.5q-20 9 -20 16q0 8 8 8q2 0 25 -1.5t57 -3.5t61 -2q24 0 54 2t52 3.5t25 1.5q7 0 7 -6
q0 -5 -19 -16q-17 -10 -22 -14.5t-4 -12.5q1 -12 75 -113l39 68q19 31 19 48q0 19 -31 29q-19 6 -19 11q0 6 7 6q3 0 35.5 -3t50.5 -3q19 0 47 3l28 3q10 0 10 -7q0 -8 -11 -10q-50 -10 -80 -37t-88 -118l9 -12q68 -95 102 -131.5t77 -67.5z" />
    <glyph glyph-name="y" unicode="y" horiz-adv-x="536" 
d="M107 -93q17 0 45.5 -14t46.5 -14q23 0 39 21.5t16 53.5q0 21 -9 52t-19.5 57t-31 65.5t-32 59.5t-34.5 58.5t-26 44.5q-20 36 -33.5 52t-35.5 28l-8 4t-6 3.5t-4.5 2.5t-3.5 2l-2 2t-1.5 2t-0.5 3q0 7 9 7q3 0 23 -1.5t51.5 -3.5t61.5 -2q29 0 85 3t57 3q8 0 8 -7
q0 -5 -14 -11q-21 -8 -21 -33q0 -23 30 -91.5t46 -96.5q4 -6 6 -6q3 0 6 8q5 13 17.5 44t20 51t14 46t6.5 45q0 15 -9.5 22.5t-38.5 11.5q-19 4 -19 10q0 7 9 7q2 0 34.5 -3t51.5 -3q23 0 57 3l34 3q10 0 10 -7t-9 -9q-48 -7 -72 -31t-47 -80l-127 -312q-32 -79 -69 -125.5
t-87 -46.5q-32 0 -54.5 17.5t-22.5 47.5q0 27 15.5 42t37.5 15z" />
    <glyph glyph-name="z" unicode="z" horiz-adv-x="505" 
d="M38 -3q-7 0 -7 6q0 3 18 32q16 25 125 183q9 14 21.5 31.5t19.5 27.5t15 22t12.5 19t8.5 14.5t5.5 12.5t1.5 9q0 19 -49 19q-62 0 -86 -24q-29 -27 -64 -125q-4 -12 -10 -12q-7 0 -7 8q0 1 3.5 21.5t7 49t3.5 49.5q0 27 -5 38.5t-5 12.5q0 6 7 6q5 0 116 -1.5t189 -1.5
q23 0 42 0.5t30.5 1t19 0.5h11.5l4 1q7 0 7 -6q0 -3 -25 -36q-24 -32 -102 -149q-100 -152 -100 -168q0 -19 37 -19q81 0 123 42q34 35 48 104q4 19 12 19q6 0 6 -6q0 -2 -2.5 -22.5t-5.5 -49.5t-3 -52q0 -11 1 -30t1 -20q0 -6 -7 -6h-324h-61z" />
    <glyph glyph-name="braceleft" unicode="{" horiz-adv-x="361" 
d="M330 -187q11 0 11 -9q0 -10 -23 -10q-74 0 -121.5 49.5t-47.5 136.5v224q0 64 -80 64q-11 0 -11 9t11 9q80 0 80 64v224q0 87 47.5 136.5t121.5 49.5q23 0 23 -10q0 -9 -11 -9q-32 0 -58 -30.5t-26 -90.5v-218q0 -50 -29 -86t-94 -37v-4q65 -1 94 -37t29 -86v-218
q0 -60 26 -90.5t58 -30.5z" />
    <glyph glyph-name="bar" unicode="|" horiz-adv-x="184" 
d="M92 -137q-12 0 -12 8v835q0 8 12 8t12 -8v-835q0 -8 -12 -8z" />
    <glyph glyph-name="braceright" unicode="}" horiz-adv-x="361" 
d="M292 286q11 0 11 -9t-11 -9q-80 0 -80 -64v-224q0 -87 -47.5 -136.5t-121.5 -49.5q-23 0 -23 10q0 9 11 9q32 0 58 30.5t26 90.5v218q0 50 29 86t94 37v4q-65 1 -94 37t-29 86v218q0 60 -26 90.5t-58 30.5q-11 0 -11 9q0 10 23 10q74 0 121.5 -49.5t47.5 -136.5v-224
q0 -64 80 -64z" />
    <glyph glyph-name="asciitilde" unicode="~" horiz-adv-x="560" 
d="M73 95q-8 0 -8 11q0 198 104 198q33 0 128.5 -33.5t117.5 -33.5q27 0 40.5 12.5t18.5 47.5q2 11 12 11q8 0 8 -8q0 -194 -98 -194q-40 0 -125.5 32t-117.5 32q-28 0 -45 -14t-24 -50q-2 -11 -11 -11z" />
    <glyph glyph-name="exclamdown" unicode="&#xa1;" horiz-adv-x="274" 
d="M157 457q-33 0 -54.5 20t-21.5 51q0 32 21.5 51t54.5 19q35 0 56 -19.5t21 -50.5q0 -32 -21 -51.5t-56 -19.5zM146 402h22q6 -83 30.5 -163.5t45 -134.5t20.5 -76q0 -37 -30 -60.5t-77 -23.5t-77 23.5t-30 60.5q0 22 20.5 76t45 134.5t30.5 163.5z" />
    <glyph glyph-name="cent" unicode="&#xa2;" horiz-adv-x="504" 
d="M476 127q6 0 6 -6v-2q-24 -118 -169 -132v-122q0 -8 -12 -8t-12 8v120h-16q-108 0 -175.5 56.5t-67.5 146.5q0 100 70.5 157t193.5 59v116q0 8 12 8t12 -8v-117q36 -2 70 -13t37 -11q16 0 22 24q3 8 9 8q7 0 7 -9q0 -46 3.5 -85.5t7 -60.5t3.5 -22q0 -8 -7 -8t-10 10
q-38 150 -124 150q-105 0 -105 -170q0 -185 114 -185q44 0 77.5 23t45.5 64q3 9 8 9z" />
    <glyph glyph-name="sterling" unicode="&#xa3;" horiz-adv-x="697" 
d="M624 235q7 0 7 -7q0 -137 -34.5 -190t-115.5 -53q-42 0 -118.5 29t-112.5 29q-42 0 -98.5 -28t-57.5 -28q-13 0 -13 15q0 5 15 18.5t33 30t33.5 44t16.5 56.5q1 24 -4.5 45t-20 54t-17.5 42h-76q-8 0 -8 12t8 12h68q-8 27 -8 55q0 93 81 147t203 54q83 0 137.5 -37.5
t54.5 -93.5q0 -40 -23.5 -63t-57.5 -23q-28 0 -47 15t-19 42q0 20 26 44.5t26 43.5q0 27 -28.5 42.5t-67.5 15.5q-59 0 -93 -31t-34 -84q0 -35 13.5 -76t15.5 -51h133q8 0 8 -12t-8 -12h-131v-5q0 -27 -14.5 -58.5t-45 -68t-49.5 -57.5t-58.5 -59t-41.5 -40l2 -3
q1 1 11 10.5t18.5 17.5t23.5 22t29.5 25.5t32 25t34 24t34 19t34 13.5t30.5 5q46 0 98 -21t82 -21q73 0 86 104q1 10 8 10z" />
    <glyph glyph-name="currency" unicode="&#xa4;" horiz-adv-x="504" 
d="M368 137l68 -69q3 -3 3 -6t-5 -8t-9 -5q-3 0 -5 2l-70 70q-40 -31 -99 -31q-57 0 -97 31l-70 -69q-3 -3 -6 -3t-8 5t-5 9q0 3 2 5l70 70q-35 38 -35 96q0 60 36 99l-71 71q-2 2 -2 5q0 4 4.5 9t9.5 5q3 0 5 -2l71 -71q41 30 96 30q59 0 98 -30l71 71q2 2 5 2q4 0 9 -4.5
t5 -9.5q0 -3 -2 -5l-70 -70q35 -40 35 -100q0 -58 -34 -97zM251 112q55 0 88 33t33 89q0 58 -32 91t-89 33q-54 0 -86.5 -34t-32.5 -90q0 -55 32.5 -88.5t86.5 -33.5z" />
    <glyph glyph-name="yen" unicode="&#xa5;" horiz-adv-x="683" 
d="M671 563q9 0 9 -5q0 -6 -9 -9q-63 -17 -94 -36t-52 -62l-87 -178q-3 -5 -3 -9h105q8 0 8 -12t-8 -12h-105v-49h105q8 0 8 -12t-8 -12h-105q1 -90 8.5 -118t30.5 -37q18 -11 19 -14q0 -5 -7 -5q-3 0 -29.5 1.5t-63.5 3t-65 1.5q-29 0 -66 -1.5t-63.5 -3t-29.5 -1.5
q-7 0 -7 5t12 11q4 2 7 3q25 8 32 36t8 119h-111q-8 0 -8 12t8 12h111v22q0 15 -5 27h-106q-8 0 -8 12t8 12h95l-63 105q-64 105 -89 137t-43 40t-18 13t9 5q3 0 30.5 -1.5t67 -3t70.5 -1.5q26 0 60.5 1.5t59.5 3t28 1.5q7 0 7 -5t-19 -13q-21 -8 -21 -24q0 -40 130 -257
l58 120q37 75 37 112q0 23 -13.5 33t-51.5 20q-10 2 -10 8q0 5 11 5l47 -3q48 -2 75 -2q20 0 62 2z" />
    <glyph glyph-name="brokenbar" unicode="&#xa6;" horiz-adv-x="184" 
d="M92 358q-12 0 -12 8v340q0 8 12 8t12 -8v-340q0 -8 -12 -8zM92 -137q-12 0 -12 8v340q0 8 12 8t12 -8v-340q0 -8 -12 -8z" />
    <glyph glyph-name="section" unicode="&#xa7;" horiz-adv-x="508" 
d="M345 191q63 -19 93.5 -51.5t30.5 -89.5q0 -53 -35 -91.5t-86 -55.5t-110 -17q-89 0 -135.5 31.5t-46.5 79.5q0 28 16.5 45.5t44.5 17.5q21 0 35 -11.5t14 -28.5q0 -12 -10 -29t-10 -31q0 -23 28 -41.5t69 -18.5q52 0 84 20.5t32 57.5q0 30 -24 48.5t-89 34.5l-40 10
q-80 20 -116 54.5t-36 91.5t40 92.5t100 46.5q-125 36 -125 141q0 67 62 105t143 38q86 0 131 -27.5t45 -66.5q0 -57 -50 -57q-19 0 -31 11t-12 26q0 14 10 29t10 25q0 18 -30 32t-73 14q-48 0 -75 -19t-27 -47t21 -41t72 -26l48 -12q85 -20 124 -52.5t39 -91.5
q0 -57 -37 -94t-94 -52zM157 285q0 -29 22 -44.5t71 -25.5l57 -14q59 12 59 61q0 30 -24 47t-92 33l-8 2q-42 0 -63.5 -16.5t-21.5 -42.5z" />
    <glyph glyph-name="dieresis" unicode="&#xa8;" horiz-adv-x="400" 
d="M95 649q32 0 52 -17.5t20 -46.5q0 -30 -20 -48t-52 -18q-31 0 -51 18t-20 48q0 28 19.5 46t51.5 18zM304 649q32 0 51.5 -18t19.5 -46q0 -30 -19.5 -48t-51.5 -18t-52 18t-20 48q0 28 20 46t52 18z" />
    <glyph glyph-name="copyright" unicode="&#xa9;" horiz-adv-x="726" 
d="M363 -8q-136 0 -229 93.5t-93 228.5t93 228.5t229 93.5q135 0 228.5 -94t93.5 -229t-93 -228t-229 -93zM363 13q125 0 210.5 88t85.5 213t-85.5 213t-210.5 88t-210.5 -88t-85.5 -213t85.5 -213t210.5 -88zM512 302q7 0 7 -6q0 -1 -0.5 -6t-1.5 -15.5t-1.5 -25.5t-1 -41
t-0.5 -58q0 -7 -7 -7q-8 0 -9 9q-2 17 -18 17q-4 0 -41 -13.5t-70 -13.5q-80 0 -135.5 51.5t-55.5 130.5q0 78 57.5 129t138.5 51q33 0 65.5 -12.5t34.5 -12.5q13 0 14 16q1 9 8 9t7 -6q0 -23 3.5 -58t7 -62t3.5 -30q0 -6 -7 -6q-6 0 -8 6l-9 24q-22 60 -44.5 89t-54.5 29
q-35 0 -52.5 -35t-17.5 -131q0 -99 16 -133.5t53 -34.5q28 0 56 25.5t44 77.5l11 36q2 7 8 7z" />
    <glyph glyph-name="ordfeminine" unicode="&#xaa;" horiz-adv-x="415" 
d="M106 499q50 11 101 16v63q0 27 -9.5 37.5t-33.5 10.5q-40 0 -40 -21q0 -7 6.5 -20t6.5 -23q0 -15 -15 -26t-38 -11q-20 0 -32 12t-12 32q0 30 33 50.5t102 20.5q78 0 120.5 -28.5t42.5 -99.5v-94q0 -23 15 -23t15 29q0 9 9 9q8 0 8 -9q0 -31 -17 -46.5t-66 -15.5
q-80 0 -92 66q-19 -66 -101 -66q-35 0 -57 16.5t-22 48.5q0 56 76 72zM163 397q17 0 30.5 21t13.5 54v29l-6 -1q-39 -8 -54 -28q-9 -12 -9 -39q0 -36 25 -36zM372 287q8 0 8 -12t-8 -12h-330q-8 0 -8 12t8 12h330z" />
    <glyph glyph-name="guillemotleft" unicode="&#xab;" horiz-adv-x="521" 
d="M274 39q-2 0 -25 15l-152 104q-47 32 -47 60t47 60l152 104q23 15 26 15q7 0 7 -7q0 -4 -20 -30l-107 -142l107 -142q20 -26 20 -30q0 -7 -8 -7zM463 39q-2 0 -25 15l-152 104q-47 32 -47 60t47 60l152 104q23 15 26 15q7 0 7 -7q0 -4 -20 -30l-107 -142l107 -142
q20 -26 20 -30q0 -7 -8 -7z" />
    <glyph glyph-name="logicalnot" unicode="&#xac;" horiz-adv-x="560" 
d="M441 287q14 0 14 -13v-125q0 -8 -12 -8t-12 8v114h-318q-8 0 -8 12t8 12h328z" />
    <glyph glyph-name="uni00AD" unicode="&#xad;" horiz-adv-x="365" 
d="M303 225q12 0 12 -15t-12 -15q-19 0 -56.5 0.5t-55.5 0.5l-128 -1q-13 0 -13 14q0 15 13 16q48 -2 124 -2q22 0 65 1t51 1z" />
    <glyph glyph-name="registered" unicode="&#xae;" horiz-adv-x="726" 
d="M363 -8q-136 0 -229 93.5t-93 228.5t93 228.5t229 93.5q135 0 228.5 -94t93.5 -229t-93 -228t-229 -93zM363 13q125 0 210.5 88t85.5 213t-85.5 213t-210.5 88t-210.5 -88t-85.5 -213t85.5 -213t210.5 -88zM583 213q0 -33 -20.5 -57.5t-54.5 -24.5t-68.5 20.5t-61 41
t-40.5 20.5q-6 0 -6 -10q1 -41 20 -49q15 -7 15 -11q0 -5 -5 -5q-2 0 -17.5 1t-37 2t-37.5 1t-37 -1t-35.5 -2t-15.5 -1q-5 0 -5 5t10 10q15 6 19 25q4 22 4 142q0 109 -3.5 134t-19.5 33q-10 4 -10 8q0 6 6 6q2 0 16.5 -1t35 -2t35.5 -1q22 0 57 2.5t39 2.5q84 0 132.5 -39
t48.5 -101q0 -67 -45 -106t-111 -39q-17 0 -41 4v-3q70 -17 126 -17q71 0 93 50q1 4 4 4q10 0 10 -42zM338 479q-8 -11 -8 -149q0 -79 1 -93q0 -10 22 -10q71 0 71 130q0 131 -58 131q-20 0 -28 -9z" />
    <glyph glyph-name="macron" unicode="&#xaf;" horiz-adv-x="400" 
d="M65 582q8 0 55.5 -2t71.5 -2q28 0 83 2t65 2q17 0 17 -16t-6 -27t-16 -11q-24 0 -69.5 1.5t-68.5 1.5q-20 0 -72 -1.5t-65 -1.5q-18 0 -18 18q0 36 23 36z" />
    <glyph glyph-name="degree" unicode="&#xb0;" horiz-adv-x="281" 
d="M140 640q46 0 74 -27t28 -71q0 -43 -28.5 -70t-73.5 -27q-44 0 -72.5 26.5t-28.5 70.5t28.5 71t72.5 27zM140 619q-33 0 -53 -21t-20 -56q0 -34 20 -55t53 -21q34 0 54 20.5t20 55.5q0 36 -19.5 56.5t-54.5 20.5z" />
    <glyph glyph-name="plusminus" unicode="&#xb1;" horiz-adv-x="560" 
d="M445 317q8 0 8 -12t-8 -12h-153v-153q0 -8 -12 -8t-12 8v153h-153q-8 0 -8 12t8 12h153v153q0 8 12 8t12 -8v-153h153zM425 59q8 0 8 -12t-8 -12h-290q-8 0 -8 12t8 12h290z" />
    <glyph glyph-name="uni00B2" unicode="&#xb2;" horiz-adv-x="451" 
d="M89 395q-13 0 -13 -10q0 -4 3.5 -13.5t3.5 -14.5q0 -15 -18 -15q-20 0 -20 36q0 58 28.5 101t80.5 60q55 18 75.5 48.5t20.5 75.5q0 38 -16.5 61t-48.5 23q-21 0 -34.5 -10t-13.5 -28q0 -16 14.5 -34.5t14.5 -35.5q0 -22 -17.5 -35.5t-42.5 -13.5q-27 0 -43.5 17
t-16.5 45q0 52 51 83t139 31q76 0 129.5 -31t53.5 -76q0 -53 -49.5 -83.5t-133.5 -35.5q-175 -12 -175 -152q0 -15 2 -20h4q-2 6 -2 20q0 45 35 78.5t101 33.5q33 0 93 -15.5t83 -15.5q25 0 38 12t19 41q1 9 7 9t6 -5q0 -14 -9 -64q-11 -64 -33 -91t-66 -27q-45 0 -140 25.5
t-110 25.5z" />
    <glyph glyph-name="uni00B3" unicode="&#xb3;" horiz-adv-x="477" 
d="M225 339q-87 0 -130.5 28t-43.5 74q0 37 24.5 58t59.5 21q26 0 41.5 -12.5t15.5 -34.5q0 -15 -23 -38.5t-23 -39.5q0 -38 47 -38q32 0 54 24t22 72q0 99 -65 99q-8 0 -20 -0.5t-13 -0.5q-16 0 -16 15t16 15q3 0 22.5 -1t27.5 -1q55 0 55 90q0 85 -67 85q-53 0 -53 -39
q0 -13 12 -34.5t12 -37.5q0 -24 -16 -37t-39 -13q-30 0 -49 17t-19 46q0 54 51 83t120 29q95 0 154.5 -28t59.5 -70q0 -46 -52 -73.5t-146 -29.5v-4q216 -7 216 -102q0 -55 -65 -88.5t-170 -33.5z" />
    <glyph glyph-name="acute" unicode="&#xb4;" horiz-adv-x="400" 
d="M83 454q-5 0 -5 3q0 2 4 6q99 107 133.5 137.5t57.5 29.5q19 -1 30 -12t11 -29q0 -16 -11 -28t-40 -28q-66 -37 -175 -78q-2 -1 -5 -1z" />
    <glyph glyph-name="uni00B5" unicode="&#xb5;" horiz-adv-x="630" 
d="M605 33q13 -5 13 -11q0 -7 -9 -7q-42 0 -93.5 -6t-87 -12t-37.5 -6q-7 0 -7 6q0 1 1 15t1.5 37t0.5 46h-2q-8 -49 -30 -75.5t-50 -26.5q-36 -1 -56.5 29t-27.5 89h-3q-4 -34 -4 -73q0 -52 10.5 -108.5t10.5 -76.5q0 -68 -83 -68q-80 0 -82 71q0 1 10 86.5t10 183.5v81
q0 75 -11 105t-41 42q-18 10 -19 14q0 6 10 6q37 0 90.5 4t93 8.5t42.5 4.5q10 0 10 -11q0 -1 -4.5 -16t-9.5 -52t-5 -94l-1 -30q0 -87 16 -123t49 -36q30 0 50 32t21 88q-1 116 -5 154.5t-19 48.5q-3 2 -7.5 4.5t-6 4l-3 3t-1.5 4.5q0 6 10 6q35 0 84.5 4t86 8.5t39.5 4.5
q7 0 7 -5q0 -1 -0.5 -7t-2 -17t-2.5 -27t-1.5 -41.5t-0.5 -55.5v-65q1 -81 8 -104.5t38 -35.5z" />
    <glyph glyph-name="paragraph" unicode="&#xb6;" horiz-adv-x="571" 
d="M333 -126q58 37 78.5 97.5t20.5 184.5v478q27 0 47.5 1.5t31 3t12.5 1.5q8 0 8 -8l-15 -36q-16 -36 -16 -78v-329q0 -142 -33 -207.5t-134 -107.5zM220 -145q-78 0 -130.5 39.5t-52.5 96.5q0 44 24.5 68.5t58.5 24.5q30 0 47.5 -14.5t17.5 -40.5q0 -20 -23 -49.5
t-23 -50.5q0 -26 22.5 -41.5t60.5 -15.5q67 0 96.5 38.5t29.5 134.5l1 150q0 6 -5 6q-3 0 -17.5 -4t-40.5 -8t-56 -4q-88 0 -148.5 64t-60.5 159q0 102 68 166.5t182 64.5q24 0 60.5 -2.5t47.5 -2.5v-579q0 -109 -41 -154.5t-118 -45.5z" />
    <glyph glyph-name="periodcentered" unicode="&#xb7;" horiz-adv-x="281" 
d="M140 400q41 0 66 -22.5t25 -60.5q0 -37 -25 -59.5t-66 -22.5q-39 0 -64.5 22.5t-25.5 59.5t25.5 60t64.5 23z" />
    <glyph glyph-name="cedilla" unicode="&#xb8;" horiz-adv-x="400" 
d="M190 -200q-28 0 -48.5 6t-28.5 11.5t-8 8.5q0 6 6 6q1 0 7.5 -2t16 -4.5t17.5 -2.5q19 0 30.5 12.5t11.5 33.5q0 23 -10 34.5t-35 22.5q-6 2 -6 8q0 4 6 11l38 51h19l-37 -51q72 -10 98.5 -30t26.5 -49q0 -32 -30.5 -49t-73.5 -17z" />
    <glyph glyph-name="uni00B9" unicode="&#xb9;" horiz-adv-x="349" 
d="M277 768q6 0 6 -4q0 -2 -1.5 -19t-3 -43.5t-1.5 -52.5v-97q0 -104 5 -139t25 -47q6 -3 11.5 -6t9 -4t6 -2t3.5 -2.5t1 -2.5q0 -4 -5 -4q-1 0 -58 2.5t-92 2.5q-25 0 -57.5 -1t-56 -2.5t-26.5 -1.5q-5 0 -5 4q0 2 1 3t4.5 1.5t5.5 1.5q41 11 50 34.5t9 93.5v46v6
q0 112 -9.5 143.5t-57.5 47.5q-10 3 -10 8q0 6 8 6q38 1 95 8t98.5 13.5t44.5 6.5z" />
    <glyph glyph-name="ordmasculine" unicode="&#xba;" horiz-adv-x="406" 
d="M198 640q73 0 118.5 -37.5t45.5 -101.5t-45.5 -101.5t-118.5 -37.5t-118.5 37.5t-45.5 101.5t45.5 101.5t118.5 37.5zM198 376q26 0 37.5 25t11.5 100t-11.5 100t-37.5 25t-37.5 -25t-11.5 -100t11.5 -100t37.5 -25zM30 275q0 12 8 12h330q8 0 8 -12t-8 -12h-330
q-8 0 -8 12z" />
    <glyph glyph-name="guillemotright" unicode="&#xbb;" horiz-adv-x="521" 
d="M58 39q-8 0 -8 7q0 4 20 30l107 142l-107 142q-20 26 -20 30q0 7 7 7q3 0 26 -15l152 -104q47 -32 47 -60t-47 -60l-152 -104q-23 -15 -25 -15zM247 39q-8 0 -8 7q0 4 20 30l107 142l-107 142q-20 26 -20 30q0 7 7 7q3 0 26 -15l152 -104q47 -32 47 -60t-47 -60
l-152 -104q-23 -15 -25 -15z" />
    <glyph glyph-name="onequarter" unicode="&#xbc;" horiz-adv-x="922" 
d="M631 685q0 -3 -3 -11l-297 -717q-5 -11 -17 -11q-10 -1 -10 6q0 3 3 9l296 717q5 12 17 12q10 0 11 -5zM328 229q0 -4 -5 -4q-1 0 -58 2.5t-92 2.5q-25 0 -57.5 -1t-56 -2.5t-26.5 -1.5q-5 0 -5 4q0 2 1 3t4.5 1.5t5.5 1.5q41 11 50 34.5t9 93.5v46v6q0 112 -9.5 143.5
t-57.5 47.5q-10 3 -10 8q0 6 8 6q38 1 95 8t98.5 13.5t44.5 6.5q6 0 6 -4q0 -2 -1.5 -19t-3 -43.5t-1.5 -52.5v-97q0 -104 5 -139t25 -47q6 -3 11.5 -6t9 -4t6 -2t3.5 -2.5t1 -2.5zM870 12q18 -9 18 -13t-5 -4q-1 0 -58 2.5t-93 2.5q-29 0 -74 -2l-46 -3q-5 0 -5 4
q0 2 1.5 3t6 3t8.5 5q18 12 25 25t9 41h-140q-8 0 -8 9q0 7 4 11l271 304q12 13 16 15.5t13 2.5q16 0 16 -14q0 -3 -0.5 -18t-1 -39t-0.5 -48v-152v-33h44q21 0 21 -17q0 -20 -22 -21h-41q5 -46 41 -64zM547 114h112v25v82q0 10 -4 10q-2 0 -10 -8z" />
    <glyph glyph-name="onehalf" unicode="&#xbd;" horiz-adv-x="984" 
d="M314 -54q-10 -1 -10 6q0 3 3 9l296 717q5 12 17 12q10 0 11 -5q0 -3 -3 -11l-297 -717q-5 -11 -17 -11zM267 648q6 0 6 -4q0 -2 -1.5 -19t-3 -43.5t-1.5 -52.5v-97q0 -104 5 -139t25 -47q6 -3 11.5 -6t9 -4t6 -2t3.5 -2.5t1 -2.5q0 -4 -5 -4q-1 0 -58 2.5t-92 2.5
q-25 0 -57.5 -1t-56 -2.5t-26.5 -1.5q-5 0 -5 4q0 2 1 3t4.5 1.5t5.5 1.5q41 11 50 34.5t9 93.5v46v6q0 112 -9.5 143.5t-57.5 47.5q-10 3 -10 8q0 6 8 6q38 1 95 8t98.5 13.5t44.5 6.5zM613 45q-13 0 -13 -10q0 -4 3.5 -13.5t3.5 -14.5q0 -15 -18 -15q-20 0 -20 36
q0 58 28.5 101t80.5 60q55 18 75.5 48.5t20.5 75.5q0 38 -16.5 61t-48.5 23q-21 0 -34.5 -10t-13.5 -28q0 -16 14.5 -34.5t14.5 -35.5q0 -22 -17.5 -35.5t-42.5 -13.5q-27 0 -43.5 17t-16.5 45q0 52 51 83t139 31q76 0 129.5 -31t53.5 -76q0 -53 -49.5 -83.5t-133.5 -35.5
q-175 -12 -175 -152q0 -15 2 -20h4q-2 6 -2 20q0 45 35 78.5t101 33.5q33 0 93 -15.5t83 -15.5q25 0 38 12t19 41q1 9 7 9t6 -5q0 -14 -9 -64q-11 -64 -33 -91t-66 -27q-45 0 -140 25.5t-110 25.5z" />
    <glyph glyph-name="threequarters" unicode="&#xbe;" horiz-adv-x="1016" 
d="M724 685q0 -3 -3 -11l-297 -717q-5 -11 -17 -11q-10 -1 -10 6q0 3 3 9l296 717q5 12 17 12q10 0 11 -5zM445 341q0 -55 -65 -88.5t-170 -33.5q-87 0 -130.5 28t-43.5 74q0 37 24.5 58t59.5 21q26 0 41.5 -12.5t15.5 -34.5q0 -15 -23 -38.5t-23 -39.5q0 -38 47 -38
q32 0 54 24t22 72q0 99 -65 99q-7 0 -19 -0.5t-14 -0.5q-16 0 -16 15t16 15q3 0 22.5 -1t27.5 -1q55 0 55 90q0 85 -67 85q-53 0 -53 -39q0 -13 12 -34.5t12 -37.5q0 -24 -16 -37t-39 -13q-30 0 -49 17t-19 46q0 54 51 83t120 29q95 0 154.5 -28t59.5 -70q0 -46 -52 -73.5
t-146 -29.5v-4q216 -7 216 -102zM963 12q18 -9 18 -13t-5 -4q-1 0 -58 2.5t-93 2.5q-29 0 -75 -2l-45 -3q-5 0 -5 4q0 2 1.5 3t6 3t8.5 5q18 12 25 25t9 41h-140q-8 0 -8 9q0 7 4 11l271 304q12 13 16 15.5t13 2.5q16 0 16 -14q0 -3 -0.5 -18t-1 -39t-0.5 -48v-152v-33h44
q21 0 21 -17q0 -20 -22 -21h-41q5 -46 41 -64zM640 114h112v25v82q0 10 -4 10q-2 0 -10 -8z" />
    <glyph glyph-name="questiondown" unicode="&#xbf;" horiz-adv-x="572" 
d="M320 457q-35 0 -56 19.5t-21 51.5q0 31 21 50.5t56 19.5q33 0 54.5 -19t21.5 -51q0 -31 -21.5 -51t-54.5 -20zM337 389v-16q0 -79 -49 -118q-26 -21 -37 -52t-11 -90q0 -80 23 -115t72 -35q38 0 60.5 13.5t22.5 37.5q0 17 -18.5 40.5t-18.5 44.5q0 27 21 42t50 15
q31 0 50.5 -18.5t19.5 -51.5q0 -61 -61 -101.5t-161 -40.5q-118 0 -184 41.5t-66 115.5q0 60 48.5 99t138.5 66q40 12 57.5 36t17.5 66v21h25z" />
    <glyph glyph-name="Agrave" unicode="&#xc0;" horiz-adv-x="755" 
d="M476 715q-1 0 -2.5 0.5t-2.5 0.5q-101 17 -221 54q-35 12 -48 25t-13 34q0 20 12 31t33 11q24 0 68 -27t174 -118q4 -4 4 -6q0 -5 -4 -5zM376 -6q-10 0 -10 6q0 2 0.5 3.5t2 2.5t3 1.5t5 1.5t6.5 2q49 13 49 44q0 27 -35 140q-5 15 -24 16q-29 2 -121 2q-66 0 -80 -1
q-14 0 -18 -10q-22 -67 -28 -93q-6 -27 -6 -41q0 -22 14.5 -34.5t50.5 -22.5q15 -4 15 -10q0 -7 -9 -7q-2 0 -41.5 3t-60.5 3q-16 0 -45 -3l-29 -3q-10 0 -10 7q0 8 9 9q32 5 52 30.5t44 92.5q137 384 151 429q4 12 4 16t-25 12q-24 10 -26 15q0 7 13 8q58 3 119 12
t96.5 16.5t36.5 7.5q7 0 7 -8q0 -3 -5 -10.5t-5 -14.5q0 -6 6 -25q18 -62 73.5 -215.5t99.5 -262.5q19 -47 33 -68t33 -30q26 -10 26 -16q0 -5 -9 -5q-4 0 -35 1.5t-75.5 3t-80.5 1.5q-33 0 -73 -1.5t-67.5 -3t-30.5 -1.5zM261 236q99 0 108 2q10 1 10 10q0 4 -2 10l-94 284
q-3 9 -6 9q-2 0 -6 -9l-98 -284q-4 -12 -4 -15q0 -5 8 -6q9 -1 84 -1z" />
    <glyph glyph-name="Aacute" unicode="&#xc1;" horiz-adv-x="755" 
d="M233 715q-4 0 -4 5q0 2 4 6q130 91 174 118t68 27q21 0 33 -11t12 -31q0 -21 -13 -34t-48 -25q-120 -37 -221 -54q-1 0 -2.5 -0.5t-2.5 -0.5zM376 -6q-10 0 -10 6q0 2 0.5 3.5t2 2.5t3 1.5t5 1.5t6.5 2q49 13 49 44q0 27 -35 140q-5 15 -24 16q-29 2 -121 2q-66 0 -80 -1
q-14 0 -18 -10q-22 -67 -28 -93q-6 -27 -6 -41q0 -22 14.5 -34.5t50.5 -22.5q15 -4 15 -10q0 -7 -9 -7q-2 0 -41.5 3t-60.5 3q-16 0 -45 -3l-29 -3q-10 0 -10 7q0 8 9 9q32 5 52 30.5t44 92.5q137 384 151 429q4 12 4 16t-25 12q-24 10 -26 15q0 7 13 8q58 3 119 12
t96.5 16.5t36.5 7.5q7 0 7 -8q0 -3 -5 -10.5t-5 -14.5q0 -6 6 -25q18 -62 73.5 -215.5t99.5 -262.5q19 -47 33 -68t33 -30q26 -10 26 -16q0 -5 -9 -5q-4 0 -35 1.5t-75.5 3t-80.5 1.5q-33 0 -73 -1.5t-67.5 -3t-30.5 -1.5zM261 236q99 0 108 2q10 1 10 10q0 4 -2 10l-94 284
q-3 9 -6 9q-2 0 -6 -9l-98 -284q-4 -12 -4 -15q0 -5 8 -6q9 -1 84 -1z" />
    <glyph glyph-name="Acircumflex" unicode="&#xc2;" horiz-adv-x="755" 
d="M213 697q-7 0 -7 7q0 16 94 113q16 17 23 23t17 10t25 4q6 0 11.5 -1t11 -3.5t8.5 -4t9 -6.5t7.5 -6.5l8.5 -8.5l8 -8q95 -96 95 -112q0 -7 -7 -7q-6 0 -151 63h-2q-147 -63 -151 -63zM376 -6q-10 0 -10 6q0 2 0.5 3.5t2 2.5t3 1.5t5 1.5t6.5 2q49 13 49 44q0 27 -35 140
q-5 15 -24 16q-29 2 -121 2q-66 0 -80 -1q-14 0 -18 -10q-22 -67 -28 -93q-6 -27 -6 -41q0 -22 14.5 -34.5t50.5 -22.5q15 -4 15 -10q0 -7 -9 -7q-2 0 -41.5 3t-60.5 3q-16 0 -45 -3l-29 -3q-10 0 -10 7q0 8 9 9q32 5 52 30.5t44 92.5q137 384 151 429q4 12 4 16t-25 12
q-24 10 -26 15q0 7 13 8q58 3 119 12t96.5 16.5t36.5 7.5q7 0 7 -8q0 -3 -5 -10.5t-5 -14.5q0 -6 6 -25q18 -62 73.5 -215.5t99.5 -262.5q19 -47 33 -68t33 -30q26 -10 26 -16q0 -5 -9 -5q-4 0 -35 1.5t-75.5 3t-80.5 1.5q-33 0 -73 -1.5t-67.5 -3t-30.5 -1.5zM261 236
q99 0 108 2q10 1 10 10q0 4 -2 10l-94 284q-3 9 -6 9q-2 0 -6 -9l-98 -284q-4 -12 -4 -15q0 -5 8 -6q9 -1 84 -1z" />
    <glyph glyph-name="Atilde" unicode="&#xc3;" horiz-adv-x="755" 
d="M222 712q-8 0 -8 11q0 59 20.5 98.5t63.5 39.5q28 0 92 -24q59 -23 77 -23q27 0 36 40q2 11 11 11t9 -11q0 -52 -20 -91.5t-58 -39.5q-30 0 -85 21q-54 23 -78 23q-19 0 -30.5 -9.5t-18.5 -34.5q-2 -11 -11 -11zM376 -6q-10 0 -10 6q0 2 0.5 3.5t2 2.5t3 1.5t5 1.5t6.5 2
q49 13 49 44q0 27 -35 140q-5 15 -24 16q-29 2 -121 2q-66 0 -80 -1q-14 0 -18 -10q-22 -67 -28 -93q-6 -27 -6 -41q0 -22 14.5 -34.5t50.5 -22.5q15 -4 15 -10q0 -7 -9 -7q-2 0 -41.5 3t-60.5 3q-16 0 -45 -3l-29 -3q-10 0 -10 7q0 8 9 9q32 5 52 30.5t44 92.5
q137 384 151 429q4 12 4 16t-25 12q-24 10 -26 15q0 7 13 8q58 3 119 12t96.5 16.5t36.5 7.5q7 0 7 -8q0 -3 -5 -10.5t-5 -14.5q0 -6 6 -25q18 -62 73.5 -215.5t99.5 -262.5q19 -47 33 -68t33 -30q26 -10 26 -16q0 -5 -9 -5q-4 0 -35 1.5t-75.5 3t-80.5 1.5q-33 0 -73 -1.5
t-67.5 -3t-30.5 -1.5zM261 236q99 0 108 2q10 1 10 10q0 4 -2 10l-94 284q-3 9 -6 9q-2 0 -6 -9l-98 -284q-4 -12 -4 -15q0 -5 8 -6q9 -1 84 -1z" />
    <glyph glyph-name="Adieresis" unicode="&#xc4;" horiz-adv-x="755" 
d="M261 710q-31 0 -51 18t-20 48q0 28 19.5 46t51.5 18t52 -17.5t20 -46.5q0 -30 -20 -48t-52 -18zM470 710q-32 0 -52 18t-20 48q0 28 20 46t52 18t51.5 -18t19.5 -46q0 -30 -19.5 -48t-51.5 -18zM376 -6q-10 0 -10 6q0 2 0.5 3.5t2 2.5t3 1.5t5 1.5t6.5 2q49 13 49 44
q0 27 -35 140q-5 15 -24 16q-29 2 -121 2q-66 0 -80 -1q-14 0 -18 -10q-22 -67 -28 -93q-6 -27 -6 -41q0 -22 14.5 -34.5t50.5 -22.5q15 -4 15 -10q0 -7 -9 -7q-2 0 -41.5 3t-60.5 3q-16 0 -45 -3l-29 -3q-10 0 -10 7q0 8 9 9q32 5 52 30.5t44 92.5q137 384 151 429
q4 12 4 16t-25 12q-24 10 -26 15q0 7 13 8q58 3 119 12t96.5 16.5t36.5 7.5q7 0 7 -8q0 -3 -5 -10.5t-5 -14.5q0 -6 6 -25q18 -62 73.5 -215.5t99.5 -262.5q19 -47 33 -68t33 -30q26 -10 26 -16q0 -5 -9 -5q-4 0 -35 1.5t-75.5 3t-80.5 1.5q-33 0 -73 -1.5t-67.5 -3
t-30.5 -1.5zM261 236q99 0 108 2q10 1 10 10q0 4 -2 10l-94 284q-3 9 -6 9q-2 0 -6 -9l-98 -284q-4 -12 -4 -15q0 -5 8 -6q9 -1 84 -1z" />
    <glyph glyph-name="Aring" unicode="&#xc5;" horiz-adv-x="755" 
d="M365 717q-43 0 -71.5 20.5t-28.5 52.5t28 52.5t72 20.5q45 0 72.5 -20.5t27.5 -52.5t-27.5 -52.5t-72.5 -20.5zM365 730q40 0 40 60t-40 60q-39 0 -39 -60t39 -60zM376 -6q-10 0 -10 6q0 2 0.5 3.5t2 2.5t3 1.5t5 1.5t6.5 2q49 13 49 44q0 27 -35 140q-5 15 -24 16
q-29 2 -121 2q-66 0 -80 -1q-14 0 -18 -10q-22 -67 -28 -93q-6 -27 -6 -41q0 -22 14.5 -34.5t50.5 -22.5q15 -4 15 -10q0 -7 -9 -7q-2 0 -41.5 3t-60.5 3q-16 0 -45 -3l-29 -3q-10 0 -10 7q0 8 9 9q32 5 52 30.5t44 92.5q137 384 151 429q4 12 4 16t-25 12q-24 10 -26 15
q0 7 13 8q58 3 119 12t96.5 16.5t36.5 7.5q7 0 7 -8q0 -3 -5 -10.5t-5 -14.5q0 -6 6 -25q18 -62 73.5 -215.5t99.5 -262.5q19 -47 33 -68t33 -30q26 -10 26 -16q0 -5 -9 -5q-4 0 -35 1.5t-75.5 3t-80.5 1.5q-33 0 -73 -1.5t-67.5 -3t-30.5 -1.5zM261 236q99 0 108 2
q10 1 10 10q0 4 -2 10l-94 284q-3 9 -6 9q-2 0 -6 -9l-98 -284q-4 -12 -4 -15q0 -5 8 -6q9 -1 84 -1z" />
    <glyph glyph-name="AE" unicode="&#xc6;" horiz-adv-x="960" 
d="M883 51q0 -16 5 -26.5t10.5 -13.5t10 -6t4.5 -6q0 -6 -7 -6q-12 0 -161 1.5t-228 1.5q-21 0 -93.5 -1.5t-79.5 -1.5q-9 0 -9 7q0 2 0.5 3.5t2.5 2.5t3.5 1.5t5.5 1.5t7 2q34 9 46 23.5t12 43.5q0 17 -5.5 61.5t-6.5 58.5q-1 15 -21 16q-54 2 -97 2q-72 0 -84 -1
q-18 -1 -23 -13q-56 -122 -56 -142q0 -37 60 -50q12 -2 12 -9t-9 -7q-1 0 -41 3t-64 3q-11 0 -25.5 -1.5t-25 -3t-11.5 -1.5q-10 0 -10 7q0 8 10 9q36 5 54 25t56 100q186 384 201 420q6 14 6 27q0 18 -23 30q-17 8 -17 18q0 8 10 8q5 0 26.5 -2t60.5 -4t88 -2q31 0 83.5 1
t106.5 3t103 4t81 3t33 1q7 0 7 -6q0 -4 -7.5 -8.5t-14.5 -16t-6 -31.5q1 -31 8 -73t13.5 -74t6.5 -33q0 -8 -7 -8t-10 12q-42 128 -99 172.5t-132 44.5q-49 0 -65.5 -10.5t-16.5 -41.5q0 -17 33 -205q3 -18 30 -18q55 0 77.5 21t42.5 79q3 8 9 8q5 0 5 -7q0 -1 -0.5 -12
t-1 -23.5t-0.5 -33.5t1 -42q1 -30 3 -55.5t4 -38t2 -15.5q0 -7 -5 -7q-6 0 -10 8q-26 58 -49 78.5t-78 20.5q-12 0 -16.5 -4.5t-2.5 -16.5q38 -192 58 -254q8 -23 25 -32.5t51 -9.5q36 0 60 23t43.5 85.5t34.5 176.5q2 17 11 17q7 0 7 -8l-3 -42q-4 -43 -7 -103.5t-2 -107.5
zM381 241q11 1 11 11q0 5 -1 11q-21 138 -47 272q-1 6 -4 6q-4 0 -7 -7l-29 -66q-30 -66 -60 -131t-42 -86q-3 -5 -3 -7q0 -3 11 -4q34 -2 82 -2q59 0 89 3z" />
    <glyph glyph-name="Ccedilla" unicode="&#xc7;" horiz-adv-x="704" 
d="M654 275q8 0 8 -7l-2 -26q-3 -27 -5.5 -92t-2.5 -159q0 -7 -8 -7t-9 15q-3 32 -39 32q-18 0 -83.5 -22.5t-110.5 -23.5l-29 -40q72 -10 98.5 -30t26.5 -49q0 -32 -30.5 -49t-73.5 -17q-28 0 -48.5 6t-28.5 11.5t-8 8.5q0 6 6 6q1 0 7.5 -2t16 -4.5t17.5 -2.5
q19 0 30.5 12.5t11.5 33.5q0 23 -10 34.5t-35 22.5q-6 2 -6 8q0 4 6 11l30 40q-152 5 -247 94t-95 235q0 149 103 239.5t261 90.5q51 0 110.5 -22.5t66.5 -22.5q24 0 27 29q3 16 11 16t8 -9q0 -52 7 -120q4 -51 9 -89.5t8 -54.5t3 -17q0 -7 -7 -7t-10 9l-14 47
q-31 108 -84.5 167.5t-121.5 59.5q-48 0 -78.5 -24t-50 -95.5t-19.5 -196.5q0 -126 16.5 -196t46 -94.5t79.5 -24.5q27 0 56.5 10t61 31.5t57.5 62t39 93.5l18 69q2 10 10 10z" />
    <glyph glyph-name="Egrave" unicode="&#xc8;" horiz-adv-x="719" 
d="M256 769q-35 12 -48 25t-13 34q0 20 12 31t33 11q24 0 68 -27t174 -118q4 -4 4 -6q0 -5 -4 -5q-1 0 -2.5 0.5t-2.5 0.5q-101 17 -221 54zM643 54q0 -16 4.5 -26t10 -13t10 -6t4.5 -6q0 -6 -7 -6q-13 0 -202 1.5t-242 1.5q-47 0 -86 -0.5t-60.5 -1.5t-27.5 -1q-7 0 -7 6
q0 5 19 15q23 10 30 35q10 44 10 262q0 227 -10 265q-8 26 -30 37q-19 8 -19 14t7 6q5 0 33.5 -1.5t72.5 -3.5t87 -2q59 0 239 3.5t186 3.5q7 0 7 -6q0 -4 -7 -7t-14.5 -13.5t-7.5 -30.5q0 -31 5.5 -73.5t10.5 -73.5t5 -33q0 -8 -7 -8t-10 12q-22 66 -51 110t-62.5 65
t-63 29t-65.5 8q-51 0 -67 -20q-24 -29 -25 -242q1 -14 10 -19t35 -5q41 0 66 11.5t38 29t31 57.5q3 8 9 8q5 0 5 -7q0 -1 -1.5 -16.5t-2.5 -41t-1 -51.5q0 -30 1 -54.5t2.5 -38t1.5 -15.5q0 -7 -5 -7q-6 0 -9 8q-18 40 -31 57.5t-38 29t-66 11.5q-26 0 -34.5 -5t-10.5 -18
q2 -231 27 -257q16 -17 65 -17q85 -3 151.5 64t90.5 220q1 16 11 16q6 0 6 -8q0 -1 -5 -42.5t-10.5 -102t-5.5 -107.5z" />
    <glyph glyph-name="Eacute" unicode="&#xc9;" horiz-adv-x="719" 
d="M239 714q-4 0 -4 5q0 2 4 6q130 91 174 118t68 27q21 0 33 -11t12 -31q0 -21 -13 -34t-48 -25q-120 -37 -221 -54q-1 0 -2.5 -0.5t-2.5 -0.5zM643 54q0 -16 4.5 -26t10 -13t10 -6t4.5 -6q0 -6 -7 -6q-13 0 -202 1.5t-242 1.5q-47 0 -86 -0.5t-60.5 -1.5t-27.5 -1
q-7 0 -7 6q0 5 19 15q23 10 30 35q10 44 10 262q0 227 -10 265q-8 26 -30 37q-19 8 -19 14t7 6q5 0 33.5 -1.5t72.5 -3.5t87 -2q59 0 239 3.5t186 3.5q7 0 7 -6q0 -4 -7 -7t-14.5 -13.5t-7.5 -30.5q0 -31 5.5 -73.5t10.5 -73.5t5 -33q0 -8 -7 -8t-10 12q-22 66 -51 110
t-62.5 65t-63 29t-65.5 8q-51 0 -67 -20q-24 -29 -25 -242q1 -14 10 -19t35 -5q41 0 66 11.5t38 29t31 57.5q3 8 9 8q5 0 5 -7q0 -1 -1.5 -16.5t-2.5 -41t-1 -51.5q0 -30 1 -54.5t2.5 -38t1.5 -15.5q0 -7 -5 -7q-6 0 -9 8q-18 40 -31 57.5t-38 29t-66 11.5q-26 0 -34.5 -5
t-10.5 -18q2 -231 27 -257q16 -17 65 -17q85 -3 151.5 64t90.5 220q1 16 11 16q6 0 6 -8q0 -1 -5 -42.5t-10.5 -102t-5.5 -107.5z" />
    <glyph glyph-name="Ecircumflex" unicode="&#xca;" horiz-adv-x="719" 
d="M219 696q-7 0 -7 7q0 16 94 113q16 17 23 23t17 10t25 4q6 0 11.5 -1t11 -3.5t8.5 -4t9 -6.5t7.5 -6.5l8.5 -8.5l8 -8q95 -96 95 -112q0 -7 -7 -7q-6 0 -151 63h-2q-147 -63 -151 -63zM643 54q0 -16 4.5 -26t10 -13t10 -6t4.5 -6q0 -6 -7 -6q-13 0 -202 1.5t-242 1.5
q-47 0 -86 -0.5t-60.5 -1.5t-27.5 -1q-7 0 -7 6q0 5 19 15q23 10 30 35q10 44 10 262q0 227 -10 265q-8 26 -30 37q-19 8 -19 14t7 6q5 0 33.5 -1.5t72.5 -3.5t87 -2q59 0 239 3.5t186 3.5q7 0 7 -6q0 -4 -7 -7t-14.5 -13.5t-7.5 -30.5q0 -31 5.5 -73.5t10.5 -73.5t5 -33
q0 -8 -7 -8t-10 12q-22 66 -51 110t-62.5 65t-63 29t-65.5 8q-51 0 -67 -20q-24 -29 -25 -242q1 -14 10 -19t35 -5q41 0 66 11.5t38 29t31 57.5q3 8 9 8q5 0 5 -7q0 -1 -1.5 -16.5t-2.5 -41t-1 -51.5q0 -30 1 -54.5t2.5 -38t1.5 -15.5q0 -7 -5 -7q-6 0 -9 8q-18 40 -31 57.5
t-38 29t-66 11.5q-26 0 -34.5 -5t-10.5 -18q2 -231 27 -257q16 -17 65 -17q85 -3 151.5 64t90.5 220q1 16 11 16q6 0 6 -8q0 -1 -5 -42.5t-10.5 -102t-5.5 -107.5z" />
    <glyph glyph-name="Edieresis" unicode="&#xcb;" horiz-adv-x="719" 
d="M267 709q-31 0 -51 18t-20 48q0 28 19.5 46t51.5 18t52 -17.5t20 -46.5q0 -30 -20 -48t-52 -18zM476 709q-32 0 -52 18t-20 48q0 28 20 46t52 18t51.5 -18t19.5 -46q0 -30 -19.5 -48t-51.5 -18zM643 54q0 -16 4.5 -26t10 -13t10 -6t4.5 -6q0 -6 -7 -6q-13 0 -202 1.5
t-242 1.5q-47 0 -86 -0.5t-60.5 -1.5t-27.5 -1q-7 0 -7 6q0 5 19 15q23 10 30 35q10 44 10 262q0 227 -10 265q-8 26 -30 37q-19 8 -19 14t7 6q5 0 33.5 -1.5t72.5 -3.5t87 -2q59 0 239 3.5t186 3.5q7 0 7 -6q0 -4 -7 -7t-14.5 -13.5t-7.5 -30.5q0 -31 5.5 -73.5t10.5 -73.5
t5 -33q0 -8 -7 -8t-10 12q-22 66 -51 110t-62.5 65t-63 29t-65.5 8q-51 0 -67 -20q-24 -29 -25 -242q1 -14 10 -19t35 -5q41 0 66 11.5t38 29t31 57.5q3 8 9 8q5 0 5 -7q0 -1 -1.5 -16.5t-2.5 -41t-1 -51.5q0 -30 1 -54.5t2.5 -38t1.5 -15.5q0 -7 -5 -7q-6 0 -9 8
q-18 40 -31 57.5t-38 29t-66 11.5q-26 0 -34.5 -5t-10.5 -18q2 -231 27 -257q16 -17 65 -17q85 -3 151.5 64t90.5 220q1 16 11 16q6 0 6 -8q0 -1 -5 -42.5t-10.5 -102t-5.5 -107.5z" />
    <glyph glyph-name="Igrave" unicode="&#xcc;" horiz-adv-x="445" 
d="M333 714q-1 0 -2.5 0.5t-2.5 0.5q-101 17 -221 54q-35 12 -48 25t-13 34q0 20 12 31t33 11q24 0 68 -27t174 -118q4 -4 4 -6q0 -5 -4 -5zM64 -6q-7 0 -7 6t19 15q23 10 30 35q10 44 10 265q0 227 -10 265q-8 26 -30 37q-19 8 -19 14t7 6q3 0 29.5 -1.5t63.5 -3.5t66 -2
q28 0 65 2t63.5 3.5t29.5 1.5q7 0 7 -6t-19 -14q-28 -13 -33.5 -58t-5.5 -244q0 -227 10 -264q6 -26 29 -36q19 -9 19 -15t-7 -6q-3 0 -29.5 2t-63.5 3.5t-65 1.5q-29 0 -66 -1.5t-63.5 -3.5t-29.5 -2z" />
    <glyph glyph-name="Iacute" unicode="&#xcd;" horiz-adv-x="445" 
d="M91 714q-4 0 -4 5q0 2 4 6q130 91 174 118t68 27q21 0 33 -11t12 -31q0 -21 -13 -34t-48 -25q-120 -37 -221 -54q-1 0 -2.5 -0.5t-2.5 -0.5zM64 -6q-7 0 -7 6t19 15q23 10 30 35q10 44 10 265q0 227 -10 265q-8 26 -30 37q-19 8 -19 14t7 6q3 0 29.5 -1.5t63.5 -3.5
t66 -2q28 0 65 2t63.5 3.5t29.5 1.5q7 0 7 -6t-19 -14q-28 -13 -33.5 -58t-5.5 -244q0 -227 10 -264q6 -26 29 -36q19 -9 19 -15t-7 -6q-3 0 -29.5 2t-63.5 3.5t-65 1.5q-29 0 -66 -1.5t-63.5 -3.5t-29.5 -2z" />
    <glyph glyph-name="Icircumflex" unicode="&#xce;" horiz-adv-x="445" 
d="M71 696q-7 0 -7 7q0 16 94 113q16 17 23 23t17 10t25 4q6 0 11.5 -1t11 -3.5t8.5 -4t9 -6.5t7.5 -6.5l8.5 -8.5l8 -8q95 -96 95 -112q0 -7 -7 -7q-6 0 -151 63h-2q-147 -63 -151 -63zM64 -6q-7 0 -7 6t19 15q23 10 30 35q10 44 10 265q0 227 -10 265q-8 26 -30 37
q-19 8 -19 14t7 6q3 0 29.5 -1.5t63.5 -3.5t66 -2q28 0 65 2t63.5 3.5t29.5 1.5q7 0 7 -6t-19 -14q-28 -13 -33.5 -58t-5.5 -244q0 -227 10 -264q6 -26 29 -36q19 -9 19 -15t-7 -6q-3 0 -29.5 2t-63.5 3.5t-65 1.5q-29 0 -66 -1.5t-63.5 -3.5t-29.5 -2z" />
    <glyph glyph-name="Idieresis" unicode="&#xcf;" horiz-adv-x="445" 
d="M119 709q-31 0 -51 18t-20 48q0 28 19.5 46t51.5 18t52 -17.5t20 -46.5q0 -30 -20 -48t-52 -18zM328 709q-32 0 -52 18t-20 48q0 28 20 46t52 18t51.5 -18t19.5 -46q0 -30 -19.5 -48t-51.5 -18zM64 -6q-7 0 -7 6t19 15q23 10 30 35q10 44 10 265q0 227 -10 265
q-8 26 -30 37q-19 8 -19 14t7 6q3 0 29.5 -1.5t63.5 -3.5t66 -2q28 0 65 2t63.5 3.5t29.5 1.5q7 0 7 -6t-19 -14q-28 -13 -33.5 -58t-5.5 -244q0 -227 10 -264q6 -26 29 -36q19 -9 19 -15t-7 -6q-3 0 -29.5 2t-63.5 3.5t-65 1.5q-29 0 -66 -1.5t-63.5 -3.5t-29.5 -2z" />
    <glyph glyph-name="Eth" unicode="&#xd0;" horiz-adv-x="825" 
d="M392 639q176 0 284 -88t108 -237t-108 -237t-284 -88q-3 0 -33.5 2t-72.5 4.5t-75 2.5q-29 0 -65.5 -2t-63 -3.5t-29.5 -1.5q-7 0 -7 6q0 2 0.5 3l1 2t2.5 2.5t3.5 2t5 2.5t5.5 3q10 5 16 9.5t11 18t7 28.5t3.5 49.5t2 72t0.5 104.5q-10 0 -26 -0.5t-20 -0.5
q-18 0 -18 23q0 10 6 18t17 8q3 0 17 -0.5t24 -0.5q0 98 -1 142.5t-5.5 77t-11.5 41t-22 15.5q-18 8 -18 14t7 6q3 0 29.5 -1.5t63 -3.5t65.5 -2q33 0 75 2t72.5 4.5t33.5 2.5zM402 4q79 0 115.5 69t36.5 241q0 173 -36.5 242t-115.5 69q-58 0 -74 -45q-10 -32 -10 -241
q53 3 84 3q21 0 21 -21q0 -11 -6 -20t-16 -8q-29 2 -83 4q0 -217 10 -248q15 -45 74 -45z" />
    <glyph glyph-name="Ntilde" unicode="&#xd1;" horiz-adv-x="741" 
d="M234 711q-8 0 -8 11q0 59 20.5 98.5t63.5 39.5q28 0 92 -24q59 -23 77 -23q27 0 36 40q2 11 11 11t9 -11q0 -52 -20 -91.5t-58 -39.5q-30 0 -85 21q-54 23 -78 23q-19 0 -30.5 -9.5t-18.5 -34.5q-2 -11 -11 -11zM631 -26q-7 0 -21 12l-452 393q-18 17 -28 17q-7 0 -7 -12
v-200q0 -82 20.5 -116t77.5 -55q18 -7 18 -13t-9 -6q-6 0 -53 3t-60 3t-54.5 -3t-50.5 -3t-9 7q0 4 15 8q31 7 48 21.5t28.5 59t11.5 125.5v166q0 100 -6 141t-24 61q-12 13 -29.5 23t-28 15t-10.5 9q0 6 6 6l28 -3q28 -3 41 -3q20 0 41.5 3t27.5 3q13 0 38 -19
q90 -69 246.5 -194t178.5 -146q3 -3 5 -3q3 0 3 4v168q0 79 -23 117.5t-74 53.5q-19 5 -19 13q0 6 8 6q7 0 54 -3t60 -3q21 0 58.5 3t38.5 3q8 0 8 -6q0 -5 -16 -10q-43 -13 -60.5 -50t-17.5 -124v-457q0 -15 -9 -15z" />
    <glyph glyph-name="Ograve" unicode="&#xd2;" horiz-adv-x="794" 
d="M282 769q-35 12 -48 25t-13 34q0 20 12 31t33 11q24 0 68 -27t174 -118q4 -4 4 -6q0 -5 -4 -5q-1 0 -2.5 0.5t-2.5 0.5q-101 17 -221 54zM397 649q155 0 255.5 -91t100.5 -241q0 -149 -101 -240.5t-255 -91.5t-255 91.5t-101 240.5q0 150 100.5 241t255.5 91zM397 -2
q65 0 96 75.5t31 243.5q0 172 -31 245t-96 73t-96 -73t-31 -245q0 -168 31 -243.5t96 -75.5z" />
    <glyph glyph-name="Oacute" unicode="&#xd3;" horiz-adv-x="794" 
d="M265 714q-4 0 -4 5q0 2 4 6q130 91 174 118t68 27q21 0 33 -11t12 -31q0 -21 -13 -34t-48 -25q-120 -37 -221 -54q-1 0 -2.5 -0.5t-2.5 -0.5zM397 649q155 0 255.5 -91t100.5 -241q0 -149 -101 -240.5t-255 -91.5t-255 91.5t-101 240.5q0 150 100.5 241t255.5 91zM397 -2
q65 0 96 75.5t31 243.5q0 172 -31 245t-96 73t-96 -73t-31 -245q0 -168 31 -243.5t96 -75.5z" />
    <glyph glyph-name="Ocircumflex" unicode="&#xd4;" horiz-adv-x="794" 
d="M245 696q-7 0 -7 7q0 16 94 113q16 17 23 23t17 10t25 4q6 0 11.5 -1t11 -3.5t8.5 -4t9 -6.5t7.5 -6.5l8.5 -8.5l8 -8q95 -96 95 -112q0 -7 -7 -7q-6 0 -151 63h-2q-147 -63 -151 -63zM397 649q155 0 255.5 -91t100.5 -241q0 -149 -101 -240.5t-255 -91.5t-255 91.5
t-101 240.5q0 150 100.5 241t255.5 91zM397 -2q65 0 96 75.5t31 243.5q0 172 -31 245t-96 73t-96 -73t-31 -245q0 -168 31 -243.5t96 -75.5z" />
    <glyph glyph-name="Otilde" unicode="&#xd5;" horiz-adv-x="794" 
d="M254 711q-8 0 -8 11q0 59 20.5 98.5t63.5 39.5q28 0 92 -24q59 -23 77 -23q27 0 36 40q2 11 11 11t9 -11q0 -52 -20 -91.5t-58 -39.5q-30 0 -85 21q-54 23 -78 23q-19 0 -30.5 -9.5t-18.5 -34.5q-2 -11 -11 -11zM397 649q155 0 255.5 -91t100.5 -241q0 -149 -101 -240.5
t-255 -91.5t-255 91.5t-101 240.5q0 150 100.5 241t255.5 91zM397 -2q65 0 96 75.5t31 243.5q0 172 -31 245t-96 73t-96 -73t-31 -245q0 -168 31 -243.5t96 -75.5z" />
    <glyph glyph-name="Odieresis" unicode="&#xd6;" horiz-adv-x="794" 
d="M293 709q-31 0 -51 18t-20 48q0 28 19.5 46t51.5 18t52 -17.5t20 -46.5q0 -30 -20 -48t-52 -18zM502 709q-32 0 -52 18t-20 48q0 28 20 46t52 18t51.5 -18t19.5 -46q0 -30 -19.5 -48t-51.5 -18zM397 649q155 0 255.5 -91t100.5 -241q0 -149 -101 -240.5t-255 -91.5
t-255 91.5t-101 240.5q0 150 100.5 241t255.5 91zM397 -2q65 0 96 75.5t31 243.5q0 172 -31 245t-96 73t-96 -73t-31 -245q0 -168 31 -243.5t96 -75.5z" />
    <glyph glyph-name="multiply" unicode="&#xd7;" horiz-adv-x="560" 
d="M296 269l122 -122q6 -6 -3 -14q-8 -9 -14 -3l-122 122l-122 -122q-6 -6 -14 3q-9 8 -3 14l122 122l-122 122q-6 6 3 14q8 9 14 3l122 -122l122 122q6 6 14 -3q9 -8 3 -14z" />
    <glyph glyph-name="Oslash" unicode="&#xd8;" horiz-adv-x="794" 
d="M557 618q91 -38 143.5 -116.5t52.5 -184.5q0 -149 -101 -240.5t-255 -91.5q-75 0 -135 22l-43 -89q-5 -10 -17 -10q-10 0 -10 7q0 3 3 9l44 91q-91 38 -144.5 117t-53.5 185q0 150 100.5 241t255.5 91q75 0 137 -22l40 84q5 11 18 11q10 0 10 -6q0 -4 -3 -11zM270 317
q0 -126 18 -201l209 435q-29 84 -100 84q-65 0 -96 -73t-31 -245zM397 -2q65 0 96 75.5t31 243.5q0 124 -17 198l-209 -433q30 -84 99 -84z" />
    <glyph glyph-name="Ugrave" unicode="&#xd9;" horiz-adv-x="726" 
d="M507 719q-1 0 -2.5 0.5t-2.5 0.5q-101 17 -221 54q-35 12 -48 25t-13 34q0 20 12 31t33 11q24 0 68 -27t174 -118q4 -4 4 -6q0 -5 -4 -5zM378 -15q-147 0 -224.5 71t-77.5 238v210q0 57 -6 78.5t-26 33.5q-3 2 -7 4t-5.5 3t-3.5 2.5t-2.5 2.5t-0.5 3q0 6 7 6q3 0 28 -1.5
t60 -3.5t63 -2q29 0 66 2t63.5 3.5t29.5 1.5q7 0 7 -6q0 -2 -1 -3l-3 -3t-4.5 -3t-7.5 -4.5t-10 -6.5q-14 -9 -19.5 -18.5t-9.5 -39.5t-4 -88l-1 -231q0 -93 40 -140.5t116 -47.5q30 0 58.5 12t55 38.5t42.5 77.5t16 120v208q0 59 -17.5 83.5t-60.5 34.5q-15 5 -15 11t7 6
l36 -3q36 -4 60 -4q25 0 58.5 3.5t35.5 3.5q6 0 6 -6q0 -3 -3.5 -5t-12.5 -4.5t-13 -4.5q-33 -13 -45.5 -43t-12.5 -108v-178q0 -153 -69.5 -228t-192.5 -75z" />
    <glyph glyph-name="Uacute" unicode="&#xda;" horiz-adv-x="726" 
d="M264 719q-4 0 -4 5q0 2 4 6q130 91 174 118t68 27q21 0 33 -11t12 -31q0 -21 -13 -34t-48 -25q-120 -37 -221 -54q-1 0 -2.5 -0.5t-2.5 -0.5zM378 -15q-147 0 -224.5 71t-77.5 238v210q0 57 -6 78.5t-26 33.5q-3 2 -7 4t-5.5 3t-3.5 2.5t-2.5 2.5t-0.5 3q0 6 7 6
q3 0 28 -1.5t60 -3.5t63 -2q29 0 66 2t63.5 3.5t29.5 1.5q7 0 7 -6q0 -2 -1 -3l-3 -3t-4.5 -3t-7.5 -4.5t-10 -6.5q-14 -9 -19.5 -18.5t-9.5 -39.5t-4 -88l-1 -231q0 -93 40 -140.5t116 -47.5q30 0 58.5 12t55 38.5t42.5 77.5t16 120v208q0 59 -17.5 83.5t-60.5 34.5
q-15 5 -15 11t7 6l36 -3q36 -4 60 -4q25 0 58.5 3.5t35.5 3.5q6 0 6 -6q0 -3 -3.5 -5t-12.5 -4.5t-13 -4.5q-33 -13 -45.5 -43t-12.5 -108v-178q0 -153 -69.5 -228t-192.5 -75z" />
    <glyph glyph-name="Ucircumflex" unicode="&#xdb;" horiz-adv-x="726" 
d="M244 701q-7 0 -7 7q0 16 94 113q16 17 23 23t17 10t25 4q6 0 11.5 -1t11 -3.5t8.5 -4t9 -6.5t7.5 -6.5l8.5 -8.5l8 -8q95 -96 95 -112q0 -7 -7 -7q-6 0 -151 63h-2q-147 -63 -151 -63zM378 -15q-147 0 -224.5 71t-77.5 238v210q0 57 -6 78.5t-26 33.5q-3 2 -7 4t-5.5 3
t-3.5 2.5t-2.5 2.5t-0.5 3q0 6 7 6q3 0 28 -1.5t60 -3.5t63 -2q29 0 66 2t63.5 3.5t29.5 1.5q7 0 7 -6q0 -2 -1 -3l-3 -3t-4.5 -3t-7.5 -4.5t-10 -6.5q-14 -9 -19.5 -18.5t-9.5 -39.5t-4 -88l-1 -231q0 -93 40 -140.5t116 -47.5q30 0 58.5 12t55 38.5t42.5 77.5t16 120v208
q0 59 -17.5 83.5t-60.5 34.5q-15 5 -15 11t7 6l36 -3q36 -4 60 -4q25 0 58.5 3.5t35.5 3.5q6 0 6 -6q0 -3 -3.5 -5t-12.5 -4.5t-13 -4.5q-33 -13 -45.5 -43t-12.5 -108v-178q0 -153 -69.5 -228t-192.5 -75z" />
    <glyph glyph-name="Udieresis" unicode="&#xdc;" horiz-adv-x="726" 
d="M292 714q-31 0 -51 18t-20 48q0 28 19.5 46t51.5 18t52 -17.5t20 -46.5q0 -30 -20 -48t-52 -18zM501 714q-32 0 -52 18t-20 48q0 28 20 46t52 18t51.5 -18t19.5 -46q0 -30 -19.5 -48t-51.5 -18zM378 -15q-147 0 -224.5 71t-77.5 238v210q0 57 -6 78.5t-26 33.5q-3 2 -7 4
t-5.5 3t-3.5 2.5t-2.5 2.5t-0.5 3q0 6 7 6q3 0 28 -1.5t60 -3.5t63 -2q29 0 66 2t63.5 3.5t29.5 1.5q7 0 7 -6q0 -2 -1 -3l-3 -3t-4.5 -3t-7.5 -4.5t-10 -6.5q-14 -9 -19.5 -18.5t-9.5 -39.5t-4 -88l-1 -231q0 -93 40 -140.5t116 -47.5q30 0 58.5 12t55 38.5t42.5 77.5
t16 120v208q0 59 -17.5 83.5t-60.5 34.5q-15 5 -15 11t7 6l36 -3q36 -4 60 -4q25 0 58.5 3.5t35.5 3.5q6 0 6 -6q0 -3 -3.5 -5t-12.5 -4.5t-13 -4.5q-33 -13 -45.5 -43t-12.5 -108v-178q0 -153 -69.5 -228t-192.5 -75z" />
    <glyph glyph-name="Yacute" unicode="&#xdd;" horiz-adv-x="700" 
d="M229 714q-4 0 -4 5q0 2 4 6q130 91 174 118t68 27q21 0 33 -11t12 -31q0 -21 -13 -34t-48 -25q-120 -37 -221 -54q-1 0 -2.5 -0.5t-2.5 -0.5zM189 -7q-7 0 -7 6q0 5 19 15q28 10 34 44t6 172q0 33 -10.5 60.5t-42.5 75.5l-97 148q-39 59 -54 78t-27 25q-18 8 -18 14
q0 5 9 5q3 0 30.5 -1.5t67 -3t70.5 -1.5q26 0 60.5 1.5t59.5 3t28 1.5q7 0 7 -6q0 -5 -19 -13q-21 -8 -21 -22q0 -18 34.5 -83.5t119.5 -212.5l71 132q40 74 40 124t-57 66q-10 3 -10 9t11 6q3 0 24 -1.5t49.5 -3t48.5 -1.5q14 0 43 3l29 3q9 0 9 -6q0 -7 -9 -10
q-38 -12 -62 -36t-52 -75l-115 -211q-3 -5 -3 -14q0 -203 10 -237q6 -23 29 -33q19 -10 19 -15q0 -6 -7 -6q-3 0 -29.5 1.5t-63.5 3.5t-65 2q-29 0 -66 -2t-63.5 -3.5t-29.5 -1.5z" />
    <glyph glyph-name="Thorn" unicode="&#xde;" horiz-adv-x="716" 
d="M47 -7q-7 0 -7 6q0 5 18 15q15 7 22.5 15t12 36t5 63.5t0.5 116.5v154q0 73 -1 109t-5.5 61t-11.5 33t-22 15q-18 8 -18 14t7 6q3 0 29.5 -1.5t63 -3.5t65.5 -2q37 0 96 4.5t70 4.5q7 0 7 -5q0 -2 -1 -3.5t-3 -2.5t-4.5 -2t-7.5 -3.5t-10 -4.5q-23 -10 -30.5 -33.5
t-7.5 -75.5q0 -6 5 -6q1 0 13 2.5t35 5.5t51 3q130 0 209 -53t79 -138q0 -88 -78.5 -144.5t-206.5 -56.5q-27 0 -50 3t-36.5 5.5t-15.5 2.5q-5 0 -5 -6q3 -62 10.5 -83.5t27.5 -29.5q5 -2 10 -4.5t7.5 -3.5t4.5 -2t3 -2.5t1 -3.5q0 -5 -7 -5q-3 0 -31.5 1.5t-67 3.5t-67.5 2
t-65.5 -2t-63 -3.5t-29.5 -1.5zM351 142q67 0 97 45t30 136q0 86 -29 128.5t-92 42.5q-27 0 -35.5 -5.5t-9.5 -23.5v-147q0 -125 1 -154q1 -12 8.5 -17t29.5 -5z" />
    <glyph glyph-name="germandbls" unicode="&#xdf;" horiz-adv-x="637" 
d="M533 278q75 -66 75 -148q0 -58 -50 -101.5t-118 -43.5q-31 0 -63.5 16.5t-38.5 16.5q-12 0 -15 -20q-1 -9 -8 -9t-7 9q0 1 0.5 17.5t0.5 28.5q0 24 -2.5 57.5t-2.5 34.5q0 7 6 7t9 -10q40 -134 121 -134q26 0 43 15.5t17 39.5q0 21 -9.5 35.5t-35.5 38.5l-98 93
q-54 51 -54 106q0 48 44 100q10 13 29.5 33.5t28.5 31.5t17 29t8 37q0 29 -22.5 51t-59.5 22q-45 0 -69 -29t-24 -84v-450q0 -21 2 -42t2 -23q0 -7 -7 -7q-3 0 -20 1t-41.5 2t-44.5 1q-22 0 -50 -2t-48 -3.5t-23 -1.5q-7 0 -7 6q0 2 0.5 3t2.5 2.5t3.5 2.5t5.5 3t7 4
q26 13 32.5 43.5t6.5 116.5v191q-23 -1 -47 -1q-13 0 -13 13t13 13q1 0 17 -0.5t30 -0.5q1 74 23 127t57.5 80.5t73 39.5t80.5 12q70 0 102 -25t32 -65q0 -39 -26.5 -80t-26.5 -55q0 -6 1.5 -11.5t3.5 -9.5t8 -10t10.5 -9.5t15 -12.5t17.5 -16z" />
    <glyph glyph-name="agrave" unicode="&#xe0;" horiz-adv-x="575" 
d="M164 533q-28 17 -39.5 28.5t-11.5 27.5q0 18 11 29t30 12q23 1 58 -29.5t134 -137.5q4 -4 4 -6q0 -3 -5 -3q-3 0 -5 1q-108 40 -176 78zM566 85q8 0 8 -8q0 -45 -25.5 -68.5t-95.5 -23.5q-61 0 -95 23t-44 75q-30 -98 -159 -98q-58 0 -91.5 23.5t-33.5 70.5q0 36 22 61
t64 40t86.5 22.5t106.5 12.5v83q0 51 -18 70.5t-55 19.5q-28 0 -43.5 -10.5t-15.5 -25.5q0 -10 10 -30.5t10 -34.5q0 -24 -20.5 -40t-52.5 -16q-34 0 -53.5 17.5t-19.5 48.5q0 45 51.5 76t158.5 31q57 0 99.5 -9t77 -30t52 -59.5t17.5 -94.5v-142q0 -35 23 -35q26 0 26 43
q0 8 10 8zM243 33q27 0 46.5 33t19.5 85v48l-8 -2q-60 -12 -80 -32q-18 -17 -18 -61q0 -71 40 -71z" />
    <glyph glyph-name="aacute" unicode="&#xe1;" horiz-adv-x="575" 
d="M158 454q-5 0 -5 3q0 2 4 6q99 107 134 137.5t58 29.5q19 -1 30 -12t11 -29q0 -16 -11.5 -27.5t-39.5 -28.5q-68 -38 -176 -78q-2 -1 -5 -1zM566 85q8 0 8 -8q0 -45 -25.5 -68.5t-95.5 -23.5q-61 0 -95 23t-44 75q-30 -98 -159 -98q-58 0 -91.5 23.5t-33.5 70.5
q0 36 22 61t64 40t86.5 22.5t106.5 12.5v83q0 51 -18 70.5t-55 19.5q-28 0 -43.5 -10.5t-15.5 -25.5q0 -10 10 -30.5t10 -34.5q0 -24 -20.5 -40t-52.5 -16q-34 0 -53.5 17.5t-19.5 48.5q0 45 51.5 76t158.5 31q57 0 99.5 -9t77 -30t52 -59.5t17.5 -94.5v-142q0 -35 23 -35
q26 0 26 43q0 8 10 8zM243 33q27 0 46.5 33t19.5 85v48l-8 -2q-60 -12 -80 -32q-18 -17 -18 -61q0 -71 40 -71z" />
    <glyph glyph-name="acircumflex" unicode="&#xe2;" horiz-adv-x="575" 
d="M116 478q-7 0 -7 7q0 2 1 5t5 8l8 10t13 15.5l18 21t24 29t30 36.5q25 30 61 30q37 0 61 -30q15 -18 30 -36.5t24 -29l18 -21t13 -15.5l8 -10t5 -8t1 -5q0 -7 -7 -7q-2 0 -4.5 1t-8.5 3.5t-12 6t-18.5 10.5t-26 14t-36 19.5t-45.5 25.5h-4q-23 -13 -45.5 -25.5t-36 -19.5
t-26 -14t-18.5 -10.5t-12 -6t-8.5 -3.5t-4.5 -1zM566 85q8 0 8 -8q0 -45 -25.5 -68.5t-95.5 -23.5q-61 0 -95 23t-44 75q-30 -98 -159 -98q-58 0 -91.5 23.5t-33.5 70.5q0 36 22 61t64 40t86.5 22.5t106.5 12.5v83q0 51 -18 70.5t-55 19.5q-28 0 -43.5 -10.5t-15.5 -25.5
q0 -10 10 -30.5t10 -34.5q0 -24 -20.5 -40t-52.5 -16q-34 0 -53.5 17.5t-19.5 48.5q0 45 51.5 76t158.5 31q57 0 99.5 -9t77 -30t52 -59.5t17.5 -94.5v-142q0 -35 23 -35q26 0 26 43q0 8 10 8zM243 33q27 0 46.5 33t19.5 85v48l-8 -2q-60 -12 -80 -32q-18 -17 -18 -61
q0 -71 40 -71z" />
    <glyph glyph-name="atilde" unicode="&#xe3;" horiz-adv-x="575" 
d="M109 482q-8 0 -8 11q0 59 20.5 98.5t63.5 39.5q28 0 92 -24q59 -23 77 -23q27 0 36 40q2 11 11 11t9 -11q0 -52 -20 -91.5t-58 -39.5q-30 0 -85 21q-54 23 -78 23q-19 0 -30.5 -9.5t-18.5 -34.5q-2 -11 -11 -11zM566 85q8 0 8 -8q0 -45 -25.5 -68.5t-95.5 -23.5
q-61 0 -95 23t-44 75q-30 -98 -159 -98q-58 0 -91.5 23.5t-33.5 70.5q0 36 22 61t64 40t86.5 22.5t106.5 12.5v83q0 51 -18 70.5t-55 19.5q-28 0 -43.5 -10.5t-15.5 -25.5q0 -10 10 -30.5t10 -34.5q0 -24 -20.5 -40t-52.5 -16q-34 0 -53.5 17.5t-19.5 48.5q0 45 51.5 76
t158.5 31q57 0 99.5 -9t77 -30t52 -59.5t17.5 -94.5v-142q0 -35 23 -35q26 0 26 43q0 8 10 8zM243 33q27 0 46.5 33t19.5 85v48l-8 -2q-60 -12 -80 -32q-18 -17 -18 -61q0 -71 40 -71z" />
    <glyph glyph-name="adieresis" unicode="&#xe4;" horiz-adv-x="575" 
d="M162 483q-31 0 -51 18t-20 48q0 28 19.5 46t51.5 18t52 -17.5t20 -46.5q0 -30 -20 -48t-52 -18zM371 483q-32 0 -52 18t-20 48q0 28 20 46t52 18t51.5 -18t19.5 -46q0 -30 -19.5 -48t-51.5 -18zM566 85q8 0 8 -8q0 -45 -25.5 -68.5t-95.5 -23.5q-61 0 -95 23t-44 75
q-30 -98 -159 -98q-58 0 -91.5 23.5t-33.5 70.5q0 36 22 61t64 40t86.5 22.5t106.5 12.5v83q0 51 -18 70.5t-55 19.5q-28 0 -43.5 -10.5t-15.5 -25.5q0 -10 10 -30.5t10 -34.5q0 -24 -20.5 -40t-52.5 -16q-34 0 -53.5 17.5t-19.5 48.5q0 45 51.5 76t158.5 31q57 0 99.5 -9
t77 -30t52 -59.5t17.5 -94.5v-142q0 -35 23 -35q26 0 26 43q0 8 10 8zM243 33q27 0 46.5 33t19.5 85v48l-8 -2q-60 -12 -80 -32q-18 -17 -18 -61q0 -71 40 -71z" />
    <glyph glyph-name="aring" unicode="&#xe5;" horiz-adv-x="575" 
d="M266 493q-41 0 -67.5 21t-26.5 52q0 32 26.5 52.5t67.5 20.5q42 0 68 -20.5t26 -52.5t-26 -52.5t-68 -20.5zM266 626q-39 0 -39 -60t39 -60t39 60t-39 60zM566 85q8 0 8 -8q0 -45 -25.5 -68.5t-95.5 -23.5q-61 0 -95 23t-44 75q-30 -98 -159 -98q-58 0 -91.5 23.5
t-33.5 70.5q0 36 22 61t64 40t86.5 22.5t106.5 12.5v83q0 51 -18 70.5t-55 19.5q-28 0 -43.5 -10.5t-15.5 -25.5q0 -10 10 -30.5t10 -34.5q0 -24 -20.5 -40t-52.5 -16q-34 0 -53.5 17.5t-19.5 48.5q0 45 51.5 76t158.5 31q57 0 99.5 -9t77 -30t52 -59.5t17.5 -94.5v-142
q0 -35 23 -35q26 0 26 43q0 8 10 8zM243 33q27 0 46.5 33t19.5 85v48l-8 -2q-60 -12 -80 -32q-18 -17 -18 -61q0 -71 40 -71z" />
    <glyph glyph-name="ae" unicode="&#xe6;" horiz-adv-x="744" 
d="M712 122q7 0 7 -6q0 -4 -3 -14q-18 -52 -72 -84.5t-130 -32.5q-141 0 -204 94q-24 -94 -149 -94q-131 0 -131 101q0 40 29 67t76 38q62 14 139 24v82q0 51 -12.5 71t-44.5 20q-26 0 -40 -10.5t-14 -25.5q0 -9 5 -26t5 -29q0 -24 -17.5 -40t-45.5 -16q-29 0 -46 15t-17 41
q0 45 44.5 76t136.5 31q89 0 140 -37q60 37 143 37q89 0 147 -44.5t58 -115.5q0 -43 -39 -43l-214 1v-15q0 -156 103 -156q47 0 83.5 21t53.5 60q4 10 9 10zM512 390q-26 0 -37.5 -34.5t-11.5 -130.5v-1l67 1q16 0 19.5 6.5t3.5 36.5q0 69 -10 95.5t-31 26.5zM239 33
q18 0 35 18t24 47q-23 44 -23 99l-8 -2q-36 -9 -53 -32q-19 -25 -19 -64q0 -66 44 -66z" />
    <glyph glyph-name="ccedilla" unicode="&#xe7;" horiz-adv-x="504" 
d="M476 127q6 0 6 -6v-2q-26 -128 -193 -134l-29 -40q72 -10 98.5 -30t26.5 -49q0 -32 -30.5 -49t-73.5 -17q-28 0 -48.5 6t-28.5 11.5t-8 8.5q0 6 6 6q1 0 7.5 -2t16 -4.5t17.5 -2.5q19 0 30.5 12.5t11.5 33.5q0 23 -10 34.5t-35 22.5q-6 2 -6 8q0 4 6 11l30 40
q-107 1 -173.5 57t-66.5 146q0 101 72 158.5t197 57.5q44 0 84.5 -12.5t41.5 -12.5q16 0 22 24q3 8 9 8q7 0 7 -9q0 -46 3.5 -85.5t7 -60.5t3.5 -22q0 -8 -7 -8t-10 10q-38 150 -124 150q-105 0 -105 -170q0 -185 114 -185q44 0 77.5 23t45.5 64q3 9 8 9z" />
    <glyph glyph-name="egrave" unicode="&#xe8;" horiz-adv-x="529" 
d="M177 533q-28 17 -39.5 28.5t-11.5 27.5q0 18 11 29t30 12q23 1 58 -29.5t134 -137.5q4 -4 4 -6q0 -3 -5 -3q-3 0 -5 1q-108 40 -176 78zM494 122q7 0 7 -6q0 -4 -3 -14q-18 -52 -74 -84.5t-135 -32.5q-117 0 -188 59t-71 153t70.5 150.5t181.5 56.5q96 0 159 -44.5
t63 -115.5q0 -46 -39 -46l-247 1q2 -90 29.5 -130.5t90.5 -40.5q110 0 147 84q4 10 9 10zM283 390q-37 0 -50.5 -36.5t-14.5 -133.5l100 1q16 0 19.5 6.5t3.5 36.5q0 71 -14 98.5t-44 27.5z" />
    <glyph glyph-name="eacute" unicode="&#xe9;" horiz-adv-x="529" 
d="M171 454q-5 0 -5 3q0 2 4 6q99 107 134 137.5t58 29.5q19 -1 30 -12t11 -29q0 -16 -11.5 -27.5t-39.5 -28.5q-68 -38 -176 -78q-2 -1 -5 -1zM494 122q7 0 7 -6q0 -4 -3 -14q-18 -52 -74 -84.5t-135 -32.5q-117 0 -188 59t-71 153t70.5 150.5t181.5 56.5q96 0 159 -44.5
t63 -115.5q0 -46 -39 -46l-247 1q2 -90 29.5 -130.5t90.5 -40.5q110 0 147 84q4 10 9 10zM283 390q-37 0 -50.5 -36.5t-14.5 -133.5l100 1q16 0 19.5 6.5t3.5 36.5q0 71 -14 98.5t-44 27.5z" />
    <glyph glyph-name="ecircumflex" unicode="&#xea;" horiz-adv-x="529" 
d="M129 478q-7 0 -7 7q0 2 1 5t5 8l8 10t13 15.5l18 21t24 29t30 36.5q25 30 61 30q37 0 61 -30q15 -18 30 -36.5t24 -29l18 -21t13 -15.5l8 -10t5 -8t1 -5q0 -7 -7 -7q-2 0 -4.5 1t-8.5 3.5t-12 6t-18.5 10.5t-26 14t-36 19.5t-45.5 25.5h-4q-23 -13 -45.5 -25.5t-36 -19.5
t-26 -14t-18.5 -10.5t-12 -6t-8.5 -3.5t-4.5 -1zM494 122q7 0 7 -6q0 -4 -3 -14q-18 -52 -74 -84.5t-135 -32.5q-117 0 -188 59t-71 153t70.5 150.5t181.5 56.5q96 0 159 -44.5t63 -115.5q0 -46 -39 -46l-247 1q2 -90 29.5 -130.5t90.5 -40.5q110 0 147 84q4 10 9 10z
M283 390q-37 0 -50.5 -36.5t-14.5 -133.5l100 1q16 0 19.5 6.5t3.5 36.5q0 71 -14 98.5t-44 27.5z" />
    <glyph glyph-name="edieresis" unicode="&#xeb;" horiz-adv-x="529" 
d="M175 483q-31 0 -51 18t-20 48q0 28 19.5 46t51.5 18t52 -17.5t20 -46.5q0 -30 -20 -48t-52 -18zM384 483q-32 0 -52 18t-20 48q0 28 20 46t52 18t51.5 -18t19.5 -46q0 -30 -19.5 -48t-51.5 -18zM494 122q7 0 7 -6q0 -4 -3 -14q-18 -52 -74 -84.5t-135 -32.5
q-117 0 -188 59t-71 153t70.5 150.5t181.5 56.5q96 0 159 -44.5t63 -115.5q0 -46 -39 -46l-247 1q2 -90 29.5 -130.5t90.5 -40.5q110 0 147 84q4 10 9 10zM283 390q-37 0 -50.5 -36.5t-14.5 -133.5l100 1q16 0 19.5 6.5t3.5 36.5q0 71 -14 98.5t-44 27.5z" />
    <glyph glyph-name="igrave" unicode="&#xec;" horiz-adv-x="360" 
d="M245 454q-3 0 -5 1q-108 40 -176 78q-28 17 -39.5 28.5t-11.5 27.5q0 18 11 29t30 12q23 1 58 -29.5t134 -137.5q4 -4 4 -6q0 -3 -5 -3zM37 -7q-7 0 -7 6q0 2 0.5 3t2.5 2.5t3.5 2.5t5.5 3t7 4q26 13 32.5 43.5t6.5 115.5v38q0 68 -8.5 100t-29.5 45q-19 13 -20 16
q0 6 13 6q79 2 133.5 9.5t76 14.5t24.5 7q8 0 8 -7q0 -4 -4.5 -14.5t-7.5 -21.5q-7 -29 -7 -145v-37q0 -87 10.5 -122.5t42.5 -51.5q12 -6 12 -10q0 -7 -7 -7q-3 0 -28 1.5t-59 3.5t-59 2q-26 0 -58.5 -2t-56 -3.5t-26.5 -1.5z" />
    <glyph glyph-name="iacute" unicode="&#xed;" horiz-adv-x="360" 
d="M59 454q-5 0 -5 3q0 2 4 6q99 107 134 137.5t58 29.5q19 -1 30 -12t11 -29q0 -16 -11.5 -27.5t-39.5 -28.5q-68 -38 -176 -78q-2 -1 -5 -1zM37 -7q-7 0 -7 6q0 2 0.5 3t2.5 2.5t3.5 2.5t5.5 3t7 4q26 13 32.5 43.5t6.5 115.5v38q0 68 -8.5 100t-29.5 45q-19 13 -20 16
q0 6 13 6q79 2 133.5 9.5t76 14.5t24.5 7q8 0 8 -7q0 -4 -4.5 -14.5t-7.5 -21.5q-7 -29 -7 -145v-37q0 -87 10.5 -122.5t42.5 -51.5q12 -6 12 -10q0 -7 -7 -7q-3 0 -28 1.5t-59 3.5t-59 2q-26 0 -58.5 -2t-56 -3.5t-26.5 -1.5z" />
    <glyph glyph-name="icircumflex" unicode="&#xee;" horiz-adv-x="360" 
d="M57 470q-9 0 -9 8q0 17 67 119q16 25 25 32.5t27 7.5q12 0 22.5 -7t15.5 -14t14 -21q63 -101 63 -119q0 -6 -5 -6q-9 0 -109 75h-2q-98 -75 -109 -75zM37 -7q-7 0 -7 6q0 2 0.5 3t2.5 2.5t3.5 2.5t5.5 3t7 4q26 13 32.5 43.5t6.5 115.5v38q0 68 -8.5 100t-29.5 45
q-19 13 -20 16q0 6 13 6q79 2 133.5 9.5t76 14.5t24.5 7q8 0 8 -7q0 -4 -4.5 -14.5t-7.5 -21.5q-7 -29 -7 -145v-37q0 -87 10.5 -122.5t42.5 -51.5q12 -6 12 -10q0 -7 -7 -7q-3 0 -28 1.5t-59 3.5t-59 2q-26 0 -58.5 -2t-56 -3.5t-26.5 -1.5z" />
    <glyph glyph-name="idieresis" unicode="&#xef;" horiz-adv-x="360" 
d="M62 613q32 0 52 -17.5t20 -46.5q0 -30 -20 -48t-52 -18q-31 0 -51 18t-20 48q0 28 19.5 46t51.5 18zM271 613q32 0 51.5 -18t19.5 -46q0 -30 -19.5 -48t-51.5 -18t-52 18t-20 48q0 28 20 46t52 18zM37 -7q-7 0 -7 6q0 2 0.5 3t2.5 2.5t3.5 2.5t5.5 3t7 4q26 13 32.5 43.5
t6.5 115.5v38q0 68 -8.5 100t-29.5 45q-19 13 -20 16q0 6 13 6q79 2 133.5 9.5t76 14.5t24.5 7q8 0 8 -7q0 -4 -4.5 -14.5t-7.5 -21.5q-7 -29 -7 -145v-37q0 -87 10.5 -122.5t42.5 -51.5q12 -6 12 -10q0 -7 -7 -7q-3 0 -28 1.5t-59 3.5t-59 2q-26 0 -58.5 -2t-56 -3.5
t-26.5 -1.5z" />
    <glyph glyph-name="eth" unicode="&#xf0;" horiz-adv-x="568" 
d="M309 536q104 -38 166.5 -110t62.5 -166q0 -125 -72 -199.5t-182 -74.5t-182 54t-72 145q0 84 58.5 136.5t140.5 52.5q94 0 119 -55q-1 91 -9.5 127.5t-32.5 54.5q-8 6 -21 13l-103 -92q-9 -7 -13 -7q-9 0 -9 9q0 6 7 12l98 88q-68 30 -160 31q-11 0 -11 9q0 8 11 8
q95 0 182 -28l84 75q4 4 9 4q9 0 9 -10q0 -5 -5 -10zM355 171v45q0 62 -19 97.5t-51 35.5q-34 0 -52 -35.5t-18 -133.5q0 -180 71 -180q35 0 52 37.5t17 133.5z" />
    <glyph glyph-name="ntilde" unicode="&#xf1;" horiz-adv-x="645" 
d="M180 482q-8 0 -8 11q0 59 20.5 98.5t63.5 39.5q28 0 92 -24q59 -23 77 -23q27 0 36 40q2 11 11 11t9 -11q0 -52 -20 -91.5t-58 -39.5q-30 0 -85 21q-54 23 -78 23q-19 0 -30.5 -9.5t-18.5 -34.5q-2 -11 -11 -11zM605 14q16 -11 16 -15q0 -6 -7 -6q-11 0 -57 3.5t-75 3.5
q-30 0 -76.5 -3.5t-47.5 -3.5q-7 0 -7 6q0 5 18 16q16 13 20 31t4 77v189q0 58 -42 58q-38 0 -65 -49t-27 -136v-51q0 -70 5 -91.5t24 -29.5t19 -14t-7 -6q-2 0 -23 1.5t-51.5 3.5t-55.5 2t-57.5 -2t-56 -3.5t-26.5 -1.5q-7 0 -7 6q0 5 18 15q28 15 34 34.5t6 92.5v75
q0 80 -6.5 103.5t-32.5 34.5q-18 8 -19 13q0 7 9 7q43 0 96 7.5t89.5 15t38.5 7.5q7 0 7 -6q0 -2 -2 -18.5t-4.5 -45t-2.5 -57.5q28 127 151 127q87 0 126.5 -41t39.5 -129v-111q0 -59 5.5 -77t28.5 -32z" />
    <glyph glyph-name="ograve" unicode="&#xf2;" horiz-adv-x="568" 
d="M363 454q-3 0 -5 1q-108 40 -176 78q-28 17 -39.5 28.5t-11.5 27.5q0 18 11 29t30 12q23 1 58 -29.5t134 -137.5q4 -4 4 -6q0 -3 -5 -3zM284 404q113 0 183.5 -57t70.5 -152t-70.5 -152t-183.5 -57t-183.5 57t-70.5 152t70.5 152t183.5 57zM284 0q36 1 52 41.5t17 153.5
q-1 113 -17 153.5t-52 41.5q-36 -1 -52 -41.5t-17 -153.5q1 -113 17 -153.5t52 -41.5z" />
    <glyph glyph-name="oacute" unicode="&#xf3;" horiz-adv-x="568" 
d="M176 454q-5 0 -5 3q0 2 4 6q99 107 134 137.5t58 29.5q19 -1 30 -12t11 -29q0 -16 -11.5 -27.5t-39.5 -28.5q-68 -38 -176 -78q-2 -1 -5 -1zM284 404q113 0 183.5 -57t70.5 -152t-70.5 -152t-183.5 -57t-183.5 57t-70.5 152t70.5 152t183.5 57zM284 0q36 1 52 41.5
t17 153.5q-1 113 -17 153.5t-52 41.5q-36 -1 -52 -41.5t-17 -153.5q1 -113 17 -153.5t52 -41.5z" />
    <glyph glyph-name="ocircumflex" unicode="&#xf4;" horiz-adv-x="568" 
d="M134 478q-7 0 -7 7q0 2 1 5t5 8l8 10t13 15.5l18 21t24 29t30 36.5q25 30 61 30q37 0 61 -30q15 -18 30 -36.5t24 -29l18 -21t13 -15.5l8 -10t5 -8t1 -5q0 -7 -7 -7q-2 0 -4.5 1t-8.5 3.5t-12 6t-18.5 10.5t-26 14t-36 19.5t-45.5 25.5h-4q-23 -13 -45.5 -25.5t-36 -19.5
t-26 -14t-18.5 -10.5t-12 -6t-8.5 -3.5t-4.5 -1zM284 404q113 0 183.5 -57t70.5 -152t-70.5 -152t-183.5 -57t-183.5 57t-70.5 152t70.5 152t183.5 57zM284 0q36 1 52 41.5t17 153.5q-1 113 -17 153.5t-52 41.5q-36 -1 -52 -41.5t-17 -153.5q1 -113 17 -153.5t52 -41.5z" />
    <glyph glyph-name="otilde" unicode="&#xf5;" horiz-adv-x="568" 
d="M127 482q-8 0 -8 11q0 59 20.5 98.5t63.5 39.5q28 0 92 -24q59 -23 77 -23q27 0 36 40q2 11 11 11t9 -11q0 -52 -20 -91.5t-58 -39.5q-30 0 -85 21q-54 23 -78 23q-19 0 -30.5 -9.5t-18.5 -34.5q-2 -11 -11 -11zM284 404q113 0 183.5 -57t70.5 -152t-70.5 -152
t-183.5 -57t-183.5 57t-70.5 152t70.5 152t183.5 57zM284 0q36 1 52 41.5t17 153.5q-1 113 -17 153.5t-52 41.5q-36 -1 -52 -41.5t-17 -153.5q1 -113 17 -153.5t52 -41.5z" />
    <glyph glyph-name="odieresis" unicode="&#xf6;" horiz-adv-x="568" 
d="M180 613q32 0 52 -17.5t20 -46.5q0 -30 -20 -48t-52 -18q-31 0 -51 18t-20 48q0 28 19.5 46t51.5 18zM389 613q32 0 51.5 -18t19.5 -46q0 -30 -19.5 -48t-51.5 -18t-52 18t-20 48q0 28 20 46t52 18zM284 404q113 0 183.5 -57t70.5 -152t-70.5 -152t-183.5 -57t-183.5 57
t-70.5 152t70.5 152t183.5 57zM284 0q36 1 52 41.5t17 153.5q-1 113 -17 153.5t-52 41.5q-36 -1 -52 -41.5t-17 -153.5q1 -113 17 -153.5t52 -41.5z" />
    <glyph glyph-name="divide" unicode="&#xf7;" horiz-adv-x="560" 
d="M280 444q20 0 32.5 -11t12.5 -30t-12.5 -30t-32.5 -11t-32.5 11t-12.5 30t12.5 30t32.5 11zM107 275q0 12 8 12h330q8 0 8 -12t-8 -12h-330q-8 0 -8 12zM280 186q20 0 32.5 -11t12.5 -30t-12.5 -30t-32.5 -11t-32.5 11t-12.5 30t12.5 30t32.5 11z" />
    <glyph glyph-name="oslash" unicode="&#xf8;" horiz-adv-x="568" 
d="M415 379q58 -26 90.5 -73.5t32.5 -110.5q0 -95 -70.5 -152t-183.5 -57q-56 0 -107 16l-46 -72q-7 -10 -17 -10t-10 7q0 3 3 9l47 75q-58 25 -91 72.5t-33 111.5q0 95 70.5 152t183.5 57q59 0 108 -17l45 71q7 11 18 11q10 0 10 -6q0 -7 -3 -11zM215 195q0 -49 3 -83
l127 201q-7 42 -21.5 59t-39.5 18q-36 -1 -52 -41.5t-17 -153.5zM284 0q36 1 52 41.5t17 153.5q0 47 -3 80l-127 -200q8 -41 22.5 -57.5t38.5 -17.5z" />
    <glyph glyph-name="ugrave" unicode="&#xf9;" horiz-adv-x="623" 
d="M205 533q-28 17 -39.5 28.5t-11.5 27.5q0 18 11 29t30 12q23 1 58 -29.5t134 -137.5q4 -4 4 -6q0 -3 -5 -3q-3 0 -5 1q-108 40 -176 78zM593 27q13 -5 13 -11q0 -7 -9 -7q-43 0 -90 -5.5t-77.5 -11t-32.5 -5.5q-10 0 -12 11q-9 26 -10 100q-25 -113 -143 -113
q-79 0 -120.5 37t-41.5 127v134q0 41 -6.5 56.5t-25.5 23.5q-18 10 -19 14q0 6 10 6q39 0 90 4.5t87 8.5t38 4q10 0 10 -11q0 -2 -1.5 -11.5t-3 -34.5t-1.5 -64v-158q0 -92 48 -92q31 0 52 39.5t22 108.5q-1 113 -5 144t-19 40q-3 2 -7.5 4.5t-6 4l-3 3t-1.5 4.5q0 6 10 6
q35 0 84.5 4.5t86 8.5t39.5 4q7 0 7 -5q0 -1 -0.5 -7t-1.5 -17t-2.5 -27t-2 -41.5t-0.5 -55.5v-74q0 -84 7 -108.5t38 -37.5z" />
    <glyph glyph-name="uacute" unicode="&#xfa;" horiz-adv-x="623" 
d="M199 454q-5 0 -5 3q0 2 4 6q99 107 134 137.5t58 29.5q19 -1 30 -12t11 -29q0 -16 -11.5 -27.5t-39.5 -28.5q-68 -38 -176 -78q-2 -1 -5 -1zM593 27q13 -5 13 -11q0 -7 -9 -7q-43 0 -90 -5.5t-77.5 -11t-32.5 -5.5q-10 0 -12 11q-9 26 -10 100q-25 -113 -143 -113
q-79 0 -120.5 37t-41.5 127v134q0 41 -6.5 56.5t-25.5 23.5q-18 10 -19 14q0 6 10 6q39 0 90 4.5t87 8.5t38 4q10 0 10 -11q0 -2 -1.5 -11.5t-3 -34.5t-1.5 -64v-158q0 -92 48 -92q31 0 52 39.5t22 108.5q-1 113 -5 144t-19 40q-3 2 -7.5 4.5t-6 4l-3 3t-1.5 4.5q0 6 10 6
q35 0 84.5 4.5t86 8.5t39.5 4q7 0 7 -5q0 -1 -0.5 -7t-1.5 -17t-2.5 -27t-2 -41.5t-0.5 -55.5v-74q0 -84 7 -108.5t38 -37.5z" />
    <glyph glyph-name="ucircumflex" unicode="&#xfb;" horiz-adv-x="623" 
d="M154 461q-7 0 -7 7q0 2 1 5t5 8l8 10t13 15.5l18 21t24 29t30 36.5q25 30 61 30q37 0 61 -30q15 -18 30 -36.5t24 -29l18 -21t13 -15.5l8 -10t5 -8t1 -5q0 -7 -7 -7q-2 0 -4.5 1t-8.5 3.5t-12 6t-18.5 10.5t-26 14t-36 19.5t-45.5 25.5h-4q-23 -13 -45.5 -25.5t-36 -19.5
t-26 -14t-18.5 -10.5t-12 -6t-8.5 -3.5t-4.5 -1zM593 27q13 -5 13 -11q0 -7 -9 -7q-43 0 -90 -5.5t-77.5 -11t-32.5 -5.5q-10 0 -12 11q-9 26 -10 100q-25 -113 -143 -113q-79 0 -120.5 37t-41.5 127v134q0 41 -6.5 56.5t-25.5 23.5q-18 10 -19 14q0 6 10 6q39 0 90 4.5
t87 8.5t38 4q10 0 10 -11q0 -2 -1.5 -11.5t-3 -34.5t-1.5 -64v-158q0 -92 48 -92q31 0 52 39.5t22 108.5q-1 113 -5 144t-19 40q-3 2 -7.5 4.5t-6 4l-3 3t-1.5 4.5q0 6 10 6q35 0 84.5 4.5t86 8.5t39.5 4q7 0 7 -5q0 -1 -0.5 -7t-1.5 -17t-2.5 -27t-2 -41.5t-0.5 -55.5v-74
q0 -84 7 -108.5t38 -37.5z" />
    <glyph glyph-name="udieresis" unicode="&#xfc;" horiz-adv-x="623" 
d="M203 483q-31 0 -51 18t-20 48q0 28 19.5 46t51.5 18t52 -17.5t20 -46.5q0 -30 -20 -48t-52 -18zM412 483q-32 0 -52 18t-20 48q0 28 20 46t52 18t51.5 -18t19.5 -46q0 -30 -19.5 -48t-51.5 -18zM593 27q13 -5 13 -11q0 -7 -9 -7q-43 0 -90 -5.5t-77.5 -11t-32.5 -5.5
q-10 0 -12 11q-9 26 -10 100q-25 -113 -143 -113q-79 0 -120.5 37t-41.5 127v134q0 41 -6.5 56.5t-25.5 23.5q-18 10 -19 14q0 6 10 6q39 0 90 4.5t87 8.5t38 4q10 0 10 -11q0 -2 -1.5 -11.5t-3 -34.5t-1.5 -64v-158q0 -92 48 -92q31 0 52 39.5t22 108.5q-1 113 -5 144
t-19 40q-3 2 -7.5 4.5t-6 4l-3 3t-1.5 4.5q0 6 10 6q35 0 84.5 4.5t86 8.5t39.5 4q7 0 7 -5q0 -1 -0.5 -7t-1.5 -17t-2.5 -27t-2 -41.5t-0.5 -55.5v-74q0 -84 7 -108.5t38 -37.5z" />
    <glyph glyph-name="yacute" unicode="&#xfd;" horiz-adv-x="536" 
d="M183 454q-5 0 -5 3q0 2 4 6q99 107 134 137.5t58 29.5q19 -1 30 -12t11 -29q0 -16 -11.5 -27.5t-39.5 -28.5q-68 -38 -176 -78q-2 -1 -5 -1zM107 -93q17 0 45.5 -14t46.5 -14q23 0 39 21.5t16 53.5q0 21 -9 52t-19.5 57t-31 65.5t-32 59.5t-34.5 58.5t-26 44.5
q-20 36 -33.5 52t-35.5 28l-8 4t-6 3.5t-4.5 2.5t-3.5 2l-2 2t-1.5 2t-0.5 3q0 7 9 7q3 0 23 -1.5t51.5 -3.5t61.5 -2q29 0 85 3t57 3q8 0 8 -7q0 -5 -14 -11q-21 -8 -21 -33q0 -23 30 -91.5t46 -96.5q4 -6 6 -6q3 0 6 8q5 13 17.5 44t20 51t14 46t6.5 45q0 15 -9.5 22.5
t-38.5 11.5q-19 4 -19 10q0 7 9 7q2 0 34.5 -3t51.5 -3q23 0 57 3l34 3q10 0 10 -7t-9 -9q-48 -7 -72 -31t-47 -80l-127 -312q-32 -79 -69 -125.5t-87 -46.5q-32 0 -54.5 17.5t-22.5 47.5q0 27 15.5 42t37.5 15z" />
    <glyph glyph-name="thorn" unicode="&#xfe;" horiz-adv-x="612" 
d="M399 404q78 0 130.5 -57t52.5 -147q0 -98 -55 -156.5t-146 -58.5q-95 0 -125 71v-146q0 -83 48 -98q19 -7 19 -13t-7 -6q-5 0 -60.5 3.5t-88.5 3.5q-25 0 -57.5 -2t-56 -3.5t-26.5 -1.5q-7 0 -7 6q0 5 18 15q24 14 32 50t8 114l-1 398q0 126 -8 163.5t-43 55.5
q-2 2 -5 3.5t-4.5 2.5l-3 2t-2.5 2t-1.5 2t-1 2.5t-0.5 2.5q0 6 10 6q44 0 100 8t95 15.5t42 7.5q7 0 7 -5q0 -4 -2 -50.5t-3.5 -110t-1.5 -107.5v-57q35 85 144 85zM331 15q36 0 49.5 37.5t13.5 147.5q0 104 -14.5 136.5t-45.5 32.5q-33 0 -54.5 -39.5t-24.5 -114.5v-47
q7 -153 76 -153z" />
    <glyph glyph-name="ydieresis" unicode="&#xff;" horiz-adv-x="536" 
d="M187 613q32 0 52 -17.5t20 -46.5q0 -30 -20 -48t-52 -18q-31 0 -51 18t-20 48q0 28 19.5 46t51.5 18zM396 613q32 0 51.5 -18t19.5 -46q0 -30 -19.5 -48t-51.5 -18t-52 18t-20 48q0 28 20 46t52 18zM107 -93q17 0 45.5 -14t46.5 -14q23 0 39 21.5t16 53.5q0 21 -9 52
t-19.5 57t-31 65.5t-32 59.5t-34.5 58.5t-26 44.5q-20 36 -33.5 52t-35.5 28l-8 4t-6 3.5t-4.5 2.5t-3.5 2l-2 2t-1.5 2t-0.5 3q0 7 9 7q3 0 23 -1.5t51.5 -3.5t61.5 -2q29 0 85 3t57 3q8 0 8 -7q0 -5 -14 -11q-21 -8 -21 -33q0 -23 30 -91.5t46 -96.5q4 -6 6 -6q3 0 6 8
q5 13 17.5 44t20 51t14 46t6.5 45q0 15 -9.5 22.5t-38.5 11.5q-19 4 -19 10q0 7 9 7q2 0 34.5 -3t51.5 -3q23 0 57 3l34 3q10 0 10 -7t-9 -9q-48 -7 -72 -31t-47 -80l-127 -312q-32 -79 -69 -125.5t-87 -46.5q-32 0 -54.5 17.5t-22.5 47.5q0 27 15.5 42t37.5 15z" />
    <glyph glyph-name="Amacron" unicode="&#x100;" horiz-adv-x="755" 
d="M231 813q8 0 55.5 -2t71.5 -2q28 0 83 2t65 2q17 0 17 -16t-6 -27t-16 -11q-24 0 -69.5 1.5t-68.5 1.5q-20 0 -72 -1.5t-65 -1.5q-18 0 -18 18q0 36 23 36zM376 -6q-10 0 -10 6q0 2 0.5 3.5t2 2.5t3 1.5t5 1.5t6.5 2q49 13 49 44q0 27 -35 140q-5 15 -24 16q-29 2 -121 2
q-66 0 -80 -1q-14 0 -18 -10q-22 -67 -28 -93q-6 -27 -6 -41q0 -22 14.5 -34.5t50.5 -22.5q15 -4 15 -10q0 -7 -9 -7q-2 0 -41.5 3t-60.5 3q-16 0 -45 -3l-29 -3q-10 0 -10 7q0 8 9 9q32 5 52 30.5t44 92.5q137 384 151 429q4 12 4 16t-25 12q-24 10 -26 15q0 7 13 8
q58 3 119 12t96.5 16.5t36.5 7.5q7 0 7 -8q0 -3 -5 -10.5t-5 -14.5q0 -6 6 -25q18 -62 73.5 -215.5t99.5 -262.5q19 -47 33 -68t33 -30q26 -10 26 -16q0 -5 -9 -5q-4 0 -35 1.5t-75.5 3t-80.5 1.5q-33 0 -73 -1.5t-67.5 -3t-30.5 -1.5zM261 236q99 0 108 2q10 1 10 10
q0 4 -2 10l-94 284q-3 9 -6 9q-2 0 -6 -9l-98 -284q-4 -12 -4 -15q0 -5 8 -6q9 -1 84 -1z" />
    <glyph glyph-name="amacron" unicode="&#x101;" horiz-adv-x="575" 
d="M127 512q-18 0 -18 18q0 36 23 36q8 0 55.5 -2t71.5 -2q28 0 83 2t65 2q17 0 17 -16t-6 -27t-16 -11q-24 0 -69.5 1.5t-68.5 1.5q-20 0 -72 -1.5t-65 -1.5zM566 85q8 0 8 -8q0 -45 -25.5 -68.5t-95.5 -23.5q-61 0 -95 23t-44 75q-30 -98 -159 -98q-58 0 -91.5 23.5
t-33.5 70.5q0 36 22 61t64 40t86.5 22.5t106.5 12.5v83q0 51 -18 70.5t-55 19.5q-28 0 -43.5 -10.5t-15.5 -25.5q0 -10 10 -30.5t10 -34.5q0 -24 -20.5 -40t-52.5 -16q-34 0 -53.5 17.5t-19.5 48.5q0 45 51.5 76t158.5 31q57 0 99.5 -9t77 -30t52 -59.5t17.5 -94.5v-142
q0 -35 23 -35q26 0 26 43q0 8 10 8zM243 33q27 0 46.5 33t19.5 85v48l-8 -2q-60 -12 -80 -32q-18 -17 -18 -61q0 -71 40 -71z" />
    <glyph glyph-name="Abreve" unicode="&#x102;" horiz-adv-x="755" 
d="M365 713q-73 0 -113 43t-40 95q0 7 7 7q5 0 11 -7q34 -44 135 -44t135 44q6 7 11 7q7 0 7 -7q0 -52 -40 -95t-113 -43zM721 15q26 -10 26 -16q0 -5 -9 -5q-4 0 -35 1.5t-75.5 3t-80.5 1.5q-33 0 -73 -1.5t-67.5 -3t-30.5 -1.5q-10 0 -10 6q0 2 0.5 3.5t2 2.5t3 1.5t5 1.5
t6.5 2q49 13 49 44q0 27 -35 140q-5 15 -24 16q-29 2 -121 2q-66 0 -80 -1q-14 0 -18 -10q-22 -67 -28 -93q-6 -27 -6 -41q0 -22 14.5 -34.5t50.5 -22.5q15 -4 15 -10q0 -7 -9 -7q-2 0 -41.5 3t-60.5 3q-16 0 -45 -3l-29 -3q-10 0 -10 7q0 8 9 9q32 5 52 30.5t44 92.5
q137 384 151 429q4 12 4 16t-25 12q-24 10 -26 15q0 7 13 8q58 3 119 12t96.5 16.5t36.5 7.5q7 0 7 -8q0 -3 -5 -10.5t-5 -14.5q0 -6 6 -25q18 -62 73.5 -215.5t99.5 -262.5q19 -47 33 -68t33 -30zM369 238q10 1 10 10q0 4 -2 10l-94 284q-3 9 -6 9q-2 0 -6 -9l-98 -284
q-4 -12 -4 -15q0 -5 8 -6q9 -1 84 -1q99 0 108 2z" />
    <glyph glyph-name="abreve" unicode="&#x103;" horiz-adv-x="575" 
d="M266 481q-75 0 -114 46t-39 112q0 7 7 7q6 0 10 -9q21 -58 136 -58q114 0 137 58q3 9 9 9q7 0 7 -7q0 -66 -39 -112t-114 -46zM566 85q8 0 8 -8q0 -45 -25.5 -68.5t-95.5 -23.5q-61 0 -95 23t-44 75q-30 -98 -159 -98q-58 0 -91.5 23.5t-33.5 70.5q0 36 22 61t64 40
t86.5 22.5t106.5 12.5v83q0 51 -18 70.5t-55 19.5q-28 0 -43.5 -10.5t-15.5 -25.5q0 -10 10 -30.5t10 -34.5q0 -24 -20.5 -40t-52.5 -16q-34 0 -53.5 17.5t-19.5 48.5q0 45 51.5 76t158.5 31q57 0 99.5 -9t77 -30t52 -59.5t17.5 -94.5v-142q0 -35 23 -35q26 0 26 43
q0 8 10 8zM243 33q27 0 46.5 33t19.5 85v48l-8 -2q-60 -12 -80 -32q-18 -17 -18 -61q0 -71 40 -71z" />
    <glyph glyph-name="Aogonek" unicode="&#x104;" horiz-adv-x="755" 
d="M721 15q26 -10 26 -16q0 -5 -9 -5q-4 0 -35 1.5t-75.5 3t-80.5 1.5q-33 0 -73 -1.5t-67.5 -3t-30.5 -1.5l-9 -10q-36 -37 -36 -73q0 -55 56 -72q22 -7 39 -5q6 0 6 -5q0 -4 -4 -7q-56 -42 -128 -42q-45 0 -68.5 20t-23.5 55q0 43 39 77t120 73q1 1 16 6q49 13 49 44
q0 27 -35 140q-5 15 -24 16q-29 2 -121 2q-66 0 -80 -1q-14 0 -18 -10q-22 -67 -28 -93q-6 -27 -6 -41q0 -22 14.5 -34.5t50.5 -22.5q15 -4 15 -10q0 -7 -9 -7q-2 0 -41.5 3t-60.5 3q-16 0 -45 -3l-29 -3q-10 0 -10 7q0 8 9 9q32 5 52 30.5t44 92.5q137 384 151 429
q4 12 4 16t-25 12q-24 10 -26 15q0 7 13 8q58 3 119 12t96.5 16.5t36.5 7.5q7 0 7 -8q0 -3 -5 -10.5t-5 -14.5q0 -6 6 -25q18 -62 73.5 -215.5t99.5 -262.5q19 -47 33 -68t33 -30zM369 238q10 1 10 10q0 4 -2 10l-94 284q-3 9 -6 9q-2 0 -6 -9l-98 -284q-4 -12 -4 -15
q0 -5 8 -6q9 -1 84 -1q99 0 108 2z" />
    <glyph glyph-name="aogonek" unicode="&#x105;" horiz-adv-x="575" 
d="M569 -157q6 0 6 -5q0 -4 -4 -7q-56 -42 -128 -42q-45 0 -68.5 20t-23.5 55q0 63 103 121h-1q-61 0 -95 23t-44 75q-30 -98 -159 -98q-58 0 -91.5 23.5t-33.5 70.5q0 36 22 61t64 40t86.5 22.5t106.5 12.5v83q0 51 -18 70.5t-55 19.5q-28 0 -43.5 -10.5t-15.5 -25.5
q0 -10 10 -30.5t10 -34.5q0 -24 -20.5 -40t-52.5 -16q-34 0 -53.5 17.5t-19.5 48.5q0 45 51.5 76t158.5 31q57 0 99.5 -9t77 -30t52 -59.5t17.5 -94.5v-142q0 -35 23 -35q26 0 26 43q0 8 10 8q8 0 8 -8q0 -35 -14.5 -57t-52.5 -30q-33 -36 -33 -70q0 -55 56 -72q22 -7 39 -5
zM243 33q27 0 46.5 33t19.5 85v48l-8 -2q-60 -12 -80 -32q-18 -17 -18 -61q0 -71 40 -71z" />
    <glyph glyph-name="Cacute" unicode="&#x106;" horiz-adv-x="704" 
d="M282 714q-4 0 -4 5q0 2 4 6q130 91 174 118t68 27q21 0 33 -11t12 -31q0 -21 -13 -34t-48 -25q-120 -37 -221 -54q-1 0 -2.5 -0.5t-2.5 -0.5zM654 275q8 0 8 -7l-2 -26q-3 -27 -5.5 -92t-2.5 -159q0 -7 -8 -7t-9 15q-3 32 -39 32q-18 0 -84 -23t-112 -23
q-158 0 -258.5 90t-100.5 239t103 239.5t261 90.5q51 0 110.5 -22.5t66.5 -22.5q24 0 27 29q3 16 11 16t8 -9q0 -52 7 -120q4 -51 9 -89.5t8 -54.5t3 -17q0 -7 -7 -7t-10 9l-14 47q-31 108 -84.5 167.5t-121.5 59.5q-48 0 -78.5 -24t-50 -95.5t-19.5 -196.5
q0 -126 16.5 -196t46 -94.5t79.5 -24.5q27 0 56.5 10t61 31.5t57.5 62t39 93.5l18 69q2 10 10 10z" />
    <glyph glyph-name="cacute" unicode="&#x107;" horiz-adv-x="504" 
d="M162 454q-5 0 -5 3q0 2 4 6q99 107 134 137.5t58 29.5q19 -1 30 -12t11 -29q0 -16 -11.5 -27.5t-39.5 -28.5q-68 -38 -176 -78q-2 -1 -5 -1zM476 127q6 0 6 -6v-2q-27 -134 -209 -134q-108 0 -175.5 56.5t-67.5 146.5q0 101 72 158.5t197 57.5q44 0 84.5 -12.5
t41.5 -12.5q16 0 22 24q3 8 9 8q7 0 7 -9q0 -46 3.5 -85.5t7 -60.5t3.5 -22q0 -8 -7 -8t-10 10q-38 150 -124 150q-105 0 -105 -170q0 -185 114 -185q44 0 77.5 23t45.5 64q3 9 8 9z" />
    <glyph glyph-name="Cdotaccent" unicode="&#x10a;" horiz-adv-x="704" 
d="M414 705q-32 0 -53 18.5t-21 48.5t21 48.5t53 18.5q33 0 53.5 -18.5t20.5 -48.5q0 -31 -20.5 -49t-53.5 -18zM654 275q8 0 8 -7l-2 -26q-3 -27 -5.5 -92t-2.5 -159q0 -7 -8 -7t-9 15q-3 32 -39 32q-18 0 -84 -23t-112 -23q-158 0 -258.5 90t-100.5 239t103 239.5
t261 90.5q51 0 110.5 -22.5t66.5 -22.5q24 0 27 29q3 16 11 16t8 -9q0 -52 7 -120q4 -51 9 -89.5t8 -54.5t3 -17q0 -7 -7 -7t-10 9l-14 47q-31 108 -84.5 167.5t-121.5 59.5q-48 0 -78.5 -24t-50 -95.5t-19.5 -196.5q0 -126 16.5 -196t46 -94.5t79.5 -24.5q27 0 56.5 10
t61 31.5t57.5 62t39 93.5l18 69q2 10 10 10z" />
    <glyph glyph-name="cdotaccent" unicode="&#x10b;" horiz-adv-x="504" 
d="M288 477q-37 0 -60.5 21t-23.5 56t23.5 56t60.5 21q38 0 61 -21t23 -56q0 -34 -23 -55.5t-61 -21.5zM476 127q6 0 6 -6v-2q-27 -134 -209 -134q-108 0 -175.5 56.5t-67.5 146.5q0 101 72 158.5t197 57.5q44 0 84.5 -12.5t41.5 -12.5q16 0 22 24q3 8 9 8q7 0 7 -9
q0 -46 3.5 -85.5t7 -60.5t3.5 -22q0 -8 -7 -8t-10 10q-38 150 -124 150q-105 0 -105 -170q0 -185 114 -185q44 0 77.5 23t45.5 64q3 9 8 9z" />
    <glyph glyph-name="Ccaron" unicode="&#x10c;" horiz-adv-x="704" 
d="M262 855q4 0 151 -63h2q145 63 151 63q7 0 7 -7q0 -16 -95 -112l-7 -7t-7 -7.5t-7 -6.5t-7.5 -5.5t-7 -4.5t-8.5 -4t-9 -2t-11 -1q-21 0 -31.5 6.5t-33.5 30.5q-94 97 -94 113q0 7 7 7zM654 275q8 0 8 -7l-2 -26q-3 -27 -5.5 -92t-2.5 -159q0 -7 -8 -7t-9 15
q-3 32 -39 32q-18 0 -84 -23t-112 -23q-158 0 -258.5 90t-100.5 239t103 239.5t261 90.5q51 0 110.5 -22.5t66.5 -22.5q24 0 27 29q3 16 11 16t8 -9q0 -52 7 -120q4 -51 9 -89.5t8 -54.5t3 -17q0 -7 -7 -7t-10 9l-14 47q-31 108 -84.5 167.5t-121.5 59.5q-48 0 -78.5 -24
t-50 -95.5t-19.5 -196.5q0 -126 16.5 -196t46 -94.5t79.5 -24.5q27 0 56.5 10t61 31.5t57.5 62t39 93.5l18 69q2 10 10 10z" />
    <glyph glyph-name="ccaron" unicode="&#x10d;" horiz-adv-x="504" 
d="M117 632q2 0 4.5 -1t8.5 -3.5t12 -6t18.5 -10.5t26 -14t36 -19.5t45.5 -25.5h4q23 13 45.5 25.5t36 19.5t26 14t18.5 10.5t12 6t8.5 3.5t4.5 1q7 0 7 -7q0 -2 -1 -5t-5 -8l-8 -10t-13 -15.5l-18 -21t-24 -29t-30 -36.5q-24 -30 -61 -30q-36 0 -61 30q-15 18 -30 36.5
t-24 29l-18 21t-13 15.5l-8 10t-5 8t-1 5q0 7 7 7zM476 127q6 0 6 -6v-2q-27 -134 -209 -134q-108 0 -175.5 56.5t-67.5 146.5q0 101 72 158.5t197 57.5q44 0 84.5 -12.5t41.5 -12.5q16 0 22 24q3 8 9 8q7 0 7 -9q0 -46 3.5 -85.5t7 -60.5t3.5 -22q0 -8 -7 -8t-10 10
q-38 150 -124 150q-105 0 -105 -170q0 -185 114 -185q44 0 77.5 23t45.5 64q3 9 8 9z" />
    <glyph glyph-name="Dcaron" unicode="&#x10e;" horiz-adv-x="819" 
d="M404 698q-21 0 -31.5 6.5t-33.5 30.5q-94 97 -94 113q0 7 7 7q4 0 151 -63h2q145 63 151 63q7 0 7 -7q0 -16 -95 -112l-7 -7t-7 -7.5t-7 -6.5t-7.5 -5.5t-7 -4.5t-8.5 -4t-9 -2t-11 -1zM386 639q176 0 284 -88t108 -237t-108 -237t-284 -88q-3 0 -33.5 2t-72.5 4.5
t-75 2.5q-29 0 -65.5 -2t-63 -3.5t-29.5 -1.5q-7 0 -7 6q0 2 0.5 3l1 2t2.5 2.5t3.5 2t5 2.5t5.5 3q23 10 30 36q10 42 10 267q0 227 -10 265q-8 26 -30 37q-18 8 -18 14t7 6q3 0 29.5 -1.5t63 -3.5t65.5 -2q33 0 75 2t72.5 4.5t33.5 2.5zM396 4q79 0 115.5 69t36.5 241
q0 173 -36.5 242t-115.5 69q-58 0 -74 -45q-10 -31 -10 -265q0 -236 10 -266q15 -45 74 -45z" />
    <glyph glyph-name="dcaron" unicode="&#x10f;" horiz-adv-x="697" 
d="M578 33q13 -5 13 -11q0 -7 -9 -7q-42 0 -92.5 -6t-85 -12t-36.5 -6q-7 0 -7 6q0 2 1.5 15t3.5 33.5t3 37.5h-2q-29 -98 -124 -98q-88 0 -150.5 57.5t-62.5 146.5q0 96 62.5 155.5t150.5 59.5q79 0 110 -53h1v36q-1 106 -9 140.5t-31 47.5q-18 11 -18 17q0 7 9 7
q56 0 110 11.5t85 23.5t33 12q6 0 6 -6l-1 -18q-2 -18 -4 -62t-2 -109l1 -278q0 -81 7 -104.5t38 -35.5zM646 646q30 0 48.5 -20.5t18.5 -56.5q0 -37 -16 -65.5t-38.5 -42.5t-39 -20.5t-23.5 -6.5q-9 0 -9 8q0 6 9 8q33 8 61 34.5t28 57.5q0 9 -7 9q-3 0 -14 -10t-25 -10
q-21 0 -37.5 16t-16.5 41q0 26 17.5 42t43.5 16zM362 189q1 190 -80 190q-34 0 -48 -41.5t-16 -148.5q2 -97 15.5 -136.5t45.5 -39.5q37 0 59.5 46t23.5 130z" />
    <glyph glyph-name="Dcroat" unicode="&#x110;" horiz-adv-x="825" 
d="M392 639q176 0 284 -88t108 -237t-108 -237t-284 -88q-3 0 -33.5 2t-72.5 4.5t-75 2.5q-29 0 -65.5 -2t-63 -3.5t-29.5 -1.5q-7 0 -7 6q0 2 0.5 3l1 2t2.5 2.5t3.5 2t5 2.5t5.5 3q10 5 16 9.5t11 18t7 28.5t3.5 49.5t2 72t0.5 104.5q-10 0 -26 -0.5t-20 -0.5
q-18 0 -18 23q0 10 6 18t17 8q3 0 17 -0.5t24 -0.5q0 98 -1 142.5t-5.5 77t-11.5 41t-22 15.5q-18 8 -18 14t7 6q3 0 29.5 -1.5t63 -3.5t65.5 -2q33 0 75 2t72.5 4.5t33.5 2.5zM402 4q79 0 115.5 69t36.5 241q0 173 -36.5 242t-115.5 69q-58 0 -74 -45q-10 -32 -10 -241
q53 3 84 3q21 0 21 -21q0 -11 -6 -20t-16 -8q-29 2 -83 4q0 -217 10 -248q15 -45 74 -45z" />
    <glyph glyph-name="dcroat" unicode="&#x111;" horiz-adv-x="616" 
d="M581 471h-49v-20l1 -278q0 -81 7 -104.5t38 -35.5q13 -5 13 -11q0 -7 -9 -7q-42 0 -92.5 -6t-85 -12t-36.5 -6q-7 0 -7 6q0 2 1.5 15t3.5 33.5t3 37.5h-2q-29 -98 -124 -98q-88 0 -150.5 57.5t-62.5 146.5q0 96 62.5 155.5t150.5 59.5q79 0 110 -53h1v36q0 51 -3 84h-96
q-11 0 -11 12q0 11 11 11h95q-4 39 -12 55t-24 26q-18 11 -18 17q0 7 9 7q56 0 110 11.5t85 23.5t33 12q6 0 6 -6q0 -1 -1.5 -15t-3.5 -48t-2 -83h49q14 0 14 -11q0 -12 -14 -12zM362 189q1 190 -80 190q-34 0 -48 -41.5t-16 -148.5q2 -97 15.5 -136.5t45.5 -39.5
q37 0 59.5 46t23.5 130z" />
    <glyph glyph-name="Emacron" unicode="&#x112;" horiz-adv-x="719" 
d="M232 758q-18 0 -18 18q0 36 23 36q8 0 55.5 -2t71.5 -2q28 0 83 2t65 2q17 0 17 -16t-6 -27t-16 -11q-24 0 -69.5 1.5t-68.5 1.5q-20 0 -72 -1.5t-65 -1.5zM643 54q0 -16 4.5 -26t10 -13t10 -6t4.5 -6q0 -6 -7 -6q-13 0 -202 1.5t-242 1.5q-47 0 -86 -0.5t-60.5 -1.5
t-27.5 -1q-7 0 -7 6q0 5 19 15q23 10 30 35q10 44 10 262q0 227 -10 265q-8 26 -30 37q-19 8 -19 14t7 6q5 0 33.5 -1.5t72.5 -3.5t87 -2q59 0 239 3.5t186 3.5q7 0 7 -6q0 -4 -7 -7t-14.5 -13.5t-7.5 -30.5q0 -31 5.5 -73.5t10.5 -73.5t5 -33q0 -8 -7 -8t-10 12
q-22 66 -51 110t-62.5 65t-63 29t-65.5 8q-51 0 -67 -20q-24 -29 -25 -242q1 -14 10 -19t35 -5q41 0 66 11.5t38 29t31 57.5q3 8 9 8q5 0 5 -7q0 -1 -1.5 -16.5t-2.5 -41t-1 -51.5q0 -30 1 -54.5t2.5 -38t1.5 -15.5q0 -7 -5 -7q-6 0 -9 8q-18 40 -31 57.5t-38 29t-66 11.5
q-26 0 -34.5 -5t-10.5 -18q2 -231 27 -257q16 -17 65 -17q85 -3 151.5 64t90.5 220q1 16 11 16q6 0 6 -8q0 -1 -5 -42.5t-10.5 -102t-5.5 -107.5z" />
    <glyph glyph-name="emacron" unicode="&#x113;" horiz-adv-x="529" 
d="M140 512q-18 0 -18 18q0 36 23 36q8 0 55.5 -2t71.5 -2q28 0 83 2t65 2q17 0 17 -16t-6 -27t-16 -11q-24 0 -69.5 1.5t-68.5 1.5q-20 0 -72 -1.5t-65 -1.5zM494 122q7 0 7 -6q0 -4 -3 -14q-18 -52 -74 -84.5t-135 -32.5q-117 0 -188 59t-71 153t70.5 150.5t181.5 56.5
q96 0 159 -44.5t63 -115.5q0 -46 -39 -46l-247 1q2 -90 29.5 -130.5t90.5 -40.5q110 0 147 84q4 10 9 10zM283 390q-37 0 -50.5 -36.5t-14.5 -133.5l100 1q16 0 19.5 6.5t3.5 36.5q0 71 -14 98.5t-44 27.5z" />
    <glyph glyph-name="Edotaccent" unicode="&#x116;" horiz-adv-x="719" 
d="M371 705q-32 0 -53 18.5t-21 48.5t21 48.5t53 18.5q33 0 53.5 -18.5t20.5 -48.5q0 -31 -20.5 -49t-53.5 -18zM643 54q0 -16 4.5 -26t10 -13t10 -6t4.5 -6q0 -6 -7 -6q-13 0 -202 1.5t-242 1.5q-47 0 -86 -0.5t-60.5 -1.5t-27.5 -1q-7 0 -7 6q0 5 19 15q23 10 30 35
q10 44 10 262q0 227 -10 265q-8 26 -30 37q-19 8 -19 14t7 6q5 0 33.5 -1.5t72.5 -3.5t87 -2q59 0 239 3.5t186 3.5q7 0 7 -6q0 -4 -7 -7t-14.5 -13.5t-7.5 -30.5q0 -31 5.5 -73.5t10.5 -73.5t5 -33q0 -8 -7 -8t-10 12q-22 66 -51 110t-62.5 65t-63 29t-65.5 8
q-51 0 -67 -20q-24 -29 -25 -242q1 -14 10 -19t35 -5q41 0 66 11.5t38 29t31 57.5q3 8 9 8q5 0 5 -7q0 -1 -1.5 -16.5t-2.5 -41t-1 -51.5q0 -30 1 -54.5t2.5 -38t1.5 -15.5q0 -7 -5 -7q-6 0 -9 8q-18 40 -31 57.5t-38 29t-66 11.5q-26 0 -34.5 -5t-10.5 -18q2 -231 27 -257
q16 -17 65 -17q85 -3 151.5 64t90.5 220q1 16 11 16q6 0 6 -8q0 -1 -5 -42.5t-10.5 -102t-5.5 -107.5z" />
    <glyph glyph-name="edotaccent" unicode="&#x117;" horiz-adv-x="529" 
d="M269 477q-37 0 -60.5 21t-23.5 56t23.5 56t60.5 21q38 0 61 -21t23 -56q0 -34 -23 -55.5t-61 -21.5zM494 122q7 0 7 -6q0 -4 -3 -14q-18 -52 -74 -84.5t-135 -32.5q-117 0 -188 59t-71 153t70.5 150.5t181.5 56.5q96 0 159 -44.5t63 -115.5q0 -46 -39 -46l-247 1
q2 -90 29.5 -130.5t90.5 -40.5q110 0 147 84q4 10 9 10zM283 390q-37 0 -50.5 -36.5t-14.5 -133.5l100 1q16 0 19.5 6.5t3.5 36.5q0 71 -14 98.5t-44 27.5z" />
    <glyph glyph-name="Eogonek" unicode="&#x118;" horiz-adv-x="719" 
d="M707 -176q6 0 6 -5q0 -4 -4 -7q-56 -42 -128 -42q-45 0 -68.5 20t-23.5 55q0 43 40 77.5t124 74.5q-33 0 -209.5 1.5t-222.5 1.5q-47 0 -86 -0.5t-60.5 -1.5t-27.5 -1q-7 0 -7 6q0 5 19 15q23 10 30 35q10 44 10 262q0 227 -10 265q-8 26 -30 37q-19 8 -19 14t7 6
q5 0 33.5 -1.5t72.5 -3.5t87 -2q59 0 239 3.5t186 3.5q7 0 7 -6q0 -4 -7 -7t-14.5 -13.5t-7.5 -30.5q0 -31 5.5 -73.5t10.5 -73.5t5 -33q0 -8 -7 -8t-10 12q-22 66 -51 110t-62.5 65t-63 29t-65.5 8q-51 0 -67 -20q-24 -29 -25 -242q1 -14 10 -19t35 -5q41 0 66 11.5t38 29
t31 57.5q3 8 9 8q5 0 5 -7q0 -1 -1.5 -16.5t-2.5 -41t-1 -51.5q0 -30 1 -54.5t2.5 -38t1.5 -15.5q0 -7 -5 -7q-6 0 -9 8q-18 40 -31 57.5t-38 29t-66 11.5q-26 0 -34.5 -5t-10.5 -18q2 -231 27 -257q16 -17 65 -17q85 -3 151.5 64t90.5 220q1 16 11 16q6 0 6 -8
q0 -1 -5 -42.5t-10.5 -102t-5.5 -107.5q0 -16 4.5 -26t10 -13t10 -6t4.5 -6t-2 -5l-22 -24q-36 -37 -36 -73q0 -55 56 -72q22 -7 39 -5z" />
    <glyph glyph-name="eogonek" unicode="&#x119;" horiz-adv-x="529" 
d="M494 122q7 0 7 -6q0 -4 -3 -14q-15 -41 -55 -72l-21 -23q-36 -37 -36 -73q0 -55 56 -72q22 -7 39 -5q6 0 6 -5q0 -4 -4 -7q-56 -42 -128 -42q-45 0 -68.5 20t-23.5 55q0 60 89 113q-28 -6 -63 -6q-117 0 -188 59t-71 153t70.5 150.5t181.5 56.5q96 0 159 -44.5t63 -115.5
q0 -46 -39 -46l-247 1q2 -90 29.5 -130.5t90.5 -40.5q110 0 147 84q4 10 9 10zM283 390q-37 0 -50.5 -36.5t-14.5 -133.5l100 1q16 0 19.5 6.5t3.5 36.5q0 71 -14 98.5t-44 27.5z" />
    <glyph glyph-name="Ecaron" unicode="&#x11a;" horiz-adv-x="719" 
d="M371 698q-21 0 -31.5 6.5t-33.5 30.5q-94 97 -94 113q0 7 7 7q4 0 151 -63h2q145 63 151 63q7 0 7 -7q0 -16 -95 -112l-7 -7t-7 -7.5t-7 -6.5t-7.5 -5.5t-7 -4.5t-8.5 -4t-9 -2t-11 -1zM643 54q0 -16 4.5 -26t10 -13t10 -6t4.5 -6q0 -6 -7 -6q-13 0 -202 1.5t-242 1.5
q-47 0 -86 -0.5t-60.5 -1.5t-27.5 -1q-7 0 -7 6q0 5 19 15q23 10 30 35q10 44 10 262q0 227 -10 265q-8 26 -30 37q-19 8 -19 14t7 6q5 0 33.5 -1.5t72.5 -3.5t87 -2q59 0 239 3.5t186 3.5q7 0 7 -6q0 -4 -7 -7t-14.5 -13.5t-7.5 -30.5q0 -31 5.5 -73.5t10.5 -73.5t5 -33
q0 -8 -7 -8t-10 12q-22 66 -51 110t-62.5 65t-63 29t-65.5 8q-51 0 -67 -20q-24 -29 -25 -242q1 -14 10 -19t35 -5q41 0 66 11.5t38 29t31 57.5q3 8 9 8q5 0 5 -7q0 -1 -1.5 -16.5t-2.5 -41t-1 -51.5q0 -30 1 -54.5t2.5 -38t1.5 -15.5q0 -7 -5 -7q-6 0 -9 8q-18 40 -31 57.5
t-38 29t-66 11.5q-26 0 -34.5 -5t-10.5 -18q2 -231 27 -257q16 -17 65 -17q85 -3 151.5 64t90.5 220q1 16 11 16q6 0 6 -8q0 -1 -5 -42.5t-10.5 -102t-5.5 -107.5z" />
    <glyph glyph-name="ecaron" unicode="&#x11b;" horiz-adv-x="529" 
d="M279 470q-36 0 -61 30q-15 18 -30 36.5t-24 29l-18 21t-13 15.5l-8 10t-5 8t-1 5q0 7 7 7q2 0 4.5 -1t8.5 -3.5t12 -6t18.5 -10.5t26 -14t36 -19.5t45.5 -25.5h4q23 13 45.5 25.5t36 19.5t26 14t18.5 10.5t12 6t8.5 3.5t4.5 1q7 0 7 -7q0 -2 -1 -5t-5 -8l-8 -10
t-13 -15.5l-18 -21t-24 -29t-30 -36.5q-24 -30 -61 -30zM494 122q7 0 7 -6q0 -4 -3 -14q-18 -52 -74 -84.5t-135 -32.5q-117 0 -188 59t-71 153t70.5 150.5t181.5 56.5q96 0 159 -44.5t63 -115.5q0 -46 -39 -46l-247 1q2 -90 29.5 -130.5t90.5 -40.5q110 0 147 84q4 10 9 10
zM283 390q-37 0 -50.5 -36.5t-14.5 -133.5l100 1q16 0 19.5 6.5t3.5 36.5q0 71 -14 98.5t-44 27.5z" />
    <glyph glyph-name="Gbreve" unicode="&#x11e;" horiz-adv-x="731" 
d="M418 721q-75 0 -114 46t-39 112q0 7 7 7q6 0 10 -9q21 -58 136 -58q114 0 137 58q3 9 9 9q7 0 7 -7q0 -66 -39 -112t-114 -46zM724 252q7 0 7 -6q0 -3 -3 -4.5t-10.5 -4.5t-12.5 -6q-23 -12 -28 -33t-5 -101v-97q0 -15 -8 -15q-6 0 -9 12q-7 34 -41 34q-32 0 -98 -21
t-114 -21q-159 0 -260 86t-101 230q0 151 107 242.5t270 91.5q56 0 116 -20t68 -20q13 0 19 6.5t8 22.5q3 16 11 16t8 -12q0 -49 2.5 -91t5.5 -67.5t6 -43.5t5.5 -27.5t2.5 -11.5q0 -7 -8 -7q-4 0 -9 9q-64 126 -117.5 178t-119.5 52q-35 0 -59.5 -13t-45.5 -46.5t-31 -98
t-10 -160.5q1 -172 32.5 -238.5t105.5 -66.5q67 0 67 76v54q0 59 -6 74.5t-33 27.5q-19 9 -19 14q0 6 7 6q3 0 27 -2t56.5 -3.5t57.5 -1.5q29 0 66 1.5t63.5 3.5t29.5 2z" />
    <glyph glyph-name="gbreve" unicode="&#x11f;" horiz-adv-x="534" 
d="M262 496q-60 0 -91 36.5t-31 89.5q0 6 5 6t8 -7q18 -47 109 -47t109 47q3 7 8 7t5 -6q0 -53 -31 -89.5t-91 -36.5zM342 49q99 0 144.5 -29.5t45.5 -90.5q0 -144 -258 -144q-123 0 -180 17t-57 54q0 48 86 62q-90 15 -90 91q0 91 149 106q-68 15 -107 52t-39 89
q0 68 63.5 108t166.5 40q30 0 55 -3q12 59 47 87.5t72 28.5q34 0 53 -18t19 -46q0 -25 -17 -42t-43 -17q-43 0 -54 43q-3 11 -5.5 14t-8.5 3q-11 0 -23.5 -15.5t-18.5 -40.5q71 -14 112.5 -51t41.5 -91q0 -68 -64 -108.5t-166 -40.5h-9q-67 0 -91.5 -7.5t-24.5 -24.5
q0 -26 51 -26h150zM266 388q-33 0 -47.5 -29.5t-15.5 -102.5q1 -73 15.5 -103t47.5 -30t47.5 30t15.5 103q-1 73 -15.5 102.5t-47.5 29.5zM276 -201q162 0 162 65q0 49 -75 49l-161 1q-31 -2 -46 -17t-15 -37q0 -29 28.5 -45t106.5 -16z" />
    <glyph glyph-name="Gdotaccent" unicode="&#x120;" horiz-adv-x="731" 
d="M418 705q-32 0 -53 18.5t-21 48.5t21 48.5t53 18.5q33 0 53.5 -18.5t20.5 -48.5q0 -31 -20.5 -49t-53.5 -18zM664 -15q-6 0 -9 12q-7 34 -41 34q-32 0 -98 -21t-114 -21q-159 0 -260 86t-101 230q0 151 107 242.5t270 91.5q56 0 116 -20t68 -20q13 0 19 6.5t8 22.5
q3 16 11 16t8 -12q0 -49 2.5 -91t5.5 -67.5t6 -43.5t5.5 -27.5t2.5 -11.5q0 -7 -8 -7q-4 0 -9 9q-64 126 -117.5 178t-119.5 52q-35 0 -59.5 -13t-45.5 -46.5t-31 -98t-10 -160.5q1 -172 32.5 -238.5t105.5 -66.5q67 0 67 76v54q0 59 -6 74.5t-33 27.5q-19 9 -19 14q0 6 7 6
q3 0 27 -2t56.5 -3.5t57.5 -1.5q29 0 66 1.5t63.5 3.5t29.5 2q7 0 7 -6q0 -3 -3 -4.5t-10.5 -4.5t-12.5 -6q-23 -12 -28 -33t-5 -101v-97q0 -15 -8 -15z" />
    <glyph glyph-name="gdotaccent" unicode="&#x121;" horiz-adv-x="534" 
d="M240 496q-32 0 -52.5 18t-20.5 49q0 30 20.5 48.5t52.5 18.5q34 0 54 -18.5t20 -48.5q0 -31 -20.5 -49t-53.5 -18zM342 49q99 0 144.5 -29.5t45.5 -90.5q0 -144 -258 -144q-123 0 -180 17t-57 54q0 48 86 62q-90 15 -90 91q0 91 149 106q-68 15 -107 52t-39 89
q0 68 63.5 108t166.5 40q30 0 55 -3q12 59 47 87.5t72 28.5q34 0 53 -18t19 -46q0 -25 -17 -42t-43 -17q-43 0 -54 43q-3 11 -5.5 14t-8.5 3q-11 0 -23.5 -15.5t-18.5 -40.5q71 -14 112.5 -51t41.5 -91q0 -68 -64 -108.5t-166 -40.5h-9q-67 0 -91.5 -7.5t-24.5 -24.5
q0 -26 51 -26h150zM266 388q-33 0 -47.5 -29.5t-15.5 -102.5q1 -73 15.5 -103t47.5 -30t47.5 30t15.5 103q-1 73 -15.5 102.5t-47.5 29.5zM276 -201q162 0 162 65q0 49 -75 49l-161 1q-31 -2 -46 -17t-15 -37q0 -29 28.5 -45t106.5 -16z" />
    <glyph glyph-name="Gcommaaccent" unicode="&#x122;" horiz-adv-x="731" 
d="M664 -15q-6 0 -9 12q-7 34 -41 34q-32 0 -98 -21t-114 -21q-159 0 -260 86t-101 230q0 151 107 242.5t270 91.5q56 0 116 -20t68 -20q13 0 19 6.5t8 22.5q3 16 11 16t8 -12q0 -49 2.5 -91t5.5 -67.5t6 -43.5t5.5 -27.5t2.5 -11.5q0 -7 -8 -7q-4 0 -9 9
q-64 126 -117.5 178t-119.5 52q-35 0 -59.5 -13t-45.5 -46.5t-31 -98t-10 -160.5q1 -172 32.5 -238.5t105.5 -66.5q67 0 67 76v54q0 59 -6 74.5t-33 27.5q-19 9 -19 14q0 6 7 6q3 0 27 -2t56.5 -3.5t57.5 -1.5q29 0 66 1.5t63.5 3.5t29.5 2q7 0 7 -6q0 -3 -3 -4.5
t-10.5 -4.5t-12.5 -6q-23 -12 -28 -33t-5 -101v-97q0 -15 -8 -15zM357 -252q-9 0 -9 8q0 6 9 8q33 8 61 34.5t28 57.5q0 9 -7 9q-3 0 -14 -10t-25 -10q-21 0 -37.5 16t-16.5 41q0 26 17.5 42t43.5 16q30 0 48.5 -20.5t18.5 -56.5q0 -37 -16 -65.5t-38.5 -42.5t-39 -20.5
t-23.5 -6.5z" />
    <glyph glyph-name="gcommaaccent" unicode="&#x123;" horiz-adv-x="534" 
d="M238 459q-30 0 -48.5 20.5t-18.5 56.5q0 37 16 65.5t38.5 42.5t39 20.5t23.5 6.5q9 0 9 -8q0 -7 -9 -8q-33 -8 -61 -34.5t-28 -57.5q0 -9 7 -9q3 0 14 10t25 10q21 0 37.5 -16t16.5 -41q0 -26 -17.5 -42t-43.5 -16zM342 49q99 0 144.5 -29.5t45.5 -90.5q0 -144 -258 -144
q-123 0 -180 17t-57 54q0 48 86 62q-90 15 -90 91q0 91 149 106q-68 15 -107 52t-39 89q0 68 63.5 108t166.5 40q30 0 55 -3q12 59 47 87.5t72 28.5q34 0 53 -18t19 -46q0 -25 -17 -42t-43 -17q-43 0 -54 43q-3 11 -5.5 14t-8.5 3q-11 0 -23.5 -15.5t-18.5 -40.5
q71 -14 112.5 -51t41.5 -91q0 -68 -64 -108.5t-166 -40.5h-9q-67 0 -91.5 -7.5t-24.5 -24.5q0 -26 51 -26h150zM266 388q-33 0 -47.5 -29.5t-15.5 -102.5q1 -73 15.5 -103t47.5 -30t47.5 30t15.5 103q-1 73 -15.5 102.5t-47.5 29.5zM276 -201q162 0 162 65q0 49 -75 49
l-161 1q-31 -2 -46 -17t-15 -37q0 -29 28.5 -45t106.5 -16z" />
    <glyph glyph-name="Hbar" unicode="&#x126;" horiz-adv-x="867" 
d="M819 456h-55q-1 -37 -1 -141q0 -227 10 -264q8 -27 30 -37q19 -10 19 -15q0 -6 -7 -6q-3 0 -29.5 1.5t-63.5 3.5t-66 2q-28 0 -65 -2t-63.5 -3.5t-29.5 -1.5q-7 0 -7 6q0 5 19 15q18 8 25.5 28.5t10 67t3.5 157.5q-1 26 -19.5 31t-96.5 5q-76 0 -94.5 -5t-19.5 -31
q1 -111 3.5 -157.5t10 -67t25.5 -28.5q19 -10 19 -15q0 -6 -7 -6q-3 0 -29.5 1.5t-63.5 3.5t-65 2q-29 0 -66 -2t-63.5 -3.5t-29.5 -1.5q-7 0 -7 6q0 5 19 15q23 10 30 35q10 46 10 266q0 104 -1 141h-56q-8 0 -8 12t8 12h56q-2 79 -9.5 103t-29.5 34q-19 8 -19 14t7 6
q3 0 29.5 -1.5t63.5 -3.5t66 -2q28 0 65 2t63.5 3.5t29.5 1.5q7 0 7 -6t-19 -14q-22 -10 -29.5 -33t-8.5 -104h228q-1 81 -8.5 104t-29.5 33q-19 8 -19 14t7 6q3 0 29.5 -1.5t63.5 -3.5t65 -2q29 0 66 2t63.5 3.5t29.5 1.5q7 0 7 -6t-19 -14q-22 -10 -29.5 -34t-9.5 -103h55
q8 0 8 -12t-8 -12zM549 360q0 69 -1 96h-228q-1 -27 -1 -96q1 -28 19.5 -33.5t94.5 -5.5q78 0 96.5 5.5t19.5 33.5z" />
    <glyph glyph-name="hbar" unicode="&#x127;" horiz-adv-x="655" 
d="M616 14q16 -11 16 -15q0 -6 -7 -6q-11 0 -57 3.5t-75 3.5q-30 0 -76.5 -3.5t-47.5 -3.5q-7 0 -7 6q0 5 18 16q16 13 20 31t4 77v189q0 58 -42 58q-38 0 -65 -49t-27 -136q0 -96 6 -128t33 -44q4 -2 8.5 -3.5t6.5 -2t3 -2.5t1 -5q0 -7 -8 -7q-5 0 -56 3.5t-83 3.5
q-25 0 -57.5 -2t-56 -3.5t-26.5 -1.5q-8 0 -8 6q0 2 0.5 3.5t2 2.5l3 2t5 2.5t6.5 2.5q27 13 34.5 58.5t7.5 193.5v112q0 59 -1 81h-83q-8 0 -8 12t8 12h81q-3 42 -13 61t-35 36q-2 2 -5 3.5t-4.5 2.5l-3 2t-2.5 2t-1.5 2t-1 2.5t-0.5 2.5q0 8 13 8q41 0 80 4.5t66.5 11.5
t49 14t32.5 11l12 5q6 0 6 -6q0 -1 -3 -16.5t-6 -52t-3 -88.5v-5h108q8 0 8 -12t-8 -12h-108v-162q32 109 146 109q87 0 126.5 -41t39.5 -129v-111q0 -59 5.5 -77t28.5 -32z" />
    <glyph glyph-name="Itilde" unicode="&#x128;" horiz-adv-x="445" 
d="M80 711q-8 0 -8 11q0 59 20.5 98.5t63.5 39.5q28 0 92 -24q59 -23 77 -23q27 0 36 40q2 11 11 11t9 -11q0 -52 -20 -91.5t-58 -39.5q-30 0 -85 21q-54 23 -78 23q-19 0 -30.5 -9.5t-18.5 -34.5q-2 -11 -11 -11zM64 -6q-7 0 -7 6t19 15q23 10 30 35q10 44 10 265
q0 227 -10 265q-8 26 -30 37q-19 8 -19 14t7 6q3 0 29.5 -1.5t63.5 -3.5t66 -2q28 0 65 2t63.5 3.5t29.5 1.5q7 0 7 -6t-19 -14q-28 -13 -33.5 -58t-5.5 -244q0 -227 10 -264q6 -26 29 -36q19 -9 19 -15t-7 -6q-3 0 -29.5 2t-63.5 3.5t-65 1.5q-29 0 -66 -1.5t-63.5 -3.5
t-29.5 -2z" />
    <glyph glyph-name="itilde" unicode="&#x129;" horiz-adv-x="360" 
d="M19 482q-8 0 -8 11q0 59 20.5 98.5t63.5 39.5q28 0 92 -24q59 -23 77 -23q27 0 36 40q2 11 11 11t9 -11q0 -52 -20 -91.5t-58 -39.5q-30 0 -85 21q-54 23 -78 23q-19 0 -30.5 -9.5t-18.5 -34.5q-2 -11 -11 -11zM37 -7q-7 0 -7 6q0 2 0.5 3t2.5 2.5t3.5 2.5t5.5 3t7 4
q26 13 32.5 43.5t6.5 115.5v38q0 68 -8.5 100t-29.5 45q-19 13 -20 16q0 6 13 6q79 2 133.5 9.5t76 14.5t24.5 7q8 0 8 -7q0 -4 -4.5 -14.5t-7.5 -21.5q-7 -29 -7 -145v-37q0 -87 10.5 -122.5t42.5 -51.5q12 -6 12 -10q0 -7 -7 -7q-3 0 -28 1.5t-59 3.5t-59 2
q-26 0 -58.5 -2t-56 -3.5t-26.5 -1.5z" />
    <glyph glyph-name="Imacron" unicode="&#x12a;" horiz-adv-x="445" 
d="M89 812q8 0 55.5 -2t71.5 -2q28 0 83 2t65 2q17 0 17 -16t-6 -27t-16 -11q-24 0 -69.5 1.5t-68.5 1.5q-20 0 -72 -1.5t-65 -1.5q-18 0 -18 18q0 36 23 36zM64 -6q-7 0 -7 6t19 15q23 10 30 35q10 44 10 265q0 227 -10 265q-8 26 -30 37q-19 8 -19 14t7 6q3 0 29.5 -1.5
t63.5 -3.5t66 -2q28 0 65 2t63.5 3.5t29.5 1.5q7 0 7 -6t-19 -14q-28 -13 -33.5 -58t-5.5 -244q0 -227 10 -264q6 -26 29 -36q19 -9 19 -15t-7 -6q-3 0 -29.5 2t-63.5 3.5t-65 1.5q-29 0 -66 -1.5t-63.5 -3.5t-29.5 -2z" />
    <glyph glyph-name="imacron" unicode="&#x12b;" horiz-adv-x="360" 
d="M31 566q8 0 55.5 -2t71.5 -2q28 0 83 2t65 2q17 0 17 -16t-6 -27t-16 -11q-24 0 -69.5 1.5t-68.5 1.5q-20 0 -72 -1.5t-65 -1.5q-18 0 -18 18q0 36 23 36zM37 -7q-7 0 -7 6q0 2 0.5 3t2.5 2.5t3.5 2.5t5.5 3t7 4q26 13 32.5 43.5t6.5 115.5v38q0 68 -8.5 100t-29.5 45
q-19 13 -20 16q0 6 13 6q79 2 133.5 9.5t76 14.5t24.5 7q8 0 8 -7q0 -4 -4.5 -14.5t-7.5 -21.5q-7 -29 -7 -145v-37q0 -87 10.5 -122.5t42.5 -51.5q12 -6 12 -10q0 -7 -7 -7q-3 0 -28 1.5t-59 3.5t-59 2q-26 0 -58.5 -2t-56 -3.5t-26.5 -1.5z" />
    <glyph glyph-name="Iogonek" unicode="&#x12e;" horiz-adv-x="445" 
d="M369 15q19 -9 19 -15t-7 -6q-4 0 -24 1.5t-51 3t-57 2.5l-7 -8q-36 -37 -36 -73q0 -55 56 -72q22 -7 39 -5q6 0 6 -5q0 -4 -4 -7q-56 -42 -128 -42q-45 0 -68.5 20t-23.5 55q0 39 33 71t100 66q-28 0 -63.5 -1.5t-60.5 -3.5t-28 -2q-7 0 -7 6t19 15q23 10 30 35
q10 44 10 265q0 227 -10 265q-8 26 -30 37q-19 8 -19 14t7 6q3 0 29.5 -1.5t63.5 -3.5t66 -2q28 0 65 2t63.5 3.5t29.5 1.5q7 0 7 -6t-19 -14q-28 -13 -33.5 -58t-5.5 -244q0 -227 10 -264q6 -26 29 -36z" />
    <glyph glyph-name="iogonek" unicode="&#x12f;" horiz-adv-x="351" 
d="M163 448q-46 0 -75.5 26t-29.5 70q0 43 29.5 69.5t75.5 26.5q48 0 77 -26.5t29 -69.5t-29.5 -69.5t-76.5 -26.5zM314 9q12 -6 12 -10q0 -7 -7 -7q-3 0 -17.5 1t-37.5 2.5t-43 2.5l-14 -16q-36 -37 -36 -73q0 -55 56 -72q22 -7 39 -5q6 0 6 -5q0 -4 -4 -7
q-56 -42 -128 -42q-45 0 -68.5 20t-23.5 55q0 41 37 75t113 71h-25q-25 0 -58 -1.5t-56.5 -3.5t-26.5 -2q-7 0 -7 6q0 2 0.5 3t2.5 2.5t3.5 2.5t5.5 3t7 4q26 13 32.5 43.5t6.5 115.5v38q0 68 -8.5 100t-29.5 45q-19 13 -20 16q0 6 13 6q79 2 133.5 9.5t76 14.5t24.5 7
q8 0 8 -7q0 -4 -4.5 -14.5t-7.5 -21.5q-7 -29 -7 -145v-37q0 -87 10.5 -122.5t42.5 -51.5z" />
    <glyph glyph-name="Idotaccent" unicode="&#x130;" horiz-adv-x="445" 
d="M223 705q-32 0 -53 18.5t-21 48.5t21 48.5t53 18.5q33 0 53.5 -18.5t20.5 -48.5q0 -31 -20.5 -49t-53.5 -18zM64 -6q-7 0 -7 6t19 15q23 10 30 35q10 44 10 265q0 227 -10 265q-8 26 -30 37q-19 8 -19 14t7 6q3 0 29.5 -1.5t63.5 -3.5t66 -2q28 0 65 2t63.5 3.5t29.5 1.5
q7 0 7 -6t-19 -14q-28 -13 -33.5 -58t-5.5 -244q0 -227 10 -264q6 -26 29 -36q19 -9 19 -15t-7 -6q-3 0 -29.5 2t-63.5 3.5t-65 1.5q-29 0 -66 -1.5t-63.5 -3.5t-29.5 -2z" />
    <glyph glyph-name="dotlessi" unicode="&#x131;" horiz-adv-x="360" 
d="M37 -7q-7 0 -7 6q0 2 0.5 3t2.5 2.5t3.5 2.5t5.5 3t7 4q26 13 32.5 43.5t6.5 115.5v38q0 68 -8.5 100t-29.5 45q-19 13 -20 16q0 6 13 6q79 2 133.5 9.5t76 14.5t24.5 7q8 0 8 -7q0 -4 -4.5 -14.5t-7.5 -21.5q-7 -29 -7 -145v-37q0 -87 10.5 -122.5t42.5 -51.5
q12 -6 12 -10q0 -7 -7 -7q-3 0 -28 1.5t-59 3.5t-59 2q-26 0 -58.5 -2t-56 -3.5t-26.5 -1.5z" />
    <glyph glyph-name="IJ" unicode="&#x132;" horiz-adv-x="797" 
d="M81 293q-7 0 -7 6q0 5 19 15q16 4 22.5 8t11.5 22t5.5 42t0.5 79q0 76 -2.5 102.5t-9.5 35.5t-28 14q-19 8 -19 14t7 6q3 0 29.5 -1.5t63.5 -3.5t66 -2q26 0 59.5 2t57.5 3.5t27 1.5q7 0 7 -6t-19 -13q-16 -7 -20 -19q-5 -20 -5 -134q0 -99 3.5 -122t21.5 -30
q19 -8 19 -14t-7 -6q-3 0 -27 1.5t-58 3.5t-59 2q-29 0 -66 -2t-63.5 -3.5t-29.5 -1.5zM378 -15q-66 0 -118.5 12t-90 46t-37.5 86q0 42 26.5 70.5t65.5 28.5q34 0 54.5 -17.5t20.5 -42.5q0 -21 -19.5 -50t-19.5 -53q0 -27 25.5 -44t73.5 -17q60 0 93 51t33 147v266
q-1 77 -6.5 102t-28.5 47q-14 9 -14 14q0 6 7 6q3 0 28 -1.5t59.5 -3.5t61.5 -2q28 0 65 2t63.5 3.5t29.5 1.5q7 0 7 -6t-19 -14q-25 -16 -31.5 -42.5t-7.5 -108.5v-178q0 -83 -26.5 -144t-73 -94.5t-101.5 -49t-120 -15.5z" />
    <glyph glyph-name="ij" unicode="&#x133;" horiz-adv-x="665" 
d="M507 463q-46 0 -75.5 26t-29.5 70q0 43 29.5 69.5t75.5 26.5q48 0 77 -26.5t29 -69.5t-29.5 -69.5t-76.5 -26.5zM163 448q-46 0 -75.5 26t-29.5 70q0 43 29.5 69.5t75.5 26.5q48 0 77 -26.5t29 -69.5t-29.5 -69.5t-76.5 -26.5zM32 -8q-7 0 -7 6q0 2 0.5 3t2.5 2.5
t3.5 2.5t5.5 3t7 4q26 13 32.5 43.5t6.5 115.5v38q0 68 -8.5 100t-29.5 45q-19 13 -20 16q0 6 13 6q79 2 133.5 9.5t76 14.5t24.5 7q8 0 8 -7q0 -4 -4.5 -14.5t-7.5 -21.5q-7 -29 -7 -145v-37q0 -87 10.5 -122.5t42.5 -51.5q12 -6 12 -10q0 -7 -7 -7q-3 0 -28 2t-59 3.5
t-59 1.5t-58 -1.5t-56.5 -3.5t-26.5 -2zM415 -215q-46 0 -75 26t-30 65q-1 31 17.5 49t45.5 18t42 -14t22 -45q13 -63 47 -63q14 0 23.5 9.5t9.5 24.5q0 18 -13.5 41.5t-30.5 45.5t-30.5 59t-13.5 78v123q0 68 -8.5 100t-29.5 45q-19 13 -20 16q0 6 13 6q79 2 133.5 9.5
t76.5 14.5t25 7q8 0 8 -7q0 -4 -4.5 -14.5t-7.5 -21.5q-9 -36 -7 -145v-134q-1 -293 -193 -293z" />
    <glyph glyph-name="Kcommaaccent" unicode="&#x136;" horiz-adv-x="782" 
d="M751 27q21 -22 21 -26q0 -7 -9 -7q-1 0 -45 3t-69 3q-52 0 -126 -3t-76 -3q-6 0 -6 6q0 5 12 12q12 10 12 17q0 13 -28 87.5t-62 144.5q-9 15 -17 15t-28 -23l-17 -17q1 -139 7.5 -174.5t31.5 -46.5q19 -9 19 -15t-7 -6q-3 0 -29.5 2t-63.5 3.5t-65 1.5q-29 0 -66 -1.5
t-63.5 -3.5t-29.5 -2q-7 0 -7 6t19 15q23 10 30 35q10 44 10 265q0 227 -10 265q-8 26 -30 37q-19 8 -19 14t7 6q3 0 29.5 -1.5t63.5 -3.5t66 -2q28 0 65 2t63.5 3.5t29.5 1.5q7 0 7 -6t-19 -14q-28 -13 -33.5 -58t-5.5 -244v-60l139 148q42 44 65.5 90t23.5 70q0 35 -47 57
q-9 4 -9 9q0 7 10 7q3 0 29.5 -1.5t63 -3t63.5 -1.5q16 0 37 1.5t37 3t18 1.5q6 0 6 -6t-16 -10q-72 -16 -159 -108l-70 -74q63 -139 135 -254t112 -157zM373 -40q30 0 48.5 -20.5t18.5 -56.5q0 -37 -16 -65.5t-38.5 -42.5t-39 -20.5t-23.5 -6.5q-9 0 -9 8q0 6 9 8
q33 8 61 34.5t28 57.5q0 9 -7 9q-3 0 -14 -10t-25 -10q-21 0 -37.5 16t-16.5 41q0 26 17.5 42t43.5 16z" />
    <glyph glyph-name="kcommaaccent" unicode="&#x137;" horiz-adv-x="652" 
d="M622 19q4 -4 8.5 -7.5t6.5 -5t3.5 -3.5t1.5 -4q0 -6 -8 -6q-3 0 -20.5 1.5t-44 3.5t-51.5 2q-32 0 -86 -4l-55 -3q-7 0 -7 6q0 3 10.5 11.5t10.5 15.5q0 20 -85 148q-12 20 -19 20q-5 0 -12 -5l-8 -5q0 -95 6 -127t33 -44q4 -2 8.5 -3.5t6.5 -2t3 -2.5t1 -5q0 -7 -8 -7
q-5 0 -56 3.5t-83 3.5q-25 0 -57.5 -2t-56 -3.5t-26.5 -1.5q-8 0 -8 6q0 2 0.5 3.5t2 2.5l3 2t5 2.5t6.5 2.5q27 13 34.5 58.5t7.5 193.5v112q0 111 -8.5 145.5t-42.5 56.5q-2 2 -5 3.5t-4.5 2.5l-3 2t-2.5 2t-1.5 2t-1 2.5t-0.5 2.5q0 8 13 8q41 0 80 4.5t66.5 11.5t49 14
t33.5 11l11 5q6 0 6 -6q0 -1 -3 -16.5t-6 -52t-3 -88.5v-284q101 69 134 97.5t33 46.5t-32 33q-19 9 -19 13q0 5 7 5l41 -3q41 -4 61 -4q17 0 55 3t42 3q8 0 8 -6q0 -7 -37 -15q-41 -7 -126 -70l-14 -10q102 -155 202 -276zM358 -40q30 0 48.5 -20.5t18.5 -56.5
q0 -37 -16 -65.5t-38.5 -42.5t-39 -20.5t-23.5 -6.5q-9 0 -9 8q0 6 9 8q33 8 61 34.5t28 57.5q0 9 -7 9q-3 0 -14 -10t-25 -10q-21 0 -37.5 16t-16.5 41q0 26 17.5 42t43.5 16z" />
    <glyph glyph-name="Lacute" unicode="&#x139;" horiz-adv-x="682" 
d="M74 714q-4 0 -4 5q0 2 4 6q130 91 174 118t68 27q21 0 33 -11t12 -31q0 -21 -13 -34t-48 -25q-120 -37 -221 -54q-1 0 -2.5 -0.5t-2.5 -0.5zM198 630q34 0 73.5 2t66 3.5t30.5 1.5q7 0 7 -6q0 -5 -23 -14q-22 -10 -29 -36q-10 -43 -10 -280q0 -146 3 -192t12 -63
q15 -29 77 -29q172 0 222 260q2 16 11 16q7 0 6 -16q-21 -158 -21 -227q0 -16 4.5 -26t10 -13t10 -6t4.5 -6q0 -6 -7 -6q-1 0 -101.5 1.5t-182.5 1.5q-77 0 -194 -1.5t-120 -1.5q-7 0 -7 6q0 4 19 12q15 7 22 16t12 44t5.5 80.5t0.5 149.5q0 238 -10 278q-8 27 -30 38
q-19 8 -19 14t7 6q2 0 24.5 -1.5t57.5 -3.5t69 -2z" />
    <glyph glyph-name="lacute" unicode="&#x13a;" horiz-adv-x="364" 
d="M24 714q-4 0 -4 5q0 2 4 6q130 91 174 118t68 27q21 0 33 -11t12 -31q0 -21 -13 -34t-48 -25q-120 -37 -221 -54q-1 0 -2.5 -0.5t-2.5 -0.5zM42 -7q-7 0 -7 6q0 7 17 17q28 18 35 61t7 183v116q0 111 -8.5 145.5t-42.5 56.5q-2 2 -5 3.5t-4.5 2.5l-3 2t-2.5 2t-1.5 2
t-1 2.5t-0.5 2.5q0 8 13 8q41 0 80 4.5t66.5 11.5t49 14t32.5 11l12 5q6 0 6 -6q0 -1 -3 -16.5t-6 -52t-3 -88.5v-226q0 -129 8.5 -176t41.5 -69q17 -11 17 -16q0 -6 -7 -6l-57 3q-57 4 -92 4q-25 0 -58 -2t-56.5 -3.5t-26.5 -1.5z" />
    <glyph glyph-name="Lcommaaccent" unicode="&#x13b;" horiz-adv-x="682" 
d="M198 630q34 0 73.5 2t66 3.5t30.5 1.5q7 0 7 -6q0 -5 -23 -14q-22 -10 -29 -36q-10 -43 -10 -280q0 -146 3 -192t12 -63q15 -29 77 -29q172 0 222 260q2 16 11 16q7 0 6 -16q-21 -158 -21 -227q0 -16 4.5 -26t10 -13t10 -6t4.5 -6q0 -6 -7 -6q-1 0 -101.5 1.5t-182.5 1.5
q-77 0 -194 -1.5t-120 -1.5q-7 0 -7 6q0 4 19 12q15 7 22 16t12 44t5.5 80.5t0.5 149.5q0 238 -10 278q-8 27 -30 38q-19 8 -19 14t7 6q2 0 24.5 -1.5t57.5 -3.5t69 -2zM294 -252q-9 0 -9 8q0 6 9 8q33 8 61 34.5t28 57.5q0 9 -7 9q-3 0 -14 -10t-25 -10q-21 0 -37.5 16
t-16.5 41q0 26 17.5 42t43.5 16q30 0 48.5 -20.5t18.5 -56.5q0 -37 -16 -65.5t-38.5 -42.5t-39 -20.5t-23.5 -6.5z" />
    <glyph glyph-name="lcommaaccent" unicode="&#x13c;" horiz-adv-x="364" 
d="M42 -7q-7 0 -7 6q0 7 17 17q28 18 35 61t7 183v116q0 111 -8.5 145.5t-42.5 56.5q-2 2 -5 3.5t-4.5 2.5l-3 2t-2.5 2t-1.5 2t-1 2.5t-0.5 2.5q0 8 13 8q41 0 80 4.5t66.5 11.5t49 14t32.5 11l12 5q6 0 6 -6q0 -1 -3 -16.5t-6 -52t-3 -88.5v-226q0 -129 8.5 -176t41.5 -69
q17 -11 17 -16q0 -6 -7 -6l-57 3q-57 4 -92 4q-25 0 -58 -2t-56.5 -3.5t-26.5 -1.5zM142 -252q-9 0 -9 8q0 6 9 8q33 8 61 34.5t28 57.5q0 9 -7 9q-3 0 -14 -10t-25 -10q-21 0 -37.5 16t-16.5 41q0 26 17.5 42t43.5 16q30 0 48.5 -20.5t18.5 -56.5q0 -37 -16 -65.5
t-38.5 -42.5t-39 -20.5t-23.5 -6.5z" />
    <glyph glyph-name="Lcaron" unicode="&#x13d;" horiz-adv-x="682" 
d="M435 438q-9 0 -9 8q0 6 9 8q33 8 61 34.5t28 57.5q0 9 -7 9q-3 0 -14 -10t-25 -10q-21 0 -37.5 16t-16.5 41q0 26 17.5 42t43.5 16q30 0 48.5 -20.5t18.5 -56.5q0 -37 -16 -65.5t-38.5 -42.5t-39 -20.5t-23.5 -6.5zM198 630q34 0 73.5 2t66 3.5t30.5 1.5q7 0 7 -6
q0 -5 -23 -14q-22 -10 -29 -36q-10 -43 -10 -280q0 -146 3 -192t12 -63q15 -29 77 -29q172 0 222 260q2 16 11 16q7 0 6 -16q-21 -158 -21 -227q0 -16 4.5 -26t10 -13t10 -6t4.5 -6q0 -6 -7 -6q-1 0 -101.5 1.5t-182.5 1.5q-77 0 -194 -1.5t-120 -1.5q-7 0 -7 6q0 4 19 12
q15 7 22 16t12 44t5.5 80.5t0.5 149.5q0 238 -10 278q-8 27 -30 38q-19 8 -19 14t7 6q2 0 24.5 -1.5t57.5 -3.5t69 -2z" />
    <glyph glyph-name="lcaron" unicode="&#x13e;" horiz-adv-x="364" 
d="M42 -7q-7 0 -7 6q0 7 17 17q28 18 35 61t7 183v116q0 111 -8.5 145.5t-42.5 56.5q-2 2 -5 3.5t-4.5 2.5l-3 2t-2.5 2t-1.5 2t-1 2.5t-0.5 2.5q0 8 13 8q41 0 80 4.5t66.5 11.5t49 14t32.5 11l12 5q6 0 6 -6q0 -1 -3 -16.5t-6 -52t-3 -88.5v-226q0 -129 8.5 -176t41.5 -69
q17 -11 17 -16q0 -6 -7 -6l-57 3q-57 4 -92 4q-25 0 -58 -2t-56.5 -3.5t-26.5 -1.5zM347 428q-9 0 -9 8q0 6 9 8q33 8 61 34.5t28 57.5q0 9 -7 9q-3 0 -14 -10t-25 -10q-21 0 -37.5 16t-16.5 41q0 26 17.5 42t43.5 16q30 0 48.5 -20.5t18.5 -56.5q0 -37 -16 -65.5
t-38.5 -42.5t-39 -20.5t-23.5 -6.5z" />
    <glyph glyph-name="Ldot" unicode="&#x13f;" horiz-adv-x="682" 
d="M198 630q34 0 73.5 2t66 3.5t30.5 1.5q7 0 7 -6q0 -5 -23 -14q-22 -10 -29 -36q-10 -43 -10 -280q0 -146 3 -192t12 -63q15 -29 77 -29q172 0 222 260q2 16 11 16q7 0 6 -16q-21 -158 -21 -227q0 -16 4.5 -26t10 -13t10 -6t4.5 -6q0 -6 -7 -6q-1 0 -101.5 1.5t-182.5 1.5
q-77 0 -194 -1.5t-120 -1.5q-7 0 -7 6q0 4 19 12q15 7 22 16t12 44t5.5 80.5t0.5 149.5q0 238 -10 278q-8 27 -30 38q-19 8 -19 14t7 6q2 0 24.5 -1.5t57.5 -3.5t69 -2zM461 400q33 0 53 -18t20 -48t-20.5 -48t-52.5 -18q-31 0 -51.5 18t-20.5 48t20 48t52 18z" />
    <glyph glyph-name="ldot" unicode="&#x140;" horiz-adv-x="402" 
d="M42 -7q-7 0 -7 6q0 7 17 17q28 18 35 61t7 183v116q0 111 -8.5 145.5t-42.5 56.5q-2 2 -5 3.5t-4.5 2.5l-3 2t-2.5 2t-1.5 2t-1 2.5t-0.5 2.5q0 8 13 8q41 0 80 4.5t66.5 11.5t49 14t32.5 11l12 5q6 0 6 -6q0 -1 -3 -16.5t-6 -52t-3 -88.5v-226q0 -129 8.5 -176t41.5 -69
q17 -11 17 -16q0 -6 -7 -6l-57 3q-57 4 -92 4q-25 0 -58 -2t-56.5 -3.5t-26.5 -1.5zM369 400q33 0 53 -18t20 -48t-20.5 -48t-52.5 -18q-31 0 -51.5 18t-20.5 48t20 48t52 18z" />
    <glyph glyph-name="Lslash" unicode="&#x141;" horiz-adv-x="682" 
d="M623 50q0 -16 4.5 -26t10 -13t10 -6t4.5 -6q0 -6 -7 -6q-1 0 -101.5 1.5t-182.5 1.5q-77 0 -194 -1.5t-120 -1.5q-7 0 -7 6q0 4 19 12q15 7 22 16t11.5 39t5.5 73t1 133l-57 -22q-6 -3 -10 -3q-9 0 -9 11q0 6 8 9l68 27v7q0 238 -10 278q-8 27 -30 38q-19 8 -19 14t7 6
q2 0 24.5 -1.5t57.5 -3.5t69 -2t73.5 2t66 3.5t30.5 1.5q7 0 7 -6q0 -5 -23 -14q-18 -8 -25 -25.5t-10 -62.5t-4 -152l54 22q3 1 6 1q9 0 9 -11q0 -6 -8 -9l-61 -24v-55q0 -146 3 -192t12 -63q15 -29 77 -29q172 0 222 260q2 16 11 16q7 0 6 -16q-21 -158 -21 -227z" />
    <glyph glyph-name="lslash" unicode="&#x142;" horiz-adv-x="348" 
d="M322 15q17 -11 17 -16q0 -6 -7 -6l-57 3q-57 4 -92 4q-25 0 -58 -2t-56.5 -3.5t-26.5 -1.5q-7 0 -7 6q0 7 17 17q28 18 35 61t7 183v19l-55 -32q-9 -5 -15 3q-4 9 5 14l65 38v74q0 111 -8.5 145.5t-42.5 56.5q-2 2 -5 3.5t-4.5 2.5l-3 2t-2.5 2t-1.5 2t-1 2.5t-0.5 2.5
q0 8 13 8q41 0 80 4.5t66.5 11.5t49 14t32.5 11l12 5q6 0 6 -6q0 -1 -3 -16.5t-6 -52t-3 -88.5v-82l44 25q9 5 15 -3q4 -9 -5 -14l-54 -31v-121q0 -129 8.5 -176t41.5 -69z" />
    <glyph glyph-name="Nacute" unicode="&#x143;" horiz-adv-x="741" 
d="M245 714q-4 0 -4 5q0 2 4 6q130 91 174 118t68 27q21 0 33 -11t12 -31q0 -21 -13 -34t-48 -25q-120 -37 -221 -54q-1 0 -2.5 -0.5t-2.5 -0.5zM631 -26q-7 0 -21 12l-452 393q-18 17 -28 17q-7 0 -7 -12v-200q0 -82 20.5 -116t77.5 -55q18 -7 18 -13t-9 -6q-6 0 -53 3
t-60 3t-54.5 -3t-50.5 -3t-9 7q0 4 15 8q31 7 48 21.5t28.5 59t11.5 125.5v166q0 100 -6 141t-24 61q-12 13 -29.5 23t-28 15t-10.5 9q0 6 6 6l28 -3q28 -3 41 -3q20 0 41.5 3t27.5 3q13 0 38 -19q90 -69 246.5 -194t178.5 -146q3 -3 5 -3q3 0 3 4v168q0 79 -23 117.5
t-74 53.5q-19 5 -19 13q0 6 8 6q7 0 54 -3t60 -3q21 0 58.5 3t38.5 3q8 0 8 -6q0 -5 -16 -10q-43 -13 -60.5 -50t-17.5 -124v-457q0 -15 -9 -15z" />
    <glyph glyph-name="nacute" unicode="&#x144;" horiz-adv-x="645" 
d="M229 454q-5 0 -5 3q0 2 4 6q99 107 134 137.5t58 29.5q19 -1 30 -12t11 -29q0 -16 -11.5 -27.5t-39.5 -28.5q-68 -38 -176 -78q-2 -1 -5 -1zM605 14q16 -11 16 -15q0 -6 -7 -6q-11 0 -57 3.5t-75 3.5q-30 0 -76.5 -3.5t-47.5 -3.5q-7 0 -7 6q0 5 18 16q16 13 20 31t4 77
v189q0 58 -42 58q-38 0 -65 -49t-27 -136v-51q0 -70 5 -91.5t24 -29.5t19 -14t-7 -6q-2 0 -23 1.5t-51.5 3.5t-55.5 2t-57.5 -2t-56 -3.5t-26.5 -1.5q-7 0 -7 6q0 5 18 15q28 15 34 34.5t6 92.5v75q0 80 -6.5 103.5t-32.5 34.5q-18 8 -19 13q0 7 9 7q43 0 96 7.5t89.5 15
t38.5 7.5q7 0 7 -6q0 -2 -2 -18.5t-4.5 -45t-2.5 -57.5q28 127 151 127q87 0 126.5 -41t39.5 -129v-111q0 -59 5.5 -77t28.5 -32z" />
    <glyph glyph-name="Ncommaaccent" unicode="&#x145;" horiz-adv-x="741" 
d="M631 -26q-7 0 -21 12l-452 393q-18 17 -28 17q-7 0 -7 -12v-200q0 -82 20.5 -116t77.5 -55q18 -7 18 -13t-9 -6q-6 0 -53 3t-60 3t-54.5 -3t-50.5 -3t-9 7q0 4 15 8q31 7 48 21.5t28.5 59t11.5 125.5v166q0 100 -6 141t-24 61q-12 13 -29.5 23t-28 15t-10.5 9q0 6 6 6
l28 -3q28 -3 41 -3q20 0 41.5 3t27.5 3q13 0 38 -19q90 -69 246.5 -194t178.5 -146q3 -3 5 -3q3 0 3 4v168q0 79 -23 117.5t-74 53.5q-19 5 -19 13q0 6 8 6q7 0 54 -3t60 -3q21 0 58.5 3t38.5 3q8 0 8 -6q0 -5 -16 -10q-43 -13 -60.5 -50t-17.5 -124v-457q0 -15 -9 -15z
M314 -252q-9 0 -9 8q0 6 9 8q33 8 61 34.5t28 57.5q0 9 -7 9q-3 0 -14 -10t-25 -10q-21 0 -37.5 16t-16.5 41q0 26 17.5 42t43.5 16q30 0 48.5 -20.5t18.5 -56.5q0 -37 -16 -65.5t-38.5 -42.5t-39 -20.5t-23.5 -6.5z" />
    <glyph glyph-name="ncommaaccent" unicode="&#x146;" horiz-adv-x="645" 
d="M605 14q16 -11 16 -15q0 -6 -7 -6q-11 0 -57 3.5t-75 3.5q-30 0 -76.5 -3.5t-47.5 -3.5q-7 0 -7 6q0 5 18 16q16 13 20 31t4 77v189q0 58 -42 58q-38 0 -65 -49t-27 -136v-51q0 -70 5 -91.5t24 -29.5t19 -14t-7 -6q-2 0 -23 1.5t-51.5 3.5t-55.5 2t-57.5 -2t-56 -3.5
t-26.5 -1.5q-7 0 -7 6q0 5 18 15q28 15 34 34.5t6 92.5v75q0 80 -6.5 103.5t-32.5 34.5q-18 8 -19 13q0 7 9 7q43 0 96 7.5t89.5 15t38.5 7.5q7 0 7 -6q0 -2 -2 -18.5t-4.5 -45t-2.5 -57.5q28 127 151 127q87 0 126.5 -41t39.5 -129v-111q0 -59 5.5 -77t28.5 -32zM342 -40
q30 0 48.5 -20.5t18.5 -56.5q0 -37 -16 -65.5t-38.5 -42.5t-39 -20.5t-23.5 -6.5q-9 0 -9 8q0 6 9 8q33 8 61 34.5t28 57.5q0 9 -7 9q-3 0 -14 -10t-25 -10q-21 0 -37.5 16t-16.5 41q0 26 17.5 42t43.5 16z" />
    <glyph glyph-name="Ncaron" unicode="&#x147;" horiz-adv-x="741" 
d="M226 855q4 0 151 -63h2q145 63 151 63q7 0 7 -7q0 -16 -95 -112l-7 -7t-7 -7.5t-7 -6.5t-7.5 -5.5t-7 -4.5t-8.5 -4t-9 -2t-11 -1q-21 0 -31.5 6.5t-33.5 30.5q-94 97 -94 113q0 7 7 7zM631 -26q-7 0 -21 12l-452 393q-18 17 -28 17q-7 0 -7 -12v-200q0 -82 20.5 -116
t77.5 -55q18 -7 18 -13t-9 -6q-6 0 -53 3t-60 3t-54.5 -3t-50.5 -3t-9 7q0 4 15 8q31 7 48 21.5t28.5 59t11.5 125.5v166q0 100 -6 141t-24 61q-12 13 -29.5 23t-28 15t-10.5 9q0 6 6 6l28 -3q28 -3 41 -3q20 0 41.5 3t27.5 3q13 0 38 -19q90 -69 246.5 -194t178.5 -146
q3 -3 5 -3q3 0 3 4v168q0 79 -23 117.5t-74 53.5q-19 5 -19 13q0 6 8 6q7 0 54 -3t60 -3q21 0 58.5 3t38.5 3q8 0 8 -6q0 -5 -16 -10q-43 -13 -60.5 -50t-17.5 -124v-457q0 -15 -9 -15z" />
    <glyph glyph-name="ncaron" unicode="&#x148;" horiz-adv-x="645" 
d="M337 470q-36 0 -61 30q-15 18 -30 36.5t-24 29l-18 21t-13 15.5l-8 10t-5 8t-1 5q0 7 7 7q2 0 4.5 -1t8.5 -3.5t12 -6t18.5 -10.5t26 -14t36 -19.5t45.5 -25.5h4q23 13 45.5 25.5t36 19.5t26 14t18.5 10.5t12 6t8.5 3.5t4.5 1q7 0 7 -7q0 -2 -1 -5t-5 -8l-8 -10
t-13 -15.5l-18 -21t-24 -29t-30 -36.5q-24 -30 -61 -30zM605 14q16 -11 16 -15q0 -6 -7 -6q-11 0 -57 3.5t-75 3.5q-30 0 -76.5 -3.5t-47.5 -3.5q-7 0 -7 6q0 5 18 16q16 13 20 31t4 77v189q0 58 -42 58q-38 0 -65 -49t-27 -136v-51q0 -70 5 -91.5t24 -29.5t19 -14t-7 -6
q-2 0 -23 1.5t-51.5 3.5t-55.5 2t-57.5 -2t-56 -3.5t-26.5 -1.5q-7 0 -7 6q0 5 18 15q28 15 34 34.5t6 92.5v75q0 80 -6.5 103.5t-32.5 34.5q-18 8 -19 13q0 7 9 7q43 0 96 7.5t89.5 15t38.5 7.5q7 0 7 -6q0 -2 -2 -18.5t-4.5 -45t-2.5 -57.5q28 127 151 127q87 0 126.5 -41
t39.5 -129v-111q0 -59 5.5 -77t28.5 -32z" />
    <glyph glyph-name="Eng" unicode="&#x14a;" horiz-adv-x="819" 
d="M505 -215q-72 0 -123.5 30t-51.5 97q0 38 24 63t58 25q33 0 53 -19.5t20 -46.5q0 -22 -13.5 -49t-13.5 -38q0 -20 15 -32.5t39 -12.5q36 0 57.5 24t21.5 59q0 48 -21 88t-72 91q-122 122 -347 311q-9 9 -15 9q-7 0 -7 -12v-188q0 -69 27.5 -112t73.5 -59q18 -6 18 -13
q0 -6 -9 -6q-6 0 -54.5 3t-62.5 3t-56.5 -3t-51.5 -3t-9 7q0 4 16 9q48 8 69 42t21 133v186q0 113 -14.5 165t-67.5 79q-20 11 -20 15q0 7 7 7q2 0 30.5 -2.5t40.5 -2.5q6 0 26.5 2.5t27.5 2.5q14 0 42 -25q49 -40 152.5 -131.5t200.5 -179.5t112 -101q7 -6 10 -6q4 0 4 7
v245q0 90 -15.5 121t-73.5 50q-21 6 -21 13q0 6 9 6q2 0 20.5 -1.5t44 -3t43.5 -1.5q25 0 62 3.5t41 3.5q7 0 7 -6q0 -8 -19 -12q-31 -7 -45.5 -19t-23.5 -46t-10 -101v-385q0 -150 -44.5 -216.5t-131.5 -66.5z" />
    <glyph glyph-name="eng" unicode="&#x14b;" horiz-adv-x="620" 
d="M415 404q89 0 128 -44t39 -146v-136q-1 -293 -193 -293q-46 0 -75 26t-30 65q-1 31 17.5 49t45.5 18t42 -14t22 -45q13 -63 47 -63q14 0 23.5 9.5t9.5 24.5q0 18 -13.5 41.5t-30.5 45.5t-30.5 59t-13.5 78l1 212q0 41 -12 59t-40 18q-36 0 -64 -49t-28 -134l-1 1v-52
q0 -70 5 -91.5t24 -29.5t19 -14t-7 -6q-2 0 -23 1.5t-51.5 3.5t-55.5 2t-57.5 -2t-56 -3.5t-26.5 -1.5q-7 0 -7 6q0 5 18 15q28 15 34 34.5t6 92.5v75q0 80 -6.5 103.5t-32.5 34.5q-18 8 -19 13q0 7 9 7q43 0 96 7.5t89.5 15t38.5 7.5q7 0 7 -6q0 -2 -2 -18.5t-4.5 -45
t-2.5 -57.5h1q30 127 160 127z" />
    <glyph glyph-name="Omacron" unicode="&#x14c;" horiz-adv-x="794" 
d="M258 758q-18 0 -18 18q0 36 23 36q8 0 55.5 -2t71.5 -2q28 0 83 2t65 2q17 0 17 -16t-6 -27t-16 -11q-24 0 -69.5 1.5t-68.5 1.5q-20 0 -72 -1.5t-65 -1.5zM397 649q155 0 255.5 -91t100.5 -241q0 -149 -101 -240.5t-255 -91.5t-255 91.5t-101 240.5q0 150 100.5 241
t255.5 91zM397 -2q65 0 96 75.5t31 243.5q0 172 -31 245t-96 73t-96 -73t-31 -245q0 -168 31 -243.5t96 -75.5z" />
    <glyph glyph-name="omacron" unicode="&#x14d;" horiz-adv-x="568" 
d="M150 566q8 0 55.5 -2t71.5 -2q28 0 83 2t65 2q17 0 17 -16t-6 -27t-16 -11q-24 0 -69.5 1.5t-68.5 1.5q-20 0 -72 -1.5t-65 -1.5q-18 0 -18 18q0 36 23 36zM284 404q113 0 183.5 -57t70.5 -152t-70.5 -152t-183.5 -57t-183.5 57t-70.5 152t70.5 152t183.5 57zM284 0
q36 1 52 41.5t17 153.5q-1 113 -17 153.5t-52 41.5q-36 -1 -52 -41.5t-17 -153.5q1 -113 17 -153.5t52 -41.5z" />
    <glyph glyph-name="Ohungarumlaut" unicode="&#x150;" horiz-adv-x="794" 
d="M261 687q-3 -1 -5 2q0 3 3 6q80 116 106.5 145.5t48.5 29.5q18 0 29.5 -11t11.5 -30q0 -24 -44 -57q-47 -34 -145 -84q-2 -1 -5 -1zM417 689q0 3 3 7q74 109 103.5 141.5t52.5 32.5q19 0 31.5 -12.5t12.5 -30.5q0 -28 -36 -58q-54 -38 -156 -82q-1 -1 -5 -1q-5 0 -6 3z
M397 649q155 0 255.5 -91t100.5 -241q0 -149 -101 -240.5t-255 -91.5t-255 91.5t-101 240.5q0 150 100.5 241t255.5 91zM397 -2q65 0 96 75.5t31 243.5q0 172 -31 245t-96 73t-96 -73t-31 -245q0 -168 31 -243.5t96 -75.5z" />
    <glyph glyph-name="ohungarumlaut" unicode="&#x151;" horiz-adv-x="568" 
d="M148 447q-3 -1 -5 2q0 3 3 6q80 116 106.5 145.5t48.5 29.5q18 0 29.5 -11t11.5 -30q0 -24 -44 -57q-47 -34 -145 -84q-2 -1 -5 -1zM310 446q-4 0 -6 3q0 3 3 7q74 109 103.5 141.5t52.5 32.5q19 0 31.5 -12.5t12.5 -30.5q0 -28 -36 -58q-54 -38 -156 -82q-1 -1 -5 -1z
M284 404q113 0 183.5 -57t70.5 -152t-70.5 -152t-183.5 -57t-183.5 57t-70.5 152t70.5 152t183.5 57zM284 0q36 1 52 41.5t17 153.5q-1 113 -17 153.5t-52 41.5q-36 -1 -52 -41.5t-17 -153.5q1 -113 17 -153.5t52 -41.5z" />
    <glyph glyph-name="OE" unicode="&#x152;" horiz-adv-x="1041" 
d="M994 631q0 -4 -7 -7t-14.5 -13.5t-7.5 -30.5q0 -31 5 -73.5t10 -73.5t5 -33q0 -8 -6 -8q-7 0 -8 12q-71 216 -228 216q-33 0 -47 -20q-22 -30 -23 -227v1q0 -5 0.5 -14.5t1 -12t2.5 -7.5t5.5 -6.5t9 -2.5t14.5 -1q51 0 72.5 20t48.5 78q1 8 7 8q4 0 4 -7q0 -1 -1 -16.5
t-2 -41t-1 -51.5q0 -30 1 -54.5t2 -38t1 -15.5q0 -7 -4 -7q-3 0 -7 8q-27 58 -48.5 78t-72.5 20q-6 0 -10.5 -0.5t-8 -1.5t-6 -1.5t-4 -3.5t-2.5 -4t-1 -5.5t-0.5 -6.5t-0.5 -8v-9v1q1 -220 24 -245q14 -17 48 -17t66.5 14t64 45t56.5 88.5t36 136.5q1 16 10 16q5 0 5 -8
q0 -1 -5 -42.5t-10 -102t-5 -107.5q0 -16 4.5 -26t10 -13t10 -6t4.5 -6q0 -6 -6 -6q-10 0 -75 0.5t-157.5 1t-181.5 0.5q-39 1 -114.5 -4.5t-94.5 -5.5q-140 0 -231 91.5t-91 240.5q0 150 90.5 241t230.5 91q20 0 121 -16h231q74 0 173.5 2t100.5 2q6 0 6 -6zM447 47
q24 42 24 270q0 213 -21 267q-9 24 -31 37.5t-42 13.5q-63 0 -85.5 -69.5t-22.5 -248.5q0 -174 20.5 -246.5t74.5 -72.5q55 0 83 49z" />
    <glyph glyph-name="oe" unicode="&#x153;" horiz-adv-x="802" 
d="M767 122q7 0 7 -6q0 -4 -3 -14q-17 -50 -70.5 -83.5t-114.5 -33.5q-60 0 -94.5 14t-68.5 46q-67 -59 -173 -59q-92 0 -156 57.5t-64 151.5t64 151.5t156 57.5q106 0 172 -77q31 40 66 58.5t93 18.5q85 0 140.5 -46t55.5 -114q0 -46 -43 -46l-229 1v-12q0 -156 115 -156
q46 0 83.5 21t54.5 60q4 10 9 10zM271 0q22 0 35 16t19.5 59t6.5 120t-6.5 120t-19.5 59t-35 16q-33 0 -47 -39t-14 -156t14 -156t47 -39zM565 390q-33 0 -47 -36t-13 -130l87 1q16 0 19.5 6.5t3.5 36.5q0 68 -12.5 95t-37.5 27z" />
    <glyph glyph-name="Racute" unicode="&#x154;" horiz-adv-x="806" 
d="M264 714q-4 0 -4 5q0 2 4 6q130 91 174 118t68 27q21 0 33 -11t12 -31q0 -21 -13 -34t-48 -25q-120 -37 -221 -54q-1 0 -2.5 -0.5t-2.5 -0.5zM650 -37q-46 0 -97 25.5t-87 56t-75.5 56t-65.5 25.5q-10 0 -10 -13q2 -55 9.5 -73t27.5 -26q5 -2 10 -4.5t7.5 -3.5t4.5 -2
t3 -2.5t1 -3.5q0 -5 -7 -5q-3 0 -31.5 1.5t-67 3.5t-66.5 2q-29 0 -66 -2t-63.5 -3.5t-29.5 -1.5q-7 0 -7 6q0 5 19 15q23 10 30 35q10 46 10 266q0 229 -11 267q-7 24 -29 35q-19 8 -19 14t7 6q3 0 29.5 -1.5t63.5 -3.5t66 -2q40 0 105.5 4.5t71.5 4.5q153 0 241 -69.5
t88 -178.5q0 -119 -84 -191.5t-207 -72.5q-30 0 -74 6v-2q20 -2 112.5 -23t168.5 -21q115 0 139 89q1 5 4 5q6 0 11 -19t5 -43q0 -64 -38.5 -110t-98.5 -46zM354 141q69 0 100.5 60.5t31.5 189.5q0 122 -26 178t-80 56q-46 0 -57 -23q-8 -15 -9 -62t0 -225v-157
q0 -10 8 -13.5t32 -3.5z" />
    <glyph glyph-name="racute" unicode="&#x155;" horiz-adv-x="489" 
d="M157 454q-5 0 -5 3q0 2 4 6q99 107 134 137.5t58 29.5q19 -1 30 -12t11 -29q0 -16 -11.5 -27.5t-39.5 -28.5q-68 -38 -176 -78q-2 -1 -5 -1zM393 404q42 0 64 -23t22 -62t-18.5 -60.5t-50.5 -21.5q-25 0 -41.5 14t-21.5 31t-12 31t-17 14q-27 0 -42 -57.5t-16 -128.5v-30
q0 -48 11.5 -67t46.5 -31q19 -7 19 -13q0 -7 -8 -7q-4 0 -30.5 1.5t-63 3.5t-64.5 2q-25 0 -58 -2t-56.5 -3.5t-26.5 -1.5q-7 0 -7 6q0 5 19 15q27 12 33.5 33.5t6.5 78.5v132q0 47 -7 66t-32 30q-13 4 -16.5 6t-3.5 7q0 7 10 7q47 0 98.5 7.5t84 15t33.5 7.5q8 0 8 -7
q0 -1 -3 -21t-5.5 -58.5t-0.5 -86.5h1q13 79 51.5 126t92.5 47z" />
    <glyph glyph-name="Rcommaaccent" unicode="&#x156;" horiz-adv-x="806" 
d="M650 -37q-46 0 -97 25.5t-87 56t-75.5 56t-65.5 25.5q-10 0 -10 -13q2 -55 9.5 -73t27.5 -26q5 -2 10 -4.5t7.5 -3.5t4.5 -2t3 -2.5t1 -3.5q0 -5 -7 -5q-3 0 -31.5 1.5t-67 3.5t-66.5 2q-29 0 -66 -2t-63.5 -3.5t-29.5 -1.5q-7 0 -7 6q0 5 19 15q23 10 30 35
q10 46 10 266q0 229 -11 267q-7 24 -29 35q-19 8 -19 14t7 6q3 0 29.5 -1.5t63.5 -3.5t66 -2q40 0 105.5 4.5t71.5 4.5q153 0 241 -69.5t88 -178.5q0 -119 -84 -191.5t-207 -72.5q-30 0 -74 6v-2q20 -2 112.5 -23t168.5 -21q115 0 139 89q1 5 4 5q6 0 11 -19t5 -43
q0 -64 -38.5 -110t-98.5 -46zM354 141q69 0 100.5 60.5t31.5 189.5q0 122 -26 178t-80 56q-46 0 -57 -23q-8 -15 -9 -62t0 -225v-157q0 -10 8 -13.5t32 -3.5zM351 -252q-9 0 -9 8q0 6 9 8q33 8 61 34.5t28 57.5q0 9 -7 9q-3 0 -14 -10t-25 -10q-21 0 -37.5 16t-16.5 41
q0 26 17.5 42t43.5 16q30 0 48.5 -20.5t18.5 -56.5q0 -37 -16 -65.5t-38.5 -42.5t-39 -20.5t-23.5 -6.5z" />
    <glyph glyph-name="rcommaaccent" unicode="&#x157;" horiz-adv-x="489" 
d="M393 404q42 0 64 -23t22 -62t-18.5 -60.5t-50.5 -21.5q-25 0 -41.5 14t-21.5 31t-12 31t-17 14q-27 0 -42 -57.5t-16 -128.5v-30q0 -48 11.5 -67t46.5 -31q19 -7 19 -13q0 -7 -8 -7q-4 0 -30.5 1.5t-63 3.5t-64.5 2q-25 0 -58 -2t-56.5 -3.5t-26.5 -1.5q-7 0 -7 6
q0 5 19 15q27 12 33.5 33.5t6.5 78.5v132q0 47 -7 66t-32 30q-13 4 -16.5 6t-3.5 7q0 7 10 7q47 0 98.5 7.5t84 15t33.5 7.5q8 0 8 -7q0 -1 -3 -21t-5.5 -58.5t-0.5 -86.5h1q13 79 51.5 126t92.5 47zM247 -40q30 0 48.5 -20.5t18.5 -56.5q0 -37 -16 -65.5t-38.5 -42.5
t-39 -20.5t-23.5 -6.5q-9 0 -9 8q0 6 9 8q33 8 61 34.5t28 57.5q0 9 -7 9q-3 0 -14 -10t-25 -10q-21 0 -37.5 16t-16.5 41q0 26 17.5 42t43.5 16z" />
    <glyph glyph-name="Rcaron" unicode="&#x158;" horiz-adv-x="806" 
d="M244 855q4 0 151 -63h2q145 63 151 63q7 0 7 -7q0 -16 -95 -112l-7 -7t-7 -7.5t-7 -6.5t-7.5 -5.5t-7 -4.5t-8.5 -4t-9 -2t-11 -1q-21 0 -31.5 6.5t-33.5 30.5q-94 97 -94 113q0 7 7 7zM650 -37q-46 0 -97 25.5t-87 56t-75.5 56t-65.5 25.5q-10 0 -10 -13q2 -55 9.5 -73
t27.5 -26q5 -2 10 -4.5t7.5 -3.5t4.5 -2t3 -2.5t1 -3.5q0 -5 -7 -5q-3 0 -31.5 1.5t-67 3.5t-66.5 2q-29 0 -66 -2t-63.5 -3.5t-29.5 -1.5q-7 0 -7 6q0 5 19 15q23 10 30 35q10 46 10 266q0 229 -11 267q-7 24 -29 35q-19 8 -19 14t7 6q3 0 29.5 -1.5t63.5 -3.5t66 -2
q40 0 105.5 4.5t71.5 4.5q153 0 241 -69.5t88 -178.5q0 -119 -84 -191.5t-207 -72.5q-30 0 -74 6v-2q20 -2 112.5 -23t168.5 -21q115 0 139 89q1 5 4 5q6 0 11 -19t5 -43q0 -64 -38.5 -110t-98.5 -46zM354 141q69 0 100.5 60.5t31.5 189.5q0 122 -26 178t-80 56
q-46 0 -57 -23q-8 -15 -9 -62t0 -225v-157q0 -10 8 -13.5t32 -3.5z" />
    <glyph glyph-name="rcaron" unicode="&#x159;" horiz-adv-x="489" 
d="M265 470q-36 0 -61 30q-15 18 -30 36.5t-24 29l-18 21t-13 15.5l-8 10t-5 8t-1 5q0 7 7 7q2 0 4.5 -1t8.5 -3.5t12 -6t18.5 -10.5t26 -14t36 -19.5t45.5 -25.5h4q23 13 45.5 25.5t36 19.5t26 14t18.5 10.5t12 6t8.5 3.5t4.5 1q7 0 7 -7q0 -2 -1 -5t-5 -8l-8 -10
t-13 -15.5l-18 -21t-24 -29t-30 -36.5q-24 -30 -61 -30zM393 404q42 0 64 -23t22 -62t-18.5 -60.5t-50.5 -21.5q-25 0 -41.5 14t-21.5 31t-12 31t-17 14q-27 0 -42 -57.5t-16 -128.5v-30q0 -48 11.5 -67t46.5 -31q19 -7 19 -13q0 -7 -8 -7q-4 0 -30.5 1.5t-63 3.5t-64.5 2
q-25 0 -58 -2t-56.5 -3.5t-26.5 -1.5q-7 0 -7 6q0 5 19 15q27 12 33.5 33.5t6.5 78.5v132q0 47 -7 66t-32 30q-13 4 -16.5 6t-3.5 7q0 7 10 7q47 0 98.5 7.5t84 15t33.5 7.5q8 0 8 -7q0 -1 -3 -21t-5.5 -58.5t-0.5 -86.5h1q13 79 51.5 126t92.5 47z" />
    <glyph glyph-name="Sacute" unicode="&#x15a;" horiz-adv-x="655" 
d="M188 714q-4 0 -4 5q0 2 4 6q130 91 174 118t68 27q21 0 33 -11t12 -31q0 -21 -13 -34t-48 -25q-120 -37 -221 -54q-1 0 -2.5 -0.5t-2.5 -0.5zM67 -16q-7 0 -7 11q0 2 1.5 36.5t1.5 63.5q0 32 -2 62.5t-4 48.5t-2 20q0 8 7 8q6 0 11 -11q25 -51 48.5 -87t56.5 -69t75 -50
t93 -17q58 0 92.5 28.5t34.5 76.5t-33.5 75.5t-126.5 49.5l-51 12q-208 47 -208 201q0 96 76.5 148t179.5 52q52 0 96.5 -11.5t72.5 -23t41 -11.5t18.5 7t7.5 22q3 18 11 18t8 -9q0 -43 4 -91q2 -20 5 -47l5 -45t2 -20q0 -6 -7 -6t-10 9q-45 92 -104.5 143.5t-146.5 51.5
q-58 0 -88 -25t-30 -64q0 -41 30.5 -63t96.5 -38l89 -21q110 -26 161 -72.5t51 -133.5q0 -56 -25 -101t-66 -72t-89 -41t-99 -14q-68 0 -142 23t-85 23q-33 0 -40 -34q-3 -13 -10 -13z" />
    <glyph glyph-name="sacute" unicode="&#x15b;" horiz-adv-x="497" 
d="M136 454q-5 0 -5 3q0 2 4 6q99 107 134 137.5t58 29.5q19 -1 30 -12t11 -29q0 -16 -11.5 -27.5t-39.5 -28.5q-68 -38 -176 -78q-2 -1 -5 -1zM249 -15q-45 0 -104.5 16.5t-61.5 16.5q-7 0 -10.5 -4t-6.5 -16q-1 -9 -8 -9t-7 9v9.5t0.5 16t0.5 20.5q0 25 -5 61t-5 38
q0 7 6 7q5 0 9 -10q23 -69 74.5 -104.5t116.5 -35.5q38 0 59 15t21 42q0 24 -16.5 39t-67.5 27l-68 16q-72 18 -104 46.5t-32 83.5q0 65 56.5 100t140.5 35q36 0 72 -8.5t58.5 -17t26.5 -8.5q11 0 16 23q1 9 8 9q8 0 8 -10q0 -35 5 -64t10 -44t5 -16q0 -6 -6 -6t-11 9
q-30 57 -80 88t-103 31q-79 0 -79 -45q0 -22 17.5 -34t55.5 -20l86 -19q72 -16 107 -47.5t35 -83.5q0 -51 -36 -88t-84 -52.5t-99 -15.5z" />
    <glyph glyph-name="Scedilla" unicode="&#x15e;" horiz-adv-x="655" 
d="M344 -15h-14l-29 -40q72 -10 98.5 -30t26.5 -49q0 -32 -30.5 -49t-73.5 -17q-28 0 -48.5 6t-28.5 11.5t-8 8.5q0 6 6 6q1 0 7.5 -2t16 -4.5t17.5 -2.5q19 0 30.5 12.5t11.5 33.5q0 23 -10 34.5t-35 22.5q-6 2 -6 8q0 4 6 11l31 41q-55 4 -118.5 24.5t-76.5 20.5
q-33 0 -40 -34q-3 -13 -10 -13t-7 11q0 2 1.5 36.5t1.5 63.5q0 32 -2 62.5t-4 48.5t-2 20q0 8 7 8q6 0 11 -11q25 -51 48.5 -87t56.5 -69t75 -50t93 -17q58 0 92.5 28.5t34.5 76.5t-33.5 75.5t-126.5 49.5l-51 12q-208 47 -208 201q0 96 76.5 148t179.5 52q52 0 96.5 -11.5
t72.5 -23t41 -11.5t18.5 7t7.5 22q3 18 11 18t8 -9q0 -43 4 -91q2 -20 5 -47l5 -45t2 -20q0 -6 -7 -6t-10 9q-45 92 -104.5 143.5t-146.5 51.5q-58 0 -88 -25t-30 -64q0 -41 30.5 -63t96.5 -38l89 -21q110 -26 161 -72.5t51 -133.5q0 -56 -25 -101t-66 -72t-89 -41t-99 -14z
" />
    <glyph glyph-name="scedilla" unicode="&#x15f;" horiz-adv-x="497" 
d="M249 -15h-3l-29 -40q72 -10 98.5 -30t26.5 -49q0 -32 -30.5 -49t-73.5 -17q-28 0 -48.5 6t-28.5 11.5t-8 8.5q0 6 6 6q1 0 7.5 -2t16 -4.5t17.5 -2.5q19 0 30.5 12.5t11.5 33.5q0 23 -10 34.5t-35 22.5q-6 2 -6 8q0 4 6 11l30 41q-39 3 -89.5 17.5t-54.5 14.5
q-7 0 -10.5 -4t-6.5 -16q-1 -9 -8 -9t-7 9v9.5t0.5 16t0.5 20.5q0 25 -5 61t-5 38q0 7 6 7q5 0 9 -10q23 -69 74.5 -104.5t116.5 -35.5q38 0 59 15t21 42q0 24 -16.5 39t-67.5 27l-68 16q-72 18 -104 46.5t-32 83.5q0 65 56.5 100t140.5 35q36 0 72 -8.5t58.5 -17t26.5 -8.5
q11 0 16 23q1 9 8 9q8 0 8 -10q0 -35 5 -64t10 -44t5 -16q0 -6 -6 -6t-11 9q-30 57 -80 88t-103 31q-79 0 -79 -45q0 -22 17.5 -34t55.5 -20l86 -19q72 -16 107 -47.5t35 -83.5q0 -51 -36 -88t-84 -52.5t-99 -15.5z" />
    <glyph glyph-name="Scaron" unicode="&#x160;" horiz-adv-x="655" 
d="M168 855q4 0 151 -63h2q145 63 151 63q7 0 7 -7q0 -16 -95 -112l-7 -7t-7 -7.5t-7 -6.5t-7.5 -5.5t-7 -4.5t-8.5 -4t-9 -2t-11 -1q-21 0 -31.5 6.5t-33.5 30.5q-94 97 -94 113q0 7 7 7zM67 -16q-7 0 -7 11q0 2 1.5 36.5t1.5 63.5q0 32 -2 62.5t-4 48.5t-2 20q0 8 7 8
q6 0 11 -11q25 -51 48.5 -87t56.5 -69t75 -50t93 -17q58 0 92.5 28.5t34.5 76.5t-33.5 75.5t-126.5 49.5l-51 12q-208 47 -208 201q0 96 76.5 148t179.5 52q52 0 96.5 -11.5t72.5 -23t41 -11.5t18.5 7t7.5 22q3 18 11 18t8 -9q0 -43 4 -91q2 -20 5 -47l5 -45t2 -20
q0 -6 -7 -6t-10 9q-45 92 -104.5 143.5t-146.5 51.5q-58 0 -88 -25t-30 -64q0 -41 30.5 -63t96.5 -38l89 -21q110 -26 161 -72.5t51 -133.5q0 -56 -25 -101t-66 -72t-89 -41t-99 -14q-68 0 -142 23t-85 23q-33 0 -40 -34q-3 -13 -10 -13z" />
    <glyph glyph-name="scaron" unicode="&#x161;" horiz-adv-x="497" 
d="M91 632q2 0 4.5 -1t8.5 -3.5t12 -6t18.5 -10.5t26 -14t36 -19.5t45.5 -25.5h4q23 13 45.5 25.5t36 19.5t26 14t18.5 10.5t12 6t8.5 3.5t4.5 1q7 0 7 -7q0 -2 -1 -5t-5 -8l-8 -10t-13 -15.5l-18 -21t-24 -29t-30 -36.5q-24 -30 -61 -30q-36 0 -61 30q-15 18 -30 36.5
t-24 29l-18 21t-13 15.5l-8 10t-5 8t-1 5q0 7 7 7zM249 -15q-45 0 -104.5 16.5t-61.5 16.5q-7 0 -10.5 -4t-6.5 -16q-1 -9 -8 -9t-7 9v9.5t0.5 16t0.5 20.5q0 25 -5 61t-5 38q0 7 6 7q5 0 9 -10q23 -69 74.5 -104.5t116.5 -35.5q38 0 59 15t21 42q0 24 -16.5 39t-67.5 27
l-68 16q-72 18 -104 46.5t-32 83.5q0 65 56.5 100t140.5 35q36 0 72 -8.5t58.5 -17t26.5 -8.5q11 0 16 23q1 9 8 9q8 0 8 -10q0 -35 5 -64t10 -44t5 -16q0 -6 -6 -6t-11 9q-30 57 -80 88t-103 31q-79 0 -79 -45q0 -22 17.5 -34t55.5 -20l86 -19q72 -16 107 -47.5t35 -83.5
q0 -51 -36 -88t-84 -52.5t-99 -15.5z" />
    <glyph glyph-name="uni0162" unicode="&#x162;" horiz-adv-x="720" 
d="M199 -7q-7 0 -7 6t21 15q27 9 33.5 31t6.5 100v137q0 124 -2 189.5t-4.5 86t-8.5 29.5q-15 26 -53 26q-42 0 -70.5 -37t-63.5 -156q-5 -15 -11 -15t-6 9q0 1 1 23.5t1.5 60.5t0.5 78q0 25 -5.5 41.5t-5.5 17.5q0 7 7 7q3 0 12 -1t29.5 -3t52.5 -4t93 -3t140 -1t140 1
t93 3t52.5 4t29.5 3t12 1q7 0 7 -7q0 -1 -5.5 -17.5t-5.5 -41.5q0 -40 0.5 -78t1.5 -60.5t1 -23.5q0 -9 -6 -9t-11 15q-35 119 -63.5 156t-70.5 37q-38 0 -53 -26q-6 -9 -8.5 -29.5t-4.5 -86t-2 -189.5v-136q0 -79 6.5 -101t33.5 -31q21 -9 21 -15t-7 -6q-3 0 -34 1.5
t-70 3.5t-57 2t-57 -2t-70 -3.5t-34 -1.5zM351 -200q-28 0 -48.5 6t-28.5 11.5t-8 8.5q0 6 6 6q1 0 7.5 -2t16 -4.5t17.5 -2.5q19 0 30.5 12.5t11.5 33.5q0 23 -10 34.5t-35 22.5q-6 2 -6 8q0 4 6 11l38 51h19l-37 -51q72 -10 98.5 -30t26.5 -49q0 -32 -30.5 -49t-73.5 -17z
" />
    <glyph glyph-name="uni0163" unicode="&#x163;" horiz-adv-x="410" 
d="M240 -15h-7l-29 -40q72 -10 98.5 -30t26.5 -49q0 -32 -30.5 -49t-73.5 -17q-28 0 -48.5 6t-28.5 11.5t-8 8.5q0 6 6 6q1 0 7.5 -2t16 -4.5t17.5 -2.5q19 0 30.5 12.5t11.5 33.5q0 23 -10 34.5t-35 22.5q-6 2 -6 8q0 4 6 11l30 41q-73 5 -107.5 46t-34.5 130v166
q0 22 -5.5 29.5t-22.5 9.5l-17 2q-13 1 -13 11t13 11q80 6 123 40.5t84 118.5q6 11 13 11q8 0 8 -12l-1 -153q0 -7 6 -7l110 1q15 0 15 -14t-13 -14q-10 0 -24.5 0.5t-40 1t-47.5 0.5q-7 0 -7 -6l-2 -259q0 -66 57 -66q30 0 46.5 20t16.5 53q0 12 9 12t9 -13
q0 -52 -34.5 -86t-114.5 -34z" />
    <glyph glyph-name="Tcaron" unicode="&#x164;" horiz-adv-x="720" 
d="M208 855q4 0 151 -63h2q145 63 151 63q7 0 7 -7q0 -16 -95 -112l-7 -7t-7 -7.5t-7 -6.5t-7.5 -5.5t-7 -4.5t-8.5 -4t-9 -2t-11 -1q-21 0 -31.5 6.5t-33.5 30.5q-94 97 -94 113q0 7 7 7zM199 -7q-7 0 -7 6t21 15q27 9 33.5 31t6.5 100v137q0 124 -2 189.5t-4.5 86
t-8.5 29.5q-15 26 -53 26q-42 0 -70.5 -37t-63.5 -156q-5 -15 -11 -15t-6 9q0 1 1 23.5t1.5 60.5t0.5 78q0 25 -5.5 41.5t-5.5 17.5q0 7 7 7q3 0 12 -1t29.5 -3t52.5 -4t93 -3t140 -1t140 1t93 3t52.5 4t29.5 3t12 1q7 0 7 -7q0 -1 -5.5 -17.5t-5.5 -41.5q0 -40 0.5 -78
t1.5 -60.5t1 -23.5q0 -9 -6 -9t-11 15q-35 119 -63.5 156t-70.5 37q-38 0 -53 -26q-6 -9 -8.5 -29.5t-4.5 -86t-2 -189.5v-136q0 -79 6.5 -101t33.5 -31q21 -9 21 -15t-7 -6q-3 0 -34 1.5t-70 3.5t-57 2t-57 -2t-70 -3.5t-34 -1.5z" />
    <glyph glyph-name="tcaron" unicode="&#x165;" horiz-adv-x="410" 
d="M320 453q-8 0 -8 7q0 5 8 7q30 7 55 31t25 52q0 8 -6 8q-3 0 -12.5 -9t-22.5 -9q-20 0 -34.5 14.5t-14.5 37.5t15.5 37.5t39.5 14.5q27 0 43.5 -18.5t16.5 -51.5t-14.5 -58.5t-34.5 -38t-35 -18.5t-21 -6zM240 -15q-86 0 -127 40.5t-41 136.5v166q0 22 -5.5 29.5
t-22.5 9.5l-17 2q-13 1 -13 11t13 11q80 6 123 40.5t84 118.5q6 11 13 11q8 0 8 -12l-1 -153q0 -7 6 -7l110 1q15 0 15 -14t-13 -14q-10 0 -24.5 0.5t-40 1t-47.5 0.5q-7 0 -7 -6l-2 -259q0 -66 57 -66q30 0 46.5 20t16.5 53q0 12 9 12t9 -13q0 -52 -34.5 -86t-114.5 -34z
" />
    <glyph glyph-name="Tbar" unicode="&#x166;" horiz-adv-x="720" 
d="M694 635q0 -1 -5.5 -17.5t-5.5 -41.5q0 -40 0.5 -78t1.5 -60.5t1 -23.5q0 -9 -6 -9t-11 15q-35 119 -63.5 156t-70.5 37q-38 0 -53 -26q-14 -22 -15 -236h80q8 0 8 -12t-8 -12h-80v-45v-136q0 -79 6.5 -101t33.5 -31q21 -9 21 -15t-7 -6q-3 0 -34 1.5t-70 3.5t-57 2
t-57 -2t-70 -3.5t-34 -1.5q-7 0 -7 6t21 15q27 9 33.5 31t6.5 100v137v45h-76q-8 0 -8 12t8 12h76q-1 214 -15 236q-15 26 -53 26q-42 0 -70.5 -37t-63.5 -156q-5 -15 -11 -15t-6 9q0 1 1 23.5t1.5 60.5t0.5 78q0 25 -5.5 41.5t-5.5 17.5q0 7 7 7q3 0 12 -1t29.5 -3t52.5 -4
t93 -3t140 -1t140 1t93 3t52.5 4t29.5 3t12 1q7 0 7 -7z" />
    <glyph glyph-name="tbar" unicode="&#x167;" horiz-adv-x="414" 
d="M380 118q9 0 9 -13q0 -52 -34.5 -86t-114.5 -34q-86 0 -127 40.5t-41 136.5v65h-36q-8 0 -8 12t8 12h36v77q0 22 -5.5 29.5t-22.5 9.5l-17 2q-13 1 -13 11t13 11q80 6 123 40.5t84 118.5q6 11 13 11q8 0 8 -12l-1 -153q0 -7 6 -7l110 1q15 0 15 -14t-13 -14
q-10 0 -24.5 0.5t-40 1t-47.5 0.5q-7 0 -7 -6l-1 -107h101q8 0 8 -12t-8 -12h-101l-1 -128q0 -66 57 -66q30 0 46.5 20t16.5 53q0 12 9 12z" />
    <glyph glyph-name="Utilde" unicode="&#x168;" horiz-adv-x="726" 
d="M253 716q-8 0 -8 11q0 59 20.5 98.5t63.5 39.5q28 0 92 -24q59 -23 77 -23q27 0 36 40q2 11 11 11t9 -11q0 -52 -20 -91.5t-58 -39.5q-30 0 -85 21q-54 23 -78 23q-19 0 -30.5 -9.5t-18.5 -34.5q-2 -11 -11 -11zM378 -15q-147 0 -224.5 71t-77.5 238v210q0 57 -6 78.5
t-26 33.5q-3 2 -7 4t-5.5 3t-3.5 2.5t-2.5 2.5t-0.5 3q0 6 7 6q3 0 28 -1.5t60 -3.5t63 -2q29 0 66 2t63.5 3.5t29.5 1.5q7 0 7 -6q0 -2 -1 -3l-3 -3t-4.5 -3t-7.5 -4.5t-10 -6.5q-14 -9 -19.5 -18.5t-9.5 -39.5t-4 -88l-1 -231q0 -93 40 -140.5t116 -47.5q30 0 58.5 12
t55 38.5t42.5 77.5t16 120v208q0 59 -17.5 83.5t-60.5 34.5q-15 5 -15 11t7 6l36 -3q36 -4 60 -4q25 0 58.5 3.5t35.5 3.5q6 0 6 -6q0 -3 -3.5 -5t-12.5 -4.5t-13 -4.5q-33 -13 -45.5 -43t-12.5 -108v-178q0 -153 -69.5 -228t-192.5 -75z" />
    <glyph glyph-name="utilde" unicode="&#x169;" horiz-adv-x="623" 
d="M161 482q-8 0 -8 11q0 59 20.5 98.5t63.5 39.5q28 0 92 -24q59 -23 77 -23q27 0 36 40q2 11 11 11t9 -11q0 -52 -20 -91.5t-58 -39.5q-30 0 -85 21q-54 23 -78 23q-19 0 -30.5 -9.5t-18.5 -34.5q-2 -11 -11 -11zM593 27q13 -5 13 -11q0 -7 -9 -7q-43 0 -90 -5.5
t-77.5 -11t-32.5 -5.5q-10 0 -12 11q-9 26 -10 100q-25 -113 -143 -113q-79 0 -120.5 37t-41.5 127v134q0 41 -6.5 56.5t-25.5 23.5q-18 10 -19 14q0 6 10 6q39 0 90 4.5t87 8.5t38 4q10 0 10 -11q0 -2 -1.5 -11.5t-3 -34.5t-1.5 -64v-158q0 -92 48 -92q31 0 52 39.5
t22 108.5q-1 113 -5 144t-19 40q-3 2 -7.5 4.5t-6 4l-3 3t-1.5 4.5q0 6 10 6q35 0 84.5 4.5t86 8.5t39.5 4q7 0 7 -5q0 -1 -0.5 -7t-1.5 -17t-2.5 -27t-2 -41.5t-0.5 -55.5v-74q0 -84 7 -108.5t38 -37.5z" />
    <glyph glyph-name="Umacron" unicode="&#x16a;" horiz-adv-x="726" 
d="M262 817q8 0 55.5 -2t71.5 -2q28 0 83 2t65 2q17 0 17 -16t-6 -27t-16 -11q-24 0 -69.5 1.5t-68.5 1.5q-20 0 -72 -1.5t-65 -1.5q-18 0 -18 18q0 36 23 36zM378 -15q-147 0 -224.5 71t-77.5 238v210q0 57 -6 78.5t-26 33.5q-3 2 -7 4t-5.5 3t-3.5 2.5t-2.5 2.5t-0.5 3
q0 6 7 6q3 0 28 -1.5t60 -3.5t63 -2q29 0 66 2t63.5 3.5t29.5 1.5q7 0 7 -6q0 -2 -1 -3l-3 -3t-4.5 -3t-7.5 -4.5t-10 -6.5q-14 -9 -19.5 -18.5t-9.5 -39.5t-4 -88l-1 -231q0 -93 40 -140.5t116 -47.5q30 0 58.5 12t55 38.5t42.5 77.5t16 120v208q0 59 -17.5 83.5
t-60.5 34.5q-15 5 -15 11t7 6l36 -3q36 -4 60 -4q25 0 58.5 3.5t35.5 3.5q6 0 6 -6q0 -3 -3.5 -5t-12.5 -4.5t-13 -4.5q-33 -13 -45.5 -43t-12.5 -108v-178q0 -153 -69.5 -228t-192.5 -75z" />
    <glyph glyph-name="umacron" unicode="&#x16b;" horiz-adv-x="623" 
d="M168 512q-18 0 -18 18q0 36 23 36q8 0 55.5 -2t71.5 -2q28 0 83 2t65 2q17 0 17 -16t-6 -27t-16 -11q-24 0 -69.5 1.5t-68.5 1.5q-20 0 -72 -1.5t-65 -1.5zM593 27q13 -5 13 -11q0 -7 -9 -7q-43 0 -90 -5.5t-77.5 -11t-32.5 -5.5q-10 0 -12 11q-9 26 -10 100
q-25 -113 -143 -113q-79 0 -120.5 37t-41.5 127v134q0 41 -6.5 56.5t-25.5 23.5q-18 10 -19 14q0 6 10 6q39 0 90 4.5t87 8.5t38 4q10 0 10 -11q0 -2 -1.5 -11.5t-3 -34.5t-1.5 -64v-158q0 -92 48 -92q31 0 52 39.5t22 108.5q-1 113 -5 144t-19 40q-3 2 -7.5 4.5t-6 4l-3 3
t-1.5 4.5q0 6 10 6q35 0 84.5 4.5t86 8.5t39.5 4q7 0 7 -5q0 -1 -0.5 -7t-1.5 -17t-2.5 -27t-2 -41.5t-0.5 -55.5v-74q0 -84 7 -108.5t38 -37.5z" />
    <glyph glyph-name="Uring" unicode="&#x16e;" horiz-adv-x="726" 
d="M396 721q-43 0 -71.5 20.5t-28.5 52.5t28 52.5t72 20.5q45 0 72.5 -20.5t27.5 -52.5t-27.5 -52.5t-72.5 -20.5zM396 734q40 0 40 60t-40 60q-39 0 -39 -60t39 -60zM378 -15q-147 0 -224.5 71t-77.5 238v210q0 57 -6 78.5t-26 33.5q-3 2 -7 4t-5.5 3t-3.5 2.5t-2.5 2.5
t-0.5 3q0 6 7 6q3 0 28 -1.5t60 -3.5t63 -2q29 0 66 2t63.5 3.5t29.5 1.5q7 0 7 -6q0 -2 -1 -3l-3 -3t-4.5 -3t-7.5 -4.5t-10 -6.5q-14 -9 -19.5 -18.5t-9.5 -39.5t-4 -88l-1 -231q0 -93 40 -140.5t116 -47.5q30 0 58.5 12t55 38.5t42.5 77.5t16 120v208q0 59 -17.5 83.5
t-60.5 34.5q-15 5 -15 11t7 6l36 -3q36 -4 60 -4q25 0 58.5 3.5t35.5 3.5q6 0 6 -6q0 -3 -3.5 -5t-12.5 -4.5t-13 -4.5q-33 -13 -45.5 -43t-12.5 -108v-178q0 -153 -69.5 -228t-192.5 -75z" />
    <glyph glyph-name="uring" unicode="&#x16f;" horiz-adv-x="623" 
d="M307 493q-41 0 -67.5 21t-26.5 52q0 32 26.5 52.5t67.5 20.5q42 0 68 -20.5t26 -52.5t-26 -52.5t-68 -20.5zM307 626q-39 0 -39 -60t39 -60t39 60t-39 60zM593 27q13 -5 13 -11q0 -7 -9 -7q-43 0 -90 -5.5t-77.5 -11t-32.5 -5.5q-10 0 -12 11q-9 26 -10 100
q-25 -113 -143 -113q-79 0 -120.5 37t-41.5 127v134q0 41 -6.5 56.5t-25.5 23.5q-18 10 -19 14q0 6 10 6q39 0 90 4.5t87 8.5t38 4q10 0 10 -11q0 -2 -1.5 -11.5t-3 -34.5t-1.5 -64v-158q0 -92 48 -92q31 0 52 39.5t22 108.5q-1 113 -5 144t-19 40q-3 2 -7.5 4.5t-6 4l-3 3
t-1.5 4.5q0 6 10 6q35 0 84.5 4.5t86 8.5t39.5 4q7 0 7 -5q0 -1 -0.5 -7t-1.5 -17t-2.5 -27t-2 -41.5t-0.5 -55.5v-74q0 -84 7 -108.5t38 -37.5z" />
    <glyph glyph-name="Uhungarumlaut" unicode="&#x170;" horiz-adv-x="726" 
d="M254 715q-3 -1 -5 2q0 3 3 6q80 116 106.5 145.5t48.5 29.5q18 0 29.5 -11t11.5 -30q0 -24 -44 -57q-47 -34 -145 -84q-2 -1 -5 -1zM416 714q-4 0 -6 3q0 3 3 7q74 109 103.5 141.5t52.5 32.5q19 0 31.5 -12.5t12.5 -30.5q0 -28 -36 -58q-54 -38 -156 -82q-1 -1 -5 -1z
M378 -15q-147 0 -224.5 71t-77.5 238v210q0 57 -6 78.5t-26 33.5q-3 2 -7 4t-5.5 3t-3.5 2.5t-2.5 2.5t-0.5 3q0 6 7 6q3 0 28 -1.5t60 -3.5t63 -2q29 0 66 2t63.5 3.5t29.5 1.5q7 0 7 -6q0 -2 -1 -3l-3 -3t-4.5 -3t-7.5 -4.5t-10 -6.5q-14 -9 -19.5 -18.5t-9.5 -39.5
t-4 -88l-1 -231q0 -93 40 -140.5t116 -47.5q30 0 58.5 12t55 38.5t42.5 77.5t16 120v208q0 59 -17.5 83.5t-60.5 34.5q-15 5 -15 11t7 6l36 -3q36 -4 60 -4q25 0 58.5 3.5t35.5 3.5q6 0 6 -6q0 -3 -3.5 -5t-12.5 -4.5t-13 -4.5q-33 -13 -45.5 -43t-12.5 -108v-178
q0 -153 -69.5 -228t-192.5 -75z" />
    <glyph glyph-name="uhungarumlaut" unicode="&#x171;" horiz-adv-x="623" 
d="M171 447q-3 -1 -5 2q0 3 3 6q80 116 106.5 145.5t48.5 29.5q18 0 29.5 -11t11.5 -30q0 -24 -44 -57q-47 -34 -145 -84q-2 -1 -5 -1zM327 449q0 3 3 7q74 109 103.5 141.5t52.5 32.5q19 0 31.5 -12.5t12.5 -30.5q0 -28 -36 -58q-54 -38 -156 -82q-1 -1 -5 -1q-5 0 -6 3z
M593 27q13 -5 13 -11q0 -7 -9 -7q-43 0 -90 -5.5t-77.5 -11t-32.5 -5.5q-10 0 -12 11q-9 26 -10 100q-25 -113 -143 -113q-79 0 -120.5 37t-41.5 127v134q0 41 -6.5 56.5t-25.5 23.5q-18 10 -19 14q0 6 10 6q39 0 90 4.5t87 8.5t38 4q10 0 10 -11q0 -2 -1.5 -11.5t-3 -34.5
t-1.5 -64v-158q0 -92 48 -92q31 0 52 39.5t22 108.5q-1 113 -5 144t-19 40q-3 2 -7.5 4.5t-6 4l-3 3t-1.5 4.5q0 6 10 6q35 0 84.5 4.5t86 8.5t39.5 4q7 0 7 -5q0 -1 -0.5 -7t-1.5 -17t-2.5 -27t-2 -41.5t-0.5 -55.5v-74q0 -84 7 -108.5t38 -37.5z" />
    <glyph glyph-name="Uogonek" unicode="&#x172;" horiz-adv-x="726" 
d="M721 637q6 0 6 -6q0 -3 -3.5 -5t-12.5 -4.5t-13 -4.5q-33 -13 -45.5 -43t-12.5 -108v-178q0 -242 -173 -291l-3 -4q-36 -37 -36 -73q0 -55 56 -72q22 -7 39 -5q6 0 6 -5q0 -4 -4 -7q-56 -42 -128 -42q-45 0 -68.5 20t-23.5 55q0 64 105 122q-10 -1 -32 -1
q-147 0 -224.5 71t-77.5 238v210q0 57 -6 78.5t-26 33.5q-3 2 -7 4t-5.5 3t-3.5 2.5t-2.5 2.5t-0.5 3q0 6 7 6q3 0 28 -1.5t60 -3.5t63 -2q29 0 66 2t63.5 3.5t29.5 1.5q7 0 7 -6q0 -2 -1 -3l-3 -3t-4.5 -3t-7.5 -4.5t-10 -6.5q-14 -9 -19.5 -18.5t-9.5 -39.5t-4 -88
l-1 -231q0 -93 40 -140.5t116 -47.5q30 0 58.5 12t55 38.5t42.5 77.5t16 120v208q0 59 -17.5 83.5t-60.5 34.5q-15 5 -15 11t7 6l36 -3q36 -4 60 -4q25 0 58.5 3.5t35.5 3.5z" />
    <glyph glyph-name="uogonek" unicode="&#x173;" horiz-adv-x="623" 
d="M593 27q13 -5 13 -11q0 -7 -9 -7q-53 0 -123 -10l-1 -1q-36 -37 -36 -73q0 -55 56 -72q22 -7 39 -5q6 0 6 -5q0 -4 -4 -7q-56 -42 -128 -42q-45 0 -68.5 20t-23.5 55q0 63 103 121q-16 -3 -20 -3q-10 0 -12 11q-9 26 -10 100q-25 -113 -143 -113q-79 0 -120.5 37
t-41.5 127v134q0 41 -6.5 56.5t-25.5 23.5q-18 10 -19 14q0 6 10 6q39 0 90 4.5t87 8.5t38 4q10 0 10 -11q0 -2 -1.5 -11.5t-3 -34.5t-1.5 -64v-158q0 -92 48 -92q31 0 52 39.5t22 108.5q-1 113 -5 144t-19 40q-3 2 -7.5 4.5t-6 4l-3 3t-1.5 4.5q0 6 10 6q35 0 84.5 4.5
t86 8.5t39.5 4q7 0 7 -5q0 -1 -0.5 -7t-1.5 -17t-2.5 -27t-2 -41.5t-0.5 -55.5v-74q0 -84 7 -108.5t38 -37.5z" />
    <glyph glyph-name="Wcircumflex" unicode="&#x174;" horiz-adv-x="1116" 
d="M389 696q-7 0 -7 7q0 16 94 113q16 17 23 23t17 10t25 4q6 0 11.5 -1t11 -3.5t8.5 -4t9 -6.5t7.5 -6.5l8.5 -8.5l8 -8q95 -96 95 -112q0 -7 -7 -7q-6 0 -151 63h-2q-147 -63 -151 -63zM1099 635q9 0 9 -7t-8 -8q-47 -7 -70 -31t-45 -80l-210 -518q-3 -6 -9 -6t-8 6
l-206 511q-106 -305 -185 -512q-3 -6 -8 -6t-9 6q-94 232 -241 517q-26 52 -42 74t-34 30q-16 7 -20.5 10.5t-4.5 8.5t9 5q1 0 33 -1.5t77.5 -2.5t79.5 -1q37 0 106 2l69 3q9 0 9 -5q0 -6 -21 -13q-21 -6 -29 -15t-8 -25q0 -25 38 -135t70 -189q1 -3 2 -3t2 3q79 217 96 276
q-18 45 -26.5 60t-24.5 26q-4 3 -7.5 5t-5 3t-2.5 2.5t-1 4.5q0 5 9 5q3 0 29 -1.5t63.5 -2.5t67.5 -1q48 0 86 1t59 2.5t27 1.5q9 0 9 -5q0 -8 -21 -13q-24 -6 -34 -15t-10 -25q0 -17 21.5 -84t46.5 -140t29 -89q4 -13 5 -13t6 12q6 15 19.5 48t21.5 53t20.5 50t19.5 50
t14.5 41.5t11 36.5t3.5 23q0 21 -14.5 33.5t-46.5 20.5q-14 4 -14 10t7 6q3 0 36.5 -2.5t52.5 -2.5q26 0 64 2z" />
    <glyph glyph-name="wcircumflex" unicode="&#x175;" horiz-adv-x="748" 
d="M235 461q-7 0 -7 7q0 2 1 5t5 8l8 10t13 15.5l18 21t24 29t30 36.5q25 30 61 30q37 0 61 -30q15 -18 30 -36.5t24 -29l18 -21t13 -15.5l8 -10t5 -8t1 -5q0 -7 -7 -7q-2 0 -4.5 1t-8.5 3.5t-12 6t-18.5 10.5t-26 14t-36 19.5t-45.5 25.5h-4q-23 -13 -45.5 -25.5t-36 -19.5
t-26 -14t-18.5 -10.5t-12 -6t-8.5 -3.5t-4.5 -1zM231 -26q-5 0 -8 7l-129 282q-28 61 -40 81.5t-27 29.5q-5 3 -10.5 5.5t-7 3.5t-3 2.5t-1.5 4.5q0 7 8 7q2 0 20.5 -1.5t47 -3.5t53.5 -2q26 0 76 3l51 3q6 0 6 -7q0 -4 -12 -11q-21 -11 -21 -34q0 -37 57 -146l9 -16
q2 0 6 10l35 86q14 35 14 55q0 25 -24 43q-14 9 -14 14q0 7 7 7l46 -3q45 -4 67 -4q23 0 75 3l52 3q7 0 7 -7q0 -5 -15 -10q-21 -8 -21 -34q0 -19 22.5 -74t35.5 -80q5 -8 6 -8q2 0 9 17l28 65q22 52 22 72q0 22 -24 38q-14 10 -14 15q0 6 7 6q1 0 21.5 -3t32.5 -3
q11 0 23.5 1.5t21.5 3t10 1.5q9 0 9 -7q0 -5 -19 -13q-18 -9 -28 -23t-28 -56l-136 -316q-3 -7 -9 -7t-9 7q-26 59 -141 293q-3 6 -8 6t-8 -7l-120 -293q-3 -6 -8 -6z" />
    <glyph glyph-name="Ycircumflex" unicode="&#x176;" horiz-adv-x="700" 
d="M208 701q-7 0 -7 7q0 2 1 5t5 8l8 10t13 15.5l18 21t24 29t30 36.5q25 30 61 30q37 0 61 -30q15 -18 30 -36.5t24 -29l18 -21t13 -15.5l8 -10t5 -8t1 -5q0 -7 -7 -7q-2 0 -4.5 1t-8.5 3.5t-12 6t-18.5 10.5t-26 14t-36 19.5t-45.5 25.5h-4q-23 -13 -45.5 -25.5t-36 -19.5
t-26 -14t-18.5 -10.5t-12 -6t-8.5 -3.5t-4.5 -1zM189 -7q-7 0 -7 6q0 5 19 15q28 10 34 44t6 172q0 33 -10.5 60.5t-42.5 75.5l-97 148q-39 59 -54 78t-27 25q-18 8 -18 14q0 5 9 5q3 0 30.5 -1.5t67 -3t70.5 -1.5q26 0 60.5 1.5t59.5 3t28 1.5q7 0 7 -6q0 -5 -19 -13
q-21 -8 -21 -22q0 -18 34.5 -83.5t119.5 -212.5l71 132q40 74 40 124t-57 66q-10 3 -10 9t11 6q3 0 24 -1.5t49.5 -3t48.5 -1.5q14 0 43 3l29 3q9 0 9 -6q0 -7 -9 -10q-38 -12 -62 -36t-52 -75l-115 -211q-3 -5 -3 -14q0 -203 10 -237q6 -23 29 -33q19 -10 19 -15
q0 -6 -7 -6q-3 0 -29.5 1.5t-63.5 3.5t-65 2q-29 0 -66 -2t-63.5 -3.5t-29.5 -1.5z" />
    <glyph glyph-name="ycircumflex" unicode="&#x177;" horiz-adv-x="536" 
d="M138 461q-7 0 -7 7q0 2 1 5t5 8l8 10t13 15.5l18 21t24 29t30 36.5q25 30 61 30q37 0 61 -30q15 -18 30 -36.5t24 -29l18 -21t13 -15.5l8 -10t5 -8t1 -5q0 -7 -7 -7q-2 0 -4.5 1t-8.5 3.5t-12 6t-18.5 10.5t-26 14t-36 19.5t-45.5 25.5h-4q-23 -13 -45.5 -25.5t-36 -19.5
t-26 -14t-18.5 -10.5t-12 -6t-8.5 -3.5t-4.5 -1zM107 -93q17 0 45.5 -14t46.5 -14q23 0 39 21.5t16 53.5q0 21 -9 52t-19.5 57t-31 65.5t-32 59.5t-34.5 58.5t-26 44.5q-20 36 -33.5 52t-35.5 28l-8 4t-6 3.5t-4.5 2.5t-3.5 2l-2 2t-1.5 2t-0.5 3q0 7 9 7q3 0 23 -1.5
t51.5 -3.5t61.5 -2q29 0 85 3t57 3q8 0 8 -7q0 -5 -14 -11q-21 -8 -21 -33q0 -23 30 -91.5t46 -96.5q4 -6 6 -6q3 0 6 8q5 13 17.5 44t20 51t14 46t6.5 45q0 15 -9.5 22.5t-38.5 11.5q-19 4 -19 10q0 7 9 7q2 0 34.5 -3t51.5 -3q23 0 57 3l34 3q10 0 10 -7t-9 -9
q-48 -7 -72 -31t-47 -80l-127 -312q-32 -79 -69 -125.5t-87 -46.5q-32 0 -54.5 17.5t-22.5 47.5q0 27 15.5 42t37.5 15z" />
    <glyph glyph-name="Ydieresis" unicode="&#x178;" horiz-adv-x="700" 
d="M257 709q-31 0 -51 18t-20 48q0 28 19.5 46t51.5 18t52 -17.5t20 -46.5q0 -30 -20 -48t-52 -18zM466 709q-32 0 -52 18t-20 48q0 28 20 46t52 18t51.5 -18t19.5 -46q0 -30 -19.5 -48t-51.5 -18zM189 -7q-7 0 -7 6q0 5 19 15q28 10 34 44t6 172q0 33 -10.5 60.5
t-42.5 75.5l-97 148q-39 59 -54 78t-27 25q-18 8 -18 14q0 5 9 5q3 0 30.5 -1.5t67 -3t70.5 -1.5q26 0 60.5 1.5t59.5 3t28 1.5q7 0 7 -6q0 -5 -19 -13q-21 -8 -21 -22q0 -18 34.5 -83.5t119.5 -212.5l71 132q40 74 40 124t-57 66q-10 3 -10 9t11 6q3 0 24 -1.5t49.5 -3
t48.5 -1.5q14 0 43 3l29 3q9 0 9 -6q0 -7 -9 -10q-38 -12 -62 -36t-52 -75l-115 -211q-3 -5 -3 -14q0 -203 10 -237q6 -23 29 -33q19 -10 19 -15q0 -6 -7 -6q-3 0 -29.5 1.5t-63.5 3.5t-65 2q-29 0 -66 -2t-63.5 -3.5t-29.5 -1.5z" />
    <glyph glyph-name="Zacute" unicode="&#x179;" horiz-adv-x="702" 
d="M219 714q-4 0 -4 5q0 2 4 6q130 91 174 118t68 27q21 0 33 -11t12 -31q0 -21 -13 -34t-48 -25q-120 -37 -221 -54q-1 0 -2.5 -0.5t-2.5 -0.5zM34 -7q-7 0 -7 6q0 2 1 4t2 3t3 3.5t4 4.5q75 106 190 301q66 111 99 171t40.5 78.5t7.5 29.5q0 18 -44 19h-6
q-100 0 -150.5 -36t-103.5 -154q-5 -12 -12 -12t-7 8q0 2 5.5 29.5t10.5 66t5 65.5t-5 38.5t-5 12.5q0 6 7 6q1 0 103 -1.5t182 -1.5q54 0 121.5 1t113 1.5t46.5 0.5q7 0 7 -6q0 -3 -2 -4.5t-6.5 -4.5t-8.5 -8q-13 -16 -170 -299q-26 -47 -53.5 -96t-42.5 -75.5t-28.5 -50.5
t-18.5 -36t-5 -18q0 -22 31 -22q23 0 47 3q94 14 167.5 79.5t97.5 194.5q2 16 12 16q5 0 5 -8q0 -1 -5.5 -42.5t-10.5 -102t-5 -107.5q0 -11 1 -30t1 -20q0 -6 -7 -6q-1 0 -112.5 1t-189.5 1q-77 0 -189.5 -1.5t-115.5 -1.5z" />
    <glyph glyph-name="zacute" unicode="&#x17a;" horiz-adv-x="505" 
d="M160 454q-5 0 -5 3q0 2 4 6q99 107 134 137.5t58 29.5q19 -1 30 -12t11 -29q0 -16 -11.5 -27.5t-39.5 -28.5q-68 -38 -176 -78q-2 -1 -5 -1zM38 -3q-7 0 -7 6q0 3 18 32q16 25 125 183q9 14 21.5 31.5t19.5 27.5t15 22t12.5 19t8.5 14.5t5.5 12.5t1.5 9q0 19 -49 19
q-62 0 -86 -24q-29 -27 -64 -125q-4 -12 -10 -12q-7 0 -7 8q0 1 3.5 21.5t7 49t3.5 49.5q0 27 -5 38.5t-5 12.5q0 6 7 6q5 0 116 -1.5t189 -1.5q23 0 42 0.5t30.5 1t19 0.5h11.5l4 1q7 0 7 -6q0 -3 -25 -36q-24 -32 -102 -149q-100 -152 -100 -168q0 -19 37 -19q81 0 123 42
q34 35 48 104q4 19 12 19q6 0 6 -6q0 -2 -2.5 -22.5t-5.5 -49.5t-3 -52q0 -11 1 -30t1 -20q0 -6 -7 -6h-324h-61z" />
    <glyph glyph-name="Zdotaccent" unicode="&#x17b;" horiz-adv-x="702" 
d="M351 705q-32 0 -53 18.5t-21 48.5t21 48.5t53 18.5q33 0 53.5 -18.5t20.5 -48.5q0 -31 -20.5 -49t-53.5 -18zM34 -7q-7 0 -7 6q0 2 1 4t2 3t3 3.5t4 4.5q75 106 190 301q66 111 99 171t40.5 78.5t7.5 29.5q0 18 -44 19h-6q-100 0 -150.5 -36t-103.5 -154q-5 -12 -12 -12
t-7 8q0 2 5.5 29.5t10.5 66t5 65.5t-5 38.5t-5 12.5q0 6 7 6q1 0 103 -1.5t182 -1.5q54 0 121.5 1t113 1.5t46.5 0.5q7 0 7 -6q0 -3 -2 -4.5t-6.5 -4.5t-8.5 -8q-13 -16 -170 -299q-26 -47 -53.5 -96t-42.5 -75.5t-28.5 -50.5t-18.5 -36t-5 -18q0 -22 31 -22q23 0 47 3
q94 14 167.5 79.5t97.5 194.5q2 16 12 16q5 0 5 -8q0 -1 -5.5 -42.5t-10.5 -102t-5 -107.5q0 -11 1 -30t1 -20q0 -6 -7 -6q-1 0 -112.5 1t-189.5 1q-77 0 -189.5 -1.5t-115.5 -1.5z" />
    <glyph glyph-name="zdotaccent" unicode="&#x17c;" horiz-adv-x="505" 
d="M248 486q-37 0 -60.5 21t-23.5 56t23.5 56t60.5 21q38 0 61.5 -21t23.5 -56t-23.5 -56t-61.5 -21zM38 -3q-7 0 -7 6q0 3 18 32q16 25 125 183q9 14 21.5 31.5t19.5 27.5t15 22t12.5 19t8.5 14.5t5.5 12.5t1.5 9q0 19 -49 19q-62 0 -86 -24q-29 -27 -64 -125
q-4 -12 -10 -12q-7 0 -7 8q0 1 3.5 21.5t7 49t3.5 49.5q0 27 -5 38.5t-5 12.5q0 6 7 6q5 0 116 -1.5t189 -1.5q23 0 42 0.5t30.5 1t19 0.5h11.5l4 1q7 0 7 -6q0 -3 -25 -36q-24 -32 -102 -149q-100 -152 -100 -168q0 -19 37 -19q81 0 123 42q34 35 48 104q4 19 12 19
q6 0 6 -6q0 -2 -2.5 -22.5t-5.5 -49.5t-3 -52q0 -11 1 -30t1 -20q0 -6 -7 -6h-324h-61z" />
    <glyph glyph-name="Zcaron" unicode="&#x17d;" horiz-adv-x="702" 
d="M199 855q4 0 151 -63h2q145 63 151 63q7 0 7 -7q0 -16 -95 -112l-7 -7t-7 -7.5t-7 -6.5t-7.5 -5.5t-7 -4.5t-8.5 -4t-9 -2t-11 -1q-21 0 -31.5 6.5t-33.5 30.5q-94 97 -94 113q0 7 7 7zM34 -7q-7 0 -7 6q0 2 1 4t2 3t3 3.5t4 4.5q75 106 190 301q66 111 99 171t40.5 78.5
t7.5 29.5q0 18 -44 19h-6q-100 0 -150.5 -36t-103.5 -154q-5 -12 -12 -12t-7 8q0 2 5.5 29.5t10.5 66t5 65.5t-5 38.5t-5 12.5q0 6 7 6q1 0 103 -1.5t182 -1.5q54 0 121.5 1t113 1.5t46.5 0.5q7 0 7 -6q0 -3 -2 -4.5t-6.5 -4.5t-8.5 -8q-13 -16 -170 -299q-26 -47 -53.5 -96
t-42.5 -75.5t-28.5 -50.5t-18.5 -36t-5 -18q0 -22 31 -22q23 0 47 3q94 14 167.5 79.5t97.5 194.5q2 16 12 16q5 0 5 -8q0 -1 -5.5 -42.5t-10.5 -102t-5 -107.5q0 -11 1 -30t1 -20q0 -6 -7 -6q-1 0 -112.5 1t-189.5 1q-77 0 -189.5 -1.5t-115.5 -1.5z" />
    <glyph glyph-name="zcaron" unicode="&#x17e;" horiz-adv-x="505" 
d="M115 632q2 0 4.5 -1t8.5 -3.5t12 -6t18.5 -10.5t26 -14t36 -19.5t45.5 -25.5h4q23 13 45.5 25.5t36 19.5t26 14t18.5 10.5t12 6t8.5 3.5t4.5 1q7 0 7 -7q0 -2 -1 -5t-5 -8l-8 -10t-13 -15.5l-18 -21t-24 -29t-30 -36.5q-24 -30 -61 -30q-36 0 -61 30q-15 18 -30 36.5
t-24 29l-18 21t-13 15.5l-8 10t-5 8t-1 5q0 7 7 7zM38 -3q-7 0 -7 6q0 3 18 32q16 25 125 183q9 14 21.5 31.5t19.5 27.5t15 22t12.5 19t8.5 14.5t5.5 12.5t1.5 9q0 19 -49 19q-62 0 -86 -24q-29 -27 -64 -125q-4 -12 -10 -12q-7 0 -7 8q0 1 3.5 21.5t7 49t3.5 49.5
q0 27 -5 38.5t-5 12.5q0 6 7 6q5 0 116 -1.5t189 -1.5q23 0 42 0.5t30.5 1t19 0.5h11.5l4 1q7 0 7 -6q0 -3 -25 -36q-24 -32 -102 -149q-100 -152 -100 -168q0 -19 37 -19q81 0 123 42q34 35 48 104q4 19 12 19q6 0 6 -6q0 -2 -2.5 -22.5t-5.5 -49.5t-3 -52q0 -11 1 -30
t1 -20q0 -6 -7 -6h-324h-61z" />
    <glyph glyph-name="florin" unicode="&#x192;" horiz-adv-x="413" 
d="M252 617q-17 0 -27.5 -10t-10.5 -27t31 -80.5t36 -111.5q57 3 79 3q16 0 16 -14t-16 -14l-78 2v-1q0 -36 -5 -75.5t-32 -227.5q-22 -155 -70 -214t-124 -59q-51 0 -77 22t-27 57q0 24 17 40t42 16q26 0 38 -13.5t23 -45.5q7 -22 16 -33t25 -11q17 0 27.5 10t10.5 27
q0 15 -16 57.5t-31.5 102t-15.5 116.5q0 43 21 232q-23 -1 -45 -1q-13 0 -13 13t13 13q1 0 17 -0.5t30 -0.5q18 147 71 203.5t131 56.5q54 0 82 -19.5t29 -50.5q0 -28 -19 -46.5t-47 -18.5q-26 0 -38 13.5t-23 45.5q-13 44 -40 44z" />
    <glyph glyph-name="Ohorn" unicode="&#x1a0;" horiz-adv-x="794" 
d="M795 644q0 -44 -30 -75.5t-86 -31.5h-6q80 -88 80 -220q0 -149 -101 -240.5t-255 -91.5t-255 91.5t-101 240.5q0 150 100.5 241t255.5 91q152 0 249 -85q22 -5 39 -5q24 0 38.5 9t14.5 23q0 12 -15 21.5t-29.5 22t-14.5 33.5t15 33t36 12q30 0 47.5 -19.5t17.5 -49.5z
M397 -2q65 0 96 75.5t31 243.5q0 172 -31 245t-96 73t-96 -73t-31 -245q0 -168 31 -243.5t96 -75.5z" />
    <glyph glyph-name="ohorn" unicode="&#x1a1;" horiz-adv-x="568" 
d="M480 336q58 -55 58 -141q0 -95 -70.5 -152t-183.5 -57t-183.5 57t-70.5 152t70.5 152t183.5 57q105 0 175 -50q39 5 39 31q0 12 -15 21.5t-29.5 22.5t-14.5 33q0 21 15 33t36 12q30 0 47.5 -19.5t17.5 -49.5q0 -34 -19.5 -62.5t-55.5 -39.5zM284 0q36 1 52 41.5t17 153.5
q-1 113 -17 153.5t-52 41.5q-36 -1 -52 -41.5t-17 -153.5q1 -113 17 -153.5t52 -41.5z" />
    <glyph glyph-name="Uhorn" unicode="&#x1af;" horiz-adv-x="735" 
d="M389 -15q-151 0 -229.5 70.5t-78.5 238.5v209q0 57 -6 78.5t-26 33.5q-3 2 -7 4t-5.5 3t-3.5 2.5t-2.5 2.5t-0.5 3q0 6 7 6q3 0 28 -1.5t60 -3t63 -1.5q29 0 66 1.5t63.5 3t29.5 1.5q7 0 7 -6q0 -2 -1 -3l-3 -3t-4.5 -3t-7.5 -4.5t-10 -6.5q-19 -13 -25.5 -37.5
t-7.5 -108.5l-1 -236q0 -93 40 -140.5t116 -47.5q30 0 58.5 12.5t55 39.5t42.5 79t16 123v207q0 59 -17.5 83.5t-60.5 34.5q-15 5 -15 11t7 6l36 -3q36 -3 60 -3q48 0 77 10t29 27q0 12 -15 21t-29.5 22t-14.5 34t15 33t36 12q30 0 47.5 -20t17.5 -50q0 -67 -92 -103
q-33 -13 -45.5 -43t-12.5 -108v-159q0 -177 -66 -249t-190 -72z" />
    <glyph glyph-name="uhorn" unicode="&#x1b0;" horiz-adv-x="689" 
d="M549 311q-1 -18 -1 -64v-74q0 -84 7 -108.5t38 -37.5q13 -5 13 -11q0 -7 -9 -7q-43 0 -90 -5.5t-77.5 -11t-32.5 -5.5q-10 0 -12 11q-9 26 -10 100q-25 -113 -143 -113q-79 0 -120.5 37t-41.5 127v134q0 41 -6.5 56.5t-25.5 23.5q-18 10 -19 14q0 6 10 6q39 0 90 4.5
t87 8.5t38 4q10 0 10 -11q0 -2 -1.5 -11.5t-3 -34.5t-1.5 -64v-158q0 -92 48 -92q31 0 52 39.5t22 108.5q-1 113 -5 144t-19 40q-3 2 -7.5 4.5t-6 4l-3 3t-1.5 4.5q0 6 10 6q35 0 84.5 4.5t86 8.5t39.5 4q7 0 7 -5q0 -1 -1 -8t-2 -21.5t-2 -32.5q10 -3 28 -3q24 0 38.5 9
t14.5 23q0 12 -14.5 21.5t-29.5 22t-15 33.5t15 33t36 12q30 0 47.5 -19.5t17.5 -49.5q0 -44 -30 -75.5t-86 -31.5q-12 0 -23 3z" />
    <glyph glyph-name="uni01CD" unicode="&#x1cd;" horiz-adv-x="755" 
d="M213 856q4 0 151 -63h2q145 63 151 63q7 0 7 -7q0 -16 -95 -112l-7 -7t-7 -7.5t-7 -6.5t-7.5 -5.5t-7 -4.5t-8.5 -4t-9 -2t-11 -1q-21 0 -31.5 6.5t-33.5 30.5q-94 97 -94 113q0 7 7 7zM376 -6q-10 0 -10 6q0 2 0.5 3.5t2 2.5t3 1.5t5 1.5t6.5 2q49 13 49 44
q0 27 -35 140q-5 15 -24 16q-29 2 -121 2q-66 0 -80 -1q-14 0 -18 -10q-22 -67 -28 -93q-6 -27 -6 -41q0 -22 14.5 -34.5t50.5 -22.5q15 -4 15 -10q0 -7 -9 -7q-2 0 -41.5 3t-60.5 3q-16 0 -45 -3l-29 -3q-10 0 -10 7q0 8 9 9q32 5 52 30.5t44 92.5q137 384 151 429
q4 12 4 16t-25 12q-24 10 -26 15q0 7 13 8q58 3 119 12t96.5 16.5t36.5 7.5q7 0 7 -8q0 -3 -5 -10.5t-5 -14.5q0 -6 6 -25q18 -62 73.5 -215.5t99.5 -262.5q19 -47 33 -68t33 -30q26 -10 26 -16q0 -5 -9 -5q-4 0 -35 1.5t-75.5 3t-80.5 1.5q-33 0 -73 -1.5t-67.5 -3
t-30.5 -1.5zM261 236q99 0 108 2q10 1 10 10q0 4 -2 10l-94 284q-3 9 -6 9q-2 0 -6 -9l-98 -284q-4 -12 -4 -15q0 -5 8 -6q9 -1 84 -1z" />
    <glyph glyph-name="uni01CE" unicode="&#x1ce;" horiz-adv-x="575" 
d="M266 470q-36 0 -61 30q-15 18 -30 36.5t-24 29l-18 21t-13 15.5l-8 10t-5 8t-1 5q0 7 7 7q2 0 4.5 -1t8.5 -3.5t12 -6t18.5 -10.5t26 -14t36 -19.5t45.5 -25.5h4q23 13 45.5 25.5t36 19.5t26 14t18.5 10.5t12 6t8.5 3.5t4.5 1q7 0 7 -7q0 -2 -1 -5t-5 -8l-8 -10
t-13 -15.5l-18 -21t-24 -29t-30 -36.5q-24 -30 -61 -30zM566 85q8 0 8 -8q0 -45 -25.5 -68.5t-95.5 -23.5q-61 0 -95 23t-44 75q-30 -98 -159 -98q-58 0 -91.5 23.5t-33.5 70.5q0 36 22 61t64 40t86.5 22.5t106.5 12.5v83q0 51 -18 70.5t-55 19.5q-28 0 -43.5 -10.5
t-15.5 -25.5q0 -10 10 -30.5t10 -34.5q0 -24 -20.5 -40t-52.5 -16q-34 0 -53.5 17.5t-19.5 48.5q0 45 51.5 76t158.5 31q57 0 99.5 -9t77 -30t52 -59.5t17.5 -94.5v-142q0 -35 23 -35q26 0 26 43q0 8 10 8zM243 33q27 0 46.5 33t19.5 85v48l-8 -2q-60 -12 -80 -32
q-18 -17 -18 -61q0 -71 40 -71z" />
    <glyph glyph-name="uni01CF" unicode="&#x1cf;" horiz-adv-x="445" 
d="M71 855q4 0 151 -63h2q145 63 151 63q7 0 7 -7q0 -16 -95 -112l-7 -7t-7 -7.5t-7 -6.5t-7.5 -5.5t-7 -4.5t-8.5 -4t-9 -2t-11 -1q-21 0 -31.5 6.5t-33.5 30.5q-94 97 -94 113q0 7 7 7zM64 -6q-7 0 -7 6t19 15q23 10 30 35q10 44 10 265q0 227 -10 265q-8 26 -30 37
q-19 8 -19 14t7 6q3 0 29.5 -1.5t63.5 -3.5t66 -2q28 0 65 2t63.5 3.5t29.5 1.5q7 0 7 -6t-19 -14q-28 -13 -33.5 -58t-5.5 -244q0 -227 10 -264q6 -26 29 -36q19 -9 19 -15t-7 -6q-3 0 -29.5 2t-63.5 3.5t-65 1.5q-29 0 -66 -1.5t-63.5 -3.5t-29.5 -2z" />
    <glyph glyph-name="uni01D0" unicode="&#x1d0;" horiz-adv-x="360" 
d="M13 632q2 0 4.5 -1t8.5 -3.5t12 -6t18.5 -10.5t26 -14t36 -19.5t45.5 -25.5h4q23 13 45.5 25.5t36 19.5t26 14t18.5 10.5t12 6t8.5 3.5t4.5 1q7 0 7 -7q0 -2 -1 -5t-5 -8l-8 -10t-13 -15.5l-18 -21t-24 -29t-30 -36.5q-24 -30 -61 -30q-36 0 -61 30q-15 18 -30 36.5
t-24 29l-18 21t-13 15.5l-8 10t-5 8t-1 5q0 7 7 7zM37 -7q-7 0 -7 6q0 2 0.5 3t2.5 2.5t3.5 2.5t5.5 3t7 4q26 13 32.5 43.5t6.5 115.5v38q0 68 -8.5 100t-29.5 45q-19 13 -20 16q0 6 13 6q79 2 133.5 9.5t76 14.5t24.5 7q8 0 8 -7q0 -4 -4.5 -14.5t-7.5 -21.5
q-7 -29 -7 -145v-37q0 -87 10.5 -122.5t42.5 -51.5q12 -6 12 -10q0 -7 -7 -7q-3 0 -28 1.5t-59 3.5t-59 2q-26 0 -58.5 -2t-56 -3.5t-26.5 -1.5z" />
    <glyph glyph-name="uni01D1" unicode="&#x1d1;" horiz-adv-x="794" 
d="M397 698q-21 0 -31.5 6.5t-33.5 30.5q-94 97 -94 113q0 7 7 7q4 0 151 -63h2q145 63 151 63q7 0 7 -7q0 -16 -95 -112l-7 -7t-7 -7.5t-7 -6.5t-7.5 -5.5t-7 -4.5t-8.5 -4t-9 -2t-11 -1zM397 649q155 0 255.5 -91t100.5 -241q0 -149 -101 -240.5t-255 -91.5t-255 91.5
t-101 240.5q0 150 100.5 241t255.5 91zM397 -2q65 0 96 75.5t31 243.5q0 172 -31 245t-96 73t-96 -73t-31 -245q0 -168 31 -243.5t96 -75.5z" />
    <glyph glyph-name="uni01D2" unicode="&#x1d2;" horiz-adv-x="568" 
d="M131 632q2 0 4.5 -1t8.5 -3.5t12 -6t18.5 -10.5t26 -14t36 -19.5t45.5 -25.5h4q23 13 45.5 25.5t36 19.5t26 14t18.5 10.5t12 6t8.5 3.5t4.5 1q7 0 7 -7q0 -2 -1 -5t-5 -8l-8 -10t-13 -15.5l-18 -21t-24 -29t-30 -36.5q-24 -30 -61 -30q-36 0 -61 30q-15 18 -30 36.5
t-24 29l-18 21t-13 15.5l-8 10t-5 8t-1 5q0 7 7 7zM284 404q113 0 183.5 -57t70.5 -152t-70.5 -152t-183.5 -57t-183.5 57t-70.5 152t70.5 152t183.5 57zM284 0q36 1 52 41.5t17 153.5q-1 113 -17 153.5t-52 41.5q-36 -1 -52 -41.5t-17 -153.5q1 -113 17 -153.5t52 -41.5z
" />
    </font>
</defs>
</svg>
