<?xml version="1.0" standalone="no"?>
<!DOCTYPE svg PUBLIC "-//W3C//DTD SVG 1.1//EN" "http://www.w3.org/Graphics/SVG/1.1/DTD/svg11.dtd" >
<svg xmlns="http://www.w3.org/2000/svg" xmlns:xlink="http://www.w3.org/1999/xlink" version="1.1">
<metadata>
Created by FontForge 20170731 at Sun Nov  8 19:11:13 2015
 By Aleksey,,,
Copyright (c) 2015 by Rodrigo Saiani. All rights reserved.
</metadata>
<defs>
<font id="Tenez-Italic" horiz-adv-x="0" >
  <font-face 
    font-family="Tenez-Italic"
    font-weight="400"
    font-style="italic"
    font-stretch="normal"
    units-per-em="1000"
    panose-1="0 0 5 0 0 0 0 0 0 0"
    ascent="751"
    descent="-249"
    x-height="399"
    cap-height="634"
    bbox="-592 -381 1033 998"
    underline-thickness="50"
    underline-position="-150"
    slope="-10"
    unicode-range="U+0020-FB02"
  />
<missing-glyph horiz-adv-x="500" 
d="M410 720v-1000h-317v1000h317zM333 653h-165v-33h65v-37h-66v-33h166v33h-66v37h66v33zM267 524h-100v-104h166v34h-66v70zM233 490v-36h-33v36h33zM333 393h-166v-33h66v-37h-66v-33h100v70h66v33zM333 333h-33v-66h-133v-34h166v100zM333 211h-100v-56h34v23h33v-47
h-100v80h-33v-113h166v113zM333 38h-166v-113h166v113zM300 5v-47h-100v47h100zM333 -98h-166v-33h70l-70 -47v-33h166v33h-102l70 47h32v33z" />
    <glyph glyph-name="fi" unicode="fi" horiz-adv-x="447" 
d="M418 137q9 0 7 -8q-12 -76 -37.5 -107.5t-68.5 -31.5q-72 0 -72 70q0 38 32 166t32 136q0 7 -13 7q-15 0 -64.5 -1.5t-72.5 -1.5l-16 -96q-15 -118 -55 -249q-53 -200 -152 -200q-32 0 -52.5 16.5t-20.5 41.5q0 20 13 33.5t32 13.5q14 0 23.5 -7.5t9.5 -20.5
q0 -8 -6 -20.5t-6 -19.5q0 -19 24 -19q61 0 82 144q23 126 37 256q9 69 21 126q-15 0 -38 -0.5t-30 -0.5q-15 0 -15 14t14 14h11.5t28 -0.5t35.5 -0.5q61 250 193 250q32 0 50 -12t18 -33q0 -15 -9 -25.5t-25 -10.5q-23 0 -33 31q-7 27 -31 27q-25 0 -45 -25
q-14 -19 -25.5 -61t-28.5 -141q61 0 90 1q37 0 67.5 3t47.5 6.5t20 3.5q6 0 5 -6q0 -2 -4.5 -13t-11 -27.5t-9.5 -30.5q-5 -22 -12.5 -52.5t-11.5 -46.5t-9 -38t-7.5 -33.5t-6 -26.5t-5 -23.5t-3 -18.5t-2 -17t-0.5 -13q0 -41 32 -41q27 0 40.5 26t25.5 84q1 9 7 9z" />
    <glyph glyph-name="fl" unicode="fl" horiz-adv-x="472" 
d="M442 137q9 0 7 -8q-12 -76 -38 -107.5t-69 -31.5q-70 0 -70 75q0 14 8 54l81 375q6 29 6 58q0 37 -19.5 56t-52.5 19q-75 0 -102 -71q-23 -45 -35 -168q22 1 59.5 2.5t42.5 1.5q18 0 18 -15t-24 -15q-4 0 -39.5 1.5t-59.5 1.5q-9 -79 -14 -113q-31 -238 -85 -352
q-48 -114 -123 -114q-34 0 -54.5 16.5t-20.5 41.5q0 19 13 33t32 14q15 0 24.5 -7.5t9.5 -20.5q0 -8 -6.5 -20.5t-6.5 -19.5q0 -20 24 -20q23 0 42.5 26.5t29.5 75.5q17 57 45 293q14 114 24 167l-70 -2q-13 0 -13 13q0 15 13 15q1 0 12.5 -0.5t29 -1.5t32.5 -1
q25 121 72 188.5t132 67.5q29 0 67 -9t44 -9q16 0 34 11.5t21 11.5q5 0 5 -6q0 -4 -4 -17.5t-13.5 -48.5t-19.5 -79l-88 -398q-6 -36 -6 -45q0 -37 30 -37q24 0 40.5 22.5t27.5 87.5q1 9 7 9z" />
    <glyph glyph-name="T_h.liga" unicode="Th" horiz-adv-x="926" 
d="M889 78q8 0 6 -8q-13 -80 -86 -80q-34 0 -53 18.5t-19 52.5q0 30 30.5 131.5t30.5 130.5q0 59 -56 59q-97 0 -149 -212l-34 -160q-4 -16 -40 -16q-18 0 -24.5 3t-5.5 11q1 7 20 92l74 349q14 74 14 95q0 37 -20 54.5t-70 17.5q-70 0 -86 -19q-9 -10 -20.5 -59t-53.5 -256
l-33 -162q-12 -66 -6.5 -81t43.5 -28q11 -4 11 -9q0 -8 -8 -8l-40 2q-40 3 -61 3t-63 -3l-42 -2q-5 0 -5 6q0 4 2.5 6t12.5 5q40 9 51 25.5t25 83.5l33 162q42 211 50 258t2 57q-10 19 -69 19q-31 0 -47.5 -4t-33.5 -21.5t-30.5 -47.5t-33.5 -89q-6 -16 -12 -16q-5 0 -5 8
q0 2 15 76t15 82q0 9 -2.5 17.5t-2.5 10.5q0 8 8 8q2 0 9 -1t23 -2.5t41 -3t73 -2.5t109 -1q72 0 130.5 2t91 5t54 5.5t32.5 4.5t14 2q4 0 4 -5q0 -3 -4 -12.5t-10.5 -29.5t-11.5 -44l-58 -271q53 117 147 117q45 0 73 -26t28 -69q0 -35 -29.5 -133t-29.5 -126q0 -33 30 -33
q29 0 43 52q3 9 9 9z" />
    <glyph glyph-name="f_b.liga" unicode="fb" horiz-adv-x="682" 
d="M523 404q53 0 87.5 -38.5t34.5 -108.5q0 -112 -65.5 -192t-157.5 -80q-71 0 -105.5 34.5t-34.5 92.5q0 14 8 52q7 35 27.5 128.5t35 166t14.5 93.5q0 37 -19.5 56t-52.5 19q-75 0 -102 -71q-23 -45 -35 -168q22 1 59.5 2.5t42.5 1.5q18 0 18 -15t-24 -15q-4 0 -39.5 1.5
t-59.5 1.5q-9 -79 -14 -113q-31 -238 -85 -352q-48 -114 -123 -114q-34 0 -54.5 16.5t-20.5 41.5q0 19 13 33t32 14q15 0 24.5 -7.5t9.5 -20.5q0 -8 -6.5 -20.5t-6.5 -19.5q0 -20 24 -20q23 0 42.5 26.5t29.5 75.5q17 57 45 293q14 114 24 167l-70 -2q-13 0 -13 13
q0 15 13 15q1 0 12.5 -0.5t29 -1.5t32.5 -1q25 121 72 188.5t132 67.5q29 0 67 -9t44 -9q16 0 34 11.5t21 11.5q5 0 5 -6q0 -2 -4 -13.5t-11 -31.5t-11 -39l-47 -223h4q45 68 124 68zM525 63q23 35 38.5 93t15.5 109q0 65 -18.5 93t-57.5 28q-31 0 -58.5 -21t-44.5 -49
q-16 -29 -33.5 -113t-17.5 -118q0 -84 74 -84q59 0 102 62z" />
    <glyph glyph-name="f_f.liga" unicode="ff" horiz-adv-x="481" 
d="M513 640q26 0 41.5 -11.5t15.5 -30.5q0 -15 -8 -25t-24 -10q-22 0 -26 26q-1 10 -2 14.5t-6 9.5t-14 5q-27 0 -42 -34q-4 -7 -7 -17t-6 -28t-6 -34.5t-8 -51t-10 -63.5l70 2q19 0 19 -14q0 -16 -22 -16l-71 2q-5 -36 -15 -88q-29 -185 -67 -262q-26 -92 -61.5 -137
t-85.5 -45q-32 0 -53 17t-21 41q0 19 12.5 33t32.5 14q14 0 23.5 -7.5t9.5 -20.5q0 -8 -6.5 -20.5t-6.5 -19.5q0 -20 26 -20q64 0 87 151q16 88 36 236q9 70 21 128q-32 1 -87 1h-80q0 -2 -8 -49.5t-13 -77.5q-29 -189 -67 -271q-52 -182 -151 -182q-33 0 -54 17t-21 41
q0 19 13 33t32 14q14 0 23.5 -8t9.5 -20q0 -8 -6 -20.5t-6 -19.5q0 -20 26 -20q32 0 55.5 37.5t34.5 114.5q6 34 36 241q17 106 31 169h-30.5h-24.5l-10 -1q-14 0 -14 14t17 14q1 0 10.5 -0.5t25.5 -0.5h32q26 107 64 161t94 54q26 0 41.5 -11.5t15.5 -30.5q0 -15 -8 -25
t-24 -10q-23 0 -26 26q-2 14 -6 21t-16 7q-28 0 -42 -33q-4 -7 -6.5 -15.5t-5.5 -24.5t-5 -28.5t-6.5 -42t-7.5 -49.5q30 -1 78 -1q57 0 91 1q27 124 67.5 187.5t101.5 63.5z" />
    <glyph glyph-name="f_f_b.liga" unicode="ffb" horiz-adv-x="931" 
d="M772 404q54 0 88.5 -38.5t34.5 -108.5q0 -112 -66 -192t-157 -80q-71 0 -105.5 34t-34.5 93q0 18 7 52q6 32 27.5 128t36 167.5t14.5 92.5l50 45l-50 -44q-1 36 -19.5 55t-51.5 19q-75 0 -102 -68q-21 -41 -36 -169l111 2q18 0 18 -14q0 -16 -20 -16l-111 2
q-2 -16 -5.5 -45t-5.5 -41q-29 -219 -80 -328q-49 -111 -125 -111q-35 0 -55.5 15.5t-20.5 40.5q0 18 12.5 31.5t31.5 13.5q15 0 24.5 -7.5t9.5 -20.5q0 -8 -6 -19.5t-6 -17.5q0 -20 24 -20t44 25t30 72q7 24 14 61.5t10 64t9.5 82.5t8.5 74q9 77 19 131h-71h-96l-21 -127
q-29 -189 -67 -271q-52 -182 -151 -182q-33 0 -54 17t-21 41q0 19 13 33t32 14q14 0 23.5 -8t9.5 -20q0 -8 -6 -20.5t-6 -19.5q0 -20 26 -20q32 0 55.5 37.5t34.5 114.5q6 34 36 241q16 101 31 169h-32.5h-26.5l-10 -1q-14 0 -14 14t17 14q1 0 11.5 -0.5t27 -0.5h33.5
q27 108 64.5 161.5t93.5 53.5q26 0 41.5 -11.5t15.5 -30.5q0 -15 -8 -25t-24 -10q-23 0 -26 26q-2 14 -6 21t-16 7q-28 0 -42 -33q-4 -7 -6.5 -15.5t-5.5 -24.5t-5 -28.5t-6.5 -42t-7.5 -49.5q36 -1 95 -1q45 0 73 1q25 120 72 187.5t133 67.5q29 0 66.5 -9t44.5 -9
q15 0 32.5 11t20.5 11q4 0 6 -5v-1h-1q0 -3 -4.5 -15t-10.5 -31t-10 -37l-47 -223h3q47 68 124 68zM774 63q23 35 39 93t16 109q0 65 -18.5 93t-57.5 28q-60 0 -103 -70q-17 -28 -34 -112t-17 -119q0 -84 74 -84q60 0 101 62z" />
    <glyph glyph-name="f_f_h.liga" unicode="ffh" horiz-adv-x="947" 
d="M912 101q7 0 6 -9q-12 -53 -35.5 -77.5t-61.5 -24.5q-71 0 -71 71q0 30 30 131.5t30 130.5q0 59 -56 59q-99 0 -151 -219l-34 -158q-3 -16 -35 -16q-35 0 -35 14q0 3 20 91l86 397q7 35 7 62q0 36 -19 55t-52 19q-75 0 -102 -68q-22 -43 -35 -169l92 2q19 0 19 -14
q0 -16 -22 -16l-92 2q-2 -23 -11 -87q-29 -224 -81 -327q-47 -112 -124 -112q-35 0 -55.5 16t-20.5 41q0 18 12.5 31t31.5 13q15 0 24.5 -7.5t9.5 -20.5q0 -7 -6 -19t-6 -18q0 -20 24 -20t44 25.5t31 72.5q7 24 13.5 61t10 64t9.5 82.5t8 74.5q13 94 19 131h-71h-91
l-21 -127q-29 -189 -67 -271q-52 -182 -151 -182q-33 0 -54 17t-21 41q0 19 13 33t32 14q14 0 23.5 -8t9.5 -20q0 -8 -6 -20.5t-6 -19.5q0 -20 26 -20q32 0 55.5 37.5t34.5 114.5q6 34 36 241q16 101 31 169h-27.5h-21.5l-8 -1q-14 0 -14 14t17 14q1 0 9.5 -0.5t22.5 -0.5
h28q27 108 64.5 161.5t93.5 53.5q26 0 41.5 -11.5t15.5 -30.5q0 -15 -8 -25t-24 -10q-23 0 -26 26q-2 14 -6 21t-16 7q-28 0 -42 -33q-4 -7 -6.5 -15.5t-5.5 -24.5t-5 -28.5t-6.5 -42t-7.5 -49.5q34 -1 90 -1q46 0 74 1q24 120 71 187.5t133 67.5q29 0 66.5 -9t44.5 -9
q15 0 33 11t20 11q6 0 6 -5v-1q-1 -3 -5.5 -18.5t-13.5 -49.5t-19 -78l-45 -208q53 116 146 116q45 0 73.5 -26t28.5 -69q0 -33 -31 -129.5t-31 -124.5q0 -38 31 -38q18 0 31 17.5t26 57.5q2 9 8 9z" />
    <glyph glyph-name="f_f_i.liga" unicode="ffi" horiz-adv-x="681" 
d="M652 137q8 0 6 -8q-12 -76 -37 -107.5t-68 -31.5q-73 0 -73 70q0 38 32 166t32 136q0 7 -13 7q-23 0 -139 -2q-3 -16 -16 -97q-14 -109 -55 -249q-54 -200 -152 -200q-33 0 -53 16.5t-20 41.5q0 20 12.5 33.5t32.5 13.5q14 0 23.5 -7.5t9.5 -20.5q0 -8 -6.5 -20.5
t-6.5 -19.5q0 -19 25 -19q59 0 82 144q22 127 36 256q11 76 22 128q-25 0 -77.5 -0.5t-76.5 -1.5q-1 -9 -8.5 -53t-12.5 -73q-28 -189 -67 -272q-52 -182 -151 -182q-33 0 -54 17t-21 41q0 19 13 33t32 14q14 0 23.5 -8t9.5 -20q0 -8 -6 -20.5t-6 -19.5q0 -20 26 -20
q32 0 55.5 37.5t34.5 114.5q6 34 36 241q17 104 31 170q-23 -1 -58 -1q-15 0 -15 14t14 14h65q27 108 64.5 161t94.5 53q26 0 41.5 -11.5t15.5 -30.5q0 -14 -8.5 -24t-23.5 -10q-23 0 -26 26q-2 10 -3.5 14.5t-6.5 9t-13 4.5q-26 0 -41 -34q-11 -20 -31 -159h156
q59 250 192 250q32 0 50.5 -12t18.5 -33q0 -15 -9.5 -25.5t-25.5 -10.5q-24 0 -32 31q-7 27 -32 27q-24 0 -45 -25q-25 -33 -53 -202q63 0 92 1q37 0 68 3t48 6.5t20 3.5q6 0 5 -6q0 -2 -5 -13t-11 -27.5t-9 -30.5q-57 -232 -57 -269q0 -41 32 -41q27 0 40.5 26.5t24.5 83.5
q2 9 8 9z" />
    <glyph glyph-name="f_f_j.liga" unicode="ffj" horiz-adv-x="658" 
d="M635 405q5 0 5 -6q0 -1 -5.5 -11t-12 -26.5t-9.5 -33.5l-47 -254q-20 -107 -63.5 -158.5t-97.5 -51.5q-32 0 -53 16.5t-21 41.5q0 19 12.5 33t32.5 14q14 0 23.5 -8t9.5 -20q0 -8 -6 -20t-6 -18q0 -21 26 -21q35 0 51 38q3 9 23 152q35 175 55 290q0 8 -8 8
q-23 0 -74.5 -0.5t-78.5 -0.5q-2 -13 -4.5 -28.5t-6 -36.5t-5.5 -34q-15 -118 -55 -249q-53 -200 -152 -200q-32 0 -52.5 16.5t-20.5 41.5q0 20 13 33.5t32 13.5q14 0 23.5 -7.5t9.5 -20.5q0 -8 -6 -20.5t-6 -19.5q0 -19 24 -19q61 0 82 144q23 126 37 256q9 76 22 130
q-26 0 -78 -0.5t-76 -1.5q-8 -55 -21 -128q-28 -189 -67 -272q-52 -182 -151 -182q-33 0 -54 17t-21 41q0 19 13 33t32 14q14 0 23.5 -8t9.5 -20q0 -8 -6 -20.5t-6 -19.5q0 -20 26 -20q32 0 55.5 37.5t34.5 114.5q6 34 36 241q17 107 31 172q-46 -1 -80 -1q-13 0 -13 12
q0 14 14 14h85q27 108 64.5 161t94.5 53q26 0 41.5 -11.5t15.5 -30.5q0 -14 -8.5 -24t-23.5 -10q-23 0 -26 26q-2 10 -3.5 14.5t-6.5 9t-13 4.5q-26 0 -41 -34q-11 -20 -27 -129q-2 -19 -4 -29h155q60 249 193 249q32 0 50 -12t18 -33q0 -15 -9 -25.5t-25 -10.5
q-23 0 -33 31q-7 27 -31 27q-25 0 -45 -25q-14 -19 -25.5 -61t-28.5 -140h86q49 0 84 3.5t51.5 6.5t18.5 3z" />
    <glyph glyph-name="f_f_k.liga" unicode="ffk" horiz-adv-x="896" 
d="M872 109q5 0 4 -10q-5 -51 -26.5 -82t-53.5 -31q-29 0 -48 24t-47 80l-1.5 3t-1 2.5t-1.5 2.5q-19 38 -26 51t-20.5 25.5t-29.5 12.5q-8 0 -9 -9l-38 -174q-3 -16 -35 -16q-35 0 -35 14q0 4 3.5 19t8.5 37t8 36l84 396q9 40 9 63q0 36 -19 55t-52 19q-75 0 -102 -68
q-22 -43 -35 -169l110 2q18 0 18 -14q0 -16 -20 -16l-111 2q-2 -21 -11 -86q-29 -223 -80 -328q-49 -111 -125 -111q-35 0 -55.5 15.5t-20.5 40.5q0 18 13 31.5t31 13.5q15 0 24.5 -7.5t9.5 -20.5q0 -8 -6 -19.5t-6 -17.5q0 -20 24 -20t44 25.5t31 72.5q7 24 13.5 61t10 64
t9.5 81.5t8 74.5q13 94 19 131h-71h-96l-21 -127q-29 -189 -67 -271q-52 -182 -151 -182q-33 0 -54 17t-21 41q0 19 13 33t32 14q14 0 23.5 -8t9.5 -20q0 -8 -6 -20.5t-6 -19.5q0 -20 26 -20q32 0 55.5 37.5t34.5 114.5q6 34 36 241q16 101 31 169h-32.5h-26.5l-10 -1
q-14 0 -14 14t17 14q1 0 11.5 -0.5t27 -0.5h33.5q27 108 64.5 161.5t93.5 53.5q26 0 41.5 -11.5t15.5 -30.5q0 -15 -8 -25t-24 -10q-23 0 -26 26q-2 14 -6 21t-16 7q-28 0 -42 -33q-4 -7 -6.5 -15.5t-5.5 -24.5t-5 -28.5t-6.5 -42t-7.5 -49.5q36 -1 95 -1q46 0 74 1
q24 120 71 187.5t133 67.5q29 0 66.5 -9t44.5 -9q15 0 33 11t21 11q5 0 5 -6q0 -3 -5 -17.5t-14 -49t-19 -79.5l-41 -186h3q44 93 135 93q39 0 64.5 -19t25.5 -54q0 -65 -57.5 -103t-146.5 -38q26 -7 40.5 -21t37.5 -46q18 -26 24 -34.5t18 -23.5t20.5 -20t16.5 -5
q28 0 44 58q3 12 8 12zM618 211q-1 -7 7.5 -10t27.5 -3q48 0 83 22q60 33 60 110q0 25 -12.5 39.5t-35.5 14.5q-29 0 -69 -37t-53 -99q-7 -25 -8 -37z" />
    <glyph glyph-name="f_f_l.liga" unicode="ffl" horiz-adv-x="721" 
d="M680 498l-88 -398q-6 -36 -6 -45q0 -37 30 -37q24 0 40.5 22.5t27.5 87.5q2 9 7 9q9 0 7 -8q-12 -76 -38 -107.5t-69 -31.5q-70 0 -70 75q0 14 8 54l80 375q7 28 7 59q0 36 -19 55t-52 19q-75 0 -102 -68q-22 -43 -35 -169l111 2q18 0 18 -14q0 -16 -20 -16l-112 2
q-2 -21 -11 -86q-29 -223 -80 -328q-49 -111 -125 -111q-35 0 -55.5 15.5t-20.5 40.5q0 18 13 31.5t31 13.5q14 0 24 -7.5t10 -19.5q0 -8 -6 -20t-6 -18q0 -19 24 -19q52 0 75 97q7 24 13.5 61t10 64t9.5 82.5t8 74.5q15 106 19 130h-70h-96l-21 -127q-29 -189 -67 -271
q-52 -182 -151 -182q-33 0 -54 17t-21 41q0 19 13 33t32 14q14 0 23.5 -8t9.5 -20q0 -8 -6 -20.5t-6 -19.5q0 -20 26 -20q32 0 55.5 37.5t34.5 114.5q6 34 36 241q16 101 31 169h-32.5h-26.5l-10 -1q-14 0 -14 14t17 14q1 0 11.5 -0.5t27 -0.5h33.5q27 108 64.5 161.5
t93.5 53.5q26 0 41.5 -11.5t15.5 -30.5q0 -15 -8 -25t-24 -10q-23 0 -26 26q-2 14 -6 21t-16 7q-28 0 -42 -33q-4 -7 -6.5 -15.5t-5.5 -24.5t-5 -28.5t-6.5 -42t-7.5 -49.5q36 -1 95 -1q45 0 73 1q24 120 71 187.5t133 67.5q29 0 66.5 -9t44.5 -9q15 0 33 11t21 11q5 0 5 -5
v-1q0 -4 -4.5 -18t-13.5 -48.5t-19 -77.5z" />
    <glyph glyph-name="f_h.liga" unicode="fh" horiz-adv-x="699" 
d="M667 101q7 0 6 -9q-12 -53 -35.5 -77.5t-60.5 -24.5q-72 0 -72 71q0 30 30 131.5t30 130.5q0 59 -56 59q-99 0 -151 -219l-34 -158q-3 -16 -35 -16q-35 0 -35 14q0 3 20 91l86 397q7 35 7 61q0 37 -19.5 56t-52.5 19q-75 0 -102 -71q-22 -44 -36 -169q24 1 62.5 3t42.5 2
q19 0 19 -15t-24 -15q-5 0 -41 1.5t-61 1.5q-9 -79 -14 -113q-31 -238 -85 -352q-48 -114 -123 -114q-34 0 -54.5 16.5t-20.5 41.5q0 19 13 33t32 14q15 0 24.5 -7.5t9.5 -20.5q0 -8 -6.5 -20.5t-6.5 -19.5q0 -20 24 -20q23 0 42.5 26.5t29.5 75.5q17 57 45 293
q14 114 24 167l-63 -2q-14 0 -14 13q0 15 13 15q2 0 12 -0.5t26 -1.5t30 -1q25 121 72 188.5t132 67.5q29 0 67 -9t44 -9q16 0 34 11.5t21 11.5q5 0 5 -6q0 -3 -5 -17.5t-14 -49.5t-18 -80l-46 -208q53 116 146 116q45 0 73.5 -26t28.5 -69q0 -33 -31 -129.5t-31 -124.5
q0 -38 31 -38q18 0 31 17.5t26 57.5q1 9 8 9z" />
    <glyph glyph-name="f_j.liga" unicode="fj" horiz-adv-x="447" 
d="M417 400q10 0 10 -9q0 -3 -5 -11.5t-11.5 -24.5t-9.5 -34l-54 -265q-21 -108 -64 -159.5t-97 -51.5q-31 0 -52.5 17t-21.5 41q0 20 12.5 33.5t31.5 13.5q34 0 34 -28q0 -8 -6 -19.5t-6 -18.5q0 -21 25 -21q37 0 52 39q7 19 13 114q2 15 34 172.5t32 168.5q0 12 -10 12
q-31 0 -84.5 -0.5t-74.5 -0.5q-15 -87 -19 -120q-30 -208 -90 -348q-48 -114 -123 -114q-34 0 -54.5 16.5t-20.5 41.5q0 19 13 33t32 14q15 0 24.5 -7.5t9.5 -20.5q0 -8 -6.5 -20.5t-6.5 -19.5q0 -20 24 -20q23 0 42 26.5t29 74.5q13 59 53 330q10 72 27 133h-56
q-15 0 -15 12q0 14 15 14l63 -2q41 130 106.5 193t138.5 63q39 0 63.5 -14.5t24.5 -38.5q0 -18 -10.5 -30.5t-27.5 -12.5q-15 0 -23.5 11.5t-12.5 25t-16 25t-33 11.5q-49 0 -86 -57q-36 -51 -61 -177h86q41 0 78 2.5t58.5 5t25.5 2.5z" />
    <glyph glyph-name="f_k.liga" unicode="fk" horiz-adv-x="647" 
d="M622 109q5 0 4 -9q-5 -51 -26.5 -82t-53.5 -31q-16 0 -28.5 6.5t-26 27t-20 31.5t-24.5 46q-32 66 -46 79q-13 11 -29 11q-7 0 -10 -9l-38 -174q-3 -16 -35 -16q-35 0 -35 14q0 4 3.5 19t8.5 36.5t8 35.5l85 397q8 40 8 61q0 37 -19.5 56t-52.5 19q-75 0 -102 -71
q-23 -45 -35 -168q22 1 59.5 2.5t42.5 1.5q18 0 18 -15t-24 -15q-4 0 -39.5 1.5t-59.5 1.5q-9 -79 -14 -113q-31 -238 -85 -352q-48 -114 -123 -114q-34 0 -54.5 16.5t-20.5 41.5q0 19 13 33t32 14q15 0 24.5 -7.5t9.5 -20.5q0 -8 -6.5 -20.5t-6.5 -19.5q0 -20 24 -20
q23 0 42.5 26.5t29.5 75.5q17 57 45 293q14 114 24 167l-70 -2q-13 0 -13 13q0 15 13 15q1 0 12.5 -0.5t29 -1.5t32.5 -1q25 121 72 188.5t132 67.5q29 0 67 -9t44 -9q16 0 34 11.5t21 11.5q5 0 5 -6q0 -3 -4.5 -18t-13.5 -50t-19 -79l-42 -185h3q44 93 135 93
q39 0 64.5 -19t25.5 -54q0 -65 -57.5 -103.5t-146.5 -38.5q26 -8 41 -22t37 -45q45 -64 62 -75q9 -7 18 -7q29 0 43 58q2 11 8 11zM369 212q-2 -14 34 -14q46 0 84 22q59 35 59 110q0 54 -48 54q-29 0 -69 -36.5t-53 -98.5q-7 -26 -7 -37z" />
    <glyph glyph-name=".notdef" horiz-adv-x="500" 
d="M410 720v-1000h-317v1000h317zM333 653h-165v-33h65v-37h-66v-33h166v33h-66v37h66v33zM267 524h-100v-104h166v34h-66v70zM233 490v-36h-33v36h33zM333 393h-166v-33h66v-37h-66v-33h100v70h66v33zM333 333h-33v-66h-133v-34h166v100zM333 211h-100v-56h34v23h33v-47
h-100v80h-33v-113h166v113zM333 38h-166v-113h166v113zM300 5v-47h-100v47h100zM333 -98h-166v-33h70l-70 -47v-33h166v33h-102l70 47h32v33z" />
    <glyph glyph-name=".null" 
 />
    <glyph glyph-name="nonmarkingreturn" horiz-adv-x="333" 
 />
    <glyph glyph-name="space" unicode=" " horiz-adv-x="189" 
 />
    <glyph glyph-name="exclam" unicode="!" horiz-adv-x="234" 
d="M98 153q20 114 29.5 209t11 157t2.5 69q2 26 19 39t42 13q44 0 44 -36q0 -15 -19 -67t-52 -157t-58 -227h-19zM93 98q24 0 38 -13.5t14 -36.5q0 -27 -17 -43.5t-44 -16.5q-23 0 -37 14t-14 36q0 26 17.5 43t42.5 17z" />
    <glyph glyph-name="quotedbl" unicode="&#x22;" horiz-adv-x="343" 
d="M128 399q9 70 8.5 99.5t-6 58t-5.5 35.5q0 22 15 34.5t41 12.5q40 0 40 -32q0 -14 -13 -33.5t-33.5 -64t-35.5 -110.5h-11zM268 399q9 70 8.5 99.5t-6 58t-5.5 35.5q0 22 15 34.5t41 12.5q40 0 40 -32q0 -14 -12.5 -33.5t-33.5 -64t-36 -110.5h-11z" />
    <glyph glyph-name="numbersign" unicode="#" horiz-adv-x="464" 
d="M431 390q8 0 8 -12t-8 -12h-101l-27 -150h108q8 0 8 -12t-8 -12h-113l-33 -179q-3 -13 -15 -13q-10 0 -8 13l32 179h-127l-33 -179q-3 -13 -15 -13q-10 0 -8 13l32 179h-97q-8 0 -8 12t8 12h101l27 150h-103q-8 0 -8 12t8 12h107l29 164q3 15 16 15t10 -15l-30 -164h126
l29 164q3 15 16 15t10 -15l-30 -164h97zM278 216l27 150h-126l-27 -150h126z" />
    <glyph glyph-name="dollar" unicode="$" horiz-adv-x="510" 
d="M487 551q8 0 6 -8q-6 -32 -10.5 -60.5t-6 -47t-2.5 -32t-1 -21v-8.5q-3 -5 -6 -5q-5 0 -7 8q-14 117 -91 145l-40 -203q67 -14 99 -43.5t32 -78.5q0 -73 -55 -123.5t-136 -64.5l-16 -81q0 -7 -13 -7q-10 0 -10 7l16 78q-9 -1 -28 -1q-5 0 -14 0.5t-13 0.5l-15 -78
q0 -7 -13 -7q-10 0 -10 7l16 82q-29 6 -58.5 22t-37.5 16q-21 0 -32 -36q-5 -10 -10 -10q-6 0 -5 8q11 55 17.5 100.5t9 68.5t2.5 24q0 6 7 6q8 0 7 -9q-3 -148 103 -174l48 242q-118 25 -118 111q0 67 49.5 111.5t122.5 53.5l17 91q0 7 13 7q10 0 10 -7l-18 -88h15
q23 0 39 -3l18 91q0 7 13 7q10 0 10 -7l-19 -96q16 -5 41.5 -16.5t35.5 -11.5q18 0 26 24q7 16 12 16zM308 324l39 204q-16 4 -41 4h-12l-39 -196q1 0 3 -1t3 -1zM163 417q0 -54 71 -75l37 187q-52 -9 -80 -40.5t-28 -71.5zM222 20q9 0 27 2l45 230q-1 0 -4 0.5t-4 1.5
l-45 9l-47 -241q18 -2 28 -2zM397 163q0 60 -82 84l-43 -222q59 12 92 49t33 89z" />
    <glyph glyph-name="percent" unicode="%" horiz-adv-x="778" 
d="M209 319q-53 0 -89 34.5t-36 91.5q0 15 3 34q14 71 68.5 116t115.5 45q53 0 89 -35t36 -92q0 -17 -4 -34q-14 -70 -68 -115t-115 -45zM104 -4q-14 0 -14 8q0 4 6 10l597 615q6 7 17 7q12 0 12 -7q0 -5 -7 -11l-599 -617q-5 -5 -12 -5zM212 333q85 0 114 146q8 33 8 64
q0 83 -66 83q-83 0 -115 -147q-7 -31 -7 -63q0 -83 66 -83zM547 -10q-52 0 -88 35t-36 91q0 16 3 34q14 71 68.5 116t115.5 45q53 0 89 -35t36 -92q0 -22 -3 -34q-14 -70 -68.5 -115t-116.5 -45zM550 4q84 0 115 146q8 36 8 64q0 83 -66 83q-85 0 -115 -147q-8 -33 -8 -63
q0 -45 19 -64t47 -19z" />
    <glyph glyph-name="ampersand" unicode="&#x26;" horiz-adv-x="611" 
d="M659 454q0 -48 -56 -83.5t-200 -66.5v-1q45 3 77.5 -22t32.5 -79q0 -84 -73.5 -150.5t-193.5 -66.5q-101 0 -162.5 50t-61.5 128q0 97 76.5 160t199.5 70v3q-65 3 -100.5 32.5t-35.5 72.5q0 62 50.5 103t125.5 41q56 0 84 -24t28 -63q0 -27 -14.5 -45t-34.5 -18
q-15 0 -25 8t-10 23q0 18 22 36.5t22 32.5t-16.5 24.5t-40.5 10.5q-45 0 -79.5 -37.5t-34.5 -98.5q0 -90 76 -90q3 0 11 1.5t13 1.5q15 0 15 -15q0 -18 -16 -18q-5 0 -16 2t-18 2q-72 0 -131 -58.5t-59 -149.5q0 -76 42.5 -118.5t119.5 -42.5q88 0 150.5 57t62.5 134
q0 41 -26 67.5t-63 26.5q-26 0 -46.5 -13t-20.5 -32q0 -15 15.5 -32.5t15.5 -31.5q0 -19 -14.5 -30t-36.5 -11q-21 0 -35.5 14t-14.5 38q0 74 135 115q129 38 172 69.5t43 77.5q0 24 -12.5 39t-31.5 15q-17 0 -26.5 -8t-9.5 -19q0 -7 6.5 -21t6.5 -23q0 -15 -11 -25t-29 -10
q-38 0 -38 36q0 35 31.5 59t75.5 24q35 0 59.5 -21t24.5 -50z" />
    <glyph glyph-name="quotesingle" unicode="'" horiz-adv-x="160" 
d="M107 399q9 70 8 99.5t-6.5 58t-5.5 35.5q0 22 15 34.5t41 12.5q40 0 40 -32q0 -14 -12.5 -33.5t-33 -64t-35.5 -110.5h-11z" />
    <glyph glyph-name="parenleft" unicode="(" horiz-adv-x="283" 
d="M136 -215q-84 185 -84 374q0 182 59.5 321.5t225.5 336.5h26q-150 -201 -204 -343t-54 -345q0 -179 57 -344h-26z" />
    <glyph glyph-name="parenright" unicode=")" horiz-adv-x="284" 
d="M-15 -215h-26q150 201 204 343t54 345q0 175 -57 344h26q84 -189 84 -374q0 -182 -59.5 -321.5t-225.5 -336.5z" />
    <glyph glyph-name="asterisk" unicode="*" horiz-adv-x="375" 
d="M265 623q20 0 20 -20q0 -9 -7 -23.5t-19 -40.5t-21 -55q2 31 1.5 47t-2.5 33.5t-2 23.5q0 16 8.5 25.5t21.5 9.5zM379 528q3 -22 -24 -32q-7 -2 -43 -3t-74 -9q36 15 69.5 35.5t40.5 22.5q28 8 31 -14zM114 527q12 23 36 15q6 -2 31.5 -22.5t56.5 -35.5q-35 8 -70 9
t-41 3q-24 10 -13 31zM138 409q4 4 37 26t63 49q-24 -31 -42.5 -65t-23.5 -39q-21 -22 -37 -8q-18 13 3 37zM298 373q-22 -16 -34 8q-3 5 -8 38.5t-18 64.5q19 -27 43.5 -48.5t27.5 -26.5q11 -21 -11 -36z" />
    <glyph glyph-name="plus" unicode="+" horiz-adv-x="560" 
d="M452 237q6 0 6 -8q0 -16 -11 -16h-153l-30 -153q-2 -8 -13 -8q-6 0 -9 2t-2 6l30 153h-153q-6 0 -6 8q0 16 11 16h153l30 153q2 8 13 8q6 0 9 -2t2 -6l-30 -153h153z" />
    <glyph glyph-name="comma" unicode="," horiz-adv-x="231" 
d="M8 -143q-6 0 -6 6q0 5 9 9q44 25 74.5 61t30.5 67q0 8 -6 8q-4 0 -19.5 -9t-29.5 -9q-18 0 -29.5 12t-11.5 31q0 27 19 45t48 18q26 0 42 -18t16 -49q0 -39 -18.5 -74t-43.5 -55t-46 -31.5t-29 -11.5z" />
    <glyph glyph-name="hyphen" unicode="-" horiz-adv-x="344" 
d="M72 225q8 0 45.5 -1t56.5 -1q21 0 61 1t47 1q10 0 10 -12q0 -18 -16 -18q-18 0 -52 0.5t-52 0.5l-106 -1q-10 0 -10 11q0 19 16 19z" />
    <glyph glyph-name="period" unicode="." horiz-adv-x="223" 
d="M89 101q25 0 39 -13.5t14 -37.5q0 -27 -17 -44t-45 -17q-23 0 -37.5 14t-14.5 37q0 27 17.5 44t43.5 17z" />
    <glyph glyph-name="slash" unicode="/" horiz-adv-x="355" 
d="M0 -89q-8 0 -8 7q0 3 3 9l344 749q5 11 15 11q8 0 8 -6t-3 -11l-343 -749q-5 -10 -16 -10z" />
    <glyph glyph-name="zero" unicode="0" horiz-adv-x="589" 
d="M364 572q104 0 157 -82t29 -211t-107.5 -211t-187.5 -82t-157 82t-29 211t107.5 211t187.5 82zM258 1q69 0 126 63t85 215q13 83 11.5 137t-20.5 85.5t-43 43.5t-56 12q-69 0 -126.5 -63t-85.5 -215q-13 -83 -11.5 -137t21 -85.5t43.5 -43.5t56 -12z" />
    <glyph glyph-name="one" unicode="1" horiz-adv-x="386" 
d="M310 572q6 0 6 -4q0 -2 -5.5 -23.5t-15 -60.5t-16.5 -75l-53 -270q-15 -66 -5.5 -91t62.5 -37q18 -5 18 -11q0 -7 -8 -7l-52 3q-52 4 -85 4q-24 0 -55.5 -2t-54.5 -3.5t-26 -1.5q-6 0 -6 5q0 9 16 11q39 7 59.5 13.5t33.5 21t17 29t11 48.5l54 278q12 65 -2 83.5
t-85 22.5q-10 1 -10 8q0 11 12 11q54 1 97 13t66 23.5t27 11.5z" />
    <glyph glyph-name="two" unicode="2" horiz-adv-x="567" 
d="M113 68q-23 0 -34.5 -12t-11.5 -31q0 -2 0.5 -6.5t0.5 -6.5q0 -23 -20 -23q-16 0 -16 20q0 95 57.5 157t175.5 107q103 39 138.5 79t35.5 108q0 97 -116 97q-48 0 -84.5 -21.5t-36.5 -50.5q0 -12 8.5 -27.5t8.5 -25.5q0 -22 -16 -35t-38 -13q-20 0 -32 12.5t-12 34.5
q0 54 66.5 97.5t154.5 43.5q76 0 126.5 -33.5t50.5 -88.5q0 -126 -226 -192q-208 -58 -237 -201q-6 -24 -9 -52h1l5 30q6 34 34 56t69 22q39 0 129.5 -26t117.5 -26q31 0 52.5 21t37.5 72q4 12 11 12t7 -5q0 -12 -22 -74q-34 -94 -116 -94q-35 0 -132.5 37.5t-127.5 37.5z
" />
    <glyph glyph-name="three" unicode="3" horiz-adv-x="575" 
d="M302 299q93 -3 144 -37.5t51 -91.5q0 -73 -76.5 -129t-187.5 -56q-84 0 -130.5 33t-46.5 81q0 35 21.5 56t50.5 21q38 0 38 -30q0 -22 -26.5 -43.5t-26.5 -43.5q0 -23 30.5 -41t81.5 -18q75 0 132 46t57 129q0 111 -145 111q-19 0 -36 -1t-27 -1.5t-12 -0.5q-16 0 -16 15
q0 18 22 18q4 0 28 -2.5t45 -2.5q73 0 122.5 41t49.5 112q0 47 -30.5 70.5t-81.5 23.5q-52 0 -83 -16t-31 -40q0 -8 6.5 -21t6.5 -22q0 -21 -16 -33.5t-38 -12.5q-19 0 -31 11.5t-12 31.5q0 46 62.5 81t144.5 35t131.5 -32.5t49.5 -84.5q0 -66 -62.5 -106.5t-158.5 -49.5z
" />
    <glyph glyph-name="four" unicode="4" horiz-adv-x="480" 
d="M437 171q18 0 18 -11q0 -22 -24 -22h-71l-5 -30q-11 -49 -5 -67t44 -30q20 -6 20 -11q0 -7 -9 -7l-43 3q-43 4 -69 4q-25 0 -65 -4l-40 -3q-7 0 -7 5q0 4 19 11q44 13 56.5 29.5t22.5 67.5l6 32h-266q-13 0 -13 9q0 7 13 20l374 376l5 5q16 16 21.5 20t13.5 4
q11 0 10 -11l-30 -152l-46 -238h70zM44 171h247l59 302q2 5 -1 5l-15 -15z" />
    <glyph glyph-name="five" unicode="5" horiz-adv-x="556" 
d="M219 -15q-74 0 -119 34t-45 83q0 32 19 51t45 19q17 0 27.5 -9t10.5 -25q0 -19 -18 -38.5t-18 -38.5q0 -27 24.5 -44t67.5 -17q98 0 147.5 57.5t49.5 155.5q0 118 -122 118q-82 0 -143 -45q-13 -9 -18 -9q-6 0 -10 4.5t-3 10.5l48 251q6 24 29 24q6 0 39.5 -4.5t83 -9.5
t93.5 -5q19 0 40 2t37.5 5t30 5.5t21.5 4.5l9 2q3 0 3 -2q0 -25 -52 -58.5t-119 -33.5q-49 0 -94 11.5t-71 23t-30 11.5t-6 -6l-41 -215q70 51 172 51q77 0 130.5 -38t53.5 -107q0 -95 -76 -157t-196 -62z" />
    <glyph glyph-name="six" unicode="6" horiz-adv-x="555" 
d="M330 349q73 0 119.5 -40t46.5 -105q0 -98 -77 -158.5t-178 -60.5q-87 0 -132 62t-45 158q0 146 96.5 256.5t226.5 110.5q57 0 93 -24.5t36 -64.5q0 -31 -17 -48.5t-40 -17.5q-37 0 -37 32q0 17 16.5 35t16.5 33q0 17 -20 28.5t-52 11.5q-90 0 -154 -75q-51 -61 -79 -201
q-9 -43 -9 -46q22 56 76 85t113 29zM244 0q180 0 180 216q0 114 -112 114q-75 0 -129.5 -55t-54.5 -146q0 -59 32 -94t84 -35z" />
    <glyph glyph-name="seven" unicode="7" horiz-adv-x="478" 
d="M506 564q11 0 11 -10q0 -5 -6 -11.5t-22.5 -22.5t-32.5 -34l-142 -154q-145 -161 -145 -238q0 -16 5 -32.5t5 -23.5q0 -23 -15.5 -38t-35.5 -15q-36 0 -36 43q0 60 37.5 114.5t174.5 201.5l137 151q-32 -7 -77 -7q-23 0 -89.5 3.5t-100.5 3.5q-38 0 -56 -9l-41 -108
q-5 -9 -9 -9q-5 0 -5 5q0 3 6 25.5t19 71.5t25 101q3 10 9 10q7 0 7 -6q1 -6 1 -22q36 9 73 9q20 0 89 -4t94 -4q29 0 56 2.5t43.5 4.5t20.5 2z" />
    <glyph glyph-name="eight" unicode="8" horiz-adv-x="565" 
d="M367 313q62 -27 94 -59.5t32 -79.5q0 -86 -77.5 -137t-182.5 -51q-81 0 -129.5 36.5t-48.5 91.5q0 58 46 104t132 74q-91 46 -91 116q0 72 67.5 118t152.5 46q66 0 110 -28t44 -76q0 -97 -149 -155zM207 440q0 -41 33 -65.5t96 -48.5q10 -3 16 -7q128 53 128 147
q0 41 -35.5 66t-86.5 25q-59 0 -105 -31t-46 -86zM237 1q82 0 132 39.5t50 103.5q0 44 -34 72.5t-100 53.5l-37 15q-155 -56 -155 -170q0 -49 39 -81.5t105 -32.5z" />
    <glyph glyph-name="nine" unicode="9" horiz-adv-x="584" 
d="M265 222q-70 0 -116 38.5t-46 104.5q0 91 75.5 149t165.5 58q97 0 144.5 -61t47.5 -155q0 -91 -40.5 -176t-115.5 -140t-164 -55q-64 0 -110.5 30t-46.5 76q0 31 17 47.5t41 16.5q15 0 25 -8t10 -22q0 -16 -16.5 -34.5t-16.5 -33.5q0 -25 29 -41t76 -16q91 0 149 75
q43 59 80 249q-26 -52 -78.5 -77t-109.5 -25zM348 557q-75 0 -124.5 -49.5t-49.5 -156.5q0 -110 108 -110q75 0 131.5 53.5t56.5 144.5q0 53 -33.5 85.5t-88.5 32.5z" />
    <glyph glyph-name="colon" unicode=":" horiz-adv-x="226" 
d="M137 354q25 0 39 -13.5t14 -37.5q0 -27 -17 -44t-45 -17q-23 0 -37.5 14t-14.5 37q0 27 17.5 44t43.5 17zM89 102q25 0 39 -13.5t14 -37.5q0 -27 -17 -44t-45 -17q-23 0 -37.5 14t-14.5 37q0 27 17.5 44t43.5 17z" />
    <glyph glyph-name="semicolon" unicode=";" horiz-adv-x="231" 
d="M130 355q25 0 39 -13.5t14 -37.5q0 -27 -17 -44t-45 -17q-23 0 -37.5 14t-14.5 37q0 27 17.5 44t43.5 17zM8 -143q-6 0 -6 6q0 5 9 9q44 25 74.5 61t30.5 67q0 8 -6 8q-4 0 -19.5 -9t-29.5 -9q-18 0 -29.5 12t-11.5 31q0 27 19 45t48 18q26 0 42 -18t16 -49
q0 -39 -18.5 -74t-43.5 -55t-46 -31.5t-29 -11.5z" />
    <glyph glyph-name="less" unicode="&#x3c;" horiz-adv-x="560" 
d="M369 -10q-4 0 -14 6l-216 153q-8 6 -8 10q0 9 12 16l277 153q11 6 16 6q9 0 9 -13q0 -5 -2.5 -7t-13.5 -8l-260 -144l204 -143q11 -7 11 -12t-5 -11t-10 -6z" />
    <glyph glyph-name="equal" unicode="=" horiz-adv-x="560" 
d="M130 341q0 15 10 15h330q6 0 6 -9q0 -15 -10 -15h-330q-6 0 -6 9zM110 201q0 15 10 15h330q7 0 7 -9q0 -15 -10 -15h-330q-7 0 -7 9z" />
    <glyph glyph-name="greater" unicode="&#x3e;" horiz-adv-x="560" 
d="M112 -10q-9 0 -9 14q0 6 11 12q3 2 5 3l260 143l-204 143q-11 7 -11 12t5 11t10 6t13 -6l217 -153q8 -6 8 -10q0 -9 -13 -16l-276 -153q-12 -6 -16 -6z" />
    <glyph glyph-name="question" unicode="?" horiz-adv-x="512" 
d="M201 179l7 39q9 46 30 73.5t69 47.5q73 33 99.5 73.5t26.5 98.5q0 55 -33 84.5t-89 29.5q-50 0 -86.5 -21t-36.5 -48q0 -9 8 -23.5t8 -24.5q0 -22 -16 -35t-38 -13q-40 0 -40 43q0 55 62.5 96t150.5 41q82 0 135 -37t53 -96q0 -123 -177 -180q-50 -16 -72.5 -39.5
t-30.5 -66.5l-8 -42h-22zM198 96q23 0 36.5 -13t13.5 -36q0 -26 -16.5 -42.5t-43.5 -16.5q-22 0 -36 13.5t-14 35.5q0 26 17.5 42.5t42.5 16.5z" />
    <glyph glyph-name="at" unicode="@" horiz-adv-x="684" 
d="M483 365q7 0 7 -7q0 -6 -5 -33l-24 -119q-13 -61 -13 -82q0 -60 49 -60q45 0 87 49.5t42 149.5q0 105 -68 165.5t-179 60.5q-130 0 -221 -91.5t-91 -234.5q0 -113 70 -181t173 -68q123 0 200 50q18 12 20 12q7 0 7 -8t-14 -16q-83 -54 -213 -54q-113 0 -190.5 72
t-77.5 193q0 152 98.5 247t239.5 95q117 0 193.5 -64.5t76.5 -175.5q0 -104 -52 -162.5t-111 -58.5q-81 0 -80 91q0 4 5 54h-3q-37 -142 -126 -142q-42 0 -70 32t-28 94q0 84 51.5 143t116.5 59q26 0 45 -10.5t29 -21.5t13 -11q6 0 23 16.5t20 16.5zM296 64q46 0 79.5 75.5
t33.5 138.5q0 81 -48 81q-43 0 -79 -65.5t-36 -144.5q0 -40 13.5 -62.5t36.5 -22.5z" />
    <glyph glyph-name="A" unicode="A" horiz-adv-x="608" 
d="M-36 -6q-9 0 -9 7q0 6 14 10q34 10 51 28.5t53 84.5l227 431q14 30 14 32q1 6 -3.5 10.5t-19.5 9.5l-7.5 3t-4 3t-1.5 5q1 6 12 8q34 0 64 6t46.5 11.5t17.5 5.5q8 0 6 -7q0 -3 -4.5 -8.5t-5.5 -10.5q-2 -6 3 -27q49 -250 106 -497q10 -44 19.5 -60t28.5 -23
q24 -9 24 -15t-10 -6q-3 0 -41.5 2.5t-62.5 2.5q-22 0 -60.5 -2.5t-40.5 -2.5q-9 0 -9 6t19 10q40 12 46 44q3 26 -20 139q-1 8 -15 11q-19 3 -145 3q-94 0 -111 -3q-10 0 -14 -10l-45 -88q-11 -24 -14 -41q-7 -39 44 -56q14 -4 14 -9q-1 -7 -10 -7q-2 0 -36.5 3t-53.5 3
q-16 0 -40.5 -3t-25.5 -3zM265 225q65 0 128 3q14 1 14 7q1 3 -3 22q-34 147 -69 324q-1 4 -2 4l-3 -3l-174 -337l-6 -13q0 -4 10 -5q18 -2 105 -2z" />
    <glyph glyph-name="B" unicode="B" horiz-adv-x="576" 
d="M479 293q55 -39 55 -108q0 -88 -81 -139.5t-201 -51.5q-17 0 -68.5 3.5t-69.5 3.5q-21 0 -54 -3l-33 -3q-7 0 -5 6t18 13q16 6 23 13t18.5 42t22 86.5t33.5 167.5q45 226 44 260q-1 26 -19 34q-1 0 -2 1q-10 5 -12.5 7t-1.5 6q2 6 7 6q1 0 31 -3.5t51 -3.5q17 0 65 4.5
t76 4.5q97 0 145 -38q42 -32 42 -90q0 -80 -66.5 -126.5t-162.5 -52.5v-3h2q91 0 143 -36zM227 366q-3 -18 4.5 -23t38.5 -5q92 0 141 33q31 23 49 63t18 87q0 104 -115 104q-57 0 -79 -15q-11 -8 -16 -37zM244 8q99 0 150 53.5t51 137.5q0 67 -37.5 94t-117.5 27
q-46 0 -60.5 -9.5t-20.5 -41.5l-18 -87q-27 -142 -22 -154q7 -20 75 -20z" />
    <glyph glyph-name="C" unicode="C" horiz-adv-x="596" 
d="M500 -16q-7 0 -7 30q0 28 -15 28q-11 0 -38.5 -14t-67.5 -28.5t-83 -14.5q-103 0 -164 72.5t-61 188.5q0 162 104.5 280t240.5 118q41 0 75 -12t54 -24.5t28 -12.5t12 6t10 25q6 18 14 18q6 0 6 -6q0 -1 -2.5 -11.5t-7 -38t-8.5 -64.5q-5 -43 -7 -77t-2.5 -46t-1.5 -14
q-1 -7 -6 -7q-8 0 -9 10l-2 32q-7 109 -43 158.5t-106 49.5q-87 0 -156 -81q-46 -57 -75.5 -144t-29.5 -189q0 -112 42.5 -164t106.5 -52q69 0 126.5 46.5t90.5 126.5l19 46q6 14 13 14q6 0 6 -6q0 -2 -8 -32t-20.5 -87t-21.5 -117q-1 -7 -6 -7z" />
    <glyph glyph-name="D" unicode="D" horiz-adv-x="670" 
d="M378 639q139 0 211.5 -87.5t54.5 -222.5q-20 -145 -131 -242.5t-260 -97.5q-20 0 -70.5 5.5t-72.5 5.5q-17 0 -48 -2t-32 -2q-9 0 -7 8q0 1 0.5 2t1.5 2t2.5 1.5t3.5 1.5l4 2t5.5 2.5t6.5 2.5q19 7 31.5 53.5t52.5 253.5q45 232 44 264q-1 21 -14 27q-17 9 -17 13
q0 5 6 5q2 0 31.5 -2t48.5 -2q18 0 74 4.5t74 4.5zM552 321q12 57 12 109q0 101 -50 148t-134 47q-91 0 -110 -39q-12 -23 -60 -272q-50 -258 -46 -283q5 -28 93 -28q104 0 182.5 78t112.5 240z" />
    <glyph glyph-name="E" unicode="E" horiz-adv-x="562" 
d="M580 634q6 0 6 -4q0 -3 -4 -8t-9 -15.5t-8 -23.5q-4 -20 -5.5 -46.5t-2 -45t-0.5 -19.5q-1 -8 -8 -8t-9 12q-7 90 -38.5 115.5t-117.5 25.5q-54 0 -76 -4t-33 -15q-11 -12 -21.5 -53.5t-35.5 -181.5v-1v-1q-1 -1 -1 -2v-3q0 -12 13 -15.5t54 -3.5q64 0 88 17.5t47 72.5
q3 8 9 8q5 0 4 -7q-15 -53 -23 -100q-5 -27 -8 -50t-3.5 -35t-1.5 -14q-1 -7 -7 -7q-5 0 -6 9q-1 3 -1 10.5v10.5q-3 40 -23.5 54.5t-77.5 14.5q-40 0 -55 -3t-19 -14q-36 -207 -36 -247q0 -14 4 -24q7 -12 26 -16t69 -4q100 0 145 33.5t85 143.5q6 13 13 13q6 0 5 -8
l-8 -24q-8 -24 -18 -59.5t-15 -63.5q-1 -5 -1 -16q0 -9 3 -17t3 -10q0 -4 -2 -6t-7 -2q-6 0 -54 0.5t-122 1.5t-140 1q-41 0 -73.5 -0.5t-49 -1.5t-17.5 -1q-7 0 -6 6q1 5 21 12q26 9 37 31q16 33 53 237q3 13 6 32q38 213 38 254q0 23 -5.5 31.5t-20.5 13.5q-16 5 -16 12
q0 8 9 8q2 0 43 -2t72 -2q73 0 149 1t126 2t57 1z" />
    <glyph glyph-name="F" unicode="F" horiz-adv-x="533" 
d="M577 634q7 0 6 -6q0 -2 -9 -15.5t-12 -29.5q-4 -21 -6.5 -48t-3 -46t-0.5 -20q-3 -8 -7 -8q-8 0 -9 12q-9 91 -41 116.5t-117 25.5q-74 0 -90 -17q-11 -12 -23 -58.5t-41 -202.5q-1 -12 14 -15t62 -3q54 0 78.5 20t47.5 76q3 8 10 8q5 0 4 -7q-25 -100 -26 -105
q-6 -29 -9 -52.5t-4 -36t-2 -15.5q-1 -7 -6 -7q-6 0 -7 9q1 55 -16.5 75t-71.5 20q-50 0 -65.5 -3.5t-19.5 -18.5q-39 -203 -36 -237q2 -24 24 -31l6 -2q6 -2 8 -3t5 -2t3.5 -2.5t0.5 -2.5q-2 -6 -7 -6q-3 0 -42.5 2t-58.5 2q-21 0 -55 -2l-34 -3q-7 0 -5 6q1 5 17 11
q25 9 36 31q17 33 57 243l6 29q45 233 42 269q-2 23 -21 31q-1 0 -2 1q-14 6 -14 10v2q1 6 8 6q3 0 25.5 -1t62 -2t81.5 -1q65 0 122 1t91.5 2t43.5 1z" />
    <glyph glyph-name="G" unicode="G" horiz-adv-x="617" 
d="M500 -15q-5 0 -5 15q0 33 -2 42.5t-11 9.5t-34 -16.5t-67 -33t-92 -16.5q-105 0 -165.5 71.5t-60.5 183.5q0 165 110 285t253 120q42 0 74.5 -11.5t51.5 -23t27 -11.5q16 0 27 35q5 18 11 18t6 -8q0 -4 -3.5 -16.5t-8.5 -33t-8 -39.5q-4 -26 -6 -54t-3 -52l-1 -25
q-1 -10 -8 -10q-6 0 -6 13q-8 115 -45.5 159.5t-108.5 44.5q-73 0 -137 -55q-60 -52 -98.5 -153.5t-38.5 -220.5q0 -105 38.5 -154.5t101.5 -49.5q62 0 107 31t57 86l8 41q6 32 6 44t-6 18t-23 12q-10 3 -10 8q0 7 7 7q3 0 33.5 -3t47.5 -3q21 0 53 3t33 3q5 0 5 -5
q0 -6 -10 -9q-20 -4 -32 -12q-10 -6 -16.5 -26.5t-21.5 -92.5l-18 -94q-4 -22 -11 -22z" />
    <glyph glyph-name="H" unicode="H" horiz-adv-x="689" 
d="M703 634q7 0 7 -5t-19 -12q-26 -9 -37.5 -51.5t-47.5 -243.5q-41 -234 -41 -269q0 -34 19 -40q16 -5 16 -11t-8 -6q-2 0 -34.5 2t-48.5 2q-17 0 -50 -2t-35 -2q-6 0 -6 5q1 5 20 12q24 8 36.5 50.5t42.5 212.5q4 20 -15 23.5t-124 3.5h-15q-107 0 -132 -3.5t-29 -20.5
q-33 -189 -33 -226q0 -34 19 -40q10 -3 13 -5t2 -6q0 -6 -8 -6q-1 0 -33 2t-49 2t-50.5 -2t-34.5 -2q-6 0 -6 5t20 12q22 8 34 42q13 39 52 264q40 229 40 258q0 34 -19 40q-16 6 -16 10q0 7 8 7q1 0 34 -2t49 -2q17 0 49.5 2t33.5 2q7 0 7 -5t-19 -12q-23 -8 -34 -40
q-13 -36 -47 -233q-1 -15 19 -19t133 -4q110 0 135 4t29 24v-1q34 201 34 229q0 34 -19 40q-16 5 -16 10q0 7 8 7q1 0 34 -2t49 -2q17 0 49.5 2t33.5 2z" />
    <glyph glyph-name="I" unicode="I" horiz-adv-x="310" 
d="M31 -4q-6 0 -6 6q2 6 20 12q25 8 38.5 54t53.5 251q44 228 43 262q0 29 -18 36q-16 5 -15 9v2q0 6 8 6q2 0 34 -2t48 -2t49.5 2t35.5 2q6 0 6 -6q-2 -6 -20 -11q-25 -9 -38 -54t-52 -244q-45 -236 -45 -270q0 -29 18 -35q16 -6 15 -10v-2q0 -6 -8 -6q-2 0 -34 2t-49 2
t-50 -2t-34 -2z" />
    <glyph glyph-name="J" unicode="J" horiz-adv-x="465" 
d="M137 -15q-60 0 -97 30.5t-37 83.5q0 43 22.5 78.5t56.5 35.5q15 0 24 -8.5t9 -20.5q0 -20 -32.5 -49t-32.5 -60q0 -30 21.5 -53t66.5 -23q118 0 151 164l49 253q24 119 24 159q0 19 -5.5 27.5t-19.5 16.5q-12 7 -12 10q0 8 7 8q2 0 34.5 -3.5t54.5 -3.5q21 0 54.5 3.5
t34.5 3.5q6 0 6 -5q0 -2 -1 -3.5t-2.5 -2.5t-3.5 -1.5t-6 -2.5t-7 -3q-19 -6 -28.5 -18.5t-18.5 -43.5t-23 -106l-40 -210q-49 -256 -249 -256z" />
    <glyph glyph-name="K" unicode="K" horiz-adv-x="622" 
d="M663 636q6 0 6 -5q0 -7 -15 -11q-35 -8 -63 -25.5t-68 -55.5l-154 -143q103 -243 131 -302t50 -72q24 -13 24 -19q-1 -7 -9 -7q-2 0 -27 2t-44 2q-23 0 -59 -2t-37 -2q-6 0 -6 5q1 3 14 11q14 6 14 18q1 16 -30.5 100t-78.5 189q-4 9 -9 9q-4 0 -9 -4l-95 -89
q-33 -171 -28 -199q3 -17 18 -22q14 -7 14 -10v-2q0 -6 -8 -6q-2 0 -34 2t-48 2t-50 -2t-35 -2q-6 0 -6 6q2 6 20 12q26 8 39.5 54t52.5 251q44 227 44 262q0 29 -19 36q-15 7 -15 11q1 6 8 6q2 0 34.5 -2t48.5 -2q17 0 49.5 2t34.5 2q8 0 6 -6q-1 -5 -19 -11
q-26 -9 -39 -54t-52 -244q-7 -37 -12 -62l236 225q48 47 67 68t22 34q3 21 -30 36q-9 3 -8 9q1 7 12 7q2 0 17 -1.5t35.5 -3t37.5 -1.5q14 0 31 1.5t28.5 3t12.5 1.5z" />
    <glyph glyph-name="L" unicode="L" horiz-adv-x="542" 
d="M255 -1q-64 0 -116.5 -1t-79.5 -2.5t-30 -1.5q-7 0 -7 6q1 4 22 16q20 11 31.5 52.5t49.5 236.5q49 248 49 281q0 23 -13 30q-16 12 -16 15q1 6 8 6l25 -3q26 -4 49 -4t55 3.5t33 3.5q7 0 6 -7q-1 -5 -26 -16q-23 -10 -35.5 -56t-54.5 -261q-33 -169 -39 -208.5t0 -52.5
q10 -21 107 -21q88 0 135.5 37t87.5 141q4 9 9 9q7 0 6 -9q-3 -13 -5 -17q-43 -135 -43 -150q0 -9 4 -16.5t4 -10.5q0 -6 -8 -6q-5 0 -35 1.5t-77.5 3t-95.5 1.5z" />
    <glyph glyph-name="M" unicode="M" horiz-adv-x="789" 
d="M333 -6q-5 0 -8 14l-123 539q-2 8 -4 8q-3 0 -7 -24l-43 -227q-38 -193 -38 -236q0 -27 9 -36.5t36 -17.5q17 -6 17 -12q0 -8 -10 -8q-2 0 -36 3t-52 3q-15 0 -47.5 -3t-33.5 -3q-7 0 -7 6t19 11q35 9 49.5 19t27.5 42t27 106l69 368q7 37 -0.5 51.5t-37.5 19.5
q-13 3 -13 10q0 8 10 8q1 0 24.5 -2.5t38.5 -2.5q11 0 31 3t23 3q9 0 13 -4t6 -16l114 -503q1 -1 1 -3v-1q1 0 3 3l286 501q13 23 32 23q5 0 22 -3t29 -3q14 0 29.5 1.5t26.5 3t13 1.5q6 0 6 -4q0 -7 -27 -16q-22 -8 -33.5 -32t-25.5 -102l-52 -276q-28 -151 -24 -174
q3 -15 17 -21q23 -8 23 -11q0 -7 -7 -7q-2 0 -18.5 0.5t-39 1t-40.5 0.5q-21 0 -54 -1l-33 -1q-5 0 -5 4q0 2 0.5 3.5t1 2.5t3 2t4.5 1.5t6.5 2t8.5 3.5q29 12 42 46.5t35 146.5q73 377 73 391q0 3 -2 3l-3 -4q-6 -9 -27 -46t-62 -108.5t-73 -127.5q-153 -270 -178 -306
q-8 -13 -12 -13z" />
    <glyph glyph-name="N" unicode="N" horiz-adv-x="649" 
d="M515 -18q-6 0 -15 14q-50 97 -301 537q-9 14 -13 14t-7 -9l-76 -401q-12 -62 -4 -87.5t45 -38.5q8 -2 11 -4t2 -6q0 -7 -9 -7q-3 0 -32 3t-46 3q-15 0 -42.5 -3t-32.5 -3q-7 0 -7 6q1 6 16 10q34 9 52.5 36.5t32.5 98.5l71 374q8 42 8 58q0 25 -28 35q-33 9 -33 17
q0 7 7 7q1 0 21 -3t29 -3q11 0 26 3t20 3q17 0 32 -26q38 -62 159.5 -274t124.5 -217q5 -11 8 -11t4 6l73 391q10 56 2 79t-37 34q-17 5 -17 12q0 6 8 6q1 0 32 -3t44 -3q15 0 40 3t26 3q6 0 6 -5t-18 -11q-29 -9 -45 -34t-26 -81l-96 -504q-4 -19 -15 -19z" />
    <glyph glyph-name="O" unicode="O" horiz-adv-x="665" 
d="M417 649q106 0 167.5 -69t61.5 -181q0 -106 -47 -201t-129.5 -154t-178.5 -59q-105 0 -166.5 70t-61.5 183q0 105 46.5 199.5t128.5 153t179 58.5zM449 79q49 59 79 163t30 194q0 98 -33.5 147t-110.5 49q-78 0 -136 -58q-58 -57 -93 -165.5t-35 -206.5q0 -200 145 -200
q88 0 154 77z" />
    <glyph glyph-name="P" unicode="P" horiz-adv-x="578" 
d="M9 -7q-6 0 -6 6t25 14q24 7 35 30q16 33 55 248l6 31q41 225 38 261q-4 26 -24 35q-16 8 -16 12q1 7 8 7q1 0 34 -3.5t57 -3.5q22 0 71.5 4.5t69.5 4.5q103 0 164 -49t61 -138q0 -21 -3 -38q-13 -105 -93 -166t-181 -61q-28 0 -55.5 6t-44.5 12t-19 6q-5 0 -6 -7l-9 -53
q-13 -74 -8 -102t30 -37q4 -1 8.5 -3t6.5 -2.5t4.5 -2t3.5 -2.5t1 -3q0 -6 -7 -6q-2 0 -21 1.5t-44 3.5t-43 2t-41 -2t-39 -3.5t-18 -1.5zM294 203q82 0 138 57t66 154q4 36 4 51q0 76 -40.5 118t-117.5 42q-56 0 -77 -21q-12 -13 -23.5 -66t-36.5 -197q-15 -90 -15 -103
q0 -10 24 -20q39 -15 78 -15z" />
    <glyph glyph-name="Q" unicode="Q" horiz-adv-x="667" 
d="M586 -64q4 0 4 -5q0 -15 -22 -49.5t-67.5 -69t-95.5 -34.5q-42 0 -78.5 21t-59 46t-51.5 48.5t-57 27.5l-8.5 -8.5t-8.5 -9t-8 -8t-8.5 -8t-7.5 -6.5t-8.5 -5.5t-8.5 -3.5t-9 -3t-9 -1q-21 0 -21 20q0 19 24.5 33t64.5 14h5q34 41 83 55q-83 17 -129.5 83.5t-46.5 164.5
q0 105 46.5 199.5t128.5 153t179 58.5q106 0 167.5 -69t61.5 -181q0 -106 -47 -201t-129.5 -154t-178.5 -59h-5q-61 0 -115 -52q28 -4 112 -43t140 -39q104 0 152 75q6 10 11 10zM150 202q0 -200 145 -200q88 0 154 77q49 59 79 163t30 194q0 98 -33.5 147t-110.5 49
q-78 0 -136 -58q-58 -57 -93 -165.5t-35 -206.5z" />
    <glyph glyph-name="R" unicode="R" horiz-adv-x="625" 
d="M461 -19q-30 0 -60.5 17.5t-56 43t-50 50.5t-52 44t-53.5 20q-12 0 -13 -14q-13 -75 -12.5 -95t10.5 -29q4 -3 10.5 -6t10 -5.5t3.5 -6.5q0 -5 -7 -5q-1 0 -32.5 2.5t-50.5 2.5q-14 0 -32 -1t-31 -2.5t-15 -1.5q-7 0 -7 5q0 3 2 5t4.5 3.5t8.5 4t10 5.5q16 8 29.5 60
t51.5 263q31 177 35 219.5t-8 50.5q-4 4 -9.5 6.5t-8 4.5t-2.5 5q0 7 8 7q1 0 28.5 -2t44.5 -2q18 0 72.5 6.5t83.5 6.5q99 0 159.5 -51t60.5 -139q0 -122 -96 -209t-219 -87q-37 0 -51 2l-1 -2q30 -8 71.5 -36.5t84.5 -51.5t86 -23t72 25.5t40 69.5q1 5 5 5q12 0 3 -47
q-9 -49 -46.5 -83.5t-80.5 -34.5zM231 168q116 0 188 69q40 41 62.5 106t22.5 135q0 75 -38 113t-101 38q-73 0 -95 -25q-10 -12 -17.5 -43t-30.5 -154q-2 -14 -3.5 -21.5t-4 -20.5t-4.5 -24l-23 -123q0 -5 -1.5 -14t-1.5 -13q0 -13 10 -18t37 -5z" />
    <glyph glyph-name="S" unicode="S" horiz-adv-x="537" 
d="M25 -16q-4 0 -4 7q0 3 3 17t8.5 38t9.5 42q6 29 10.5 61.5t6.5 53t3 23.5q2 8 7 8q7 0 8 -11q10 -117 47 -168.5t122 -51.5q82 0 128 47.5t46 115.5q0 45 -27.5 73.5t-93.5 48.5l-56 17q-126 37 -126 141q0 85 65 139.5t148 54.5q39 0 71.5 -12.5t53 -25t30.5 -12.5
q8 0 11 6t10 29q5 18 14 18q6 0 6 -6q0 -1 -2.5 -12.5t-6.5 -35t-7 -48.5q-2 -18 -3.5 -45t-2.5 -44.5t-2 -20.5q-2 -6 -8 -6q-8 0 -8 9q-8 94 -47 143.5t-108 49.5q-62 0 -105.5 -40.5t-43.5 -98.5q0 -43 26.5 -69t83.5 -44l65 -19q131 -40 131 -147q0 -96 -72 -158.5
t-175 -62.5q-54 0 -109 23.5t-64 23.5q-17 0 -31 -38q-4 -13 -12 -13z" />
    <glyph glyph-name="T" unicode="T" horiz-adv-x="592" 
d="M159 -6q-5 0 -5 6q0 4 2.5 6t11.5 5q40 9 52 26t23 83l28 162q35 202 42 253t2 62q-10 19 -67 19q-41 0 -60.5 -10t-38 -42t-45.5 -110q-6 -16 -11 -16t-5 8q0 1 15 73.5t15 84.5q0 9 -2.5 17.5t-2.5 10.5q0 8 8 8q2 0 9 -1t22.5 -2.5t40.5 -3t72 -2.5t107 -1t108 1
t73.5 2.5t42 3t23.5 2.5t9 1q5 0 5 -6q0 -3 -3 -7.5t-7.5 -14.5t-7.5 -24q-15 -72 -22 -140q-2 -10 -8 -10t-6 33q-2 67 -12 98t-25.5 39t-49.5 8q-58 0 -74 -19q-9 -11 -20 -61.5t-46 -253.5l-29 -162q-8 -46 -7.5 -64.5t9 -27t34.5 -17.5q11 -4 11 -9q0 -8 -8 -8l-40 2
q-40 3 -61 3q-20 0 -61 -3z" />
    <glyph glyph-name="U" unicode="U" horiz-adv-x="617" 
d="M282 -15q-203 0 -203 179q0 38 10 101l46 257q9 44 6 64t-22 30q-14 8 -14 13q0 7 8 7q2 0 16.5 -1.5t34 -3t35.5 -1.5q21 0 55 3t37 3q6 0 6 -5q0 -6 -24 -16q-23 -9 -33.5 -27t-20.5 -67l-51 -276q-10 -53 -10 -89q0 -69 38 -104.5t109 -35.5q88 0 152 61t86 189
l43 253q8 51 1 70.5t-35 28.5q-16 6 -16 12t7 6l28 -3q28 -3 44 -3q17 0 41 3t25 3q6 0 6 -5q0 -6 -22 -12q-27 -9 -40.5 -31.5t-22.5 -74.5l-41 -245q-50 -283 -279 -283z" />
    <glyph glyph-name="V" unicode="V" horiz-adv-x="622" 
d="M254 -27q-6 0 -8 7q-14 80 -99 542q-8 42 -21.5 62.5t-37.5 30.5q-19 8 -19 13q0 9 11 9q2 0 21.5 -1.5t45 -3.5t43.5 -2q21 0 62.5 3.5t46.5 3.5q8 0 8 -6q0 -5 -13 -9l-3 -1.5t-3 -1l-4 -1t-4 -1.5q-46 -14 -46 -53q0 -34 14 -126.5t33.5 -205t19.5 -113.5q6 -32 8 -32
q1 0 11 18q170 282 245 418q18 36 18 55q0 30 -39 42q-12 4 -12 8q0 8 10 8q1 0 29.5 -3t48.5 -3q18 0 46 3t29 3q8 0 8 -6q0 -8 -13 -11q-31 -6 -53 -25.5t-49 -65.5l-323 -548q-4 -7 -11 -7z" />
    <glyph glyph-name="W" unicode="W" horiz-adv-x="937" 
d="M1011 636q8 0 8 -6q0 -7 -11 -10q-31 -7 -51 -26t-43 -64l-288 -552q-4 -7 -9 -7q-7 0 -9 6l-92 518l-267 -518q-3 -7 -10 -7q-5 0 -7 7l-93 551q-9 40 -20 59t-34 28q-16 7 -16 13q0 8 10 8q1 0 42 -3t65 -3q19 0 62.5 3t45.5 3q8 0 8 -5q0 -8 -23 -14q-28 -8 -38.5 -19
t-10.5 -32q0 -24 8 -88.5t22 -164.5t19 -143q11 -82 13 -82q3 0 38 73q9 20 33 66.5t65 127t83 166.5l-1 6q-8 42 -15 59.5t-28 29.5q-14 8 -14 12q0 8 10 8q2 0 35.5 -3t56.5 -3q25 0 47 1.5t34.5 3t15.5 1.5q7 0 7 -5t-3.5 -7t-18.5 -7q-25 -8 -34 -16t-9 -25
q0 -19 11.5 -94.5t31.5 -196t26 -160.5q5 -33 6 -33q3 0 15 25q220 417 220 457q0 30 -48 45q-10 3 -10 9q0 8 9 8q1 0 30.5 -3t50.5 -3q15 0 32 1.5t29 3t14 1.5z" />
    <glyph glyph-name="X" unicode="X" horiz-adv-x="662" 
d="M708 637q4 0 4 -4q0 -9 -22 -14q-45 -11 -83 -43.5t-136 -135.5l-79 -84q6 -14 14 -28q78 -159 115 -225t55 -77q5 -3 17.5 -9.5t18 -10t5.5 -6.5q0 -7 -6 -7q-1 0 -38 3.5t-60 3.5q-20 0 -46.5 -2t-45.5 -3.5t-20 -1.5q-6 0 -6 5t24.5 17t24.5 26q0 33 -109 256l-74 -79
q-132 -139 -132 -174q0 -26 35 -37q9 -3 9 -7q0 -7 -8 -7q-2 0 -17.5 1.5t-37 3.5t-38.5 2q-16 0 -39.5 -2t-40.5 -4l-17 -1q-6 0 -6 5q0 6 12 8q38 8 75 34q63 46 254 256l17 17q-90 185 -118.5 234.5t-55.5 64.5q-8 4 -15.5 6.5t-11.5 3.5t-6.5 3t-2.5 5q0 7 8 7l33 -3
q32 -4 57 -4q28 0 72.5 3.5t45.5 3.5q5 0 5 -4q0 -5 -22 -14q-17 -7 -21.5 -11t-4.5 -12q0 -33 94 -225l59 60q115 125 115 157q0 15 -17 26q-3 2 -7.5 4.5t-6.5 3.5t-4 2.5t-3 3t-1 3.5q0 6 7 6q2 0 14 -1.5t30.5 -3.5t36.5 -2q27 0 63.5 3.5t37.5 3.5z" />
    <glyph glyph-name="Y" unicode="Y" horiz-adv-x="570" 
d="M150 -7q-6 0 -6 5q0 7 26 17q20 7 29.5 23t20.5 58t32 149q4 22 -10 52l-92 221q-24 57 -37.5 75.5t-33.5 26.5q-11 4 -11 10t8 6l32 -3q32 -3 54 -3t60 3t40 3q6 0 6 -5q-1 -4 -19 -12q-23 -11 -26 -23q-3 -19 17.5 -81t87.5 -227l117 153q72 91 78 130q8 41 -42 50
q-6 1 -8 3t-1 5q1 7 10 7q1 0 36.5 -3t55.5 -3q12 0 39.5 3t28.5 3q5 0 7 -1.5t1 -4.5q-2 -7 -11 -9q-28 -9 -47 -26t-54 -62l-194 -249q-6 -8 -7 -14q-35 -195 -32 -225q2 -19 21 -28q1 -1 5 -3q10 -5 14 -7.5t3 -6.5q0 -7 -7 -7q-1 0 -38 3.5t-54 3.5q-19 0 -59 -4z" />
    <glyph glyph-name="Z" unicode="Z" horiz-adv-x="577" 
d="M0 -7q-6 0 -5 6q1 4 12 15q53 58 261 309q135 165 172.5 213t40.5 62q2 8 -11 11q-16 4 -67 5h-62q-69 0 -103 -10t-58.5 -37.5t-61.5 -94.5q-8 -12 -12 -12q-6 0 -5 8q0 2 6.5 21t15 45.5t11.5 45.5q4 29 1 39t-2 12q1 6 8 6q1 0 89 -1.5t157 -1.5q41 0 90.5 1t84 1.5
t39.5 0.5t4 -6q0 -3 -2 -4.5t-7 -5t-9 -7.5q-26 -27 -240 -296q-202 -246 -218 -271q-8 -12 -9 -18q-1 -7 3 -9.5t18 -2.5q88 0 127 1q117 3 168.5 39.5t95.5 145.5q6 16 13 16q4 0 4 -5q0 -6 -9 -28q-27 -76 -35 -136q-4 -34 -7 -50q-1 -6 -7 -6q-7 0 -60.5 0.5t-130.5 1
t-140 0.5q-40 0 -99 -1.5t-61 -1.5z" />
    <glyph glyph-name="bracketleft" unicode="[" horiz-adv-x="346" 
d="M31 -228l192 988h52l-186 -962h118l-5 -26h-171zM275 760h119l-5 -26h-119z" />
    <glyph glyph-name="backslash" unicode="\" horiz-adv-x="420" 
d="M379 -89q-12 0 -17 11l-320 705q-3 7 -3 11q0 6 9 6t14 -11l322 -706q2 -8 2 -9q0 -7 -7 -7z" />
    <glyph glyph-name="bracketright" unicode="]" horiz-adv-x="346" 
d="M340 760l-192 -988h-52l187 962h-119l5 26h171zM-18 -202h119l-5 -26h-119z" />
    <glyph glyph-name="asciicircum" unicode="^" horiz-adv-x="555" 
d="M112 410q-6 0 -6 6q0 7 70 80q75 80 139 148q14 16 19.5 21t14 10t18.5 5q8 0 13 -2t10 -7.5t8 -10t9 -16.5q119 -212 119 -226q0 -8 -8 -8q-7 0 -30 29t-132 174h-2q-169 -147 -202 -175t-40 -28z" />
    <glyph glyph-name="underscore" unicode="_" horiz-adv-x="564" 
d="M12 -55q0 12 8 12h440q8 0 8 -12t-8 -12h-440q-8 0 -8 12z" />
    <glyph glyph-name="grave" unicode="`" horiz-adv-x="400" 
d="M356 452l-4 2q-54 27 -168 103q-32 22 -29 42q6 29 34 25q12 -2 39 -27t85 -86q9 -10 14.5 -16t14.5 -15.5t17 -17.5q3 -4 3 -7q-2 -5 -6 -3z" />
    <glyph glyph-name="a" unicode="a" horiz-adv-x="477" 
d="M446 98q7 0 6 -9q-13 -54 -35 -77t-58 -23q-28 0 -45 15.5t-17 44.5q0 21 7 46h-3q-49 -110 -138 -110q-56 0 -91.5 43.5t-35.5 112.5q0 98 63 180t151 82q90 0 112 -94l30 44q27 44 33 44q5 0 5 -6q0 -5 -3 -20l-61 -285q-6 -34 -6 -42q0 -28 23 -28q18 0 30.5 16
t23.5 57q3 9 9 9zM180 7q43 0 81 46t54 130q12 59 12 100q0 107 -70 107q-50 0 -88 -51q-27 -38 -44 -99t-17 -114q0 -119 72 -119z" />
    <glyph glyph-name="b" unicode="b" horiz-adv-x="429" 
d="M165 -15q-64 0 -95.5 33.5t-31.5 90.5q0 36 13 92q3 13 24 110t35 165.5t14 81.5q0 16 -7 23t-23 13q-16 7 -16 12q0 8 11 9q31 2 59 10.5t43.5 16t17.5 7.5q9 0 6 -6q0 -1 -2.5 -11t-7.5 -29.5t-9 -37.5l-50 -229h3q45 68 121 68q54 0 88.5 -38.5t34.5 -107.5
q0 -107 -67.5 -190t-160.5 -83zM167 1q61 0 101 57q24 36 40.5 96.5t16.5 116.5q0 62 -18 88.5t-56 26.5q-31 0 -58.5 -22.5t-41.5 -49.5q-18 -33 -35.5 -112t-17.5 -118q0 -83 69 -83z" />
    <glyph glyph-name="c" unicode="c" horiz-adv-x="403" 
d="M194 -15q-74 0 -115 47t-41 120q0 99 67.5 175.5t156.5 76.5q55 0 86 -30t31 -80q0 -30 -11.5 -51t-32.5 -21q-13 0 -21.5 8.5t-8.5 21.5q0 16 19.5 40t19.5 41q0 22 -20.5 38.5t-49.5 16.5q-64 0 -113.5 -68t-49.5 -164q0 -70 28 -109t80 -39q44 0 80 28t50 77
q4 14 9 14q6 0 6 -6q0 -3 -4 -17q-15 -49 -58 -84t-108 -35z" />
    <glyph glyph-name="d" unicode="d" horiz-adv-x="486" 
d="M165 -14q-58 0 -92.5 46.5t-34.5 118.5q0 94 64.5 173t146.5 79q38 0 63.5 -21t34.5 -58l32 152q10 50 10 73q0 33 -25 45q-17 8 -17 12q0 7 12 8q36 2 66 10.5t45 16.5t17 8q7 0 5 -6q0 -3 -5 -17t-14.5 -48.5t-19.5 -79.5l-87 -418q-4 -17 -4 -35q0 -28 23 -28
q37 0 58 73q3 9 9 9q8 0 5 -8q-21 -101 -96 -101q-28 0 -43.5 15.5t-15.5 41.5q0 22 6 48h-3q-48 -109 -140 -109zM177 5q47 0 83.5 44.5t53.5 106t17 123.5q0 53 -18.5 80t-51.5 27q-62 0 -107 -80t-45 -172q0 -129 68 -129z" />
    <glyph glyph-name="e" unicode="e" horiz-adv-x="401" 
d="M358 122q4 0 4 -5t-4 -12q-20 -51 -65 -85.5t-105 -34.5q-70 0 -110 47.5t-40 117.5q0 101 68.5 177.5t162.5 76.5q48 0 78.5 -21t30.5 -56q0 -57 -69 -95t-196 -46q-1 -8 -1 -25q0 -71 26.5 -111t76.5 -40q43 0 78 31t56 72q4 9 9 9zM266 390q-56 0 -98.5 -56.5
t-52.5 -132.5q100 11 144 35q62 34 62 100q0 26 -15 40t-40 14z" />
    <glyph glyph-name="f" unicode="f" horiz-adv-x="247" 
d="M282 640q22 0 37.5 -11.5t15.5 -30.5q0 -15 -8 -25t-23 -10q-22 0 -27 26q-3 29 -21 29q-27 0 -43 -34q-12 -25 -31 -158q-4 -24 -6 -38q70 4 75 4q16 0 16 -13q0 -16 -17 -16l-78 2q-2 -11 -6 -35.5t-7.5 -46.5t-7.5 -44q-27 -179 -67 -272q-53 -182 -149 -182
q-35 0 -56 17t-21 42q0 18 13 32t32 14q14 0 23.5 -7.5t9.5 -20.5q0 -8 -6 -20.5t-6 -19.5q0 -20 26 -20q32 0 56 38t34 112q2 16 16.5 111t19.5 136q16 107 29 167q-12 0 -26 -1t-23.5 -1.5t-11.5 -0.5q-13 0 -13 14t13 14q3 0 27 -1.5t38 -2.5q29 126 70 189.5t103 63.5z
" />
    <glyph glyph-name="g" unicode="g" horiz-adv-x="436" 
d="M424 399q5 0 5 -6q0 -2 -1 -7t-2 -12t-2 -13l-71 -336q-23 -117 -83.5 -178.5t-137.5 -61.5q-61 0 -96 29.5t-35 74.5q0 26 14 41.5t35 15.5q17 0 28 -11t11 -25q0 -12 -12.5 -31.5t-12.5 -32.5q0 -20 19.5 -33t50.5 -13q107 0 140 169l22 115q-49 -96 -134 -96
q-54 0 -89.5 43t-35.5 113q0 97 62 178t152 81q88 0 111 -91l30 44q28 42 32 43zM181 9q41 0 78.5 43.5t54.5 121.5l4 20q9 54 9 90q0 105 -70 105q-52 0 -89 -53q-27 -38 -43.5 -95.5t-16.5 -109.5q0 -122 73 -122z" />
    <glyph glyph-name="h" unicode="h" horiz-adv-x="454" 
d="M422 101q8 0 5 -9q-21 -102 -96 -102q-71 0 -71 71q0 30 30 131.5t30 130.5q0 59 -57 59q-98 0 -150 -216l-33 -156q-3 -16 -40 -16q-17 0 -23.5 3t-5.5 11q1 7 20 92l86 406q8 37 8 52q0 23 -23 36q-16 8 -16 12q0 8 11 9q32 2 59 10.5t42 16t18 7.5q6 0 6 -6l-4 -12
q-5 -12 -12 -37t-13 -53l-55 -258q52 121 148 121q45 0 73.5 -26t28.5 -69q0 -33 -31 -129.5t-31 -124.5q0 -38 30 -38q19 0 32 17.5t25 57.5q3 9 9 9z" />
    <glyph glyph-name="i" unicode="i" horiz-adv-x="260" 
d="M173 491q-24 0 -39.5 14.5t-15.5 38.5q0 25 16.5 41t41.5 16t40.5 -14.5t15.5 -37.5q0 -26 -16.5 -42t-42.5 -16zM136 -10q-73 0 -73 73q0 30 33.5 143.5t33.5 136.5q0 35 -31 35q-43 0 -59 -74q-2 -6 -9 -6q-8 0 -7 7q16 98 99 98q36 0 55 -18t19 -46q0 -33 -34 -146
t-34 -138q0 -38 30 -38q19 0 32 17t26 57q1 10 8 10t6 -9q-12 -53 -35 -77.5t-60 -24.5z" />
    <glyph glyph-name="j" unicode="j" horiz-adv-x="245" 
d="M183 488q-24 0 -39.5 14.5t-15.5 38.5q0 25 16.5 41t41.5 16t40 -14.5t15 -37.5q0 -26 -16 -42t-42 -16zM-12 -215q-34 0 -57 17t-23 42q0 20 12 33t31 13q15 0 25 -8t10 -21q0 -8 -6 -20t-6 -18q0 -22 27 -22q39 0 56 47q5 11 7 24t3.5 34.5t2.5 31.5q1 9 23 113l49 243
q6 32 6 49q0 35 -33 35q-43 0 -60 -74q-1 -6 -9 -6t-7 8q17 97 99 97q37 0 56 -18t19 -47q0 -20 -6 -52l-57 -289q-22 -110 -65.5 -161t-96.5 -51z" />
    <glyph glyph-name="k" unicode="k" horiz-adv-x="414" 
d="M388 109q6 0 6 -9q-6 -51 -28 -82t-54 -31q-16 0 -29.5 6.5t-27 25.5t-21.5 31.5t-25 44.5q-15 30 -20 39.5t-16 25.5t-20.5 20.5t-21.5 4.5q-7 0 -10 -9l-37 -171q-4 -16 -35 -16q-36 0 -36 14q0 4 3 18.5t8 37t8 35.5l88 407q8 35 8 52q0 22 -24 35q-17 8 -17 13
q0 8 12 9q32 2 59.5 10.5t43 16t18.5 7.5q6 0 6 -6q0 -1 -4 -12.5t-11.5 -36.5t-13.5 -54l-49 -225h3q45 94 139 94q38 0 65 -19.5t27 -55.5q0 -63 -60 -103t-149 -40q27 -8 43 -22t38 -45q21 -29 31.5 -42t25 -25t25.5 -12q30 0 44 58q4 11 8 11zM127 209q-2 -14 36 -14
q52 0 86 22q62 36 62 114q0 53 -49 53q-34 0 -73 -38.5t-54 -99.5q-6 -24 -8 -37z" />
    <glyph glyph-name="l" unicode="l" horiz-adv-x="240" 
d="M114 -10q-69 0 -69 75q0 6 0.5 12t3 19t5.5 28t9 46.5t13 66.5t18.5 96t24.5 127q15 68 15 91q0 31 -26 42q-23 8 -23 14t13 7q37 2 67 10.5t45 16.5t18 8q7 0 5 -5q0 -5 -5.5 -22.5t-14.5 -51.5t-17 -72q-86 -425 -86 -443q0 -38 28 -38q39 0 59 75q3 9 8 9q9 0 6 -9
q-12 -54 -35 -78t-62 -24z" />
    <glyph glyph-name="m" unicode="m" horiz-adv-x="731" 
d="M695 83q6 0 6 -6q-8 -88 -86 -88q-36 0 -58 20.5t-22 57.5q0 39 31.5 137.5t31.5 123.5q0 53 -57 53q-40 0 -74.5 -40.5t-51.5 -116.5h-1h1l-49 -214q-3 -16 -39 -16q-18 0 -25 3t-6 11l58 254q11 48 11 66q0 53 -57 53q-39 0 -71.5 -36t-49.5 -105l-53 -229
q-3 -16 -39 -16q-30 0 -30 14q0 2 1.5 10.5t6.5 29.5t11 47.5t17.5 75.5t23.5 103q11 51 11 67q0 33 -32 33q-43 0 -57 -71q-1 -6 -8 -6q-8 0 -7 8q7 48 32 72.5t63 24.5q34 0 52 -16.5t18 -43.5q0 -19 -21 -103q23 85 59.5 124.5t95.5 39.5q90 0 90 -86q0 -23 -7 -58
q22 74 58.5 109t91.5 35q47 0 74 -23.5t27 -66.5q0 -34 -30.5 -131t-30.5 -128q0 -42 33 -42q44 0 51 65q0 5 7 5z" />
    <glyph glyph-name="n" unicode="n" horiz-adv-x="511" 
d="M479 102q8 0 5 -9q-12 -53 -35.5 -77.5t-60.5 -24.5q-72 0 -72 71q0 30 30 131.5t30 130.5q0 59 -56 59q-101 0 -153 -230l-33 -142q-3 -16 -39 -16q-30 0 -30 14q0 2 1.5 10.5t6.5 29.5t11 47.5t17.5 75.5t23.5 103q11 51 11 67q0 33 -32 33q-43 0 -57 -71q-1 -6 -8 -6
q-8 0 -7 8q7 48 32 72.5t63 24.5q34 0 52 -16.5t18 -43.5q0 -19 -21 -103h1q29 85 69 125t97 40q45 0 73 -26t28 -70q0 -33 -30.5 -129t-30.5 -124q0 -38 30 -38q19 0 31.5 17t25.5 57q3 10 9 10z" />
    <glyph glyph-name="o" unicode="o" horiz-adv-x="446" 
d="M188 -14q-70 0 -110 46.5t-40 121.5q0 93 65 171.5t158 78.5q69 0 108 -45.5t39 -116.5q0 -98 -64 -177t-156 -79zM191 0q58 0 97 65q23 38 37 95t14 109q0 121 -81 121q-56 0 -96 -63q-54 -81 -54 -203q0 -124 83 -124z" />
    <glyph glyph-name="p" unicode="p" horiz-adv-x="489" 
d="M325 404q56 0 91 -43t35 -112q0 -95 -60.5 -179.5t-142.5 -84.5q-81 0 -101 84l-34 -177q-8 -39 0 -55.5t31 -24.5q17 -7 17 -12q0 -7 -8 -7q-3 0 -38 3.5t-56 3.5t-53.5 -3.5t-33.5 -3.5q-6 0 -6 4q0 6 3.5 8t17.5 8q27 10 38 29t21 68l72 365q9 41 9 67q0 33 -32 33
q-40 0 -57 -71q-2 -6 -9 -6t-6 8q7 48 32 72.5t64 24.5q34 0 51.5 -18t16.5 -50q0 -11 -3 -31q53 100 141 100zM329 67q52 87 52 212q0 50 -18 78t-53 28q-64 0 -108 -82t-44 -184q0 -59 21.5 -87t56.5 -28q54 0 93 63z" />
    <glyph glyph-name="q" unicode="q" horiz-adv-x="454" 
d="M196 -207q-5 0 -5 5q0 6 3 8t16 8q23 12 33 30.5t19 58.5l40 176h-3q-17 -42 -52.5 -68t-81.5 -26q-55 0 -90.5 46.5t-35.5 119.5q0 105 64.5 179t150.5 74q62 0 102 -53q11 -13 16 -13q4 0 21 25l26 33q7 8 12 8q6 0 6 -6l-31 -151l-77 -363q-5 -25 -5 -37q0 -23 18 -34
q11 -8 11 -13q0 -7 -9 -7q-2 0 -27 3.5t-40 3.5q-14 0 -33 -2t-33 -3.5t-15 -1.5zM185 5q47 0 84 47.5t56 138.5q12 60 12 101q0 96 -75 96q-57 0 -96 -62q-26 -39 -41 -96t-15 -111q0 -114 75 -114z" />
    <glyph glyph-name="r" unicode="r" horiz-adv-x="368" 
d="M98 -6q-30 0 -30 14t60 267q10 45 10 66q0 34 -32 34q-44 0 -58 -71q-2 -6 -9 -6q-9 0 -8 8q18 97 101 97q28 0 45.5 -18t17.5 -44q0 -19 -14 -86h4q23 77 52.5 112.5t74.5 35.5q26 0 43 -15.5t17 -40.5q0 -23 -11 -39t-30 -16q-30 0 -34 44q-2 29 -23 29
q-23 0 -48.5 -43t-46.5 -133l-41 -179q-4 -16 -40 -16z" />
    <glyph glyph-name="s" unicode="s" horiz-adv-x="358" 
d="M146 -15q-61 0 -97 28t-36 74q0 26 11.5 40t28.5 14q12 0 20 -7.5t8 -18.5q0 -9 -12 -25t-12 -30q0 -26 26 -43t65 -17q48 0 79 26.5t31 65.5q0 31 -17 49t-55 31l-50 17q-80 27 -80 94q0 50 45.5 85.5t110.5 35.5q57 0 90.5 -26t33.5 -63q0 -22 -10.5 -36.5t-27.5 -14.5
q-13 0 -22 9t-9 22q0 11 9 26.5t9 23.5q0 18 -20.5 31.5t-54.5 13.5q-43 0 -70.5 -22.5t-27.5 -58.5q0 -28 15.5 -43t47.5 -26l53 -18q48 -17 69.5 -39.5t21.5 -61.5q0 -58 -52 -97t-121 -39z" />
    <glyph glyph-name="t" unicode="t" horiz-adv-x="306" 
d="M143 -15q-84 0 -84 86q0 26 8 63l39 200q5 19 1.5 25.5t-22.5 7.5l-33 1q-11 1 -11 9q0 12 14 12q44 1 65 10.5t38.5 39t40.5 99.5q5 15 16 15q6 0 5 -14l-30 -142q-1 -7 3 -7l104 2q14 0 14 -12q0 -18 -17 -18q-4 0 -38.5 1.5t-66.5 1.5q-8 0 -9 -8l-49 -249
q-5 -25 -5 -39q0 -53 44 -53q51 0 76 90q3 11 11 11q7 0 6 -10q-9 -49 -39 -85.5t-81 -36.5z" />
    <glyph glyph-name="u" unicode="u" horiz-adv-x="486" 
d="M450 92q7 0 6 -8q-15 -97 -93 -97q-32 0 -49 16.5t-17 43.5q0 19 21 103h-2q-28 -85 -65.5 -125t-91.5 -40q-43 0 -70 26.5t-27 71.5q0 31 30.5 127t30.5 125q0 37 -28 37q-38 0 -54 -74q-1 -10 -9 -10q-6 0 -5 9q18 102 94 102q71 0 71 -70q0 -30 -31 -132.5t-31 -131.5
q0 -58 52 -58q91 0 140 211l36 161q4 16 40 16q30 0 30 -14q0 -8 -59 -266q-11 -50 -11 -67q0 -33 30 -33q36 0 53 71q1 6 9 6z" />
    <glyph glyph-name="v" unicode="v" horiz-adv-x="433" 
d="M177 -10q-49 0 -74.5 25t-25.5 68q0 35 24.5 132.5t24.5 124.5q0 37 -28 37q-42 0 -58 -73q-2 -6 -9 -6q-8 0 -7 8q16 97 98 97q35 0 54.5 -18.5t19.5 -47.5q0 -31 -24.5 -129.5t-24.5 -131.5q0 -60 61 -60q41 0 74.5 26.5t51.5 64.5t28 73.5t10 59.5q0 39 -24 76.5
t-24 54.5q0 15 9.5 24t24.5 9q51 0 51 -83q0 -53 -14.5 -109.5t-41.5 -107t-73 -82.5t-103 -32z" />
    <glyph glyph-name="w" unicode="w" horiz-adv-x="641" 
d="M555 404q27 0 43 -31t16 -84q0 -40 -13 -89t-37.5 -97.5t-67 -80.5t-93.5 -32q-98 0 -98 101v11q-48 -112 -141 -112q-45 0 -68 24.5t-23 68.5q0 32 24.5 133.5t24.5 123.5q0 35 -26 35q-17 0 -32.5 -16.5t-23.5 -54.5q-2 -6 -9 -6q-8 0 -7 8q15 97 96 97q35 0 54 -18.5
t19 -49.5t-24.5 -132t-24.5 -130q0 -54 51 -54q84 0 126 197q1 9 5 29q0 1 1 3.5t1 3.5q21 102 23 114q6 24 26 24h23q22 0 22 -19q0 -9 -4 -29q-43 -217 -43 -262q0 -64 56 -64q43 0 78 38t52 85t17 87q0 36 -14 63.5t-28 46.5t-14 35q0 15 9 24t24 9z" />
    <glyph glyph-name="x" unicode="x" horiz-adv-x="475" 
d="M412 399q26 0 42 -13.5t16 -32.5t-9.5 -30.5t-22.5 -11.5q-23 0 -27 28q-4 30 -23 30q-30 0 -67 -58l-50 -80l34 -134q13 -53 25 -70t30 -17q33 0 48 62q1 10 8 10q8 0 6 -9q-4 -39 -26 -63.5t-62 -24.5q-72 0 -96 104l-21 80l-76 -119q-23 -35 -40 -50t-39 -15
q-23 0 -41.5 15t-18.5 40q0 16 9 26t23 10q23 0 28 -30q4 -28 19 -28q20 0 46 41l85 131l-30 117q-10 41 -20 56t-30 15q-17 0 -34 -17t-26 -54q-2 -6 -9 -6q-8 0 -7 8q17 90 96 90t103 -104l11 -42l41 67q49 79 105 79z" />
    <glyph glyph-name="y" unicode="y" horiz-adv-x="475" 
d="M423 396q34 0 34 -12q0 -2 -1 -6t-2.5 -12t-3.5 -15l-68 -321q-24 -121 -84 -183t-139 -62q-65 0 -101.5 26.5t-36.5 68.5q0 26 14 41t36 15q18 0 29 -10.5t11 -24.5q0 -11 -12 -28.5t-12 -29.5q0 -18 20 -30.5t50 -12.5q114 0 147 170l24 118q-52 -103 -141 -103
q-48 0 -78.5 25t-30.5 71q0 37 29 133.5t29 124.5q0 36 -34 36q-42 0 -61 -80q-1 -7 -10 -7q-8 0 -7 9q23 105 102 105q36 0 57.5 -18t21.5 -52q0 -32 -30 -131.5t-30 -132.5q0 -32 17 -46.5t43 -14.5q86 0 136 149l44 222q2 10 9.5 14t28.5 4z" />
    <glyph glyph-name="z" unicode="z" horiz-adv-x="372" 
d="M259 -15q-24 0 -98 29t-95 29q-17 0 -28 -8t-29 -28q-15 -16 -19 -16q-6 0 -6 7q0 5 17 23l42 44q9 10 72.5 80.5t106.5 114.5t82 79l-3 2q-43 -29 -71 -29q-18 0 -62 17t-60 17q-31 0 -49 -72q-4 -9 -10 -9q-7 0 -6 8q9 44 32 91q12 23 21.5 31.5t24.5 8.5t86.5 -21.5
t107.5 -21.5q9 0 18 8l27 26q10 9 14 9q5 0 5 -6q0 -4 -12 -16q-121 -111 -305 -316l3 -2q38 32 65 32q26 0 78 -26t70 -26q37 0 57 76q5 14 11 14q8 0 8 -7q0 -4 -5 -16q-19 -69 -40 -97.5t-50 -28.5z" />
    <glyph glyph-name="braceleft" unicode="{" horiz-adv-x="421" 
d="M446 760q21 0 21 -8q0 -11 -13 -11q-45 0 -83 -33.5t-51 -102.5l-40 -203q-10 -50 -35 -86t-66 -37v-4q40 -1 51.5 -37t1.5 -86l-40 -203q-14 -68 11.5 -102t70.5 -34q9 0 9 -7q0 -12 -25 -12q-65 0 -97 45.5t-17 125.5l47 239q6 33 -10 48.5t-58 15.5q-10 0 -9 9t13 9
q80 0 92 64l47 239q16 80 65.5 125.5t114.5 45.5z" />
    <glyph glyph-name="bar" unicode="|" horiz-adv-x="263" 
d="M66 -137q-6 0 -8.5 2t-1.5 6l162 835q2 8 14 8q6 0 8.5 -2t1.5 -6l-162 -835q-2 -8 -14 -8z" />
    <glyph glyph-name="braceright" unicode="}" horiz-adv-x="422" 
d="M327 286q12 0 9 -9q-1 -9 -13 -9q-80 0 -92 -64l-47 -239q-15 -80 -65.5 -125.5t-114.5 -45.5q-21 0 -21 8q0 11 13 11q45 0 83 33.5t51 102.5l40 203q10 50 35 86t66 37v2l1 2q-28 1 -42.5 20t-15 46t4.5 57l39 203q13 68 -12 102t-70 34q-9 0 -9 7q0 12 25 12
q64 0 96.5 -45.5t17.5 -125.5l-47 -239q-6 -33 10 -48.5t58 -15.5z" />
    <glyph glyph-name="asciitilde" unicode="~" horiz-adv-x="400" 
d="M-2 132q-6 0 -5 10q13 65 43.5 105t74.5 40q39 0 110 -42.5t94 -42.5q29 0 50 21.5t29 52.5q2 11 11 11t7 -11q-11 -58 -41 -97.5t-78 -39.5q-34 0 -101 42t-99 42q-60 0 -82 -81q-4 -10 -13 -10z" />
    <glyph glyph-name="exclamdown" unicode="&#xa1;" horiz-adv-x="235" 
d="M176 486q-24 0 -38 13.5t-14 36.5q0 27 17 43.5t44 16.5q23 0 37 -14t14 -36q0 -26 -17.5 -43t-42.5 -17zM171 431q-20 -114 -29.5 -209t-11 -157t-2.5 -69q-2 -26 -19 -39t-42 -13q-44 0 -44 37q0 15 19 66.5t52 156.5t58 227h19z" />
    <glyph glyph-name="cent" unicode="&#xa2;" horiz-adv-x="403" 
d="M358 127q6 0 6 -6q0 -3 -4 -17q-14 -48 -57 -83t-107 -36l-24 -120q-2 -8 -13 -8q-6 0 -9 2t-2 6l24 121q-64 7 -99 53t-35 113q0 98 66 174.5t154 77.5l23 116q2 8 13 8q6 0 9 -2t2 -6l-23 -117q46 -6 71.5 -35t25.5 -74q0 -30 -11.5 -51t-32.5 -21q-13 0 -21.5 8.5
t-8.5 21.5q0 16 19.5 40t19.5 41q0 22 -20.5 38.5t-49.5 16.5q-64 0 -113.5 -68t-49.5 -164q0 -70 28 -109t80 -39q44 0 80 28t50 77q4 14 9 14z" />
    <glyph glyph-name="sterling" unicode="&#xa3;" horiz-adv-x="559" 
d="M414 431q0 20 24.5 39.5t24.5 37.5q0 21 -24.5 34t-62.5 13q-60 0 -105 -48t-58 -150q-6 -34 -9 -61h180q6 0 6 -8q0 -16 -11 -16h-177q-4 -50 -22.5 -94.5t-42.5 -73.5t-47 -50.5t-38.5 -33.5t-15.5 -15q0 -4 4 -4q1 0 28.5 20.5t68 40.5t73.5 20q30 0 97.5 -19.5
t83.5 -19.5q28 0 46.5 18t27.5 61q3 10 10 10q6 0 6 -6q0 -52 -32 -96.5t-91 -44.5q-30 0 -99 19.5t-98 19.5q-37 0 -83.5 -18.5t-49.5 -18.5q-11 0 -11 10q0 6 16 19q43 37 59 58q44 60 44 150q0 8 -5 48h-73q-6 0 -6 8q0 16 11 16h67q0 120 70 198t173 78q67 0 108 -30
t41 -72q0 -34 -20.5 -54t-49.5 -20q-17 0 -27.5 9.5t-10.5 25.5z" />
    <glyph glyph-name="currency" unicode="&#xa4;" horiz-adv-x="560" 
d="M403 137l68 -69q3 -3 3 -6t-5 -8t-9 -5q-3 0 -5 2l-70 70q-40 -31 -99 -31q-57 0 -97 31l-70 -69q-3 -3 -6 -3t-8 5t-5 9q0 3 2 5l70 70q-35 38 -35 96q0 60 36 99l-71 71q-2 2 -2 5q0 4 4.5 9t9.5 5q3 0 5 -2l71 -71q41 30 96 30q59 0 98 -30l71 71q2 2 5 2q4 0 9 -4.5
t5 -9.5q0 -3 -2 -5l-70 -70q35 -40 35 -100q0 -58 -34 -97zM286 112q55 0 88 33t33 89q0 58 -32 91t-89 33q-54 0 -86.5 -34t-32.5 -90q0 -55 32.5 -88.5t86.5 -33.5z" />
    <glyph glyph-name="yen" unicode="&#xa5;" horiz-adv-x="559" 
d="M619 563q8 0 8 -6q-2 -7 -13 -9q-40 -9 -61.5 -23t-53.5 -54l-171 -214h137q9 0 6 -14q-1 -10 -9 -10h-145q-1 -7 -4.5 -24t-4.5 -25h143q9 0 6 -14q-1 -10 -9 -10h-145q-12 -66 -14 -94.5t2.5 -37.5t20.5 -17q10 -4 14 -7t3 -7q-1 -3 -7 -3q-1 0 -36.5 3t-52.5 3
q-14 0 -36 -1.5t-39.5 -3t-19.5 -1.5q-7 0 -6 7q0 3 21 12q27 8 39 33.5t29 113.5h-144q-9 0 -6 13q2 11 9 11h146l6 31q2 12 1 18h-142q-9 0 -6 13q2 11 9 11h133q-7 22 -62 153q-36 82 -54 106.5t-44 31.5q-13 4 -12 12q2 4 9 4q2 0 36 -3t57 -3q21 0 57.5 3t37.5 3
q4 0 6 -2t1 -4q-1 -3 -17 -11q-23 -7 -26 -22q-7 -32 92 -268l105 135q67 84 73 116q3 18 -6 27.5t-34 14.5q-11 2 -9 10q1 3 9 3q2 0 35 -2.5t52 -2.5q17 0 51 2z" />
    <glyph glyph-name="brokenbar" unicode="&#xa6;" horiz-adv-x="263" 
d="M163 358q-6 0 -9 2t-2 6l66 340q2 8 14 8q6 0 8.5 -2t1.5 -6l-66 -340q-2 -8 -13 -8zM66 -137q-6 0 -8.5 2t-1.5 6l66 340q2 8 14 8q6 0 8.5 -2t1.5 -6l-66 -340q-2 -8 -14 -8z" />
    <glyph glyph-name="section" unicode="&#xa7;" horiz-adv-x="470" 
d="M389 520q0 15 18.5 33t18.5 31q0 18 -26.5 30t-68.5 12q-61 0 -102.5 -31.5t-41.5 -80.5q0 -32 21.5 -52.5t64.5 -34.5l62 -20q54 -17 80 -39.5t26 -59.5q0 -51 -36.5 -84.5t-93.5 -45.5q44 -16 64.5 -37.5t20.5 -56.5q0 -76 -67 -119.5t-155 -43.5q-71 0 -109.5 29.5
t-38.5 74.5q0 29 16.5 47t42.5 18q14 0 23 -8.5t9 -20.5q0 -14 -19 -33t-19 -35q0 -24 27 -41t72 -17q67 0 114 31.5t47 81.5q0 30 -22.5 48.5t-72.5 34.5l-60 20q-102 32 -102 99q0 51 36.5 84t94.5 44q-80 35 -80 108q0 71 60.5 112.5t138.5 41.5q68 0 105.5 -25.5
t37.5 -62.5q0 -26 -15.5 -43t-39.5 -17q-14 0 -22.5 8t-8.5 20zM296 351l-50 15q-53 -3 -82 -26.5t-29 -58.5q0 -27 20.5 -43t63.5 -30l59 -19q51 4 79 27.5t28 59.5q0 28 -21.5 44t-67.5 31z" />
    <glyph glyph-name="dieresis" unicode="&#xa8;" horiz-adv-x="400" 
d="M197 611q19 0 31 -11t12 -29q0 -22 -15 -36t-37 -14q-19 0 -31 11t-12 30q0 22 14.5 35.5t37.5 13.5zM342 611q19 0 31 -11t12 -29q0 -22 -14.5 -36t-37.5 -14q-19 0 -30.5 11t-11.5 30q0 22 14.5 35.5t36.5 13.5z" />
    <glyph glyph-name="copyright" unicode="&#xa9;" horiz-adv-x="743" 
d="M68 281q0 145 105.5 249.5t248.5 104.5q127 0 210 -82.5t83 -205.5q0 -148 -105 -252t-248 -104q-125 0 -209.5 82.5t-84.5 207.5zM363 13q133 0 230 99.5t97 232.5q0 116 -76 192.5t-193 76.5q-133 0 -230 -100t-97 -233q0 -116 76.5 -192t192.5 -76zM525 301q6 0 6 -5
q0 -1 -3.5 -14.5t-12 -49.5t-18.5 -83q0 -7 -8 -7q-6 0 -6 19q0 17 -11 17q-1 0 -42 -18.5t-79 -18.5q-60 0 -99 42.5t-39 106.5q0 87 64.5 150t144.5 63q34 0 66 -12.5t33 -12.5q13 0 17 16q3 9 11 9q5 0 5 -5q0 -1 -7.5 -64t-7.5 -87q0 -6 -9 -6q-6 0 -6 6l-2 24
q-6 59 -27.5 88.5t-68.5 29.5q-66 0 -108 -64t-42 -157q0 -59 24.5 -86t60.5 -27q41 0 78.5 24.5t60.5 78.5l15 36q3 7 10 7z" />
    <glyph glyph-name="ordfeminine" unicode="&#xaa;" horiz-adv-x="325" 
d="M338 460q5 0 4 -7q-7 -33 -21 -47t-37 -14q-45 0 -45 40q0 1 0.5 3t0.5 4q-30 -49 -80 -49q-37 0 -61.5 26t-24.5 68q0 58 40 106.5t97 48.5q59 0 75 -53l19 24q20 26 23 26t3 -4q0 -2 -1 -6t-1 -7l-35 -160q-4 -28 -4 -30q0 -15 12 -15q17 0 30 39q0 7 6 7zM173 410
q25 0 48 26.5t32 72.5q7 34 7 56q0 58 -45 58q-35 0 -59.5 -45t-24.5 -103q0 -65 42 -65zM313 302q8 0 8 -9q0 -15 -11 -15h-264q-8 0 -8 10q0 14 11 14h264z" />
    <glyph glyph-name="guillemotleft" unicode="&#xab;" horiz-adv-x="487" 
d="M223 34q-2 0 -22 20l-118 115q-26 26 -25 44q1 16 10 26t34 28l162 115q28 20 30 20q7 0 7 -6q0 -12 -28 -36l-161 -142l106 -142q14 -20 14 -33q0 -9 -9 -9zM389 34q-2 0 -4 1.5t-7 7t-11 11.5l-117 115q-26 26 -25 44q1 16 9.5 25.5t35.5 28.5l161 115q29 20 30 20
q7 0 7 -6q0 -11 -28 -36l-161 -142l105 -142q15 -20 15 -33q0 -9 -10 -9z" />
    <glyph glyph-name="logicalnot" unicode="&#xac;" horiz-adv-x="560" 
d="M444 287q14 0 14 -13v-125q0 -8 -12 -8t-12 8v114h-318q-8 0 -8 12t8 12h328z" />
    <glyph glyph-name="uni00AD" unicode="&#xad;" horiz-adv-x="344" 
d="M72 225q8 0 45.5 -1t56.5 -1q21 0 61 1t47 1q10 0 10 -12q0 -18 -16 -18q-18 0 -52 0.5t-52 0.5l-106 -1q-10 0 -10 11q0 19 16 19z" />
    <glyph glyph-name="registered" unicode="&#xae;" horiz-adv-x="743" 
d="M68 281q0 145 105.5 249.5t248.5 104.5q127 0 210 -82.5t83 -205.5q0 -148 -105 -252t-248 -104q-125 0 -209.5 82.5t-84.5 207.5zM363 13q133 0 230 99.5t97 232.5q0 116 -76 192.5t-193 76.5q-133 0 -230 -100t-97 -233q0 -116 76.5 -192t192.5 -76zM543 195
q-5 -27 -25.5 -45t-49.5 -18q-33 0 -85 40.5t-72 40.5q-7 0 -8 -10q-7 -41 10 -49q9 -4 11.5 -6t1.5 -5q0 -5 -6 -5q-1 0 -23.5 2t-36.5 2t-35 -2l-21 -2q-4 0 -4 5q1 5 12 10q18 7 26 31t30 136q21 109 22 134.5t-13 32.5q-9 4 -8 8q0 6 7 6q1 0 21 -2t33 -2q14 0 42 2.5
t42 2.5q65 0 102 -33.5t34 -91.5q-4 -67 -58 -113.5t-127 -46.5q-10 0 -26 1.5t-20 1.5v-1q17 -3 69.5 -21t81.5 -18q49 0 65 45q1 4 5 4t5 -10.5t-2 -23.5zM363 478q-11 -13 -35 -133q-17 -90 -18 -98q-2 -11 4 -15.5t21 -4.5q72 0 112 40.5t43 106.5q4 55 -17 84.5
t-61 29.5q-36 0 -49 -10z" />
    <glyph glyph-name="macron" unicode="&#xaf;" horiz-adv-x="400" 
d="M159 566q6 0 42 -1t55 -1q22 0 64 1t49 1q14 0 14 -10q0 -25 -17 -25q-18 0 -53.5 1t-52.5 1q-15 0 -55 -1t-50 -1q-14 0 -14 12q0 23 18 23z" />
    <glyph glyph-name="degree" unicode="&#xb0;" horiz-adv-x="300" 
d="M210 640q46 0 74 -27t28 -71q0 -43 -28.5 -70t-73.5 -27q-44 0 -72.5 26.5t-28.5 70.5t28.5 71t72.5 27zM210 619q-33 0 -53 -21t-20 -56q0 -34 20 -55t53 -21q34 0 54 20.5t20 55.5q0 36 -19.5 56.5t-54.5 20.5z" />
    <glyph glyph-name="plusminus" unicode="&#xb1;" horiz-adv-x="560" 
d="M458 267q6 0 6 -8q0 -16 -11 -16h-153l-30 -153q-2 -8 -13 -8q-6 0 -9 2t-2 6l30 153h-153q-6 0 -6 8q0 16 11 16h153l30 153q2 8 13 8q6 0 9 -2t2 -6l-30 -153h153zM394 9q7 0 7 -9q0 -15 -10 -15h-290q-7 0 -7 9q0 15 10 15h290z" />
    <glyph glyph-name="uni00B2" unicode="&#xb2;" horiz-adv-x="428" 
d="M130 412q-26 0 -29 -25v-18q-2 -13 -17 -13q-12 0 -12 21q0 122 165 179q75 27 100 54.5t25 74.5q0 64 -81 64q-33 0 -58 -13.5t-25 -32.5q0 -8 5.5 -19t5.5 -18q0 -17 -13 -27t-31 -10q-15 0 -24 9t-9 25q0 40 50.5 71t118.5 31q58 0 95.5 -24.5t37.5 -63.5
q0 -89 -169 -132q-158 -36 -174 -144q-4 -19 -5 -31h1q0 6 2 16q3 28 26 47t59 19q29 0 93.5 -17.5t84.5 -17.5q45 0 66 60q3 9 8 9t5 -4q0 -3 -16 -49q-26 -73 -89 -73q-28 0 -101.5 26t-94.5 26z" />
    <glyph glyph-name="uni00B3" unicode="&#xb3;" horiz-adv-x="407" 
d="M265 572q72 -2 112.5 -26t40.5 -64q0 -52 -58.5 -90.5t-144.5 -38.5q-64 0 -99 23.5t-35 57.5q0 27 17.5 43t41.5 16q31 0 31 -24q0 -16 -20.5 -32.5t-20.5 -31.5t21 -26t57 -11q51 0 90.5 31t39.5 87q0 76 -97 76h-26t-19 -0.5t-9 -0.5q-13 0 -13 9q0 15 18 15
q2 0 20 -1t33 -1q50 0 84 27t34 78q0 62 -79 62q-37 0 -58.5 -10t-21.5 -27q0 -6 5 -16.5t5 -17.5q0 -16 -13.5 -26t-30.5 -10q-15 0 -24.5 9t-9.5 25q0 37 46.5 62t110.5 25t102.5 -23t38.5 -59q0 -47 -47 -76t-122 -34z" />
    <glyph glyph-name="acute" unicode="&#xb4;" horiz-adv-x="400" 
d="M159 452q-3 -2 -5 3q0 3 3 7q126 132 144 147q16 14 26 15q28 4 34 -25q3 -20 -30 -42q-108 -74 -167 -103q-4 -2 -5 -2z" />
    <glyph glyph-name="uni00B5" unicode="&#xb5;" horiz-adv-x="479" 
d="M455 398q8 0 6 -8q0 -1 -3 -7t-5.5 -13.5t-7 -22.5t-7.5 -33l-40 -210q-7 -45 -1 -58.5t28 -20.5q7 -2 10 -4.5t2 -6.5t-11 -5q-27 -2 -53 -6.5t-41.5 -8.5t-19.5 -4q-7 0 -5 8q0 2 4 14t10.5 38.5t12.5 60.5q-23 -56 -63 -87t-88 -31q-79 0 -93 83q-3 -17 -8.5 -42
t-8.5 -42q-10 -49 -15.5 -104t-6.5 -63q-5 -29 -44 -29q-16 0 -24.5 9.5t-6.5 23.5q1 6 10.5 38.5t26.5 104.5t35 167l24 122q11 53 8 72t-23 29q-3 2 -9 4q-9 4 -8 10q1 5 11 5q22 0 48.5 4.5t44 8.5t20.5 4q9 0 7 -11q0 -1 -4.5 -11.5t-12.5 -39.5t-16 -74l-19 -92
q-33 -151 68 -151q55 0 98 44t56 116h1q22 117 22.5 146t-19.5 36l-6 1.5t-5 2t-3.5 2t-2.5 2t-1 3t0 3.5q1 6 10 6q29 0 56.5 4.5t43.5 8.5t18 4z" />
    <glyph glyph-name="paragraph" unicode="&#xb6;" horiz-adv-x="481" 
d="M221 -99q55 23 80 61t40 116l108 556q20 0 42 3t23 3q7 0 7 -6q0 -4 -9.5 -14.5t-21.5 -29t-16 -42.5l-88 -448q-15 -83 -49.5 -128t-115.5 -71zM142 -107q-54 0 -86 26t-32 63q0 32 19.5 52t44.5 20q33 0 33 -27q0 -18 -21 -39.5t-21 -36.5q0 -18 18 -30.5t48 -12.5
q91 0 115 114l47 239q1 6 -4 6q-1 0 -11.5 -4t-28.5 -8t-37 -4q-63 0 -106.5 47t-43.5 124q0 94 65 155.5t167 61.5q23 0 56.5 -2.5t44.5 -2.5l-116 -596q-28 -145 -151 -145z" />
    <glyph glyph-name="periodcentered" unicode="&#xb7;" horiz-adv-x="296" 
d="M170 351q24 0 38.5 -13.5t14.5 -37.5q0 -27 -17.5 -44t-45.5 -17q-23 0 -37.5 14t-14.5 37q0 27 17.5 44t44.5 17z" />
    <glyph glyph-name="cedilla" unicode="&#xb8;" horiz-adv-x="400" 
d="M126 -184q-21 0 -36.5 5t-20.5 10t-5 8q0 6 7 6q1 0 6.5 -3t15 -6t20.5 -3q25 0 39.5 14t14.5 37q0 16 -11.5 25.5t-36.5 17.5q-4 1 -4 6q0 3 5 13l28 50h20l-28 -51q77 -13 77 -59q0 -32 -27.5 -51t-63.5 -19z" />
    <glyph glyph-name="uni00B9" unicode="&#xb9;" horiz-adv-x="294" 
d="M291 764q4 0 4 -3q0 -1 -4 -16t-10.5 -42.5t-11.5 -53.5l-34 -172q-12 -54 -6 -75t42 -29q15 -7 15 -10q0 -5 -6 -5l-40 2q-41 3 -67 3q-18 0 -43 -1.5t-42.5 -2.5t-19.5 -1q-4 0 -4 3q0 7 11 9q52 9 65.5 23.5t22.5 61.5l33 171q12 53 1.5 70.5t-61.5 22.5q-7 0 -7 5
q0 8 8 8q39 0 74.5 8t56 16t23.5 8z" />
    <glyph glyph-name="ordmasculine" unicode="&#xba;" horiz-adv-x="354" 
d="M202 392q-49 0 -77.5 27.5t-28.5 71.5q0 54 44 100t106 46q49 0 77 -27t28 -68q0 -58 -43.5 -104t-105.5 -46zM204 405q34 0 57 37q31 51 31 117t-48 66q-33 0 -56 -37q-33 -47 -33 -115t49 -68zM68 278q-8 0 -8 10q0 14 11 14h250q8 0 8 -9q0 -15 -11 -15h-250z" />
    <glyph glyph-name="guillemotright" unicode="&#xbb;" horiz-adv-x="487" 
d="M33 36q-7 0 -7 6q0 9 29 34l161 142l-106 142q-16 21 -16 30q0 10 9 10q6 0 25 -18l115 -115q28 -26 27 -45q0 -11 -6.5 -20t-12.5 -13.5t-27 -19.5l-160 -115q-25 -18 -31 -18zM200 36q-7 0 -7 6q0 9 29 34l161 142l-106 142q-16 21 -16 30q0 10 9 10q6 0 25 -18
l115 -115q28 -26 27 -45q-1 -16 -10 -25t-36 -28l-160 -115q-25 -18 -31 -18z" />
    <glyph glyph-name="onequarter" unicode="&#xbc;" horiz-adv-x="860" 
d="M590 676q0 -4 -3 -11l-320 -706q-5 -10 -17 -10q-7 0 -7 7q0 1 2 9l322 706q5 11 15 11q8 0 8 -6zM265 243q0 -5 -6 -5l-41 2q-40 3 -66 3q-18 0 -43 -1.5t-43 -2.5t-20 -1q-4 0 -4 3q0 6 11 8q52 9 65.5 24t22.5 62l34 170q12 54 1.5 71t-61.5 22q-8 2 -8 6q0 8 9 8
q39 0 74.5 8t55.5 16t23 8q5 0 5 -3q0 -1 -4 -16.5t-10.5 -42.5t-11.5 -53l-34 -173q-12 -53 -6.5 -74t41.5 -30q16 -5 16 -9zM801 118q13 0 13 -8q0 -9 -3.5 -12.5t-14.5 -4.5h-51l-1 -7q-9 -39 -4.5 -54t32.5 -24q14 -4 14 -8q0 -5 -6 -5l-35 3q-35 2 -57 2q-20 0 -52 -2
l-31 -3q-6 0 -6 4q0 2 16 8q31 10 40 23t17 54l2 9h-185q-9 0 -9 6t10 14l276 268q3 2 5.5 5t4 4.5l3.5 3.5t3 2.5t2.5 1.5t2.5 1.5t2.5 1t2.5 0.5h3q11 0 9 -9q-6 -20 -22 -106l-32 -168h51zM510 118h169l38 195q0 3 -1 3q-2 0 -11 -8z" />
    <glyph glyph-name="onehalf" unicode="&#xbd;" horiz-adv-x="930" 
d="M250 -51q-7 0 -7 7q0 1 2 9l322 706q5 11 15 11q8 0 8 -6q0 -4 -3 -11l-320 -706q-5 -10 -17 -10zM269 644q5 0 5 -3q0 -1 -4 -16.5t-10.5 -42.5t-11.5 -53l-34 -173q-12 -53 -6.5 -74t41.5 -30q16 -5 16 -9q0 -5 -6 -5l-41 2q-40 3 -66 3q-18 0 -43 -1.5t-43 -2.5
t-20 -1q-4 0 -4 3q0 6 11 8q52 9 65.5 24t22.5 62l34 170q12 54 1.5 71t-61.5 22q-8 2 -8 6q0 8 9 8q39 0 74.5 8t55.5 16t23 8zM573 47q-25 0 -28 -24q-1 -3 -1 -9v-9q-2 -13 -17 -13q-12 0 -12 21q0 121 165 179q75 26 100.5 53.5t25.5 74.5q0 65 -81 65q-34 0 -59 -13.5
t-25 -32.5q0 -8 6 -19t6 -19q0 -17 -13.5 -27t-30.5 -10q-33 0 -33 35q0 40 50 70.5t118 30.5q58 0 96 -24t38 -63q0 -89 -170 -132q-157 -36 -173 -145q-1 -3 -6 -31h2q0 7 2 17q2 28 25 47t59 19q29 0 94 -17.5t84 -17.5q24 0 39.5 13.5t26.5 46.5q3 9 8 9t5 -4
q0 -7 -16 -50q-26 -73 -89 -73q-28 0 -101.5 26t-94.5 26z" />
    <glyph glyph-name="threequarters" unicode="&#xbe;" horiz-adv-x="942" 
d="M671 676q0 -4 -3 -11l-320 -706q-5 -10 -17 -10q-7 0 -7 7q0 1 2 9l322 706q5 11 15 11q8 0 8 -6zM397 362q0 -52 -58.5 -90.5t-144.5 -38.5q-64 0 -99 23t-35 57q0 27 17.5 43t40.5 16q32 0 32 -23q0 -16 -20.5 -32.5t-20.5 -31.5t21 -26t57 -11q51 0 90.5 31t39.5 87
q0 75 -97 75q-14 0 -26 -0.5t-19.5 -0.5h-8.5q-13 0 -13 10q0 14 17 14q2 0 21 -0.5t33 -0.5q50 0 84 27t34 78q0 62 -79 62q-37 0 -58.5 -10.5t-21.5 -26.5q0 -6 4.5 -16.5t4.5 -17.5q0 -16 -13 -26t-30 -10q-16 0 -25.5 9t-9.5 24q0 37 47 62.5t111 25.5t102.5 -23
t38.5 -60q0 -45 -47 -74.5t-121 -34.5q72 -2 112 -26t40 -64zM882 118q13 0 13 -8q0 -9 -3.5 -12.5t-14.5 -4.5h-51l-1 -7q-9 -39 -4.5 -54t32.5 -24q14 -4 14 -8q0 -5 -6 -5l-35 3q-35 2 -57 2q-20 0 -51 -2l-32 -3q-6 0 -6 4q0 2 16 8q31 10 40 23t17 54l2 9h-185
q-9 0 -9 6t10 14l276 268q3 2 5.5 5t4 4.5l3.5 3.5t3 2.5t2.5 1.5t2.5 1.5t2.5 1t2.5 0.5h3q10 0 9 -9q-6 -20 -22 -106l-32 -168h51zM591 118h169l38 195q0 3 -1 3q-2 0 -11 -8z" />
    <glyph glyph-name="questiondown" unicode="&#xbf;" horiz-adv-x="511" 
d="M348 488q-23 0 -36.5 13t-13.5 36q0 26 16.5 42.5t43.5 16.5q22 0 36 -13.5t14 -35.5q0 -26 -17.5 -42.5t-42.5 -16.5zM345 405l-7 -39q-9 -46 -29.5 -73.5t-68.5 -47.5q-73 -33 -99.5 -73.5t-26.5 -98.5q0 -55 32.5 -84.5t89.5 -29.5q50 0 86 21t36 48q0 9 -8 23.5
t-8 24.5q0 22 16 35t38 13q40 0 40 -43q0 -55 -62.5 -96t-149.5 -41q-82 0 -135.5 37t-53.5 96q0 123 177 180q50 16 72.5 39.5t30.5 66.5l8 42h22z" />
    <glyph glyph-name="Agrave" unicode="&#xc0;" horiz-adv-x="608" 
d="M468 674q-6 0 -73 21.5t-119 40.5q-43 16 -43 41q0 11 8.5 18.5t21.5 7.5q15 0 43 -16t129 -81q19 -12 30 -19q7 -4 7 -9q0 -4 -4 -4zM-36 -6q-9 0 -9 7q0 6 14 10q34 10 51 28.5t53 84.5l227 431q14 30 14 32q1 6 -3.5 10.5t-19.5 9.5l-7.5 3t-4 3t-1.5 5q1 6 12 8
q34 0 64 6t46.5 11.5t17.5 5.5q8 0 6 -7q0 -3 -4.5 -8.5t-5.5 -10.5q-2 -6 3 -27q49 -250 106 -497q10 -44 19.5 -60t28.5 -23q24 -9 24 -15t-10 -6q-3 0 -41.5 2.5t-62.5 2.5q-22 0 -60.5 -2.5t-40.5 -2.5q-9 0 -9 6t19 10q40 12 46 44q3 26 -20 139q-1 8 -15 11
q-19 3 -145 3q-94 0 -111 -3q-10 0 -14 -10l-45 -88q-11 -24 -14 -41q-7 -39 44 -56q14 -4 14 -9q-1 -7 -10 -7q-2 0 -36.5 3t-53.5 3q-16 0 -40.5 -3t-25.5 -3zM265 225q65 0 128 3q14 1 14 7q1 3 -3 22q-34 147 -69 324q-1 4 -2 4l-3 -3l-174 -337l-6 -13q0 -4 10 -5
q18 -2 105 -2z" />
    <glyph glyph-name="Aacute" unicode="&#xc1;" horiz-adv-x="608" 
d="M259 673q-4 0 -4 4q0 5 7 9q160 103 183 112q11 4 19 4q13 0 21.5 -7.5t8.5 -18.5q0 -25 -43 -41q-52 -19 -119 -40.5t-73 -21.5zM-36 -6q-9 0 -9 7q0 6 14 10q34 10 51 28.5t53 84.5l227 431q14 30 14 32q1 6 -3.5 10.5t-19.5 9.5l-7.5 3t-4 3t-1.5 5q1 6 12 8
q34 0 64 6t46.5 11.5t17.5 5.5q8 0 6 -7q0 -3 -4.5 -8.5t-5.5 -10.5q-2 -6 3 -27q49 -250 106 -497q10 -44 19.5 -60t28.5 -23q24 -9 24 -15t-10 -6q-3 0 -41.5 2.5t-62.5 2.5q-22 0 -60.5 -2.5t-40.5 -2.5q-9 0 -9 6t19 10q40 12 46 44q3 26 -20 139q-1 8 -15 11
q-19 3 -145 3q-94 0 -111 -3q-10 0 -14 -10l-45 -88q-11 -24 -14 -41q-7 -39 44 -56q14 -4 14 -9q-1 -7 -10 -7q-2 0 -36.5 3t-53.5 3q-16 0 -40.5 -3t-25.5 -3zM265 225q65 0 128 3q14 1 14 7q1 3 -3 22q-34 147 -69 324q-1 4 -2 4l-3 -3l-174 -337l-6 -13q0 -4 10 -5
q18 -2 105 -2z" />
    <glyph glyph-name="Acircumflex" unicode="&#xc2;" horiz-adv-x="608" 
d="M233 674q-8 0 -6 7t56 52q8 6 25 20l1 1l1 1l1 1h1l1 1l1 1l1 1h1v1l1 1l1 1l1 1h1l1 1l1 1l1 1l1 1h1l1 1l1 1l1 1l1 1h1l2 2q36 30 49 32q4 1 7 1q5 0 9.5 -1.5t9 -5.5t7 -6t8 -9t7.5 -9q50 -58 61 -73t10 -21q0 -7 -8 -7q-2 0 -4 0.5t-6 3t-8.5 6t-13.5 10t-18.5 13.5
t-26.5 19t-36 25h-2q-31 -17 -58.5 -32t-40.5 -22.5t-23.5 -13.5t-14.5 -7.5t-7 -1.5zM-36 -6q-9 0 -9 7q0 6 14 10q34 10 51 28.5t53 84.5l227 431q14 30 14 32q1 6 -3.5 10.5t-19.5 9.5l-7.5 3t-4 3t-1.5 5q1 6 12 8q34 0 64 6t46.5 11.5t17.5 5.5q8 0 6 -7
q0 -3 -4.5 -8.5t-5.5 -10.5q-2 -6 3 -27q49 -250 106 -497q10 -44 19.5 -60t28.5 -23q24 -9 24 -15t-10 -6q-3 0 -41.5 2.5t-62.5 2.5q-22 0 -60.5 -2.5t-40.5 -2.5q-9 0 -9 6t19 10q40 12 46 44q3 26 -20 139q-1 8 -15 11q-19 3 -145 3q-94 0 -111 -3q-10 0 -14 -10
l-45 -88q-11 -24 -14 -41q-7 -39 44 -56q14 -4 14 -9q-1 -7 -10 -7q-2 0 -36.5 3t-53.5 3q-16 0 -40.5 -3t-25.5 -3zM265 225q65 0 128 3q14 1 14 7q1 3 -3 22q-34 147 -69 324q-1 4 -2 4l-3 -3l-174 -337l-6 -13q0 -4 10 -5q18 -2 105 -2z" />
    <glyph glyph-name="Atilde" unicode="&#xc3;" horiz-adv-x="608" 
d="M248 680q-7 0 -4 9q9 39 29.5 67.5t53.5 28.5q22 0 66 -23q39 -22 57 -22q29 0 43 33q4 10 10 10t6 -7q0 -27 -22.5 -56.5t-55.5 -29.5q-23 0 -63 22q-38 21 -57 21q-34 0 -51 -42q-4 -11 -12 -11zM-36 -6q-9 0 -9 7q0 6 14 10q34 10 51 28.5t53 84.5l227 431
q14 30 14 32q1 6 -3.5 10.5t-19.5 9.5l-7.5 3t-4 3t-1.5 5q1 6 12 8q34 0 64 6t46.5 11.5t17.5 5.5q8 0 6 -7q0 -3 -4.5 -8.5t-5.5 -10.5q-2 -6 3 -27q49 -250 106 -497q10 -44 19.5 -60t28.5 -23q24 -9 24 -15t-10 -6q-3 0 -41.5 2.5t-62.5 2.5q-22 0 -60.5 -2.5
t-40.5 -2.5q-9 0 -9 6t19 10q40 12 46 44q3 26 -20 139q-1 8 -15 11q-19 3 -145 3q-94 0 -111 -3q-10 0 -14 -10l-45 -88q-11 -24 -14 -41q-7 -39 44 -56q14 -4 14 -9q-1 -7 -10 -7q-2 0 -36.5 3t-53.5 3q-16 0 -40.5 -3t-25.5 -3zM265 225q65 0 128 3q14 1 14 7q1 3 -3 22
q-34 147 -69 324q-1 4 -2 4l-3 -3l-174 -337l-6 -13q0 -4 10 -5q18 -2 105 -2z" />
    <glyph glyph-name="Adieresis" unicode="&#xc4;" horiz-adv-x="608" 
d="M311 794q19 0 29.5 -10t10.5 -27q0 -23 -16.5 -38t-41.5 -15q-17 0 -27.5 10t-10.5 27q0 23 16 38t40 15zM457 794q18 0 28.5 -10t10.5 -27q0 -23 -16.5 -38t-40.5 -15q-17 0 -28 10t-11 27q0 23 16.5 38t40.5 15zM-36 -6q-9 0 -9 7q0 6 14 10q34 10 51 28.5t53 84.5
l227 431q14 30 14 32q1 6 -3.5 10.5t-19.5 9.5l-7.5 3t-4 3t-1.5 5q1 6 12 8q34 0 64 6t46.5 11.5t17.5 5.5q8 0 6 -7q0 -3 -4.5 -8.5t-5.5 -10.5q-2 -6 3 -27q49 -250 106 -497q10 -44 19.5 -60t28.5 -23q24 -9 24 -15t-10 -6q-3 0 -41.5 2.5t-62.5 2.5q-22 0 -60.5 -2.5
t-40.5 -2.5q-9 0 -9 6t19 10q40 12 46 44q3 26 -20 139q-1 8 -15 11q-19 3 -145 3q-94 0 -111 -3q-10 0 -14 -10l-45 -88q-11 -24 -14 -41q-7 -39 44 -56q14 -4 14 -9q-1 -7 -10 -7q-2 0 -36.5 3t-53.5 3q-16 0 -40.5 -3t-25.5 -3zM265 225q65 0 128 3q14 1 14 7q1 3 -3 22
q-34 147 -69 324q-1 4 -2 4l-3 -3l-174 -337l-6 -13q0 -4 10 -5q18 -2 105 -2z" />
    <glyph glyph-name="Aring" unicode="&#xc5;" horiz-adv-x="608" 
d="M364 687q-30 0 -49 16.5t-19 42.5q0 34 28 57t67 23q31 0 49.5 -16t18.5 -42q0 -35 -27.5 -58t-67.5 -23zM366 700q26 0 41.5 19.5t15.5 51.5q0 42 -35 42q-26 0 -41 -19.5t-15 -52.5q0 -41 34 -41zM-36 -6q-9 0 -9 7q0 6 14 10q34 10 51 28.5t53 84.5l227 431
q14 30 14 32q1 6 -3.5 10.5t-19.5 9.5l-7.5 3t-4 3t-1.5 5q1 6 12 8q34 0 64 6t46.5 11.5t17.5 5.5q8 0 6 -7q0 -3 -4.5 -8.5t-5.5 -10.5q-2 -6 3 -27q49 -250 106 -497q10 -44 19.5 -60t28.5 -23q24 -9 24 -15t-10 -6q-3 0 -41.5 2.5t-62.5 2.5q-22 0 -60.5 -2.5
t-40.5 -2.5q-9 0 -9 6t19 10q40 12 46 44q3 26 -20 139q-1 8 -15 11q-19 3 -145 3q-94 0 -111 -3q-10 0 -14 -10l-45 -88q-11 -24 -14 -41q-7 -39 44 -56q14 -4 14 -9q-1 -7 -10 -7q-2 0 -36.5 3t-53.5 3q-16 0 -40.5 -3t-25.5 -3zM265 225q65 0 128 3q14 1 14 7q1 3 -3 22
q-34 147 -69 324q-1 4 -2 4l-3 -3l-174 -337l-6 -13q0 -4 10 -5q18 -2 105 -2z" />
    <glyph glyph-name="AE" unicode="&#xc6;" horiz-adv-x="756" 
d="M670 28q0 -12 4 -18.5t4 -8.5q0 -8 -8 -8q-9 0 -95 1.5t-145 1.5q-25 0 -79.5 -1.5t-57.5 -1.5q-7 0 -7 5q0 6 3.5 8t15.5 4q37 7 52 27.5t16 74.5q3 32 3 88q0 10 -12 10q-96 3 -100 3q-15 0 -44 -0.5t-36 -0.5q-16 0 -24 -13q-9 -14 -24 -37q-37 -57 -47.5 -76
t-10.5 -33q0 -29 49 -43q9 -3 9 -7q0 -9 -9 -9q-1 0 -36 3t-56 3q-17 0 -43 -3l-26 -3q-9 0 -9 6q0 8 11 10q38 7 59 26t72 97q271 415 276 423q10 18 10 26q0 12 -14 24q-11 11 -11 18q0 10 13 10q3 0 43.5 -3t79.5 -3q27 0 93 2.5t121.5 5t56.5 2.5q6 0 6 -5
q0 -3 -5.5 -10t-12 -27.5t-8.5 -55.5q-2 -10 -3 -25t-1.5 -26.5t-0.5 -12.5q-2 -8 -8 -8q-7 0 -7 12q-10 90 -34 113t-105 23q-73 0 -93.5 -6t-24.5 -27q-7 -38 -7 -225q0 -11 6 -14t19 -3q47 0 70.5 9t35 27t28.5 63q4 8 10 8q4 0 4 -5q0 -3 -3.5 -17.5t-9.5 -41t-10 -52.5
q-5 -30 -7 -55t-2.5 -37.5t-1.5 -15.5q-1 -7 -7 -7t-7 24q-3 49 -22 66t-81 17q-13 0 -18 -11t-5 -53q0 -145 4 -209q2 -23 15 -32t53 -9q62 0 92.5 32.5t65.5 139.5q5 16 14 16q6 0 6 -6q0 -2 -10.5 -32.5t-21 -69.5t-10.5 -62zM364 238q12 1 13 11v1q5 23 5 154
q3 105 3 125q0 7 -3 7q-4 0 -9 -7q-30 -52 -178 -281q-4 -7 -4 -8q0 -2 9 -3q28 -2 79 -2q58 0 85 3z" />
    <glyph glyph-name="Ccedilla" unicode="&#xc7;" horiz-adv-x="596" 
d="M602 644q6 0 6 -6q0 -1 -2.5 -11.5t-7 -38t-8.5 -64.5q-5 -43 -7 -77t-2.5 -46t-1.5 -14q-1 -7 -6 -7q-8 0 -9 10l-2 32q-7 109 -43 158.5t-106 49.5q-87 0 -156 -81q-46 -57 -75.5 -144t-29.5 -189q0 -112 42.5 -164t106.5 -52q69 0 126.5 46.5t90.5 126.5l19 46
q6 14 13 14q6 0 6 -6q0 -2 -8 -32t-20.5 -87t-21.5 -117q-1 -7 -6 -7q-7 0 -7 30q0 28 -15 28q-11 0 -58 -23t-88 -30l-22 -41q77 -13 77 -59q0 -32 -27.5 -51t-63.5 -19q-21 0 -36.5 5t-20.5 10t-5 8q0 6 7 6q1 0 6.5 -3t15 -6t20.5 -3q25 0 39.5 14t14.5 37
q0 16 -11.5 25.5t-36.5 17.5q-4 1 -4 6q0 3 5 13l21 37q-7 -1 -22 -1q-103 0 -164 72.5t-61 188.5q0 162 104.5 280t240.5 118q41 0 75 -12t54 -24.5t28 -12.5t12 6t10 25q6 18 14 18z" />
    <glyph glyph-name="Egrave" unicode="&#xc8;" horiz-adv-x="562" 
d="M292 736q-43 16 -43 41q0 11 8.5 18.5t21.5 7.5q15 0 43 -16t129 -81q19 -12 30 -19q7 -4 7 -9q0 -4 -4 -4q-6 0 -73 21.5t-119 40.5zM580 634q6 0 6 -4q0 -3 -4 -8t-9 -15.5t-8 -23.5q-4 -20 -5.5 -46.5t-2 -45t-0.5 -19.5q-1 -8 -8 -8t-9 12q-7 90 -38.5 115.5
t-117.5 25.5q-54 0 -76 -4t-33 -15q-11 -12 -21.5 -53.5t-35.5 -181.5v-1v-1q-1 -1 -1 -2v-3q0 -12 13 -15.5t54 -3.5q64 0 88 17.5t47 72.5q3 8 9 8q5 0 4 -7q-15 -53 -23 -100q-5 -27 -8 -50t-3.5 -35t-1.5 -14q-1 -7 -7 -7q-5 0 -6 9q-1 3 -1 10.5v10.5q-3 40 -23.5 54.5
t-77.5 14.5q-40 0 -55 -3t-19 -14q-36 -207 -36 -247q0 -14 4 -24q7 -12 26 -16t69 -4q100 0 145 33.5t85 143.5q6 13 13 13q6 0 5 -8l-8 -24q-8 -24 -18 -59.5t-15 -63.5q-1 -5 -1 -16q0 -9 3 -17t3 -10q0 -4 -2 -6t-7 -2q-6 0 -54 0.5t-122 1.5t-140 1q-41 0 -73.5 -0.5
t-49 -1.5t-17.5 -1q-7 0 -6 6q1 5 21 12q26 9 37 31q16 33 53 237q3 13 6 32q38 213 38 254q0 23 -5.5 31.5t-20.5 13.5q-16 5 -16 12q0 8 9 8q2 0 43 -2t72 -2q73 0 149 1t126 2t57 1z" />
    <glyph glyph-name="Eacute" unicode="&#xc9;" horiz-adv-x="562" 
d="M275 673q-4 0 -4 4q0 5 7 9q160 103 183 112q11 4 19 4q13 0 21.5 -7.5t8.5 -18.5q0 -25 -43 -41q-52 -19 -119 -40.5t-73 -21.5zM580 634q6 0 6 -4q0 -3 -4 -8t-9 -15.5t-8 -23.5q-4 -20 -5.5 -46.5t-2 -45t-0.5 -19.5q-1 -8 -8 -8t-9 12q-7 90 -38.5 115.5t-117.5 25.5
q-54 0 -76 -4t-33 -15q-11 -12 -21.5 -53.5t-35.5 -181.5v-1v-1q-1 -1 -1 -2v-3q0 -12 13 -15.5t54 -3.5q64 0 88 17.5t47 72.5q3 8 9 8q5 0 4 -7q-15 -53 -23 -100q-5 -27 -8 -50t-3.5 -35t-1.5 -14q-1 -7 -7 -7q-5 0 -6 9q-1 3 -1 10.5v10.5q-3 40 -23.5 54.5t-77.5 14.5
q-40 0 -55 -3t-19 -14q-36 -207 -36 -247q0 -14 4 -24q7 -12 26 -16t69 -4q100 0 145 33.5t85 143.5q6 13 13 13q6 0 5 -8l-8 -24q-8 -24 -18 -59.5t-15 -63.5q-1 -5 -1 -16q0 -9 3 -17t3 -10q0 -4 -2 -6t-7 -2q-6 0 -54 0.5t-122 1.5t-140 1q-41 0 -73.5 -0.5t-49 -1.5
t-17.5 -1q-7 0 -6 6q1 5 21 12q26 9 37 31q16 33 53 237q3 13 6 32q38 213 38 254q0 23 -5.5 31.5t-20.5 13.5q-16 5 -16 12q0 8 9 8q2 0 43 -2t72 -2q73 0 149 1t126 2t57 1z" />
    <glyph glyph-name="Ecircumflex" unicode="&#xca;" horiz-adv-x="562" 
d="M249 674q-8 0 -6 7t56 52q8 6 25 20l1 1l1 1l1 1h1l1 1l1 1l1 1h1v1l1 1l1 1l1 1h1l1 1l1 1l1 1l1 1h1l1 1l1 1l1 1l1 1h1l2 2q36 30 49 32q4 1 7 1q5 0 9.5 -1.5t9 -5.5t7 -6t8 -9t7.5 -9q50 -58 61 -73t10 -21q0 -7 -8 -7q-2 0 -4 0.5t-6 3t-8.5 6t-13.5 10t-18.5 13.5
t-26.5 19t-36 25h-2q-31 -17 -58.5 -32t-40.5 -22.5t-23.5 -13.5t-14.5 -7.5t-7 -1.5zM580 634q6 0 6 -4q0 -3 -4 -8t-9 -15.5t-8 -23.5q-4 -20 -5.5 -46.5t-2 -45t-0.5 -19.5q-1 -8 -8 -8t-9 12q-7 90 -38.5 115.5t-117.5 25.5q-54 0 -76 -4t-33 -15q-11 -12 -21.5 -53.5
t-35.5 -181.5v-1v-1q-1 -1 -1 -2v-3q0 -12 13 -15.5t54 -3.5q64 0 88 17.5t47 72.5q3 8 9 8q5 0 4 -7q-15 -53 -23 -100q-5 -27 -8 -50t-3.5 -35t-1.5 -14q-1 -7 -7 -7q-5 0 -6 9q-1 3 -1 10.5v10.5q-3 40 -23.5 54.5t-77.5 14.5q-40 0 -55 -3t-19 -14q-36 -207 -36 -247
q0 -14 4 -24q7 -12 26 -16t69 -4q100 0 145 33.5t85 143.5q6 13 13 13q6 0 5 -8l-8 -24q-8 -24 -18 -59.5t-15 -63.5q-1 -5 -1 -16q0 -9 3 -17t3 -10q0 -4 -2 -6t-7 -2q-6 0 -54 0.5t-122 1.5t-140 1q-41 0 -73.5 -0.5t-49 -1.5t-17.5 -1q-7 0 -6 6q1 5 21 12q26 9 37 31
q16 33 53 237q3 13 6 32q38 213 38 254q0 23 -5.5 31.5t-20.5 13.5q-16 5 -16 12q0 8 9 8q2 0 43 -2t72 -2q73 0 149 1t126 2t57 1z" />
    <glyph glyph-name="Edieresis" unicode="&#xcb;" horiz-adv-x="562" 
d="M309 704q-17 0 -27.5 10t-10.5 27q0 23 16 38t40 15q19 0 29.5 -10t10.5 -27q0 -23 -16.5 -38t-41.5 -15zM455 704q-17 0 -28 10t-11 27q0 23 16.5 38t40.5 15q18 0 28.5 -10t10.5 -27q0 -23 -16.5 -38t-40.5 -15zM580 634q6 0 6 -4q0 -3 -4 -8t-9 -15.5t-8 -23.5
q-4 -20 -5.5 -46.5t-2 -45t-0.5 -19.5q-1 -8 -8 -8t-9 12q-7 90 -38.5 115.5t-117.5 25.5q-54 0 -76 -4t-33 -15q-11 -12 -21.5 -53.5t-35.5 -181.5v-1v-1q-1 -1 -1 -2v-3q0 -12 13 -15.5t54 -3.5q64 0 88 17.5t47 72.5q3 8 9 8q5 0 4 -7q-15 -53 -23 -100q-5 -27 -8 -50
t-3.5 -35t-1.5 -14q-1 -7 -7 -7q-5 0 -6 9q-1 3 -1 10.5v10.5q-3 40 -23.5 54.5t-77.5 14.5q-40 0 -55 -3t-19 -14q-36 -207 -36 -247q0 -14 4 -24q7 -12 26 -16t69 -4q100 0 145 33.5t85 143.5q6 13 13 13q6 0 5 -8l-8 -24q-8 -24 -18 -59.5t-15 -63.5q-1 -5 -1 -16
q0 -9 3 -17t3 -10q0 -4 -2 -6t-7 -2q-6 0 -54 0.5t-122 1.5t-140 1q-41 0 -73.5 -0.5t-49 -1.5t-17.5 -1q-7 0 -6 6q1 5 21 12q26 9 37 31q16 33 53 237q3 13 6 32q38 213 38 254q0 23 -5.5 31.5t-20.5 13.5q-16 5 -16 12q0 8 9 8q2 0 43 -2t72 -2q73 0 149 1t126 2t57 1z
" />
    <glyph glyph-name="Igrave" unicode="&#xcc;" horiz-adv-x="310" 
d="M345 674q-6 0 -73 21.5t-119 40.5q-43 16 -43 41q0 11 8.5 18.5t21.5 7.5q15 0 43 -16t129 -81q19 -12 30 -19q7 -4 7 -9q0 -4 -4 -4zM31 -4q-6 0 -6 6q2 6 20 12q25 8 38.5 54t53.5 251q44 228 43 262q0 29 -18 36q-16 5 -15 9v2q0 6 8 6q2 0 34 -2t48 -2t49.5 2t35.5 2
q6 0 6 -6q-2 -6 -20 -11q-25 -9 -38 -54t-52 -244q-45 -236 -45 -270q0 -29 18 -35q16 -6 15 -10v-2q0 -6 -8 -6q-2 0 -34 2t-49 2t-50 -2t-34 -2z" />
    <glyph glyph-name="Iacute" unicode="&#xcd;" horiz-adv-x="310" 
d="M137 673q-4 0 -4 4q0 5 7 9q160 103 183 112q11 4 19 4q13 0 21.5 -7.5t8.5 -18.5q0 -25 -43 -41q-52 -19 -119 -40.5t-73 -21.5zM31 -4q-6 0 -6 6q2 6 20 12q25 8 38.5 54t53.5 251q44 228 43 262q0 29 -18 36q-16 5 -15 9v2q0 6 8 6q2 0 34 -2t48 -2t49.5 2t35.5 2
q6 0 6 -6q-2 -6 -20 -11q-25 -9 -38 -54t-52 -244q-45 -236 -45 -270q0 -29 18 -35q16 -6 15 -10v-2q0 -6 -8 -6q-2 0 -34 2t-49 2t-50 -2t-34 -2z" />
    <glyph glyph-name="Icircumflex" unicode="&#xce;" horiz-adv-x="310" 
d="M137 674q-7 0 -5 7q1 10 91 93q5 4 12 10.5t10.5 9.5t8.5 6.5t9 5t9 1.5t9 -1.5t7.5 -5t5.5 -6.5t6.5 -9.5t6.5 -9.5q57 -83 56 -92q0 -9 -7 -9q-2 0 -3.5 0.5t-5 3t-7.5 6t-11.5 10t-15.5 13.5t-22.5 19t-29.5 25h-1q-20 -12 -38 -24t-29 -19t-21 -13.5t-15 -10t-9.5 -6
t-6.5 -3.5t-4 -1zM31 -4q-6 0 -6 6q2 6 20 12q25 8 38.5 54t53.5 251q44 228 43 262q0 29 -18 36q-16 5 -15 9v2q0 6 8 6q2 0 34 -2t48 -2t49.5 2t35.5 2q6 0 6 -6q-2 -6 -20 -11q-25 -9 -38 -54t-52 -244q-45 -236 -45 -270q0 -29 18 -35q16 -6 15 -10v-2q0 -6 -8 -6
q-2 0 -34 2t-49 2t-50 -2t-34 -2z" />
    <glyph glyph-name="Idieresis" unicode="&#xcf;" horiz-adv-x="310" 
d="M188 794q19 0 29.5 -10t10.5 -27q0 -23 -16.5 -38t-41.5 -15q-17 0 -27.5 10t-10.5 27q0 23 16 38t40 15zM334 794q18 0 28.5 -10t10.5 -27q0 -23 -16.5 -38t-40.5 -15q-17 0 -28 10t-11 27q0 23 16.5 38t40.5 15zM31 -4q-6 0 -6 6q2 6 20 12q25 8 38.5 54t53.5 251
q44 228 43 262q0 29 -18 36q-16 5 -15 9v2q0 6 8 6q2 0 34 -2t48 -2t49.5 2t35.5 2q6 0 6 -6q-2 -6 -20 -11q-25 -9 -38 -54t-52 -244q-45 -236 -45 -270q0 -29 18 -35q16 -6 15 -10v-2q0 -6 -8 -6q-2 0 -34 2t-49 2t-50 -2t-34 -2z" />
    <glyph glyph-name="Eth" unicode="&#xd0;" horiz-adv-x="660" 
d="M368 639q139 0 212 -88t54 -222q-19 -145 -130.5 -242.5t-260.5 -97.5q-20 0 -70.5 5.5t-72.5 5.5q-17 0 -48 -2t-32 -2q-7 0 -7 8q1 5 25 14q18 8 30.5 52.5t48.5 231.5q-13 0 -34.5 -1t-26.5 -1q-13 0 -13 16q0 19 17 19q5 0 27.5 -1.5t34.5 -1.5q45 228 43 259
q-1 19 -13 25q-18 9 -18 13q0 5 7 5q1 0 30.5 -2t48.5 -2q18 0 74 4.5t74 4.5zM542 321q12 57 12 109q0 101 -50 148t-134 47q-90 0 -110 -39q-11 -19 -57 -254q19 0 60.5 1.5t52.5 1.5q15 0 15 -15q0 -8 -4.5 -14.5t-11.5 -5.5q-39 2 -117 4q-47 -250 -43 -273
q5 -28 93 -28q103 0 181.5 78.5t112.5 239.5z" />
    <glyph glyph-name="Ntilde" unicode="&#xd1;" horiz-adv-x="649" 
d="M337 680q-7 0 -4 9q9 39 29.5 67.5t53.5 28.5q22 0 66 -23q38 -22 57 -22q29 0 43 33q4 10 10 10t6 -7q0 -27 -22.5 -56.5t-55.5 -29.5q-23 0 -63 22q-38 21 -57 21q-34 0 -51 -42q-4 -11 -12 -11zM515 -18q-6 0 -15 14q-50 97 -301 537q-9 14 -13 14t-7 -9l-76 -401
q-12 -62 -4 -87.5t45 -38.5q8 -2 11 -4t2 -6q0 -7 -9 -7q-3 0 -32 3t-46 3q-15 0 -42.5 -3t-32.5 -3q-7 0 -7 6q1 6 16 10q34 9 52.5 36.5t32.5 98.5l71 374q8 42 8 58q0 25 -28 35q-33 9 -33 17q0 7 7 7q1 0 21 -3t29 -3q11 0 26 3t20 3q17 0 32 -26q38 -62 159.5 -274
t124.5 -217q5 -11 8 -11t4 6l73 391q10 56 2 79t-37 34q-17 5 -17 12q0 6 8 6q1 0 32 -3t44 -3q15 0 40 3t26 3q6 0 6 -5t-18 -11q-29 -9 -45 -34t-26 -81l-96 -504q-4 -19 -15 -19z" />
    <glyph glyph-name="Ograve" unicode="&#xd2;" horiz-adv-x="665" 
d="M329 736q-43 16 -43 41q0 11 8.5 18.5t21.5 7.5q15 0 43 -16t129 -81q19 -12 30 -19q7 -4 7 -9q0 -4 -4 -4q-6 0 -73 21.5t-119 40.5zM417 649q106 0 167.5 -69t61.5 -181q0 -106 -47 -201t-129.5 -154t-178.5 -59q-105 0 -166.5 70t-61.5 183q0 105 46.5 199.5
t128.5 153t179 58.5zM449 79q49 59 79 163t30 194q0 98 -33.5 147t-110.5 49q-78 0 -136 -58q-58 -57 -93 -165.5t-35 -206.5q0 -200 145 -200q88 0 154 77z" />
    <glyph glyph-name="Oacute" unicode="&#xd3;" horiz-adv-x="665" 
d="M313 673q-4 0 -4 4q0 5 7 9q160 103 183 112q11 4 19 4q13 0 21.5 -7.5t8.5 -18.5q0 -25 -43 -41q-52 -19 -119 -40.5t-73 -21.5zM417 649q106 0 167.5 -69t61.5 -181q0 -106 -47 -201t-129.5 -154t-178.5 -59q-105 0 -166.5 70t-61.5 183q0 105 46.5 199.5t128.5 153
t179 58.5zM449 79q49 59 79 163t30 194q0 98 -33.5 147t-110.5 49q-78 0 -136 -58q-58 -57 -93 -165.5t-35 -206.5q0 -200 145 -200q88 0 154 77z" />
    <glyph glyph-name="Ocircumflex" unicode="&#xd4;" horiz-adv-x="665" 
d="M286 674q-8 0 -6 7t56 52q8 6 25 20l1 1l1 1l1 1h1l1 1l1 1l1 1h1v1l1 1l1 1l1 1h1l1 1l1 1l1 1l1 1h1l1 1l1 1l1 1l1 1h1l2 2q36 30 49 32q4 1 7 1q5 0 9.5 -1.5t9 -5.5t7 -6t8 -9t7.5 -9q50 -58 61 -73t10 -21q0 -7 -8 -7q-2 0 -4 0.5t-6 3t-8.5 6t-13.5 10t-18.5 13.5
t-26.5 19t-36 25h-2q-31 -17 -58.5 -32t-40.5 -22.5t-23.5 -13.5t-14.5 -7.5t-7 -1.5zM417 649q106 0 167.5 -69t61.5 -181q0 -106 -47 -201t-129.5 -154t-178.5 -59q-105 0 -166.5 70t-61.5 183q0 105 46.5 199.5t128.5 153t179 58.5zM449 79q49 59 79 163t30 194
q0 98 -33.5 147t-110.5 49q-78 0 -136 -58q-58 -57 -93 -165.5t-35 -206.5q0 -200 145 -200q88 0 154 77z" />
    <glyph glyph-name="Otilde" unicode="&#xd5;" horiz-adv-x="665" 
d="M301 680q-7 0 -4 9q9 39 29.5 67.5t53.5 28.5q22 0 66 -23q39 -22 57 -22q29 0 43 33q4 10 10 10t6 -7q0 -27 -22.5 -56.5t-55.5 -29.5q-23 0 -63 22q-38 21 -57 21q-34 0 -51 -42q-4 -11 -12 -11zM417 649q106 0 167.5 -69t61.5 -181q0 -106 -47 -201t-129.5 -154
t-178.5 -59q-105 0 -166.5 70t-61.5 183q0 105 46.5 199.5t128.5 153t179 58.5zM449 79q49 59 79 163t30 194q0 98 -33.5 147t-110.5 49q-78 0 -136 -58q-58 -57 -93 -165.5t-35 -206.5q0 -200 145 -200q88 0 154 77z" />
    <glyph glyph-name="Odieresis" unicode="&#xd6;" horiz-adv-x="665" 
d="M346 704q-17 0 -27.5 10t-10.5 27q0 23 16 38t40 15q19 0 29.5 -10t10.5 -27q0 -23 -16.5 -38t-41.5 -15zM492 704q-17 0 -28 10t-11 27q0 23 16.5 38t40.5 15q18 0 28.5 -10t10.5 -27q0 -23 -16.5 -38t-40.5 -15zM417 649q106 0 167.5 -69t61.5 -181q0 -106 -47 -201
t-129.5 -154t-178.5 -59q-105 0 -166.5 70t-61.5 183q0 105 46.5 199.5t128.5 153t179 58.5zM449 79q49 59 79 163t30 194q0 98 -33.5 147t-110.5 49q-78 0 -136 -58q-58 -57 -93 -165.5t-35 -206.5q0 -200 145 -200q88 0 154 77z" />
    <glyph glyph-name="multiply" unicode="&#xd7;" horiz-adv-x="560" 
d="M448 405q7 -8 0 -14l-138 -122l105 -122q5 -6 -5 -14t-15 -3l-105 122l-139 -122q-6 -6 -14 3q-6 9 -1 14l140 122l-105 122q-5 7 4 14q11 8 15 3l105 -122l139 122q7 6 14 -3z" />
    <glyph glyph-name="Oslash" unicode="&#xd8;" horiz-adv-x="665" 
d="M519 628q61 -28 94 -88t33 -141q0 -106 -47 -201t-129.5 -154t-178.5 -59q-42 0 -77 12l-38 -79q-5 -10 -17 -10q-10 0 -10 7q0 3 3 9l39 82q-61 28 -94.5 89t-33.5 143q0 105 46.5 199.5t128.5 153t179 58.5q43 0 79 -12l35 74q5 11 18 11q10 0 10 -6q0 -4 -3 -11z
M150 202q0 -123 54 -170l282 585q-30 15 -72 15q-78 0 -136 -58q-58 -57 -93 -165.5t-35 -206.5zM449 79q49 59 79 163t30 194q0 122 -51 166l-283 -584q28 -16 71 -16q88 0 154 77z" />
    <glyph glyph-name="Ugrave" unicode="&#xd9;" horiz-adv-x="617" 
d="M520 675q-6 0 -73 21.5t-119 40.5q-43 16 -43 41q0 11 8.5 18.5t21.5 7.5q15 0 43 -16t129 -81q19 -12 30 -19q7 -4 7 -9q0 -4 -4 -4zM282 -15q-203 0 -203 179q0 38 10 101l46 257q9 44 6 64t-22 30q-14 8 -14 13q0 7 8 7q2 0 16.5 -1.5t34 -3t35.5 -1.5q21 0 55 3t37 3
q6 0 6 -5q0 -6 -24 -16q-23 -9 -33.5 -27t-20.5 -67l-51 -276q-10 -53 -10 -89q0 -69 38 -104.5t109 -35.5q88 0 152 61t86 189l43 253q8 51 1 70.5t-35 28.5q-16 6 -16 12t7 6l28 -3q28 -3 44 -3q17 0 41 3t25 3q6 0 6 -5q0 -6 -22 -12q-27 -9 -40.5 -31.5t-22.5 -74.5
l-41 -245q-50 -283 -279 -283z" />
    <glyph glyph-name="Uacute" unicode="&#xda;" horiz-adv-x="617" 
d="M311 674q-4 0 -4 4q0 5 7 9q160 103 183 112q11 4 19 4q13 0 21.5 -7.5t8.5 -18.5q0 -25 -43 -41q-52 -19 -119 -40.5t-73 -21.5zM282 -15q-203 0 -203 179q0 38 10 101l46 257q9 44 6 64t-22 30q-14 8 -14 13q0 7 8 7q2 0 16.5 -1.5t34 -3t35.5 -1.5q21 0 55 3t37 3
q6 0 6 -5q0 -6 -24 -16q-23 -9 -33.5 -27t-20.5 -67l-51 -276q-10 -53 -10 -89q0 -69 38 -104.5t109 -35.5q88 0 152 61t86 189l43 253q8 51 1 70.5t-35 28.5q-16 6 -16 12t7 6l28 -3q28 -3 44 -3q17 0 41 3t25 3q6 0 6 -5q0 -6 -22 -12q-27 -9 -40.5 -31.5t-22.5 -74.5
l-41 -245q-50 -283 -279 -283z" />
    <glyph glyph-name="Ucircumflex" unicode="&#xdb;" horiz-adv-x="617" 
d="M285 675q-8 0 -6 7t56 52q8 6 25 20l1 1l1 1l1 1h1l1 1l1 1l1 1h1v1l1 1l1 1l1 1h1l1 1l1 1l1 1l1 1h1l1 1l1 1l1 1l1 1h1l2 2q36 30 49 32q4 1 7 1q5 0 9.5 -1.5t9 -5.5t7 -6t8 -9t7.5 -9q50 -58 61 -73t10 -21q0 -7 -8 -7q-2 0 -4 0.5t-6 3t-8.5 6t-13.5 10t-18.5 13.5
t-26.5 19t-36 25h-2q-31 -17 -58.5 -32t-40.5 -22.5t-23.5 -13.5t-14.5 -7.5t-7 -1.5zM282 -15q-203 0 -203 179q0 38 10 101l46 257q9 44 6 64t-22 30q-14 8 -14 13q0 7 8 7q2 0 16.5 -1.5t34 -3t35.5 -1.5q21 0 55 3t37 3q6 0 6 -5q0 -6 -24 -16q-23 -9 -33.5 -27
t-20.5 -67l-51 -276q-10 -53 -10 -89q0 -69 38 -104.5t109 -35.5q88 0 152 61t86 189l43 253q8 51 1 70.5t-35 28.5q-16 6 -16 12t7 6l28 -3q28 -3 44 -3q17 0 41 3t25 3q6 0 6 -5q0 -6 -22 -12q-27 -9 -40.5 -31.5t-22.5 -74.5l-41 -245q-50 -283 -279 -283z" />
    <glyph glyph-name="Udieresis" unicode="&#xdc;" horiz-adv-x="617" 
d="M363 795q19 0 29.5 -10t10.5 -27q0 -23 -16.5 -38t-41.5 -15q-17 0 -27.5 10t-10.5 27q0 23 16 38t40 15zM509 795q18 0 28.5 -10t10.5 -27q0 -23 -16.5 -38t-40.5 -15q-17 0 -28 10t-11 27q0 23 16.5 38t40.5 15zM282 -15q-203 0 -203 179q0 38 10 101l46 257q9 44 6 64
t-22 30q-14 8 -14 13q0 7 8 7q2 0 16.5 -1.5t34 -3t35.5 -1.5q21 0 55 3t37 3q6 0 6 -5q0 -6 -24 -16q-23 -9 -33.5 -27t-20.5 -67l-51 -276q-10 -53 -10 -89q0 -69 38 -104.5t109 -35.5q88 0 152 61t86 189l43 253q8 51 1 70.5t-35 28.5q-16 6 -16 12t7 6l28 -3
q28 -3 44 -3q17 0 41 3t25 3q6 0 6 -5q0 -6 -22 -12q-27 -9 -40.5 -31.5t-22.5 -74.5l-41 -245q-50 -283 -279 -283z" />
    <glyph glyph-name="Yacute" unicode="&#xdd;" horiz-adv-x="570" 
d="M277 673q-4 0 -4 4q0 5 7 9q160 103 183 112q11 4 19 4q13 0 21.5 -7.5t8.5 -18.5q0 -25 -43 -41q-52 -19 -119 -40.5t-73 -21.5zM150 -7q-6 0 -6 5q0 7 26 17q20 7 29.5 23t20.5 58t32 149q4 22 -10 52l-92 221q-24 57 -37.5 75.5t-33.5 26.5q-11 4 -11 10t8 6l32 -3
q32 -3 54 -3t60 3t40 3q6 0 6 -5q-1 -4 -19 -12q-23 -11 -26 -23q-3 -19 17.5 -81t87.5 -227l117 153q72 91 78 130q8 41 -42 50q-6 1 -8 3t-1 5q1 7 10 7q1 0 36.5 -3t55.5 -3q12 0 39.5 3t28.5 3q5 0 7 -1.5t1 -4.5q-2 -7 -11 -9q-28 -9 -47 -26t-54 -62l-194 -249
q-6 -8 -7 -14q-35 -195 -32 -225q2 -19 21 -28q1 -1 5 -3q10 -5 14 -7.5t3 -6.5q0 -7 -7 -7q-1 0 -38 3.5t-54 3.5q-19 0 -59 -4z" />
    <glyph glyph-name="Thorn" unicode="&#xde;" horiz-adv-x="557" 
d="M8 -7q-8 0 -6 6q1 5 25 13q20 7 30 24.5t20.5 59.5t31.5 152l31 164q23 130 22.5 163t-19.5 43q-2 1 -5 2q-13 5 -13 9v2q1 6 7 6q2 0 17 -1.5t36.5 -3.5t38.5 -2q23 0 62.5 4t42.5 4q4 0 5.5 -1.5t0.5 -3.5q0 -2 -1.5 -3.5t-4 -3t-5.5 -2t-8 -2.5t-9 -3
q-33 -11 -47.5 -33.5t-16.5 -73.5q0 -5 3 -5q2 0 16.5 3.5t38 6.5t46.5 3q91 0 147 -44.5t56 -121.5q0 -94 -79.5 -158t-186.5 -64q-26 0 -50.5 3t-40 6.5t-16.5 3.5q-5 0 -5 -5q-14 -72 -10.5 -95.5t28.5 -32.5q3 -1 8 -3t7 -2.5t4.5 -2t3 -3t-0.5 -3.5q-2 -5 -7 -5
q-2 0 -19.5 1.5t-42 3.5t-42.5 2q-16 0 -37.5 -2t-37.5 -3.5t-18 -1.5zM267 152q85 0 140 62t55 149q0 68 -39 102.5t-102 34.5q-55 0 -77 -18q-8 -6 -14 -31t-25 -125q-26 -137 -25 -151q0 -2 1 -4q4 -8 29 -13.5t57 -5.5z" />
    <glyph glyph-name="germandbls" unicode="&#xdf;" horiz-adv-x="482" 
d="M372 242q38 -39 54 -65t16 -56q0 -57 -46 -96.5t-110 -39.5q-54 0 -87 30.5t-33 73.5q0 26 12 39t28 13q12 0 19.5 -8t7.5 -19q0 -9 -8.5 -24.5t-8.5 -29.5q0 -27 21.5 -43.5t53.5 -16.5q39 0 66.5 25t27.5 62q0 22 -11.5 40.5t-38.5 45.5l-67 63q-41 39 -41 87
q0 31 17 56t57 65l16.5 16.5t15.5 15t12.5 12.5t11 13t8 11.5t7.5 12t4.5 11t3.5 13t1 13.5q0 31 -16.5 48.5t-47.5 17.5q-42 0 -74.5 -33.5t-46.5 -101.5l-98 -496q-21 -109 -65 -160.5t-98 -51.5q-33 0 -56 17.5t-23 42.5q0 19 12 32t31 13q35 0 35 -29q0 -8 -6 -20
t-6 -18q0 -22 26 -22q19 0 34.5 13t22.5 34q7 15 12 37t12.5 69.5t12.5 77.5l65 333q-14 0 -31 -1h-17q-12 0 -12 11q0 15 17 15l47 -2l7 37q21 110 78.5 163.5t127.5 53.5q48 0 74 -23t26 -54q0 -28 -24.5 -57t-54 -48.5t-54 -45t-24.5 -47.5q0 -16 11 -30.5t35 -37.5
q6 -5 9 -8z" />
    <glyph glyph-name="agrave" unicode="&#xe0;" horiz-adv-x="477" 
d="M183 557q-33 22 -30 42q6 29 34 25q18 -2 76 -63q15 -15 53 -56q26 -27 41 -43q3 -4 3 -7q-2 -5 -5 -3q-1 0 -5 2q-59 29 -167 103zM446 98q7 0 6 -9q-13 -54 -35 -77t-58 -23q-28 0 -45 15.5t-17 44.5q0 21 7 46h-3q-49 -110 -138 -110q-56 0 -91.5 43.5t-35.5 112.5
q0 98 63 180t151 82q90 0 112 -94l30 44q27 44 33 44q5 0 5 -6q0 -5 -3 -20l-61 -285q-6 -34 -6 -42q0 -28 23 -28q18 0 30.5 16t23.5 57q3 9 9 9zM180 7q43 0 81 46t54 130q12 59 12 100q0 107 -70 107q-50 0 -88 -51q-27 -38 -44 -99t-17 -114q0 -119 72 -119z" />
    <glyph glyph-name="aacute" unicode="&#xe1;" horiz-adv-x="477" 
d="M208 452q-3 -2 -5 3q0 3 3 7q126 132 144 147q16 14 26 15q28 4 34 -25q3 -20 -30 -42q-108 -74 -167 -103q-4 -2 -5 -2zM446 98q7 0 6 -9q-13 -54 -35 -77t-58 -23q-28 0 -45 15.5t-17 44.5q0 21 7 46h-3q-49 -110 -138 -110q-56 0 -91.5 43.5t-35.5 112.5q0 98 63 180
t151 82q90 0 112 -94l30 44q27 44 33 44q5 0 5 -6q0 -5 -3 -20l-61 -285q-6 -34 -6 -42q0 -28 23 -28q18 0 30.5 16t23.5 57q3 9 9 9zM180 7q43 0 81 46t54 130q12 59 12 100q0 107 -70 107q-50 0 -88 -51q-27 -38 -44 -99t-17 -114q0 -119 72 -119z" />
    <glyph glyph-name="acircumflex" unicode="&#xe2;" horiz-adv-x="477" 
d="M159 474q-6 0 -6 6q0 2 1 4.5t4.5 6.5t8.5 8.5t14.5 13t20 18.5t27.5 26t36 34q16 15 25.5 19.5t26.5 4.5q16 0 23 -4t17 -18q70 -101 70 -110t-8 -9q-7 0 -54 43q-10 9 -16 14.5t-18 16t-23 20.5h-2l-36 -24t-29.5 -20t-23 -15.5t-18.5 -12t-13.5 -9t-10 -6.5l-7 -4
t-5.5 -2.5t-4 -0.5zM446 98q7 0 6 -9q-13 -54 -35 -77t-58 -23q-28 0 -45 15.5t-17 44.5q0 21 7 46h-3q-49 -110 -138 -110q-56 0 -91.5 43.5t-35.5 112.5q0 98 63 180t151 82q90 0 112 -94l30 44q27 44 33 44q5 0 5 -6q0 -5 -3 -20l-61 -285q-6 -34 -6 -42q0 -28 23 -28
q18 0 30.5 16t23.5 57q3 9 9 9zM180 7q43 0 81 46t54 130q12 59 12 100q0 107 -70 107q-50 0 -88 -51q-27 -38 -44 -99t-17 -114q0 -119 72 -119z" />
    <glyph glyph-name="atilde" unicode="&#xe3;" horiz-adv-x="477" 
d="M174 498q-7 0 -4 9q9 39 29.5 67.5t53.5 28.5q22 0 66 -23q38 -22 57 -22q29 0 43 33q4 10 10 10t6 -7q0 -27 -22.5 -56.5t-55.5 -29.5q-23 0 -63 22q-38 21 -57 21q-34 0 -51 -42q-4 -11 -12 -11zM446 98q7 0 6 -9q-13 -54 -35 -77t-58 -23q-28 0 -45 15.5t-17 44.5
q0 21 7 46h-3q-49 -110 -138 -110q-56 0 -91.5 43.5t-35.5 112.5q0 98 63 180t151 82q90 0 112 -94l30 44q27 44 33 44q5 0 5 -6q0 -5 -3 -20l-61 -285q-6 -34 -6 -42q0 -28 23 -28q18 0 30.5 16t23.5 57q3 9 9 9zM180 7q43 0 81 46t54 130q12 59 12 100q0 107 -70 107
q-50 0 -88 -51q-27 -38 -44 -99t-17 -114q0 -119 72 -119z" />
    <glyph glyph-name="adieresis" unicode="&#xe4;" horiz-adv-x="477" 
d="M224 503q-19 0 -31 11t-12 30q0 22 14.5 35.5t37.5 13.5q19 0 31 -11t12 -29q0 -22 -15 -36t-37 -14zM369 503q-19 0 -30.5 11t-11.5 30q0 22 14.5 35.5t36.5 13.5q19 0 31 -11t12 -29q0 -22 -14.5 -36t-37.5 -14zM446 98q7 0 6 -9q-13 -54 -35 -77t-58 -23
q-28 0 -45 15.5t-17 44.5q0 21 7 46h-3q-49 -110 -138 -110q-56 0 -91.5 43.5t-35.5 112.5q0 98 63 180t151 82q90 0 112 -94l30 44q27 44 33 44q5 0 5 -6q0 -5 -3 -20l-61 -285q-6 -34 -6 -42q0 -28 23 -28q18 0 30.5 16t23.5 57q3 9 9 9zM180 7q43 0 81 46t54 130
q12 59 12 100q0 107 -70 107q-50 0 -88 -51q-27 -38 -44 -99t-17 -114q0 -119 72 -119z" />
    <glyph glyph-name="aring" unicode="&#xe5;" horiz-adv-x="477" 
d="M291 494q-30 0 -48 16.5t-18 41.5q0 34 27 57t66 23q31 0 49 -15.5t18 -40.5q0 -35 -27 -58.5t-67 -23.5zM314 619q-23 0 -37.5 -19.5t-14.5 -52.5q0 -40 33 -40q23 0 37.5 19.5t14.5 52.5q0 40 -33 40zM446 98q7 0 6 -9q-13 -54 -35 -77t-58 -23q-28 0 -45 15.5
t-17 44.5q0 21 7 46h-3q-49 -110 -138 -110q-56 0 -91.5 43.5t-35.5 112.5q0 98 63 180t151 82q90 0 112 -94l30 44q27 44 33 44q5 0 5 -6q0 -5 -3 -20l-61 -285q-6 -34 -6 -42q0 -28 23 -28q18 0 30.5 16t23.5 57q3 9 9 9zM180 7q43 0 81 46t54 130q12 59 12 100
q0 107 -70 107q-50 0 -88 -51q-27 -38 -44 -99t-17 -114q0 -119 72 -119z" />
    <glyph glyph-name="ae" unicode="&#xe6;" horiz-adv-x="658" 
d="M617 122q4 0 4 -5t-4 -12q-21 -51 -66 -85.5t-105 -34.5q-68 0 -107.5 45.5t-41.5 112.5q-21 -79 -69.5 -118.5t-104.5 -39.5q-48 0 -75 20.5t-27 58.5q0 74 83 111q66 32 190 41l5 26q7 34 7 62q0 85 -76 85q-37 0 -59 -15t-22 -36q0 -6 2.5 -15.5t2.5 -16.5
q0 -20 -13 -33t-33 -13q-32 0 -32 33q0 41 43 76t119 35q102 0 121 -83q70 83 168 83q48 0 78.5 -21t30.5 -56q0 -57 -68.5 -94.5t-195.5 -46.5q-1 -9 -1 -25q0 -72 26.5 -111.5t76.5 -39.5q43 0 78 31t56 72q4 9 9 9zM525 390q-56 0 -98.5 -56.5t-52.5 -132.5q99 11 144 35
q61 34 61 100q0 26 -14.5 40t-39.5 14zM152 8q46 0 86 44t56 126l5 2q0 10 3 19l-12 -2l1 5q-116 -7 -157 -42q-43 -36 -43 -91q0 -61 61 -61z" />
    <glyph glyph-name="ccedilla" unicode="&#xe7;" horiz-adv-x="403" 
d="M358 127q6 0 6 -6q0 -3 -4 -17q-14 -48 -56.5 -83t-105.5 -36l-20 -37q77 -13 77 -59q0 -32 -27.5 -51t-63.5 -19q-21 0 -36.5 5t-20.5 10t-5 8q0 6 7 6q1 0 6.5 -3t15 -6t20.5 -3q25 0 39.5 14t14.5 37q0 16 -11.5 25.5t-36.5 17.5q-4 1 -4 6q0 3 5 13l21 37
q-67 5 -104 51t-37 115q0 99 67.5 175.5t156.5 76.5q55 0 86 -30t31 -80q0 -30 -11.5 -51t-32.5 -21q-13 0 -21.5 8.5t-8.5 21.5q0 16 19.5 40t19.5 41q0 22 -20.5 38.5t-49.5 16.5q-64 0 -113.5 -68t-49.5 -164q0 -70 28 -109t80 -39q44 0 80 28t50 77q4 14 9 14z" />
    <glyph glyph-name="egrave" unicode="&#xe8;" horiz-adv-x="401" 
d="M156 557q-33 22 -30 42q6 29 34 25q18 -2 76 -63q15 -15 53 -56q26 -27 41 -43q3 -4 3 -7q-2 -5 -5 -3q-1 0 -5 2q-59 29 -167 103zM358 122q4 0 4 -5t-4 -12q-20 -51 -65 -85.5t-105 -34.5q-70 0 -110 47.5t-40 117.5q0 101 68.5 177.5t162.5 76.5q48 0 78.5 -21
t30.5 -56q0 -57 -69 -95t-196 -46q-1 -8 -1 -25q0 -71 26.5 -111t76.5 -40q43 0 78 31t56 72q4 9 9 9zM266 390q-56 0 -98.5 -56.5t-52.5 -132.5q100 11 144 35q62 34 62 100q0 26 -15 40t-40 14z" />
    <glyph glyph-name="eacute" unicode="&#xe9;" horiz-adv-x="401" 
d="M181 452q-3 -2 -5 3q0 3 3 7q126 132 144 147q16 14 26 15q28 4 34 -25q3 -20 -30 -42q-108 -74 -167 -103q-4 -2 -5 -2zM378 327q0 -57 -69 -95t-196 -46q-1 -8 -1 -25q0 -71 26.5 -111t76.5 -40q43 0 78 31t56 72q4 9 9 9q4 0 4 -5t-4 -12q-20 -51 -65 -85.5
t-105 -34.5q-70 0 -110 47.5t-40 117.5q0 101 68.5 177.5t162.5 76.5q48 0 78.5 -21t30.5 -56zM266 390q-56 0 -98.5 -56.5t-52.5 -132.5q100 11 144 35q62 34 62 100q0 26 -15 40t-40 14z" />
    <glyph glyph-name="ecircumflex" unicode="&#xea;" horiz-adv-x="401" 
d="M330 593q70 -101 70 -110t-8 -9q-7 0 -54 43q-10 9 -16 14.5t-18 16t-23 20.5h-2l-36 -24t-29.5 -20t-23 -15.5t-18.5 -12t-13.5 -9t-10 -6.5l-7 -4t-5.5 -2.5t-4 -0.5q-6 0 -6 6q0 2 1 4.5t4.5 6.5t8.5 8.5t14.5 13t20 18.5t27.5 26t36 34q16 15 25.5 19.5t26.5 4.5
q16 0 23 -4t17 -18zM378 327q0 -57 -69 -95t-196 -46q-1 -8 -1 -25q0 -71 26.5 -111t76.5 -40q43 0 78 31t56 72q4 9 9 9q4 0 4 -5t-4 -12q-20 -51 -65 -85.5t-105 -34.5q-70 0 -110 47.5t-40 117.5q0 101 68.5 177.5t162.5 76.5q48 0 78.5 -21t30.5 -56zM266 390
q-56 0 -98.5 -56.5t-52.5 -132.5q100 11 144 35q62 34 62 100q0 26 -15 40t-40 14z" />
    <glyph glyph-name="edieresis" unicode="&#xeb;" horiz-adv-x="401" 
d="M197 503q-19 0 -31 11t-12 30q0 22 14.5 35.5t37.5 13.5q19 0 31 -11t12 -29q0 -22 -15 -36t-37 -14zM351 593q19 0 31 -11t12 -29q0 -22 -14.5 -36t-37.5 -14q-19 0 -30.5 11t-11.5 30q0 22 14.5 35.5t36.5 13.5zM378 327q0 -57 -69 -95t-196 -46q-1 -8 -1 -25
q0 -71 26.5 -111t76.5 -40q43 0 78 31t56 72q4 9 9 9q4 0 4 -5t-4 -12q-20 -51 -65 -85.5t-105 -34.5q-70 0 -110 47.5t-40 117.5q0 101 68.5 177.5t162.5 76.5q48 0 78.5 -21t30.5 -56zM266 390q-56 0 -98.5 -56.5t-52.5 -132.5q100 11 144 35q62 34 62 100q0 26 -15 40
t-40 14z" />
    <glyph glyph-name="igrave" unicode="&#xec;" horiz-adv-x="262" 
d="M231 452q-1 0 -5 2q-59 29 -167 103q-33 22 -30 42q6 29 34 25q18 -2 76 -63q15 -15 53 -56q26 -27 41 -43q3 -4 3 -7q-2 -5 -5 -3zM136 -10q-73 0 -73 73q0 31 33.5 144t33.5 136q0 35 -30 35q-45 0 -60 -74q-2 -6 -9 -6t-6 8q16 97 99 97q36 0 55 -17.5t19 -46.5
q0 -33 -34 -146t-34 -138q0 -38 29 -38q19 0 32 17t26 58q3 9 8 9q7 0 6 -9q-21 -102 -95 -102z" />
    <glyph glyph-name="iacute" unicode="&#xed;" horiz-adv-x="262" 
d="M84 452q-3 -2 -5 3q0 3 3 7q126 132 144 147q16 14 26 15q28 4 34 -25q3 -20 -30 -42q-108 -74 -167 -103q-4 -2 -5 -2zM136 -10q-73 0 -73 73q0 31 33.5 144t33.5 136q0 35 -30 35q-45 0 -60 -74q-2 -6 -9 -6t-6 8q16 97 99 97q36 0 55 -17.5t19 -46.5q0 -33 -34 -146
t-34 -138q0 -38 29 -38q19 0 32 17t26 58q3 9 8 9q7 0 6 -9q-21 -102 -95 -102z" />
    <glyph glyph-name="icircumflex" unicode="&#xee;" horiz-adv-x="262" 
d="M60 496q-5 0 -5 6q0 8 13 23t79 87q2 2 6 6.5t5.5 6.5t4.5 5.5t4.5 5t4.5 4t5 3.5t4.5 2t5 1.5t5.5 0.5q10 0 16 -7.5t15 -25.5q49 -99 49 -109q0 -9 -9 -9q-5 0 -33 35q-8 10 -13 16.5t-15.5 19t-20.5 25.5h-1q-15 -12 -29 -24t-23.5 -20l-19 -16t-15 -12.5l-11 -9
t-8.5 -7t-6 -4.5t-4.5 -2.5t-3.5 -0.5zM136 -10q-73 0 -73 73q0 31 33.5 144t33.5 136q0 35 -30 35q-45 0 -60 -74q-2 -6 -9 -6t-6 8q16 97 99 97q36 0 55 -17.5t19 -46.5q0 -33 -34 -146t-34 -138q0 -38 29 -38q19 0 32 17t26 58q3 9 8 9q7 0 6 -9q-21 -102 -95 -102z" />
    <glyph glyph-name="idieresis" unicode="&#xef;" horiz-adv-x="262" 
d="M109 593q19 0 31 -11t12 -29q0 -22 -15 -36t-37 -14q-19 0 -31 11t-12 30q0 22 14.5 35.5t37.5 13.5zM254 593q19 0 31 -11t12 -29q0 -22 -14.5 -36t-37.5 -14q-19 0 -30.5 11t-11.5 30q0 22 14.5 35.5t36.5 13.5zM136 -10q-73 0 -73 73q0 31 33.5 144t33.5 136
q0 35 -30 35q-45 0 -60 -74q-2 -6 -9 -6t-6 8q16 97 99 97q36 0 55 -17.5t19 -46.5q0 -33 -34 -146t-34 -138q0 -38 29 -38q19 0 32 17t26 58q3 9 8 9q7 0 6 -9q-21 -102 -95 -102z" />
    <glyph glyph-name="eth" unicode="&#xf0;" horiz-adv-x="473" 
d="M338 538q112 -59 112 -201q0 -65 -24.5 -139t-63.5 -124q-70 -88 -167 -88q-70 0 -115 41.5t-45 112.5q0 22 6 49q18 82 77.5 133.5t130.5 51.5q49 0 80 -26t33 -81q14 76 14 118q0 80 -35 115q-13 12 -25 20l-118 -98q-9 -7 -13 -7q-6 0 -6 7t8 14l112 93
q-54 26 -129 26q-10 0 -10 7q0 10 14 10q83 0 146 -26l88 73q6 4 9 4q6 0 6 -8q0 -6 -7 -12zM345 195q5 24 5 52q0 53 -25 81.5t-67 28.5q-45 0 -83 -42t-58 -135q-9 -42 -9 -70q0 -57 25 -83.5t66 -26.5q50 0 87 44t55 132z" />
    <glyph glyph-name="ntilde" unicode="&#xf1;" horiz-adv-x="511" 
d="M183 498q-7 0 -4 9q9 39 29.5 67.5t53.5 28.5q22 0 66 -23q39 -22 57 -22q29 0 43 33q4 10 10 10t6 -7q0 -27 -22.5 -56.5t-55.5 -29.5q-23 0 -63 22q-38 21 -57 21q-34 0 -51 -42q-4 -11 -12 -11zM479 102q8 0 5 -9q-12 -53 -35.5 -77.5t-60.5 -24.5q-72 0 -72 71
q0 30 30 131.5t30 130.5q0 59 -56 59q-101 0 -153 -230l-33 -142q-3 -16 -39 -16q-30 0 -30 14q0 2 1.5 10.5t6.5 29.5t11 47.5t17.5 75.5t23.5 103q11 51 11 67q0 33 -32 33q-43 0 -57 -71q-1 -6 -8 -6q-8 0 -7 8q7 48 32 72.5t63 24.5q34 0 52 -16.5t18 -43.5
q0 -19 -21 -103h1q29 85 69 125t97 40q45 0 73 -26t28 -70q0 -33 -30.5 -129t-30.5 -124q0 -38 30 -38q19 0 31.5 17t25.5 57q3 10 9 10z" />
    <glyph glyph-name="ograve" unicode="&#xf2;" horiz-adv-x="446" 
d="M340 452q-1 0 -5 2q-59 29 -167 103q-33 22 -30 42q6 29 34 25q18 -2 76 -63q15 -15 53 -56q26 -27 41 -43q3 -4 3 -7q-2 -5 -5 -3zM188 -14q-70 0 -110 46.5t-40 121.5q0 93 65 171.5t158 78.5q69 0 108 -45.5t39 -116.5q0 -98 -64 -177t-156 -79zM191 0q58 0 97 65
q23 38 37 95t14 109q0 121 -81 121q-56 0 -96 -63q-54 -81 -54 -203q0 -124 83 -124z" />
    <glyph glyph-name="oacute" unicode="&#xf3;" horiz-adv-x="446" 
d="M193 452q-3 -2 -5 3q0 3 3 7q126 132 144 147q16 14 26 15q28 4 34 -25q3 -20 -30 -42q-108 -74 -167 -103q-4 -2 -5 -2zM188 -14q-70 0 -110 46.5t-40 121.5q0 93 65 171.5t158 78.5q69 0 108 -45.5t39 -116.5q0 -98 -64 -177t-156 -79zM191 0q58 0 97 65q23 38 37 95
t14 109q0 121 -81 121q-56 0 -96 -63q-54 -81 -54 -203q0 -124 83 -124z" />
    <glyph glyph-name="ocircumflex" unicode="&#xf4;" horiz-adv-x="446" 
d="M144 474q-6 0 -6 6q0 2 1 4.5t4.5 6.5t8.5 8.5t14.5 13t20 18.5t27.5 26t36 34q16 15 25.5 19.5t26.5 4.5q16 0 23 -4t17 -18q70 -101 70 -110t-8 -9q-7 0 -54 43q-10 9 -16 14.5t-18 16t-23 20.5h-2l-36 -24t-29.5 -20t-23 -15.5t-18.5 -12t-13.5 -9t-10 -6.5l-7 -4
t-5.5 -2.5t-4 -0.5zM188 -14q-70 0 -110 46.5t-40 121.5q0 93 65 171.5t158 78.5q69 0 108 -45.5t39 -116.5q0 -98 -64 -177t-156 -79zM191 0q58 0 97 65q23 38 37 95t14 109q0 121 -81 121q-56 0 -96 -63q-54 -81 -54 -203q0 -124 83 -124z" />
    <glyph glyph-name="otilde" unicode="&#xf5;" horiz-adv-x="446" 
d="M159 498q-7 0 -4 9q9 39 29.5 67.5t53.5 28.5q22 0 66 -23q38 -22 57 -22q29 0 43 33q4 10 10 10t6 -7q0 -27 -22.5 -56.5t-55.5 -29.5q-23 0 -63 22q-38 21 -57 21q-34 0 -51 -42q-4 -11 -12 -11zM188 -14q-70 0 -110 46.5t-40 121.5q0 93 65 171.5t158 78.5
q69 0 108 -45.5t39 -116.5q0 -98 -64 -177t-156 -79zM191 0q58 0 97 65q23 38 37 95t14 109q0 121 -81 121q-56 0 -96 -63q-54 -81 -54 -203q0 -124 83 -124z" />
    <glyph glyph-name="odieresis" unicode="&#xf6;" horiz-adv-x="446" 
d="M218 593q19 0 31 -11t12 -29q0 -22 -15 -36t-37 -14q-19 0 -31 11t-12 30q0 22 14.5 35.5t37.5 13.5zM363 593q19 0 31 -11t12 -29q0 -22 -14.5 -36t-37.5 -14q-19 0 -30.5 11t-11.5 30q0 22 14.5 35.5t36.5 13.5zM188 -14q-70 0 -110 46.5t-40 121.5q0 93 65 171.5
t158 78.5q69 0 108 -45.5t39 -116.5q0 -98 -64 -177t-156 -79zM191 0q58 0 97 65q23 38 37 95t14 109q0 121 -81 121q-56 0 -96 -63q-54 -81 -54 -203q0 -124 83 -124z" />
    <glyph glyph-name="divide" unicode="&#xf7;" horiz-adv-x="560" 
d="M312 420q26 0 26 -26q0 -13 -8.5 -21.5t-22.5 -8.5q-11 0 -18.5 7t-7.5 18q0 14 8.5 22.5t22.5 8.5zM137 205q-7 0 -7 9q0 15 10 15h290q7 0 7 -9q0 -15 -10 -15h-290zM268 162q26 0 26 -26q0 -13 -8.5 -21.5t-22.5 -8.5q-11 0 -18.5 7t-7.5 18q0 14 8.5 22.5t22.5 8.5z
" />
    <glyph glyph-name="oslash" unicode="&#xf8;" horiz-adv-x="446" 
d="M341 382q67 -41 67 -140q0 -98 -64 -177t-156 -79q-49 0 -84 23l-50 -79q-7 -10 -17 -10t-10 7q0 3 3 9l56 88q-48 46 -48 130q0 93 65 171.5t158 78.5q30 0 58 -10l41 64q7 11 18 11q10 0 10 -6q0 -7 -3 -11zM108 124q0 -31 6 -55l192 304q-19 17 -48 17q-56 0 -96 -63
q-54 -81 -54 -203zM288 65q23 38 37 95t14 109q0 53 -17 84l-198 -313q20 -40 67 -40q58 0 97 65z" />
    <glyph glyph-name="ugrave" unicode="&#xf9;" horiz-adv-x="486" 
d="M172 557q-33 22 -30 42q6 29 34 25q18 -2 76 -63q15 -15 53 -56q26 -27 41 -43q3 -4 3 -7q-2 -5 -5 -3q-1 0 -5 2q-59 29 -167 103zM450 92q7 0 6 -8q-15 -97 -93 -97q-32 0 -49 16.5t-17 43.5q0 19 21 103h-2q-28 -85 -65.5 -125t-91.5 -40q-43 0 -70 26.5t-27 71.5
q0 31 30.5 127t30.5 125q0 37 -28 37q-38 0 -54 -74q-1 -10 -9 -10q-6 0 -5 9q18 102 94 102q71 0 71 -70q0 -30 -31 -132.5t-31 -131.5q0 -58 52 -58q91 0 140 211l36 161q4 16 40 16q30 0 30 -14q0 -8 -59 -266q-11 -50 -11 -67q0 -33 30 -33q36 0 53 71q1 6 9 6z" />
    <glyph glyph-name="uacute" unicode="&#xfa;" horiz-adv-x="486" 
d="M196 452q-3 -2 -5 3q0 3 3 7q126 132 144 147q16 14 26 15q28 4 34 -25q3 -20 -30 -42q-108 -74 -167 -103q-4 -2 -5 -2zM450 92q7 0 6 -8q-15 -97 -93 -97q-32 0 -49 16.5t-17 43.5q0 19 21 103h-2q-28 -85 -65.5 -125t-91.5 -40q-43 0 -70 26.5t-27 71.5q0 31 30.5 127
t30.5 125q0 37 -28 37q-38 0 -54 -74q-1 -10 -9 -10q-6 0 -5 9q18 102 94 102q71 0 71 -70q0 -30 -31 -132.5t-31 -131.5q0 -58 52 -58q91 0 140 211l36 161q4 16 40 16q30 0 30 -14q0 -8 -59 -266q-11 -50 -11 -67q0 -33 30 -33q36 0 53 71q1 6 9 6z" />
    <glyph glyph-name="ucircumflex" unicode="&#xfb;" horiz-adv-x="486" 
d="M148 474q-6 0 -6 6q0 2 1 4.5t4.5 6.5t8.5 8.5t14.5 13t20 18.5t27.5 26t36 34q16 15 25.5 19.5t26.5 4.5q16 0 23 -4t17 -18q70 -101 70 -110t-8 -9q-7 0 -54 43q-10 9 -16 14.5t-18 16t-23 20.5h-2l-36 -24t-29.5 -20t-23 -15.5t-18.5 -12t-13.5 -9t-10 -6.5l-7 -4
t-5.5 -2.5t-4 -0.5zM450 92q7 0 6 -8q-15 -97 -93 -97q-32 0 -49 16.5t-17 43.5q0 19 21 103h-2q-28 -85 -65.5 -125t-91.5 -40q-43 0 -70 26.5t-27 71.5q0 31 30.5 127t30.5 125q0 37 -28 37q-38 0 -54 -74q-1 -10 -9 -10q-6 0 -5 9q18 102 94 102q71 0 71 -70
q0 -30 -31 -132.5t-31 -131.5q0 -58 52 -58q91 0 140 211l36 161q4 16 40 16q30 0 30 -14q0 -8 -59 -266q-11 -50 -11 -67q0 -33 30 -33q36 0 53 71q1 6 9 6z" />
    <glyph glyph-name="udieresis" unicode="&#xfc;" horiz-adv-x="486" 
d="M213 503q-19 0 -31 11t-12 30q0 22 14.5 35.5t37.5 13.5q19 0 31 -11t12 -29q0 -22 -15 -36t-37 -14zM358 503q-19 0 -30.5 11t-11.5 30q0 22 14.5 35.5t36.5 13.5q19 0 31 -11t12 -29q0 -22 -14.5 -36t-37.5 -14zM450 92q7 0 6 -8q-15 -97 -93 -97q-32 0 -49 16.5
t-17 43.5q0 19 21 103h-2q-28 -85 -65.5 -125t-91.5 -40q-43 0 -70 26.5t-27 71.5q0 31 30.5 127t30.5 125q0 37 -28 37q-38 0 -54 -74q-1 -10 -9 -10q-6 0 -5 9q18 102 94 102q71 0 71 -70q0 -30 -31 -132.5t-31 -131.5q0 -58 52 -58q91 0 140 211l36 161q4 16 40 16
q30 0 30 -14q0 -8 -59 -266q-11 -50 -11 -67q0 -33 30 -33q36 0 53 71q1 6 9 6z" />
    <glyph glyph-name="yacute" unicode="&#xfd;" horiz-adv-x="475" 
d="M217 452q-3 -2 -5 3q0 3 3 7q126 132 144 147q16 14 26 15q28 4 34 -25q3 -20 -30 -42q-108 -74 -167 -103q-4 -2 -5 -2zM423 396q34 0 34 -12q0 -2 -1 -6t-2.5 -12t-3.5 -15l-68 -321q-24 -121 -84 -183t-139 -62q-65 0 -101.5 26.5t-36.5 68.5q0 26 14 41t36 15
q18 0 29 -10.5t11 -24.5q0 -11 -12 -28.5t-12 -29.5q0 -18 20 -30.5t50 -12.5q114 0 147 170l24 118q-52 -103 -141 -103q-48 0 -78.5 25t-30.5 71q0 37 29 133.5t29 124.5q0 36 -34 36q-42 0 -61 -80q-1 -7 -10 -7q-8 0 -7 9q23 105 102 105q36 0 57.5 -18t21.5 -52
q0 -32 -30 -131.5t-30 -132.5q0 -32 17 -46.5t43 -14.5q86 0 136 149l44 222q2 10 9.5 14t28.5 4z" />
    <glyph glyph-name="thorn" unicode="&#xfe;" horiz-adv-x="474" 
d="M310 404q56 0 91 -43t35 -112q0 -95 -60.5 -179.5t-142.5 -84.5q-98 0 -106 118l-45 -211q-8 -38 -0.5 -55t29.5 -25q18 -7 18 -12q0 -7 -9 -7q-2 0 -37 3.5t-56 3.5t-54 -3.5t-34 -3.5q-6 0 -6 4q0 7 17 14q1 1 2.5 1t2.5 1q27 10 38.5 29t22.5 68l101 467
q21 92 19.5 119t-29.5 43q-5 3 -11 5.5t-8 4t-2 4.5q0 8 12 8q33 0 64 7.5t50 15t22 7.5q6 0 6 -4t-8 -29.5t-19 -62t-16 -59.5l-27 -130q52 98 140 98zM314 67q52 87 52 212q0 50 -18 78t-53 28q-64 0 -108 -82t-44 -184q0 -59 21.5 -87t56.5 -28q54 0 93 63z" />
    <glyph glyph-name="ydieresis" unicode="&#xff;" horiz-adv-x="475" 
d="M234 503q-19 0 -31 11t-12 30q0 22 14.5 35.5t37.5 13.5q19 0 31 -11t12 -29q0 -22 -15 -36t-37 -14zM379 503q-19 0 -30.5 11t-11.5 30q0 22 14.5 35.5t36.5 13.5q19 0 31 -11t12 -29q0 -22 -14.5 -36t-37.5 -14zM423 396q34 0 34 -12q0 -2 -1 -6t-2.5 -12t-3.5 -15
l-68 -321q-24 -121 -84 -183t-139 -62q-65 0 -101.5 26.5t-36.5 68.5q0 26 14 41t36 15q18 0 29 -10.5t11 -24.5q0 -11 -12 -28.5t-12 -29.5q0 -18 20 -30.5t50 -12.5q114 0 147 170l24 118q-52 -103 -141 -103q-48 0 -78.5 25t-30.5 71q0 37 29 133.5t29 124.5q0 36 -34 36
q-42 0 -61 -80q-1 -7 -10 -7q-8 0 -7 9q23 105 102 105q36 0 57.5 -18t21.5 -52q0 -32 -30 -131.5t-30 -132.5q0 -32 17 -46.5t43 -14.5q86 0 136 149l44 222q2 10 9.5 14t28.5 4z" />
    <glyph glyph-name="Amacron" unicode="&#x100;" horiz-adv-x="608" 
d="M252 739q6 0 42 -1t55 -1q22 0 64 1t49 1q14 0 14 -10q0 -25 -17 -25q-18 0 -53.5 1t-52.5 1q-15 0 -55 -1t-50 -1q-14 0 -14 12q0 23 18 23zM-36 -6q-9 0 -9 7q0 6 14 10q34 10 51 28.5t53 84.5l227 431q14 30 14 32q1 6 -3.5 10.5t-19.5 9.5l-7.5 3t-4 3t-1.5 5
q1 6 12 8q34 0 64 6t46.5 11.5t17.5 5.5q8 0 6 -7q0 -3 -4.5 -8.5t-5.5 -10.5q-2 -6 3 -27q49 -250 106 -497q10 -44 19.5 -60t28.5 -23q24 -9 24 -15t-10 -6q-3 0 -41.5 2.5t-62.5 2.5q-22 0 -60.5 -2.5t-40.5 -2.5q-9 0 -9 6t19 10q40 12 46 44q3 26 -20 139q-1 8 -15 11
q-19 3 -145 3q-94 0 -111 -3q-10 0 -14 -10l-45 -88q-11 -24 -14 -41q-7 -39 44 -56q14 -4 14 -9q-1 -7 -10 -7q-2 0 -36.5 3t-53.5 3q-16 0 -40.5 -3t-25.5 -3zM265 225q65 0 128 3q14 1 14 7q1 3 -3 22q-34 147 -69 324q-1 4 -2 4l-3 -3l-174 -337l-6 -13q0 -4 10 -5
q18 -2 105 -2z" />
    <glyph glyph-name="amacron" unicode="&#x101;" horiz-adv-x="477" 
d="M173 506q-14 0 -14 12q0 23 18 23q6 0 42 -1t55 -1q22 0 64 1t49 1q14 0 14 -10q0 -25 -17 -25q-18 0 -53.5 1t-52.5 1q-16 0 -56 -1t-49 -1zM446 98q7 0 6 -9q-13 -54 -35 -77t-58 -23q-28 0 -45 15.5t-17 44.5q0 21 7 46h-3q-49 -110 -138 -110q-56 0 -91.5 43.5
t-35.5 112.5q0 98 63 180t151 82q90 0 112 -94l30 44q27 44 33 44q5 0 5 -6q0 -5 -3 -20l-61 -285q-6 -34 -6 -42q0 -28 23 -28q18 0 30.5 16t23.5 57q3 9 9 9zM180 7q43 0 81 46t54 130q12 59 12 100q0 107 -70 107q-50 0 -88 -51q-27 -38 -44 -99t-17 -114q0 -119 72 -119
z" />
    <glyph glyph-name="Abreve" unicode="&#x102;" horiz-adv-x="608" 
d="M357 685q-52 0 -79 28t-27 63q0 22 10 22q7 0 8 -9q9 -52 97 -52q87 0 113 49q6 12 15 12q7 0 6 -9q-3 -34 -41.5 -69t-101.5 -35zM571 16q24 -9 24 -15t-10 -6q-3 0 -41.5 2.5t-62.5 2.5q-22 0 -60.5 -2.5t-40.5 -2.5q-9 0 -9 6t19 10q40 12 46 44q3 26 -20 139
q-1 8 -15 11q-19 3 -145 3q-94 0 -111 -3q-10 0 -14 -10l-45 -88q-11 -24 -14 -41q-7 -39 44 -56q14 -4 14 -9q-1 -7 -10 -7q-2 0 -36.5 3t-53.5 3q-16 0 -40.5 -3t-25.5 -3q-9 0 -9 7q0 6 14 10q34 10 51 28.5t53 84.5l227 431q14 30 14 32q1 6 -3.5 10.5t-19.5 9.5l-7.5 3
t-4 3t-1.5 5q1 6 12 8q34 0 64 6t46.5 11.5t17.5 5.5q8 0 6 -7q0 -3 -4.5 -8.5t-5.5 -10.5q-2 -6 3 -27q49 -250 106 -497q10 -44 19.5 -60t28.5 -23zM407 235q1 3 -3 22q-34 147 -69 324q-1 4 -2 4l-3 -3l-174 -337l-6 -13q0 -4 10 -5q18 -2 105 -2q65 0 128 3q14 1 14 7z
" />
    <glyph glyph-name="abreve" unicode="&#x103;" horiz-adv-x="477" 
d="M302 494q-52 0 -78 28t-26 72q0 34 12 34q7 0 8 -12q1 -34 20.5 -51t72.5 -17t79 17.5t42 53.5q5 9 11 9t6 -6q0 -45 -39.5 -86.5t-107.5 -41.5zM446 98q7 0 6 -9q-13 -54 -35 -77t-58 -23q-28 0 -45 15.5t-17 44.5q0 21 7 46h-3q-49 -110 -138 -110q-56 0 -91.5 43.5
t-35.5 112.5q0 98 63 180t151 82q90 0 112 -94l30 44q27 44 33 44q5 0 5 -6q0 -5 -3 -20l-61 -285q-6 -34 -6 -42q0 -28 23 -28q18 0 30.5 16t23.5 57q3 9 9 9zM180 7q43 0 81 46t54 130q12 59 12 100q0 107 -70 107q-50 0 -88 -51q-27 -38 -44 -99t-17 -114q0 -119 72 -119
z" />
    <glyph glyph-name="Aogonek" unicode="&#x104;" horiz-adv-x="608" 
d="M571 16q24 -9 24 -15t-10 -6q-3 0 -41.5 2.5t-62.5 2.5q-22 0 -60.5 -2.5t-40.5 -2.5h-2l-17 -15q-69 -63 -69 -117q0 -46 50 -50q28 0 43 4q3 1 8 1q4 0 4 -3q0 -4 -6 -8q-44 -29 -94 -29q-71 0 -71 60q0 47 35 84t111 82q3 4 18 7q40 12 46 44q3 26 -20 139
q-1 8 -15 11q-19 3 -145 3q-94 0 -111 -3q-10 0 -14 -10l-45 -88q-11 -24 -14 -41q-7 -39 44 -56q14 -4 14 -9q-1 -7 -10 -7q-2 0 -36.5 3t-53.5 3q-16 0 -40.5 -3t-25.5 -3q-9 0 -9 7q0 6 14 10q34 10 51 28.5t53 84.5l227 431q14 30 14 32q1 6 -3.5 10.5t-19.5 9.5l-7.5 3
t-4 3t-1.5 5q1 6 12 8q34 0 64 6t46.5 11.5t17.5 5.5q8 0 6 -7q0 -3 -4.5 -8.5t-5.5 -10.5q-2 -6 3 -27q49 -250 106 -497q10 -44 19.5 -60t28.5 -23zM407 235q1 3 -3 22q-34 147 -69 324q-1 4 -2 4l-3 -3l-174 -337l-6 -13q0 -4 10 -5q18 -2 105 -2q65 0 128 3q14 1 14 7z
" />
    <glyph glyph-name="aogonek" unicode="&#x105;" horiz-adv-x="477" 
d="M446 98q7 0 6 -9q-13 -52 -33 -75t-53 -25l-5 -5q-69 -63 -69 -117q0 -46 50 -50q28 0 43 4q3 1 8 1q4 0 4 -3q0 -4 -6 -8q-44 -29 -94 -29q-71 0 -71 60q0 42 28.5 76t88.5 72q-46 10 -46 59q0 21 7 46h-3q-49 -110 -138 -110q-56 0 -91.5 43.5t-35.5 112.5q0 98 63 180
t151 82q90 0 112 -94l30 44q27 44 33 44q5 0 5 -6q0 -5 -3 -20l-61 -285q-6 -34 -6 -42q0 -28 23 -28q18 0 30.5 16t23.5 57q3 9 9 9zM180 7q43 0 81 46t54 130q12 59 12 100q0 107 -70 107q-50 0 -88 -51q-27 -38 -44 -99t-17 -114q0 -119 72 -119z" />
    <glyph glyph-name="Cacute" unicode="&#x106;" horiz-adv-x="596" 
d="M323 673q-4 0 -4 4q0 5 7 9q160 103 183 112q11 4 19 4q13 0 21.5 -7.5t8.5 -18.5q0 -25 -43 -41q-52 -19 -119 -40.5t-73 -21.5zM500 -16q-7 0 -7 30q0 28 -15 28q-11 0 -38.5 -14t-67.5 -28.5t-83 -14.5q-103 0 -164 72.5t-61 188.5q0 162 104.5 280t240.5 118
q41 0 75 -12t54 -24.5t28 -12.5t12 6t10 25q6 18 14 18q6 0 6 -6q0 -1 -2.5 -11.5t-7 -38t-8.5 -64.5q-5 -43 -7 -77t-2.5 -46t-1.5 -14q-1 -7 -6 -7q-8 0 -9 10l-2 32q-7 109 -43 158.5t-106 49.5q-87 0 -156 -81q-46 -57 -75.5 -144t-29.5 -189q0 -112 42.5 -164
t106.5 -52q69 0 126.5 46.5t90.5 126.5l19 46q6 14 13 14q6 0 6 -6q0 -2 -8 -32t-20.5 -87t-21.5 -117q-1 -7 -6 -7z" />
    <glyph glyph-name="cacute" unicode="&#x107;" horiz-adv-x="403" 
d="M195 452q-3 -2 -5 3q0 3 3 7q126 132 144 147q16 14 26 15q28 4 34 -25q3 -20 -30 -42q-108 -74 -167 -103q-4 -2 -5 -2zM194 -15q-74 0 -115 47t-41 120q0 99 67.5 175.5t156.5 76.5q55 0 86 -30t31 -80q0 -30 -11.5 -51t-32.5 -21q-13 0 -21.5 8.5t-8.5 21.5
q0 16 19.5 40t19.5 41q0 22 -20.5 38.5t-49.5 16.5q-64 0 -113.5 -68t-49.5 -164q0 -70 28 -109t80 -39q44 0 80 28t50 77q4 14 9 14q6 0 6 -6q0 -3 -4 -17q-15 -49 -58 -84t-108 -35z" />
    <glyph glyph-name="Cdotaccent" unicode="&#x10a;" horiz-adv-x="596" 
d="M442 715q-21 0 -34.5 13t-13.5 35q0 21 13.5 34t34.5 13q22 0 35 -13t13 -34q0 -22 -13 -35t-35 -13zM500 -16q-7 0 -7 30q0 28 -15 28q-11 0 -38.5 -14t-67.5 -28.5t-83 -14.5q-103 0 -164 72.5t-61 188.5q0 162 104.5 280t240.5 118q41 0 75 -12t54 -24.5t28 -12.5
t12 6t10 25q6 18 14 18q6 0 6 -6q0 -1 -2.5 -11.5t-7 -38t-8.5 -64.5q-5 -43 -7 -77t-2.5 -46t-1.5 -14q-1 -7 -6 -7q-8 0 -9 10l-2 32q-7 109 -43 158.5t-106 49.5q-87 0 -156 -81q-46 -57 -75.5 -144t-29.5 -189q0 -112 42.5 -164t106.5 -52q69 0 126.5 46.5t90.5 126.5
l19 46q6 14 13 14q6 0 6 -6q0 -2 -8 -32t-20.5 -87t-21.5 -117q-1 -7 -6 -7z" />
    <glyph glyph-name="cdotaccent" unicode="&#x10b;" horiz-adv-x="403" 
d="M284 482q-22 0 -37 14t-15 36q0 24 15.5 39.5t39.5 15.5t38.5 -13.5t14.5 -36.5q0 -25 -15.5 -40t-40.5 -15zM194 -15q-74 0 -115 47t-41 120q0 99 67.5 175.5t156.5 76.5q55 0 86 -30t31 -80q0 -30 -11.5 -51t-32.5 -21q-13 0 -21.5 8.5t-8.5 21.5q0 16 19.5 40t19.5 41
q0 22 -20.5 38.5t-49.5 16.5q-64 0 -113.5 -68t-49.5 -164q0 -70 28 -109t80 -39q44 0 80 28t50 77q4 14 9 14q6 0 6 -6q0 -3 -4 -17q-15 -49 -58 -84t-108 -35z" />
    <glyph glyph-name="Ccaron" unicode="&#x10c;" horiz-adv-x="596" 
d="M325 823q3 0 6.5 -1.5t12 -7.5t18.5 -13.5t31.5 -22.5t45.5 -32h2q24 13 45.5 25t34.5 19t24.5 13.5t17 10t10.5 6t7.5 3t4.5 0.5q5 0 5 -7q-3 -11 -108 -94q-2 -2 -8 -7t-8 -7t-7 -5.5t-8 -5t-7 -4t-7.5 -3t-7.5 -0.5q-8 0 -16 5.5t-11.5 9.5t-14.5 19q-49 56 -60 71
t-10 21q0 7 8 7zM500 -16q-7 0 -7 30q0 28 -15 28q-11 0 -38.5 -14t-67.5 -28.5t-83 -14.5q-103 0 -164 72.5t-61 188.5q0 162 104.5 280t240.5 118q41 0 75 -12t54 -24.5t28 -12.5t12 6t10 25q6 18 14 18q6 0 6 -6q0 -1 -2.5 -11.5t-7 -38t-8.5 -64.5q-5 -43 -7 -77
t-2.5 -46t-1.5 -14q-1 -7 -6 -7q-8 0 -9 10l-2 32q-7 109 -43 158.5t-106 49.5q-87 0 -156 -81q-46 -57 -75.5 -144t-29.5 -189q0 -112 42.5 -164t106.5 -52q69 0 126.5 46.5t90.5 126.5l19 46q6 14 13 14q6 0 6 -6q0 -2 -8 -32t-20.5 -87t-21.5 -117q-1 -7 -6 -7z" />
    <glyph glyph-name="ccaron" unicode="&#x10d;" horiz-adv-x="403" 
d="M170 621q2 0 4.5 -1t7 -4t9 -7t13 -12t18 -16.5t25.5 -23.5t33 -30h2q139 91 143 93q3 1 5 1q5 0 5 -6q0 -8 -33 -39q-6 -5 -21 -18l-60 -56q-14 -14 -23 -18.5t-26 -4.5q-16 0 -24 5t-18 20q-8 12 -17 25t-14.5 21t-11.5 16.5t-9 13.5t-6.5 10t-5 8l-3 6t-2 4.5
t-0.5 3.5q0 9 9 9zM194 -15q-74 0 -115 47t-41 120q0 99 67.5 175.5t156.5 76.5q55 0 86 -30t31 -80q0 -30 -11.5 -51t-32.5 -21q-13 0 -21.5 8.5t-8.5 21.5q0 16 19.5 40t19.5 41q0 22 -20.5 38.5t-49.5 16.5q-64 0 -113.5 -68t-49.5 -164q0 -70 28 -109t80 -39q44 0 80 28
t50 77q4 14 9 14q6 0 6 -6q0 -3 -4 -17q-15 -49 -58 -84t-108 -35z" />
    <glyph glyph-name="Dcaron" unicode="&#x10e;" horiz-adv-x="670" 
d="M392 690q-8 0 -16 5.5t-11.5 9.5t-14.5 19q-49 56 -60 71t-10 21q0 7 8 7q3 0 6.5 -1.5t12 -7.5t18.5 -13.5t31.5 -22.5t45.5 -32h2q24 13 45.5 25t34.5 19t24.5 13.5t17 10t10.5 6t7.5 3t4.5 0.5q5 0 5 -7q-3 -11 -108 -94q-2 -2 -8 -7t-8 -7t-7 -5.5t-8 -5t-7 -4
t-7.5 -3t-7.5 -0.5zM378 639q139 0 211.5 -87.5t54.5 -222.5q-20 -145 -131 -242.5t-260 -97.5q-20 0 -70.5 5.5t-72.5 5.5q-17 0 -48 -2t-32 -2q-9 0 -7 8q0 1 0.5 2t1.5 2t2.5 1.5t3.5 1.5l4 2t5.5 2.5t6.5 2.5q19 7 31.5 53.5t52.5 253.5q45 232 44 264q-1 21 -14 27
q-17 9 -17 13q0 5 6 5q2 0 31.5 -2t48.5 -2q18 0 74 4.5t74 4.5zM552 321q12 57 12 109q0 101 -50 148t-134 47q-91 0 -110 -39q-12 -23 -60 -272q-50 -258 -46 -283q5 -28 93 -28q104 0 182.5 78t112.5 240z" />
    <glyph glyph-name="dcaron" unicode="&#x10f;" horiz-adv-x="546" 
d="M165 -14q-58 0 -92.5 46.5t-34.5 118.5q0 94 64.5 173t146.5 79q38 0 63.5 -21t34.5 -58l32 152q10 50 10 73q0 33 -25 45q-17 8 -17 12q0 7 12 8q36 2 66 10.5t45 16.5t17 8q7 0 5 -6q0 -3 -5 -17t-14.5 -48.5t-19.5 -79.5l-87 -418q-4 -17 -4 -35q0 -28 23 -28
q37 0 58 73q3 9 9 9q8 0 5 -8q-21 -101 -96 -101q-28 0 -43.5 15.5t-15.5 41.5q0 22 6 48h-3q-48 -109 -140 -109zM560 453q-8 0 -8 6q0 8 12 12q35 10 61 36.5t26 58.5q0 10 -5 10q-3 0 -16.5 -10.5t-26.5 -10.5q-15 0 -24.5 9t-9.5 25q0 23 17 38t41 15q49 0 49 -57
q0 -61 -44 -96.5t-72 -35.5zM177 5q47 0 83.5 44.5t53.5 106t17 123.5q0 53 -18.5 80t-51.5 27q-62 0 -107 -80t-45 -172q0 -129 68 -129z" />
    <glyph glyph-name="Dcroat" unicode="&#x110;" horiz-adv-x="660" 
d="M368 639q139 0 212 -88t54 -222q-19 -145 -130.5 -242.5t-260.5 -97.5q-20 0 -70.5 5.5t-72.5 5.5q-17 0 -48 -2t-32 -2q-7 0 -7 8q1 5 25 14q18 8 30.5 52.5t48.5 231.5q-13 0 -34.5 -1t-26.5 -1q-13 0 -13 16q0 19 17 19q5 0 27.5 -1.5t34.5 -1.5q45 228 43 259
q-1 19 -13 25q-18 9 -18 13q0 5 7 5q1 0 30.5 -2t48.5 -2q18 0 74 4.5t74 4.5zM542 321q12 57 12 109q0 101 -50 148t-134 47q-90 0 -110 -39q-11 -19 -57 -254q19 0 60.5 1.5t52.5 1.5q15 0 15 -15q0 -8 -4.5 -14.5t-11.5 -5.5q-39 2 -117 4q-47 -250 -43 -273
q5 -28 93 -28q103 0 181.5 78.5t112.5 239.5z" />
    <glyph glyph-name="dcroat" unicode="&#x111;" horiz-adv-x="486" 
d="M513 471q6 0 6 -8q0 -16 -11 -16h-66l-76 -367q-4 -17 -4 -35q0 -28 23 -28q37 0 58 73q3 9 9 9q8 0 5 -8q-21 -101 -96 -101q-28 0 -43.5 15.5t-15.5 41.5q0 22 6 48h-3q-48 -109 -140 -109q-58 0 -92.5 46.5t-34.5 118.5q0 94 64.5 173t146.5 79q38 0 63.5 -21
t34.5 -58l26 123h-69q-6 0 -6 8q0 16 11 16h69l1 5q10 50 10 73q0 33 -25 45q-17 8 -17 12q0 7 12 8q36 2 66 10.5t45 16.5t17 8q7 0 5 -6q0 -3 -5 -17t-14.5 -48.5t-19.5 -79.5l-6 -27h66zM177 5q47 0 83.5 44.5t53.5 106t17 123.5q0 53 -18.5 80t-51.5 27q-62 0 -107 -80
t-45 -172q0 -129 68 -129z" />
    <glyph glyph-name="Emacron" unicode="&#x112;" horiz-adv-x="562" 
d="M264 704q-14 0 -14 12q0 23 18 23q6 0 42 -1t55 -1q22 0 64 1t49 1q14 0 14 -10q0 -25 -17 -25q-18 0 -53.5 1t-52.5 1q-15 0 -55 -1t-50 -1zM580 634q6 0 6 -4q0 -3 -4 -8t-9 -15.5t-8 -23.5q-4 -20 -5.5 -46.5t-2 -45t-0.5 -19.5q-1 -8 -8 -8t-9 12q-7 90 -38.5 115.5
t-117.5 25.5q-54 0 -76 -4t-33 -15q-11 -12 -21.5 -53.5t-35.5 -181.5v-1v-1q-1 -1 -1 -2v-3q0 -12 13 -15.5t54 -3.5q64 0 88 17.5t47 72.5q3 8 9 8q5 0 4 -7q-15 -53 -23 -100q-5 -27 -8 -50t-3.5 -35t-1.5 -14q-1 -7 -7 -7q-5 0 -6 9q-1 3 -1 10.5v10.5q-3 40 -23.5 54.5
t-77.5 14.5q-40 0 -55 -3t-19 -14q-36 -207 -36 -247q0 -14 4 -24q7 -12 26 -16t69 -4q100 0 145 33.5t85 143.5q6 13 13 13q6 0 5 -8l-8 -24q-8 -24 -18 -59.5t-15 -63.5q-1 -5 -1 -16q0 -9 3 -17t3 -10q0 -4 -2 -6t-7 -2q-6 0 -54 0.5t-122 1.5t-140 1q-41 0 -73.5 -0.5
t-49 -1.5t-17.5 -1q-7 0 -6 6q1 5 21 12q26 9 37 31q16 33 53 237q3 13 6 32q38 213 38 254q0 23 -5.5 31.5t-20.5 13.5q-16 5 -16 12q0 8 9 8q2 0 43 -2t72 -2q73 0 149 1t126 2t57 1z" />
    <glyph glyph-name="emacron" unicode="&#x113;" horiz-adv-x="401" 
d="M146 506q-14 0 -14 12q0 23 18 23q6 0 42 -1t55 -1q22 0 64 1t49 1q14 0 14 -10q0 -25 -17 -25q-18 0 -53.5 1t-52.5 1q-15 0 -55 -1t-50 -1zM358 122q4 0 4 -5t-4 -12q-20 -51 -65 -85.5t-105 -34.5q-70 0 -110 47.5t-40 117.5q0 101 68.5 177.5t162.5 76.5
q48 0 78.5 -21t30.5 -56q0 -57 -69 -95t-196 -46q-1 -8 -1 -25q0 -71 26.5 -111t76.5 -40q43 0 78 31t56 72q4 9 9 9zM266 390q-56 0 -98.5 -56.5t-52.5 -132.5q100 11 144 35q62 34 62 100q0 26 -15 40t-40 14z" />
    <glyph glyph-name="Edotaccent" unicode="&#x116;" horiz-adv-x="562" 
d="M394 715q-21 0 -34.5 13t-13.5 35q0 21 13.5 34t34.5 13q22 0 35 -13t13 -34q0 -22 -13 -35t-35 -13zM580 634q6 0 6 -4q0 -3 -4 -8t-9 -15.5t-8 -23.5q-4 -20 -5.5 -46.5t-2 -45t-0.5 -19.5q-1 -8 -8 -8t-9 12q-7 90 -38.5 115.5t-117.5 25.5q-54 0 -76 -4t-33 -15
q-11 -12 -21.5 -53.5t-35.5 -181.5v-1v-1q-1 -1 -1 -2v-3q0 -12 13 -15.5t54 -3.5q64 0 88 17.5t47 72.5q3 8 9 8q5 0 4 -7q-15 -53 -23 -100q-5 -27 -8 -50t-3.5 -35t-1.5 -14q-1 -7 -7 -7q-5 0 -6 9q-1 3 -1 10.5v10.5q-3 40 -23.5 54.5t-77.5 14.5q-40 0 -55 -3t-19 -14
q-36 -207 -36 -247q0 -14 4 -24q7 -12 26 -16t69 -4q100 0 145 33.5t85 143.5q6 13 13 13q6 0 5 -8l-8 -24q-8 -24 -18 -59.5t-15 -63.5q-1 -5 -1 -16q0 -9 3 -17t3 -10q0 -4 -2 -6t-7 -2q-6 0 -54 0.5t-122 1.5t-140 1q-41 0 -73.5 -0.5t-49 -1.5t-17.5 -1q-7 0 -6 6
q1 5 21 12q26 9 37 31q16 33 53 237q3 13 6 32q38 213 38 254q0 23 -5.5 31.5t-20.5 13.5q-16 5 -16 12q0 8 9 8q2 0 43 -2t72 -2q73 0 149 1t126 2t57 1z" />
    <glyph glyph-name="edotaccent" unicode="&#x117;" horiz-adv-x="401" 
d="M270 482q-22 0 -37 14t-15 36q0 24 15.5 39.5t39.5 15.5t38.5 -13.5t14.5 -36.5q0 -25 -15.5 -40t-40.5 -15zM358 122q4 0 4 -5t-4 -12q-20 -51 -65 -85.5t-105 -34.5q-70 0 -110 47.5t-40 117.5q0 101 68.5 177.5t162.5 76.5q48 0 78.5 -21t30.5 -56q0 -57 -69 -95
t-196 -46q-1 -8 -1 -25q0 -71 26.5 -111t76.5 -40q43 0 78 31t56 72q4 9 9 9zM266 390q-56 0 -98.5 -56.5t-52.5 -132.5q100 11 144 35q62 34 62 100q0 26 -15 40t-40 14z" />
    <glyph glyph-name="Eogonek" unicode="&#x118;" horiz-adv-x="562" 
d="M580 634q6 0 6 -4q0 -3 -4 -8t-9 -15.5t-8 -23.5q-4 -20 -5.5 -46.5t-2 -45t-0.5 -19.5q-1 -8 -8 -8t-9 12q-7 90 -38.5 115.5t-117.5 25.5q-54 0 -76 -4t-33 -15q-11 -12 -21.5 -53.5t-35.5 -181.5v-1v-1q-1 -1 -1 -2v-3q0 -12 13 -15.5t54 -3.5q64 0 88 17.5t47 72.5
q3 8 9 8q5 0 4 -7q-15 -53 -23 -100q-5 -27 -8 -50t-3.5 -35t-1.5 -14q-1 -7 -7 -7q-5 0 -6 9q-1 3 -1 10.5v10.5q-3 40 -23.5 54.5t-77.5 14.5q-40 0 -55 -3t-19 -14q-36 -207 -36 -247q0 -14 4 -24q7 -12 26 -16t69 -4q100 0 145 33.5t85 143.5q6 13 13 13q6 0 5 -8
l-8 -24q-8 -24 -18 -59.5t-15 -63.5q-1 -5 -1 -16q0 -9 3 -17t3 -10q0 -4 -2 -6l-1 -1l-27 -24q-69 -63 -69 -117q0 -46 50 -50q28 0 43 4q3 1 8 1q4 0 4 -3q0 -4 -6 -8q-44 -29 -94 -29q-71 0 -71 60q0 47 34.5 83.5t109.5 81.5q-129 3 -304 3q-41 0 -73.5 -0.5t-49 -1.5
t-17.5 -1q-7 0 -6 6q1 5 21 12q26 9 37 31q16 33 53 237q3 13 6 32q38 213 38 254q0 23 -5.5 31.5t-20.5 13.5q-16 5 -16 12q0 8 9 8q2 0 43 -2t72 -2q73 0 149 1t126 2t57 1z" />
    <glyph glyph-name="eogonek" unicode="&#x119;" horiz-adv-x="401" 
d="M358 122q4 0 4 -5t-4 -12q-21 -52 -63 -84l-29 -26q-69 -63 -69 -117q0 -46 50 -50q28 0 43 4q3 1 8 1q4 0 4 -3q0 -4 -6 -8q-44 -29 -94 -29q-71 0 -71 60q0 39 24.5 71t74.5 66q-22 -5 -42 -5q-70 0 -110 47.5t-40 117.5q0 101 68.5 177.5t162.5 76.5q48 0 78.5 -21
t30.5 -56q0 -57 -69 -95t-196 -46q-1 -8 -1 -25q0 -71 26.5 -111t76.5 -40q43 0 78 31t56 72q4 9 9 9zM266 390q-56 0 -98.5 -56.5t-52.5 -132.5q100 11 144 35q62 34 62 100q0 26 -15 40t-40 14z" />
    <glyph glyph-name="Ecaron" unicode="&#x11a;" horiz-adv-x="562" 
d="M381 690q-8 0 -16 5.5t-11.5 9.5t-14.5 19q-49 56 -60 71t-10 21q0 7 8 7q3 0 6.5 -1.5t12 -7.5t18.5 -13.5t31.5 -22.5t45.5 -32h2q24 13 45.5 25t34.5 19t24.5 13.5t17 10t10.5 6t7.5 3t4.5 0.5q5 0 5 -7q-3 -11 -108 -94q-2 -2 -8 -7t-8 -7t-7 -5.5t-8 -5t-7 -4
t-7.5 -3t-7.5 -0.5zM580 634q6 0 6 -4q0 -3 -4 -8t-9 -15.5t-8 -23.5q-4 -20 -5.5 -46.5t-2 -45t-0.5 -19.5q-1 -8 -8 -8t-9 12q-7 90 -38.5 115.5t-117.5 25.5q-54 0 -76 -4t-33 -15q-11 -12 -21.5 -53.5t-35.5 -181.5v-1v-1q-1 -1 -1 -2v-3q0 -12 13 -15.5t54 -3.5
q64 0 88 17.5t47 72.5q3 8 9 8q5 0 4 -7q-15 -53 -23 -100q-5 -27 -8 -50t-3.5 -35t-1.5 -14q-1 -7 -7 -7q-5 0 -6 9q-1 3 -1 10.5v10.5q-3 40 -23.5 54.5t-77.5 14.5q-40 0 -55 -3t-19 -14q-36 -207 -36 -247q0 -14 4 -24q7 -12 26 -16t69 -4q100 0 145 33.5t85 143.5
q6 13 13 13q6 0 5 -8l-8 -24q-8 -24 -18 -59.5t-15 -63.5q-1 -5 -1 -16q0 -9 3 -17t3 -10q0 -4 -2 -6t-7 -2q-6 0 -54 0.5t-122 1.5t-140 1q-41 0 -73.5 -0.5t-49 -1.5t-17.5 -1q-7 0 -6 6q1 5 21 12q26 9 37 31q16 33 53 237q3 13 6 32q38 213 38 254q0 23 -5.5 31.5
t-20.5 13.5q-16 5 -16 12q0 8 9 8q2 0 43 -2t72 -2q73 0 149 1t126 2t57 1z" />
    <glyph glyph-name="ecaron" unicode="&#x11b;" horiz-adv-x="401" 
d="M416 621q5 0 5 -6q0 -8 -33 -39q-6 -5 -21 -18l-60 -56q-14 -14 -23 -18.5t-26 -4.5q-16 0 -24 5t-18 20q-8 12 -17 25t-14.5 21t-11.5 16.5t-9 13.5t-6.5 10t-5 8l-3 6t-2 4.5t-0.5 3.5q0 9 9 9q2 0 4.5 -1t7 -4t9 -7t13 -12t18 -16.5t25.5 -23.5t33 -30h2
q139 91 143 93q3 1 5 1zM378 327q0 -57 -69 -95t-196 -46q-1 -8 -1 -25q0 -71 26.5 -111t76.5 -40q43 0 78 31t56 72q4 9 9 9q4 0 4 -5t-4 -12q-20 -51 -65 -85.5t-105 -34.5q-70 0 -110 47.5t-40 117.5q0 101 68.5 177.5t162.5 76.5q48 0 78.5 -21t30.5 -56zM266 390
q-56 0 -98.5 -56.5t-52.5 -132.5q100 11 144 35q62 34 62 100q0 26 -15 40t-40 14z" />
    <glyph glyph-name="Gbreve" unicode="&#x11e;" horiz-adv-x="617" 
d="M426 685q-52 0 -79 28t-27 63q0 22 10 22q7 0 8 -9q9 -52 97 -52q87 0 113 49q6 12 15 12q7 0 6 -9q-3 -34 -41.5 -69t-101.5 -35zM604 246q5 0 5 -5q0 -6 -10 -9q-20 -4 -32 -12q-10 -6 -16.5 -26.5t-21.5 -92.5l-18 -94q-4 -22 -11 -22q-5 0 -5 15q0 33 -2 42.5
t-11 9.5t-34 -16.5t-67 -33t-92 -16.5q-105 0 -165.5 71.5t-60.5 183.5q0 165 110 285t253 120q42 0 74.5 -11.5t51.5 -23t27 -11.5q16 0 27 35q5 18 11 18t6 -8q0 -4 -3.5 -16.5t-8.5 -33t-8 -39.5q-4 -26 -6 -54t-3 -52l-1 -25q-1 -10 -8 -10q-6 0 -6 13
q-8 115 -45.5 159.5t-108.5 44.5q-73 0 -137 -55q-60 -52 -98.5 -153.5t-38.5 -220.5q0 -105 38.5 -154.5t101.5 -49.5q62 0 107 31t57 86l8 41q6 32 6 44t-6 18t-23 12q-10 3 -10 8q0 7 7 7q3 0 33.5 -3t47.5 -3q21 0 53 3t33 3z" />
    <glyph glyph-name="gbreve" unicode="&#x11f;" horiz-adv-x="436" 
d="M291 494q-52 0 -78 28t-26 72q0 34 12 34q7 0 8 -12q1 -34 20.5 -51t72.5 -17t79 17.5t42 53.5q5 9 11 9t6 -6q0 -45 -39.5 -86.5t-107.5 -41.5zM424 399q5 0 5 -6q0 -2 -1 -7t-2 -12t-2 -13l-71 -336q-23 -117 -83.5 -178.5t-137.5 -61.5q-61 0 -96 29.5t-35 74.5
q0 26 14 41.5t35 15.5q17 0 28 -11t11 -25q0 -12 -12.5 -31.5t-12.5 -32.5q0 -20 19.5 -33t50.5 -13q107 0 140 169l22 115q-49 -96 -134 -96q-54 0 -89.5 43t-35.5 113q0 97 62 178t152 81q88 0 111 -91l30 44q28 42 32 43zM181 9q41 0 78.5 43.5t54.5 121.5l4 20
q9 54 9 90q0 105 -70 105q-52 0 -89 -53q-27 -38 -43.5 -95.5t-16.5 -109.5q0 -122 73 -122z" />
    <glyph glyph-name="Gdotaccent" unicode="&#x120;" horiz-adv-x="617" 
d="M447 715q-21 0 -34.5 13t-13.5 35q0 21 13.5 34t34.5 13q22 0 35 -13t13 -34q0 -22 -13 -35t-35 -13zM500 -15q-5 0 -5 15q0 33 -2 42.5t-11 9.5t-34 -16.5t-67 -33t-92 -16.5q-105 0 -165.5 71.5t-60.5 183.5q0 165 110 285t253 120q42 0 74.5 -11.5t51.5 -23t27 -11.5
q16 0 27 35q5 18 11 18t6 -8q0 -4 -3.5 -16.5t-8.5 -33t-8 -39.5q-4 -26 -6 -54t-3 -52l-1 -25q-1 -10 -8 -10q-6 0 -6 13q-8 115 -45.5 159.5t-108.5 44.5q-73 0 -137 -55q-60 -52 -98.5 -153.5t-38.5 -220.5q0 -105 38.5 -154.5t101.5 -49.5q62 0 107 31t57 86l8 41
q6 32 6 44t-6 18t-23 12q-10 3 -10 8q0 7 7 7q3 0 33.5 -3t47.5 -3q21 0 53 3t33 3q5 0 5 -5q0 -6 -10 -9q-20 -4 -32 -12q-10 -6 -16.5 -26.5t-21.5 -92.5l-18 -94q-4 -22 -11 -22z" />
    <glyph glyph-name="gdotaccent" unicode="&#x121;" horiz-adv-x="436" 
d="M286 481q-22 0 -36 13t-14 35q0 24 15 38.5t38 14.5t37 -13t14 -35q0 -24 -14.5 -38.5t-39.5 -14.5zM424 399q5 0 5 -6q0 -2 -1 -7t-2 -12t-2 -13l-71 -336q-23 -117 -83.5 -178.5t-137.5 -61.5q-61 0 -96 29.5t-35 74.5q0 26 14 41.5t35 15.5q17 0 28 -11t11 -25
q0 -12 -12.5 -31.5t-12.5 -32.5q0 -20 19.5 -33t50.5 -13q107 0 140 169l22 115q-49 -96 -134 -96q-54 0 -89.5 43t-35.5 113q0 97 62 178t152 81q88 0 111 -91l30 44q28 42 32 43zM181 9q41 0 78.5 43.5t54.5 121.5l4 20q9 54 9 90q0 105 -70 105q-52 0 -89 -53
q-27 -38 -43.5 -95.5t-16.5 -109.5q0 -122 73 -122z" />
    <glyph glyph-name="Gcommaaccent" unicode="&#x122;" horiz-adv-x="617" 
d="M500 -15q-5 0 -5 15q0 33 -2 42.5t-11 9.5t-34 -16.5t-67 -33t-92 -16.5q-105 0 -165.5 71.5t-60.5 183.5q0 165 110 285t253 120q42 0 74.5 -11.5t51.5 -23t27 -11.5q16 0 27 35q5 18 11 18t6 -8q0 -4 -3.5 -16.5t-8.5 -33t-8 -39.5q-4 -26 -6 -54t-3 -52l-1 -25
q-1 -10 -8 -10q-6 0 -6 13q-8 115 -45.5 159.5t-108.5 44.5q-73 0 -137 -55q-60 -52 -98.5 -153.5t-38.5 -220.5q0 -105 38.5 -154.5t101.5 -49.5q62 0 107 31t57 86l8 41q6 32 6 44t-6 18t-23 12q-10 3 -10 8q0 7 7 7q3 0 33.5 -3t47.5 -3q21 0 53 3t33 3q5 0 5 -5
q0 -6 -10 -9q-20 -4 -32 -12q-10 -6 -16.5 -26.5t-21.5 -92.5l-18 -94q-4 -22 -11 -22zM234 -242q-8 0 -8 6q0 7 12 11q35 10 61 36.5t26 59.5q0 10 -5 10q-3 0 -16 -10.5t-26 -10.5q-15 0 -25 9t-10 24q0 23 17.5 38t40.5 15q50 0 50 -57q0 -61 -44 -96t-73 -35z" />
    <glyph glyph-name="gcommaaccent" unicode="&#x123;" horiz-adv-x="436" 
d="M280 465q-50 0 -50 57q0 61 44 96t73 35q8 0 8 -6q0 -7 -12 -11q-35 -10 -61 -36.5t-26 -59.5q0 -10 5 -10q3 0 16 10.5t26 10.5q15 0 25 -9t10 -24q0 -23 -17.5 -38t-40.5 -15zM424 399q5 0 5 -6q0 -2 -1 -7t-2 -12t-2 -13l-71 -336q-23 -117 -83.5 -178.5t-137.5 -61.5
q-61 0 -96 29.5t-35 74.5q0 26 14 41.5t35 15.5q17 0 28 -11t11 -25q0 -12 -12.5 -31.5t-12.5 -32.5q0 -20 19.5 -33t50.5 -13q107 0 140 169l22 115q-49 -96 -134 -96q-54 0 -89.5 43t-35.5 113q0 97 62 178t152 81q88 0 111 -91l30 44q28 42 32 43zM181 9q41 0 78.5 43.5
t54.5 121.5l4 20q9 54 9 90q0 105 -70 105q-52 0 -89 -53q-27 -38 -43.5 -95.5t-16.5 -109.5q0 -122 73 -122z" />
    <glyph glyph-name="Hbar" unicode="&#x126;" horiz-adv-x="762" 
d="M740 617q-20 -7 -30.5 -32.5t-25.5 -104.5h60q8 0 8 -12t-8 -12h-65q-7 -44 -24 -134q-41 -234 -41 -269q0 -34 19 -40q16 -5 16 -11t-8 -6q-2 0 -34.5 2t-48.5 2t-50 -2t-35 -2q-6 0 -6 5q1 5 20 12q24 8 36.5 50.5t43.5 213.5l-1 -1q3 18 -9 22q-15 5 -145 5
q-103 0 -129.5 -3t-30.5 -18q-34 -189 -34 -229q0 -34 19 -40q10 -3 13 -5t2 -6q0 -6 -8 -6q-2 0 -34 2t-48 2t-50 -2t-35 -2q-6 0 -6 5t20 12q22 8 34 42q13 39 52 264q18 98 24 137h-88q-8 0 -8 12t8 12h92q12 70 12 97q0 34 -19 40q-16 6 -16 10q0 7 8 7q2 0 34 -2t49 -2
t49.5 2t33.5 2q7 0 7 -5t-19 -12q-20 -7 -31 -32.5t-26 -104.5h314q12 70 12 97q0 34 -19 40q-16 5 -16 10q0 7 8 7q2 0 34 -2t49 -2t49.5 2t33.5 2q7 0 7 -5t-19 -12zM579 346l18 110h-314l-21 -116q1 -14 26.5 -16.5t126.5 -2.5q109 0 134.5 4t28.5 24z" />
    <glyph glyph-name="hbar" unicode="&#x127;" horiz-adv-x="454" 
d="M422 101q8 0 5 -9q-21 -102 -96 -102q-71 0 -71 71q0 30 30 131.5t30 130.5q0 59 -57 59q-98 0 -150 -216l-33 -156q-3 -16 -40 -16q-17 0 -23.5 3t-5.5 11q1 7 20 92l74 349h-59q-6 0 -6 8q0 16 11 16h59l7 33q8 37 8 52q0 23 -23 36q-16 8 -16 12q0 8 11 9
q32 2 59 10.5t42 16t18 7.5q6 0 6 -6l-4 -12q-5 -12 -12 -37t-13 -53l-15 -68h77q6 0 6 -8q0 -16 -11 -16h-77q-13 -67 -35 -166q52 121 148 121q45 0 73.5 -26t28.5 -69q0 -33 -31 -129.5t-31 -124.5q0 -38 30 -38q19 0 32 17.5t25 57.5q3 9 9 9z" />
    <glyph glyph-name="Itilde" unicode="&#x128;" horiz-adv-x="310" 
d="M125 680q-7 0 -4 9q9 39 29.5 67.5t53.5 28.5q22 0 66 -23q38 -22 57 -22q29 0 43 33q4 10 10 10t6 -7q0 -27 -22.5 -56.5t-55.5 -29.5q-23 0 -63 22q-38 21 -57 21q-34 0 -51 -42q-4 -11 -12 -11zM31 -4q-6 0 -6 6q2 6 20 12q25 8 38.5 54t53.5 251q44 228 43 262
q0 29 -18 36q-16 5 -15 9v2q0 6 8 6q2 0 34 -2t48 -2t49.5 2t35.5 2q6 0 6 -6q-2 -6 -20 -11q-25 -9 -38 -54t-52 -244q-45 -236 -45 -270q0 -29 18 -35q16 -6 15 -10v-2q0 -6 -8 -6q-2 0 -34 2t-49 2t-50 -2t-34 -2z" />
    <glyph glyph-name="itilde" unicode="&#x129;" horiz-adv-x="262" 
d="M50 498q-7 0 -4 9q9 39 29.5 67.5t53.5 28.5q22 0 66 -23q39 -22 57 -22q29 0 43 33q4 10 10 10t6 -7q0 -27 -22.5 -56.5t-55.5 -29.5q-23 0 -63 22q-38 21 -57 21q-34 0 -51 -42q-4 -11 -12 -11zM136 -10q-73 0 -73 73q0 31 33.5 144t33.5 136q0 35 -30 35
q-45 0 -60 -74q-2 -6 -9 -6t-6 8q16 97 99 97q36 0 55 -17.5t19 -46.5q0 -33 -34 -146t-34 -138q0 -38 29 -38q19 0 32 17t26 58q3 9 8 9q7 0 6 -9q-21 -102 -95 -102z" />
    <glyph glyph-name="Imacron" unicode="&#x12a;" horiz-adv-x="310" 
d="M129 739q6 0 42 -1t55 -1q22 0 64 1t49 1q14 0 14 -10q0 -25 -17 -25q-18 0 -53.5 1t-52.5 1q-16 0 -56 -1t-49 -1q-14 0 -14 12q0 23 18 23zM31 -4q-6 0 -6 6q2 6 20 12q25 8 38.5 54t53.5 251q44 228 43 262q0 29 -18 36q-16 5 -15 9v2q0 6 8 6q2 0 34 -2t48 -2t49.5 2
t35.5 2q6 0 6 -6q-2 -6 -20 -11q-25 -9 -38 -54t-52 -244q-45 -236 -45 -270q0 -29 18 -35q16 -6 15 -10v-2q0 -6 -8 -6q-2 0 -34 2t-49 2t-50 -2t-34 -2z" />
    <glyph glyph-name="imacron" unicode="&#x12b;" horiz-adv-x="262" 
d="M52 541q5 0 34 -1t44 -1q18 0 51 1t39 1q11 0 11 -10q0 -25 -13 -25q-15 0 -43 1t-42 1q-12 0 -44 -1t-40 -1q-11 0 -11 12q0 23 14 23zM136 -10q-73 0 -73 73q0 31 33.5 144t33.5 136q0 35 -30 35q-45 0 -60 -74q-2 -6 -9 -6t-6 8q16 97 99 97q36 0 55 -17.5t19 -46.5
q0 -33 -34 -146t-34 -138q0 -38 29 -38q19 0 32 17t26 58q3 9 8 9q7 0 6 -9q-21 -102 -95 -102z" />
    <glyph glyph-name="Iogonek" unicode="&#x12e;" horiz-adv-x="310" 
d="M322 634q6 0 6 -6q-2 -6 -20 -11q-25 -9 -38 -54t-52 -244q-45 -236 -45 -270q0 -29 18 -35q16 -6 15 -10v-2q0 -6 -8 -6q-1 0 -30 2t-46 2l-21 -19q-69 -63 -69 -117q0 -46 50 -50q28 0 43 4q3 1 8 1q4 0 4 -3q0 -4 -6 -8q-44 -29 -94 -29q-71 0 -71 60q0 45 33 81.5
t104 79.5q-12 0 -28.5 -1t-28.5 -2t-15 -1q-6 0 -6 6q2 6 20 12q25 8 38.5 54t53.5 251q44 228 43 262q0 29 -18 36q-16 5 -15 9v2q0 6 8 6q2 0 34 -2t48 -2t49.5 2t35.5 2z" />
    <glyph glyph-name="iogonek" unicode="&#x12f;" horiz-adv-x="262" 
d="M175 488q-24 0 -39.5 14.5t-15.5 38.5q0 25 16.5 41t41.5 16t40 -14.5t15 -37.5q0 -26 -16 -42t-42 -16zM225 101q7 0 6 -9q-19 -88 -74 -100l-8 -7q-69 -63 -69 -117q0 -46 50 -50q28 0 43 4q3 1 8 1q4 0 4 -3q0 -4 -6 -8q-44 -29 -94 -29q-71 0 -71 60q0 42 28 75.5
t87 71.5q-66 4 -66 73q0 31 33.5 144t33.5 136q0 35 -30 35q-45 0 -60 -74q-2 -6 -9 -6t-6 8q16 97 99 97q36 0 55 -17.5t19 -46.5q0 -33 -34 -146t-34 -138q0 -38 29 -38q19 0 32 17t26 58q3 9 8 9z" />
    <glyph glyph-name="Idotaccent" unicode="&#x130;" horiz-adv-x="310" 
d="M256 715q-21 0 -34.5 13t-13.5 35q0 21 13.5 34t34.5 13q22 0 35 -13t13 -34q0 -22 -13 -35t-35 -13zM31 -4q-6 0 -6 6q2 6 20 12q25 8 38.5 54t53.5 251q44 228 43 262q0 29 -18 36q-16 5 -15 9v2q0 6 8 6q2 0 34 -2t48 -2t49.5 2t35.5 2q6 0 6 -6q-2 -6 -20 -11
q-25 -9 -38 -54t-52 -244q-45 -236 -45 -270q0 -29 18 -35q16 -6 15 -10v-2q0 -6 -8 -6q-2 0 -34 2t-49 2t-50 -2t-34 -2z" />
    <glyph glyph-name="dotlessi" unicode="&#x131;" horiz-adv-x="262" 
d="M136 -10q-73 0 -73 73q0 31 33.5 144t33.5 136q0 35 -30 35q-45 0 -60 -74q-2 -6 -9 -6t-6 8q16 97 99 97q36 0 55 -17.5t19 -46.5q0 -33 -34 -146t-34 -138q0 -38 29 -38q19 0 32 17t26 58q3 9 8 9q7 0 6 -9q-21 -102 -95 -102z" />
    <glyph glyph-name="IJ" unicode="&#x132;" horiz-adv-x="554" 
d="M215 -15q-61 0 -98.5 30.5t-37.5 83.5q0 43 23 78.5t56 35.5q15 0 24 -8.5t9 -20.5q0 -20 -32.5 -49.5t-32.5 -60.5q0 -29 22.5 -52t68.5 -23q129 0 160 164l50 253q24 126 24 159q0 19 -5.5 27t-20.5 17q-11 7 -11 10q0 8 7 8q2 0 34.5 -3.5t53.5 -3.5q22 0 55 3.5
t35 3.5q5 0 5 -5q0 -2 -0.5 -3t-1.5 -2t-3 -2l-3 -1.5t-4.5 -2t-6.5 -2.5q-27 -9 -38 -35t-32 -133l-40 -210q-50 -256 -260 -256zM84 303q-5 0 -5 4q0 6 3.5 8t15.5 5q23 7 32.5 34t27.5 123q17 88 17 107q0 26 -20 33q-15 6 -15 9q0 8 8 8q1 0 32.5 -2t47.5 -2q15 0 46 2
t33 2q5 0 5 -4q-1 -7 -12 -11q-4 -1 -6 -2q-21 -7 -31 -33.5t-24 -106.5q-20 -116 -20 -124q0 -27 17 -33q14 -4 14 -9q0 -8 -8 -8q-1 0 -31 2t-45 2q-16 0 -48 -2t-34 -2z" />
    <glyph glyph-name="ij" unicode="&#x133;" horiz-adv-x="501" 
d="M173 491q-24 0 -39.5 14.5t-15.5 38.5q0 25 16.5 41t41.5 16t40.5 -14.5t15.5 -37.5q0 -26 -16.5 -42t-42.5 -16zM439 488q-24 0 -39.5 14.5t-15.5 38.5q0 25 16.5 41t41.5 16t40 -14.5t15 -37.5q0 -26 -16 -42t-42 -16zM136 -10q-73 0 -73 73q0 30 33.5 143.5
t33.5 136.5q0 35 -31 35q-43 0 -59 -74q-2 -6 -9 -6q-8 0 -7 7q16 98 99 98q36 0 55 -18t19 -46q0 -33 -34 -146t-34 -138q0 -38 30 -38q19 0 32 17t26 57q1 10 8 10t6 -9q-12 -53 -35 -77.5t-60 -24.5zM244 -215q-34 0 -57 17t-23 42q0 20 12 33t31 13q15 0 25 -8t10 -21
q0 -8 -6 -20t-6 -18q0 -22 27 -22q39 0 56 47q5 11 7 24t3.5 34.5t2.5 31.5q1 9 23 113l49 243q6 32 6 49q0 35 -33 35q-43 0 -60 -74q-1 -6 -9 -6t-7 8q17 97 99 97q37 0 56 -18t19 -47q0 -20 -6 -52l-57 -289q-22 -110 -65.5 -161t-96.5 -51z" />
    <glyph glyph-name="Kcommaaccent" unicode="&#x136;" horiz-adv-x="622" 
d="M663 636q6 0 6 -5q0 -7 -15 -11q-35 -8 -63 -25.5t-68 -55.5l-154 -143q103 -243 131 -302t50 -72q24 -13 24 -19q-1 -7 -9 -7q-2 0 -27 2t-44 2q-23 0 -59 -2t-37 -2q-6 0 -6 5q1 3 14 11q14 6 14 18q1 16 -30.5 100t-78.5 189q-4 9 -9 9q-4 0 -9 -4l-95 -89
q-33 -171 -28 -199q3 -17 18 -22q14 -7 14 -10v-2q0 -6 -8 -6q-2 0 -34 2t-48 2t-50 -2t-35 -2q-6 0 -6 6q2 6 20 12q26 8 39.5 54t52.5 251q44 227 44 262q0 29 -19 36q-15 7 -15 11q1 6 8 6q2 0 34.5 -2t48.5 -2q17 0 49.5 2t34.5 2q8 0 6 -6q-1 -5 -19 -11
q-26 -9 -39 -54t-52 -244q-7 -37 -12 -62l236 225q48 47 67 68t22 34q3 21 -30 36q-9 3 -8 9q1 7 12 7q2 0 17 -1.5t35.5 -3t37.5 -1.5q14 0 31 1.5t28.5 3t12.5 1.5zM295 -54q50 0 50 -57q0 -61 -44 -96t-73 -35q-8 0 -8 6q0 7 12 11q35 10 61 36.5t26 59.5q0 10 -5 10
q-3 0 -16 -10.5t-26 -10.5q-15 0 -25 9t-10 24q0 23 17.5 38t40.5 15z" />
    <glyph glyph-name="kcommaaccent" unicode="&#x137;" horiz-adv-x="414" 
d="M388 109q6 0 6 -9q-6 -51 -28 -82t-54 -31q-16 0 -29.5 6.5t-27 25.5t-21.5 31.5t-25 44.5q-15 30 -20 39.5t-16 25.5t-20.5 20.5t-21.5 4.5q-7 0 -10 -9l-37 -171q-4 -16 -35 -16q-36 0 -36 14q0 4 3 18.5t8 37t8 35.5l88 407q8 35 8 52q0 22 -24 35q-17 8 -17 13
q0 8 12 9q32 2 59.5 10.5t43 16t18.5 7.5q6 0 6 -6q0 -1 -4 -12.5t-11.5 -36.5t-13.5 -54l-49 -225h3q45 94 139 94q38 0 65 -19.5t27 -55.5q0 -63 -60 -103t-149 -40q27 -8 43 -22t38 -45q21 -29 31.5 -42t25 -25t25.5 -12q30 0 44 58q4 11 8 11zM127 209q-2 -14 36 -14
q52 0 86 22q62 36 62 114q0 53 -49 53q-34 0 -73 -38.5t-54 -99.5q-6 -24 -8 -37zM178 -54q50 0 50 -57q0 -61 -44 -96t-73 -35q-8 0 -8 6q0 7 12 11q35 10 61 36.5t26 59.5q0 10 -5 10q-3 0 -16 -10.5t-26 -10.5q-15 0 -25 9t-10 24q0 23 17.5 38t40.5 15z" />
    <glyph glyph-name="Lacute" unicode="&#x139;" horiz-adv-x="542" 
d="M239 673q-4 0 -4 4q0 5 7 9q160 103 183 112q11 4 19 4q13 0 21.5 -7.5t8.5 -18.5q0 -25 -43 -41q-52 -19 -119 -40.5t-73 -21.5zM255 -1q-64 0 -116.5 -1t-79.5 -2.5t-30 -1.5q-7 0 -7 6q1 4 22 16q20 11 31.5 52.5t49.5 236.5q49 248 49 281q0 23 -13 30q-16 12 -16 15
q1 6 8 6l25 -3q26 -4 49 -4t55 3.5t33 3.5q7 0 6 -7q-1 -5 -26 -16q-23 -10 -35.5 -56t-54.5 -261q-33 -169 -39 -208.5t0 -52.5q10 -21 107 -21q88 0 135.5 37t87.5 141q4 9 9 9q7 0 6 -9q-3 -13 -5 -17q-43 -135 -43 -150q0 -9 4 -16.5t4 -10.5q0 -6 -8 -6q-5 0 -35 1.5
t-77.5 3t-95.5 1.5z" />
    <glyph glyph-name="lacute" unicode="&#x13a;" horiz-adv-x="240" 
d="M99 673q-4 0 -4 4q0 5 7 9q160 103 183 112q11 4 19 4q13 0 21.5 -7.5t8.5 -18.5q0 -25 -43 -41q-52 -19 -119 -40.5t-73 -21.5zM114 -10q-69 0 -69 75q0 6 0.5 12t3 19t5.5 28t9 46.5t13 66.5t18.5 96t24.5 127q15 68 15 91q0 31 -26 42q-23 8 -23 14t13 7q37 2 67 10.5
t45 16.5t18 8q7 0 5 -5q0 -5 -5.5 -22.5t-14.5 -51.5t-17 -72q-86 -425 -86 -443q0 -38 28 -38q39 0 59 75q3 9 8 9q9 0 6 -9q-12 -54 -35 -78t-62 -24z" />
    <glyph glyph-name="Lcommaaccent" unicode="&#x13b;" horiz-adv-x="542" 
d="M255 -1q-64 0 -116.5 -1t-79.5 -2.5t-30 -1.5q-7 0 -7 6q1 4 22 16q20 11 31.5 52.5t49.5 236.5q49 248 49 281q0 23 -13 30q-16 12 -16 15q1 6 8 6l25 -3q26 -4 49 -4t55 3.5t33 3.5q7 0 6 -7q-1 -5 -26 -16q-23 -10 -35.5 -56t-54.5 -261q-33 -169 -39 -208.5t0 -52.5
q10 -21 107 -21q88 0 135.5 37t87.5 141q4 9 9 9q7 0 6 -9q-3 -13 -5 -17q-43 -135 -43 -150q0 -9 4 -16.5t4 -10.5q0 -6 -8 -6q-5 0 -35 1.5t-77.5 3t-95.5 1.5zM178 -242q-8 0 -8 6q0 7 12 11q35 10 61 36.5t26 59.5q0 10 -5 10q-3 0 -16 -10.5t-26 -10.5q-15 0 -25 9
t-10 24q0 23 17.5 38t40.5 15q50 0 50 -57q0 -61 -44 -96t-73 -35z" />
    <glyph glyph-name="lcommaaccent" unicode="&#x13c;" horiz-adv-x="240" 
d="M114 -10q-69 0 -69 75q0 6 0.5 12t3 19t5.5 28t9 46.5t13 66.5t18.5 96t24.5 127q15 68 15 91q0 31 -26 42q-23 8 -23 14t13 7q37 2 67 10.5t45 16.5t18 8q7 0 5 -5q0 -5 -5.5 -22.5t-14.5 -51.5t-17 -72q-86 -425 -86 -443q0 -38 28 -38q39 0 59 75q3 9 8 9q9 0 6 -9
q-12 -54 -35 -78t-62 -24zM39 -242q-8 0 -8 6q0 7 12 11q35 10 61 36.5t26 59.5q0 10 -5 10q-3 0 -16 -10.5t-26 -10.5q-15 0 -25 9t-10 24q0 23 17.5 38t40.5 15q50 0 50 -57q0 -61 -44 -96t-73 -35z" />
    <glyph glyph-name="Lcaron" unicode="&#x13d;" horiz-adv-x="542" 
d="M432 455q-8 0 -8 6q0 9 11 11q36 11 62 37.5t26 58.5q0 10 -6 10q-2 0 -15.5 -10.5t-26.5 -10.5q-15 0 -24.5 9t-9.5 25q0 23 17 37.5t40 14.5q50 0 50 -56q0 -61 -44 -96.5t-72 -35.5zM255 -1q-64 0 -116.5 -1t-79.5 -2.5t-30 -1.5q-7 0 -7 6q1 4 22 16q20 11 31.5 52.5
t49.5 236.5q49 248 49 281q0 23 -13 30q-16 12 -16 15q1 6 8 6l25 -3q26 -4 49 -4t55 3.5t33 3.5q7 0 6 -7q-1 -5 -26 -16q-23 -10 -35.5 -56t-54.5 -261q-33 -169 -39 -208.5t0 -52.5q10 -21 107 -21q88 0 135.5 37t87.5 141q4 9 9 9q7 0 6 -9q-3 -13 -5 -17
q-43 -135 -43 -150q0 -9 4 -16.5t4 -10.5q0 -6 -8 -6q-5 0 -35 1.5t-77.5 3t-95.5 1.5z" />
    <glyph glyph-name="lcaron" unicode="&#x13e;" horiz-adv-x="272" 
d="M114 -10q-69 0 -69 75q0 6 0.5 12t3 19t5.5 28t9 46.5t13 66.5t18.5 96t24.5 127q15 68 15 91q0 31 -26 42q-23 8 -23 14t13 7q37 2 67 10.5t45 16.5t18 8q7 0 5 -5q0 -5 -5.5 -22.5t-14.5 -51.5t-17 -72q-86 -425 -86 -443q0 -38 28 -38q39 0 59 75q3 9 8 9q9 0 6 -9
q-12 -54 -35 -78t-62 -24zM296 461q-8 0 -8 6q0 7 12 11q35 10 61 36.5t26 59.5q0 10 -5 10q-3 0 -16 -10.5t-26 -10.5q-15 0 -25 9.5t-10 24.5q0 23 17.5 37.5t40.5 14.5q50 0 50 -57q0 -61 -44 -96t-73 -35z" />
    <glyph glyph-name="Ldot" unicode="&#x13f;" horiz-adv-x="542" 
d="M255 -1q-64 0 -116.5 -1t-79.5 -2.5t-30 -1.5q-7 0 -7 6q1 4 22 16q20 11 31.5 52.5t49.5 236.5q49 248 49 281q0 23 -13 30q-16 12 -16 15q1 6 8 6l25 -3q26 -4 49 -4t55 3.5t33 3.5q7 0 6 -7q-1 -5 -26 -16q-23 -10 -35.5 -56t-54.5 -261q-33 -169 -39 -208.5t0 -52.5
q10 -21 107 -21q88 0 135.5 37t87.5 141q4 9 9 9q7 0 6 -9q-3 -13 -5 -17q-43 -135 -43 -150q0 -9 4 -16.5t4 -10.5q0 -6 -8 -6q-5 0 -35 1.5t-77.5 3t-95.5 1.5zM435 369q20 0 31.5 -11t11.5 -30q0 -22 -14 -35.5t-36 -13.5q-19 0 -30.5 11t-11.5 30q0 22 14 35.5t35 13.5z
" />
    <glyph glyph-name="ldot" unicode="&#x140;" horiz-adv-x="300" 
d="M114 -10q-69 0 -69 75q0 6 0.5 12t3 19t5.5 28t9 46.5t13 66.5t18.5 96t24.5 127q15 68 15 91q0 31 -26 42q-23 8 -23 14t13 7q37 2 67 10.5t45 16.5t18 8q7 0 5 -5q0 -5 -5.5 -22.5t-14.5 -51.5t-17 -72q-86 -425 -86 -443q0 -38 28 -38q39 0 59 75q3 9 8 9q9 0 6 -9
q-12 -54 -35 -78t-62 -24zM314 361q20 0 31.5 -11t11.5 -30q0 -22 -14 -35.5t-36 -13.5q-19 0 -30.5 11t-11.5 30q0 22 14 35.5t35 13.5z" />
    <glyph glyph-name="Lslash" unicode="&#x141;" horiz-adv-x="542" 
d="M505 202q7 0 6 -9q-3 -13 -5 -17q-43 -135 -43 -150q0 -9 4 -16.5t4 -10.5q0 -6 -8 -6q-5 0 -35 1.5t-77.5 3t-95.5 1.5q-64 0 -116.5 -1t-79.5 -2.5t-30 -1.5q-7 0 -7 6q1 4 22 16q20 11 31.5 51t46.5 218l-57 -23q-6 -3 -10 -3q-9 0 -9 11q0 6 8 9l72 29q48 246 48 278
q0 23 -13 30q-16 12 -16 15q1 6 8 6l25 -3q26 -4 49 -4t55 3.5t33 3.5q7 0 6 -7q-1 -5 -26 -16q-22 -10 -34 -51.5t-47 -219.5l69 28q2 1 6 1q9 0 9 -11q0 -6 -8 -9l-80 -32q-1 -4 -2.5 -11.5t-2.5 -11.5q-33 -169 -39 -208.5t0 -52.5q10 -21 107 -21q88 0 135.5 37
t87.5 141q4 9 9 9z" />
    <glyph glyph-name="lslash" unicode="&#x142;" horiz-adv-x="240" 
d="M251 401q9 0 9 -11q0 -6 -8 -9l-87 -35q-55 -274 -55 -291q0 -38 28 -38q39 0 59 75q3 9 8 9q9 0 6 -9q-12 -54 -35 -78t-62 -24q-69 0 -69 75q0 15 47 252l-65 -26q-6 -3 -10 -3q-9 0 -9 11q0 6 8 9l80 32q15 75 23 120q15 68 15 91q0 31 -26 42q-23 8 -23 14t13 7
q37 2 67 10.5t45 16.5t18 8q7 0 5 -5q0 -5 -5.5 -22.5t-14.5 -51.5t-17 -72l-26 -128l75 30q2 1 6 1z" />
    <glyph glyph-name="Nacute" unicode="&#x143;" horiz-adv-x="649" 
d="M348 673q-4 0 -4 4q0 5 7 9q160 103 183 112q11 4 19 4q13 0 21.5 -7.5t8.5 -18.5q0 -25 -43 -41q-52 -19 -119 -40.5t-73 -21.5zM515 -18q-6 0 -15 14q-50 97 -301 537q-9 14 -13 14t-7 -9l-76 -401q-12 -62 -4 -87.5t45 -38.5q8 -2 11 -4t2 -6q0 -7 -9 -7q-3 0 -32 3
t-46 3q-15 0 -42.5 -3t-32.5 -3q-7 0 -7 6q1 6 16 10q34 9 52.5 36.5t32.5 98.5l71 374q8 42 8 58q0 25 -28 35q-33 9 -33 17q0 7 7 7q1 0 21 -3t29 -3q11 0 26 3t20 3q17 0 32 -26q38 -62 159.5 -274t124.5 -217q5 -11 8 -11t4 6l73 391q10 56 2 79t-37 34q-17 5 -17 12
q0 6 8 6q1 0 32 -3t44 -3q15 0 40 3t26 3q6 0 6 -5t-18 -11q-29 -9 -45 -34t-26 -81l-96 -504q-4 -19 -15 -19z" />
    <glyph glyph-name="nacute" unicode="&#x144;" horiz-adv-x="511" 
d="M217 452q-3 -2 -5 3q0 3 3 7q126 132 144 147q16 14 26 15q28 4 34 -25q3 -20 -30 -42q-108 -74 -167 -103q-4 -2 -5 -2zM479 102q8 0 5 -9q-12 -53 -35.5 -77.5t-60.5 -24.5q-72 0 -72 71q0 30 30 131.5t30 130.5q0 59 -56 59q-101 0 -153 -230l-33 -142q-3 -16 -39 -16
q-30 0 -30 14q0 2 1.5 10.5t6.5 29.5t11 47.5t17.5 75.5t23.5 103q11 51 11 67q0 33 -32 33q-43 0 -57 -71q-1 -6 -8 -6q-8 0 -7 8q7 48 32 72.5t63 24.5q34 0 52 -16.5t18 -43.5q0 -19 -21 -103h1q29 85 69 125t97 40q45 0 73 -26t28 -70q0 -33 -30.5 -129t-30.5 -124
q0 -38 30 -38q19 0 31.5 17t25.5 57q3 10 9 10z" />
    <glyph glyph-name="Ncommaaccent" unicode="&#x145;" horiz-adv-x="649" 
d="M515 -18q-6 0 -15 14q-50 97 -301 537q-9 14 -13 14t-7 -9l-76 -401q-12 -62 -4 -87.5t45 -38.5q8 -2 11 -4t2 -6q0 -7 -9 -7q-3 0 -32 3t-46 3q-15 0 -42.5 -3t-32.5 -3q-7 0 -7 6q1 6 16 10q34 9 52.5 36.5t32.5 98.5l71 374q8 42 8 58q0 25 -28 35q-33 9 -33 17
q0 7 7 7q1 0 21 -3t29 -3q11 0 26 3t20 3q17 0 32 -26q38 -62 159.5 -274t124.5 -217q5 -11 8 -11t4 6l73 391q10 56 2 79t-37 34q-17 5 -17 12q0 6 8 6q1 0 32 -3t44 -3q15 0 40 3t26 3q6 0 6 -5t-18 -11q-29 -9 -45 -34t-26 -81l-96 -504q-4 -19 -15 -19zM224 -242
q-8 0 -8 6q0 7 12 11q35 10 61 36.5t26 59.5q0 10 -5 10q-3 0 -16 -10.5t-26 -10.5q-15 0 -25 9t-10 24q0 23 17.5 38t40.5 15q50 0 50 -57q0 -61 -44 -96t-73 -35z" />
    <glyph glyph-name="ncommaaccent" unicode="&#x146;" horiz-adv-x="511" 
d="M479 102q8 0 5 -9q-12 -53 -35.5 -77.5t-60.5 -24.5q-72 0 -72 71q0 30 30 131.5t30 130.5q0 59 -56 59q-101 0 -153 -230l-33 -142q-3 -16 -39 -16q-30 0 -30 14q0 2 1.5 10.5t6.5 29.5t11 47.5t17.5 75.5t23.5 103q11 51 11 67q0 33 -32 33q-43 0 -57 -71q-1 -6 -8 -6
q-8 0 -7 8q7 48 32 72.5t63 24.5q34 0 52 -16.5t18 -43.5q0 -19 -21 -103h1q29 85 69 125t97 40q45 0 73 -26t28 -70q0 -33 -30.5 -129t-30.5 -124q0 -38 30 -38q19 0 31.5 17t25.5 57q3 10 9 10zM266 -54q50 0 50 -57q0 -61 -44 -96t-73 -35q-8 0 -8 6q0 7 12 11
q35 10 61 36.5t26 59.5q0 10 -5 10q-3 0 -16 -10.5t-26 -10.5q-15 0 -25 9t-10 24q0 23 17.5 38t40.5 15z" />
    <glyph glyph-name="Ncaron" unicode="&#x147;" horiz-adv-x="649" 
d="M350 823q3 0 6.5 -1.5t12 -7.5t18.5 -13.5t31.5 -22.5t45.5 -32h2q24 13 45.5 25t34.5 19t24.5 13.5t17 10t10.5 6t7.5 3t4.5 0.5q5 0 5 -7q-3 -11 -108 -94q-2 -2 -8 -7t-8 -7t-7 -5.5t-8 -5t-7 -4t-7.5 -3t-7.5 -0.5q-8 0 -16 5.5t-11.5 9.5t-14.5 19q-49 56 -60 71
t-10 21q0 7 8 7zM515 -18q-6 0 -15 14q-50 97 -301 537q-9 14 -13 14t-7 -9l-76 -401q-12 -62 -4 -87.5t45 -38.5q8 -2 11 -4t2 -6q0 -7 -9 -7q-3 0 -32 3t-46 3q-15 0 -42.5 -3t-32.5 -3q-7 0 -7 6q1 6 16 10q34 9 52.5 36.5t32.5 98.5l71 374q8 42 8 58q0 25 -28 35
q-33 9 -33 17q0 7 7 7q1 0 21 -3t29 -3q11 0 26 3t20 3q17 0 32 -26q38 -62 159.5 -274t124.5 -217q5 -11 8 -11t4 6l73 391q10 56 2 79t-37 34q-17 5 -17 12q0 6 8 6q1 0 32 -3t44 -3q15 0 40 3t26 3q6 0 6 -5t-18 -11q-29 -9 -45 -34t-26 -81l-96 -504q-4 -19 -15 -19z
" />
    <glyph glyph-name="ncaron" unicode="&#x148;" horiz-adv-x="511" 
d="M294 479q-16 0 -24 5t-18 20q-8 12 -17 25t-14.5 21t-11.5 16.5t-9 13.5t-6.5 10t-5 8l-3 6t-2 4.5t-0.5 3.5q0 9 9 9q2 0 4.5 -1t7 -4t9 -7t13 -12t18 -16.5t25.5 -23.5t33 -30h2q139 91 143 93q3 1 5 1q5 0 5 -6q0 -8 -33 -39q-6 -5 -21 -18l-60 -56q-14 -14 -23 -18.5
t-26 -4.5zM479 102q8 0 5 -9q-12 -53 -35.5 -77.5t-60.5 -24.5q-72 0 -72 71q0 30 30 131.5t30 130.5q0 59 -56 59q-101 0 -153 -230l-33 -142q-3 -16 -39 -16q-30 0 -30 14q0 2 1.5 10.5t6.5 29.5t11 47.5t17.5 75.5t23.5 103q11 51 11 67q0 33 -32 33q-43 0 -57 -71
q-1 -6 -8 -6q-8 0 -7 8q7 48 32 72.5t63 24.5q34 0 52 -16.5t18 -43.5q0 -19 -21 -103h1q29 85 69 125t97 40q45 0 73 -26t28 -70q0 -33 -30.5 -129t-30.5 -124q0 -38 30 -38q19 0 31.5 17t25.5 57q3 10 9 10z" />
    <glyph glyph-name="Eng" unicode="&#x14a;" horiz-adv-x="670" 
d="M356 -216q-56 0 -88.5 31.5t-25.5 83.5q5 37 26 58.5t45 21.5q17 0 26.5 -9.5t7.5 -24.5q-3 -18 -29 -39t-30 -44q-3 -25 16 -44t60 -19q52 0 89 45t47 123q0 34 -29 70q-228 420 -270 493q-11 14 -14 14q-5 0 -6 -9l-75 -398q-12 -62 -4 -88t46 -37q8 -3 11 -5t2 -6
q-1 -7 -10 -7q-3 0 -32 3t-47 3q-16 0 -43.5 -3t-33.5 -3q-7 0 -7 6q1 6 17 10q35 9 53.5 36.5t32.5 98.5l70 369q9 45 7 65t-21 27q-4 2 -12 5q-9 4 -13 5.5t-9 4.5t-6.5 5t-0.5 5q2 6 8 6q2 0 22 -3.5t29 -3.5q11 0 26.5 3.5t20.5 3.5q11 0 17 -5.5t16 -21.5
q52 -81 164 -269.5t132 -227.5q3 -7 5 -7t3 7l75 392q10 56 2 79.5t-38 33.5q-17 8 -17 12q1 6 8 6q2 0 33 -3t44 -3q17 0 45 3l28 3q4 0 5.5 -1t0.5 -4q-1 -5 -17 -10q-32 -9 -49.5 -34.5t-28.5 -81.5l-97 -513q-18 -94 -65.5 -151t-121.5 -57z" />
    <glyph glyph-name="eng" unicode="&#x14b;" horiz-adv-x="484" 
d="M350 404q46 0 71.5 -24t25.5 -67q0 -34 -12.5 -88.5t-68.5 -277.5q-38 -162 -151 -162q-31 0 -50.5 16.5t-19.5 39.5q0 19 12 31.5t28 12.5q30 0 31 -37q2 -43 27 -43q45 0 58 62q4 12 2 47t-1 51q3 15 14 59q65 262 65 298q0 60 -57 60q-47 0 -82 -45.5t-64 -136.5
l-44 -189q-3 -16 -39 -16q-30 0 -30 14q0 2 1.5 10.5t6.5 29.5t11 47.5t17.5 75.5t23.5 103q11 51 11 67q0 33 -32 33q-43 0 -57 -71q-1 -6 -8 -6q-8 0 -7 8q7 48 32 72.5t63 24.5q34 0 52 -16.5t18 -43.5q0 -19 -21 -103h2q29 85 70 124.5t102 39.5z" />
    <glyph glyph-name="Omacron" unicode="&#x14c;" horiz-adv-x="665" 
d="M301 704q-14 0 -14 12q0 23 18 23q6 0 42 -1t55 -1q22 0 64 1t49 1q14 0 14 -10q0 -25 -17 -25q-18 0 -53.5 1t-52.5 1q-16 0 -56 -1t-49 -1zM417 649q106 0 167.5 -69t61.5 -181q0 -106 -47 -201t-129.5 -154t-178.5 -59q-105 0 -166.5 70t-61.5 183q0 105 46.5 199.5
t128.5 153t179 58.5zM449 79q49 59 79 163t30 194q0 98 -33.5 147t-110.5 49q-78 0 -136 -58q-58 -57 -93 -165.5t-35 -206.5q0 -200 145 -200q88 0 154 77z" />
    <glyph glyph-name="omacron" unicode="&#x14d;" horiz-adv-x="446" 
d="M162 541q6 0 42 -1t55 -1q22 0 64 1t49 1q14 0 14 -10q0 -25 -17 -25q-18 0 -53.5 1t-52.5 1q-15 0 -55 -1t-50 -1q-14 0 -14 12q0 23 18 23zM188 -14q-70 0 -110 46.5t-40 121.5q0 93 65 171.5t158 78.5q69 0 108 -45.5t39 -116.5q0 -98 -64 -177t-156 -79zM191 0
q58 0 97 65q23 38 37 95t14 109q0 121 -81 121q-56 0 -96 -63q-54 -81 -54 -203q0 -124 83 -124z" />
    <glyph glyph-name="Ohungarumlaut" unicode="&#x150;" horiz-adv-x="665" 
d="M306 680q-4 -2 -6 3q-1 2 1 6q77 115 97 140.5t36 25.5q13 0 21 -8t8 -21q0 -17 -25 -39q-77 -71 -128 -105zM432 683q0 2 2 6q83 104 110.5 135t41.5 31t22 -8.5t8 -21.5q0 -20 -26 -39q-88 -70 -147 -105q-2 -1 -5 -1q-4 -2 -6 3zM417 649q106 0 167.5 -69t61.5 -181
q0 -106 -47 -201t-129.5 -154t-178.5 -59q-105 0 -166.5 70t-61.5 183q0 105 46.5 199.5t128.5 153t179 58.5zM449 79q49 59 79 163t30 194q0 98 -33.5 147t-110.5 49q-78 0 -136 -58q-58 -57 -93 -165.5t-35 -206.5q0 -200 145 -200q88 0 154 77z" />
    <glyph glyph-name="ohungarumlaut" unicode="&#x151;" horiz-adv-x="446" 
d="M162 450q-4 -2 -6 3q-1 2 1 6q77 115 97 140.5t36 25.5q13 0 21 -8t8 -21q0 -17 -25 -39q-77 -71 -128 -105zM294 450q-4 -2 -6 3q0 2 2 6q83 104 110.5 135t41.5 31t22 -8.5t8 -21.5q0 -20 -26 -39q-88 -70 -147 -105q-2 -1 -5 -1zM188 -14q-70 0 -110 46.5t-40 121.5
q0 93 65 171.5t158 78.5q69 0 108 -45.5t39 -116.5q0 -98 -64 -177t-156 -79zM191 0q58 0 97 65q23 38 37 95t14 109q0 121 -81 121q-56 0 -96 -63q-54 -81 -54 -203q0 -124 83 -124z" />
    <glyph glyph-name="OE" unicode="&#x152;" horiz-adv-x="870" 
d="M894 637q8 0 6 -7q0 -1 -9 -12t-11 -23q-3 -15 -5 -43.5t-3.5 -52t-1.5 -25.5q-1 -7 -7 -7q-9 0 -9 13q-3 92 -28 117.5t-97 25.5q-54 0 -76 -4t-33 -16q-11 -11 -21.5 -52.5t-38.5 -183.5q-3 -20 6.5 -25t50.5 -5q56 0 81 20t47 72q2 6 10 6q5 0 4 -8q-12 -37 -24 -100
q-6 -30 -14 -99q-1 -6 -6 -6q-7 0 -7 10q-1 50 -18.5 69.5t-73.5 19.5q-41 0 -53.5 -5t-16.5 -24q-30 -156 -36 -206.5t2 -54.5q12 -18 91 -18q85 0 127 34.5t78 144.5q3 9 12 9q7 0 5 -8q0 -1 -8 -24.5t-18 -59t-16 -64.5q-3 -16 1 -30t4 -15q-1 -5 -8 -5q-4 0 -115 1.5
t-177 1.5q-28 0 -101.5 -6.5t-104.5 -6.5q-99 0 -159 71t-60 183q0 103 46.5 197.5t128.5 153.5t176 59q32 0 83.5 -7t62.5 -8h95q58 0 112.5 1t87 1.5t39.5 0.5zM472 317q48 246 36 283q-12 35 -89 35q-175 0 -246 -269q-27 -102 -27 -190q0 -94 40 -135.5t99 -41.5
q40 0 73 10.5t45 27.5q12 14 24 63t45 217z" />
    <glyph glyph-name="oe" unicode="&#x153;" horiz-adv-x="670" 
d="M626 122q4 0 4 -5t-3 -12q-25 -51 -69 -85.5t-100 -34.5q-88 0 -125 81q-62 -80 -154 -80q-66 0 -103.5 45.5t-37.5 120.5q0 99 62.5 175.5t152.5 76.5q91 0 125 -82q66 82 161 82q45 0 74.5 -22.5t29.5 -55.5q0 -56 -66.5 -93.5t-183.5 -48.5q-2 -18 -2 -27
q0 -70 23 -109t68 -39q76 0 137 106q4 7 7 7zM537 390q-53 0 -92.5 -56t-50.5 -133q89 11 136 37q57 32 57 91q0 30 -14.5 45.5t-35.5 15.5zM275 65q23 39 36.5 97t13.5 111q0 117 -76 117q-55 0 -91 -63q-50 -86 -50 -206q0 -121 75 -121q55 0 92 65z" />
    <glyph glyph-name="Racute" unicode="&#x154;" horiz-adv-x="625" 
d="M297 673q-4 0 -4 4q0 5 7 9q160 103 183 112q11 4 19 4q13 0 21.5 -7.5t8.5 -18.5q0 -25 -43 -41q-52 -19 -119 -40.5t-73 -21.5zM461 -19q-30 0 -60.5 17.5t-56 43t-50 50.5t-52 44t-53.5 20q-12 0 -13 -14q-13 -75 -12.5 -95t10.5 -29q4 -3 10.5 -6t10 -5.5t3.5 -6.5
q0 -5 -7 -5q-1 0 -32.5 2.5t-50.5 2.5q-14 0 -32 -1t-31 -2.5t-15 -1.5q-7 0 -7 5q0 3 2 5t4.5 3.5t8.5 4t10 5.5q16 8 29.5 60t51.5 263q31 177 35 219.5t-8 50.5q-4 4 -9.5 6.5t-8 4.5t-2.5 5q0 7 8 7q1 0 28.5 -2t44.5 -2q18 0 72.5 6.5t83.5 6.5q99 0 159.5 -51
t60.5 -139q0 -122 -96 -209t-219 -87q-37 0 -51 2l-1 -2q30 -8 71.5 -36.5t84.5 -51.5t86 -23t72 25.5t40 69.5q1 5 5 5q12 0 3 -47q-9 -49 -46.5 -83.5t-80.5 -34.5zM231 168q116 0 188 69q40 41 62.5 106t22.5 135q0 75 -38 113t-101 38q-73 0 -95 -25q-10 -12 -17.5 -43
t-30.5 -154q-2 -14 -3.5 -21.5t-4 -20.5t-4.5 -24l-23 -123q0 -5 -1.5 -14t-1.5 -13q0 -13 10 -18t37 -5z" />
    <glyph glyph-name="racute" unicode="&#x155;" horiz-adv-x="368" 
d="M154 452q-3 -2 -5 3q0 3 3 7q126 132 144 147q16 14 26 15q28 4 34 -25q3 -20 -30 -42q-108 -74 -167 -103q-4 -2 -5 -2zM98 -6q-30 0 -30 14t60 267q10 45 10 66q0 34 -32 34q-44 0 -58 -71q-2 -6 -9 -6q-9 0 -8 8q18 97 101 97q28 0 45.5 -18t17.5 -44q0 -19 -14 -86h4
q23 77 52.5 112.5t74.5 35.5q26 0 43 -15.5t17 -40.5q0 -23 -11 -39t-30 -16q-30 0 -34 44q-2 29 -23 29q-23 0 -48.5 -43t-46.5 -133l-41 -179q-4 -16 -40 -16z" />
    <glyph glyph-name="Rcommaaccent" unicode="&#x156;" horiz-adv-x="625" 
d="M461 -19q-30 0 -60.5 17.5t-56 43t-50 50.5t-52 44t-53.5 20q-12 0 -13 -14q-13 -75 -12.5 -95t10.5 -29q4 -3 10.5 -6t10 -5.5t3.5 -6.5q0 -5 -7 -5q-1 0 -32.5 2.5t-50.5 2.5q-14 0 -32 -1t-31 -2.5t-15 -1.5q-7 0 -7 5q0 3 2 5t4.5 3.5t8.5 4t10 5.5q16 8 29.5 60
t51.5 263q31 177 35 219.5t-8 50.5q-4 4 -9.5 6.5t-8 4.5t-2.5 5q0 7 8 7q1 0 28.5 -2t44.5 -2q18 0 72.5 6.5t83.5 6.5q99 0 159.5 -51t60.5 -139q0 -122 -96 -209t-219 -87q-37 0 -51 2l-1 -2q30 -8 71.5 -36.5t84.5 -51.5t86 -23t72 25.5t40 69.5q1 5 5 5q12 0 3 -47
q-9 -49 -46.5 -83.5t-80.5 -34.5zM231 168q116 0 188 69q40 41 62.5 106t22.5 135q0 75 -38 113t-101 38q-73 0 -95 -25q-10 -12 -17.5 -43t-30.5 -154q-2 -14 -3.5 -21.5t-4 -20.5t-4.5 -24l-23 -123q0 -5 -1.5 -14t-1.5 -13q0 -13 10 -18t37 -5zM201 -242q-8 0 -8 6
q0 7 12 11q35 10 61 36.5t26 59.5q0 10 -5 10q-3 0 -16 -10.5t-26 -10.5q-15 0 -25 9t-10 24q0 23 17.5 38t40.5 15q50 0 50 -57q0 -61 -44 -96t-73 -35z" />
    <glyph glyph-name="rcommaaccent" unicode="&#x157;" horiz-adv-x="368" 
d="M98 -6q-30 0 -30 14t60 267q10 45 10 66q0 34 -32 34q-44 0 -58 -71q-2 -6 -9 -6q-9 0 -8 8q18 97 101 97q28 0 45.5 -18t17.5 -44q0 -19 -14 -86h4q23 77 52.5 112.5t74.5 35.5q26 0 43 -15.5t17 -40.5q0 -23 -11 -39t-30 -16q-30 0 -34 44q-2 29 -23 29
q-23 0 -48.5 -43t-46.5 -133l-41 -179q-4 -16 -40 -16zM45 -242q-8 0 -8 6q0 7 12 11q35 10 61 36.5t26 59.5q0 10 -5 10q-3 0 -16 -10.5t-26 -10.5q-15 0 -25 9t-10 24q0 23 17.5 38t40.5 15q50 0 50 -57q0 -61 -44 -96t-73 -35z" />
    <glyph glyph-name="Rcaron" unicode="&#x158;" horiz-adv-x="625" 
d="M299 823q3 0 6.5 -1.5t12 -7.5t18.5 -13.5t31.5 -22.5t45.5 -32h2q24 13 45.5 25t34.5 19t24.5 13.5t17 10t10.5 6t7.5 3t4.5 0.5q5 0 5 -7q-3 -11 -108 -94q-2 -2 -8 -7t-8 -7t-7 -5.5t-8 -5t-7 -4t-7.5 -3t-7.5 -0.5q-8 0 -16 5.5t-11.5 9.5t-14.5 19q-49 56 -60 71
t-10 21q0 7 8 7zM461 -19q-30 0 -60.5 17.5t-56 43t-50 50.5t-52 44t-53.5 20q-12 0 -13 -14q-13 -75 -12.5 -95t10.5 -29q4 -3 10.5 -6t10 -5.5t3.5 -6.5q0 -5 -7 -5q-1 0 -32.5 2.5t-50.5 2.5q-14 0 -32 -1t-31 -2.5t-15 -1.5q-7 0 -7 5q0 3 2 5t4.5 3.5t8.5 4t10 5.5
q16 8 29.5 60t51.5 263q31 177 35 219.5t-8 50.5q-4 4 -9.5 6.5t-8 4.5t-2.5 5q0 7 8 7q1 0 28.5 -2t44.5 -2q18 0 72.5 6.5t83.5 6.5q99 0 159.5 -51t60.5 -139q0 -122 -96 -209t-219 -87q-37 0 -51 2l-1 -2q30 -8 71.5 -36.5t84.5 -51.5t86 -23t72 25.5t40 69.5q1 5 5 5
q12 0 3 -47q-9 -49 -46.5 -83.5t-80.5 -34.5zM231 168q116 0 188 69q40 41 62.5 106t22.5 135q0 75 -38 113t-101 38q-73 0 -95 -25q-10 -12 -17.5 -43t-30.5 -154q-2 -14 -3.5 -21.5t-4 -20.5t-4.5 -24l-23 -123q0 -5 -1.5 -14t-1.5 -13q0 -13 10 -18t37 -5z" />
    <glyph glyph-name="rcaron" unicode="&#x159;" horiz-adv-x="368" 
d="M129 621q2 0 4.5 -1t7 -4t9 -7t13 -12t18 -16.5t25.5 -23.5t33 -30h2q139 91 143 93q3 1 5 1q5 0 5 -6q0 -8 -33 -39q-6 -5 -21 -18l-60 -56q-14 -14 -23 -18.5t-26 -4.5q-16 0 -24 5t-18 20q-8 12 -17 25t-14.5 21t-11.5 16.5t-9 13.5t-6.5 10t-5 8l-3 6t-2 4.5
t-0.5 3.5q0 9 9 9zM98 -6q-30 0 -30 14t60 267q10 45 10 66q0 34 -32 34q-44 0 -58 -71q-2 -6 -9 -6q-9 0 -8 8q18 97 101 97q28 0 45.5 -18t17.5 -44q0 -19 -14 -86h4q23 77 52.5 112.5t74.5 35.5q26 0 43 -15.5t17 -40.5q0 -23 -11 -39t-30 -16q-30 0 -34 44q-2 29 -23 29
q-23 0 -48.5 -43t-46.5 -133l-41 -179q-4 -16 -40 -16z" />
    <glyph glyph-name="Sacute" unicode="&#x15a;" horiz-adv-x="537" 
d="M248 673q-4 0 -4 4q0 5 7 9q160 103 183 112q11 4 19 4q13 0 21.5 -7.5t8.5 -18.5q0 -25 -43 -41q-52 -19 -119 -40.5t-73 -21.5zM25 -16q-4 0 -4 7q0 3 3 17t8.5 38t9.5 42q6 29 10.5 61.5t6.5 53t3 23.5q2 8 7 8q7 0 8 -11q10 -117 47 -168.5t122 -51.5q82 0 128 47.5
t46 115.5q0 45 -27.5 73.5t-93.5 48.5l-56 17q-126 37 -126 141q0 85 65 139.5t148 54.5q39 0 71.5 -12.5t53 -25t30.5 -12.5q8 0 11 6t10 29q5 18 14 18q6 0 6 -6q0 -1 -2.5 -12.5t-6.5 -35t-7 -48.5q-2 -18 -3.5 -45t-2.5 -44.5t-2 -20.5q-2 -6 -8 -6q-8 0 -8 9
q-8 94 -47 143.5t-108 49.5q-62 0 -105.5 -40.5t-43.5 -98.5q0 -43 26.5 -69t83.5 -44l65 -19q131 -40 131 -147q0 -96 -72 -158.5t-175 -62.5q-54 0 -109 23.5t-64 23.5q-17 0 -31 -38q-4 -13 -12 -13z" />
    <glyph glyph-name="sacute" unicode="&#x15b;" horiz-adv-x="358" 
d="M162 452q-3 -2 -5 3q0 3 3 7q126 132 144 147q16 14 26 15q28 4 34 -25q3 -20 -30 -42q-108 -74 -167 -103q-4 -2 -5 -2zM146 -15q-61 0 -97 28t-36 74q0 26 11.5 40t28.5 14q12 0 20 -7.5t8 -18.5q0 -9 -12 -25t-12 -30q0 -26 26 -43t65 -17q48 0 79 26.5t31 65.5
q0 31 -17 49t-55 31l-50 17q-80 27 -80 94q0 50 45.5 85.5t110.5 35.5q57 0 90.5 -26t33.5 -63q0 -22 -10.5 -36.5t-27.5 -14.5q-13 0 -22 9t-9 22q0 11 9 26.5t9 23.5q0 18 -20.5 31.5t-54.5 13.5q-43 0 -70.5 -22.5t-27.5 -58.5q0 -28 15.5 -43t47.5 -26l53 -18
q48 -17 69.5 -39.5t21.5 -61.5q0 -58 -52 -97t-121 -39z" />
    <glyph glyph-name="Scedilla" unicode="&#x15e;" horiz-adv-x="537" 
d="M520 643q6 0 6 -6q0 -1 -2.5 -12.5t-6.5 -35t-7 -48.5q-2 -18 -3.5 -45t-2.5 -44.5t-2 -20.5q-2 -6 -8 -6q-8 0 -8 9q-8 94 -47 143.5t-108 49.5q-62 0 -105.5 -40.5t-43.5 -98.5q0 -43 26.5 -69t83.5 -44l65 -19q131 -40 131 -147q0 -93 -67 -154.5t-165 -66.5l-22 -40
q77 -13 77 -59q0 -32 -27.5 -51t-63.5 -19q-21 0 -36.5 5t-20.5 10t-5 8q0 6 7 6q1 0 6.5 -3t15 -6t20.5 -3q25 0 39.5 14t14.5 37q0 16 -11.5 25.5t-36.5 17.5q-4 1 -4 6q0 3 5 13l22 39q-52 1 -105.5 24t-62.5 23q-17 0 -31 -38q-4 -13 -12 -13q-4 0 -4 7q0 3 3 17t8.5 38
t9.5 42q6 29 10.5 61.5t6.5 53t3 23.5q2 8 7 8q7 0 8 -11q10 -117 47 -168.5t122 -51.5q82 0 128 47.5t46 115.5q0 45 -27.5 73.5t-93.5 48.5l-56 17q-126 37 -126 141q0 85 65 139.5t148 54.5q39 0 71.5 -12.5t53 -25t30.5 -12.5q8 0 11 6t10 29q5 18 14 18z" />
    <glyph glyph-name="scedilla" unicode="&#x15f;" horiz-adv-x="358" 
d="M298 264q-13 0 -22 9t-9 22q0 11 9 26.5t9 23.5q0 18 -20.5 31.5t-54.5 13.5q-43 0 -70.5 -22.5t-27.5 -58.5q0 -28 15.5 -43t47.5 -26l53 -18q48 -17 69.5 -39.5t21.5 -61.5q0 -55 -47 -93t-112 -43l-21 -37q77 -13 77 -59q0 -32 -27.5 -51t-63.5 -19q-21 0 -36.5 5
t-20.5 10t-5 8q0 6 7 6q1 0 6.5 -3t15 -6t20.5 -3q25 0 39.5 14t14.5 37q0 16 -11.5 25.5t-36.5 17.5q-4 1 -4 6q0 3 5 13l20 36q-58 1 -92 29.5t-34 72.5q0 26 11.5 40t28.5 14q12 0 20 -7.5t8 -18.5q0 -9 -12 -25t-12 -30q0 -26 26 -43t65 -17q48 0 79 26.5t31 65.5
q0 31 -17 49t-55 31l-50 17q-80 27 -80 94q0 50 45.5 85.5t110.5 35.5q57 0 90.5 -26t33.5 -63q0 -22 -10.5 -36.5t-27.5 -14.5z" />
    <glyph glyph-name="Scaron" unicode="&#x160;" horiz-adv-x="537" 
d="M250 823q3 0 6.5 -1.5t12 -7.5t18.5 -13.5t31.5 -22.5t45.5 -32h2q24 13 45.5 25t34.5 19t24.5 13.5t17 10t10.5 6t7.5 3t4.5 0.5q5 0 5 -7q-3 -11 -108 -94q-2 -2 -8 -7t-8 -7t-7 -5.5t-8 -5t-7 -4t-7.5 -3t-7.5 -0.5q-8 0 -16 5.5t-11.5 9.5t-14.5 19q-49 56 -60 71
t-10 21q0 7 8 7zM25 -16q-4 0 -4 7q0 3 3 17t8.5 38t9.5 42q6 29 10.5 61.5t6.5 53t3 23.5q2 8 7 8q7 0 8 -11q10 -117 47 -168.5t122 -51.5q82 0 128 47.5t46 115.5q0 45 -27.5 73.5t-93.5 48.5l-56 17q-126 37 -126 141q0 85 65 139.5t148 54.5q39 0 71.5 -12.5t53 -25
t30.5 -12.5q8 0 11 6t10 29q5 18 14 18q6 0 6 -6q0 -1 -2.5 -12.5t-6.5 -35t-7 -48.5q-2 -18 -3.5 -45t-2.5 -44.5t-2 -20.5q-2 -6 -8 -6q-8 0 -8 9q-8 94 -47 143.5t-108 49.5q-62 0 -105.5 -40.5t-43.5 -98.5q0 -43 26.5 -69t83.5 -44l65 -19q131 -40 131 -147
q0 -96 -72 -158.5t-175 -62.5q-54 0 -109 23.5t-64 23.5q-17 0 -31 -38q-4 -13 -12 -13z" />
    <glyph glyph-name="scaron" unicode="&#x161;" horiz-adv-x="358" 
d="M137 621q2 0 4.5 -1t7 -4t9 -7t13 -12t18 -16.5t25.5 -23.5t33 -30h2q139 91 143 93q3 1 5 1q5 0 5 -6q0 -8 -33 -39q-6 -5 -21 -18l-60 -56q-14 -14 -23 -18.5t-26 -4.5q-16 0 -24 5t-18 20q-8 12 -17 25t-14.5 21t-11.5 16.5t-9 13.5t-6.5 10t-5 8l-3 6t-2 4.5
t-0.5 3.5q0 9 9 9zM146 -15q-61 0 -97 28t-36 74q0 26 11.5 40t28.5 14q12 0 20 -7.5t8 -18.5q0 -9 -12 -25t-12 -30q0 -26 26 -43t65 -17q48 0 79 26.5t31 65.5q0 31 -17 49t-55 31l-50 17q-80 27 -80 94q0 50 45.5 85.5t110.5 35.5q57 0 90.5 -26t33.5 -63
q0 -22 -10.5 -36.5t-27.5 -14.5q-13 0 -22 9t-9 22q0 11 9 26.5t9 23.5q0 18 -20.5 31.5t-54.5 13.5q-43 0 -70.5 -22.5t-27.5 -58.5q0 -28 15.5 -43t47.5 -26l53 -18q48 -17 69.5 -39.5t21.5 -61.5q0 -58 -52 -97t-121 -39z" />
    <glyph glyph-name="uni0162" unicode="&#x162;" horiz-adv-x="592" 
d="M628 640q5 0 5 -6q0 -3 -3 -7.5t-7.5 -14.5t-7.5 -24q-15 -72 -22 -140q-2 -10 -8 -10t-6 33q-2 67 -12 98t-25.5 39t-49.5 8q-58 0 -74 -19q-9 -11 -20 -61.5t-46 -253.5l-29 -162q-8 -46 -7.5 -64.5t9 -27t34.5 -17.5q11 -4 11 -9q0 -8 -8 -8q-2 0 -15 1t-32 2.5
t-33 1.5l-26 -47q77 -13 77 -59q0 -32 -27.5 -51t-63.5 -19q-21 0 -36.5 5t-20.5 10t-5 8q0 6 7 6q1 0 6.5 -3t15 -6t20.5 -3q25 0 39.5 14t14.5 37q0 16 -11.5 25.5t-36.5 17.5q-4 1 -4 6q0 3 5 13l26 46h-1q-20 0 -61 -3l-41 -2q-5 0 -5 6q0 4 2.5 6t11.5 5q40 9 52 26
t23 83l28 162q35 202 42 253t2 62q-10 19 -67 19q-41 0 -60.5 -10t-38 -42t-45.5 -110q-6 -16 -11 -16t-5 8q0 1 15 73.5t15 84.5q0 9 -2.5 17.5t-2.5 10.5q0 8 8 8q2 0 9 -1t22.5 -2.5t40.5 -3t72 -2.5t107 -1t108 1t73.5 2.5t42 3t23.5 2.5t9 1z" />
    <glyph glyph-name="uni0163" unicode="&#x163;" horiz-adv-x="306" 
d="M297 392q14 0 14 -12q0 -18 -17 -18q-4 0 -38.5 1.5t-66.5 1.5q-8 0 -9 -8l-49 -249q-5 -25 -5 -39q0 -53 44 -53q51 0 76 90q3 11 11 11q7 0 6 -10q-9 -46 -36 -82t-73 -40l-21 -37q77 -13 77 -59q0 -32 -27.5 -51t-63.5 -19q-21 0 -36.5 5t-20.5 10t-5 8q0 6 7 6
q1 0 6.5 -3t15 -6t20.5 -3q25 0 39.5 14t14.5 37q0 16 -11.5 25.5t-36.5 17.5q-4 1 -4 6q0 3 5 13l20 36q-74 6 -74 86q0 26 8 63l39 200q5 19 1.5 25.5t-22.5 7.5l-33 1q-11 1 -11 9q0 12 14 12q44 1 65 10.5t38.5 39t40.5 99.5q5 15 16 15q6 0 5 -14l-30 -142q-1 -7 3 -7z
" />
    <glyph glyph-name="Tcaron" unicode="&#x164;" horiz-adv-x="592" 
d="M278 823q3 0 6.5 -1.5t12 -7.5t18.5 -13.5t31.5 -22.5t45.5 -32h2q24 13 45.5 25t34.5 19t24.5 13.5t17 10t10.5 6t7.5 3t4.5 0.5q5 0 5 -7q-3 -11 -108 -94q-2 -2 -8 -7t-8 -7t-7 -5.5t-8 -5t-7 -4t-7.5 -3t-7.5 -0.5q-8 0 -16 5.5t-11.5 9.5t-14.5 19q-49 56 -60 71
t-10 21q0 7 8 7zM159 -6q-5 0 -5 6q0 4 2.5 6t11.5 5q40 9 52 26t23 83l28 162q35 202 42 253t2 62q-10 19 -67 19q-41 0 -60.5 -10t-38 -42t-45.5 -110q-6 -16 -11 -16t-5 8q0 1 15 73.5t15 84.5q0 9 -2.5 17.5t-2.5 10.5q0 8 8 8q2 0 9 -1t22.5 -2.5t40.5 -3t72 -2.5
t107 -1t108 1t73.5 2.5t42 3t23.5 2.5t9 1q5 0 5 -6q0 -3 -3 -7.5t-7.5 -14.5t-7.5 -24q-15 -72 -22 -140q-2 -10 -8 -10t-6 33q-2 67 -12 98t-25.5 39t-49.5 8q-58 0 -74 -19q-9 -11 -20 -61.5t-46 -253.5l-29 -162q-8 -46 -7.5 -64.5t9 -27t34.5 -17.5q11 -4 11 -9
q0 -8 -8 -8l-40 2q-40 3 -61 3q-20 0 -61 -3z" />
    <glyph glyph-name="tcaron" unicode="&#x165;" horiz-adv-x="306" 
d="M310 451q-7 0 -7 5q0 6 10 9q29 9 50.5 30.5t21.5 48.5q0 8 -4 8q-2 0 -13.5 -8.5t-21.5 -8.5q-13 0 -21 7.5t-8 20.5q0 19 14.5 31.5t33.5 12.5q41 0 41 -47q0 -51 -36.5 -80t-59.5 -29zM143 -15q-84 0 -84 86q0 26 8 63l39 200q5 19 1.5 25.5t-22.5 7.5l-33 1
q-11 1 -11 9q0 12 14 12q44 1 65 10.5t38.5 39t40.5 99.5q5 15 16 15q6 0 5 -14l-30 -142q-1 -7 3 -7l104 2q14 0 14 -12q0 -18 -17 -18q-4 0 -38.5 1.5t-66.5 1.5q-8 0 -9 -8l-49 -249q-5 -25 -5 -39q0 -53 44 -53q51 0 76 90q3 11 11 11q7 0 6 -10q-9 -49 -39 -85.5
t-81 -36.5z" />
    <glyph glyph-name="Tbar" unicode="&#x166;" horiz-adv-x="592" 
d="M628 640q5 0 5 -6q0 -3 -3 -7.5t-7.5 -14.5t-7.5 -24q-15 -72 -22 -140q-2 -10 -8 -10t-6 33q-2 67 -12 98t-25.5 39t-49.5 8q-58 0 -74 -19q-9 -10 -18 -51.5t-36 -194.5h88q8 0 8 -12t-8 -12h-93q-1 -5 -3.5 -20.5t-3.5 -24.5l-29 -162q-8 -46 -7.5 -64.5t9 -27
t34.5 -17.5q11 -4 11 -9q0 -8 -8 -8l-40 2q-40 3 -61 3q-20 0 -61 -3l-41 -2q-5 0 -5 6q0 4 2.5 6t11.5 5q40 9 52 26t23 83l28 162q1 6 3.5 21.5t4.5 23.5h-86q-8 0 -8 12t8 12h90q27 154 32.5 197t-0.5 49q-10 19 -67 19q-41 0 -60.5 -10t-38 -42t-45.5 -110
q-6 -16 -11 -16t-5 8q0 1 15 73.5t15 84.5q0 9 -2.5 17.5t-2.5 10.5q0 8 8 8q2 0 9 -1t22.5 -2.5t40.5 -3t72 -2.5t107 -1t108 1t73.5 2.5t42 3t23.5 2.5t9 1z" />
    <glyph glyph-name="tbar" unicode="&#x167;" horiz-adv-x="317" 
d="M297 392q14 0 14 -12q0 -18 -17 -18q-4 0 -38.5 1.5t-66.5 1.5q-8 0 -9 -8l-21 -107h104q8 0 8 -12t-8 -12h-109l-23 -118q-5 -25 -5 -39q0 -53 44 -53q51 0 76 90q3 11 11 11q7 0 6 -10q-9 -49 -39 -85.5t-81 -36.5q-84 0 -84 86q0 26 8 63l18 92h-41q-8 0 -8 12t8 12
h46l16 84q5 19 1.5 25.5t-22.5 7.5l-33 1q-11 1 -11 9q0 12 14 12q44 1 65 10.5t38.5 39t40.5 99.5q5 15 16 15q6 0 5 -14l-30 -142q-1 -7 3 -7z" />
    <glyph glyph-name="Utilde" unicode="&#x168;" horiz-adv-x="617" 
d="M300 681q-7 0 -4 9q9 39 29.5 67.5t53.5 28.5q22 0 66 -23q38 -22 57 -22q29 0 43 33q4 10 10 10t6 -7q0 -27 -22.5 -56.5t-55.5 -29.5q-23 0 -63 22q-38 21 -57 21q-34 0 -51 -42q-4 -11 -12 -11zM282 -15q-203 0 -203 179q0 38 10 101l46 257q9 44 6 64t-22 30
q-14 8 -14 13q0 7 8 7q2 0 16.5 -1.5t34 -3t35.5 -1.5q21 0 55 3t37 3q6 0 6 -5q0 -6 -24 -16q-23 -9 -33.5 -27t-20.5 -67l-51 -276q-10 -53 -10 -89q0 -69 38 -104.5t109 -35.5q88 0 152 61t86 189l43 253q8 51 1 70.5t-35 28.5q-16 6 -16 12t7 6l28 -3q28 -3 44 -3
q17 0 41 3t25 3q6 0 6 -5q0 -6 -22 -12q-27 -9 -40.5 -31.5t-22.5 -74.5l-41 -245q-50 -283 -279 -283z" />
    <glyph glyph-name="utilde" unicode="&#x169;" horiz-adv-x="486" 
d="M162 498q-7 0 -4 9q9 39 29.5 67.5t53.5 28.5q22 0 66 -23q39 -22 57 -22q29 0 43 33q4 10 10 10t6 -7q0 -27 -22.5 -56.5t-55.5 -29.5q-23 0 -63 22q-38 21 -57 21q-34 0 -51 -42q-4 -11 -12 -11zM450 92q7 0 6 -8q-15 -97 -93 -97q-32 0 -49 16.5t-17 43.5q0 19 21 103
h-2q-28 -85 -65.5 -125t-91.5 -40q-43 0 -70 26.5t-27 71.5q0 31 30.5 127t30.5 125q0 37 -28 37q-38 0 -54 -74q-1 -10 -9 -10q-6 0 -5 9q18 102 94 102q71 0 71 -70q0 -30 -31 -132.5t-31 -131.5q0 -58 52 -58q91 0 140 211l36 161q4 16 40 16q30 0 30 -14q0 -8 -59 -266
q-11 -50 -11 -67q0 -33 30 -33q36 0 53 71q1 6 9 6z" />
    <glyph glyph-name="Umacron" unicode="&#x16a;" horiz-adv-x="617" 
d="M304 740q6 0 42 -1t55 -1q22 0 64 1t49 1q14 0 14 -10q0 -25 -17 -25q-18 0 -53.5 1t-52.5 1q-15 0 -55 -1t-50 -1q-14 0 -14 12q0 23 18 23zM282 -15q-203 0 -203 179q0 38 10 101l46 257q9 44 6 64t-22 30q-14 8 -14 13q0 7 8 7q2 0 16.5 -1.5t34 -3t35.5 -1.5
q21 0 55 3t37 3q6 0 6 -5q0 -6 -24 -16q-23 -9 -33.5 -27t-20.5 -67l-51 -276q-10 -53 -10 -89q0 -69 38 -104.5t109 -35.5q88 0 152 61t86 189l43 253q8 51 1 70.5t-35 28.5q-16 6 -16 12t7 6l28 -3q28 -3 44 -3q17 0 41 3t25 3q6 0 6 -5q0 -6 -22 -12q-27 -9 -40.5 -31.5
t-22.5 -74.5l-41 -245q-50 -283 -279 -283z" />
    <glyph glyph-name="umacron" unicode="&#x16b;" horiz-adv-x="486" 
d="M162 506q-14 0 -14 12q0 23 18 23q6 0 42 -1t55 -1q22 0 64 1t49 1q14 0 14 -10q0 -25 -17 -25q-18 0 -53.5 1t-52.5 1q-15 0 -55 -1t-50 -1zM450 92q7 0 6 -8q-15 -97 -93 -97q-32 0 -49 16.5t-17 43.5q0 19 21 103h-2q-28 -85 -65.5 -125t-91.5 -40q-43 0 -70 26.5
t-27 71.5q0 31 30.5 127t30.5 125q0 37 -28 37q-38 0 -54 -74q-1 -10 -9 -10q-6 0 -5 9q18 102 94 102q71 0 71 -70q0 -30 -31 -132.5t-31 -131.5q0 -58 52 -58q91 0 140 211l36 161q4 16 40 16q30 0 30 -14q0 -8 -59 -266q-11 -50 -11 -67q0 -33 30 -33q36 0 53 71q1 6 9 6
z" />
    <glyph glyph-name="Uring" unicode="&#x16e;" horiz-adv-x="617" 
d="M416 688q-30 0 -49 16.5t-19 42.5q0 34 28 57t67 23q31 0 49.5 -16t18.5 -42q0 -35 -27.5 -58t-67.5 -23zM418 701q26 0 41.5 19.5t15.5 51.5q0 42 -35 42q-26 0 -41 -19.5t-15 -52.5q0 -41 34 -41zM282 -15q-203 0 -203 179q0 38 10 101l46 257q9 44 6 64t-22 30
q-14 8 -14 13q0 7 8 7q2 0 16.5 -1.5t34 -3t35.5 -1.5q21 0 55 3t37 3q6 0 6 -5q0 -6 -24 -16q-23 -9 -33.5 -27t-20.5 -67l-51 -276q-10 -53 -10 -89q0 -69 38 -104.5t109 -35.5q88 0 152 61t86 189l43 253q8 51 1 70.5t-35 28.5q-16 6 -16 12t7 6l28 -3q28 -3 44 -3
q17 0 41 3t25 3q6 0 6 -5q0 -6 -22 -12q-27 -9 -40.5 -31.5t-22.5 -74.5l-41 -245q-50 -283 -279 -283z" />
    <glyph glyph-name="uring" unicode="&#x16f;" horiz-adv-x="486" 
d="M279 494q-30 0 -48 16.5t-18 41.5q0 34 27 57t66 23q31 0 49 -15.5t18 -40.5q0 -35 -27 -58.5t-67 -23.5zM302 619q-23 0 -37.5 -19.5t-14.5 -52.5q0 -40 33 -40q23 0 37.5 19.5t14.5 52.5q0 40 -33 40zM450 92q7 0 6 -8q-15 -97 -93 -97q-32 0 -49 16.5t-17 43.5
q0 19 21 103h-2q-28 -85 -65.5 -125t-91.5 -40q-43 0 -70 26.5t-27 71.5q0 31 30.5 127t30.5 125q0 37 -28 37q-38 0 -54 -74q-1 -10 -9 -10q-6 0 -5 9q18 102 94 102q71 0 71 -70q0 -30 -31 -132.5t-31 -131.5q0 -58 52 -58q91 0 140 211l36 161q4 16 40 16q30 0 30 -14
q0 -8 -59 -266q-11 -50 -11 -67q0 -33 30 -33q36 0 53 71q1 6 9 6z" />
    <glyph glyph-name="Uhungarumlaut" unicode="&#x170;" horiz-adv-x="617" 
d="M304 681q-4 -1 -6 3q-1 2 1 6q77 115 97 140.5t36 25.5q13 0 21 -8t8 -21q0 -17 -25 -39q-77 -71 -128 -105zM436 681q-4 -1 -6 3q0 2 2 6q83 104 110.5 135t41.5 31t22 -8.5t8 -21.5q0 -20 -26 -39q-88 -70 -147 -105q-2 -1 -5 -1zM282 -15q-203 0 -203 179q0 38 10 101
l46 257q9 44 6 64t-22 30q-14 8 -14 13q0 7 8 7q2 0 16.5 -1.5t34 -3t35.5 -1.5q21 0 55 3t37 3q6 0 6 -5q0 -6 -24 -16q-23 -9 -33.5 -27t-20.5 -67l-51 -276q-10 -53 -10 -89q0 -69 38 -104.5t109 -35.5q88 0 152 61t86 189l43 253q8 51 1 70.5t-35 28.5q-16 6 -16 12t7 6
l28 -3q28 -3 44 -3q17 0 41 3t25 3q6 0 6 -5q0 -6 -22 -12q-27 -9 -40.5 -31.5t-22.5 -74.5l-41 -245q-50 -283 -279 -283z" />
    <glyph glyph-name="uhungarumlaut" unicode="&#x171;" horiz-adv-x="486" 
d="M166 450q-4 -2 -6 3q-1 2 1 6q77 115 97 140.5t36 25.5q13 0 21 -8t8 -21q0 -17 -25 -39q-77 -71 -128 -105zM446 625q14 0 22 -8.5t8 -21.5q0 -20 -26 -39q-88 -70 -147 -105q-2 -1 -5 -1q-4 -2 -6 3q0 2 2 6q83 104 110.5 135t41.5 31zM450 92q7 0 6 -8
q-15 -97 -93 -97q-32 0 -49 16.5t-17 43.5q0 19 21 103h-2q-28 -85 -65.5 -125t-91.5 -40q-43 0 -70 26.5t-27 71.5q0 31 30.5 127t30.5 125q0 37 -28 37q-38 0 -54 -74q-1 -10 -9 -10q-6 0 -5 9q18 102 94 102q71 0 71 -70q0 -30 -31 -132.5t-31 -131.5q0 -58 52 -58
q91 0 140 211l36 161q4 16 40 16q30 0 30 -14q0 -8 -59 -266q-11 -50 -11 -67q0 -33 30 -33q36 0 53 71q1 6 9 6z" />
    <glyph glyph-name="Uogonek" unicode="&#x172;" horiz-adv-x="617" 
d="M681 636q6 0 6 -5q0 -6 -22 -12q-27 -9 -40.5 -31.5t-22.5 -74.5l-41 -245q-38 -213 -176 -265l-21 -19q-69 -63 -69 -117q0 -46 50 -50q28 0 43 4q3 1 8 1q4 0 4 -3q0 -4 -6 -8q-44 -29 -94 -29q-71 0 -71 60q0 43 29 77t90 73q-29 -7 -66 -7q-203 0 -203 179
q0 38 10 101l46 257q9 44 6 64t-22 30q-14 8 -14 13q0 7 8 7q2 0 16.5 -1.5t34 -3t35.5 -1.5q21 0 55 3t37 3q6 0 6 -5q0 -6 -24 -16q-23 -9 -33.5 -27t-20.5 -67l-51 -276q-10 -53 -10 -89q0 -69 38 -104.5t109 -35.5q88 0 152 61t86 189l43 253q8 51 1 70.5t-35 28.5
q-16 6 -16 12t7 6l28 -3q28 -3 44 -3q17 0 41 3t25 3z" />
    <glyph glyph-name="uogonek" unicode="&#x173;" horiz-adv-x="486" 
d="M450 92q7 0 6 -8q-13 -82 -73 -95l-5 -5q-69 -63 -69 -117q0 -46 50 -50q28 0 43 4q3 1 8 1q4 0 4 -3q0 -4 -6 -8q-44 -29 -94 -29q-71 0 -71 60q0 42 27.5 75t84.5 70q-28 2 -43 18.5t-15 41.5q0 19 21 103h-2q-28 -85 -65.5 -125t-91.5 -40q-43 0 -70 26.5t-27 71.5
q0 31 30.5 127t30.5 125q0 37 -28 37q-38 0 -54 -74q-1 -10 -9 -10q-6 0 -5 9q18 102 94 102q71 0 71 -70q0 -30 -31 -132.5t-31 -131.5q0 -58 52 -58q91 0 140 211l36 161q4 16 40 16q30 0 30 -14q0 -8 -59 -266q-11 -50 -11 -67q0 -33 30 -33q36 0 53 71q1 6 9 6z" />
    <glyph glyph-name="Wcircumflex" unicode="&#x174;" horiz-adv-x="937" 
d="M431 674q-8 0 -6 7t56 52q8 6 25 20l1 1l1 1l1 1h1l1 1l1 1l1 1h1v1l1 1l1 1l1 1h1l1 1l1 1l1 1l1 1h1l1 1l1 1l1 1l1 1h1l2 2q36 30 49 32q4 1 7 1q5 0 9.5 -1.5t9 -5.5t7 -6t8 -9t7.5 -9q50 -58 61 -73t10 -21q0 -7 -8 -7q-2 0 -4 0.5t-6 3t-8.5 6t-13.5 10t-18.5 13.5
t-26.5 19t-36 25h-2q-31 -17 -58.5 -32t-40.5 -22.5t-23.5 -13.5t-14.5 -7.5t-7 -1.5zM1011 636q8 0 8 -6q0 -7 -11 -10q-31 -7 -51 -26t-43 -64l-288 -552q-4 -7 -9 -7q-7 0 -9 6l-92 518l-267 -518q-3 -7 -10 -7q-5 0 -7 7l-93 551q-9 40 -20 59t-34 28q-16 7 -16 13
q0 8 10 8q1 0 42 -3t65 -3q19 0 62.5 3t45.5 3q8 0 8 -5q0 -8 -23 -14q-28 -8 -38.5 -19t-10.5 -32q0 -24 8 -88.5t22 -164.5t19 -143q11 -82 13 -82q3 0 38 73q9 20 33 66.5t65 127t83 166.5l-1 6q-8 42 -15 59.5t-28 29.5q-14 8 -14 12q0 8 10 8q2 0 35.5 -3t56.5 -3
q25 0 47 1.5t34.5 3t15.5 1.5q7 0 7 -5t-3.5 -7t-18.5 -7q-25 -8 -34 -16t-9 -25q0 -19 11.5 -94.5t31.5 -196t26 -160.5q5 -33 6 -33q3 0 15 25q220 417 220 457q0 30 -48 45q-10 3 -10 9q0 8 9 8q1 0 30.5 -3t50.5 -3q15 0 32 1.5t29 3t14 1.5z" />
    <glyph glyph-name="wcircumflex" unicode="&#x175;" horiz-adv-x="641" 
d="M265 474q-6 0 -6 6q0 2 1 4.5t4.5 6.5t8.5 8.5t14.5 13t20 18.5t27.5 26t36 34q16 15 25.5 19.5t26.5 4.5q16 0 23 -4t17 -18q70 -101 70 -110t-8 -9q-7 0 -54 43q-10 9 -16 14.5t-18 16t-23 20.5h-2l-36 -24t-29.5 -20t-23 -15.5t-18.5 -12t-13.5 -9t-10 -6.5l-7 -4
t-5.5 -2.5t-4 -0.5zM555 404q27 0 43 -31t16 -84q0 -40 -13 -89t-37.5 -97.5t-67 -80.5t-93.5 -32q-98 0 -98 101v11q-48 -112 -141 -112q-45 0 -68 24.5t-23 68.5q0 32 24.5 133.5t24.5 123.5q0 35 -26 35q-17 0 -32.5 -16.5t-23.5 -54.5q-2 -6 -9 -6q-8 0 -7 8
q15 97 96 97q35 0 54 -18.5t19 -49.5t-24.5 -132t-24.5 -130q0 -54 51 -54q84 0 126 197q1 9 5 29q0 1 1 3.5t1 3.5q21 102 23 114q6 24 26 24h23q22 0 22 -19q0 -9 -4 -29q-43 -217 -43 -262q0 -64 56 -64q43 0 78 38t52 85t17 87q0 36 -14 63.5t-28 46.5t-14 35q0 15 9 24
t24 9z" />
    <glyph glyph-name="Ycircumflex" unicode="&#x176;" horiz-adv-x="570" 
d="M250 674q-8 0 -6 7t56 52q8 6 25 20l1 1l1 1l1 1h1l1 1l1 1l1 1h1v1l1 1l1 1l1 1h1l1 1l1 1l1 1l1 1h1l1 1l1 1l1 1l1 1h1l2 2q36 30 49 32q4 1 7 1q5 0 9.5 -1.5t9 -5.5t7 -6t8 -9t7.5 -9q50 -58 61 -73t10 -21q0 -7 -8 -7q-2 0 -4 0.5t-6 3t-8.5 6t-13.5 10t-18.5 13.5
t-26.5 19t-36 25h-2q-31 -17 -58.5 -32t-40.5 -22.5t-23.5 -13.5t-14.5 -7.5t-7 -1.5zM150 -7q-6 0 -6 5q0 7 26 17q20 7 29.5 23t20.5 58t32 149q4 22 -10 52l-92 221q-24 57 -37.5 75.5t-33.5 26.5q-11 4 -11 10t8 6l32 -3q32 -3 54 -3t60 3t40 3q6 0 6 -5q-1 -4 -19 -12
q-23 -11 -26 -23q-3 -19 17.5 -81t87.5 -227l117 153q72 91 78 130q8 41 -42 50q-6 1 -8 3t-1 5q1 7 10 7q1 0 36.5 -3t55.5 -3q12 0 39.5 3t28.5 3q5 0 7 -1.5t1 -4.5q-2 -7 -11 -9q-28 -9 -47 -26t-54 -62l-194 -249q-6 -8 -7 -14q-35 -195 -32 -225q2 -19 21 -28
q1 -1 5 -3q10 -5 14 -7.5t3 -6.5q0 -7 -7 -7q-1 0 -38 3.5t-54 3.5q-19 0 -59 -4z" />
    <glyph glyph-name="ycircumflex" unicode="&#x177;" horiz-adv-x="475" 
d="M169 474q-6 0 -6 6q0 2 1 4.5t4.5 6.5t8.5 8.5t14.5 13t20 18.5t27.5 26t36 34q16 15 25.5 19.5t26.5 4.5q16 0 23 -4t17 -18q70 -101 70 -110t-8 -9q-7 0 -54 43q-10 9 -16 14.5t-18 16t-23 20.5h-2l-36 -24t-29.5 -20t-23 -15.5t-18.5 -12t-13.5 -9t-10 -6.5l-7 -4
t-5.5 -2.5t-4 -0.5zM423 396q34 0 34 -12q0 -2 -1 -6t-2.5 -12t-3.5 -15l-68 -321q-24 -121 -84 -183t-139 -62q-65 0 -101.5 26.5t-36.5 68.5q0 26 14 41t36 15q18 0 29 -10.5t11 -24.5q0 -11 -12 -28.5t-12 -29.5q0 -18 20 -30.5t50 -12.5q114 0 147 170l24 118
q-52 -103 -141 -103q-48 0 -78.5 25t-30.5 71q0 37 29 133.5t29 124.5q0 36 -34 36q-42 0 -61 -80q-1 -7 -10 -7q-8 0 -7 9q23 105 102 105q36 0 57.5 -18t21.5 -52q0 -32 -30 -131.5t-30 -132.5q0 -32 17 -46.5t43 -14.5q86 0 136 149l44 222q2 10 9.5 14t28.5 4z" />
    <glyph glyph-name="Ydieresis" unicode="&#x178;" horiz-adv-x="570" 
d="M328 794q19 0 29.5 -10t10.5 -27q0 -23 -16.5 -38t-41.5 -15q-17 0 -27.5 10t-10.5 27q0 23 16 38t40 15zM474 794q18 0 28.5 -10t10.5 -27q0 -23 -16.5 -38t-40.5 -15q-17 0 -28 10t-11 27q0 23 16.5 38t40.5 15zM150 -7q-6 0 -6 5q0 7 26 17q20 7 29.5 23t20.5 58
t32 149q4 22 -10 52l-92 221q-24 57 -37.5 75.5t-33.5 26.5q-11 4 -11 10t8 6l32 -3q32 -3 54 -3t60 3t40 3q6 0 6 -5q-1 -4 -19 -12q-23 -11 -26 -23q-3 -19 17.5 -81t87.5 -227l117 153q72 91 78 130q8 41 -42 50q-6 1 -8 3t-1 5q1 7 10 7q1 0 36.5 -3t55.5 -3
q12 0 39.5 3t28.5 3q5 0 7 -1.5t1 -4.5q-2 -7 -11 -9q-28 -9 -47 -26t-54 -62l-194 -249q-6 -8 -7 -14q-35 -195 -32 -225q2 -19 21 -28q1 -1 5 -3q10 -5 14 -7.5t3 -6.5q0 -7 -7 -7q-1 0 -38 3.5t-54 3.5q-19 0 -59 -4z" />
    <glyph glyph-name="Zacute" unicode="&#x179;" horiz-adv-x="577" 
d="M264 673q-4 0 -4 4q0 5 7 9q160 103 183 112q11 4 19 4q13 0 21.5 -7.5t8.5 -18.5q0 -25 -43 -41q-52 -19 -119 -40.5t-73 -21.5zM0 -7q-6 0 -5 6q1 4 12 15q53 58 261 309q135 165 172.5 213t40.5 62q2 8 -11 11q-16 4 -67 5h-62q-69 0 -103 -10t-58.5 -37.5
t-61.5 -94.5q-8 -12 -12 -12q-6 0 -5 8q0 2 6.5 21t15 45.5t11.5 45.5q4 29 1 39t-2 12q1 6 8 6q1 0 89 -1.5t157 -1.5q41 0 90.5 1t84 1.5t39.5 0.5t4 -6q0 -3 -2 -4.5t-7 -5t-9 -7.5q-26 -27 -240 -296q-202 -246 -218 -271q-8 -12 -9 -18q-1 -7 3 -9.5t18 -2.5
q88 0 127 1q117 3 168.5 39.5t95.5 145.5q6 16 13 16q4 0 4 -5q0 -6 -9 -28q-27 -76 -35 -136q-4 -34 -7 -50q-1 -6 -7 -6q-7 0 -60.5 0.5t-130.5 1t-140 0.5q-40 0 -99 -1.5t-61 -1.5z" />
    <glyph glyph-name="zacute" unicode="&#x17a;" horiz-adv-x="372" 
d="M155 452q-3 -2 -5 3q0 3 3 7q126 132 144 147q16 14 26 15q28 4 34 -25q3 -20 -30 -42q-108 -74 -167 -103q-4 -2 -5 -2zM259 -15q-24 0 -98 29t-95 29q-17 0 -28 -8t-29 -28q-15 -16 -19 -16q-6 0 -6 7q0 5 17 23l42 44q9 10 72.5 80.5t106.5 114.5t82 79l-3 2
q-43 -29 -71 -29q-18 0 -62 17t-60 17q-31 0 -49 -72q-4 -9 -10 -9q-7 0 -6 8q9 44 32 91q12 23 21.5 31.5t24.5 8.5t86.5 -21.5t107.5 -21.5q9 0 18 8l27 26q10 9 14 9q5 0 5 -6q0 -4 -12 -16q-121 -111 -305 -316l3 -2q38 32 65 32q26 0 78 -26t70 -26q37 0 57 76
q5 14 11 14q8 0 8 -7q0 -4 -5 -16q-19 -69 -40 -97.5t-50 -28.5z" />
    <glyph glyph-name="Zdotaccent" unicode="&#x17b;" horiz-adv-x="577" 
d="M383 715q-21 0 -34.5 13t-13.5 35q0 21 13.5 34t34.5 13q22 0 35 -13t13 -34q0 -22 -13 -35t-35 -13zM0 -7q-6 0 -5 6q1 4 12 15q53 58 261 309q135 165 172.5 213t40.5 62q2 8 -11 11q-16 4 -67 5h-62q-69 0 -103 -10t-58.5 -37.5t-61.5 -94.5q-8 -12 -12 -12q-6 0 -5 8
q0 2 6.5 21t15 45.5t11.5 45.5q4 29 1 39t-2 12q1 6 8 6q1 0 89 -1.5t157 -1.5q41 0 90.5 1t84 1.5t39.5 0.5t4 -6q0 -3 -2 -4.5t-7 -5t-9 -7.5q-26 -27 -240 -296q-202 -246 -218 -271q-8 -12 -9 -18q-1 -7 3 -9.5t18 -2.5q88 0 127 1q117 3 168.5 39.5t95.5 145.5
q6 16 13 16q4 0 4 -5q0 -6 -9 -28q-27 -76 -35 -136q-4 -34 -7 -50q-1 -6 -7 -6q-7 0 -60.5 0.5t-130.5 1t-140 0.5q-40 0 -99 -1.5t-61 -1.5z" />
    <glyph glyph-name="zdotaccent" unicode="&#x17c;" horiz-adv-x="372" 
d="M245 482q-22 0 -37 14t-15 36q0 24 15.5 39.5t39.5 15.5t38.5 -13.5t14.5 -36.5q0 -25 -15.5 -40t-40.5 -15zM259 -15q-24 0 -98 29t-95 29q-17 0 -28 -8t-29 -28q-15 -16 -19 -16q-6 0 -6 7q0 5 17 23l42 44q9 10 72.5 80.5t106.5 114.5t82 79l-3 2q-43 -29 -71 -29
q-18 0 -62 17t-60 17q-31 0 -49 -72q-4 -9 -10 -9q-7 0 -6 8q9 44 32 91q12 23 21.5 31.5t24.5 8.5t86.5 -21.5t107.5 -21.5q9 0 18 8l27 26q10 9 14 9q5 0 5 -6q0 -4 -12 -16q-121 -111 -305 -316l3 -2q38 32 65 32q26 0 78 -26t70 -26q37 0 57 76q5 14 11 14q8 0 8 -7
q0 -4 -5 -16q-19 -69 -40 -97.5t-50 -28.5z" />
    <glyph glyph-name="Zcaron" unicode="&#x17d;" horiz-adv-x="577" 
d="M266 823q3 0 6.5 -1.5t12 -7.5t18.5 -13.5t31.5 -22.5t45.5 -32h2q24 13 45.5 25t34.5 19t24.5 13.5t17 10t10.5 6t7.5 3t4.5 0.5q5 0 5 -7q-3 -11 -108 -94q-2 -2 -8 -7t-8 -7t-7 -5.5t-8 -5t-7 -4t-7.5 -3t-7.5 -0.5q-8 0 -16 5.5t-11.5 9.5t-14.5 19q-49 56 -60 71
t-10 21q0 7 8 7zM0 -7q-6 0 -5 6q1 4 12 15q53 58 261 309q135 165 172.5 213t40.5 62q2 8 -11 11q-16 4 -67 5h-62q-69 0 -103 -10t-58.5 -37.5t-61.5 -94.5q-8 -12 -12 -12q-6 0 -5 8q0 2 6.5 21t15 45.5t11.5 45.5q4 29 1 39t-2 12q1 6 8 6q1 0 89 -1.5t157 -1.5
q41 0 90.5 1t84 1.5t39.5 0.5t4 -6q0 -3 -2 -4.5t-7 -5t-9 -7.5q-26 -27 -240 -296q-202 -246 -218 -271q-8 -12 -9 -18q-1 -7 3 -9.5t18 -2.5q88 0 127 1q117 3 168.5 39.5t95.5 145.5q6 16 13 16q4 0 4 -5q0 -6 -9 -28q-27 -76 -35 -136q-4 -34 -7 -50q-1 -6 -7 -6
q-7 0 -60.5 0.5t-130.5 1t-140 0.5q-40 0 -99 -1.5t-61 -1.5z" />
    <glyph glyph-name="zcaron" unicode="&#x17e;" horiz-adv-x="372" 
d="M131 621q2 0 4.5 -1t7 -4t9 -7t13 -12t18 -16.5t25.5 -23.5t33 -30h2q139 91 143 93q3 1 5 1q5 0 5 -6q0 -8 -33 -39q-6 -5 -21 -18l-60 -56q-14 -14 -23 -18.5t-26 -4.5q-16 0 -24 5t-18 20q-8 12 -17 25t-14.5 21t-11.5 16.5t-9 13.5t-6.5 10t-5 8l-3 6t-2 4.5
t-0.5 3.5q0 9 9 9zM259 -15q-24 0 -98 29t-95 29q-17 0 -28 -8t-29 -28q-15 -16 -19 -16q-6 0 -6 7q0 5 17 23l42 44q9 10 72.5 80.5t106.5 114.5t82 79l-3 2q-43 -29 -71 -29q-18 0 -62 17t-60 17q-31 0 -49 -72q-4 -9 -10 -9q-7 0 -6 8q9 44 32 91q12 23 21.5 31.5
t24.5 8.5t86.5 -21.5t107.5 -21.5q9 0 18 8l27 26q10 9 14 9q5 0 5 -6q0 -4 -12 -16q-121 -111 -305 -316l3 -2q38 32 65 32q26 0 78 -26t70 -26q37 0 57 76q5 14 11 14q8 0 8 -7q0 -4 -5 -16q-19 -69 -40 -97.5t-50 -28.5z" />
    <glyph glyph-name="florin" unicode="&#x192;" horiz-adv-x="448" 
d="M452 647q40 0 64.5 -15t20.5 -36q-2 -15 -12.5 -25t-26.5 -10q-3 0 -6 1t-5 1.5t-4 3.5l-3 4.5t-3 5.5t-2.5 6t-2.5 7.5t-3 7.5q-10 27 -42 27q-26 0 -46 -17t-29 -50q-1 -8 -1.5 -41t-3.5 -52l-20 -78q86 4 103 4q14 0 14 -11q0 -17 -20 -17q-3 0 -18.5 0.5t-40.5 1.5
t-44 1q-33 -123 -123 -413q-51 -164 -167 -164q-37 0 -60 14.5t-23 35.5q0 16 10.5 26t25.5 10q4 0 7 -0.5t6 -3t4.5 -4t3.5 -6t3 -6.5t3.5 -8t3.5 -9q12 -27 42 -27q27 0 48 17t28 51q1 7 4 42t5 56q34 137 107 388q-16 0 -37 -0.5t-22 -0.5q-11 0 -11 10q0 16 16 16l60 -2
l28 96q24 83 68.5 123t100.5 40z" />
    <glyph glyph-name="Ohorn" unicode="&#x1a0;" horiz-adv-x="665" 
d="M723 632q35 0 35 -38q0 -37 -32.5 -67t-77.5 -30q-12 0 -17 1q15 -45 15 -99q0 -106 -47 -201t-129.5 -154t-178.5 -59q-105 0 -166.5 70t-61.5 183q0 105 46.5 199.5t128.5 153t179 58.5q75 0 128.5 -35t79.5 -98q12 -2 23 -2q21 0 36.5 9t15.5 19q0 6 -11 19.5
t-11 26.5q0 18 13 31t32 13zM449 79q49 59 79 163t30 194q0 98 -33.5 147t-110.5 49q-78 0 -136 -58q-58 -57 -93 -165.5t-35 -206.5q0 -200 145 -200q88 0 154 77z" />
    <glyph glyph-name="ohorn" unicode="&#x1a1;" horiz-adv-x="446" 
d="M496 431q0 -37 -32.5 -67t-77.5 -30q22 -38 22 -92q0 -98 -64 -177t-156 -79q-70 0 -110 46.5t-40 121.5q0 93 65 171.5t158 78.5q74 0 114 -53h11q21 0 36.5 9t15.5 19q0 6 -11 19.5t-11 26.5q0 18 13 31t32 13q35 0 35 -38zM288 65q23 38 37 95t14 109q0 121 -81 121
q-56 0 -96 -63q-54 -81 -54 -203q0 -124 83 -124q58 0 97 65z" />
    <glyph glyph-name="Uhorn" unicode="&#x1af;" horiz-adv-x="653" 
d="M282 -15q-203 0 -203 179q0 38 10 101l46 257q9 44 6 64t-22 30q-14 8 -14 13q0 7 8 7q2 0 16.5 -1.5t34 -3t35.5 -1.5q21 0 55 3t37 3q6 0 6 -5q0 -6 -24 -16q-23 -9 -33.5 -27t-20.5 -67l-51 -276q-10 -53 -10 -89q0 -69 38 -104.5t109 -35.5q88 0 152 61t86 189
l43 253q8 51 1 70.5t-35 28.5q-16 6 -16 12t7 6l29 -3q28 -3 44 -3q79 0 85 24q2 11 -16 24t-15 31q3 17 16 27t29 10q21 0 30.5 -14.5t4.5 -34.5q-5 -25 -26 -45.5t-53 -31.5q-30 -10 -43.5 -27t-21.5 -57l-45 -268q-50 -283 -279 -283z" />
    <glyph glyph-name="uhorn" unicode="&#x1b0;" horiz-adv-x="513" 
d="M411 299l-42 -184q-11 -50 -11 -67q0 -33 30 -33q36 0 53 71q1 6 9 6q7 0 6 -8q-15 -97 -93 -97q-32 0 -49 16.5t-17 43.5q0 19 21 103h-2q-28 -85 -65.5 -125t-91.5 -40q-43 0 -70 26.5t-27 71.5q0 31 30.5 127t30.5 125q0 37 -28 37q-38 0 -54 -74q-1 -10 -9 -10
q-6 0 -5 9q18 102 94 102q71 0 71 -70q0 -30 -31 -132.5t-31 -131.5q0 -58 52 -58q91 0 140 211l36 161q4 16 40 16q30 0 30 -14q0 -4 -14 -66q6 -1 19 -1q21 0 36.5 9t15.5 19q0 6 -11 19.5t-11 26.5q0 18 13 31t32 13q35 0 35 -38q0 -37 -32.5 -67t-77.5 -30q-10 0 -22 2z
" />
    <glyph glyph-name="uni01CD" unicode="&#x1cd;" horiz-adv-x="608" 
d="M261 823q3 0 6.5 -1.5t12 -7.5t18.5 -13.5t31.5 -22.5t45.5 -32h2q24 13 45.5 25t34.5 19t24.5 13.5t17 10t10.5 6t7.5 3t4.5 0.5q5 0 5 -7q-3 -11 -108 -94q-2 -2 -8 -7t-8 -7t-7 -5.5t-8 -5t-7 -4t-7.5 -3t-7.5 -0.5q-8 0 -16 5.5t-11.5 9.5t-14.5 19q-49 56 -60 71
t-10 21q0 7 8 7zM-36 -6q-9 0 -9 7q0 6 14 10q34 10 51 28.5t53 84.5l227 431q14 30 14 32q1 6 -3.5 10.5t-19.5 9.5l-7.5 3t-4 3t-1.5 5q1 6 12 8q34 0 64 6t46.5 11.5t17.5 5.5q8 0 6 -7q0 -3 -4.5 -8.5t-5.5 -10.5q-2 -6 3 -27q49 -250 106 -497q10 -44 19.5 -60
t28.5 -23q24 -9 24 -15t-10 -6q-3 0 -41.5 2.5t-62.5 2.5q-22 0 -60.5 -2.5t-40.5 -2.5q-9 0 -9 6t19 10q40 12 46 44q3 26 -20 139q-1 8 -15 11q-19 3 -145 3q-94 0 -111 -3q-10 0 -14 -10l-45 -88q-11 -24 -14 -41q-7 -39 44 -56q14 -4 14 -9q-1 -7 -10 -7q-2 0 -36.5 3
t-53.5 3q-16 0 -40.5 -3t-25.5 -3zM265 225q65 0 128 3q14 1 14 7q1 3 -3 22q-34 147 -69 324q-1 4 -2 4l-3 -3l-174 -337l-6 -13q0 -4 10 -5q18 -2 105 -2z" />
    <glyph glyph-name="uni01CE" unicode="&#x1ce;" horiz-adv-x="477" 
d="M285 479q-16 0 -24 5t-18 20q-8 12 -17 25t-14.5 21t-11.5 16.5t-9 13.5t-6.5 10t-5 8l-3 6t-2 4.5t-0.5 3.5q0 9 9 9q2 0 4.5 -1t7 -4t9 -7t13 -12t18 -16.5t25.5 -23.5t33 -30h2q139 91 143 93q3 1 5 1q5 0 5 -6q0 -8 -33 -39q-6 -5 -21 -18l-60 -56q-14 -14 -23 -18.5
t-26 -4.5zM446 98q7 0 6 -9q-13 -54 -35 -77t-58 -23q-28 0 -45 15.5t-17 44.5q0 21 7 46h-3q-49 -110 -138 -110q-56 0 -91.5 43.5t-35.5 112.5q0 98 63 180t151 82q90 0 112 -94l30 44q27 44 33 44q5 0 5 -6q0 -5 -3 -20l-61 -285q-6 -34 -6 -42q0 -28 23 -28
q18 0 30.5 16t23.5 57q3 9 9 9zM180 7q43 0 81 46t54 130q12 59 12 100q0 107 -70 107q-50 0 -88 -51q-27 -38 -44 -99t-17 -114q0 -119 72 -119z" />
    <glyph glyph-name="uni01CF" unicode="&#x1cf;" horiz-adv-x="310" 
d="M139 823q3 0 6.5 -1.5t12 -7.5t18.5 -13.5t31.5 -22.5t45.5 -32h2q24 13 45.5 25t34.5 19t24.5 13.5t17 10t10.5 6t7.5 3t4.5 0.5q5 0 5 -7q-3 -11 -108 -94q-2 -2 -8 -7t-8 -7t-7 -5.5t-8 -5t-7 -4t-7.5 -3t-7.5 -0.5q-8 0 -16 5.5t-11.5 9.5t-14.5 19q-49 56 -60 71
t-10 21q0 7 8 7zM31 -4q-6 0 -6 6q2 6 20 12q25 8 38.5 54t53.5 251q44 228 43 262q0 29 -18 36q-16 5 -15 9v2q0 6 8 6q2 0 34 -2t48 -2t49.5 2t35.5 2q6 0 6 -6q-2 -6 -20 -11q-25 -9 -38 -54t-52 -244q-45 -236 -45 -270q0 -29 18 -35q16 -6 15 -10v-2q0 -6 -8 -6
q-2 0 -34 2t-49 2t-50 -2t-34 -2z" />
    <glyph glyph-name="uni01D0" unicode="&#x1d0;" horiz-adv-x="262" 
d="M59 621q2 0 4.5 -1t7 -4t9 -7t13 -12t18 -16.5t25.5 -23.5t33 -30h2q139 91 143 93q3 1 5 1q5 0 5 -6q0 -8 -33 -39q-6 -5 -21 -18q-35 -33 -60 -56q-14 -14 -23 -18.5t-26 -4.5q-16 0 -24 5t-18 20q-8 12 -17 25t-14.5 21t-11.5 16.5t-9 13.5t-6.5 10t-5 8l-3 6t-2 4.5
t-0.5 3.5q0 9 9 9zM136 -10q-73 0 -73 73q0 31 33.5 144t33.5 136q0 35 -30 35q-45 0 -60 -74q-2 -6 -9 -6t-6 8q16 97 99 97q36 0 55 -17.5t19 -46.5q0 -33 -34 -146t-34 -138q0 -38 29 -38q19 0 32 17t26 58q3 9 8 9q7 0 6 -9q-21 -102 -95 -102z" />
    <glyph glyph-name="uni01D1" unicode="&#x1d1;" horiz-adv-x="665" 
d="M418 690q-8 0 -16 5.5t-11.5 9.5t-14.5 19q-49 56 -60 71t-10 21q0 7 8 7q3 0 6.5 -1.5t12 -7.5t18.5 -13.5t31.5 -22.5t45.5 -32h2q24 13 45.5 25t34.5 19t24.5 13.5t17 10t10.5 6t7.5 3t4.5 0.5q5 0 5 -7q-3 -11 -108 -94q-2 -2 -8 -7t-8 -7t-7 -5.5t-8 -5t-7 -4
t-7.5 -3t-7.5 -0.5zM417 649q106 0 167.5 -69t61.5 -181q0 -106 -47 -201t-129.5 -154t-178.5 -59q-105 0 -166.5 70t-61.5 183q0 105 46.5 199.5t128.5 153t179 58.5zM449 79q49 59 79 163t30 194q0 98 -33.5 147t-110.5 49q-78 0 -136 -58q-58 -57 -93 -165.5t-35 -206.5
q0 -200 145 -200q88 0 154 77z" />
    <glyph glyph-name="uni01D2" unicode="&#x1d2;" horiz-adv-x="446" 
d="M168 621q2 0 4.5 -1t7 -4t9 -7t13 -12t18 -16.5t25.5 -23.5t33 -30h2q139 91 143 93q3 1 5 1q5 0 5 -6q0 -8 -33 -39q-6 -5 -21 -18l-60 -56q-14 -14 -23 -18.5t-26 -4.5q-16 0 -24 5t-18 20q-8 12 -17 25t-14.5 21t-11.5 16.5t-9 13.5t-6.5 10t-5 8l-3 6t-2 4.5
t-0.5 3.5q0 9 9 9zM188 -14q-70 0 -110 46.5t-40 121.5q0 93 65 171.5t158 78.5q69 0 108 -45.5t39 -116.5q0 -98 -64 -177t-156 -79zM191 0q58 0 97 65q23 38 37 95t14 109q0 121 -81 121q-56 0 -96 -63q-54 -81 -54 -203q0 -124 83 -124z" />
    <glyph glyph-name="uni01D3" unicode="&#x1d3;" horiz-adv-x="617" 
d="M313 824q3 0 6.5 -1.5t12 -7.5t18.5 -13.5t31.5 -22.5t45.5 -32h2q24 13 45.5 25t34.5 19t24.5 13.5t17 10t10.5 6t7.5 3t4.5 0.5q5 0 5 -7q-3 -11 -108 -94q-2 -2 -8 -7t-8 -7t-7 -5.5t-8 -5t-7 -4t-7.5 -3t-7.5 -0.5q-8 0 -16 5.5t-11.5 9.5t-14.5 19q-49 56 -60 71
t-10 21q0 7 8 7zM282 -15q-203 0 -203 179q0 38 10 101l46 257q9 44 6 64t-22 30q-14 8 -14 13q0 7 8 7q2 0 16.5 -1.5t34 -3t35.5 -1.5q21 0 55 3t37 3q6 0 6 -5q0 -6 -24 -16q-23 -9 -33.5 -27t-20.5 -67l-51 -276q-10 -53 -10 -89q0 -69 38 -104.5t109 -35.5q88 0 152 61
t86 189l43 253q8 51 1 70.5t-35 28.5q-16 6 -16 12t7 6l28 -3q28 -3 44 -3q17 0 41 3t25 3q6 0 6 -5q0 -6 -22 -12q-27 -9 -40.5 -31.5t-22.5 -74.5l-41 -245q-50 -283 -279 -283z" />
    <glyph glyph-name="uni01D4" unicode="&#x1d4;" horiz-adv-x="486" 
d="M274 479q-16 0 -24 5t-18 20q-8 12 -17 25t-14.5 21t-11.5 16.5t-9 13.5t-6.5 10t-5 8l-3 6t-2 4.5t-0.5 3.5q0 9 9 9q2 0 4.5 -1t7 -4t9 -7t13 -12t18 -16.5t25.5 -23.5t33 -30h2q139 91 143 93q3 1 5 1q5 0 5 -6q0 -8 -33 -39q-6 -5 -21 -18l-60 -56q-14 -14 -23 -18.5
t-26 -4.5zM450 92q7 0 6 -8q-15 -97 -93 -97q-32 0 -49 16.5t-17 43.5q0 19 21 103h-2q-28 -85 -65.5 -125t-91.5 -40q-43 0 -70 26.5t-27 71.5q0 31 30.5 127t30.5 125q0 37 -28 37q-38 0 -54 -74q-1 -10 -9 -10q-6 0 -5 9q18 102 94 102q71 0 71 -70q0 -30 -31 -132.5
t-31 -131.5q0 -58 52 -58q91 0 140 211l36 161q4 16 40 16q30 0 30 -14q0 -8 -59 -266q-11 -50 -11 -67q0 -33 30 -33q36 0 53 71q1 6 9 6z" />
    <glyph glyph-name="uni01D5" unicode="&#x1d5;" horiz-adv-x="617" 
d="M332 904q6 0 42 -1t55 -1q22 0 64 1t49 1q14 0 14 -10q0 -25 -17 -25q-18 0 -53.5 1t-52.5 1q-15 0 -55 -1t-50 -1q-14 0 -14 12q0 23 18 23zM363 795q19 0 29.5 -10t10.5 -27q0 -23 -16.5 -38t-41.5 -15q-17 0 -27.5 10t-10.5 27q0 23 16 38t40 15zM509 795
q18 0 28.5 -10t10.5 -27q0 -23 -16.5 -38t-40.5 -15q-17 0 -28 10t-11 27q0 23 16.5 38t40.5 15zM282 -15q-203 0 -203 179q0 38 10 101l46 257q9 44 6 64t-22 30q-14 8 -14 13q0 7 8 7q2 0 16.5 -1.5t34 -3t35.5 -1.5q21 0 55 3t37 3q6 0 6 -5q0 -6 -24 -16
q-23 -9 -33.5 -27t-20.5 -67l-51 -276q-10 -53 -10 -89q0 -69 38 -104.5t109 -35.5q88 0 152 61t86 189l43 253q8 51 1 70.5t-35 28.5q-16 6 -16 12t7 6l28 -3q28 -3 44 -3q17 0 41 3t25 3q6 0 6 -5q0 -6 -22 -12q-27 -9 -40.5 -31.5t-22.5 -74.5l-41 -245
q-50 -283 -279 -283z" />
    <glyph glyph-name="uni01D6" unicode="&#x1d6;" horiz-adv-x="486" 
d="M198 710q-14 0 -14 12q0 23 18 23q6 0 42 -1t55 -1q22 0 64 1t49 1q14 0 14 -10q0 -25 -17 -25q-18 0 -53.5 1t-52.5 1q-15 0 -55 -1t-50 -1zM213 503q-19 0 -31 11t-12 30q0 22 14.5 35.5t37.5 13.5q19 0 31 -11t12 -29q0 -22 -15 -36t-37 -14zM367 593q19 0 31 -11
t12 -29q0 -22 -14.5 -36t-37.5 -14q-19 0 -30.5 11t-11.5 30q0 22 14.5 35.5t36.5 13.5zM450 92q7 0 6 -8q-15 -97 -93 -97q-32 0 -49 16.5t-17 43.5q0 19 21 103h-2q-28 -85 -65.5 -125t-91.5 -40q-43 0 -70 26.5t-27 71.5q0 31 30.5 127t30.5 125q0 37 -28 37
q-38 0 -54 -74q-1 -10 -9 -10q-6 0 -5 9q18 102 94 102q71 0 71 -70q0 -30 -31 -132.5t-31 -131.5q0 -58 52 -58q91 0 140 211l36 161q4 16 40 16q30 0 30 -14q0 -8 -59 -266q-11 -50 -11 -67q0 -33 30 -33q36 0 53 71q1 6 9 6z" />
    <glyph glyph-name="uni01D7" unicode="&#x1d7;" horiz-adv-x="617" 
d="M339 838q-4 0 -4 4q0 5 7 9q160 103 183 112q11 4 19 4q13 0 21.5 -7.5t8.5 -18.5q0 -25 -43 -41q-52 -19 -119 -40.5t-73 -21.5zM363 795q19 0 29.5 -10t10.5 -27q0 -23 -16.5 -38t-41.5 -15q-17 0 -27.5 10t-10.5 27q0 23 16 38t40 15zM509 795q18 0 28.5 -10t10.5 -27
q0 -23 -16.5 -38t-40.5 -15q-17 0 -28 10t-11 27q0 23 16.5 38t40.5 15zM282 -15q-203 0 -203 179q0 38 10 101l46 257q9 44 6 64t-22 30q-14 8 -14 13q0 7 8 7q2 0 16.5 -1.5t34 -3t35.5 -1.5q21 0 55 3t37 3q6 0 6 -5q0 -6 -24 -16q-23 -9 -33.5 -27t-20.5 -67l-51 -276
q-10 -53 -10 -89q0 -69 38 -104.5t109 -35.5q88 0 152 61t86 189l43 253q8 51 1 70.5t-35 28.5q-16 6 -16 12t7 6l28 -3q28 -3 44 -3q17 0 41 3t25 3q6 0 6 -5q0 -6 -22 -12q-27 -9 -40.5 -31.5t-22.5 -74.5l-41 -245q-50 -283 -279 -283z" />
    <glyph glyph-name="uni01D8" unicode="&#x1d8;" horiz-adv-x="486" 
d="M232 656q-3 -2 -5 3q0 3 3 7q126 132 144 147q16 14 26 15q28 4 34 -25q3 -20 -30 -42q-108 -74 -167 -103q-4 -2 -5 -2zM213 503q-19 0 -31 11t-12 30q0 22 14.5 35.5t37.5 13.5q19 0 31 -11t12 -29q0 -22 -15 -36t-37 -14zM367 593q19 0 31 -11t12 -29q0 -22 -14.5 -36
t-37.5 -14q-19 0 -30.5 11t-11.5 30q0 22 14.5 35.5t36.5 13.5zM450 92q7 0 6 -8q-15 -97 -93 -97q-32 0 -49 16.5t-17 43.5q0 19 21 103h-2q-28 -85 -65.5 -125t-91.5 -40q-43 0 -70 26.5t-27 71.5q0 31 30.5 127t30.5 125q0 37 -28 37q-38 0 -54 -74q-1 -10 -9 -10
q-6 0 -5 9q18 102 94 102q71 0 71 -70q0 -30 -31 -132.5t-31 -131.5q0 -58 52 -58q91 0 140 211l36 161q4 16 40 16q30 0 30 -14q0 -8 -59 -266q-11 -50 -11 -67q0 -33 30 -33q36 0 53 71q1 6 9 6z" />
    <glyph glyph-name="uni01D9" unicode="&#x1d9;" horiz-adv-x="617" 
d="M341 988q3 0 6.5 -1.5t12 -7.5t18.5 -13.5t31.5 -22.5t45.5 -32h2q24 13 45.5 25t34.5 19t24.5 13.5t17 10t10.5 6t7.5 3t4.5 0.5q5 0 5 -7q-3 -11 -108 -94q-2 -2 -8 -7t-8 -7t-7 -5.5t-8 -5t-7 -4t-7.5 -3t-7.5 -0.5q-8 0 -16 5.5t-11.5 9.5t-14.5 19q-49 56 -60 71
t-10 21q0 7 8 7zM363 795q19 0 29.5 -10t10.5 -27q0 -23 -16.5 -38t-41.5 -15q-17 0 -27.5 10t-10.5 27q0 23 16 38t40 15zM509 795q18 0 28.5 -10t10.5 -27q0 -23 -16.5 -38t-40.5 -15q-17 0 -28 10t-11 27q0 23 16.5 38t40.5 15zM282 -15q-203 0 -203 179q0 38 10 101
l46 257q9 44 6 64t-22 30q-14 8 -14 13q0 7 8 7q2 0 16.5 -1.5t34 -3t35.5 -1.5q21 0 55 3t37 3q6 0 6 -5q0 -6 -24 -16q-23 -9 -33.5 -27t-20.5 -67l-51 -276q-10 -53 -10 -89q0 -69 38 -104.5t109 -35.5q88 0 152 61t86 189l43 253q8 51 1 70.5t-35 28.5q-16 6 -16 12t7 6
l28 -3q28 -3 44 -3q17 0 41 3t25 3q6 0 6 -5q0 -6 -22 -12q-27 -9 -40.5 -31.5t-22.5 -74.5l-41 -245q-50 -283 -279 -283z" />
    <glyph glyph-name="uni01DA" unicode="&#x1da;" horiz-adv-x="486" 
d="M468 825q5 0 5 -6q0 -8 -33 -39q-6 -5 -21 -18l-60 -56q-14 -14 -23 -18.5t-26 -4.5q-16 0 -24 5t-18 20q-8 12 -17 25t-14.5 21t-11.5 16.5t-9 13.5t-6.5 10t-5 8l-3 6t-2 4.5t-0.5 3.5q0 9 9 9q2 0 4.5 -1t7 -4t9 -7t13 -12t18 -16.5t25.5 -23.5t33 -30h2
q139 91 143 93q3 1 5 1zM213 503q-19 0 -31 11t-12 30q0 22 14.5 35.5t37.5 13.5q19 0 31 -11t12 -29q0 -22 -15 -36t-37 -14zM410 553q0 -22 -14.5 -36t-37.5 -14q-19 0 -30.5 11t-11.5 30q0 22 14.5 35.5t36.5 13.5q19 0 31 -11t12 -29zM450 92q7 0 6 -8q-15 -97 -93 -97
q-32 0 -49 16.5t-17 43.5q0 19 21 103h-2q-28 -85 -65.5 -125t-91.5 -40q-43 0 -70 26.5t-27 71.5q0 31 30.5 127t30.5 125q0 37 -28 37q-38 0 -54 -74q-1 -10 -9 -10q-6 0 -5 9q18 102 94 102q71 0 71 -70q0 -30 -31 -132.5t-31 -131.5q0 -58 52 -58q91 0 140 211l36 161
q4 16 40 16q30 0 30 -14q0 -8 -59 -266q-11 -50 -11 -67q0 -33 30 -33q36 0 53 71q1 6 9 6z" />
    </font>
</defs>
</svg>
