<?xml version="1.0" standalone="no"?>
<!DOCTYPE svg PUBLIC "-//W3C//DTD SVG 1.1//EN" "http://www.w3.org/Graphics/SVG/1.1/DTD/svg11.dtd" >
<svg xmlns="http://www.w3.org/2000/svg" xmlns:xlink="http://www.w3.org/1999/xlink" version="1.1">
<metadata>
Created by FontForge 20170731 at Thu Nov 19 18:31:10 2015
 By Aleksey,,,
Copyright (c) 2014 by Rodrigo Saiani. All rights reserved.
</metadata>
<defs>
<font id="Tenez-Light" horiz-adv-x="0" >
  <font-face 
    font-family="Tenez-Light"
    font-weight="400"
    font-stretch="normal"
    units-per-em="1000"
    panose-1="0 0 3 0 0 0 0 0 0 0"
    ascent="751"
    descent="-249"
    x-height="395"
    cap-height="636"
    bbox="-606 -306 983 1138"
    underline-thickness="50"
    underline-position="-150"
    unicode-range="U+0020-FB02"
  />
<missing-glyph horiz-adv-x="500" 
d="M410 720v-1000h-317v1000h317zM333 653h-165v-33h65v-37h-66v-33h166v33h-66v37h66v33zM267 524h-100v-104h166v34h-66v70zM233 490v-36h-33v36h33zM333 393h-166v-33h66v-37h-66v-33h100v70h66v33zM333 333h-33v-66h-133v-34h166v100zM333 211h-100v-56h34v23h33v-47
h-100v80h-33v-113h166v113zM333 38h-166v-113h166v113zM300 5v-47h-100v47h100zM333 -98h-166v-33h70l-70 -47v-33h166v33h-102l70 47h32v33z" />
    <glyph glyph-name="fi" unicode="fi" horiz-adv-x="497" 
d="M445 9q10 -1 10 -8q0 -6 -7 -6q-3 0 -29 2t-39 2q-11 0 -35.5 -2t-28.5 -2q-7 0 -7 6q0 7 10 8q33 6 40 17.5t7 56.5v222q0 39 -12 50t-134 11q-50 0 -80 -1v-286q0 -39 11 -50.5t53 -18.5q10 -1 10 -7q0 -7 -7 -7q-3 0 -35 2t-46 2t-32.5 -1t-32.5 -2t-15 -1q-7 0 -7 6
t13 9q38 6 47 17.5t9 50.5v286q-28 -1 -67 -1q-13 0 -13 13t13 13q32 0 67 -1v115q0 70 41.5 107.5t106.5 37.5q56 0 98 -26.5t42 -50.5q0 -13 -7.5 -21.5t-18.5 -8.5q-25 0 -32 29q-10 32 -30 46t-62 14q-45 0 -75.5 -28.5t-30.5 -86.5v-65v-62q108 -2 177 -2q14 0 33 4
t32 8l14 4q8 0 8 -7q0 -3 -1.5 -10.5t-1.5 -11.5q-3 -16 -3 -80v-211q0 -45 7 -56.5t40 -17.5z" />
    <glyph glyph-name="fl" unicode="fl" horiz-adv-x="466" 
d="M418 11q10 -3 10 -8q0 -7 -7 -7q-3 0 -23 2t-30 2q-14 0 -37 -2l-23 -2q-7 0 -7 6t13 9q25 6 30.5 19t5.5 63v270q-16 0 -49.5 0.5t-81 1.5t-79.5 1v-287q0 -39 11 -50.5t53 -18.5q10 -1 10 -7q0 -7 -7 -7q-3 0 -35 2t-46 2t-32.5 -1t-32.5 -2t-15 -1q-7 0 -7 6t13 9
q38 6 47 17.5t9 50.5v287l-67 -2q-13 0 -13 13t13 13q2 0 11.5 -0.5t25.5 -1.5t30 -1v132q0 63 40 96.5t102 33.5q36 0 84 -25q14 4 24.5 10.5t16 10.5t8.5 4q6 0 6 -6q0 -2 -2 -17.5t-4 -48t-2 -75.5v-419q1 -42 7.5 -54t29.5 -18zM140 387q70 2 210 4v150q0 33 -27 61.5
t-83 28.5q-42 0 -71 -25t-29 -75v-144z" />
    <glyph glyph-name="T_h.liga" unicode="Th" horiz-adv-x="1008" 
d="M952 12q12 -4 12 -10t-7 -6q-1 0 -21 2t-31 2q-9 0 -28 -2t-21 -2q-7 0 -7 6t10 9q17 5 23.5 20t6.5 62v151q0 138 -104 138q-63 0 -106.5 -52.5t-43.5 -144.5v-91v-21.5v-17.5v-13t1.5 -10.5t3.5 -7t6 -6t9 -3.5t12 -4q10 -3 10 -9t-7 -6q-3 0 -23 2t-30 2
q-11 0 -29.5 -2t-19.5 -2q-7 0 -7 6t12 10q18 5 22 18t4 63v464q0 36 -14 46q-17 14 -119 14q-115 0 -129 -17q-8 -9 -9 -50t-1 -268l-1 -171q0 -62 10.5 -77.5t59.5 -23.5q11 -3 11 -8q0 -7 -7 -7l-34 2q-34 2 -56 2t-56 -2l-34 -2q-7 0 -7 7q0 5 11 8q49 8 59.5 23.5
t10.5 77.5v171q-1 228 -2 268.5t-9 49.5q-13 17 -89 17q-33 0 -49.5 -2.5t-31.5 -9t-21.5 -24.5t-11.5 -43.5t-9 -71.5q-1 -16 -10 -16q-7 0 -7 10l2 54q1 54 1 78q0 17 -5.5 28t-5.5 12q0 7 7 7q2 0 3 -1q19 -8 254 -8q81 0 142.5 2t93 5t51 5.5t27 4.5t9.5 2q8 0 8 -7
q0 -2 -1.5 -13t-3 -30t-1.5 -39v-284q18 60 58.5 94t91.5 34q70 0 104 -38.5t34 -122.5v-150q0 -48 5 -62t24 -19z" />
    <glyph glyph-name="f_b.liga" unicode="fb" horiz-adv-x="756" 
d="M535 404q77 0 128 -59t51 -150q0 -96 -51.5 -153t-132.5 -57q-70 0 -118 61q-10 13 -17 24.5t-9.5 16t-3.5 4.5q-4 0 -5 -10l-8 -81q-2 -15 -11 -15t-9 10v13v530q0 33 -26.5 63t-82.5 30q-42 0 -71 -25t-29 -75v-143l120 3q16 0 16 -14t-16 -14q-6 0 -24.5 0.5
t-46.5 1.5t-49 1v-283q0 -48 15.5 -64t48.5 -8q10 -3 10 -8q0 -7 -7 -7q-3 0 -35 2t-46 2t-32.5 -1t-32.5 -2t-15 -1q-7 0 -7 6t13 9q38 6 47 19t9 63v273l-67 -2q-13 0 -13 13t13 13q2 0 11.5 -0.5t25.5 -1.5t30 -1v132q0 63 40 96.5t102 33.5q36 0 84 -25q12 4 21.5 10.5
t14 10.5t7.5 4q8 0 8 -7q-5 -36 -5 -82v-273h3q19 57 59 87t93 30zM528 -1q63 0 102.5 47.5t39.5 148.5t-39.5 148t-101.5 47q-58 0 -103 -52t-45 -139v-10q0 -86 44 -138t103 -52z" />
    <glyph glyph-name="f_f.liga" unicode="ff" horiz-adv-x="528" 
d="M436 649q36 0 64 -14.5t28 -32.5q0 -21 -18 -21q-8 0 -13.5 6t-15.5 23q-18 21 -53 21q-32 0 -53 -18.5t-21 -56.5v-65v-104q30 1 69.5 2.5t44.5 1.5q16 0 16 -14t-16 -14q-5 0 -22 0.5t-43 1.5t-49 1v-287q0 -41 10 -51t59 -17q10 -1 10 -8t-7 -7q-4 0 -37.5 2t-48.5 2
q-14 0 -32.5 -1t-32.5 -2t-15 -1q-7 0 -7 6t13 9q38 6 47 19t9 63v273q-32 0 -98.5 -0.5t-93.5 -0.5v-286q0 -39 11 -50.5t53 -18.5q10 -1 10 -7q0 -7 -7 -7q-3 0 -35 2t-46 2t-32.5 -1t-32.5 -2t-15 -1q-7 0 -7 6t13 9q38 6 47 17.5t9 50.5v286q-29 -1 -57 -1q-13 0 -13 13
t13 13q28 0 57 -1v102q0 67 39.5 103t101.5 36t99 -35q29 54 98 54zM130 389q110 -2 192 -2v138q0 21 5 43q-28 44 -91 44q-46 0 -76 -27t-30 -82v-65v-49z" />
    <glyph glyph-name="f_f_b.liga" unicode="ffb" horiz-adv-x="996" 
d="M775 404q77 0 128 -59t51 -150q0 -96 -51.5 -153t-132.5 -57q-70 0 -118 61q-10 13 -17 24.5t-9.5 16t-3.5 4.5q-4 0 -5 -10l-8 -81q-2 -15 -11 -15t-9 10v13v530q0 33 -26.5 63t-82.5 30q-42 0 -71 -25t-29 -75v-142q16 1 50 1t50 1q16 0 16 -14t-16 -14l-100 2v-282
q0 -48 15.5 -64t48.5 -8q10 -3 10 -8q0 -7 -7 -7q-3 0 -35 2t-46 2t-32.5 -1t-32.5 -2t-15 -1q-7 0 -7 6t13 9q38 6 47 19t9 63v272q-25 1 -75 1q-27 0 -76 -0.5t-68 -0.5v-286q0 -39 11 -50.5t53 -18.5q10 -1 10 -7q0 -7 -7 -7q-3 0 -35 2t-46 2t-32.5 -1t-32.5 -2t-15 -1
q-7 0 -7 6t13 9q38 6 47 17.5t9 50.5v286q-26 -1 -50 -1q-13 0 -13 13t13 13q24 0 50 -1v65q0 70 41.5 107.5t106.5 37.5q70 0 108 -40q12 44 49 67t88 23q36 0 84 -25q12 4 21.5 10.5t14 10.5t7.5 4q8 0 8 -7q-5 -36 -5 -82v-273h3q19 57 59 87t93 30zM273 387q13 1 38 1
t37 1v130q-16 31 -39.5 46.5t-66.5 15.5q-50 0 -81.5 -28.5t-31.5 -86.5v-65v-12q82 -2 144 -2zM768 -1q63 0 102.5 47.5t39.5 148.5t-39.5 148t-101.5 47q-58 0 -103 -52t-45 -139v-10q0 -86 44 -138t103 -52z" />
    <glyph glyph-name="f_f_h.liga" unicode="ffh" horiz-adv-x="989" 
d="M939 12q12 -4 12 -10t-7 -6q-1 0 -21 2t-31 2q-9 0 -28 -2t-21 -2q-7 0 -7 6t10 9q17 5 23.5 20t6.5 62v151q0 138 -104 138q-63 0 -106.5 -52.5t-43.5 -144.5h-1v-102q1 -42 7.5 -54t29.5 -18q10 -3 10 -8q0 -7 -7 -7q-3 0 -23 2t-30 2q-14 0 -37 -2l-23 -2q-7 0 -7 6
t13 9q25 6 30.5 19t5.5 63v448q0 33 -27 61.5t-83 28.5q-42 0 -71 -25t-29 -75v-142q16 1 50 1t50 1q16 0 16 -14t-16 -14l-100 2v-286q0 -39 11 -50.5t53 -18.5q10 -1 10 -7q0 -7 -7 -7q-3 0 -35 2t-46 2t-32.5 -1t-32.5 -2t-15 -1q-7 0 -7 6t13 9q38 6 47 17.5t9 50.5v286
q-25 1 -75 1q-27 0 -76 -0.5t-68 -0.5v-286q0 -39 11 -50.5t53 -18.5q10 -1 10 -7q0 -7 -7 -7q-3 0 -35 2t-46 2t-32.5 -1t-32.5 -2t-15 -1q-7 0 -7 6t13 9q38 6 47 17.5t9 50.5v286q-26 -1 -50 -1q-13 0 -13 13t13 13q24 0 50 -1v65q0 70 41.5 107.5t106.5 37.5
q70 0 108 -40q12 44 49 67t88 23q36 0 84 -25q14 4 24.5 10.5t16 10.5t8.5 4q6 0 6 -6q0 -2 -2 -17.5t-4 -48t-2 -75.5v-227q18 60 59 94.5t92 34.5q70 0 104 -38.5t34 -122.5v-150q0 -48 5 -62t24 -19zM273 387q13 1 38 1t37 1v130q-16 31 -39.5 46.5t-66.5 15.5
q-50 0 -81.5 -28.5t-31.5 -86.5v-65v-12q82 -2 144 -2z" />
    <glyph glyph-name="f_f_i.liga" unicode="ffi" horiz-adv-x="722" 
d="M670 9q10 -1 10 -8q0 -6 -7 -6q-3 0 -29 2t-39 2q-11 0 -35.5 -2t-28.5 -2q-7 0 -7 6q0 7 10 8q33 6 40 17.5t7 56.5v222q0 39 -12 50t-128 11h-76v-287q0 -39 11 -50.5t53 -18.5q10 -1 10 -7q0 -7 -7 -7q-3 0 -35 2t-46 2t-32.5 -1t-32.5 -2t-15 -1q-7 0 -7 6t13 9
q38 6 47 17.5t9 50.5v287q-34 0 -108 -0.5t-106 -1.5v-285q0 -39 11 -50.5t53 -18.5q10 -1 10 -7q0 -7 -7 -7q-3 0 -35 2t-46 2t-32.5 -1t-32.5 -2t-15 -1q-7 0 -7 6t13 9q38 6 47 17.5t9 50.5v285h-46q-13 0 -13 13t13 13h46v64q0 70 41.5 107.5t106.5 37.5q70 0 107 -39
q15 44 52.5 66.5t87.5 22.5q53 0 94 -26.5t41 -50.5q0 -13 -7.5 -21.5t-18.5 -8.5q-25 0 -32 29q-10 32 -28.5 46t-58.5 14q-45 0 -76 -29t-31 -86v-65v-63q56 -1 167 -1q14 0 33 4t33 8l13 4q8 0 8 -7q0 -3 -1.5 -10.5t-1.5 -11.5q-3 -16 -3 -80v-211q0 -45 7 -56.5
t40 -17.5zM129 389q24 0 97 -0.5t117 -0.5v116q0 15 1 22q-30 55 -102 55q-50 0 -81.5 -28.5t-31.5 -86.5v-65v-12z" />
    <glyph glyph-name="f_f_j.liga" unicode="ffj" horiz-adv-x="703" 
d="M621 403q8 0 8 -7q0 -3 -1.5 -10.5t-1.5 -11.5q-3 -16 -3 -82v-391q0 -54 -24.5 -84.5t-68.5 -30.5q-29 0 -52 16.5t-23 36.5q0 26 23 26q18 0 27 -29q10 -32 40 -32q46 0 46 65v65v371q0 39 -12 50t-134 11h-70v-287q0 -39 11 -50.5t53 -18.5q10 -1 10 -7q0 -7 -7 -7
q-3 0 -35 2t-46 2t-32.5 -1t-32.5 -2t-15 -1q-7 0 -7 6t13 9q38 6 47 17.5t9 50.5v287q-34 0 -108 -0.5t-106 -1.5v-285q0 -39 11 -50.5t53 -18.5q10 -1 10 -7q0 -7 -7 -7q-3 0 -35 2t-46 2t-32.5 -1t-32.5 -2t-15 -1q-7 0 -7 6t13 9q38 6 47 17.5t9 50.5v285h-46
q-13 0 -13 13t13 13h46v64q0 70 41.5 107.5t106.5 37.5q70 0 107 -39q15 44 52.5 66.5t87.5 22.5q53 0 94 -26.5t41 -50.5q0 -13 -7.5 -21.5t-18.5 -8.5q-25 0 -32 29q-10 32 -28.5 46t-58.5 14q-45 0 -76 -29t-31 -86v-65v-63q56 -1 167 -1q14 0 33 4t33 8zM129 389
q24 0 97 -0.5t117 -0.5v116q0 15 1 22q-30 55 -102 55q-50 0 -81.5 -28.5t-31.5 -86.5v-65v-12z" />
    <glyph glyph-name="f_f_k.liga" unicode="ffk" horiz-adv-x="937" 
d="M873 28q9 -6 21.5 -11.5t20 -9t7.5 -7.5t-8 -4q-1 0 -22.5 2t-33.5 2q-11 0 -34 -2t-26 -2q-7 0 -7 5q0 2 12 8t12 15q0 5 -6.5 18t-19.5 33t-25.5 38.5t-30.5 44.5t-29 42q-12 18 -19 18q-5 0 -23 -17l-41 -38v-80q1 -42 7.5 -54t29.5 -18q10 -3 10 -8q0 -7 -7 -7
q-3 0 -23 2t-30 2q-14 0 -37 -2l-23 -2q-7 0 -7 6t13 9q25 6 30.5 19t5.5 63v448q0 33 -27 61.5t-83 28.5q-42 0 -71 -25t-29 -75v-142q16 1 50 1t50 1q16 0 16 -14t-16 -14l-100 2v-286q0 -39 11 -50.5t53 -18.5q10 -1 10 -7q0 -7 -7 -7q-3 0 -35 2t-46 2t-32.5 -1
t-32.5 -2t-15 -1q-7 0 -7 6t13 9q38 6 47 17.5t9 50.5v286q-25 1 -75 1q-27 0 -76 -0.5t-68 -0.5v-286q0 -39 11 -50.5t53 -18.5q10 -1 10 -7q0 -7 -7 -7q-3 0 -35 2t-46 2t-32.5 -1t-32.5 -2t-15 -1q-7 0 -7 6t13 9q38 6 47 17.5t9 50.5v286q-26 -1 -50 -1q-13 0 -13 13
t13 13q24 0 50 -1v65q0 70 41.5 107.5t106.5 37.5q70 0 108 -40q12 44 49 67t88 23q36 0 84 -25q14 4 24.5 10.5t16 10.5t8.5 4q6 0 6 -6q0 -2 -2 -17.5t-4 -48t-2 -75.5v-321q18 17 39.5 37t34.5 32.5t28 26.5t24 23t18.5 18t14.5 14.5t9.5 11t6 9t1.5 6.5q0 18 -19 23
q-10 3 -10 10q0 5 7 5l22 -3q22 -4 35 -4q11 0 37 3t29 3q8 0 8 -7q0 -8 -16 -11q-32 -6 -56.5 -22t-72.5 -61l-48 -45q24 -36 52 -77t40.5 -60t27 -39t23 -30t17.5 -16zM273 387q13 1 38 1t37 1v130q-16 31 -39.5 46.5t-66.5 15.5q-50 0 -81.5 -28.5t-31.5 -86.5v-65v-12
q82 -2 144 -2z" />
    <glyph glyph-name="f_f_l.liga" unicode="ffl" horiz-adv-x="706" 
d="M658 11q10 -3 10 -8q0 -7 -7 -7q-3 0 -23 2t-30 2q-14 0 -37 -2l-23 -2q-7 0 -7 6t13 9q25 6 30.5 19t5.5 63v448q0 33 -27 61.5t-83 28.5q-42 0 -71 -25t-29 -75v-142q16 1 50 1t50 1q16 0 16 -14t-16 -14l-100 2v-286q0 -39 11 -50.5t53 -18.5q10 -1 10 -7q0 -7 -7 -7
q-3 0 -35 2t-46 2t-32.5 -1t-32.5 -2t-15 -1q-7 0 -7 6t13 9q38 6 47 17.5t9 50.5v286q-25 1 -75 1q-27 0 -76 -0.5t-68 -0.5v-286q0 -39 11 -50.5t53 -18.5q10 -1 10 -7q0 -7 -7 -7q-3 0 -35 2t-46 2t-32.5 -1t-32.5 -2t-15 -1q-7 0 -7 6t13 9q38 6 47 17.5t9 50.5v286
q-26 -1 -50 -1q-13 0 -13 13t13 13q24 0 50 -1v65q0 70 41.5 107.5t106.5 37.5q70 0 108 -40q12 44 49 67t88 23q36 0 84 -25q14 4 24.5 10.5t16 10.5t8.5 4q6 0 6 -6q0 -2 -2 -17.5t-4 -48t-2 -75.5v-419q1 -42 7.5 -54t29.5 -18zM273 387q13 1 38 1t37 1v130
q-16 31 -39 46.5t-67 15.5q-50 0 -81.5 -28.5t-31.5 -86.5v-65v-12q82 -2 144 -2z" />
    <glyph glyph-name="f_h.liga" unicode="fh" horiz-adv-x="755" 
d="M699 12q12 -4 12 -10t-7 -6q-1 0 -21 2t-31 2q-9 0 -28 -2t-21 -2q-7 0 -7 6t10 9q17 5 23.5 20t6.5 62v151q0 138 -104 138q-61 0 -104 -49.5t-46 -135.5v-114q0 -42 6.5 -54t29.5 -18q10 -3 10 -8q0 -7 -7 -7q-3 0 -23 2t-30 2q-14 0 -37 -2l-23 -2q-7 0 -7 6t13 9
q25 6 30.5 19t5.5 63v448q0 33 -27 61.5t-83 28.5q-42 0 -71 -25t-29 -75v-143l120 3q16 0 16 -14t-16 -14q-6 0 -24.5 0.5t-46.5 1.5t-49 1v-283q0 -48 15.5 -64t48.5 -8q10 -3 10 -8q0 -7 -7 -7q-3 0 -35 2t-46 2t-32.5 -1t-32.5 -2t-15 -1q-7 0 -7 6t13 9q38 6 47 19
t9 63v273l-67 -2q-13 0 -13 13t13 13q2 0 11.5 -0.5t25.5 -1.5t30 -1v132q0 63 40 96.5t102 33.5q36 0 84 -25q14 4 24.5 10.5t16 10.5t8.5 4q6 0 6 -6q0 -2 -2 -17.5t-4 -48t-2 -75.5v-226q18 60 59 94t92 34q70 0 104 -38.5t34 -122.5v-150q0 -48 5 -62t24 -19z" />
    <glyph glyph-name="f_j.liga" unicode="fj" horiz-adv-x="478" 
d="M396 403q8 0 8 -7q0 -3 -1.5 -10.5t-1.5 -11.5q-3 -16 -3 -82v-391q0 -54 -24.5 -84.5t-68.5 -30.5q-29 0 -52 16.5t-23 36.5q0 26 23 26q18 0 27 -29q10 -32 40 -32q46 0 46 65v65v371q0 39 -12 50t-134 11q-50 0 -80 -1v-286q0 -39 11 -50.5t53 -18.5q10 -1 10 -7
q0 -7 -7 -7q-3 0 -35 2t-46 2t-32.5 -1t-32.5 -2t-15 -1q-7 0 -7 6t13 9q38 6 47 17.5t9 50.5v286q-28 -1 -67 -1q-13 0 -13 13t13 13q32 0 67 -1v115q0 70 41.5 107.5t106.5 37.5q56 0 98 -26.5t42 -50.5q0 -13 -7.5 -21.5t-18.5 -8.5q-25 0 -32 29q-10 32 -30 46t-62 14
q-45 0 -75.5 -28.5t-30.5 -86.5v-65v-62q108 -2 177 -2q14 0 33 4t32 8z" />
    <glyph glyph-name="f_k.liga" unicode="fk" horiz-adv-x="698" 
d="M634 28q9 -6 21.5 -11.5t20 -9t7.5 -7.5t-8 -4q-1 0 -22.5 2t-33.5 2q-11 0 -34 -2t-26 -2q-7 0 -7 5q0 2 12 8t12 15q0 5 -6.5 18t-19.5 33t-25.5 38.5t-30.5 44.5t-29 42q-12 18 -19 18q-5 0 -23 -17l-41 -38v-80q0 -42 6.5 -54t29.5 -18q10 -3 10 -8q0 -7 -7 -7
q-3 0 -23 2t-30 2q-14 0 -37 -2l-23 -2q-7 0 -7 6t13 9q25 6 30.5 19t5.5 63v448q0 33 -27 61.5t-83 28.5q-42 0 -71 -25t-29 -75v-143l120 3q16 0 16 -14t-16 -14q-6 0 -24.5 0.5t-46.5 1.5t-49 1v-283q0 -48 15.5 -64t48.5 -8q10 -3 10 -8q0 -7 -7 -7q-3 0 -35 2t-46 2
t-32.5 -1t-32.5 -2t-15 -1q-7 0 -7 6t13 9q38 6 47 19t9 63v273l-67 -2q-13 0 -13 13t13 13q2 0 11.5 -0.5t25.5 -1.5t30 -1v132q0 63 40 96.5t102 33.5q36 0 84 -25q14 4 24.5 10.5t16 10.5t8.5 4q6 0 6 -6q0 -2 -2 -17.5t-4 -48t-2 -75.5l1 -322q19 18 39.5 37.5
t34.5 32.5t28.5 27t23.5 22.5t18.5 18t14.5 15t9.5 11t6 9t1.5 6.5q0 18 -19 23q-10 3 -10 10q0 5 7 5l22 -3q22 -4 35 -4q11 0 37 3t29 3q8 0 8 -7q0 -8 -16 -11q-32 -6 -56.5 -22t-72.5 -61l-48 -45q24 -36 52 -77t40.5 -60t27 -39t23 -30t17.5 -16z" />
    <glyph glyph-name=".notdef" horiz-adv-x="500" 
d="M410 720v-1000h-317v1000h317zM333 653h-165v-33h65v-37h-66v-33h166v33h-66v37h66v33zM267 524h-100v-104h166v34h-66v70zM233 490v-36h-33v36h33zM333 393h-166v-33h66v-37h-66v-33h100v70h66v33zM333 333h-33v-66h-133v-34h166v100zM333 211h-100v-56h34v23h33v-47
h-100v80h-33v-113h166v113zM333 38h-166v-113h166v113zM300 5v-47h-100v47h100zM333 -98h-166v-33h70l-70 -47v-33h166v33h-102l70 47h32v33z" />
    <glyph glyph-name=".null" 
 />
    <glyph glyph-name="nonmarkingreturn" horiz-adv-x="333" 
 />
    <glyph glyph-name="space" unicode=" " horiz-adv-x="195" 
 />
    <glyph glyph-name="exclam" unicode="!" horiz-adv-x="199" 
d="M90 143q-1 120 -6.5 227t-10 167t-4.5 71q0 32 30 32t30 -32q0 -11 -4.5 -71t-10 -167t-6.5 -227h-18zM99 83q21 0 33.5 -12.5t12.5 -34.5q0 -21 -12.5 -34t-33.5 -13q-20 0 -32.5 13t-12.5 34t12.5 34t32.5 13z" />
    <glyph glyph-name="quotedbl" unicode="&#x22;" horiz-adv-x="367" 
d="M89 420q-2 59 -10.5 98.5t-16.5 58.5t-8 29q0 33 40 33q18 0 29 -9t11 -24q0 -10 -8 -29t-17 -58.5t-10 -98.5h-10zM269 420q-2 59 -10.5 98.5t-16.5 58.5t-8 29q0 33 40 33q18 0 29 -9t11 -24q0 -10 -8 -29t-17 -58.5t-10 -98.5h-10z" />
    <glyph glyph-name="numbersign" unicode="#" horiz-adv-x="469" 
d="M434 390q8 0 8 -12t-8 -12h-101l-28 -150h109q8 0 8 -12t-8 -12h-113l-33 -179q-3 -13 -15 -13q-10 0 -8 13l32 179h-127l-33 -179q-3 -13 -15 -13q-10 0 -8 13l32 179h-97q-8 0 -8 12t8 12h101l27 150h-103q-8 0 -8 12t8 12h107l29 164q3 15 16 15t10 -15l-30 -164h126
l29 164q3 15 16 15t10 -15l-30 -164h97zM281 216l27 150h-126l-28 -150h127z" />
    <glyph glyph-name="dollar" unicode="$" horiz-adv-x="576" 
d="M487 157q0 -56 -40.5 -95.5t-104.5 -51.5v-81q0 -7 -11 -7t-11 7v78q-20 -2 -31 -2q-16 0 -24 1v-77q0 -7 -11 -7t-11 7v81q-30 6 -60 23t-36 17q-18 0 -22 -38q-3 -10 -8 -10q-6 0 -6 8q0 52 -2.5 96.5t-5 69t-2.5 27.5q0 6 6 6q8 0 9 -9q21 -150 127 -176v263
q-128 26 -128 126q0 56 36 89t92 42v86q0 7 11 7t11 -7v-84q5 1 16 1q23 0 39 -4v87q0 7 11 7t11 -7v-92q14 -4 30 -11.5t26.5 -11.5t17.5 -4q19 0 22 24q3 16 9 16q7 0 7 -8q0 -35 1.5 -65t3 -47.5t3.5 -30t3.5 -19t1.5 -7.5q0 -5 -5 -5q-6 0 -8 8q-32 118 -112 147v-221
q75 -16 110 -51.5t35 -94.5zM279 533h-14v-214q1 -1 3 -1l52 -10v221q-17 4 -41 4zM147 428q0 -78 96 -104v206q-47 -8 -71.5 -36t-24.5 -66zM290 19q5 0 15 0.5t15 0.5v252l-55 11v-263q8 -1 25 -1zM342 24q55 11 84 44t29 81t-26.5 76t-86.5 42v-243z" />
    <glyph glyph-name="percent" unicode="%" horiz-adv-x="841" 
d="M216 324q-56 0 -101.5 44t-45.5 114t45.5 114t101.5 44q57 0 102.5 -44t45.5 -114t-45.5 -114t-102.5 -44zM192 -4q-14 0 -18 7q-1 4 4 11l449 615q5 7 16 7t15 -7q1 -4 -4 -11l-451 -617q-3 -5 -11 -5zM216 338q43 0 74 33t31 111t-31 111t-74 33t-74 -33t-31 -111
t31 -111t74 -33zM625 -10q-56 0 -101.5 44t-45.5 114t45.5 114t101.5 44q57 0 102.5 -44t45.5 -114t-45.5 -114t-102.5 -44zM625 4q43 0 74 33t31 111t-31 111t-74 33t-74 -33t-31 -111t31 -111t74 -33z" />
    <glyph glyph-name="ampersand" unicode="&#x26;" horiz-adv-x="647" 
d="M641 18q7 0 7 -7q0 -6 -9 -11q-23 -15 -52 -15q-25 0 -51 15.5t-41 30t-42 44.5q-64 -90 -187 -90q-90 0 -150.5 45t-60.5 124q0 107 148 184q-91 102 -91 169q0 54 40 94t103 40q56 0 96.5 -32.5t40.5 -83.5q0 -112 -147 -181q8 -8 24 -26l187 -200q40 74 40 147
q0 33 -14.5 47.5t-54.5 22.5q-16 3 -16 10q0 6 8 6q1 0 32 -3.5t57 -3.5t57.5 3.5t32.5 3.5q9 0 9 -7q0 -4 -8 -7t-21.5 -7t-17.5 -6q-30 -12 -39 -53q-1 -3 -5 -28t-8 -43t-14 -46.5t-23 -51.5q57 -62 79.5 -79t45.5 -17q14 0 29 6t16 6zM260 627q-48 0 -78 -32t-30 -82
q0 -36 18.5 -70.5t64.5 -87.5q66 37 92.5 75.5t26.5 92.5q0 51 -26 77.5t-68 26.5zM266 -1q109 0 173 92l-7 7l-192 201l-26 27q-57 -35 -86 -72t-29 -96q0 -68 44.5 -113.5t122.5 -45.5z" />
    <glyph glyph-name="quotesingle" unicode="'" horiz-adv-x="160" 
d="M75 420q-2 59 -10.5 98.5t-16.5 58.5t-8 29q0 33 40 33t40 -33q0 -10 -8 -29t-16.5 -58.5t-10.5 -98.5h-10z" />
    <glyph glyph-name="parenleft" unicode="(" horiz-adv-x="330" 
d="M236 -215q-84 136 -121.5 252t-37.5 264t37.5 264t121.5 252h26q-79 -135 -114.5 -251t-35.5 -265t35.5 -265t114.5 -251h-26z" />
    <glyph glyph-name="parenright" unicode=")" horiz-adv-x="330" 
d="M94 -215h-26q79 135 114.5 251t35.5 265t-35.5 265t-114.5 251h26q84 -136 121.5 -252t37.5 -264t-37.5 -264t-121.5 -252z" />
    <glyph glyph-name="asterisk" unicode="*" horiz-adv-x="362" 
d="M181 618q18 0 18 -23q0 -5 -7.5 -39t-10.5 -71q-3 37 -10.5 71t-7.5 39q0 23 18 23zM55 526q5 18 27 10q5 -2 35 -19.5t64 -31.5q-36 9 -70.5 12t-39.5 5q-22 8 -16 24zM308 526q5 -17 -17 -24q-5 -2 -19 -3t-39 -4.5t-52 -9.5q35 14 65 32t34 19q22 7 28 -10zM102 407
q2 3 28.5 26t50.5 52q-20 -32 -33.5 -63.5t-16.5 -35.5q-13 -19 -28 -8q-15 10 -1 29zM259 378q-14 -12 -28 8q-3 4 -16.5 35.5t-33.5 63.5q25 -29 51.5 -52.5t28.5 -25.5q13 -19 -2 -29z" />
    <glyph glyph-name="plus" unicode="+" horiz-adv-x="560" 
d="M445 287q8 0 8 -12t-8 -12h-153v-153q0 -8 -12 -8t-12 8v153h-153q-8 0 -8 12t8 12h153v153q0 8 12 8t12 -8v-153h153z" />
    <glyph glyph-name="comma" unicode="," horiz-adv-x="224" 
d="M76 -139q-7 0 -7 6q0 4 7 8q63 52 63 119q0 12 -7 12q-4 0 -17 -7t-24 -7q-17 0 -29 11.5t-12 30.5t12.5 31t33.5 12q28 0 45.5 -21.5t17.5 -58.5q0 -38 -18 -71.5t-36.5 -49t-28.5 -15.5z" />
    <glyph glyph-name="hyphen" unicode="-" horiz-adv-x="332" 
d="M67 225q7 0 42 -1t52 -1q20 0 59.5 1t46.5 1q12 0 12 -15t-13 -15q-17 0 -51 0.5t-51 0.5l-97 -1q-13 0 -13 14q0 16 13 16z" />
    <glyph glyph-name="period" unicode="." horiz-adv-x="199" 
d="M99 84q21 0 33.5 -12.5t12.5 -34.5q0 -21 -12.5 -34t-33.5 -13q-20 0 -32.5 13t-12.5 34t12.5 34t32.5 13z" />
    <glyph glyph-name="slash" unicode="/" horiz-adv-x="348" 
d="M-9 -90q-7 0 -7 7q0 3 3 9l350 742q5 11 14 11q8 0 8 -6q0 -3 -3 -11l-349 -742q-5 -10 -16 -10z" />
    <glyph glyph-name="zero" unicode="0" horiz-adv-x="576" 
d="M288 572q98 0 163 -82.5t65 -210.5t-65 -210.5t-163 -82.5t-163 82.5t-65 210.5t65 210.5t163 82.5zM288 2q34 0 64.5 13.5t59 43.5t45 86.5t16.5 133.5t-16.5 133.5t-45 86.5t-59 43.5t-64.5 13.5t-64.5 -13.5t-59 -43.5t-45 -86.5t-16.5 -133.5t16.5 -133.5t45 -86.5
t59 -43.5t64.5 -13.5z" />
    <glyph glyph-name="one" unicode="1" horiz-adv-x="351" 
d="M197 572q7 0 7 -6q0 -1 -1.5 -24.5t-3 -60.5t-1.5 -72v-302q0 -54 14.5 -70.5t77.5 -27.5q16 -2 16 -10q0 -6 -7 -6l-47 3q-47 4 -76 4q-22 0 -50.5 -2t-49 -3.5t-23.5 -1.5q-7 0 -7 6q0 9 14 11q40 6 60 11.5t30.5 18t12 24.5t1.5 43v329q0 44 -19 55.5t-93 11.5
q-12 0 -12 10q0 9 10 9q42 1 72 9.5t41.5 17t20 16t13.5 7.5z" />
    <glyph glyph-name="two" unicode="2" horiz-adv-x="511" 
d="M475 134q7 0 7 -7q0 -19 -6 -57q-12 -76 -88 -76q-28 0 -126 38t-130 38q-44 0 -44 -43q0 -4 2 -11t2 -12q0 -15 -17 -15q-20 0 -20 62q0 84 47.5 134.5t146.5 91.5q80 33 111.5 67t31.5 88q0 126 -149 126q-47 0 -83 -21t-36 -47q0 -13 10 -27t10 -25q0 -17 -10.5 -26.5
t-26.5 -9.5q-18 0 -30 13t-12 36q0 45 54.5 83t124.5 38q80 0 135 -38t55 -100q0 -109 -175 -177q-91 -35 -138.5 -82.5t-47.5 -113.5v-17q4 19 21 30.5t41 11.5q37 0 136 -27.5t124 -27.5q31 0 48 20t23 71q1 12 9 12z" />
    <glyph glyph-name="three" unicode="3" horiz-adv-x="516" 
d="M267 300q94 -5 146.5 -46.5t52.5 -104.5q0 -64 -59 -114t-151 -50q-87 0 -140.5 38t-53.5 88q0 24 13 37.5t33 13.5q36 0 36 -30q0 -15 -14.5 -32t-14.5 -34q0 -25 39 -46t101 -21q69 0 118.5 39t49.5 111q0 66 -47 102t-136 36q-23 0 -43 -0.5t-31 -1.5t-14 -1
q-19 0 -19 17q0 13 19 13q4 0 28.5 -1.5t47.5 -1.5q69 0 115.5 33t46.5 95t-39 90.5t-103 28.5q-52 0 -81.5 -14.5t-29.5 -35.5q0 -9 8.5 -21t8.5 -22q0 -15 -11 -24t-27 -9q-18 0 -30.5 12t-12.5 32q0 37 51 66.5t125 29.5q82 0 133 -37t51 -96q0 -56 -46.5 -92t-119.5 -47
z" />
    <glyph glyph-name="four" unicode="4" horiz-adv-x="462" 
d="M417 146h-74v-59q0 -42 9 -55t50 -22q22 -5 22 -11t-8 -6l-35 3q-35 4 -57 4t-56 -4l-35 -3q-8 0 -8 6q0 5 17 9q43 11 52.5 24.5t9.5 54.5v59h-30h-249q-16 0 -16 10q0 4 11 19l280 367q15 20 20 25t13 5q10 0 10 -10v-153v-234h74q18 0 18 -14q0 -15 -18 -15zM274 175
h30v341q0 1 -1 1t-11 -13l-251 -329h233z" />
    <glyph glyph-name="five" unicode="5" horiz-adv-x="508" 
d="M246 -15q-79 0 -132 38.5t-53 89.5q0 23 13 36t32 13q16 0 27 -9.5t11 -26.5q0 -12 -9 -25t-9 -23q0 -34 33 -56.5t86 -22.5q87 0 128 45t41 137q0 160 -155 160q-93 0 -147 -51q-10 -9 -16 -9q-14 0 -14 13v248q0 14 6 19.5t20 5.5q5 0 37.5 -5.5t82 -11t97.5 -5.5
q18 0 37 2.5t32 5.5t24 6t17 5l6 3q1 0 1 -1q0 -9 -14.5 -24.5t-45 -29.5t-66.5 -14q-52 0 -101 13t-78 25.5t-33 12.5q-3 0 -3 -5v-243q60 54 161 54q77 0 136 -45t59 -129q0 -91 -56 -143.5t-155 -52.5z" />
    <glyph glyph-name="six" unicode="6" horiz-adv-x="522" 
d="M273 352q87 0 142.5 -49t55.5 -127q0 -91 -60 -141t-146 -50q-104 0 -157 85t-53 211q0 115 68.5 203t177.5 88q60 0 99 -26.5t39 -68.5q0 -46 -35 -46q-15 0 -25 8t-10 23q0 12 10 26t10 25q0 19 -25 32t-62 13q-99 0 -161 -83q-48 -65 -48 -207q0 -29 1 -45
q12 63 64 96t115 33zM265 -1q78 0 120.5 40.5t42.5 136.5q0 81 -41 121.5t-116 40.5q-70 0 -120.5 -41.5t-50.5 -125.5q0 -75 48 -123.5t117 -48.5z" />
    <glyph glyph-name="seven" unicode="7" horiz-adv-x="441" 
d="M416 562q13 0 13 -11q0 -5 -6 -12l-21 -24.5t-29 -38.5l-94 -139q-52 -76 -78 -140.5t-26 -99.5q0 -34 11.5 -54t11.5 -28q0 -13 -7.5 -21.5t-18.5 -8.5q-34 0 -34 49q0 71 27.5 134t102.5 176q75 117 125 184q-29 -5 -86 -5q-25 0 -86 1.5t-101 1.5q-38 0 -52 -8
l-19 -113q-3 -9 -8 -9t-5 8q0 1 2 20.5t4.5 58.5t2.5 87q0 10 6 10q7 0 8 -6q0 -1 6 -19q26 7 61 7q15 0 82.5 -2t92.5 -2q33 0 73.5 2t41.5 2z" />
    <glyph glyph-name="eight" unicode="8" horiz-adv-x="530" 
d="M317 303q76 -29 116.5 -65.5t40.5 -92.5q0 -74 -61.5 -116.5t-147.5 -42.5q-92 0 -149 44t-57 108q0 115 157 166q-61 25 -91.5 56t-30.5 79q0 60 54 96.5t127 36.5q69 0 119 -33t50 -88q0 -95 -127 -148zM128 447q0 -27 11.5 -47.5t37 -36.5t47.5 -25.5t61 -22.5
q10 -4 15 -5q122 49 122 141q0 49 -45.5 78t-107.5 29q-55 0 -98 -28.5t-43 -82.5zM264 0q79 0 124.5 35.5t45.5 98.5q0 55 -41 89t-124 62q-23 7 -36 13q-148 -51 -148 -160q0 -57 51 -97.5t128 -40.5z" />
    <glyph glyph-name="nine" unicode="9" horiz-adv-x="536" 
d="M247 224q-81 0 -137 47.5t-56 125.5q0 79 59.5 127t133.5 48q115 0 171 -80t56 -201q0 -122 -63 -214t-171 -92q-69 0 -124.5 35.5t-55.5 88.5q0 23 10.5 34.5t26.5 11.5q33 0 33 -31q0 -12 -10 -26t-10 -25q0 -31 38 -52.5t95 -21.5q95 0 148 83q38 62 38 254
q-18 -57 -70 -84.5t-112 -27.5zM254 558q-68 0 -112.5 -40t-44.5 -121q0 -159 150 -159q45 0 82.5 14.5t65.5 54.5t28 101q0 64 -48.5 107t-120.5 43z" />
    <glyph glyph-name="colon" unicode=":" horiz-adv-x="206" 
d="M95 338q21 0 33.5 -12.5t12.5 -34.5q0 -21 -12.5 -34t-33.5 -13q-20 0 -32.5 13t-12.5 34t12.5 34t32.5 13zM95 84q21 0 33.5 -12.5t12.5 -34.5q0 -21 -12.5 -34t-33.5 -13q-20 0 -32.5 13t-12.5 34t12.5 34t32.5 13z" />
    <glyph glyph-name="semicolon" unicode=";" horiz-adv-x="224" 
d="M99 338q21 0 33.5 -12.5t12.5 -34.5q0 -21 -12.5 -34t-33.5 -13q-20 0 -32.5 13t-12.5 34t12.5 34t32.5 13zM76 -139q-7 0 -7 6q0 4 7 8q63 52 63 119q0 12 -7 12q-4 0 -17 -7t-24 -7q-17 0 -29 11.5t-12 30.5t12.5 31t33.5 12q28 0 45.5 -21.5t17.5 -58.5
q0 -38 -18 -71.5t-36.5 -49t-28.5 -15.5z" />
    <glyph glyph-name="less" unicode="&#x3c;" horiz-adv-x="560" 
d="M115 162q0 7 10 13l246 153q11 6 15 6t8 -5.5t4 -10.5t-13 -12l-232 -144l232 -144q13 -7 13 -12t-4 -10.5t-8 -5.5t-15 6l-246 153q-10 6 -10 13z" />
    <glyph glyph-name="equal" unicode="=" horiz-adv-x="560" 
d="M107 344q0 12 8 12h330q8 0 8 -12t-8 -12h-330q-8 0 -8 12zM107 204q0 12 8 12h330q8 0 8 -12t-8 -12h-330q-8 0 -8 12z" />
    <glyph glyph-name="greater" unicode="&#x3e;" horiz-adv-x="560" 
d="M431 162q0 -7 -10 -13l-246 -153q-11 -6 -15 -6t-8 5.5t-4 10.5t13 12l232 144l-232 144q-13 7 -13 12t4 10.5t8 5.5t15 -6l246 -153q10 -6 10 -13z" />
    <glyph glyph-name="question" unicode="?" horiz-adv-x="484" 
d="M198 174v47q0 48 17.5 75.5t67.5 45.5q57 21 81 52.5t24 93.5q0 70 -40.5 104t-105.5 34q-54 0 -93 -20.5t-39 -46.5q0 -11 11.5 -25t11.5 -27q0 -17 -10.5 -26.5t-26.5 -9.5q-18 0 -30 13t-12 36q0 49 55 84.5t134 35.5t133.5 -40t54.5 -109q0 -118 -130 -162
q-48 -17 -64.5 -39.5t-16.5 -66.5v-49h-22zM209 83q21 0 33.5 -12.5t12.5 -34.5q0 -21 -12.5 -34t-33.5 -13q-20 0 -32.5 13t-12.5 34t12.5 34t32.5 13z" />
    <glyph glyph-name="at" unicode="@" horiz-adv-x="720" 
d="M485 367q7 0 7 -7q0 -8 -5 -33l-23 -119q-12 -60 -12 -81q0 -69 60 -69q22 0 44.5 10t45 31.5t36.5 62.5t14 96q0 104 -79 168.5t-196 64.5q-130 0 -219.5 -87.5t-89.5 -225.5q0 -120 82.5 -191.5t202.5 -71.5q104 0 179 49q16 11 19 11q7 0 7 -7q0 -6 -15 -16
q-74 -51 -190 -51q-131 0 -221 75t-90 202q0 146 97.5 236.5t237.5 90.5q129 0 215 -68t86 -180q0 -103 -53 -158t-114 -55q-82 0 -79 90q0 7 1 15t2.5 20.5t2.5 25.5h-2q-17 -67 -53.5 -106.5t-82.5 -39.5q-42 0 -69 31t-27 94q0 84 51.5 143.5t115.5 59.5q23 0 40.5 -7.5
t25.5 -16t13.5 -16t7.5 -7.5q5 0 14 18.5t13 18.5zM303 63q55 0 92.5 69t37.5 134q0 51 -14 74t-46 23q-50 0 -90.5 -59t-40.5 -143q0 -45 16.5 -71.5t44.5 -26.5z" />
    <glyph glyph-name="A" unicode="A" horiz-adv-x="637" 
d="M461 -5q-10 0 -10 6t17 10q36 12 36 44q0 17 -45 138q-3 8 -13 10q-17 3 -156 3q-108 0 -122 -3q-8 -1 -11 -10l-32 -87q-8 -24 -8 -41q0 -38 48 -55q15 -3 15 -9q0 -7 -9 -7q-1 0 -33.5 3t-52.5 3q-16 0 -39 -3t-25 -3q-10 0 -10 7q0 6 15 10q32 11 44 27.5t40 82.5
q71 175 162 432q12 34 12 37q0 13 -27 23q-11 3 -11 9q0 8 10 8q25 0 43 5t26 9.5t10 4.5q8 0 8 -7q0 -2 -3.5 -7t-3.5 -9q0 -9 7 -28l191 -504q16 -43 27 -57.5t32 -20.5q26 -7 26 -14t-9 -7q-4 0 -31 2.5t-42 2.5q-14 0 -43.5 -2.5t-32.5 -2.5zM295 221q108 0 143 5
q7 0 7 4q0 2 -2 8l-136 358q-1 2 -2 2t-1 -1l-133 -363q-1 -2 -1 -6q0 -3 4 -4q14 -3 121 -3z" />
    <glyph glyph-name="B" unicode="B" horiz-adv-x="595" 
d="M300 -6q-31 0 -86.5 3t-66.5 3q-12 0 -28.5 -1t-28.5 -2.5t-13 -1.5q-7 0 -7 6t17 12q24 8 31 28q13 34 13 235v49q0 224 -9 260q-7 24 -28 32l-6 2q-12 4 -15 6t-3 6q0 6 7 6q1 0 27.5 -3.5t41.5 -3.5t62.5 4.5t72.5 4.5q111 0 167 -35q62 -40 62 -115q0 -67 -53 -110.5
t-145 -48.5v-3h-5q100 0 163 -33q81 -42 81 -123t-68.5 -129t-182.5 -48zM247 336q115 0 167.5 37.5t52.5 115.5q0 71 -47.5 103.5t-142.5 32.5q-87 0 -102 -15q-10 -9 -10 -37v-206q0 -21 12.5 -26t69.5 -5zM296 8q210 0 210 162q0 82 -64.5 115t-183.5 33q-62 0 -77.5 -8
t-15.5 -40v-88v-33v-28.5v-23.5v-20t0.5 -15.5t1 -13l1 -9t1.5 -7.5t3 -5q16 -19 124 -19z" />
    <glyph glyph-name="C" unicode="C" horiz-adv-x="634" 
d="M582 219q8 0 8 -7q0 -2 -1 -37t-2 -87.5t-1 -96.5q0 -7 -8 -7t-9 23q-1 24 -4.5 31.5t-12.5 7.5q-11 0 -38 -15t-73.5 -30.5t-105.5 -15.5q-123 0 -204 94.5t-81 234.5t83 235t206 95q48 0 89.5 -13t67 -25.5t33.5 -12.5q6 0 9 6t5 26q3 19 11 19t8 -9q0 -54 5 -108
q4 -42 8.5 -72.5t6.5 -42.5t2 -14q0 -6 -6 -6q-9 0 -11 9l-7 27q-26 107 -80 154.5t-141 47.5q-44 0 -85 -16t-78.5 -50.5t-60 -99t-22.5 -150.5t22.5 -150t59.5 -98.5t77 -50.5t83 -16q104 0 159.5 41t70.5 125l7 44q3 10 10 10z" />
    <glyph glyph-name="D" unicode="D" horiz-adv-x="681" 
d="M284 639q151 0 249 -93t98 -229q0 -137 -98 -232.5t-249 -95.5q-33 0 -84 6t-67 6q-8 0 -30.5 -1.5t-25.5 -1.5q-7 0 -7 6q0 2 0.5 3t3 2l5 2t7.5 2.5t9 3.5q16 6 18.5 47t2.5 257q0 195 -3.5 240t-20.5 53q-4 2 -10 4q-12 4 -12 9q0 6 7 6q1 0 21.5 -1.5t34.5 -1.5
q10 0 67.5 4.5t83.5 4.5zM284 2q132 0 218 79.5t86 235.5q0 157 -85.5 232.5t-218.5 75.5q-117 0 -127 -33q-7 -20 -7 -271q0 -267 9 -289q12 -30 125 -30z" />
    <glyph glyph-name="E" unicode="E" horiz-adv-x="544" 
d="M507 156l-3 -18q-2 -18 -5 -44t-3 -48q0 -12 3.5 -26.5t3.5 -16.5q0 -6 -7 -6q-6 0 -40.5 0.5t-99.5 1.5t-144 1q-40 0 -71.5 -0.5t-46.5 -1.5t-16 -1q-8 0 -8 6q0 2 0.5 3t2.5 2t4 1.5t6 2t7 2.5q24 8 31 27q12 30 12 210v64q0 227 -10 263q-6 25 -27 33l-6 2
q-20 7 -20 14q0 6 8 6q2 0 36 -1.5t57 -1.5q87 0 158 1t109 1.5t45 0.5t7 -6q0 -2 -3.5 -16.5t-3.5 -26.5q0 -17 2.5 -37.5t5 -34t2.5 -14.5q0 -8 -6 -8q-8 0 -11 11q-19 78 -47.5 97t-122.5 19q-68 0 -93 -4t-34 -15q-8 -10 -10 -47.5t-2 -186.5l1 1q0 -18 15 -22t70 -4
q68 0 88 17t29 71q1 8 9 8q6 0 6 -7q0 -2 -1.5 -15.5t-3 -36t-1.5 -45.5q0 -26 1.5 -48t3 -34t1.5 -14q0 -7 -6 -7q-7 2 -8 9q-5 53 -27 70.5t-91 17.5q-56 0 -70.5 -4.5t-14.5 -22.5q0 -112 2 -170.5t5 -72.5t8 -21q9 -12 30.5 -16.5t81.5 -4.5q116 0 148.5 22.5
t45.5 116.5q1 12 11 12q7 0 7 -8z" />
    <glyph glyph-name="F" unicode="F" horiz-adv-x="515" 
d="M482 584q0 -19 3 -42t5.5 -38.5t2.5 -16.5q0 -8 -6 -8q-8 0 -11 12q-26 84 -59.5 104.5t-133.5 20.5q-58 0 -79 -3t-28 -13q-8 -10 -10 -50t-2 -200q0 -17 14.5 -21.5t66.5 -4.5q65 0 84 17t28 71q1 8 10 8q5 0 5 -7q0 -2 -1 -15.5t-2.5 -36t-1.5 -45.5q0 -26 1.5 -48
t2.5 -34t1 -14q0 -7 -5 -7q-8 2 -9 9q-6 53 -26.5 70.5t-86.5 17.5q-52 0 -66 -4t-15 -22q0 -205 11 -240q7 -26 31 -31q4 -1 9 -2q17 -3 17 -8q0 -6 -8 -6q-4 0 -37 1.5t-42 1.5q-15 0 -41 -2t-27 -2q-7 0 -7 6q0 5 15 9q26 8 33 26q12 29 12 198v80q0 232 -9 269
q-7 24 -28 31q-2 0 -4 1q-19 5 -19 11t7 6q1 0 19 -0.5t55.5 -1.5t84.5 -1q69 0 125 1t86 1.5t35 0.5q8 0 8 -6q0 -2 -4 -16.5t-4 -26.5z" />
    <glyph glyph-name="G" unicode="G" horiz-adv-x="649" 
d="M578 -15q-6 0 -7 13q-6 62 -19 62q-5 0 -19 -11.5t-32.5 -26t-58.5 -26t-91 -11.5q-133 0 -217 96.5t-84 235.5t86.5 235.5t214.5 96.5q49 0 87.5 -12.5t60.5 -24.5t30 -12q18 0 20 37q1 19 11 19q9 0 9 -9q0 -63 3.5 -112t7.5 -73.5t4 -28.5q0 -7 -8 -7t-10 9
q-25 113 -77.5 156.5t-137.5 43.5q-47 0 -90 -16.5t-81.5 -51.5t-61.5 -99.5t-23 -150.5q0 -162 74.5 -240.5t181.5 -78.5q87 0 143 36t56 100v33q0 34 -5 44t-25 17q-15 5 -15 10q0 6 7 6q2 0 23 -3t31 -3q15 0 38 2t25 2q7 0 7 -5q0 -4 -8 -7t-18.5 -5.5t-13.5 -6.5
q-10 -11 -10 -125v-94q0 -14 -8 -14z" />
    <glyph glyph-name="H" unicode="H" horiz-adv-x="696" 
d="M181 10q17 -4 17 -10t-7 -6q-3 0 -26 3t-31 3t-31 -3t-26 -3q-7 0 -7 6t17 10q23 7 26.5 52.5t3.5 258.5q0 201 -3.5 246.5t-26.5 52.5q-17 4 -17 10t7 6q3 0 26 -3t31 -3t31 3t26 3q7 0 7 -6t-17 -10q-23 -7 -26.5 -52.5t-3.5 -246.5q0 -213 3.5 -258.5t26.5 -52.5z
M609 10q17 -4 17 -10t-7 -6q-3 0 -26 3t-31 3t-31 -3t-26 -3q-7 0 -7 6t17 10q22 7 26 49t4 227q-1 12 -33.5 14.5t-163.5 2.5q-136 0 -166.5 -3t-30.5 -17v59q0 -15 30.5 -18t166.5 -3q128 0 161.5 3t35.5 15q0 186 -4 230t-26 51q-17 4 -17 10t7 6q3 0 26 -3t31 -3t31 3
t26 3q7 0 7 -6t-17 -10q-23 -7 -26.5 -52.5t-3.5 -246.5q0 -213 3.5 -258.5t26.5 -52.5z" />
    <glyph glyph-name="I" unicode="I" horiz-adv-x="266" 
d="M76 -6q-7 0 -7 6q0 7 17 11q23 7 26.5 53t3.5 257q0 201 -3.5 246t-26.5 52q-17 4 -17 10q0 7 7 7q1 0 20.5 -3t36.5 -3t36.5 3t20.5 3q7 0 7 -7q0 -6 -17 -10q-23 -7 -26.5 -52t-3.5 -246q0 -211 3.5 -257t26.5 -53q17 -4 17 -11q0 -6 -7 -6q-2 0 -23 3t-34 3t-34 -3
t-23 -3z" />
    <glyph glyph-name="J" unicode="J" horiz-adv-x="492" 
d="M457 637q7 0 7 -6q0 -5 -10 -9q-4 -1 -7 -2q-20 -6 -27.5 -18.5t-10.5 -43.5t-3 -109v-259q0 -101 -50.5 -153t-133.5 -52q-77 0 -124 45.5t-47 122.5q0 32 11 49.5t30 17.5q26 0 26 -25q0 -12 -19 -31t-19 -44q0 -44 38.5 -82t103.5 -38q71 0 110.5 44t39.5 133v273
q0 60 -1 87t-6 47t-12.5 25.5t-23.5 10.5q-16 6 -16 11q0 6 7 6q4 0 28.5 -3.5t41.5 -3.5q16 0 40.5 3.5t26.5 3.5z" />
    <glyph glyph-name="K" unicode="K" horiz-adv-x="608" 
d="M558 20q6 -2 12.5 -4.5t10 -3.5t6.5 -2.5t4.5 -3t1.5 -3.5q0 -6 -7 -6q-4 0 -34 1.5t-44 1.5q-20 0 -48.5 -1.5t-29.5 -1.5q-7 0 -7 5q0 6 12 9q37 11 37 21q0 6 -4.5 17.5t-15.5 30.5t-21.5 35.5t-31 47t-35 51t-42 60.5t-43.5 64q-6 7 -9 7q-5 0 -9 -4l-110 -116
q0 -135 5 -171t25 -43q17 -4 17 -11q0 -6 -7 -6q-2 0 -23 3t-34 3t-34 -3t-23 -3q-7 0 -7 6q0 7 17 11q23 7 26.5 53t3.5 257q0 201 -3.5 246t-26.5 52q-17 4 -17 10q0 7 7 7q1 0 20.5 -3t36.5 -3t36.5 3t20.5 3q7 0 7 -7q0 -6 -17 -10q-23 -7 -26.5 -52t-3.5 -246v-78
l247 263q39 42 51.5 58.5t12.5 27.5q0 16 -37 28q-9 3 -9 9q0 7 10 7q2 0 13.5 -1.5t28.5 -3t31 -1.5t30 1.5t27 3t12 1.5q9 0 9 -7q0 -5 -15 -9q-32 -8 -52 -22.5t-53 -48.5l-160 -169q188 -281 207 -306q35 -46 54 -54z" />
    <glyph glyph-name="L" unicode="L" horiz-adv-x="492" 
d="M126 630q15 0 34.5 3.5t22.5 3.5q7 0 7 -6q0 -2 -0.5 -3t-2.5 -2.5t-4 -2.5l-7 -3.5l-9 -4.5q-18 -9 -21 -53t-3 -261q0 -179 1.5 -217t9.5 -50q15 -23 123 -23q93 0 127 29.5t50 119.5q2 9 7 9q6 0 6 -8q0 -6 -7.5 -53.5t-7.5 -66.5q0 -16 5 -27.5t5 -14.5q0 -6 -7 -6
q-3 0 -29.5 1.5t-69 3.5t-85.5 2q-66 0 -111.5 -1t-63.5 -2.5t-19 -1.5q-7 0 -7 6q0 2 1.5 3t6.5 4.5t9 6.5q16 11 19 52t3 234q0 223 -2 264t-18 50q-2 2 -5.5 3.5t-5 2.5t-3.5 2.5t-3 2.5t-1.5 2.5t-0.5 2.5q0 6 7 6q1 0 18 -3.5t31 -3.5z" />
    <glyph glyph-name="M" unicode="M" horiz-adv-x="799" 
d="M724 10q4 -1 9.5 -2t8.5 -2t6.5 -2t5 -2t1.5 -3q0 -6 -7 -6q-1 0 -14 0.5t-31 1t-33 0.5q-12 0 -28.5 -0.5t-29.5 -1t-14 -0.5q-7 0 -7 6q0 1 0.5 2t1.5 2t2 1.5t3.5 1l5 1t6.5 1.5t7 2q28 8 34.5 37t6.5 124v223t-0.5 150.5t-0.5 54.5t-2 4q-1 0 -3 -3
q-10 -21 -128 -297l-126 -296q-4 -9 -9 -9q-4 0 -8 8l-256 549q-3 10 -6 10q-2 0 -2 -5q0 -72 -0.5 -212t-0.5 -213q0 -78 9.5 -95.5t53.5 -25.5q21 -4 21 -12t-8 -8q-3 0 -37.5 3t-51.5 3q-15 0 -46 -3t-33 -3q-8 0 -8 7q0 6 19 11q31 7 42.5 15t17.5 31.5t6 76.5v423
q0 31 -10.5 41t-45.5 15q-15 2 -15 10t9 8q1 0 16 -1t26 -1q3 0 17.5 1.5t16.5 1.5q16 0 23 -18l259 -565l3 -4q1 0 2 3l236 569q6 14 22 14q6 0 19 -1t19 -1q16 0 32 1l17 1q7 0 7 -6q0 -8 -27 -10q-20 -2 -27 -18t-7 -70v-360q0 -100 5 -126t26 -32z" />
    <glyph glyph-name="N" unicode="N" horiz-adv-x="677" 
d="M579 -15q-9 0 -16 12q-23 38 -180 251t-250 335q-10 13 -12 13q-4 0 -4 -8v-468q0 -56 11 -78t48 -31q15 -4 15 -10q0 -7 -9 -7q-2 0 -27 3t-45 3q-19 0 -42 -3t-27 -3q-9 0 -9 7q0 5 16 9q30 7 40.5 31t10.5 79v441q0 29 -6 39t-29 14q-39 5 -39 17q0 5 7 5q2 0 21 -3
t28 -3q8 0 21 3t19 3q19 0 40 -28l404 -542q5 -8 7 -8t2 7v461q0 46 -10 65t-37 27q-20 7 -20 12q0 6 7 6l27 -3q27 -3 41 -3q16 0 42 3l26 3q7 0 7 -5q0 -6 -17 -11q-26 -8 -37.5 -28.5t-11.5 -65.5v-521q0 -20 -12 -20z" />
    <glyph glyph-name="O" unicode="O" horiz-adv-x="700" 
d="M350 649q134 0 217 -95.5t83 -236.5q0 -139 -83.5 -235.5t-216.5 -96.5t-216.5 96.5t-83.5 235.5q0 141 83.5 236.5t216.5 95.5zM350 3q108 0 180.5 76.5t72.5 237.5q0 86 -21 149t-57.5 98t-79.5 51t-95 16q-50 0 -93 -16t-80 -51t-58.5 -98t-21.5 -149q0 -83 21.5 -146
t58.5 -98.5t80.5 -52.5t92.5 -17z" />
    <glyph glyph-name="P" unicode="P" horiz-adv-x="570" 
d="M175 209q-5 0 -5 -5v-45q0 -80 10.5 -110t39.5 -38q27 -8 27 -13t-7 -5q-2 0 -17 1.5t-36 3.5t-36 2q-13 0 -30.5 -2t-30 -3.5t-13.5 -1.5q-7 0 -7 6q0 5 13 9q3 1 5.5 1.5t5.5 1.5q22 7 29 28q11 34 11 248v38q0 225 -10 261q-6 25 -27 33q-2 0 -3 1q-18 6 -18 11
q0 6 7 6q1 0 26 -3.5t42 -3.5t61 4.5t65 4.5q123 0 188 -57.5t65 -157.5q0 -101 -67 -165t-176 -64q-25 0 -51 3.5t-42.5 7t-18.5 3.5zM182 603q-8 -10 -11 -55.5t-3 -191.5q0 -70 3.5 -94t13.5 -31q23 -16 100 -16q86 0 145.5 55t59.5 154q0 201 -216 201q-75 0 -92 -22z
" />
    <glyph glyph-name="Q" unicode="Q" horiz-adv-x="713" 
d="M703 -84q6 0 6 -7q0 -8 -10.5 -27t-29 -41.5t-51 -39t-69.5 -16.5q-45 0 -89 20t-73 44t-64.5 46.5t-64.5 25.5q-29 -36 -43 -43q-10 -5 -21 -5q-27 0 -27 24q0 16 19 27t55 11q8 0 12 -1q22 36 64 53q-120 13 -193.5 106.5t-73.5 223.5q0 141 83.5 236.5t216.5 95.5
q134 0 217 -95.5t83 -236.5q0 -133 -77 -228t-202 -103v-1q-61 0 -104 -53q32 -6 84 -32t105 -47t98 -21q51 0 88.5 20t50.5 54q4 10 10 10zM97 317q0 -83 21.5 -146t58.5 -98.5t80.5 -52.5t92.5 -17q108 0 180.5 76.5t72.5 237.5q0 86 -21 149t-57.5 98t-79.5 51t-95 16
q-50 0 -93 -16t-80 -51t-58.5 -98t-21.5 -149z" />
    <glyph glyph-name="R" unicode="R" horiz-adv-x="616" 
d="M483 -12q-36 0 -80.5 27t-80 59t-80.5 59t-81 27q-12 0 -12 -14q0 -73 3 -95t12 -31q4 -4 12.5 -7t13.5 -5.5t5 -5.5q0 -6 -8 -6q-2 0 -23 2t-34 2q-11 0 -30.5 -2t-20.5 -2q-8 0 -8 6q0 4 2 5.5t9 4.5t13 7q7 4 10.5 24t5.5 90.5t2 216.5q0 163 -3 205.5t-14 54.5
q-3 4 -10 6.5t-11.5 4.5t-4.5 5q0 7 8 7q1 0 18 -1.5t27 -1.5t62.5 7t90.5 7q117 0 190 -65.5t73 -174.5q0 -112 -81.5 -176.5t-199.5 -64.5q-37 0 -55 2v-2q36 -8 86.5 -42t100 -62t93.5 -28q39 0 62 26.5t23 71.5q0 5 4 5q5 0 8.5 -13t3.5 -29q0 -44 -30.5 -74t-70.5 -30z
M245 175q104 0 177.5 57t73.5 172q0 117 -63 171.5t-157 54.5q-93 0 -114 -25q-11 -13 -13 -49t-2 -206v-144q0 -21 14.5 -26t83.5 -5z" />
    <glyph glyph-name="S" unicode="S" horiz-adv-x="554" 
d="M82 -15q-8 0 -8 11q0 1 1.5 34t1.5 56q0 28 -2 60.5t-4 54.5t-2 25q0 8 8 8q6 0 10 -11q15 -50 27.5 -79.5t37.5 -67t64 -56t92 -18.5q83 0 126.5 41.5t43.5 110.5q0 57 -35.5 92.5t-108.5 55.5l-94 25q-152 41 -152 159q0 73 51.5 118t126.5 45q40 0 75 -14.5
t57.5 -28.5t31.5 -14q4 0 7 2t4 5.5t1.5 7t1 9.5t0.5 9q1 18 10 18q10 0 10 -9q0 -55 3 -91q0 -5 6.5 -56t6.5 -55q0 -7 -8 -7q-7 0 -10 9q-12 41 -24.5 70t-34.5 61.5t-55.5 49.5t-77.5 17q-67 0 -110 -36.5t-43 -99.5q0 -55 35.5 -86.5t113.5 -52.5l82 -22
q81 -21 120 -60.5t39 -104.5q0 -84 -53.5 -134.5t-147.5 -50.5q-46 0 -87 13t-67.5 26t-38.5 13q-9 0 -13.5 -7.5t-8.5 -33.5q-2 -11 -9 -11z" />
    <glyph glyph-name="T" unicode="T" horiz-adv-x="607" 
d="M220 -5q-7 0 -7 7q0 5 11 8q49 8 59.5 23.5t10.5 77.5v171q-1 228 -2 268.5t-9 49.5q-13 17 -89 17q-33 0 -49.5 -2.5t-31.5 -9t-21.5 -24.5t-11.5 -43.5t-9 -71.5q-1 -16 -10 -16q-7 0 -7 10l2 54q1 54 1 78q0 17 -5.5 28t-5.5 12q0 7 7 7q2 0 9 -1t23.5 -2.5t42 -2.5
t73.5 -2t109 -1t109 1t73.5 2t42 2.5t23.5 2.5t9 1q7 0 7 -7q0 -1 -5.5 -12t-5.5 -28q0 -24 1 -78l2 -54q0 -10 -7 -10q-8 0 -10 16q-4 46 -9 71.5t-11.5 43.5t-21.5 24.5t-31.5 9t-49.5 2.5q-75 0 -89 -17q-8 -9 -9 -50t-1 -268l-1 -171q0 -62 10.5 -77.5t59.5 -23.5
q11 -3 11 -8q0 -7 -7 -7l-34 2q-34 2 -56 2t-56 -2z" />
    <glyph glyph-name="U" unicode="U" horiz-adv-x="623" 
d="M315 -15q-116 0 -179 73.5t-63 221.5v249q0 43 -7 61t-31 27q-17 7 -17 13t8 6q1 0 26.5 -3t40.5 -3q17 0 42.5 3t29.5 3q7 0 7 -6q0 -7 -19 -13q-25 -8 -34 -24t-9 -52l-1 -269q-1 -132 52.5 -200t153.5 -68q95 0 150.5 65.5t55.5 202.5v229q0 60 -12.5 85.5t-42.5 33.5
q-16 4 -16 10t8 6q1 0 12.5 -1.5t26.5 -3t27 -1.5q21 0 45.5 3t26.5 3q6 0 6 -6t-16 -11q-26 -7 -36.5 -28t-10.5 -61v-258q0 -151 -61 -219t-163 -68z" />
    <glyph glyph-name="V" unicode="V" horiz-adv-x="630" 
d="M312 -27q-7 0 -9 6q-53 153 -199 548q-16 42 -34 62t-43 28q-22 6 -22 13t9 7q4 0 38.5 -3.5t50.5 -3.5q14 0 47.5 3.5t39.5 3.5q10 0 10 -7q0 -6 -31 -14q-37 -10 -37 -41q0 -19 38 -126t90 -245t62 -167q1 -1 2 -1t1 1q170 434 189 487q8 24 8 41q0 38 -43 55
q-15 5 -15 9q0 7 9 7q1 0 32.5 -3t49.5 -3q11 0 25 1.5t23.5 3t11.5 1.5q10 0 10 -7t-13 -10q-24 -6 -40.5 -24t-33.5 -60l-217 -556q-1 -6 -9 -6z" />
    <glyph glyph-name="W" unicode="W" horiz-adv-x="962" 
d="M947 636q10 0 10 -7t-10 -9q-25 -7 -38.5 -23.5t-28.5 -59.5l-189 -564q-3 -7 -8 -7q-7 0 -10 6l-184 519l-176 -519q-3 -7 -8 -7q-7 0 -9 7l-201 563q-13 34 -28.5 53t-44.5 30q-17 6 -17 12q0 7 9 7q2 0 34 -3.5t48 -3.5q14 0 49.5 3.5t36.5 3.5q10 0 10 -7
q0 -6 -23 -13q-43 -12 -43 -40q0 -35 186 -547l1 -1q1 0 2 1l165 487l-5 14q-11 27 -16.5 38.5t-18 24.5t-31.5 22q-17 8 -17 14q0 7 9 7q3 0 29 -3.5t44 -3.5t33.5 2t25 3.5t11.5 1.5q10 0 10 -7t-22 -13q-19 -6 -26 -12t-7 -17q0 -34 192 -554l1 -2q1 0 1 2
q101 299 133.5 402.5t32.5 128.5q0 21 -13.5 33.5t-46.5 20.5q-12 3 -12 10t9 7q2 0 15.5 -1.5t33 -3t35.5 -1.5q14 0 30 1.5t26 3t11 1.5z" />
    <glyph glyph-name="X" unicode="X" horiz-adv-x="688" 
d="M613 28q7 -4 22.5 -10.5t24 -10.5t8.5 -7q0 -7 -5 -7q-2 0 -31 3.5t-47 3.5q-19 0 -43.5 -2t-41 -3.5t-17.5 -1.5q-8 0 -8 6q0 5 26.5 14.5t26.5 21.5q0 11 -8 27t-48 72.5t-122 164.5q-4 8 -11 14l-95 -127q-81 -108 -81 -137q0 -30 45 -42q12 -3 12 -8q0 -6 -7 -6
q-1 0 -16.5 1.5t-37 3.5t-37.5 2q-15 0 -37.5 -2t-40 -3.5t-18.5 -1.5q-6 0 -6 6q0 7 12 8q34 7 72 36q21 16 57.5 60.5t137.5 181.5l31 41q-139 183 -177 228.5t-65 56.5q-9 4 -18.5 6.5t-14.5 3.5t-9.5 2t-6 3t-1.5 5q0 6 7 6q2 0 13.5 -1.5t29 -3.5t32.5 -2
q25 0 64.5 3.5t41.5 3.5q7 0 7 -6q0 -3 -24 -12q-28 -10 -28 -21q0 -23 169 -245l70 95q81 109 81 141q0 14 -24 26l-9 4.5t-7.5 3.5t-5 2.5t-3.5 3t-1 3.5q0 5 6 5q2 0 14 -1.5t31 -3.5t37 -2q24 0 57.5 3.5t36.5 3.5q6 0 6 -5q0 -8 -18 -12q-45 -10 -72 -35.5t-83 -100.5
q-8 -12 -13 -18l-94 -126q4 -5 11.5 -14.5t8.5 -11.5q176 -230 200 -256q20 -23 34 -30z" />
    <glyph glyph-name="Y" unicode="Y" horiz-adv-x="582" 
d="M220 -7q-8 0 -8 6t24 14q11 4 17.5 8.5t12 16t8 24t4 42t2 60t0.5 86.5q0 9 -7 23l-153 247q-33 56 -52 74.5t-44 26.5q-14 4 -14 10q0 5 8 5q2 0 23 -3t37 -3q18 0 50 3t34 3q8 0 8 -5t-16 -11q-24 -10 -24 -23t9 -34.5t48.5 -90.5t115.5 -189l102 161q35 56 48.5 83.5
t13.5 48.5q0 39 -52 45q-12 1 -12 8t9 7q2 0 35 -3t51 -3q13 0 40.5 3t29.5 3q9 0 9 -6t-9 -9q-23 -7 -37 -21t-42 -58l-170 -263q-6 -7 -6 -14q0 -191 9 -220q6 -19 26 -27q1 -1 10 -4q22 -9 22 -15t-8 -6q-1 0 -32 3.5t-41 3.5q-13 0 -46 -4z" />
    <glyph glyph-name="Z" unicode="Z" horiz-adv-x="620" 
d="M44 -7q-7 0 -7 6q0 2 1 4t2 3t3 3.5t4 4.5q12 13 25.5 29.5t37 46t44 55.5t63.5 81.5t77 99.5q172 221 187 244q13 21 13 30q0 5 -6 7.5t-29.5 4.5t-71.5 2h-98q-43 0 -65 -0.5t-45.5 -5.5t-33.5 -11.5t-22.5 -22t-19 -34t-16.5 -50.5q-6 -12 -10 -12q-7 0 -7 8
q0 1 3 17.5t6 38.5t3 38q0 27 -5 38.5t-5 12.5q0 6 7 6q1 0 95.5 -1.5t169.5 -1.5q56 0 133 1.5t80 1.5q7 0 7 -6q0 -3 -2 -4.5t-6.5 -4.5t-8.5 -8l-227 -294q-192 -246 -207 -272q-10 -15 -10 -22q0 -9 23 -9h180q54 1 87 3.5t61.5 11t43 19t28 34t20.5 49t16 70.5
q4 16 12 16q5 0 5 -8q0 -1 -5.5 -27.5t-10.5 -65.5t-5 -69q0 -11 1 -30t1 -20q0 -6 -7 -6t-71 0.5t-155.5 1t-165.5 0.5q-30 0 -73 -1.5t-44 -1.5z" />
    <glyph glyph-name="bracketleft" unicode="[" horiz-adv-x="336" 
d="M259 734h-112v-936h112v-26h-146v988h146v-26z" />
    <glyph glyph-name="backslash" unicode="\" horiz-adv-x="423" 
d="M382 -90q-11 0 -16 10l-329 702q-3 8 -3 11q0 6 8 6q9 0 14 -11l330 -702q3 -6 3 -9q0 -7 -7 -7z" />
    <glyph glyph-name="bracketright" unicode="]" horiz-adv-x="336" 
d="M223 760v-988h-146v26h112v936h-112v26h146z" />
    <glyph glyph-name="asciicircum" unicode="^" horiz-adv-x="560" 
d="M67 410q-7 0 -7 7t75 106q55 72 95 126q13 18 20.5 24.5t19.5 6.5t19 -6.5t22 -24.5q114 -150 141.5 -187.5t27.5 -44.5t-7 -7q-6 0 -34 29.5t-168 183.5h-2q-140 -154 -168 -183.5t-34 -29.5z" />
    <glyph glyph-name="underscore" unicode="_" horiz-adv-x="563" 
d="M54 -55q0 12 8 12h440q8 0 8 -12t-8 -12h-440q-8 0 -8 12z" />
    <glyph glyph-name="grave" unicode="`" horiz-adv-x="400" 
d="M293 451q-1 0 -5 2q-65 40 -165 113q-26 19 -21 36q7 26 31 20q5 -1 12.5 -7t22.5 -21t28.5 -29t44 -46.5t55.5 -58.5q3 -3 2 -6q-2 -5 -5 -3z" />
    <glyph glyph-name="a" unicode="a" horiz-adv-x="457" 
d="M433 38q7 0 7 -9q0 -20 -12.5 -32t-34.5 -12q-29 0 -42 17t-13 53v44q-22 -54 -69 -84t-96 -30q-60 0 -93.5 25.5t-33.5 69.5q0 37 21.5 63t63 41t90.5 22t117 10v17q0 157 -135 157q-43 0 -68.5 -14.5t-25.5 -34.5q0 -9 8.5 -21t8.5 -23q0 -13 -9 -21.5t-25 -8.5
q-34 0 -34 41q0 36 39 66t110 30q167 0 167 -178v-173q0 -48 25 -48q23 0 26 23q1 10 8 10zM175 -1q66 0 114.5 48.5t48.5 135.5v22q-171 -7 -220 -46q-34 -26 -34 -74q0 -86 91 -86z" />
    <glyph glyph-name="b" unicode="b" horiz-adv-x="470" 
d="M73 -15q-9 0 -9 10v187v356q0 36 -4 45.5t-23 15.5q-20 6 -20 13q0 6 10 7q20 3 34 10.5t21 13.5t10 6q8 0 8 -7q-5 -36 -5 -82v-273h3q19 57 59 87t93 30q77 0 128 -59t51 -150q0 -96 -51.5 -153t-132.5 -57q-34 0 -66 17.5t-52 43.5q-10 13 -17 24.5t-9.5 16t-3.5 4.5
q-4 0 -5 -10l-8 -81q-2 -15 -11 -15zM243 -1q63 0 102.5 47.5t39.5 148.5t-39.5 148t-101.5 47q-58 0 -103 -52t-45 -139v-10q0 -86 44 -138t103 -52z" />
    <glyph glyph-name="c" unicode="c" horiz-adv-x="434" 
d="M399 127q6 0 6 -6v-2q-11 -57 -53 -95.5t-121 -38.5q-83 0 -136 58.5t-53 150.5q0 95 58.5 152.5t132.5 57.5q45 0 82 -12.5t38 -12.5q12 0 18 17q3 8 9 8q7 0 7 -9q0 -37 2.5 -69t5.5 -49t3 -18q0 -8 -8 -8q-6 0 -9 10q-19 73 -53.5 101t-96.5 28q-24 0 -48 -9
t-48.5 -29t-40 -60.5t-15.5 -94.5q0 -89 46 -140t112 -51q119 0 154 113q3 8 8 8z" />
    <glyph glyph-name="d" unicode="d" horiz-adv-x="487" 
d="M458 22q15 -3 15 -7q0 -7 -12 -8q-28 -3 -52.5 -10t-28.5 -7q-6 0 -6 7q0 2 1 14.5t2 32t1 40.5h-1q-42 -99 -150 -99q-77 0 -131 57.5t-54 146.5q0 96 54 155.5t131 59.5q103 0 145 -80h1v150q0 56 -2.5 79.5t-7.5 31t-19 11.5q-30 11 -31 15q0 6 11 7q27 2 45.5 10
t26.5 14.5t11 6.5q6 0 6 -6q0 -1 -2 -17.5t-4 -54t-2 -90.5v-400q0 -28 13.5 -40.5t39.5 -18.5zM226 2q67 0 108.5 48.5t42.5 138.5q3 201 -151 201q-61 0 -103 -48.5t-42 -152.5q0 -94 43.5 -140.5t101.5 -46.5z" />
    <glyph glyph-name="e" unicode="e" horiz-adv-x="441" 
d="M400 117q5 0 5 -5q0 -3 -2 -9q-15 -49 -59 -83.5t-110 -34.5q-89 0 -140.5 62t-51.5 147q0 88 53.5 149t140.5 61q73 0 118 -42.5t45 -103.5q0 -16 -4.5 -21t-18.5 -5l-294 1q-2 -24 -2 -36q0 -86 42.5 -139t116.5 -53q61 0 102.5 34t52.5 72q1 6 6 6zM234 390
q-59 0 -98.5 -38t-50.5 -102l273 2q6 0 6 10q0 50 -34.5 89t-95.5 39z" />
    <glyph glyph-name="f" unicode="f" horiz-adv-x="291" 
d="M214 649q36 0 64 -14.5t28 -32.5q0 -21 -18 -21q-8 0 -13.5 6t-15.5 23q-18 21 -53 21q-29 0 -47.5 -18.5t-18.5 -56.5v-65v-104q22 1 61.5 2.5t44.5 1.5q16 0 16 -14t-16 -14q-2 0 -42 1.5t-64 1.5v-283q0 -42 11 -54t53 -18q10 -3 10 -8q0 -7 -7 -7q-3 0 -35 2t-46 2
t-32.5 -1t-32.5 -2t-15 -1q-7 0 -7 6t13 9q38 6 47 19t9 63v273l-67 -2q-13 0 -13 13t13 13q2 0 12 -0.5t26 -1.5t29 -1v137q0 58 29 91.5t77 33.5z" />
    <glyph glyph-name="g" unicode="g" horiz-adv-x="416" 
d="M248 5q148 0 148 -94q0 -58 -54 -91.5t-132 -33.5q-85 0 -135 29.5t-50 82.5q0 35 20 58t53 30q-48 14 -48 62q0 70 102 82q-48 13 -78 48.5t-30 85.5q0 63 46.5 101.5t113.5 38.5q40 0 70 -13q6 45 29 69.5t54 24.5q46 0 46 -38q0 -14 -9 -23.5t-22 -9.5q-19 0 -30 19
q-8 17 -21 17q-26 0 -34 -65q77 -39 77 -121q0 -63 -46.5 -102t-113.5 -39q-121 0 -121 -67q0 -26 16.5 -38.5t56.5 -12.5h92zM82 264q0 -62 34.5 -94.5t87.5 -32.5t87.5 32.5t34.5 94.5t-34.5 94t-87.5 32t-87.5 -32t-34.5 -94zM212 -200q74 0 113 27.5t39 77.5
q0 75 -102 75h-120q-79 -7 -79 -80q0 -47 38 -73.5t111 -26.5z" />
    <glyph glyph-name="h" unicode="h" horiz-adv-x="500" 
d="M444 12q12 -4 12 -10t-7 -6q-1 0 -21 2t-31 2q-9 0 -28 -2t-21 -2q-7 0 -7 6t10 9q18 5 25 20t7 62v151q0 138 -106 138q-63 0 -106.5 -52.5t-43.5 -144.5v-91v-21.5v-17.5v-13t1.5 -10.5t3.5 -7t6 -6t9 -3.5t12 -4q10 -3 10 -9t-7 -6q-3 0 -23 2t-30 2t-27 -2t-18 -2
q-7 0 -7 6t12 10q16 6 21 20t5 61v445q0 35 -4.5 45t-22.5 16q-13 4 -16.5 6t-3.5 7q0 6 10 7q19 3 34 10.5t22.5 13.5t10.5 6q8 0 8 -7q-6 -36 -6 -82v-284q18 60 58.5 94t91.5 34q70 0 104 -38.5t34 -122.5v-150q0 -48 5 -62t24 -19z" />
    <glyph glyph-name="i" unicode="i" horiz-adv-x="235" 
d="M106 553q-17 0 -28 11.5t-11 29.5t11 29t28 11q18 0 29 -11t11 -29q0 -19 -11 -30t-29 -11zM54 -4q-7 0 -7 6q0 7 10 8q33 6 40 17.5t7 56.5v209q0 40 -8 50.5t-46 18.5q-8 2 -8 7t8 6q29 2 48 9.5t27 13.5t11 6q6 0 6 -7l-2 -22q-4 -32 -4 -80v-211q0 -45 7 -56.5
t40 -17.5q10 -1 10 -8q0 -6 -7 -6q-3 0 -29 2t-39 2q-11 0 -35.5 -2t-28.5 -2z" />
    <glyph glyph-name="j" unicode="j" horiz-adv-x="231" 
d="M119 549q-17 0 -28 11.5t-11 29.5t11 29t28 11q18 0 29 -11t11 -29q0 -19 -11 -30t-29 -11zM54 -215q-29 0 -52 16.5t-23 36.5q0 26 23 26q18 0 27 -29q10 -32 40 -32q46 0 46 65v65v356q0 34 -10 44.5t-49 18.5q-17 4 -17 11t10 7q30 2 52 9.5t32 14t12 6.5q8 0 8 -7
l-2 -22q-4 -32 -4 -80v-391q0 -54 -24.5 -84.5t-68.5 -30.5z" />
    <glyph glyph-name="k" unicode="k" horiz-adv-x="447" 
d="M383 28q9 -6 21.5 -11.5t20 -9t7.5 -7.5t-8 -4q-1 0 -22.5 2t-33.5 2q-11 0 -34 -2t-26 -2q-7 0 -7 5q0 2 12 8t12 15q0 5 -6.5 18t-19.5 33t-25.5 38.5t-30.5 44.5t-29 42q-12 18 -19 18q-5 0 -23 -17l-41 -38v-69v-21.5v-17.5v-13t1.5 -10.5t3.5 -7t6 -6t9 -3.5t12 -4
q10 -3 10 -9t-7 -6q-3 0 -23 2t-30 2t-27 -2t-18 -2q-7 0 -7 6t12 10q16 6 21 20t5 61v445q0 35 -4.5 45t-22.5 16q-13 4 -16.5 6t-3.5 7q0 6 10 7q19 3 34 10.5t22.5 13.5t10.5 6q8 0 8 -7q-6 -36 -6 -82v-379q18 17 39.5 37t34.5 32.5t28 26.5t24 23t18.5 18t14.5 14.5
t9.5 11t6 9t1.5 6.5q0 18 -19 23q-10 3 -10 10q0 5 7 5l22 -3q22 -4 35 -4q11 0 37 3t29 3q8 0 8 -7q0 -8 -16 -11q-32 -6 -56.5 -22t-72.5 -61l-48 -45q24 -36 52 -77t40.5 -60t27 -39t23 -30t17.5 -16z" />
    <glyph glyph-name="l" unicode="l" horiz-adv-x="210" 
d="M52 -4q-7 0 -7 6t13 9q25 6 30.5 19t5.5 63v405q0 53 -6.5 73t-28.5 27q-26 7 -26 13t10 7q27 2 45.5 10t27 14.5t11.5 6.5q6 0 6 -6q0 -2 -2 -17.5t-4 -48t-2 -75.5v-419q1 -42 7.5 -54t29.5 -18q10 -3 10 -8q0 -7 -7 -7q-3 0 -23 2t-30 2q-14 0 -37 -2z" />
    <glyph glyph-name="m" unicode="m" horiz-adv-x="736" 
d="M680 12q12 -4 12 -10t-7 -6q-1 0 -21 2t-31 2q-9 0 -28 -2t-21 -2q-7 0 -7 6t10 9q17 5 23.5 20t6.5 62v171q0 118 -89 118q-52 0 -90 -42q-42 -49 -48 -128v-119q0 -48 5 -62t24 -19q12 -4 12 -10t-7 -6q-1 0 -21 2t-31 2q-9 0 -28 -2t-21 -2q-7 0 -7 6t10 9
q17 5 23.5 20t6.5 62v171q0 118 -89 118q-53 0 -90 -42q-49 -56 -49 -155v-97q0 -45 6.5 -58.5t29.5 -19.5q10 -3 10 -8q0 -6 -7 -6q-3 0 -23 2t-30 2q-11 0 -29.5 -2t-19.5 -2q-7 0 -7 6q0 5 11 8q18 6 22.5 19t4.5 59v205q0 57 -37 65q-7 2 -11 3.5t-4 5.5q0 5 12 7
q20 3 35 10.5t22.5 13.5t10.5 6q6 0 6 -7q0 -1 -2.5 -15.5t-4 -46.5t-0.5 -78q13 69 53.5 108t93.5 39q112 0 119 -121h1q17 57 55 89t86 32q120 0 120 -141v-170q0 -48 5 -62t24 -19z" />
    <glyph glyph-name="n" unicode="n" horiz-adv-x="501" 
d="M445 12q12 -4 12 -10t-7 -6q-1 0 -21 2t-31 2q-9 0 -28 -2t-21 -2q-7 0 -7 6t10 9q18 5 25 20t7 62v151q0 138 -106 138q-63 0 -106.5 -52.5t-43.5 -144.5v-97q0 -45 6.5 -58.5t29.5 -19.5q10 -3 10 -8q0 -6 -7 -6q-3 0 -23 2t-30 2q-11 0 -29.5 -2t-19.5 -2q-7 0 -7 6
q0 5 11 8q18 6 22.5 19t4.5 59v205q0 57 -37 65q-7 2 -11 3.5t-4 5.5q0 5 12 7q20 3 35 10.5t22.5 13.5t10.5 6q6 0 6 -7q0 -1 -2.5 -15.5t-4 -47t-0.5 -79.5q14 69 56.5 109t98.5 40q70 0 104 -38.5t34 -122.5v-150q0 -48 5 -62t24 -19z" />
    <glyph glyph-name="o" unicode="o" horiz-adv-x="465" 
d="M233 404q88 0 139.5 -60t51.5 -150t-51.5 -149.5t-139.5 -59.5t-139.5 59.5t-51.5 149.5t51.5 150t139.5 60zM233 -1q72 0 111.5 50.5t39.5 144.5t-39.5 145t-111.5 51t-111.5 -51t-39.5 -145t39.5 -144.5t111.5 -50.5z" />
    <glyph glyph-name="p" unicode="p" horiz-adv-x="490" 
d="M272 404q74 0 125 -55t51 -149t-52 -154.5t-124 -60.5q-108 0 -150 93v-192q0 -37 10.5 -51t35.5 -23q21 -7 21 -13t-7 -6q-2 0 -31 3.5t-45 3.5t-41 -3.5t-26 -3.5q-7 0 -7 6t18 13q26 11 33 23t7 51v320q0 83 -7 104.5t-38 37.5q-5 2 -9.5 4t-7 3t-4.5 2t-2.5 2.5
t-0.5 3.5q0 7 9 7q29 0 49 7.5t29.5 15t13.5 7.5q7 0 7 -6q0 -2 -3.5 -16t-7 -39t-3.5 -53h1q42 118 156 118zM272 0q60 0 98 48t38 152q0 96 -39.5 143t-96.5 47q-72 0 -112 -52.5t-41 -143.5q-1 -99 42.5 -146.5t110.5 -47.5z" />
    <glyph glyph-name="q" unicode="q" horiz-adv-x="480" 
d="M406 -124q0 -45 34 -64q14 -8 14 -13q0 -6 -7 -6q-2 0 -23 3.5t-33 3.5t-28.5 -2t-28.5 -3.5t-13 -1.5q-7 0 -7 6q0 5 18 15q23 11 32 25t8 37l-1 213h-3q-9 -48 -46.5 -76t-96.5 -28q-74 0 -128.5 58.5t-54.5 149.5q0 94 53.5 152.5t134.5 58.5q82 0 129 -55
q10 -10 12 -10q5 0 13 26l10 32q3 7 8 7q7 0 7 -8q0 -3 -0.5 -18.5t-1.5 -49.5t-1 -81v-371zM231 390q-63 0 -106 -45t-43 -152q0 -98 42 -146t107 -48t103 48t38 143v15q0 185 -141 185z" />
    <glyph glyph-name="r" unicode="r" horiz-adv-x="342" 
d="M262 403q30 0 46.5 -12.5t16.5 -32.5q0 -33 -28 -33q-20 0 -31.5 26.5t-32.5 26.5q-29 0 -58 -40.5t-31 -105.5v-161q0 -30 12 -41t53 -21q7 -1 7 -7q0 -7 -8 -7q-3 0 -32.5 2t-45.5 2t-43 -2t-29 -2q-7 0 -7 7q0 5 11 8q34 8 42 18.5t8 42.5v227q0 25 -11.5 37.5
t-38.5 17.5q-18 2 -18 9q0 6 12 7q28 3 46.5 10.5t26.5 13.5t11 6q6 0 6 -7q0 -1 -2.5 -18t-4 -42.5t-0.5 -50.5q11 57 45 89.5t78 32.5z" />
    <glyph glyph-name="s" unicode="s" horiz-adv-x="403" 
d="M217 -15q-36 0 -77 17l-42 16q-8 0 -11.5 -4t-7.5 -16q-3 -9 -8 -9q-7 0 -7 9q0 1 0.5 17.5t0.5 28.5q0 25 -5.5 61t-5.5 38q0 7 6 7q7 0 10 -10q44 -140 152 -140q46 0 76 24.5t30 68.5q0 68 -81 87l-71 17q-55 13 -83 35.5t-28 66.5t36 74.5t93 30.5q41 0 77.5 -17
t38.5 -17q10 0 11 23q1 9 7 9q7 0 7 -10q0 -31 2.5 -58.5t4.5 -42.5l2 -15q0 -6 -6 -6q-5 0 -9 9q-22 60 -53 85.5t-85 25.5q-43 0 -69 -23.5t-26 -56.5q0 -32 24 -52.5t74 -32.5l67 -15q100 -23 100 -111q0 -50 -41 -82t-103 -32z" />
    <glyph glyph-name="t" unicode="t" horiz-adv-x="301" 
d="M183 -15q-80 0 -80 90v262q0 20 -4.5 25t-23.5 6l-40 2q-12 0 -12 11q0 9 12 9q23 0 33 2t20 7.5t13.5 24t6 41t5.5 70.5q1 15 13 15q11 0 11 -14l-1 -138q0 -7 6 -7l104 1q15 0 15 -14t-13 -14q-7 0 -20.5 0.5t-39 1t-46.5 0.5q-7 0 -7 -8v-282q0 -35 13 -50.5t41 -15.5
q57 0 59 63q0 10 7 10q8 0 8 -11q0 -37 -21.5 -62t-58.5 -25z" />
    <glyph glyph-name="u" unicode="u" horiz-adv-x="475" 
d="M438 22q13 -3 13 -8q0 -6 -11 -7q-28 -3 -41.5 -10t-15.5 -7q-8 0 -8 7q-4 18 -6 117h-1q-15 -60 -55.5 -94.5t-101.5 -34.5q-131 0 -131 157v137q0 45 -5.5 60.5t-24.5 24.5q-3 1 -6.5 2.5t-5 2.5t-3.5 1.5t-2.5 1.5l-1 2t-0.5 3q0 6 10 6q24 0 46 8.5t23 8.5q8 0 8 -9
q0 -1 -1.5 -10t-3 -35t-1.5 -67v-132q0 -140 110 -140q62 0 101.5 49.5t39.5 128.5v1q0 65 -1 95t-5.5 50t-10 24.5t-19.5 7.5q-20 7 -21 13q0 7 10 7q27 0 45 4.5t26 8.5t10 4q6 0 6 -6l-4 -16q-4 -16 -4 -36v-261q0 -30 10.5 -41.5t32.5 -17.5z" />
    <glyph glyph-name="v" unicode="v" horiz-adv-x="452" 
d="M235 -9q-5 0 -13 18l-146 328q-8 17 -18.5 25t-30.5 13q-12 4 -12 11t10 7l23 -1q22 -2 35 -2q10 0 34 1t28 1q10 0 10 -7q0 -5 -13 -9q-15 -4 -20 -8.5t-5 -15.5q0 -15 14.5 -52t94.5 -225q16 -38 18 -38q1 0 25 57q58 140 74 184.5t16 63.5q0 23 -26 33q-17 7 -17 13
q0 7 8 7l22 -3q23 -2 37 -2q11 0 30 2t21 2q10 0 10 -6q0 -4 -3 -6t-10.5 -4.5t-12.5 -4.5q-24 -10 -40 -51l-130 -312q-9 -18 -13 -19z" />
    <glyph glyph-name="w" unicode="w" horiz-adv-x="656" 
d="M204 -16q-3 0 -7 12l-128 340q-7 19 -14 27t-20 13q-19 9 -20 12q0 7 8 7l24 -3q24 -2 38 -2q10 0 33 2t26 2q8 0 8 -7q0 -5 -11 -8q-19 -4 -25.5 -11t-6.5 -20q0 -27 95 -283l8 -21l2 4q1 3 2.5 8t2.5 7l82 254q10 31 10 42t-19 21q-12 6 -12 9q0 6 8 6q1 0 8 -1.5
t17.5 -2.5t19.5 -1q12 0 29 2l16 2q7 0 7 -5q0 -3 -12 -10q-14 -7 -14 -19q0 -7 4.5 -22t14 -42.5t20.5 -56.5t29 -77.5t33 -91.5l2 -6t2 -5t1.5 -3.5t0.5 -2.5l1 -1q1 0 8 18l69 195q14 41 14 70q0 37 -30 45q-12 4 -12 9t5 5q3 0 25.5 -2t36.5 -2t27 1t20.5 2t8.5 1
q9 0 9 -5q0 -7 -8 -9q-24 -6 -36.5 -14.5t-16.5 -16.5t-12 -31l-108 -318q-6 -16 -9 -16t-9 16q-24 63 -121 330q-3 11 -5 11t-5 -11l-107 -334q-3 -12 -7 -12z" />
    <glyph glyph-name="x" unicode="x" horiz-adv-x="471" 
d="M428 16q5 -2 13 -5q18 -7 18 -11q0 -7 -7 -7q-2 0 -15.5 1.5t-32 3.5t-32.5 2t-33 -2t-32 -3.5t-15 -1.5q-7 0 -7 6q0 7 20 12q36 9 36 25q0 11 -13 29t-60 75q-26 31 -41 50l-82 -105q-28 -36 -28 -48q0 -20 43 -27q15 -2 15 -9t-9 -7q-2 0 -32 3t-48 3t-45 -3t-28 -3
q-10 0 -10 7t9 9q47 10 82.5 42t125.5 148q-88 110 -119 141.5t-64 38.5q-12 3 -12 9q0 7 9 7q2 0 26.5 -3t42.5 -3q14 0 28.5 1.5t23.5 3t10 1.5q7 0 7 -6q0 -8 -19 -16q-13 -6 -13 -15q0 -17 88 -121l12 -15l67 82q24 29 24 43q0 12 -8 18.5t-27 12.5q-12 4 -12 10
q0 7 9 7q1 0 27.5 -3t44.5 -3q20 0 42.5 3t25.5 3q7 0 7 -6q0 -7 -11 -9q-22 -6 -37.5 -15.5t-50 -45t-93.5 -106.5q0 -1 2 -2.5t2 -2.5q137 -164 154 -179q11 -10 22 -14z" />
    <glyph glyph-name="y" unicode="y" horiz-adv-x="450" 
d="M57 -128q11 0 30.5 -20.5t31.5 -20.5q17 0 52.5 63t35.5 88q0 28 -140 352q-10 21 -18.5 29.5t-25.5 13.5q-20 6 -20 13t9 7q3 0 27.5 -3.5t33.5 -3.5q11 0 32.5 3t25.5 3q8 0 8 -7q0 -8 -17 -12q-18 -3 -18 -24q0 -17 52.5 -145t75.5 -178l2 -2l2 2q4 12 37.5 86.5
t61 143.5t27.5 89q0 13 -8 19.5t-32 11.5q-10 2 -10 9t9 7l21 -3q21 -3 35 -3q15 0 36 3t22 3q7 0 7 -7t-11 -9q-19 -4 -30 -16t-25 -44l-158 -363q-32 -78 -65 -121.5t-78 -43.5q-54 0 -54 42q0 18 10.5 28t25.5 10z" />
    <glyph glyph-name="z" unicode="z" horiz-adv-x="432" 
d="M48 -3q-8 0 -8 6q0 2 22 32l146 184q41 51 87 107q37 45 37 49q0 5 -69 5q-124 0 -147 -22q-20 -20 -41 -96q-4 -10 -11 -10q-9 0 -9 8q0 1 3.5 14.5t7.5 32.5t4 33q0 22 -2.5 35.5t-2.5 15.5q0 6 8 6q15 0 121 -1.5t149 -1.5q13 0 22 1t13 1.5t5 0.5q8 0 8 -6
q0 -2 -28 -38l-124 -150q-146 -178 -146 -186q0 -7 63 -7q140 0 175 27q26 21 45 100q1 7 9 7q7 0 7 -6q0 -2 -4 -20.5t-7.5 -44.5t-3.5 -47v-22q0 -6 -8 -6h-209h-73z" />
    <glyph glyph-name="braceleft" unicode="{" horiz-adv-x="398" 
d="M310 -187q11 0 11 -9q0 -10 -23 -10q-61 0 -100 44t-39 122v244q0 64 -80 64q-11 0 -11 9t11 9q80 0 80 64v244q0 78 39 122t100 44q23 0 23 -10q0 -9 -11 -9q-50 0 -83.5 -35t-33.5 -106v-198q0 -120 -60 -123v-4q60 -3 60 -123v-198q0 -71 33.5 -106t83.5 -35z" />
    <glyph glyph-name="bar" unicode="|" horiz-adv-x="304" 
d="M152 -137q-12 0 -12 8v835q0 8 12 8t12 -8v-835q0 -8 -12 -8z" />
    <glyph glyph-name="braceright" unicode="}" horiz-adv-x="398" 
d="M319 286q11 0 11 -9t-11 -9q-80 0 -80 -64v-244q0 -78 -39 -122t-100 -44q-23 0 -23 10q0 9 11 9q50 0 83.5 35t33.5 106v198q0 120 60 123v4q-60 3 -60 123v198q0 71 -33.5 106t-83.5 35q-11 0 -11 9q0 10 23 10q61 0 100 -44t39 -122v-244q0 -64 80 -64z" />
    <glyph glyph-name="asciitilde" unicode="~" horiz-adv-x="560" 
d="M97 145q-7 0 -7 10q3 54 25.5 90t64.5 36q36 0 108.5 -45.5t95.5 -45.5q32 0 50 24.5t18 55.5q0 10 9 10q8 0 8 -9q0 -50 -21 -85t-68 -35q-32 0 -103.5 45.5t-100.5 45.5q-58 0 -69 -87q-1 -10 -10 -10z" />
    <glyph glyph-name="exclamdown" unicode="&#xa1;" horiz-adv-x="199" 
d="M99 501q-20 0 -32.5 13t-12.5 34t12.5 34t32.5 13q21 0 33.5 -13t12.5 -34q0 -22 -12.5 -34.5t-33.5 -12.5zM90 441h18q1 -120 6.5 -227t10 -167t4.5 -71q0 -32 -30 -32t-30 32q0 11 4.5 71t10 167t6.5 227z" />
    <glyph glyph-name="cent" unicode="&#xa2;" horiz-adv-x="434" 
d="M405 119q-10 -53 -47 -90t-105 -43v-121q0 -8 -12 -8t-12 8v120q-82 1 -134.5 59.5t-52.5 149.5q0 95 58.5 152.5t132.5 57.5h1v116q0 8 12 8t12 -8v-117q34 -3 62.5 -13.5t32.5 -10.5q12 0 18 17q3 8 9 8q7 0 7 -9q0 -37 2.5 -69t5.5 -49t3 -18q0 -8 -8 -8q-6 0 -9 10
q-19 73 -53.5 101t-96.5 28q-24 0 -48 -9t-48.5 -29t-40 -60.5t-15.5 -94.5q0 -89 46 -140t112 -51q119 0 154 113q3 8 8 8q6 0 6 -6v-2z" />
    <glyph glyph-name="sterling" unicode="&#xa3;" horiz-adv-x="526" 
d="M462 95q7 0 7 -7q0 -55 -19.5 -79t-59.5 -24q-26 0 -99 16t-100 16q-35 0 -73.5 -15t-41.5 -15q-13 0 -13 13q0 4 15.5 23t31 55t15.5 83q0 34 -12 104h-60q-8 0 -8 12t8 12h57q-7 45 -7 92q0 89 52 140t131 51q69 0 113.5 -33t44.5 -76q0 -26 -13.5 -39t-33.5 -13
q-17 0 -28 10t-11 27q0 12 14.5 27.5t14.5 28.5q0 22 -28 36.5t-71 14.5q-65 0 -105.5 -37.5t-40.5 -105.5q0 -58 9 -123h202q8 0 8 -12t-8 -12h-199q9 -59 9 -89q0 -106 -87 -175l3 -2q4 2 26 17t51 26t63 11q20 0 94.5 -15t86.5 -15q26 0 38.5 13.5t15.5 48.5q1 10 8 10z
" />
    <glyph glyph-name="currency" unicode="&#xa4;" horiz-adv-x="524" 
d="M378 137l68 -69q3 -3 3 -6t-5 -8t-9 -5q-3 0 -5 2l-70 70q-40 -31 -99 -31q-57 0 -97 31l-70 -69q-3 -3 -6 -3t-8 5t-5 9q0 3 2 5l70 70q-35 38 -35 96q0 60 36 99l-71 71q-2 2 -2 5q0 4 4.5 9t9.5 5q3 0 5 -2l71 -71q41 30 96 30q59 0 98 -30l71 71q2 2 5 2q4 0 9 -4.5
t5 -9.5q0 -3 -2 -5l-70 -70q35 -40 35 -100q0 -58 -34 -97zM261 112q55 0 88 33t33 89q0 58 -32 91t-89 33q-54 0 -86.5 -34t-32.5 -90q0 -55 32.5 -88.5t86.5 -33.5z" />
    <glyph glyph-name="yen" unicode="&#xa5;" horiz-adv-x="568" 
d="M539 563q9 0 9 -5q0 -6 -13 -10q-31 -8 -44.5 -18.5t-38.5 -50.5l-143 -225h145q8 0 8 -12t-8 -12h-154v-49h154q8 0 8 -12t-8 -12h-154q1 -67 5 -94.5t10 -35t24 -15.5q19 -8 19 -13t-7 -5l-28 3q-28 3 -38 3q-11 0 -40.5 -3t-30.5 -3q-7 0 -7 5q0 6 20 13q25 8 31.5 33
t7.5 112h-162q-8 0 -8 12t8 12h162v33q0 10 -2 16h-160q-8 0 -8 12t8 12h149q-13 28 -103 169q-47 74 -68.5 96t-52.5 29q-13 3 -13 9q0 7 9 7q3 0 27.5 -3t40.5 -3t45 3t30 3q7 0 7 -5t-14 -10q-21 -7 -21 -20q0 -11 8 -30t41.5 -77.5t100.5 -166.5l86 138q54 86 54 117
q0 33 -43 40q-10 2 -10 8q0 5 8 5q2 0 31 -2.5t45 -2.5q11 0 29.5 1t33 2.5t15.5 1.5z" />
    <glyph glyph-name="brokenbar" unicode="&#xa6;" horiz-adv-x="304" 
d="M152 358q-12 0 -12 8v340q0 8 12 8t12 -8v-340q0 -8 -12 -8zM152 -137q-12 0 -12 8v340q0 8 12 8t12 -8v-340q0 -8 -12 -8z" />
    <glyph glyph-name="section" unicode="&#xa7;" horiz-adv-x="460" 
d="M314 174q53 -20 76 -42t23 -63q0 -65 -52 -100t-126 -35q-76 0 -121 35.5t-45 83.5q0 24 12 36t29 12q16 0 26 -9t10 -23q0 -11 -14 -27.5t-14 -29.5q0 -26 32.5 -45t83.5 -19q63 0 106 29.5t43 78.5q0 38 -27.5 60t-84.5 40l-72 23q-56 18 -84.5 42.5t-28.5 64.5
q0 41 28.5 67t75.5 34q-93 40 -93 122q0 61 45.5 96t112.5 35q63 0 105 -30t42 -70q0 -21 -11.5 -34t-29.5 -13q-16 0 -26 9t-10 22q0 12 14 29t14 27q0 20 -30 33t-69 13q-56 0 -91.5 -30t-35.5 -80q0 -42 25 -67t74 -41l72 -24q57 -19 85 -42t28 -65q0 -41 -26.5 -67.5
t-70.5 -35.5zM114 295q0 -35 26 -54t76 -35l63 -20q50 3 77 24.5t27 57.5q0 35 -25 53.5t-78 35.5l-54 18q-54 -2 -83 -23t-29 -57z" />
    <glyph glyph-name="dieresis" unicode="&#xa8;" horiz-adv-x="400" 
d="M138 598q17 0 27.5 -10.5t10.5 -27.5t-10.5 -27.5t-27.5 -10.5t-27.5 10.5t-10.5 27.5t10.5 27.5t27.5 10.5zM261 598q17 0 27.5 -10.5t10.5 -27.5t-10.5 -27.5t-27.5 -10.5t-27.5 10.5t-10.5 27.5t10.5 27.5t27.5 10.5z" />
    <glyph glyph-name="copyright" unicode="&#xa9;" horiz-adv-x="744" 
d="M372 -7q-136 0 -229 93.5t-93 228.5t93 228.5t229 93.5q135 0 228.5 -94t93.5 -229t-93 -228t-229 -93zM372 14q125 0 210.5 88t85.5 213t-85.5 213t-210.5 88t-210.5 -88t-85.5 -213t85.5 -213t210.5 -88zM508 302q7 0 7 -6q0 -1 -0.5 -6t-1.5 -15.5t-1.5 -25.5t-1 -41
t-0.5 -58q0 -7 -7 -7q-9 0 -9 9q-2 31 -14 31q-4 0 -19.5 -10.5t-41 -20.5t-54.5 -10q-66 0 -113.5 53t-47.5 129q0 75 47.5 127.5t112.5 52.5q35 0 69.5 -12.5t36.5 -12.5q13 0 14 16q1 9 9 9q6 0 6 -6q0 -23 3.5 -58t7 -62t3.5 -30q0 -6 -7 -6t-8 6l-6 24
q-14 59 -43.5 88.5t-81.5 29.5q-54 0 -89.5 -40t-35.5 -126q0 -87 38 -127.5t87 -40.5q102 0 125 104l8 35q1 7 8 7z" />
    <glyph glyph-name="ordfeminine" unicode="&#xaa;" horiz-adv-x="350" 
d="M102 510q30 14 119 23v2q0 50 -18 69.5t-52 19.5q-46 0 -46 -20q0 -5 2.5 -12t2.5 -13q0 -16 -20 -16t-20 21q0 22 23 38t61 16q46 0 72.5 -22.5t26.5 -80.5v-91q0 -26 15 -26q19 0 19 23q0 5 5 5t5 -5q0 -35 -36 -35q-40 0 -40 45v2q-23 -47 -85 -47q-70 0 -70 53
q0 34 36 51zM145 420q31 0 53.5 21.5t22.5 56.5v25l-6 -1q-74 -8 -96 -22q-15 -9 -15 -38q0 -42 41 -42zM288 307q8 0 8 -12t-8 -12h-227q-8 0 -8 12t8 12h227z" />
    <glyph glyph-name="guillemotleft" unicode="&#xab;" horiz-adv-x="466" 
d="M246 36q-7 0 -27 18l-135 119q-13 12 -17.5 16t-8.5 12t-4 17q0 20 30 45l135 119q20 18 27 18q8 0 8 -7q0 -8 -17 -25l-148 -150l148 -150q17 -17 17 -24q0 -8 -8 -8zM405 36q-7 0 -27 18l-135 119q-13 12 -17.5 16t-8.5 12t-4 17q0 20 30 45l135 119q20 18 27 18
q8 0 8 -7q0 -8 -17 -25l-148 -150l148 -150q17 -17 17 -24q0 -8 -8 -8z" />
    <glyph glyph-name="logicalnot" unicode="&#xac;" horiz-adv-x="560" 
d="M441 287q14 0 14 -13v-125q0 -8 -12 -8t-12 8v114h-318q-8 0 -8 12t8 12h328z" />
    <glyph glyph-name="uni00AD" unicode="&#xad;" horiz-adv-x="332" 
d="M67 225q7 0 42 -1t52 -1q20 0 59.5 1t46.5 1q12 0 12 -15t-13 -15q-17 0 -51 0.5t-51 0.5l-97 -1q-13 0 -13 14q0 16 13 16z" />
    <glyph glyph-name="registered" unicode="&#xae;" horiz-adv-x="744" 
d="M372 -7q-136 0 -229 93.5t-93 228.5t93 228.5t229 93.5q135 0 228.5 -94t93.5 -229t-93 -228t-229 -93zM372 14q125 0 210.5 88t85.5 213t-85.5 213t-210.5 88t-210.5 -88t-85.5 -213t85.5 -213t210.5 -88zM539 189q0 -25 -16 -41t-42 -16q-30 0 -91.5 40.5t-83.5 40.5
q-6 0 -6 -10q1 -41 20 -49q15 -7 15 -11q0 -5 -5 -5q-1 0 -19.5 2t-30.5 2q-11 0 -26.5 -2t-16.5 -2q-5 0 -5 5t10 10q15 6 19 25q4 22 4 142q0 109 -3.5 134t-19.5 33q-10 4 -10 8q0 6 6 6q2 0 18 -2t26 -2t35.5 2.5t42.5 2.5q70 0 112.5 -40t42.5 -103q0 -65 -45 -103.5
t-111 -38.5q-10 0 -26 1.5t-21 1.5v-1q21 -3 80 -25t89 -22q41 0 44 44q0 4 4 4q10 0 10 -31zM308 477q-10 -13 -10 -127q0 -87 1 -99q0 -24 32 -24q75 0 110.5 31.5t35.5 100.5q0 129 -116 129q-43 0 -53 -11z" />
    <glyph glyph-name="macron" unicode="&#xaf;" horiz-adv-x="400" 
d="M108 561q5 0 37.5 -1t48.5 -1q20 0 57.5 1t43.5 1q12 0 12 -9q0 -20 -15 -20q-16 0 -47.5 1t-46.5 1q-14 0 -49.5 -1t-44.5 -1q-12 0 -12 10q0 19 16 19z" />
    <glyph glyph-name="degree" unicode="&#xb0;" horiz-adv-x="301" 
d="M150 640q46 0 74 -27t28 -71q0 -43 -28.5 -70t-73.5 -27q-44 0 -72.5 26.5t-28.5 70.5t28.5 71t72.5 27zM150 619q-33 0 -53 -21t-20 -56q0 -34 20 -55t53 -21q34 0 54 20.5t20 55.5q0 36 -19.5 56.5t-54.5 20.5z" />
    <glyph glyph-name="plusminus" unicode="&#xb1;" horiz-adv-x="560" 
d="M445 317q8 0 8 -12t-8 -12h-153v-153q0 -8 -12 -8t-12 8v153h-153q-8 0 -8 12t8 12h153v153q0 8 12 8t12 -8v-153h153zM425 59q8 0 8 -12t-8 -12h-290q-8 0 -8 12t8 12h290z" />
    <glyph glyph-name="uni00B2" unicode="&#xb2;" horiz-adv-x="388" 
d="M367 469q5 0 5 -5q0 -18 -5 -43q-9 -57 -66 -57q-22 0 -95 26t-96 26q-28 0 -28 -28q0 -3 1 -8t1 -9q0 -11 -13 -11q-16 0 -16 38q0 62 34 98.5t105 64.5q59 22 81.5 45t22.5 60q0 83 -106 83q-34 0 -59 -13t-25 -30q0 -9 8 -20t8 -19q0 -26 -29 -26q-14 0 -23.5 9.5
t-9.5 26.5q0 32 40 59t94 27q59 0 100 -26.5t41 -69.5q0 -76 -131 -121q-136 -47 -136 -137v-16q1 19 14 30t35 11q27 0 98.5 -18.5t90.5 -18.5q22 0 34.5 14t17.5 49q2 9 7 9z" />
    <glyph glyph-name="uni00B3" unicode="&#xb3;" horiz-adv-x="382" 
d="M212 575q71 -3 111 -31.5t40 -72.5q0 -45 -44.5 -79t-113.5 -34q-65 0 -104 26t-39 61q0 18 10 28t26 10q28 0 28 -22q0 -11 -11.5 -23.5t-11.5 -24.5q0 -15 27.5 -28t71.5 -13q49 0 84.5 25.5t35.5 72.5q0 46 -33.5 70.5t-96.5 24.5q-16 0 -30 -0.5t-21.5 -0.5h-9.5
q-14 0 -14 12q0 10 14 10q2 0 20 -0.5t35 -0.5q49 0 81.5 22t32.5 64q0 78 -101 78q-38 0 -59 -9t-21 -22q0 -6 7 -15t7 -17q0 -12 -8.5 -18.5t-21.5 -6.5q-14 0 -23.5 9t-9.5 24q0 28 38 48.5t93 20.5q61 0 99.5 -25.5t38.5 -66.5q0 -40 -35.5 -65t-91.5 -31z" />
    <glyph glyph-name="acute" unicode="&#xb4;" horiz-adv-x="400" 
d="M107 451q-5 -1 -6 3q0 2 2 6q27 28 56.5 59t43.5 46t28.5 29.5t22 20.5t12.5 7q24 5 32 -20q4 -16 -22 -36q-100 -73 -165 -113z" />
    <glyph glyph-name="uni00B5" unicode="&#xb5;" horiz-adv-x="485" 
d="M438 22q13 -1 13 -8q0 -6 -11 -7q-28 -3 -48.5 -10t-23.5 -7q-6 0 -6 7q0 1 2 13.5t4 39t1 64.5h-2q-14 -56 -52 -88.5t-93 -32.5q-82 0 -115 70v-85q0 -46 3.5 -100.5t3.5 -60.5q0 -17 -23 -17q-21 0 -21 18q0 3 2 36.5t4.5 108.5t2.5 179v137q1 44 -4.5 60t-24.5 25
q-3 1 -6.5 2.5t-5 2.5t-3.5 1.5t-2.5 1.5l-1 2t-0.5 3q0 6 10 6q24 0 46 8.5t23 8.5q8 0 8 -9q0 -1 -1.5 -10t-3 -35t-1.5 -67v-114q-6 -150 110 -150q60 0 99 44.5t42 116.5q0 71 -1 101t-5.5 52t-10 26.5t-19.5 7.5q-20 7 -21 13q0 7 10 7q27 0 45 4.5t26 8.5t10 4
q6 0 6 -6l-4 -16q-4 -16 -4 -36v-261q0 -30 11 -42.5t32 -16.5z" />
    <glyph glyph-name="paragraph" unicode="&#xb6;" horiz-adv-x="485" 
d="M271 -89q48 17 64.5 47.5t16.5 91.5v584q14 0 33 3t22 3q8 0 8 -8q0 -3 -7.5 -12.5t-15.5 -25.5t-8 -36v-489q0 -63 -23 -100.5t-90 -57.5zM206 -93q-54 0 -86.5 26.5t-32.5 63.5q0 21 11.5 34t27.5 13q30 0 30 -26q0 -12 -11 -27.5t-11 -25.5q0 -17 20.5 -30.5
t50.5 -13.5q36 0 58.5 23.5t22.5 69.5l1 271q0 6 -5 6q-1 0 -11 -4t-27.5 -8t-37.5 -4q-68 0 -112.5 49t-44.5 133q0 85 45 133.5t123 48.5q22 0 55.5 -2.5t44.5 -2.5v-602q0 -125 -111 -125z" />
    <glyph glyph-name="periodcentered" unicode="&#xb7;" horiz-adv-x="301" 
d="M99 334q21 0 33.5 -12.5t12.5 -34.5q0 -21 -12.5 -34t-33.5 -13q-20 0 -32.5 13t-12.5 34t12.5 34t32.5 13z" />
    <glyph glyph-name="cedilla" unicode="&#xb8;" horiz-adv-x="400" 
d="M195 -178q-19 0 -34 5t-20.5 10t-5.5 7q0 6 6 6q1 0 7 -3t16.5 -6.5t22.5 -3.5q21 0 33.5 11t12.5 29q0 21 -14.5 32t-46.5 19q-6 1 -6 8q0 5 2 11l12 49h19l-11 -51q76 -15 76 -64q0 -27 -20.5 -43t-48.5 -16z" />
    <glyph glyph-name="uni00B9" unicode="&#xb9;" horiz-adv-x="271" 
d="M160 763q5 0 5 -4q0 -1 -1 -17t-2 -42t-1 -50v-200q0 -42 10 -55.5t54 -19.5q13 -2 13 -8q0 -4 -5 -4l-35 3q-36 2 -58 2q-16 0 -37.5 -1t-37 -2.5t-17.5 -1.5q-5 0 -5 4q0 7 9 8q53 8 64.5 19.5t11.5 50.5v215q0 35 -14 45.5t-68 10.5q-8 0 -8 7q0 6 7 6q39 1 64.5 9.5
t36.5 16.5t14 8z" />
    <glyph glyph-name="ordmasculine" unicode="&#xba;" horiz-adv-x="311" 
d="M151 640q45 0 77 -35t32 -84t-32 -84t-77 -35t-77 35t-32 84t32 84t77 35zM151 416q71 0 71 105t-71 105t-71 -105t71 -105zM43 295q0 12 8 12h210q8 0 8 -12t-8 -12h-210q-8 0 -8 12z" />
    <glyph glyph-name="guillemotright" unicode="&#xbb;" horiz-adv-x="466" 
d="M62 36q-8 0 -8 8q0 7 17 24l148 150l-148 150q-17 17 -17 25q0 7 8 7q7 0 27 -18l134 -119q13 -11 18 -15.5t9 -12.5t4 -17t-4.5 -17t-8 -11.5t-18.5 -16.5l-134 -119q-20 -18 -27 -18zM221 36q-8 0 -8 8q0 7 17 24l148 150l-148 150q-17 17 -17 25q0 7 8 7q7 0 27 -18
l134 -119q13 -11 18 -15.5t9 -12.5t4 -17t-4.5 -17t-8 -11.5t-18.5 -16.5l-134 -119q-20 -18 -27 -18z" />
    <glyph glyph-name="onequarter" unicode="&#xbc;" horiz-adv-x="834" 
d="M567 673q0 -3 -3 -11l-329 -702q-5 -10 -16 -10q-7 0 -7 7q0 3 3 9l330 702q5 11 14 11q8 0 8 -6zM238 247q0 -4 -5 -4l-35 3q-36 2 -58 2q-16 0 -37.5 -1t-37 -2.5t-17.5 -1.5q-5 0 -5 4q0 7 9 8q53 8 64.5 19.5t11.5 50.5v215q0 35 -14 45.5t-68 10.5q-8 0 -8 7
q0 6 7 6q39 1 64.5 9.5t36.5 16.5t14 8q5 0 5 -4q0 -1 -1 -17t-2 -42t-1 -50v-200q0 -42 10 -55.5t54 -19.5q13 -2 13 -8zM782 99h-53v-34q0 -32 6.5 -42t36.5 -16q16 -4 16 -8t-6 -4l-28 3q-27 2 -44 2t-43 -2l-26 -3q-6 0 -6 4t13 7q30 8 37 18t7 41v34h-14h-186
q-11 0 -11 7q0 5 8 13l208 255q20 20 24 21q8 0 8 -8v-105v-162h53q13 0 13 -10q0 -11 -13 -11zM678 120h14v225v1q-3 0 -9 -8l-179 -218h174z" />
    <glyph glyph-name="onehalf" unicode="&#xbd;" horiz-adv-x="876" 
d="M567 673q0 -3 -3 -11l-329 -702q-5 -10 -16 -10q-7 0 -7 7q0 3 3 9l330 702q5 11 14 11q8 0 8 -6zM238 247q0 -4 -5 -4l-35 3q-36 2 -58 2q-16 0 -37.5 -1t-37 -2.5t-17.5 -1.5q-5 0 -5 4q0 7 9 8q53 8 64.5 19.5t11.5 50.5v215q0 35 -14 45.5t-68 10.5q-8 0 -8 7
q0 6 7 6q39 1 64.5 9.5t36.5 16.5t14 8q5 0 5 -4q0 -1 -1 -17t-2 -42t-1 -50v-200q0 -42 10 -55.5t54 -19.5q13 -2 13 -8zM846 101q5 0 5 -5q0 -18 -5 -43q-9 -57 -66 -57q-22 0 -95 26t-96 26q-28 0 -28 -28q0 -3 1 -8t1 -9q0 -11 -13 -11q-16 0 -16 38q0 62 34 98.5
t105 64.5q59 22 81.5 45t22.5 60q0 83 -106 83q-34 0 -59 -13t-25 -30q0 -9 8 -20t8 -19q0 -26 -29 -26q-14 0 -23.5 9.5t-9.5 26.5q0 32 40.5 59t93.5 27q59 0 100 -26.5t41 -69.5q0 -76 -131 -121q-136 -47 -136 -137v-16q1 19 14 30t35 11q28 0 99 -18.5t90 -18.5
q22 0 34.5 14t17.5 49q1 9 7 9z" />
    <glyph glyph-name="threequarters" unicode="&#xbe;" horiz-adv-x="914" 
d="M648 673q0 -3 -3 -11l-329 -702q-5 -10 -16 -10q-7 0 -7 7q0 3 3 9l330 702q5 11 14 11q8 0 8 -6zM342 351q0 -45 -44.5 -79t-113.5 -34q-65 0 -104 26t-39 61q0 18 10 28t26 10q28 0 28 -22q0 -11 -11.5 -23.5t-11.5 -24.5q0 -15 27.5 -28t71.5 -13q49 0 84.5 25.5
t35.5 72.5q0 46 -33.5 70.5t-96.5 24.5q-16 0 -30 -0.5t-21.5 -0.5h-9.5q-14 0 -14 12q0 10 14 10q2 0 20 -0.5t35 -0.5q49 0 81.5 22t32.5 64q0 78 -101 78q-38 0 -59 -9t-21 -22q0 -6 7 -15t7 -17q0 -12 -8.5 -18.5t-21.5 -6.5q-14 0 -23.5 9t-9.5 24q0 28 38 48.5
t93 20.5q61 0 99.5 -25.5t38.5 -66.5q0 -40 -35.5 -65t-91.5 -31q71 -3 111 -31.5t40 -72.5zM863 99h-53v-34q0 -32 6.5 -42t36.5 -16q16 -4 16 -8t-6 -4l-27 3q-28 2 -45 2t-43 -2l-26 -3q-6 0 -6 4t13 7q30 8 37 18t7 41v34h-14h-186q-11 0 -11 7q0 5 8 13l208 255
q20 20 24 21q8 0 8 -8v-105v-162h53q13 0 13 -10q0 -11 -13 -11zM759 120h14v225v1q-3 0 -9 -8l-179 -218h174z" />
    <glyph glyph-name="questiondown" unicode="&#xbf;" horiz-adv-x="484" 
d="M275 501q-21 0 -33.5 12.5t-12.5 34.5q0 21 12.5 34t33.5 13q20 0 32.5 -13t12.5 -34t-12.5 -34t-32.5 -13zM287 410v-47q0 -48 -17.5 -75.5t-68.5 -45.5q-56 -20 -80 -52t-24 -94q0 -70 40 -104t105 -34q55 0 93.5 20.5t38.5 46.5q0 11 -11 25.5t-11 26.5q0 17 10 26.5
t26 9.5q18 0 30.5 -13.5t12.5 -35.5q0 -49 -55 -84.5t-135 -35.5q-79 0 -133 40t-54 109q0 118 130 162q47 17 64 39.5t17 66.5v49h22z" />
    <glyph glyph-name="Agrave" unicode="&#xc0;" horiz-adv-x="637" 
d="M417 691q-2 0 -9 2q-58 16 -186 63q-30 11 -30 29q0 13 7.5 20t17.5 7q4 0 9.5 -1.5t15.5 -6.5t19 -10t27 -15.5t33.5 -20t43.5 -26t52 -30.5q4 -4 4 -6q0 -5 -4 -5zM461 -5q-10 0 -10 6t17 10q36 12 36 44q0 17 -45 138q-3 8 -13 10q-17 3 -156 3q-108 0 -122 -3
q-8 -1 -11 -10l-32 -87q-8 -24 -8 -41q0 -38 48 -55q15 -3 15 -9q0 -7 -9 -7q-1 0 -33.5 3t-52.5 3q-16 0 -39 -3t-25 -3q-10 0 -10 7q0 6 15 10q32 11 44 27.5t40 82.5q71 175 162 432q12 34 12 37q0 13 -27 23q-11 3 -11 9q0 8 10 8q25 0 43 5t26 9.5t10 4.5q8 0 8 -7
q0 -2 -3.5 -7t-3.5 -9q0 -9 7 -28l191 -504q16 -43 27 -57.5t32 -20.5q26 -7 26 -14t-9 -7q-4 0 -31 2.5t-42 2.5q-14 0 -43.5 -2.5t-32.5 -2.5zM295 221q108 0 143 5q7 0 7 4q0 2 -2 8l-136 358q-1 2 -2 2t-1 -1l-133 -363q-1 -2 -1 -6q0 -3 4 -4q14 -3 121 -3z" />
    <glyph glyph-name="Aacute" unicode="&#xc1;" horiz-adv-x="637" 
d="M208 680q-4 0 -4 5q0 2 4 6q24 14 52 30.5t43.5 26t33.5 20t27 15.5t19 10t15.5 6.5t9.5 1.5q10 0 17.5 -7t7.5 -20q0 -18 -30 -29q-128 -47 -186 -63zM461 -5q-10 0 -10 6t17 10q36 12 36 44q0 17 -45 138q-3 8 -13 10q-17 3 -156 3q-108 0 -122 -3q-8 -1 -11 -10
l-32 -87q-8 -24 -8 -41q0 -38 48 -55q15 -3 15 -9q0 -7 -9 -7q-1 0 -33.5 3t-52.5 3q-16 0 -39 -3t-25 -3q-10 0 -10 7q0 6 15 10q32 11 44 27.5t40 82.5q71 175 162 432q12 34 12 37q0 13 -27 23q-11 3 -11 9q0 8 10 8q25 0 43 5t26 9.5t10 4.5q8 0 8 -7q0 -2 -3.5 -7
t-3.5 -9q0 -9 7 -28l191 -504q16 -43 27 -57.5t32 -20.5q26 -7 26 -14t-9 -7q-4 0 -31 2.5t-42 2.5q-14 0 -43.5 -2.5t-32.5 -2.5zM295 221q108 0 143 5q7 0 7 4q0 2 -2 8l-136 358q-1 2 -2 2t-1 -1l-133 -363q-1 -2 -1 -6q0 -3 4 -4q14 -3 121 -3z" />
    <glyph glyph-name="Acircumflex" unicode="&#xc2;" horiz-adv-x="637" 
d="M184 691q-7 0 -7 7q0 6 46 49q24 21 40 36q3 3 8 8.5t7.5 7.5t7 6t7 5.5t6.5 3t7 1.5q4 0 8 -1.5t8.5 -5t7 -6t8.5 -8t9 -8.5q83 -77 87 -83q1 -3 1 -5q0 -7 -7 -7q-3 0 -6 1.5t-11.5 7.5t-18.5 13.5t-33.5 24t-51.5 35.5h-2q-26 -18 -49 -34t-33.5 -24t-19 -14t-12.5 -8
t-7 -2zM461 -5q-10 0 -10 6t17 10q36 12 36 44q0 17 -45 138q-3 8 -13 10q-17 3 -156 3q-108 0 -122 -3q-8 -1 -11 -10l-32 -87q-8 -24 -8 -41q0 -38 48 -55q15 -3 15 -9q0 -7 -9 -7q-1 0 -33.5 3t-52.5 3q-16 0 -39 -3t-25 -3q-10 0 -10 7q0 6 15 10q32 11 44 27.5t40 82.5
q71 175 162 432q12 34 12 37q0 13 -27 23q-11 3 -11 9q0 8 10 8q25 0 43 5t26 9.5t10 4.5q8 0 8 -7q0 -2 -3.5 -7t-3.5 -9q0 -9 7 -28l191 -504q16 -43 27 -57.5t32 -20.5q26 -7 26 -14t-9 -7q-4 0 -31 2.5t-42 2.5q-14 0 -43.5 -2.5t-32.5 -2.5zM295 221q108 0 143 5
q7 0 7 4q0 2 -2 8l-136 358q-1 2 -2 2t-1 -1l-133 -363q-1 -2 -1 -6q0 -3 4 -4q14 -3 121 -3z" />
    <glyph glyph-name="Atilde" unicode="&#xc3;" horiz-adv-x="637" 
d="M199 704q-7 0 -6 9q7 80 57 80q25 0 63 -23q40 -21 56 -21q32 2 36 30q1 10 7 10q8 0 8 -11q0 -26 -15 -45.5t-41 -19.5q-19 0 -61 22q-40 21 -55 21q-16 -1 -26 -10t-14 -32q-2 -10 -9 -10zM461 -5q-10 0 -10 6t17 10q36 12 36 44q0 17 -45 138q-3 8 -13 10
q-17 3 -156 3q-108 0 -122 -3q-8 -1 -11 -10l-32 -87q-8 -24 -8 -41q0 -38 48 -55q15 -3 15 -9q0 -7 -9 -7q-1 0 -33.5 3t-52.5 3q-16 0 -39 -3t-25 -3q-10 0 -10 7q0 6 15 10q32 11 44 27.5t40 82.5q71 175 162 432q12 34 12 37q0 13 -27 23q-11 3 -11 9q0 8 10 8
q25 0 43 5t26 9.5t10 4.5q8 0 8 -7q0 -2 -3.5 -7t-3.5 -9q0 -9 7 -28l191 -504q16 -43 27 -57.5t32 -20.5q26 -7 26 -14t-9 -7q-4 0 -31 2.5t-42 2.5q-14 0 -43.5 -2.5t-32.5 -2.5zM295 221q108 0 143 5q7 0 7 4q0 2 -2 8l-136 358q-1 2 -2 2t-1 -1l-133 -363q-1 -2 -1 -6
q0 -3 4 -4q14 -3 121 -3z" />
    <glyph glyph-name="Adieresis" unicode="&#xc4;" horiz-adv-x="637" 
d="M245 682q-17 0 -27.5 10.5t-10.5 27.5t10.5 27.5t27.5 10.5t27.5 -10.5t10.5 -27.5t-10.5 -27.5t-27.5 -10.5zM368 682q-17 0 -27.5 10.5t-10.5 27.5t10.5 27.5t27.5 10.5t27.5 -10.5t10.5 -27.5t-10.5 -27.5t-27.5 -10.5zM461 -5q-10 0 -10 6t17 10q36 12 36 44
q0 17 -45 138q-3 8 -13 10q-17 3 -156 3q-108 0 -122 -3q-8 -1 -11 -10l-32 -87q-8 -24 -8 -41q0 -38 48 -55q15 -3 15 -9q0 -7 -9 -7q-1 0 -33.5 3t-52.5 3q-16 0 -39 -3t-25 -3q-10 0 -10 7q0 6 15 10q32 11 44 27.5t40 82.5q71 175 162 432q12 34 12 37q0 13 -27 23
q-11 3 -11 9q0 8 10 8q25 0 43 5t26 9.5t10 4.5q8 0 8 -7q0 -2 -3.5 -7t-3.5 -9q0 -9 7 -28l191 -504q16 -43 27 -57.5t32 -20.5q26 -7 26 -14t-9 -7q-4 0 -31 2.5t-42 2.5q-14 0 -43.5 -2.5t-32.5 -2.5zM295 221q108 0 143 5q7 0 7 4q0 2 -2 8l-136 358q-1 2 -2 2t-1 -1
l-133 -363q-1 -2 -1 -6q0 -3 4 -4q14 -3 121 -3z" />
    <glyph glyph-name="Aring" unicode="&#xc5;" horiz-adv-x="637" 
d="M306 684q-31 0 -52 19.5t-21 48.5q0 30 20.5 49t52.5 19q33 0 53 -19t20 -49t-20 -49t-53 -19zM306 697q43 0 43 55t-43 55q-20 0 -31.5 -14.5t-11.5 -40.5t11.5 -40.5t31.5 -14.5zM461 -5q-10 0 -10 6t17 10q36 12 36 44q0 17 -45 138q-3 8 -13 10q-17 3 -156 3
q-108 0 -122 -3q-8 -1 -11 -10l-32 -87q-8 -24 -8 -41q0 -38 48 -55q15 -3 15 -9q0 -7 -9 -7q-1 0 -33.5 3t-52.5 3q-16 0 -39 -3t-25 -3q-10 0 -10 7q0 6 15 10q32 11 44 27.5t40 82.5q71 175 162 432q12 34 12 37q0 13 -27 23q-11 3 -11 9q0 8 10 8q25 0 43 5t26 9.5
t10 4.5q8 0 8 -7q0 -2 -3.5 -7t-3.5 -9q0 -9 7 -28l191 -504q16 -43 27 -57.5t32 -20.5q26 -7 26 -14t-9 -7q-4 0 -31 2.5t-42 2.5q-14 0 -43.5 -2.5t-32.5 -2.5zM295 221q108 0 143 5q7 0 7 4q0 2 -2 8l-136 358q-1 2 -2 2t-1 -1l-133 -363q-1 -2 -1 -6q0 -3 4 -4
q14 -3 121 -3z" />
    <glyph glyph-name="AE" unicode="&#xc6;" horiz-adv-x="739" 
d="M692 50q0 -27 5 -38.5t5 -12.5q0 -6 -7 -6q-9 0 -75 1.5t-121 1.5q-28 0 -78 -1.5t-52 -1.5q-9 0 -9 7q0 8 18 10q57 10 57 47q0 34 -26 144q-3 9 -12 9q-56 3 -107 3q-69 0 -84 -1q-17 0 -23 -13q-56 -121 -56 -140q0 -35 60 -49q12 -2 12 -9t-9 -7q-1 0 -36.5 3
t-56.5 3q-19 0 -47 -3t-29 -3q-10 0 -10 7q0 8 10 9q38 8 56 27t56 96q181 370 203 426q6 13 6 21q0 10 -19 27q-15 13 -15 20q0 8 12 8q6 0 44 -2.5t68 -2.5q21 0 80 2t110 4.5t52 2.5q7 0 7 -6q0 -3 -4.5 -17.5t-4.5 -33.5q0 -40 9 -76q0 -8 -7 -8t-10 12q-1 2 -2 7
q-19 63 -34 77q-21 21 -94 23h-31q-47 0 -70 -0.5t-37.5 -4t-17.5 -8t-3 -13.5q0 -50 39 -232q3 -18 30 -18q76 0 95 17t25 82q1 8 9 8q5 0 5 -7q0 -2 -0.5 -18t-1 -38t0.5 -53q1 -30 3 -55t4 -37.5t2 -15.5q0 -7 -6 -7q-8 0 -9 8q-10 63 -30.5 81t-96.5 18q-13 0 -17 -4.5
t-2 -17.5q31 -158 54 -251q5 -24 20 -32.5t60 -8.5q69 0 92 24t33 109q2 16 11 16q7 0 7 -8q0 -1 -2.5 -18t-5 -40.5t-2.5 -42.5zM389 238q11 1 11 11q0 5 -1 12q-16 106 -49 269q-1 7 -4 7q-4 0 -7 -7q-6 -14 -63 -138t-66 -144q-3 -6 -3 -7q0 -3 11 -4q28 -2 82 -2
q74 0 89 3z" />
    <glyph glyph-name="Ccedilla" unicode="&#xc7;" horiz-adv-x="634" 
d="M582 219q8 0 8 -7q0 -2 -1 -37t-2 -87.5t-1 -96.5q0 -7 -8 -7t-9 23q-1 24 -4.5 31.5t-12.5 7.5q-11 0 -35.5 -13.5t-66.5 -28.5t-93 -18l-9 -41q76 -15 76 -64q0 -27 -20.5 -43t-48.5 -16q-19 0 -34 5t-20.5 10t-5.5 7q0 6 6 6q1 0 7 -3t16.5 -6.5t22.5 -3.5
q21 0 33.5 11t12.5 29q0 21 -14.5 32t-46.5 19q-6 1 -6 8q0 5 2 11l9 38h-2q-123 0 -204 94.5t-81 234.5t83 235t206 95q48 0 89.5 -13t67 -25.5t33.5 -12.5q6 0 9 6t5 26q3 19 11 19t8 -9q0 -54 5 -108q4 -42 8.5 -72.5t6.5 -42.5t2 -14q0 -6 -6 -6q-9 0 -11 9l-7 27
q-26 107 -80 154.5t-141 47.5q-44 0 -85 -16t-78.5 -50.5t-60 -99t-22.5 -150.5t22.5 -150t59.5 -98.5t77 -50.5t83 -16q104 0 159.5 41t70.5 125l7 44q3 10 10 10z" />
    <glyph glyph-name="Egrave" unicode="&#xc8;" horiz-adv-x="544" 
d="M209 756q-30 11 -30 29q0 13 7.5 20t17.5 7q4 0 9.5 -1.5t15.5 -6.5t19 -10t27 -15.5t33.5 -20t43.5 -26t52 -30.5q4 -4 4 -6q0 -5 -4 -5q-2 0 -9 2q-58 16 -186 63zM507 156l-3 -18q-2 -18 -5 -44t-3 -48q0 -12 3.5 -26.5t3.5 -16.5q0 -6 -7 -6q-6 0 -40.5 0.5
t-99.5 1.5t-144 1q-40 0 -71.5 -0.5t-46.5 -1.5t-16 -1q-8 0 -8 6q0 2 0.5 3t2.5 2t4 1.5t6 2t7 2.5q24 8 31 27q12 30 12 210v64q0 227 -10 263q-6 25 -27 33l-6 2q-20 7 -20 14q0 6 8 6q2 0 36 -1.5t57 -1.5q87 0 158 1t109 1.5t45 0.5t7 -6q0 -2 -3.5 -16.5t-3.5 -26.5
q0 -17 2.5 -37.5t5 -34t2.5 -14.5q0 -8 -6 -8q-8 0 -11 11q-19 78 -47.5 97t-122.5 19q-68 0 -93 -4t-34 -15q-8 -10 -10 -47.5t-2 -186.5l1 1q0 -18 15 -22t70 -4q68 0 88 17t29 71q1 8 9 8q6 0 6 -7q0 -2 -1.5 -15.5t-3 -36t-1.5 -45.5q0 -26 1.5 -48t3 -34t1.5 -14
q0 -7 -6 -7q-7 2 -8 9q-5 53 -27 70.5t-91 17.5q-56 0 -70.5 -4.5t-14.5 -22.5q0 -112 2 -170.5t5 -72.5t8 -21q9 -12 30.5 -16.5t81.5 -4.5q116 0 148.5 22.5t45.5 116.5q1 12 11 12q7 0 7 -8z" />
    <glyph glyph-name="Eacute" unicode="&#xc9;" horiz-adv-x="544" 
d="M195 680q-4 0 -4 5q0 2 4 6q24 14 52 30.5t43.5 26t33.5 20t27 15.5t19 10t15.5 6.5t9.5 1.5q10 0 17.5 -7t7.5 -20q0 -18 -30 -29q-128 -47 -186 -63zM507 156l-3 -18q-2 -18 -5 -44t-3 -48q0 -12 3.5 -26.5t3.5 -16.5q0 -6 -7 -6q-6 0 -40.5 0.5t-99.5 1.5t-144 1
q-40 0 -71.5 -0.5t-46.5 -1.5t-16 -1q-8 0 -8 6q0 2 0.5 3t2.5 2t4 1.5t6 2t7 2.5q24 8 31 27q12 30 12 210v64q0 227 -10 263q-6 25 -27 33l-6 2q-20 7 -20 14q0 6 8 6q2 0 36 -1.5t57 -1.5q87 0 158 1t109 1.5t45 0.5t7 -6q0 -2 -3.5 -16.5t-3.5 -26.5q0 -17 2.5 -37.5
t5 -34t2.5 -14.5q0 -8 -6 -8q-8 0 -11 11q-19 78 -47.5 97t-122.5 19q-68 0 -93 -4t-34 -15q-8 -10 -10 -47.5t-2 -186.5l1 1q0 -18 15 -22t70 -4q68 0 88 17t29 71q1 8 9 8q6 0 6 -7q0 -2 -1.5 -15.5t-3 -36t-1.5 -45.5q0 -26 1.5 -48t3 -34t1.5 -14q0 -7 -6 -7q-7 2 -8 9
q-5 53 -27 70.5t-91 17.5q-56 0 -70.5 -4.5t-14.5 -22.5q0 -112 2 -170.5t5 -72.5t8 -21q9 -12 30.5 -16.5t81.5 -4.5q116 0 148.5 22.5t45.5 116.5q1 12 11 12q7 0 7 -8z" />
    <glyph glyph-name="Ecircumflex" unicode="&#xca;" horiz-adv-x="544" 
d="M172 691q-7 0 -7 7q0 6 46 49q8 6 12.5 10t12.5 11.5t15 14.5q3 3 8 8.5t7.5 7.5t7 6t7 5.5t6.5 3t7 1.5q4 0 8 -1.5t8.5 -5t7 -6t8.5 -8t9 -8.5q83 -77 87 -83q1 -3 1 -5q0 -7 -7 -7q-3 0 -6 1.5t-11.5 7.5t-18.5 13.5t-33.5 24t-51.5 35.5h-2q-26 -18 -49 -34
t-33.5 -24t-19 -14t-12.5 -8t-7 -2zM507 156l-3 -18q-2 -18 -5 -44t-3 -48q0 -12 3.5 -26.5t3.5 -16.5q0 -6 -7 -6q-6 0 -40.5 0.5t-99.5 1.5t-144 1q-40 0 -71.5 -0.5t-46.5 -1.5t-16 -1q-8 0 -8 6q0 2 0.5 3t2.5 2t4 1.5t6 2t7 2.5q24 8 31 27q12 30 12 210v64
q0 227 -10 263q-6 25 -27 33l-6 2q-20 7 -20 14q0 6 8 6q2 0 36 -1.5t57 -1.5q87 0 158 1t109 1.5t45 0.5t7 -6q0 -2 -3.5 -16.5t-3.5 -26.5q0 -17 2.5 -37.5t5 -34t2.5 -14.5q0 -8 -6 -8q-8 0 -11 11q-19 78 -47.5 97t-122.5 19q-68 0 -93 -4t-34 -15q-8 -10 -10 -47.5
t-2 -186.5l1 1q0 -18 15 -22t70 -4q68 0 88 17t29 71q1 8 9 8q6 0 6 -7q0 -2 -1.5 -15.5t-3 -36t-1.5 -45.5q0 -26 1.5 -48t3 -34t1.5 -14q0 -7 -6 -7q-7 2 -8 9q-5 53 -27 70.5t-91 17.5q-56 0 -70.5 -4.5t-14.5 -22.5q0 -112 2 -170.5t5 -72.5t8 -21q9 -12 30.5 -16.5
t81.5 -4.5q116 0 148.5 22.5t45.5 116.5q1 12 11 12q7 0 7 -8z" />
    <glyph glyph-name="Edieresis" unicode="&#xcb;" horiz-adv-x="544" 
d="M232 682q-17 0 -27.5 10.5t-10.5 27.5t10.5 27.5t27.5 10.5t27.5 -10.5t10.5 -27.5t-10.5 -27.5t-27.5 -10.5zM355 682q-17 0 -27.5 10.5t-10.5 27.5t10.5 27.5t27.5 10.5t27.5 -10.5t10.5 -27.5t-10.5 -27.5t-27.5 -10.5zM507 156l-3 -18q-2 -18 -5 -44t-3 -48
q0 -12 3.5 -26.5t3.5 -16.5q0 -6 -7 -6q-6 0 -40.5 0.5t-99.5 1.5t-144 1q-40 0 -71.5 -0.5t-46.5 -1.5t-16 -1q-8 0 -8 6q0 2 0.5 3t2.5 2t4 1.5t6 2t7 2.5q24 8 31 27q12 30 12 210v64q0 227 -10 263q-6 25 -27 33l-6 2q-20 7 -20 14q0 6 8 6q2 0 36 -1.5t57 -1.5
q87 0 158 1t109 1.5t45 0.5t7 -6q0 -2 -3.5 -16.5t-3.5 -26.5q0 -17 2.5 -37.5t5 -34t2.5 -14.5q0 -8 -6 -8q-8 0 -11 11q-19 78 -47.5 97t-122.5 19q-68 0 -93 -4t-34 -15q-8 -10 -10 -47.5t-2 -186.5l1 1q0 -18 15 -22t70 -4q68 0 88 17t29 71q1 8 9 8q6 0 6 -7
q0 -2 -1.5 -15.5t-3 -36t-1.5 -45.5q0 -26 1.5 -48t3 -34t1.5 -14q0 -7 -6 -7q-7 2 -8 9q-5 53 -27 70.5t-91 17.5q-56 0 -70.5 -4.5t-14.5 -22.5q0 -112 2 -170.5t5 -72.5t8 -21q9 -12 30.5 -16.5t81.5 -4.5q116 0 148.5 22.5t45.5 116.5q1 12 11 12q7 0 7 -8z" />
    <glyph glyph-name="Igrave" unicode="&#xcc;" horiz-adv-x="266" 
d="M244 691q-2 0 -9 2q-58 16 -186 63q-30 11 -30 29q0 13 7.5 20t17.5 7q4 0 9.5 -1.5t15.5 -6.5t19 -10t27 -15.5t33.5 -20t43.5 -26t52 -30.5q4 -4 4 -6q0 -5 -4 -5zM76 -6q-7 0 -7 6q0 7 17 11q23 7 26.5 53t3.5 257q0 201 -3.5 246t-26.5 52q-17 4 -17 10q0 7 7 7
q1 0 20.5 -3t36.5 -3t36.5 3t20.5 3q7 0 7 -7q0 -6 -17 -10q-23 -7 -26.5 -52t-3.5 -246q0 -211 3.5 -257t26.5 -53q17 -4 17 -11q0 -6 -7 -6q-2 0 -23 3t-34 3t-34 -3t-23 -3z" />
    <glyph glyph-name="Iacute" unicode="&#xcd;" horiz-adv-x="266" 
d="M35 680q-4 0 -4 5q0 2 4 6q24 14 52 30.5t43.5 26t33.5 20t27 15.5t19 10t15.5 6.5t9.5 1.5q10 0 17.5 -7t7.5 -20q0 -18 -30 -29q-128 -47 -186 -63zM76 -6q-7 0 -7 6q0 7 17 11q23 7 26.5 53t3.5 257q0 201 -3.5 246t-26.5 52q-17 4 -17 10q0 7 7 7q1 0 20.5 -3
t36.5 -3t36.5 3t20.5 3q7 0 7 -7q0 -6 -17 -10q-23 -7 -26.5 -52t-3.5 -246q0 -211 3.5 -257t26.5 -53q17 -4 17 -11q0 -6 -7 -6q-2 0 -23 3t-34 3t-34 -3t-23 -3z" />
    <glyph glyph-name="Icircumflex" unicode="&#xce;" horiz-adv-x="266" 
d="M12 691q-7 0 -7 7q0 6 46 49q24 21 40 36q3 3 8 8.5t7.5 7.5t7 6t7 5.5t6.5 3t7 1.5q4 0 8 -1.5t8.5 -5t7 -6t8.5 -8t9 -8.5q83 -77 87 -83q1 -3 1 -5q0 -7 -7 -7q-3 0 -6 1.5t-11.5 7.5t-18.5 13.5t-33.5 24t-51.5 35.5h-2q-26 -18 -49 -34t-33.5 -24t-19 -14t-12.5 -8
t-7 -2zM76 -6q-7 0 -7 6q0 7 17 11q23 7 26.5 53t3.5 257q0 201 -3.5 246t-26.5 52q-17 4 -17 10q0 7 7 7q1 0 20.5 -3t36.5 -3t36.5 3t20.5 3q7 0 7 -7q0 -6 -17 -10q-23 -7 -26.5 -52t-3.5 -246q0 -211 3.5 -257t26.5 -53q17 -4 17 -11q0 -6 -7 -6q-2 0 -23 3t-34 3
t-34 -3t-23 -3z" />
    <glyph glyph-name="Idieresis" unicode="&#xcf;" horiz-adv-x="266" 
d="M73 682q-17 0 -27.5 10.5t-10.5 27.5t10.5 27.5t27.5 10.5t27.5 -10.5t10.5 -27.5t-10.5 -27.5t-27.5 -10.5zM196 682q-17 0 -27.5 10.5t-10.5 27.5t10.5 27.5t27.5 10.5t27.5 -10.5t10.5 -27.5t-10.5 -27.5t-27.5 -10.5zM76 -6q-7 0 -7 6q0 7 17 11q23 7 26.5 53
t3.5 257q0 201 -3.5 246t-26.5 52q-17 4 -17 10q0 7 7 7q1 0 20.5 -3t36.5 -3t36.5 3t20.5 3q7 0 7 -7q0 -6 -17 -10q-23 -7 -26.5 -52t-3.5 -246q0 -211 3.5 -257t26.5 -53q17 -4 17 -11q0 -6 -7 -6q-2 0 -23 3t-34 3t-34 -3t-23 -3z" />
    <glyph glyph-name="Eth" unicode="&#xd0;" horiz-adv-x="681" 
d="M284 639q151 0 249 -93t98 -229q0 -137 -98 -232.5t-249 -95.5q-33 0 -84 6t-67 6q-8 0 -30.5 -1.5t-25.5 -1.5q-7 0 -7 6q0 2 0.5 3t3 2l5 2t7.5 2.5t9 3.5q16 6 18.5 47t2.5 240q-18 -1 -45 -1q-11 0 -11 13q0 16 14 16q6 0 42 -2q0 188 -3.5 232t-20.5 52q-4 2 -10 4
q-12 4 -12 9q0 6 7 6q1 0 21.5 -1.5t34.5 -1.5q10 0 67.5 4.5t83.5 4.5zM284 2q132 0 218 79.5t86 235.5q0 157 -85.5 232.5t-218.5 75.5q-117 0 -127 -33q-7 -20 -7 -263h13q26 0 77.5 1.5t60.5 1.5q13 0 13 -13q0 -7 -4 -12t-10 -4q-68 3 -134 3q-10 0 -16 -1
q0 -252 9 -273q12 -30 125 -30z" />
    <glyph glyph-name="Ntilde" unicode="&#xd1;" horiz-adv-x="677" 
d="M277 704q-7 0 -6 9q7 80 57 80q25 0 63 -23q40 -21 56 -21q32 2 36 30q1 10 7 10q8 0 8 -11q0 -26 -15 -45.5t-41 -19.5q-19 0 -61 22q-40 21 -55 21q-16 -1 -26 -10t-14 -32q-2 -10 -9 -10zM579 -15q-9 0 -16 12q-23 38 -180 251t-250 335q-10 13 -12 13q-4 0 -4 -8
v-468q0 -56 11 -78t48 -31q15 -4 15 -10q0 -7 -9 -7q-2 0 -27 3t-45 3q-19 0 -42 -3t-27 -3q-9 0 -9 7q0 5 16 9q30 7 40.5 31t10.5 79v441q0 29 -6 39t-29 14q-39 5 -39 17q0 5 7 5q2 0 21 -3t28 -3q8 0 21 3t19 3q19 0 40 -28l404 -542q5 -8 7 -8t2 7v461q0 46 -10 65
t-37 27q-20 7 -20 12q0 6 7 6l27 -3q27 -3 41 -3q16 0 42 3l26 3q7 0 7 -5q0 -6 -17 -11q-26 -8 -37.5 -28.5t-11.5 -65.5v-521q0 -20 -12 -20z" />
    <glyph glyph-name="Ograve" unicode="&#xd2;" horiz-adv-x="700" 
d="M263 756q-30 11 -30 29q0 13 7.5 20t17.5 7q4 0 9.5 -1.5t15.5 -6.5t19 -10t27 -15.5t33.5 -20t43.5 -26t52 -30.5q4 -4 4 -6q0 -5 -4 -5q-2 0 -9 2q-58 16 -186 63zM350 649q134 0 217 -95.5t83 -236.5q0 -139 -83.5 -235.5t-216.5 -96.5t-216.5 96.5t-83.5 235.5
q0 141 83.5 236.5t216.5 95.5zM350 3q108 0 180.5 76.5t72.5 237.5q0 86 -21 149t-57.5 98t-79.5 51t-95 16q-50 0 -93 -16t-80 -51t-58.5 -98t-21.5 -149q0 -83 21.5 -146t58.5 -98.5t80.5 -52.5t92.5 -17z" />
    <glyph glyph-name="Oacute" unicode="&#xd3;" horiz-adv-x="700" 
d="M249 680q-4 0 -4 5q0 2 4 6q24 14 52 30.5t43.5 26t33.5 20t27 15.5t19 10t15.5 6.5t9.5 1.5q10 0 17.5 -7t7.5 -20q0 -18 -30 -29q-128 -47 -186 -63zM350 649q134 0 217 -95.5t83 -236.5q0 -139 -83.5 -235.5t-216.5 -96.5t-216.5 96.5t-83.5 235.5q0 141 83.5 236.5
t216.5 95.5zM350 3q108 0 180.5 76.5t72.5 237.5q0 86 -21 149t-57.5 98t-79.5 51t-95 16q-50 0 -93 -16t-80 -51t-58.5 -98t-21.5 -149q0 -83 21.5 -146t58.5 -98.5t80.5 -52.5t92.5 -17z" />
    <glyph glyph-name="Ocircumflex" unicode="&#xd4;" horiz-adv-x="700" 
d="M225 691q-7 0 -7 7q0 6 46 49q8 6 12.5 10t12.5 11.5t15 14.5q3 3 8 8.5t7.5 7.5t7 6t7 5.5t6.5 3t7 1.5q4 0 8 -1.5t8.5 -5t7 -6t8.5 -8t9 -8.5q83 -77 87 -83q1 -3 1 -5q0 -7 -7 -7q-3 0 -6 1.5t-11.5 7.5t-18.5 13.5t-33.5 24t-51.5 35.5h-2q-26 -18 -49 -34
t-33.5 -24t-19 -14t-12.5 -8t-7 -2zM350 649q134 0 217 -95.5t83 -236.5q0 -139 -83.5 -235.5t-216.5 -96.5t-216.5 96.5t-83.5 235.5q0 141 83.5 236.5t216.5 95.5zM350 3q108 0 180.5 76.5t72.5 237.5q0 86 -21 149t-57.5 98t-79.5 51t-95 16q-50 0 -93 -16t-80 -51
t-58.5 -98t-21.5 -149q0 -83 21.5 -146t58.5 -98.5t80.5 -52.5t92.5 -17z" />
    <glyph glyph-name="Otilde" unicode="&#xd5;" horiz-adv-x="700" 
d="M239 704q-7 0 -6 9q7 80 57 80q25 0 63 -23q40 -21 56 -21q32 2 36 30q1 10 7 10q8 0 8 -11q0 -26 -15 -45.5t-41 -19.5q-19 0 -61 22q-40 21 -55 21q-16 -1 -26 -10t-14 -32q-2 -10 -9 -10zM350 649q134 0 217 -95.5t83 -236.5q0 -139 -83.5 -235.5t-216.5 -96.5
t-216.5 96.5t-83.5 235.5q0 141 83.5 236.5t216.5 95.5zM350 3q108 0 180.5 76.5t72.5 237.5q0 86 -21 149t-57.5 98t-79.5 51t-95 16q-50 0 -93 -16t-80 -51t-58.5 -98t-21.5 -149q0 -83 21.5 -146t58.5 -98.5t80.5 -52.5t92.5 -17z" />
    <glyph glyph-name="Odieresis" unicode="&#xd6;" horiz-adv-x="700" 
d="M286 682q-17 0 -27.5 10.5t-10.5 27.5t10.5 27.5t27.5 10.5t27.5 -10.5t10.5 -27.5t-10.5 -27.5t-27.5 -10.5zM409 682q-17 0 -27.5 10.5t-10.5 27.5t10.5 27.5t27.5 10.5t27.5 -10.5t10.5 -27.5t-10.5 -27.5t-27.5 -10.5zM350 649q134 0 217 -95.5t83 -236.5
q0 -139 -83.5 -235.5t-216.5 -96.5t-216.5 96.5t-83.5 235.5q0 141 83.5 236.5t216.5 95.5zM350 3q108 0 180.5 76.5t72.5 237.5q0 86 -21 149t-57.5 98t-79.5 51t-95 16q-50 0 -93 -16t-80 -51t-58.5 -98t-21.5 -149q0 -83 21.5 -146t58.5 -98.5t80.5 -52.5t92.5 -17z" />
    <glyph glyph-name="multiply" unicode="&#xd7;" horiz-adv-x="560" 
d="M296 269l122 -122q6 -6 -3 -14q-8 -9 -14 -3l-122 122l-122 -122q-6 -6 -14 3q-9 8 -3 14l122 122l-122 122q-6 6 3 14q8 9 14 3l122 -122l122 122q6 6 14 -3q9 -8 3 -14z" />
    <glyph glyph-name="Oslash" unicode="&#xd8;" horiz-adv-x="700" 
d="M493 613q74 -41 115.5 -120t41.5 -176q0 -139 -83.5 -235.5t-216.5 -96.5q-79 0 -143 36l-50 -104q-5 -10 -17 -10q-10 0 -10 7q0 3 3 9l54 111q-64 44 -100.5 119t-36.5 164q0 141 83.5 236.5t216.5 95.5q65 0 121 -25l41 86q5 11 18 11q10 0 10 -6q0 -3 -3 -11zM97 317
q0 -182 99 -262l267 552q-49 24 -113 24q-50 0 -93 -16t-80 -51t-58.5 -98t-21.5 -149zM350 3q108 0 180.5 76.5t72.5 237.5q0 206 -118 278l-269 -555q58 -37 134 -37z" />
    <glyph glyph-name="Ugrave" unicode="&#xd9;" horiz-adv-x="623" 
d="M426 691q-2 0 -9 2q-58 16 -186 63q-30 11 -30 29q0 13 7.5 20t17.5 7q4 0 9.5 -1.5t15.5 -6.5t19 -10t27 -15.5t33.5 -20t43.5 -26t52 -30.5q4 -4 4 -6q0 -5 -4 -5zM315 -15q-116 0 -179 73.5t-63 221.5v249q0 43 -7 61t-31 27q-17 7 -17 13t8 6q1 0 26.5 -3t40.5 -3
q17 0 42.5 3t29.5 3q7 0 7 -6q0 -7 -19 -13q-25 -8 -34 -24t-9 -52l-1 -269q-1 -132 52.5 -200t153.5 -68q95 0 150.5 65.5t55.5 202.5v229q0 60 -12.5 85.5t-42.5 33.5q-16 4 -16 10t8 6q1 0 12.5 -1.5t26.5 -3t27 -1.5q21 0 45.5 3t26.5 3q6 0 6 -6t-16 -11
q-26 -7 -36.5 -28t-10.5 -61v-258q0 -151 -61 -219t-163 -68z" />
    <glyph glyph-name="Uacute" unicode="&#xda;" horiz-adv-x="623" 
d="M217 680q-4 0 -4 5q0 2 4 6q24 14 52 30.5t43.5 26t33.5 20t27 15.5t19 10t15.5 6.5t9.5 1.5q10 0 17.5 -7t7.5 -20q0 -18 -30 -29q-128 -47 -186 -63zM315 -15q-116 0 -179 73.5t-63 221.5v249q0 43 -7 61t-31 27q-17 7 -17 13t8 6q1 0 26.5 -3t40.5 -3q17 0 42.5 3
t29.5 3q7 0 7 -6q0 -7 -19 -13q-25 -8 -34 -24t-9 -52l-1 -269q-1 -132 52.5 -200t153.5 -68q95 0 150.5 65.5t55.5 202.5v229q0 60 -12.5 85.5t-42.5 33.5q-16 4 -16 10t8 6q1 0 12.5 -1.5t26.5 -3t27 -1.5q21 0 45.5 3t26.5 3q6 0 6 -6t-16 -11q-26 -7 -36.5 -28
t-10.5 -61v-258q0 -151 -61 -219t-163 -68z" />
    <glyph glyph-name="Ucircumflex" unicode="&#xdb;" horiz-adv-x="623" 
d="M193 691q-7 0 -7 7q0 6 46 49q24 21 40 36q3 3 8 8.5t7.5 7.5t7 6t7 5.5t6.5 3t7 1.5q4 0 8 -1.5t8.5 -5t7 -6t8.5 -8t9 -8.5q83 -77 87 -83q1 -3 1 -5q0 -7 -7 -7q-3 0 -6 1.5t-11.5 7.5t-18.5 13.5t-33.5 24t-51.5 35.5h-2q-26 -18 -49 -34t-33.5 -24t-19 -14t-12.5 -8
t-7 -2zM315 -15q-116 0 -179 73.5t-63 221.5v249q0 43 -7 61t-31 27q-17 7 -17 13t8 6q1 0 26.5 -3t40.5 -3q17 0 42.5 3t29.5 3q7 0 7 -6q0 -7 -19 -13q-25 -8 -34 -24t-9 -52l-1 -269q-1 -132 52.5 -200t153.5 -68q95 0 150.5 65.5t55.5 202.5v229q0 60 -12.5 85.5
t-42.5 33.5q-16 4 -16 10t8 6q1 0 12.5 -1.5t26.5 -3t27 -1.5q21 0 45.5 3t26.5 3q6 0 6 -6t-16 -11q-26 -7 -36.5 -28t-10.5 -61v-258q0 -151 -61 -219t-163 -68z" />
    <glyph glyph-name="Udieresis" unicode="&#xdc;" horiz-adv-x="623" 
d="M254 682q-17 0 -27.5 10.5t-10.5 27.5t10.5 27.5t27.5 10.5t27.5 -10.5t10.5 -27.5t-10.5 -27.5t-27.5 -10.5zM377 682q-17 0 -27.5 10.5t-10.5 27.5t10.5 27.5t27.5 10.5t27.5 -10.5t10.5 -27.5t-10.5 -27.5t-27.5 -10.5zM315 -15q-116 0 -179 73.5t-63 221.5v249
q0 43 -7 61t-31 27q-17 7 -17 13t8 6q1 0 26.5 -3t40.5 -3q17 0 42.5 3t29.5 3q7 0 7 -6q0 -7 -19 -13q-25 -8 -34 -24t-9 -52l-1 -269q-1 -132 52.5 -200t153.5 -68q95 0 150.5 65.5t55.5 202.5v229q0 60 -12.5 85.5t-42.5 33.5q-16 4 -16 10t8 6q1 0 12.5 -1.5t26.5 -3
t27 -1.5q21 0 45.5 3t26.5 3q6 0 6 -6t-16 -11q-26 -7 -36.5 -28t-10.5 -61v-258q0 -151 -61 -219t-163 -68z" />
    <glyph glyph-name="Yacute" unicode="&#xdd;" horiz-adv-x="582" 
d="M194 680q-4 0 -4 5q0 2 4 6q24 14 52 30.5t43.5 26t33.5 20t27 15.5t19 10t15.5 6.5t9.5 1.5q10 0 17.5 -7t7.5 -20q0 -18 -30 -29q-128 -47 -186 -63zM220 -7q-8 0 -8 6t24 14q11 4 17.5 8.5t12 16t8 24t4 42t2 60t0.5 86.5q0 9 -7 23l-153 247q-33 56 -52 74.5
t-44 26.5q-14 4 -14 10q0 5 8 5q2 0 23 -3t37 -3q18 0 50 3t34 3q8 0 8 -5t-16 -11q-24 -10 -24 -23t9 -34.5t48.5 -90.5t115.5 -189l102 161q35 56 48.5 83.5t13.5 48.5q0 39 -52 45q-12 1 -12 8t9 7q2 0 35 -3t51 -3q13 0 40.5 3t29.5 3q9 0 9 -6t-9 -9q-23 -7 -37 -21
t-42 -58l-170 -263q-6 -7 -6 -14q0 -191 9 -220q6 -19 26 -27q1 -1 10 -4q22 -9 22 -15t-8 -6q-1 0 -32 3.5t-41 3.5q-13 0 -46 -4z" />
    <glyph glyph-name="Thorn" unicode="&#xde;" horiz-adv-x="569" 
d="M77 -7q-7 0 -7 6q0 5 13 9q3 1 5.5 1.5t5.5 1.5q24 7 30 29q10 30 10 209v168q0 117 -9 155t-31 46q-4 2 -9 3.5t-7 2.5t-4.5 2t-3 2t-0.5 3q0 6 7 6q1 0 13.5 -1.5t30 -3.5t30.5 -2q15 0 36 2t36 3.5t17 1.5q7 0 7 -5t-27 -13q-34 -10 -42 -29.5t-8 -76.5q0 -5 5 -5
q2 0 18.5 3.5t42.5 7t51 3.5q105 0 169 -53.5t64 -139.5q0 -87 -64 -140.5t-169 -53.5q-25 0 -51 3.5t-42.5 7t-18.5 3.5q-5 0 -5 -5q0 -77 9 -101.5t41 -31.5q27 -8 27 -13t-7 -5q-2 0 -17 1.5t-36 3.5t-36 2q-13 0 -30.5 -2t-30 -3.5t-13.5 -1.5zM285 155q82 0 138.5 45.5
t56.5 128.5q0 82 -56.5 127.5t-138.5 45.5q-84 0 -107 -21q-8 -7 -9 -30t-1 -122q0 -137 5 -149q1 -4 3 -6q8 -7 41.5 -13t67.5 -6z" />
    <glyph glyph-name="germandbls" unicode="&#xdf;" horiz-adv-x="470" 
d="M343 227q52 -39 75.5 -68t23.5 -66q0 -48 -35.5 -78t-88.5 -30q-36 0 -70 16.5t-39 16.5q-12 0 -15 -20q-1 -9 -8 -9t-7 9q0 1 0.5 17.5t0.5 28.5q0 24 -2.5 57.5t-2.5 34.5q0 7 6 7t9 -10q21 -69 51.5 -101t76.5 -32q36 0 60 21.5t24 58.5q0 29 -16.5 54t-59.5 56
l-73 51q-60 45 -60 103q0 25 13.5 48t43.5 57q7 8 21 23t20 22.5t14.5 19.5t11.5 24.5t3 26.5q0 26 -19.5 43.5t-55.5 17.5q-50 0 -83 -35.5t-33 -110.5v-412q0 -20 2 -41.5t2 -22.5q0 -7 -7 -7l-10 1q-10 2 -16 2q-13 0 -32.5 -1.5t-21.5 -1.5q-7 0 -7 6q0 7 19 16
q24 11 31.5 27t7.5 58v262q-40 -2 -47 -2q-13 0 -13 13t13 13q7 0 47 -2v64q0 97 41.5 142.5t105.5 45.5q44 0 69.5 -23t25.5 -54q0 -30 -18 -58.5t-39.5 -48t-39.5 -46t-18 -52.5q0 -42 50 -80z" />
    <glyph glyph-name="agrave" unicode="&#xe0;" horiz-adv-x="457" 
d="M97 566q-27 20 -21 36q7 26 31 20q5 -1 12.5 -7t22 -20.5t28.5 -29.5t43.5 -46t56.5 -59q3 -3 2 -6q-2 -4 -6 -3l-4 2q-65 40 -165 113zM433 38q7 0 7 -9q0 -20 -12.5 -32t-34.5 -12q-29 0 -42 17t-13 53v44q-22 -54 -69 -84t-96 -30q-60 0 -93.5 25.5t-33.5 69.5
q0 37 21.5 63t63 41t90.5 22t117 10v17q0 157 -135 157q-43 0 -68.5 -14.5t-25.5 -34.5q0 -9 8.5 -21t8.5 -23q0 -13 -9 -21.5t-25 -8.5q-34 0 -34 41q0 36 39 66t110 30q167 0 167 -178v-173q0 -48 25 -48q23 0 26 23q1 10 8 10zM175 -1q66 0 114.5 48.5t48.5 135.5v22
q-171 -7 -220 -46q-34 -26 -34 -74q0 -86 91 -86z" />
    <glyph glyph-name="aacute" unicode="&#xe1;" horiz-adv-x="457" 
d="M138 451q-4 -1 -6 3q0 2 2 6q27 28 56.5 59t43.5 46t28.5 29.5t22 20.5t12.5 7q24 5 32 -20q4 -16 -22 -36q-100 -73 -165 -113zM433 38q7 0 7 -9q0 -20 -12.5 -32t-34.5 -12q-29 0 -42 17t-13 53v44q-22 -54 -69 -84t-96 -30q-60 0 -93.5 25.5t-33.5 69.5q0 37 21.5 63
t63 41t90.5 22t117 10v17q0 157 -135 157q-43 0 -68.5 -14.5t-25.5 -34.5q0 -9 8.5 -21t8.5 -23q0 -13 -9 -21.5t-25 -8.5q-34 0 -34 41q0 36 39 66t110 30q167 0 167 -178v-173q0 -48 25 -48q23 0 26 23q1 10 8 10zM175 -1q66 0 114.5 48.5t48.5 135.5v22q-171 -7 -220 -46
q-34 -26 -34 -74q0 -86 91 -86z" />
    <glyph glyph-name="acircumflex" unicode="&#xe2;" horiz-adv-x="457" 
d="M91 506q-7 0 -7 7q0 6 9.5 18t44.5 50q20 22 33 36q13 15 20 19t22 4q11 0 17.5 -2.5t10 -5.5t12.5 -12q65 -71 77 -85.5t12 -21.5t-7 -7t-50 37q-39 35 -71 62h-2q-15 -13 -29.5 -25.5t-24 -21t-19 -16.5t-15 -13t-11 -9.5t-8.5 -6.5t-5.5 -4t-4.5 -2.5t-4 -0.5zM433 38
q7 0 7 -9q0 -20 -12.5 -32t-34.5 -12q-29 0 -42 17t-13 53v44q-22 -54 -69 -84t-96 -30q-60 0 -93.5 25.5t-33.5 69.5q0 37 21.5 63t63 41t90.5 22t117 10v17q0 157 -135 157q-43 0 -68.5 -14.5t-25.5 -34.5q0 -9 8.5 -21t8.5 -23q0 -13 -9 -21.5t-25 -8.5q-34 0 -34 41
q0 36 39 66t110 30q167 0 167 -178v-173q0 -48 25 -48q23 0 26 23q1 10 8 10zM175 -1q66 0 114.5 48.5t48.5 135.5v22q-171 -7 -220 -46q-34 -26 -34 -74q0 -86 91 -86z" />
    <glyph glyph-name="atilde" unicode="&#xe3;" horiz-adv-x="457" 
d="M96 504q-8 0 -6 9q7 80 57 80q25 0 63 -23q40 -21 56 -21q32 2 36 30q1 10 7 10q8 0 8 -11q0 -26 -15 -45.5t-41 -19.5q-19 0 -61 22q-40 21 -55 21q-16 -1 -26 -10t-14 -32q-3 -10 -9 -10zM433 38q7 0 7 -9q0 -20 -12.5 -32t-34.5 -12q-29 0 -42 17t-13 53v44
q-22 -54 -69 -84t-96 -30q-60 0 -93.5 25.5t-33.5 69.5q0 37 21.5 63t63 41t90.5 22t117 10v17q0 157 -135 157q-43 0 -68.5 -14.5t-25.5 -34.5q0 -9 8.5 -21t8.5 -23q0 -13 -9 -21.5t-25 -8.5q-34 0 -34 41q0 36 39 66t110 30q167 0 167 -178v-173q0 -48 25 -48q23 0 26 23
q1 10 8 10zM175 -1q66 0 114.5 48.5t48.5 135.5v22q-171 -7 -220 -46q-34 -26 -34 -74q0 -86 91 -86z" />
    <glyph glyph-name="adieresis" unicode="&#xe4;" horiz-adv-x="457" 
d="M150 478q-17 0 -27.5 10.5t-10.5 27.5t10.5 27.5t27.5 10.5t27.5 -10.5t10.5 -27.5t-10.5 -27.5t-27.5 -10.5zM273 478q-17 0 -27.5 10.5t-10.5 27.5t10.5 27.5t27.5 10.5t27.5 -10.5t10.5 -27.5t-10.5 -27.5t-27.5 -10.5zM433 38q7 0 7 -9q0 -20 -12.5 -32t-34.5 -12
q-29 0 -42 17t-13 53v44q-22 -54 -69 -84t-96 -30q-60 0 -93.5 25.5t-33.5 69.5q0 37 21.5 63t63 41t90.5 22t117 10v17q0 157 -135 157q-43 0 -68.5 -14.5t-25.5 -34.5q0 -9 8.5 -21t8.5 -23q0 -13 -9 -21.5t-25 -8.5q-34 0 -34 41q0 36 39 66t110 30q167 0 167 -178v-173
q0 -48 25 -48q23 0 26 23q1 10 8 10zM175 -1q66 0 114.5 48.5t48.5 135.5v22q-171 -7 -220 -46q-34 -26 -34 -74q0 -86 91 -86z" />
    <glyph glyph-name="aring" unicode="&#xe5;" horiz-adv-x="457" 
d="M220 494q-31 0 -52 19.5t-21 48.5q0 30 20.5 49t52.5 19q33 0 53 -19t20 -49t-20 -49t-53 -19zM220 617q-20 0 -31.5 -14.5t-11.5 -40.5t11.5 -40.5t31.5 -14.5q43 0 43 55t-43 55zM433 38q7 0 7 -9q0 -20 -12.5 -32t-34.5 -12q-29 0 -42 17t-13 53v44q-22 -54 -69 -84
t-96 -30q-60 0 -93.5 25.5t-33.5 69.5q0 37 21.5 63t63 41t90.5 22t117 10v17q0 157 -135 157q-43 0 -68.5 -14.5t-25.5 -34.5q0 -9 8.5 -21t8.5 -23q0 -13 -9 -21.5t-25 -8.5q-34 0 -34 41q0 36 39 66t110 30q167 0 167 -178v-173q0 -48 25 -48q23 0 26 23q1 10 8 10z
M175 -1q66 0 114.5 48.5t48.5 135.5v22q-171 -7 -220 -46q-34 -26 -34 -74q0 -86 91 -86z" />
    <glyph glyph-name="ae" unicode="&#xe6;" horiz-adv-x="736" 
d="M695 117q5 0 5 -5q0 -3 -2 -9q-15 -49 -59 -83.5t-110 -34.5q-71 0 -119 41t-65 105q-16 -71 -68 -108.5t-112 -37.5q-54 0 -86.5 26t-32.5 69q0 57 55 90q64 37 236 46v6q1 168 -134 168q-43 0 -68.5 -14.5t-25.5 -34.5q0 -9 8.5 -21t8.5 -23q0 -13 -9 -21.5t-25 -8.5
q-34 0 -34 41q0 36 39 66t110 30q122 0 155 -103q24 47 68 75t101 28q73 0 118 -42.5t45 -103.5q0 -16 -4.5 -21t-18.5 -5l-294 1q-2 -20 -2 -30v-6q0 -86 42.5 -139t116.5 -53q61 0 102.5 34t52.5 72q1 6 6 6zM529 390q-59 0 -98.5 -37.5t-51.5 -100.5l274 2q6 0 6 10
q0 49 -34.5 87.5t-95.5 38.5zM167 -1q72 0 121 50t49 145v11q-170 -7 -219 -46q-34 -26 -34 -74q0 -86 83 -86z" />
    <glyph glyph-name="ccedilla" unicode="&#xe7;" horiz-adv-x="434" 
d="M405 119q-10 -54 -48 -91.5t-108 -41.5l-9 -41q76 -15 76 -64q0 -27 -20.5 -43t-48.5 -16q-19 0 -34 5t-20.5 10t-5.5 7q0 6 6 6q1 0 7 -3t16.5 -6.5t22.5 -3.5q21 0 33.5 11t12.5 29q0 21 -14.5 32t-46.5 19q-6 1 -6 8q0 5 2 11l9 38q-82 1 -134.5 59.5t-52.5 149.5
q0 95 58.5 152.5t132.5 57.5q45 0 82 -12.5t38 -12.5q12 0 18 17q3 8 9 8q7 0 7 -9q0 -37 2.5 -69t5.5 -49t3 -18q0 -8 -8 -8q-6 0 -9 10q-19 73 -53.5 101t-96.5 28q-24 0 -48 -9t-48.5 -29t-40 -60.5t-15.5 -94.5q0 -89 46 -140t112 -51q119 0 154 113q3 8 8 8q6 0 6 -6
v-2z" />
    <glyph glyph-name="egrave" unicode="&#xe8;" horiz-adv-x="441" 
d="M117 566q-27 20 -21 36q7 26 31 20q5 -1 12.5 -7t22 -20.5t28.5 -29.5t43.5 -46t56.5 -59q3 -3 2 -6q-2 -4 -6 -3l-4 2q-65 40 -165 113zM400 117q5 0 5 -5q0 -3 -2 -9q-15 -49 -59 -83.5t-110 -34.5q-89 0 -140.5 62t-51.5 147q0 88 53.5 149t140.5 61q73 0 118 -42.5
t45 -103.5q0 -16 -4.5 -21t-18.5 -5l-294 1q-2 -24 -2 -36q0 -86 42.5 -139t116.5 -53q61 0 102.5 34t52.5 72q1 6 6 6zM234 390q-59 0 -98.5 -38t-50.5 -102l273 2q6 0 6 10q0 50 -34.5 89t-95.5 39z" />
    <glyph glyph-name="eacute" unicode="&#xe9;" horiz-adv-x="441" 
d="M158 451q-4 -1 -6 3q0 2 2 6q27 28 56.5 59t43.5 46t28.5 29.5t22 20.5t12.5 7q24 5 32 -20q4 -16 -22 -36q-100 -73 -165 -113zM400 117q5 0 5 -5q0 -3 -2 -9q-15 -49 -59 -83.5t-110 -34.5q-89 0 -140.5 62t-51.5 147q0 88 53.5 149t140.5 61q73 0 118 -42.5t45 -103.5
q0 -16 -4.5 -21t-18.5 -5l-294 1q-2 -24 -2 -36q0 -86 42.5 -139t116.5 -53q61 0 102.5 34t52.5 72q1 6 6 6zM234 390q-59 0 -98.5 -38t-50.5 -102l273 2q6 0 6 10q0 50 -34.5 89t-95.5 39z" />
    <glyph glyph-name="ecircumflex" unicode="&#xea;" horiz-adv-x="441" 
d="M111 506q-7 0 -7 7q0 6 9.5 18t44.5 50q20 22 33 36q13 15 20 19t22 4q11 0 17.5 -2.5t10 -5.5t12.5 -12q65 -71 77 -85.5t12 -21.5t-7 -7t-50 37q-39 35 -71 62h-2q-15 -13 -29.5 -25.5t-24 -21t-19 -16.5t-15 -13t-11 -9.5t-8.5 -6.5t-5.5 -4t-4.5 -2.5t-4 -0.5z
M400 117q5 0 5 -5q0 -3 -2 -9q-15 -49 -59 -83.5t-110 -34.5q-89 0 -140.5 62t-51.5 147q0 88 53.5 149t140.5 61q73 0 118 -42.5t45 -103.5q0 -16 -4.5 -21t-18.5 -5l-294 1q-2 -24 -2 -36q0 -86 42.5 -139t116.5 -53q61 0 102.5 34t52.5 72q1 6 6 6zM234 390
q-59 0 -98.5 -38t-50.5 -102l273 2q6 0 6 10q0 50 -34.5 89t-95.5 39z" />
    <glyph glyph-name="edieresis" unicode="&#xeb;" horiz-adv-x="441" 
d="M169 478q-17 0 -27.5 10.5t-10.5 27.5t10.5 27.5t27.5 10.5t27.5 -10.5t10.5 -27.5t-10.5 -27.5t-27.5 -10.5zM292 478q-17 0 -27.5 10.5t-10.5 27.5t10.5 27.5t27.5 10.5t27.5 -10.5t10.5 -27.5t-10.5 -27.5t-27.5 -10.5zM400 117q5 0 5 -5q0 -3 -2 -9
q-15 -49 -59 -83.5t-110 -34.5q-89 0 -140.5 62t-51.5 147q0 88 53.5 149t140.5 61q73 0 118 -42.5t45 -103.5q0 -16 -4.5 -21t-18.5 -5l-294 1q-2 -24 -2 -36q0 -86 42.5 -139t116.5 -53q61 0 102.5 34t52.5 72q1 6 6 6zM234 390q-59 0 -98.5 -38t-50.5 -102l273 2
q6 0 6 10q0 50 -34.5 89t-95.5 39z" />
    <glyph glyph-name="igrave" unicode="&#xec;" horiz-adv-x="247" 
d="M169 451l-4 2q-65 40 -165 113q-26 20 -22 36q8 25 32 20q5 -1 12.5 -7t22 -20.5t28.5 -29.5t43.5 -46t56.5 -59q3 -3 2 -6q-1 -4 -6 -3zM60 -4q-7 0 -7 6q0 7 10 8q33 6 40 17.5t7 56.5v209q0 40 -8 50.5t-46 18.5q-8 2 -8 7t8 6q29 2 48 9.5t27 13.5t11 6q6 0 6 -7
l-2 -22q-4 -32 -4 -80v-211q0 -45 7 -56.5t40 -17.5q10 -1 10 -8q0 -6 -7 -6q-3 0 -29 2t-39 2q-11 0 -35.5 -2t-28.5 -2z" />
    <glyph glyph-name="iacute" unicode="&#xed;" horiz-adv-x="247" 
d="M41 451q-5 -1 -6 3q0 2 2 6q27 28 56.5 59t43.5 46t28.5 29.5t22 20.5t12.5 7q24 5 32 -20q4 -16 -22 -36q-100 -73 -165 -113zM60 -4q-7 0 -7 6q0 7 10 8q33 6 40 17.5t7 56.5v209q0 40 -8 50.5t-46 18.5q-8 2 -8 7t8 6q29 2 48 9.5t27 13.5t11 6q6 0 6 -7l-2 -22
q-4 -32 -4 -80v-211q0 -45 7 -56.5t40 -17.5q10 -1 10 -8q0 -6 -7 -6q-3 0 -29 2t-39 2q-11 0 -35.5 -2t-28.5 -2z" />
    <glyph glyph-name="icircumflex" unicode="&#xee;" horiz-adv-x="247" 
d="M17 505q-6 0 -6 7t11.5 23.5t59.5 80.5l7.5 10t6.5 9t6 7t7 5.5t7 1.5q10 0 33 -30q51 -70 61 -85t10 -22t-6 -7q-1 0 -2.5 0.5t-3.5 2t-4 4t-6.5 7t-9 9.5t-11.5 13t-15.5 17t-20.5 22t-25 27h-1q-21 -22 -39.5 -42.5t-27.5 -30t-16 -17.5t-10 -10t-5 -2zM60 -4
q-7 0 -7 6q0 7 10 8q33 6 40 17.5t7 56.5v209q0 40 -8 50.5t-46 18.5q-8 2 -8 7t8 6q29 2 48 9.5t27 13.5t11 6q6 0 6 -7l-2 -22q-4 -32 -4 -80v-211q0 -45 7 -56.5t40 -17.5q10 -1 10 -8q0 -6 -7 -6q-3 0 -29 2t-39 2q-11 0 -35.5 -2t-28.5 -2z" />
    <glyph glyph-name="idieresis" unicode="&#xef;" horiz-adv-x="247" 
d="M53 554q17 0 27.5 -10.5t10.5 -27.5t-10.5 -27.5t-27.5 -10.5t-27.5 10.5t-10.5 27.5t10.5 27.5t27.5 10.5zM176 554q17 0 27.5 -10.5t10.5 -27.5t-10.5 -27.5t-27.5 -10.5t-27.5 10.5t-10.5 27.5t10.5 27.5t27.5 10.5zM60 -4q-7 0 -7 6q0 7 10 8q33 6 40 17.5t7 56.5
v209q0 40 -8 50.5t-46 18.5q-8 2 -8 7t8 6q29 2 48 9.5t27 13.5t11 6q6 0 6 -7l-2 -22q-4 -32 -4 -80v-211q0 -45 7 -56.5t40 -17.5q10 -1 10 -8q0 -6 -7 -6q-3 0 -29 2t-39 2q-11 0 -35.5 -2t-28.5 -2z" />
    <glyph glyph-name="eth" unicode="&#xf0;" horiz-adv-x="477" 
d="M284 538q151 -70 151 -279q0 -49 -10 -94t-31 -87t-61 -67t-94 -25q-82 0 -139.5 53.5t-57.5 140.5t53.5 140.5t131.5 53.5q57 0 101 -31t58 -95q-4 190 -84 251q-19 14 -36 23l-112 -100q-9 -7 -13 -7q-9 0 -9 9q0 6 7 12l106 95q-62 24 -142 24q-14 0 -14 9q0 8 14 8
q92 0 160 -25l80 72q4 4 9 4q9 0 9 -10q0 -5 -5 -10zM378 177v12q0 82 -43 126.5t-109 44.5q-56 0 -97 -44.5t-41 -135.5q0 -93 42.5 -136.5t108.5 -43.5q64 0 101.5 46t37.5 131z" />
    <glyph glyph-name="ntilde" unicode="&#xf1;" horiz-adv-x="501" 
d="M140 504q-8 0 -6 9q7 80 57 80q25 0 63 -23q40 -21 56 -21q32 2 36 30q1 10 7 10q8 0 8 -11q0 -26 -15 -45.5t-41 -19.5q-19 0 -61 22q-40 21 -55 21q-16 -1 -26 -10t-14 -32q-3 -10 -9 -10zM445 12q12 -4 12 -10t-7 -6q-1 0 -21 2t-31 2q-9 0 -28 -2t-21 -2q-7 0 -7 6
t10 9q18 5 25 20t7 62v151q0 138 -106 138q-63 0 -106.5 -52.5t-43.5 -144.5v-97q0 -45 6.5 -58.5t29.5 -19.5q10 -3 10 -8q0 -6 -7 -6q-3 0 -23 2t-30 2q-11 0 -29.5 -2t-19.5 -2q-7 0 -7 6q0 5 11 8q18 6 22.5 19t4.5 59v205q0 57 -37 65q-7 2 -11 3.5t-4 5.5q0 5 12 7
q20 3 35 10.5t22.5 13.5t10.5 6q6 0 6 -7q0 -1 -2.5 -15.5t-4 -47t-0.5 -79.5q14 69 56.5 109t98.5 40q70 0 104 -38.5t34 -122.5v-150q0 -48 5 -62t24 -19z" />
    <glyph glyph-name="ograve" unicode="&#xf2;" horiz-adv-x="465" 
d="M288 451l-4 2q-65 40 -165 113q-27 20 -21 36q7 26 31 20q5 -1 12.5 -7t22 -20.5t28.5 -29.5t43.5 -46t56.5 -59q3 -3 2 -6q-2 -4 -6 -3zM233 404q88 0 139.5 -60t51.5 -150t-51.5 -149.5t-139.5 -59.5t-139.5 59.5t-51.5 149.5t51.5 150t139.5 60zM233 -1
q72 0 111.5 50.5t39.5 144.5t-39.5 145t-111.5 51t-111.5 -51t-39.5 -145t39.5 -144.5t111.5 -50.5z" />
    <glyph glyph-name="oacute" unicode="&#xf3;" horiz-adv-x="465" 
d="M160 451q-4 -1 -6 3q0 2 2 6q27 28 56.5 59t43.5 46t28.5 29.5t22 20.5t12.5 7q24 5 32 -20q4 -16 -22 -36q-100 -73 -165 -113zM233 404q88 0 139.5 -60t51.5 -150t-51.5 -149.5t-139.5 -59.5t-139.5 59.5t-51.5 149.5t51.5 150t139.5 60zM233 -1q72 0 111.5 50.5
t39.5 144.5t-39.5 145t-111.5 51t-111.5 -51t-39.5 -145t39.5 -144.5t111.5 -50.5z" />
    <glyph glyph-name="ocircumflex" unicode="&#xf4;" horiz-adv-x="465" 
d="M113 506q-7 0 -7 7q0 6 9.5 18t44.5 50q20 22 33 36q13 15 20 19t22 4q11 0 17.5 -2.5t10 -5.5t12.5 -12q65 -71 77 -85.5t12 -21.5t-7 -7t-50 37q-39 35 -71 62h-2q-15 -13 -29.5 -25.5t-24 -21t-19 -16.5t-15 -13t-11 -9.5t-8.5 -6.5t-5.5 -4t-4.5 -2.5t-4 -0.5z
M233 404q88 0 139.5 -60t51.5 -150t-51.5 -149.5t-139.5 -59.5t-139.5 59.5t-51.5 149.5t51.5 150t139.5 60zM233 -1q72 0 111.5 50.5t39.5 144.5t-39.5 145t-111.5 51t-111.5 -51t-39.5 -145t39.5 -144.5t111.5 -50.5z" />
    <glyph glyph-name="otilde" unicode="&#xf5;" horiz-adv-x="465" 
d="M118 504q-8 0 -6 9q7 80 57 80q25 0 63 -23q40 -21 56 -21q32 2 36 30q1 10 7 10q8 0 8 -11q0 -26 -15 -45.5t-41 -19.5q-19 0 -61 22q-40 21 -55 21q-16 -1 -26 -10t-14 -32q-3 -10 -9 -10zM233 404q88 0 139.5 -60t51.5 -150t-51.5 -149.5t-139.5 -59.5t-139.5 59.5
t-51.5 149.5t51.5 150t139.5 60zM233 -1q72 0 111.5 50.5t39.5 144.5t-39.5 145t-111.5 51t-111.5 -51t-39.5 -145t39.5 -144.5t111.5 -50.5z" />
    <glyph glyph-name="odieresis" unicode="&#xf6;" horiz-adv-x="465" 
d="M172 554q17 0 27.5 -10.5t10.5 -27.5t-10.5 -27.5t-27.5 -10.5t-27.5 10.5t-10.5 27.5t10.5 27.5t27.5 10.5zM295 554q17 0 27.5 -10.5t10.5 -27.5t-10.5 -27.5t-27.5 -10.5t-27.5 10.5t-10.5 27.5t10.5 27.5t27.5 10.5zM233 404q88 0 139.5 -60t51.5 -150t-51.5 -149.5
t-139.5 -59.5t-139.5 59.5t-51.5 149.5t51.5 150t139.5 60zM233 -1q72 0 111.5 50.5t39.5 144.5t-39.5 145t-111.5 51t-111.5 -51t-39.5 -145t39.5 -144.5t111.5 -50.5z" />
    <glyph glyph-name="divide" unicode="&#xf7;" horiz-adv-x="560" 
d="M275 411q23 0 23 -23q0 -24 -23 -24q-10 0 -16.5 7t-6.5 17t6.5 16.5t16.5 6.5zM122 262q0 12 8 12h300q8 0 8 -12t-8 -12h-300q-8 0 -8 12zM275 153q23 0 23 -23q0 -24 -23 -24q-10 0 -16.5 7t-6.5 17t6.5 16.5t16.5 6.5z" />
    <glyph glyph-name="oslash" unicode="&#xf8;" horiz-adv-x="466" 
d="M357 359q67 -59 67 -164q0 -90 -51.5 -149.5t-139.5 -59.5q-55 0 -97 25l-51 -81q-7 -10 -17 -10t-10 7q0 3 3 9l56 88q-75 59 -75 171q0 90 51.5 149.5t139.5 59.5q59 0 105 -30l53 84q7 11 18 11q10 0 10 -6q0 -7 -3 -11zM82 195q0 -101 46 -152l199 314q-36 33 -94 33
q-72 0 -111.5 -50.5t-39.5 -144.5zM233 0q72 0 111.5 50.5t39.5 144.5q0 93 -40 144l-198 -313q35 -26 87 -26z" />
    <glyph glyph-name="ugrave" unicode="&#xf9;" horiz-adv-x="475" 
d="M124 566q-27 20 -21 36q7 26 31 20q5 -1 12.5 -7t22 -20.5t28.5 -29.5t43.5 -46t56.5 -59q3 -3 2 -6q-1 -4 -6 -3l-4 2q-65 40 -165 113zM438 22q13 -3 13 -8q0 -6 -11 -7q-28 -3 -41.5 -10t-15.5 -7q-8 0 -8 7q-4 18 -6 117h-1q-15 -60 -55.5 -94.5t-101.5 -34.5
q-131 0 -131 157v137q0 45 -5.5 60.5t-24.5 24.5q-3 1 -6.5 2.5t-5 2.5t-3.5 1.5t-2.5 1.5l-1 2t-0.5 3q0 6 10 6q24 0 46 8.5t23 8.5q8 0 8 -9q0 -1 -1.5 -10t-3 -35t-1.5 -67v-132q0 -140 110 -140q62 0 101.5 49.5t39.5 128.5v1q0 65 -1 95t-5.5 50t-10 24.5t-19.5 7.5
q-20 7 -21 13q0 7 10 7q27 0 45 4.5t26 8.5t10 4q6 0 6 -6l-4 -16q-4 -16 -4 -36v-261q0 -30 10.5 -41.5t32.5 -17.5z" />
    <glyph glyph-name="uacute" unicode="&#xfa;" horiz-adv-x="475" 
d="M165 451q-5 -1 -6 3q0 2 2 6q27 28 56.5 59t43.5 46t28.5 29.5t22 20.5t12.5 7q24 5 32 -20q4 -16 -22 -36q-100 -73 -165 -113zM438 22q13 -3 13 -8q0 -6 -11 -7q-28 -3 -41.5 -10t-15.5 -7q-8 0 -8 7q-4 18 -6 117h-1q-15 -60 -55.5 -94.5t-101.5 -34.5
q-131 0 -131 157v137q0 45 -5.5 60.5t-24.5 24.5q-3 1 -6.5 2.5t-5 2.5t-3.5 1.5t-2.5 1.5l-1 2t-0.5 3q0 6 10 6q24 0 46 8.5t23 8.5q8 0 8 -9q0 -1 -1.5 -10t-3 -35t-1.5 -67v-132q0 -140 110 -140q62 0 101.5 49.5t39.5 128.5v1q0 65 -1 95t-5.5 50t-10 24.5t-19.5 7.5
q-20 7 -21 13q0 7 10 7q27 0 45 4.5t26 8.5t10 4q6 0 6 -6l-4 -16q-4 -16 -4 -36v-261q0 -30 10.5 -41.5t32.5 -17.5z" />
    <glyph glyph-name="ucircumflex" unicode="&#xfb;" horiz-adv-x="475" 
d="M116 474q-7 0 -7 7q0 6 9.5 18t44.5 50q20 22 33 36q13 15 20 19t22 4q11 0 17.5 -2.5t10 -5.5t12.5 -12q65 -71 77 -85.5t12 -21.5t-7 -7t-50 37q-39 35 -71 62h-2q-15 -13 -29.5 -25.5t-24 -21t-19 -16.5t-15 -13t-11 -9.5t-8.5 -6.5t-5.5 -4t-4.5 -2.5t-4 -0.5z
M438 22q13 -3 13 -8q0 -6 -11 -7q-28 -3 -41.5 -10t-15.5 -7q-8 0 -8 7q-4 18 -6 117h-1q-15 -60 -55.5 -94.5t-101.5 -34.5q-131 0 -131 157v137q0 45 -5.5 60.5t-24.5 24.5q-3 1 -6.5 2.5t-5 2.5t-3.5 1.5t-2.5 1.5l-1 2t-0.5 3q0 6 10 6q24 0 46 8.5t23 8.5q8 0 8 -9
q0 -1 -1.5 -10t-3 -35t-1.5 -67v-132q0 -140 110 -140q62 0 101.5 49.5t39.5 128.5v1q0 65 -1 95t-5.5 50t-10 24.5t-19.5 7.5q-20 7 -21 13q0 7 10 7q27 0 45 4.5t26 8.5t10 4q6 0 6 -6l-4 -16q-4 -16 -4 -36v-261q0 -30 10.5 -41.5t32.5 -17.5z" />
    <glyph glyph-name="udieresis" unicode="&#xfc;" horiz-adv-x="475" 
d="M177 478q-17 0 -27.5 10.5t-10.5 27.5t10.5 27.5t27.5 10.5t27.5 -10.5t10.5 -27.5t-10.5 -27.5t-27.5 -10.5zM300 478q-17 0 -27.5 10.5t-10.5 27.5t10.5 27.5t27.5 10.5t27.5 -10.5t10.5 -27.5t-10.5 -27.5t-27.5 -10.5zM438 22q13 -3 13 -8q0 -6 -11 -7
q-28 -3 -41.5 -10t-15.5 -7q-8 0 -8 7q-4 18 -6 117h-1q-15 -60 -55.5 -94.5t-101.5 -34.5q-131 0 -131 157v137q0 45 -5.5 60.5t-24.5 24.5q-3 1 -6.5 2.5t-5 2.5t-3.5 1.5t-2.5 1.5l-1 2t-0.5 3q0 6 10 6q24 0 46 8.5t23 8.5q8 0 8 -9q0 -1 -1.5 -10t-3 -35t-1.5 -67v-132
q0 -140 110 -140q62 0 101.5 49.5t39.5 128.5v1q0 65 -1 95t-5.5 50t-10 24.5t-19.5 7.5q-20 7 -21 13q0 7 10 7q27 0 45 4.5t26 8.5t10 4q6 0 6 -6l-4 -16q-4 -16 -4 -36v-261q0 -30 10.5 -41.5t32.5 -17.5z" />
    <glyph glyph-name="yacute" unicode="&#xfd;" horiz-adv-x="450" 
d="M159 451q-5 -1 -6 3q0 2 2 6q27 28 56.5 59t43.5 46t28.5 29.5t22 20.5t12.5 7q24 5 32 -20q4 -16 -22 -36q-100 -73 -165 -113zM57 -128q11 0 30.5 -20.5t31.5 -20.5q17 0 52.5 63t35.5 88q0 28 -140 352q-10 21 -18.5 29.5t-25.5 13.5q-20 6 -20 13t9 7q3 0 27.5 -3.5
t33.5 -3.5q11 0 32.5 3t25.5 3q8 0 8 -7q0 -8 -17 -12q-18 -3 -18 -24q0 -17 52.5 -145t75.5 -178l2 -2l2 2q4 12 37.5 86.5t61 143.5t27.5 89q0 13 -8 19.5t-32 11.5q-10 2 -10 9t9 7l21 -3q21 -3 35 -3q15 0 36 3t22 3q7 0 7 -7t-11 -9q-19 -4 -30 -16t-25 -44l-158 -363
q-32 -78 -65 -121.5t-78 -43.5q-54 0 -54 42q0 18 10.5 28t25.5 10z" />
    <glyph glyph-name="thorn" unicode="&#xfe;" horiz-adv-x="491" 
d="M273 404q74 0 125 -55t51 -149t-52 -154.5t-124 -60.5q-111 0 -152 97l1 -196q0 -37 10.5 -51t35.5 -23q21 -7 21 -13t-7 -6q-2 0 -31 3.5t-45 3.5t-41 -3.5t-26 -3.5q-7 0 -7 6t18 13q26 11 33 23t7 51v491q0 83 -7 104.5t-38 37.5q-5 2 -9.5 4t-7 3t-4.5 2t-2.5 2.5
t-0.5 3.5q0 7 9 7q29 0 49 7.5t29.5 15t13.5 7.5q7 0 7 -6q0 -8 -5 -48.5t-5 -59.5l1 -162q43 109 153 109zM273 0q60 0 98 48t38 152q0 96 -39.5 143t-96.5 47q-69 0 -109 -48.5t-44 -134.5l1 -39q4 -85 47 -126.5t105 -41.5z" />
    <glyph glyph-name="ydieresis" unicode="&#xff;" horiz-adv-x="450" 
d="M171 554q17 0 27.5 -10.5t10.5 -27.5t-10.5 -27.5t-27.5 -10.5t-27.5 10.5t-10.5 27.5t10.5 27.5t27.5 10.5zM294 554q17 0 27.5 -10.5t10.5 -27.5t-10.5 -27.5t-27.5 -10.5t-27.5 10.5t-10.5 27.5t10.5 27.5t27.5 10.5zM57 -128q11 0 30.5 -20.5t31.5 -20.5
q17 0 52.5 63t35.5 88q0 28 -140 352q-10 21 -18.5 29.5t-25.5 13.5q-20 6 -20 13t9 7q3 0 27.5 -3.5t33.5 -3.5q11 0 32.5 3t25.5 3q8 0 8 -7q0 -8 -17 -12q-18 -3 -18 -24q0 -17 52.5 -145t75.5 -178l2 -2l2 2q4 12 37.5 86.5t61 143.5t27.5 89q0 13 -8 19.5t-32 11.5
q-10 2 -10 9t9 7l21 -3q21 -3 35 -3q15 0 36 3t22 3q7 0 7 -7t-11 -9q-19 -4 -30 -16t-25 -44l-158 -363q-32 -78 -65 -121.5t-78 -43.5q-54 0 -54 42q0 18 10.5 28t25.5 10z" />
    <glyph glyph-name="Amacron" unicode="&#x100;" horiz-adv-x="637" 
d="M215 754q5 0 37.5 -1t48.5 -1q20 0 57.5 1t43.5 1q12 0 12 -9q0 -20 -15 -20q-16 0 -47.5 1t-46.5 1q-14 0 -49.5 -1t-44.5 -1q-12 0 -12 10q0 19 16 19zM461 -5q-10 0 -10 6t17 10q36 12 36 44q0 17 -45 138q-3 8 -13 10q-17 3 -156 3q-108 0 -122 -3q-8 -1 -11 -10
l-32 -87q-8 -24 -8 -41q0 -38 48 -55q15 -3 15 -9q0 -7 -9 -7q-1 0 -33.5 3t-52.5 3q-16 0 -39 -3t-25 -3q-10 0 -10 7q0 6 15 10q32 11 44 27.5t40 82.5q71 175 162 432q12 34 12 37q0 13 -27 23q-11 3 -11 9q0 8 10 8q25 0 43 5t26 9.5t10 4.5q8 0 8 -7q0 -2 -3.5 -7
t-3.5 -9q0 -9 7 -28l191 -504q16 -43 27 -57.5t32 -20.5q26 -7 26 -14t-9 -7q-4 0 -31 2.5t-42 2.5q-14 0 -43.5 -2.5t-32.5 -2.5zM295 221q108 0 143 5q7 0 7 4q0 2 -2 8l-136 358q-1 2 -2 2t-1 -1l-133 -363q-1 -2 -1 -6q0 -3 4 -4q14 -3 121 -3z" />
    <glyph glyph-name="amacron" unicode="&#x101;" horiz-adv-x="457" 
d="M116 504q-12 0 -12 10q0 19 16 19q5 0 37.5 -1t48.5 -1q20 0 57.5 1t43.5 1q12 0 12 -9q0 -20 -15 -20q-16 0 -47.5 1t-46.5 1q-14 0 -49.5 -1t-44.5 -1zM433 38q7 0 7 -9q0 -20 -12.5 -32t-34.5 -12q-29 0 -42 17t-13 53v44q-22 -54 -69 -84t-96 -30q-60 0 -93.5 25.5
t-33.5 69.5q0 37 21.5 63t63 41t90.5 22t117 10v17q0 157 -135 157q-43 0 -68.5 -14.5t-25.5 -34.5q0 -9 8.5 -21t8.5 -23q0 -13 -9 -21.5t-25 -8.5q-34 0 -34 41q0 36 39 66t110 30q167 0 167 -178v-173q0 -48 25 -48q23 0 26 23q1 10 8 10zM175 -1q66 0 114.5 48.5
t48.5 135.5v22q-171 -7 -220 -46q-34 -26 -34 -74q0 -86 91 -86z" />
    <glyph glyph-name="Abreve" unicode="&#x102;" horiz-adv-x="637" 
d="M306 692q-54 0 -83.5 26.5t-29.5 57.5q0 11 7 11q6 0 9 -9q18 -55 97 -55q81 0 97 55q3 9 9 9q7 0 7 -10q0 -32 -29.5 -58.5t-83.5 -26.5zM593 16q26 -7 26 -14t-9 -7q-4 0 -31 2.5t-42 2.5q-14 0 -43.5 -2.5t-32.5 -2.5q-10 0 -10 6t17 10q36 12 36 44q0 17 -45 138
q-3 8 -13 10q-17 3 -156 3q-108 0 -122 -3q-8 -1 -11 -10l-32 -87q-8 -24 -8 -41q0 -38 48 -55q15 -3 15 -9q0 -7 -9 -7q-1 0 -33.5 3t-52.5 3q-16 0 -39 -3t-25 -3q-10 0 -10 7q0 6 15 10q32 11 44 27.5t40 82.5q71 175 162 432q12 34 12 37q0 13 -27 23q-11 3 -11 9
q0 8 10 8q25 0 43 5t26 9.5t10 4.5q8 0 8 -7q0 -2 -3.5 -7t-3.5 -9q0 -9 7 -28l191 -504q16 -43 27 -57.5t32 -20.5zM438 226q7 0 7 4q0 2 -2 8l-136 358q-1 2 -2 2t-1 -1l-133 -363q-1 -2 -1 -6q0 -3 4 -4q14 -3 121 -3q108 0 143 5z" />
    <glyph glyph-name="abreve" unicode="&#x103;" horiz-adv-x="457" 
d="M211 502q-56 0 -84.5 29.5t-28.5 74.5q0 11 7 11q6 0 9 -9q7 -39 27.5 -57t69.5 -18t69.5 18.5t27.5 56.5q3 9 9 9q7 0 7 -10q0 -46 -28.5 -75.5t-84.5 -29.5zM433 38q7 0 7 -9q0 -20 -12.5 -32t-34.5 -12q-29 0 -42 17t-13 53v44q-22 -54 -69 -84t-96 -30
q-60 0 -93.5 25.5t-33.5 69.5q0 37 21.5 63t63 41t90.5 22t117 10v17q0 157 -135 157q-43 0 -68.5 -14.5t-25.5 -34.5q0 -9 8.5 -21t8.5 -23q0 -13 -9 -21.5t-25 -8.5q-34 0 -34 41q0 36 39 66t110 30q167 0 167 -178v-173q0 -48 25 -48q23 0 26 23q1 10 8 10zM175 -1
q66 0 114.5 48.5t48.5 135.5v22q-171 -7 -220 -46q-34 -26 -34 -74q0 -86 91 -86z" />
    <glyph glyph-name="Aogonek" unicode="&#x104;" horiz-adv-x="637" 
d="M593 16q26 -7 26 -14t-9 -7q-4 0 -31 2.5t-42 2.5q-13 0 -42 -2.5t-33 -2.5l-19 -14q-41 -32 -61 -60t-20 -61q0 -61 57 -61q16 0 36.5 9t22.5 9q3 0 3 -3t-4 -8q-32 -28 -74 -28q-39 0 -60.5 20t-21.5 55q0 43 32.5 78t99.5 75q3 2 15 5q36 12 36 44q0 17 -45 138
q-3 8 -13 10q-17 3 -156 3q-108 0 -122 -3q-8 -1 -11 -10l-32 -87q-8 -24 -8 -41q0 -38 48 -55q15 -3 15 -9q0 -7 -9 -7q-1 0 -33.5 3t-52.5 3q-16 0 -39 -3t-25 -3q-10 0 -10 7q0 6 15 10q32 11 44 27.5t40 82.5q71 175 162 432q12 34 12 37q0 13 -27 23q-11 3 -11 9
q0 8 10 8q25 0 43 5t26 9.5t10 4.5q8 0 8 -7q0 -2 -3.5 -7t-3.5 -9q0 -9 7 -28l191 -504q16 -43 27 -57.5t32 -20.5zM438 226q7 0 7 4q0 2 -2 8l-136 358q-1 2 -2 2t-1 -1l-133 -363q-1 -2 -1 -6q0 -3 4 -4q14 -3 121 -3q108 0 143 5z" />
    <glyph glyph-name="aogonek" unicode="&#x105;" horiz-adv-x="457" 
d="M440 -179q3 0 3 -3t-4 -8q-32 -28 -74 -28q-39 0 -60.5 20t-21.5 55q0 66 95 129q-40 9 -40 69v44q-22 -54 -69 -84t-96 -30q-60 0 -93.5 25.5t-33.5 69.5q0 37 21.5 63t63 41t90.5 22t117 10v17q0 157 -135 157q-43 0 -68.5 -14.5t-25.5 -34.5q0 -9 8.5 -21t8.5 -23
q0 -13 -9 -21.5t-25 -8.5q-34 0 -34 41q0 36 39 66t110 30q167 0 167 -178v-173q0 -48 25 -48q7 0 9 1t4 2.5t3 1.5h2q7 7 8 18q1 10 8 10t7 -9q0 -11 -4 -19h3l-4 -3q-8 -15 -28 -20l-2 -2q-41 -32 -61 -60t-20 -61q0 -61 57 -61q16 0 36.5 9t22.5 9zM175 -1
q66 0 114.5 48.5t48.5 135.5v22q-171 -7 -220 -46q-34 -26 -34 -74q0 -86 91 -86z" />
    <glyph glyph-name="Cacute" unicode="&#x106;" horiz-adv-x="634" 
d="M250 680q-4 0 -4 5q0 2 4 6q24 14 52 30.5t43.5 26t33.5 20t27 15.5t19 10t15.5 6.5t9.5 1.5q10 0 17.5 -7t7.5 -20q0 -18 -30 -29q-128 -47 -186 -63zM582 219q8 0 8 -7q0 -2 -1 -37t-2 -87.5t-1 -96.5q0 -7 -8 -7t-9 23q-1 24 -4.5 31.5t-12.5 7.5q-11 0 -38 -15
t-73.5 -30.5t-105.5 -15.5q-123 0 -204 94.5t-81 234.5t83 235t206 95q48 0 89.5 -13t67 -25.5t33.5 -12.5q6 0 9 6t5 26q3 19 11 19t8 -9q0 -54 5 -108q4 -42 8.5 -72.5t6.5 -42.5t2 -14q0 -6 -6 -6q-9 0 -11 9l-7 27q-26 107 -80 154.5t-141 47.5q-44 0 -85 -16
t-78.5 -50.5t-60 -99t-22.5 -150.5t22.5 -150t59.5 -98.5t77 -50.5t83 -16q104 0 159.5 41t70.5 125l7 44q3 10 10 10z" />
    <glyph glyph-name="cacute" unicode="&#x107;" horiz-adv-x="434" 
d="M165 451q-5 -1 -6 3q0 2 2 6q27 28 56.5 59t43.5 46t28.5 29.5t22 20.5t12.5 7q24 5 32 -20q4 -16 -22 -36q-100 -73 -165 -113zM399 127q6 0 6 -6v-2q-11 -57 -53 -95.5t-121 -38.5q-83 0 -136 58.5t-53 150.5q0 95 58.5 152.5t132.5 57.5q45 0 82 -12.5t38 -12.5
q12 0 18 17q3 8 9 8q7 0 7 -9q0 -37 2.5 -69t5.5 -49t3 -18q0 -8 -8 -8q-6 0 -9 10q-19 73 -53.5 101t-96.5 28q-24 0 -48 -9t-48.5 -29t-40 -60.5t-15.5 -94.5q0 -89 46 -140t112 -51q119 0 154 113q3 8 8 8z" />
    <glyph glyph-name="Cdotaccent" unicode="&#x10a;" horiz-adv-x="634" 
d="M351 699q-17 0 -28 11.5t-11 29.5t11 29t28 11q18 0 29 -11t11 -29q0 -19 -11 -30t-29 -11zM582 219q8 0 8 -7q0 -2 -1 -37t-2 -87.5t-1 -96.5q0 -7 -8 -7t-9 23q-1 24 -4.5 31.5t-12.5 7.5q-11 0 -38 -15t-73.5 -30.5t-105.5 -15.5q-123 0 -204 94.5t-81 234.5t83 235
t206 95q48 0 89.5 -13t67 -25.5t33.5 -12.5q6 0 9 6t5 26q3 19 11 19t8 -9q0 -54 5 -108q4 -42 8.5 -72.5t6.5 -42.5t2 -14q0 -6 -6 -6q-9 0 -11 9l-7 27q-26 107 -80 154.5t-141 47.5q-44 0 -85 -16t-78.5 -50.5t-60 -99t-22.5 -150.5t22.5 -150t59.5 -98.5t77 -50.5
t83 -16q104 0 159.5 41t70.5 125l7 44q3 10 10 10z" />
    <glyph glyph-name="cdotaccent" unicode="&#x10b;" horiz-adv-x="434" 
d="M238 549q-17 0 -28 11.5t-11 29.5t11 29t28 11q18 0 29 -11t11 -29q0 -19 -11 -30t-29 -11zM399 127q6 0 6 -6v-2q-11 -57 -53 -95.5t-121 -38.5q-83 0 -136 58.5t-53 150.5q0 95 58.5 152.5t132.5 57.5q45 0 82 -12.5t38 -12.5q12 0 18 17q3 8 9 8q7 0 7 -9
q0 -37 2.5 -69t5.5 -49t3 -18q0 -8 -8 -8q-6 0 -9 10q-19 73 -53.5 101t-96.5 28q-24 0 -48 -9t-48.5 -29t-40 -60.5t-15.5 -94.5q0 -89 46 -140t112 -51q119 0 154 113q3 8 8 8z" />
    <glyph glyph-name="Ccaron" unicode="&#x10c;" horiz-adv-x="634" 
d="M226 822q3 0 7 -1.5t12.5 -8t19 -14t33.5 -24t49 -34.5h2q20 14 38.5 27t29.5 21t20 14.5t14 10t9 6t6 3t4 0.5q7 0 7 -7t-59 -61q-6 -5 -9 -8.5t-9 -8.5t-11 -10q-3 -3 -9 -8.5t-8.5 -8t-7 -6t-8.5 -5t-8 -1.5q-3 0 -7 1.5t-6.5 3t-7 5.5t-7 6t-7.5 7.5t-8 8.5
q-81 75 -84 80q-2 3 -2 5q0 7 7 7zM582 219q8 0 8 -7q0 -2 -1 -37t-2 -87.5t-1 -96.5q0 -7 -8 -7t-9 23q-1 24 -4.5 31.5t-12.5 7.5q-11 0 -38 -15t-73.5 -30.5t-105.5 -15.5q-123 0 -204 94.5t-81 234.5t83 235t206 95q48 0 89.5 -13t67 -25.5t33.5 -12.5q6 0 9 6t5 26
q3 19 11 19t8 -9q0 -54 5 -108q4 -42 8.5 -72.5t6.5 -42.5t2 -14q0 -6 -6 -6q-9 0 -11 9l-7 27q-26 107 -80 154.5t-141 47.5q-44 0 -85 -16t-78.5 -50.5t-60 -99t-22.5 -150.5t22.5 -150t59.5 -98.5t77 -50.5t83 -16q104 0 159.5 41t70.5 125l7 44q3 10 10 10z" />
    <glyph glyph-name="ccaron" unicode="&#x10d;" horiz-adv-x="434" 
d="M116 590q2 0 4 -0.5t4.5 -2.5t5.5 -4t8.5 -6.5t11 -9.5t15 -13t19 -16.5t24 -21t29.5 -25.5h2q111 95 112 96q5 3 9 3q7 0 7 -7t-12 -21.5t-77 -85.5l-9.5 -9.5t-7.5 -6t-10 -4t-13 -0.5q-11 0 -18 3t-10 6l-14 14q-13 14 -33 36q-52 60 -54 68q0 7 7 7zM399 127
q6 0 6 -6v-2q-11 -57 -53 -95.5t-121 -38.5q-83 0 -136 58.5t-53 150.5q0 95 58.5 152.5t132.5 57.5q45 0 82 -12.5t38 -12.5q12 0 18 17q3 8 9 8q7 0 7 -9q0 -37 2.5 -69t5.5 -49t3 -18q0 -8 -8 -8q-6 0 -9 10q-19 73 -53.5 101t-96.5 28q-24 0 -48 -9t-48.5 -29t-40 -60.5
t-15.5 -94.5q0 -89 46 -140t112 -51q119 0 154 113q3 8 8 8z" />
    <glyph glyph-name="Dcaron" unicode="&#x10e;" horiz-adv-x="681" 
d="M270 730q-81 75 -84 80q-2 3 -2 5q0 7 7 7q3 0 7 -1.5t12.5 -8t19 -14t33.5 -24t49 -34.5h2q20 14 38.5 27t29.5 21t20 14.5t14 10t9 6t6 3t4 0.5q7 0 7 -7t-59 -61q-6 -5 -9 -8.5t-9 -8.5t-11 -10q-3 -3 -9 -8.5t-8.5 -8t-7 -6t-8.5 -5t-8 -1.5q-3 0 -7 1.5t-6.5 3
t-7 5.5t-7 6t-7.5 7.5t-8 8.5zM284 639q151 0 249 -93t98 -229q0 -137 -98 -232.5t-249 -95.5q-33 0 -84 6t-67 6q-8 0 -30.5 -1.5t-25.5 -1.5q-7 0 -7 6q0 2 0.5 3t3 2l5 2t7.5 2.5t9 3.5q16 6 18.5 47t2.5 257q0 195 -3.5 240t-20.5 53q-4 2 -10 4q-12 4 -12 9q0 6 7 6
q1 0 21.5 -1.5t34.5 -1.5q10 0 67.5 4.5t83.5 4.5zM284 2q132 0 218 79.5t86 235.5q0 157 -85.5 232.5t-218.5 75.5q-117 0 -127 -33q-7 -20 -7 -271q0 -267 9 -289q12 -30 125 -30z" />
    <glyph glyph-name="dcaron" unicode="&#x10f;" horiz-adv-x="558" 
d="M458 22q15 -3 15 -7q0 -7 -12 -8q-28 -3 -52.5 -10t-28.5 -7q-6 0 -6 7q0 2 1 14.5t2 32t1 40.5h-1q-42 -99 -150 -99q-77 0 -131 57.5t-54 146.5q0 96 54 155.5t131 59.5q103 0 145 -80h1v150q0 56 -2.5 79.5t-7.5 31t-19 11.5q-30 11 -31 15q0 6 11 7q27 2 45.5 10
t26.5 14.5t11 6.5q6 0 6 -6q0 -1 -2 -17.5t-4 -54t-2 -90.5v-400q0 -28 13.5 -40.5t39.5 -18.5zM492 640q60 0 60 -76q0 -47 -31 -75.5t-56 -28.5q-9 0 -9 8q0 7 11 10q29 10 46.5 31.5t17.5 53.5q0 22 -8 22q-2 0 -13.5 -10.5t-24.5 -10.5q-16 0 -26.5 10t-10.5 26
q0 18 13 29t31 11zM226 2q67 0 108.5 48.5t42.5 138.5q3 201 -151 201q-61 0 -103 -48.5t-42 -152.5q0 -94 43.5 -140.5t101.5 -46.5z" />
    <glyph glyph-name="Dcroat" unicode="&#x110;" horiz-adv-x="681" 
d="M284 639q151 0 249 -93t98 -229q0 -137 -98 -232.5t-249 -95.5q-33 0 -84 6t-67 6q-8 0 -30.5 -1.5t-25.5 -1.5q-7 0 -7 6q0 2 0.5 3t3 2l5 2t7.5 2.5t9 3.5q16 6 18.5 47t2.5 240q-18 -1 -45 -1q-11 0 -11 13q0 16 14 16q6 0 42 -2q0 188 -3.5 232t-20.5 52q-4 2 -10 4
q-12 4 -12 9q0 6 7 6q1 0 21.5 -1.5t34.5 -1.5q10 0 67.5 4.5t83.5 4.5zM284 2q132 0 218 79.5t86 235.5q0 157 -85.5 232.5t-218.5 75.5q-117 0 -127 -33q-7 -20 -7 -263h13q26 0 77.5 1.5t60.5 1.5q13 0 13 -13q0 -7 -4 -12t-10 -4q-68 3 -134 3q-10 0 -16 -1
q0 -252 9 -273q12 -30 125 -30z" />
    <glyph glyph-name="dcroat" unicode="&#x111;" horiz-adv-x="487" 
d="M458 22q15 -3 15 -7q0 -7 -12 -8q-28 -3 -52.5 -10t-28.5 -7q-6 0 -6 7q0 2 1 14.5t2 32t1 40.5h-1q-42 -99 -150 -99q-77 0 -131 57.5t-54 146.5q0 96 54 155.5t131 59.5q103 0 145 -80h1v147h-108q-11 0 -11 12q0 11 11 11h108q-1 46 -3.5 66t-7.5 26t-18 10
q-30 11 -31 15q0 6 11 7q27 2 45.5 10t26.5 14.5t11 6.5q6 0 6 -6q0 -1 -2 -16.5t-4 -50t-2 -82.5h29q14 0 14 -11q0 -12 -14 -12h-29v-390q0 -28 13.5 -40.5t39.5 -18.5zM226 2q67 0 108.5 48.5t42.5 138.5q3 201 -151 201q-61 0 -103 -48.5t-42 -152.5q0 -94 43.5 -140.5
t101.5 -46.5z" />
    <glyph glyph-name="Emacron" unicode="&#x112;" horiz-adv-x="544" 
d="M198 725q-12 0 -12 10q0 19 16 19q5 0 37.5 -1t48.5 -1q20 0 57.5 1t43.5 1q12 0 12 -9q0 -20 -15 -20q-16 0 -47.5 1t-46.5 1q-14 0 -49.5 -1t-44.5 -1zM507 156l-3 -18q-2 -18 -5 -44t-3 -48q0 -12 3.5 -26.5t3.5 -16.5q0 -6 -7 -6q-6 0 -40.5 0.5t-99.5 1.5t-144 1
q-40 0 -71.5 -0.5t-46.5 -1.5t-16 -1q-8 0 -8 6q0 2 0.5 3t2.5 2t4 1.5t6 2t7 2.5q24 8 31 27q12 30 12 210v64q0 227 -10 263q-6 25 -27 33l-6 2q-20 7 -20 14q0 6 8 6q2 0 36 -1.5t57 -1.5q87 0 158 1t109 1.5t45 0.5t7 -6q0 -2 -3.5 -16.5t-3.5 -26.5q0 -17 2.5 -37.5
t5 -34t2.5 -14.5q0 -8 -6 -8q-8 0 -11 11q-19 78 -47.5 97t-122.5 19q-68 0 -93 -4t-34 -15q-8 -10 -10 -47.5t-2 -186.5l1 1q0 -18 15 -22t70 -4q68 0 88 17t29 71q1 8 9 8q6 0 6 -7q0 -2 -1.5 -15.5t-3 -36t-1.5 -45.5q0 -26 1.5 -48t3 -34t1.5 -14q0 -7 -6 -7q-7 2 -8 9
q-5 53 -27 70.5t-91 17.5q-56 0 -70.5 -4.5t-14.5 -22.5q0 -112 2 -170.5t5 -72.5t8 -21q9 -12 30.5 -16.5t81.5 -4.5q116 0 148.5 22.5t45.5 116.5q1 12 11 12q7 0 7 -8z" />
    <glyph glyph-name="emacron" unicode="&#x113;" horiz-adv-x="441" 
d="M135 504q-12 0 -12 10q0 19 16 19q5 0 37.5 -1t48.5 -1q20 0 57.5 1t43.5 1q12 0 12 -9q0 -20 -15 -20q-16 0 -47.5 1t-46.5 1q-14 0 -49.5 -1t-44.5 -1zM400 117q5 0 5 -5q0 -3 -2 -9q-15 -49 -59 -83.5t-110 -34.5q-89 0 -140.5 62t-51.5 147q0 88 53.5 149t140.5 61
q73 0 118 -42.5t45 -103.5q0 -16 -4.5 -21t-18.5 -5l-294 1q-2 -24 -2 -36q0 -86 42.5 -139t116.5 -53q61 0 102.5 34t52.5 72q1 6 6 6zM234 390q-59 0 -98.5 -38t-50.5 -102l273 2q6 0 6 10q0 50 -34.5 89t-95.5 39z" />
    <glyph glyph-name="Edotaccent" unicode="&#x116;" horiz-adv-x="544" 
d="M297 699q-17 0 -28 11.5t-11 29.5t11 29t28 11q18 0 29 -11t11 -29q0 -19 -11 -30t-29 -11zM507 156l-3 -18q-2 -18 -5 -44t-3 -48q0 -12 3.5 -26.5t3.5 -16.5q0 -6 -7 -6q-6 0 -40.5 0.5t-99.5 1.5t-144 1q-40 0 -71.5 -0.5t-46.5 -1.5t-16 -1q-8 0 -8 6q0 2 0.5 3
t2.5 2t4 1.5t6 2t7 2.5q24 8 31 27q12 30 12 210v64q0 227 -10 263q-6 25 -27 33l-6 2q-20 7 -20 14q0 6 8 6q2 0 36 -1.5t57 -1.5q87 0 158 1t109 1.5t45 0.5t7 -6q0 -2 -3.5 -16.5t-3.5 -26.5q0 -17 2.5 -37.5t5 -34t2.5 -14.5q0 -8 -6 -8q-8 0 -11 11q-19 78 -47.5 97
t-122.5 19q-68 0 -93 -4t-34 -15q-8 -10 -10 -47.5t-2 -186.5l1 1q0 -18 15 -22t70 -4q68 0 88 17t29 71q1 8 9 8q6 0 6 -7q0 -2 -1.5 -15.5t-3 -36t-1.5 -45.5q0 -26 1.5 -48t3 -34t1.5 -14q0 -7 -6 -7q-7 2 -8 9q-5 53 -27 70.5t-91 17.5q-56 0 -70.5 -4.5t-14.5 -22.5
q0 -112 2 -170.5t5 -72.5t8 -21q9 -12 30.5 -16.5t81.5 -4.5q116 0 148.5 22.5t45.5 116.5q1 12 11 12q7 0 7 -8z" />
    <glyph glyph-name="edotaccent" unicode="&#x117;" horiz-adv-x="441" 
d="M230 549q-17 0 -28 11.5t-11 29.5t11 29t28 11q18 0 29 -11t11 -29q0 -19 -11 -30t-29 -11zM400 117q5 0 5 -5q0 -3 -2 -9q-15 -49 -59 -83.5t-110 -34.5q-89 0 -140.5 62t-51.5 147q0 88 53.5 149t140.5 61q73 0 118 -42.5t45 -103.5q0 -16 -4.5 -21t-18.5 -5l-294 1
q-2 -24 -2 -36q0 -86 42.5 -139t116.5 -53q61 0 102.5 34t52.5 72q1 6 6 6zM234 390q-59 0 -98.5 -38t-50.5 -102l273 2q6 0 6 10q0 50 -34.5 89t-95.5 39z" />
    <glyph glyph-name="Eogonek" unicode="&#x118;" horiz-adv-x="544" 
d="M504 -191q3 0 3 -3t-4 -8q-32 -28 -74 -28q-39 0 -60.5 20t-21.5 55q0 43 32 78t99 74q-111 3 -266 3q-40 0 -71.5 -0.5t-46.5 -1.5t-16 -1q-8 0 -8 6q0 2 0.5 3t2.5 2t4 1.5t6 2t7 2.5q24 8 31 27q12 30 12 210v64q0 227 -10 263q-6 25 -27 33l-6 2q-20 7 -20 14
q0 6 8 6q2 0 36 -1.5t57 -1.5q87 0 158 1t109 1.5t45 0.5t7 -6q0 -2 -3.5 -16.5t-3.5 -26.5q0 -17 2.5 -37.5t5 -34t2.5 -14.5q0 -8 -6 -8q-8 0 -11 11q-19 78 -47.5 97t-122.5 19q-68 0 -93 -4t-34 -15q-8 -10 -10 -47.5t-2 -186.5l1 1q0 -18 15 -22t70 -4q68 0 88 17
t29 71q1 8 9 8q6 0 6 -7q0 -2 -1.5 -15.5t-3 -36t-1.5 -45.5q0 -26 1.5 -48t3 -34t1.5 -14q0 -7 -6 -7q-7 2 -8 9q-5 53 -27 70.5t-91 17.5q-56 0 -70.5 -4.5t-14.5 -22.5q0 -112 2 -170.5t5 -72.5t8 -21q9 -12 30.5 -16.5t81.5 -4.5q116 0 148.5 22.5t45.5 116.5
q1 12 11 12q7 0 7 -8l-3 -18q-2 -18 -5 -44t-3 -48q0 -12 3.5 -26.5t3.5 -16.5q0 -4 -2 -5h2l-34 -25q-41 -32 -61 -60t-20 -61q0 -61 57 -61q16 0 36.5 9t22.5 9z" />
    <glyph glyph-name="eogonek" unicode="&#x119;" horiz-adv-x="441" 
d="M400 117q5 0 5 -5q0 -3 -2 -9q-13 -45 -49 -75h1l-5 -3q-6 -6 -15 -12l-14 -10q-41 -32 -61 -60t-20 -61q0 -61 57 -61q16 0 36.5 9t22.5 9q3 0 3 -3t-4 -8q-32 -28 -74 -28q-39 0 -60.5 20t-21.5 55q0 60 72 113q-18 -3 -37 -3q-89 0 -140.5 62t-51.5 147q0 88 53.5 149
t140.5 61q73 0 118 -42.5t45 -103.5q0 -16 -4.5 -21t-18.5 -5l-294 1q-2 -24 -2 -36q0 -86 42.5 -139t116.5 -53q61 0 102.5 34t52.5 72q1 6 6 6zM234 390q-59 0 -98.5 -38t-50.5 -102l273 2q6 0 6 10q0 50 -34.5 89t-95.5 39z" />
    <glyph glyph-name="Ecaron" unicode="&#x11a;" horiz-adv-x="544" 
d="M251 730q-81 75 -84 80q-2 3 -2 5q0 7 7 7q3 0 7 -1.5t12.5 -8t19 -14t33.5 -24t49 -34.5h2q20 14 38.5 27t29.5 21t20 14.5t14 10t9 6t6 3t4 0.5q7 0 7 -7t-59 -61q-6 -5 -9 -8.5t-9 -8.5t-11 -10q-3 -3 -9 -8.5t-8.5 -8t-7 -6t-8.5 -5t-8 -1.5q-3 0 -7 1.5t-6.5 3
t-7 5.5t-7 6t-7.5 7.5t-8 8.5zM507 156l-3 -18q-2 -18 -5 -44t-3 -48q0 -12 3.5 -26.5t3.5 -16.5q0 -6 -7 -6q-6 0 -40.5 0.5t-99.5 1.5t-144 1q-40 0 -71.5 -0.5t-46.5 -1.5t-16 -1q-8 0 -8 6q0 2 0.5 3t2.5 2t4 1.5t6 2t7 2.5q24 8 31 27q12 30 12 210v64q0 227 -10 263
q-6 25 -27 33l-6 2q-20 7 -20 14q0 6 8 6q2 0 36 -1.5t57 -1.5q87 0 158 1t109 1.5t45 0.5t7 -6q0 -2 -3.5 -16.5t-3.5 -26.5q0 -17 2.5 -37.5t5 -34t2.5 -14.5q0 -8 -6 -8q-8 0 -11 11q-19 78 -47.5 97t-122.5 19q-68 0 -93 -4t-34 -15q-8 -10 -10 -47.5t-2 -186.5l1 1
q0 -18 15 -22t70 -4q68 0 88 17t29 71q1 8 9 8q6 0 6 -7q0 -2 -1.5 -15.5t-3 -36t-1.5 -45.5q0 -26 1.5 -48t3 -34t1.5 -14q0 -7 -6 -7q-7 2 -8 9q-5 53 -27 70.5t-91 17.5q-56 0 -70.5 -4.5t-14.5 -22.5q0 -112 2 -170.5t5 -72.5t8 -21q9 -12 30.5 -16.5t81.5 -4.5
q116 0 148.5 22.5t45.5 116.5q1 12 11 12q7 0 7 -8z" />
    <glyph glyph-name="ecaron" unicode="&#x11b;" horiz-adv-x="441" 
d="M231 456q-11 0 -18 3t-10 6l-14 14q-13 14 -33 36q-52 60 -54 68q0 7 7 7q2 0 4 -0.5t4.5 -2.5t5.5 -4t8.5 -6.5t11 -9.5t15 -13t19 -16.5t24 -21t29.5 -25.5h2q111 95 112 96q5 3 9 3q7 0 7 -7t-12 -21.5t-77 -85.5l-9.5 -9.5t-7.5 -6t-10 -4t-13 -0.5zM400 117
q5 0 5 -5q0 -3 -2 -9q-15 -49 -59 -83.5t-110 -34.5q-89 0 -140.5 62t-51.5 147q0 88 53.5 149t140.5 61q73 0 118 -42.5t45 -103.5q0 -16 -4.5 -21t-18.5 -5l-294 1q-2 -24 -2 -36q0 -86 42.5 -139t116.5 -53q61 0 102.5 34t52.5 72q1 6 6 6zM234 390q-59 0 -98.5 -38
t-50.5 -102l273 2q6 0 6 10q0 50 -34.5 89t-95.5 39z" />
    <glyph glyph-name="Gbreve" unicode="&#x11e;" horiz-adv-x="649" 
d="M347 742q-56 0 -84.5 29.5t-28.5 74.5q0 11 7 11q6 0 9 -9q7 -39 27.5 -57t69.5 -18t69.5 18.5t27.5 56.5q3 9 9 9q7 0 7 -10q0 -46 -28.5 -75.5t-84.5 -29.5zM629 242q7 0 7 -5q0 -4 -8 -7t-18.5 -5.5t-13.5 -6.5q-10 -11 -10 -125v-94q0 -14 -8 -14q-6 0 -7 13
q-6 62 -19 62q-5 0 -19 -11.5t-32.5 -26t-58.5 -26t-91 -11.5q-133 0 -217 96.5t-84 235.5t86.5 235.5t214.5 96.5q49 0 87.5 -12.5t60.5 -24.5t30 -12q18 0 20 37q1 19 11 19q9 0 9 -9q0 -63 3.5 -112t7.5 -73.5t4 -28.5q0 -7 -8 -7t-10 9q-25 113 -77.5 156.5t-137.5 43.5
q-47 0 -90 -16.5t-81.5 -51.5t-61.5 -99.5t-23 -150.5q0 -162 74.5 -240.5t181.5 -78.5q87 0 143 36t56 100v33q0 34 -5 44t-25 17q-15 5 -15 10q0 6 7 6q2 0 23 -3t31 -3q15 0 38 2t25 2z" />
    <glyph glyph-name="gbreve" unicode="&#x11f;" horiz-adv-x="416" 
d="M199 502q-56 0 -84.5 29.5t-28.5 74.5q0 11 7 11q6 0 9 -9q7 -39 27.5 -57t69.5 -18t69.5 18.5t27.5 56.5q3 9 9 9q7 0 7 -10q0 -46 -28.5 -75.5t-84.5 -29.5zM248 5q148 0 148 -94q0 -58 -54 -91.5t-132 -33.5q-85 0 -135 29.5t-50 82.5q0 35 20 58t53 30q-48 14 -48 62
q0 70 102 82q-48 13 -78 48.5t-30 85.5q0 63 46.5 101.5t113.5 38.5q40 0 70 -13q6 45 29 69.5t54 24.5q46 0 46 -38q0 -14 -9 -23.5t-22 -9.5q-19 0 -30 19q-8 17 -21 17q-26 0 -34 -65q77 -39 77 -121q0 -63 -46.5 -102t-113.5 -39q-121 0 -121 -67q0 -26 16.5 -38.5
t56.5 -12.5h92zM82 264q0 -62 34.5 -94.5t87.5 -32.5t87.5 32.5t34.5 94.5t-34.5 94t-87.5 32t-87.5 -32t-34.5 -94zM212 -200q74 0 113 27.5t39 77.5q0 75 -102 75h-120q-79 -7 -79 -80q0 -47 38 -73.5t111 -26.5z" />
    <glyph glyph-name="Gdotaccent" unicode="&#x120;" horiz-adv-x="649" 
d="M350 699q-17 0 -28 11.5t-11 29.5t11 29t28 11q18 0 29 -11t11 -29q0 -19 -11 -30t-29 -11zM578 -15q-6 0 -7 13q-6 62 -19 62q-5 0 -19 -11.5t-32.5 -26t-58.5 -26t-91 -11.5q-133 0 -217 96.5t-84 235.5t86.5 235.5t214.5 96.5q49 0 87.5 -12.5t60.5 -24.5t30 -12
q18 0 20 37q1 19 11 19q9 0 9 -9q0 -63 3.5 -112t7.5 -73.5t4 -28.5q0 -7 -8 -7t-10 9q-25 113 -77.5 156.5t-137.5 43.5q-47 0 -90 -16.5t-81.5 -51.5t-61.5 -99.5t-23 -150.5q0 -162 74.5 -240.5t181.5 -78.5q87 0 143 36t56 100v33q0 34 -5 44t-25 17q-15 5 -15 10
q0 6 7 6q2 0 23 -3t31 -3q15 0 38 2t25 2q7 0 7 -5q0 -4 -8 -7t-18.5 -5.5t-13.5 -6.5q-10 -11 -10 -125v-94q0 -14 -8 -14z" />
    <glyph glyph-name="gdotaccent" unicode="&#x121;" horiz-adv-x="416" 
d="M200 509q-17 0 -28 11.5t-11 29.5t11 29t28 11q18 0 29 -11t11 -29q0 -19 -11 -30t-29 -11zM248 5q148 0 148 -94q0 -58 -54 -91.5t-132 -33.5q-85 0 -135 29.5t-50 82.5q0 35 20 58t53 30q-48 14 -48 62q0 70 102 82q-48 13 -78 48.5t-30 85.5q0 63 46.5 101.5
t113.5 38.5q40 0 70 -13q6 45 29 69.5t54 24.5q46 0 46 -38q0 -14 -9 -23.5t-22 -9.5q-19 0 -30 19q-8 17 -21 17q-26 0 -34 -65q77 -39 77 -121q0 -63 -46.5 -102t-113.5 -39q-121 0 -121 -67q0 -26 16.5 -38.5t56.5 -12.5h92zM82 264q0 -62 34.5 -94.5t87.5 -32.5
t87.5 32.5t34.5 94.5t-34.5 94t-87.5 32t-87.5 -32t-34.5 -94zM212 -200q74 0 113 27.5t39 77.5q0 75 -102 75h-120q-79 -7 -79 -80q0 -47 38 -73.5t111 -26.5z" />
    <glyph glyph-name="Gcommaaccent" unicode="&#x122;" horiz-adv-x="649" 
d="M578 -15q-6 0 -7 13q-6 62 -19 62q-5 0 -19 -11.5t-32.5 -26t-58.5 -26t-91 -11.5q-133 0 -217 96.5t-84 235.5t86.5 235.5t214.5 96.5q49 0 87.5 -12.5t60.5 -24.5t30 -12q18 0 20 37q1 19 11 19q9 0 9 -9q0 -63 3.5 -112t7.5 -73.5t4 -28.5q0 -7 -8 -7t-10 9
q-25 113 -77.5 156.5t-137.5 43.5q-47 0 -90 -16.5t-81.5 -51.5t-61.5 -99.5t-23 -150.5q0 -162 74.5 -240.5t181.5 -78.5q87 0 143 36t56 100v33q0 34 -5 44t-25 17q-15 5 -15 10q0 6 7 6q2 0 23 -3t31 -3q15 0 38 2t25 2q7 0 7 -5q0 -4 -8 -7t-18.5 -5.5t-13.5 -6.5
q-10 -11 -10 -125v-94q0 -14 -8 -14zM330 -239q-9 0 -9 8q0 7 10 10q65 21 65 85q0 22 -8 22q-2 0 -13.5 -10.5t-24.5 -10.5q-16 0 -26.5 10t-10.5 26q0 18 12.5 29t31.5 11q60 0 60 -76q0 -47 -31.5 -75.5t-55.5 -28.5z" />
    <glyph glyph-name="gcommaaccent" unicode="&#x123;" horiz-adv-x="416" 
d="M208 454q-59 0 -59 76q0 47 31 75.5t55 28.5q9 0 9 -8t-10 -10q-64 -21 -64 -85q0 -22 7 -22q2 0 13.5 10.5t24.5 10.5q16 0 26.5 -10t10.5 -26q0 -18 -12.5 -29t-31.5 -11zM248 5q148 0 148 -94q0 -58 -54 -91.5t-132 -33.5q-85 0 -135 29.5t-50 82.5q0 35 20 58t53 30
q-48 14 -48 62q0 70 102 82q-48 13 -78 48.5t-30 85.5q0 63 46.5 101.5t113.5 38.5q40 0 70 -13q6 45 29 69.5t54 24.5q46 0 46 -38q0 -14 -9 -23.5t-22 -9.5q-19 0 -30 19q-8 17 -21 17q-26 0 -34 -65q77 -39 77 -121q0 -63 -46.5 -102t-113.5 -39q-121 0 -121 -67
q0 -26 16.5 -38.5t56.5 -12.5h92zM82 264q0 -62 34.5 -94.5t87.5 -32.5t87.5 32.5t34.5 94.5t-34.5 94t-87.5 32t-87.5 -32t-34.5 -94zM212 -200q74 0 113 27.5t39 77.5q0 75 -102 75h-120q-79 -7 -79 -80q0 -47 38 -73.5t111 -26.5z" />
    <glyph glyph-name="Hbar" unicode="&#x126;" horiz-adv-x="758" 
d="M680 480q8 0 8 -12t-8 -12h-75v-135q0 -213 3.5 -258.5t26.5 -52.5q17 -4 17 -10t-7 -6q-3 0 -26 3t-31 3t-31 -3t-26 -3q-7 0 -7 6t17 10q23 7 26.5 52.5t3.5 258.5v135h-394v-135q0 -213 3.5 -258.5t26.5 -52.5q17 -4 17 -10t-7 -6q-3 0 -26 3t-31 3t-31 -3t-26 -3
q-7 0 -7 6t17 10q23 7 26.5 52.5t3.5 258.5v135h-65q-8 0 -8 12t8 12h65q-1 80 -7 107.5t-23 32.5q-17 4 -17 10t7 6q3 0 26 -3t31 -3t31 3t26 3q7 0 7 -6t-17 -10q-17 -5 -23 -32.5t-7 -107.5h394q-1 80 -7 107.5t-23 32.5q-17 4 -17 10t7 6q3 0 26 -3t31 -3t31 3t26 3
q7 0 7 -6t-17 -10q-17 -5 -23 -32.5t-7 -107.5h75zM374 321q134 0 165.5 3t31.5 18v-59q0 14 -30.5 17t-166.5 3t-166.5 -3t-30.5 -17v59q0 -15 30.5 -18t166.5 -3z" />
    <glyph glyph-name="hbar" unicode="&#x127;" horiz-adv-x="500" 
d="M444 12q12 -4 12 -10t-7 -6q-1 0 -21 2t-31 2q-9 0 -28 -2t-21 -2q-7 0 -7 6t10 9q18 5 25 20t7 62v151q0 138 -106 138q-63 0 -106.5 -52.5t-43.5 -144.5v-91v-21.5v-17.5v-13t1.5 -10.5t3.5 -7t6 -6t9 -3.5t12 -4q10 -3 10 -9t-7 -6q-3 0 -23 2t-30 2t-27 -2t-18 -2
q-7 0 -7 6t12 10q16 6 21 20t5 61v364h-75q-8 0 -8 12t8 12h75v57q0 35 -4.5 45t-22.5 16q-13 4 -16.5 6t-3.5 7q0 6 10 7q19 3 34 10.5t22.5 13.5t10.5 6q8 0 8 -7q-6 -36 -6 -82v-79h93q8 0 8 -12t-8 -12h-93v-181q18 60 58.5 94t91.5 34q70 0 104 -38.5t34 -122.5v-150
q0 -48 5 -62t24 -19z" />
    <glyph glyph-name="Itilde" unicode="&#x128;" horiz-adv-x="266" 
d="M26 704q-8 0 -6 9q7 80 57 80q25 0 63 -23q40 -21 56 -21q32 2 36 30q1 10 7 10q8 0 8 -11q0 -26 -15 -45.5t-41 -19.5q-19 0 -61 22q-40 21 -55 21q-16 -1 -26 -10t-14 -32q-3 -10 -9 -10zM76 -6q-7 0 -7 6q0 7 17 11q23 7 26.5 53t3.5 257q0 201 -3.5 246t-26.5 52
q-17 4 -17 10q0 7 7 7q1 0 20.5 -3t36.5 -3t36.5 3t20.5 3q7 0 7 -7q0 -6 -17 -10q-23 -7 -26.5 -52t-3.5 -246q0 -211 3.5 -257t26.5 -53q17 -4 17 -11q0 -6 -7 -6q-2 0 -23 3t-34 3t-34 -3t-23 -3z" />
    <glyph glyph-name="itilde" unicode="&#x129;" horiz-adv-x="247" 
d="M6 504q-8 0 -6 9q7 80 57 80q25 0 63 -23q40 -21 56 -21q32 2 36 30q1 10 7 10q8 0 8 -11q0 -26 -15 -45.5t-41 -19.5q-19 0 -61 22q-40 21 -55 21q-16 -1 -26 -10t-14 -32q-3 -10 -9 -10zM60 -4q-7 0 -7 6q0 7 10 8q33 6 40 17.5t7 56.5v209q0 40 -8 50.5t-46 18.5
q-8 2 -8 7t8 6q29 2 48 9.5t27 13.5t11 6q6 0 6 -7l-2 -22q-4 -32 -4 -80v-211q0 -45 7 -56.5t40 -17.5q10 -1 10 -8q0 -6 -7 -6q-3 0 -29 2t-39 2q-11 0 -35.5 -2t-28.5 -2z" />
    <glyph glyph-name="Imacron" unicode="&#x12a;" horiz-adv-x="266" 
d="M42 754q5 0 37.5 -1t48.5 -1q20 0 57.5 1t43.5 1q12 0 12 -9q0 -20 -15 -20q-16 0 -47.5 1t-46.5 1q-14 0 -49.5 -1t-44.5 -1q-12 0 -12 10q0 19 16 19zM76 -6q-7 0 -7 6q0 7 17 11q23 7 26.5 53t3.5 257q0 201 -3.5 246t-26.5 52q-17 4 -17 10q0 7 7 7q1 0 20.5 -3
t36.5 -3t36.5 3t20.5 3q7 0 7 -7q0 -6 -17 -10q-23 -7 -26.5 -52t-3.5 -246q0 -211 3.5 -257t26.5 -53q17 -4 17 -11q0 -6 -7 -6q-2 0 -23 3t-34 3t-34 -3t-23 -3z" />
    <glyph glyph-name="imacron" unicode="&#x12b;" horiz-adv-x="247" 
d="M22 533q5 0 37.5 -1t48.5 -1q20 0 57.5 1t43.5 1q12 0 12 -9q0 -20 -15 -20q-16 0 -47.5 1t-46.5 1q-14 0 -49.5 -1t-44.5 -1q-12 0 -12 10q0 19 16 19zM60 -4q-7 0 -7 6q0 7 10 8q33 6 40 17.5t7 56.5v209q0 40 -8 50.5t-46 18.5q-8 2 -8 7t8 6q29 2 48 9.5t27 13.5
t11 6q6 0 6 -7l-2 -22q-4 -32 -4 -80v-211q0 -45 7 -56.5t40 -17.5q10 -1 10 -8q0 -6 -7 -6q-3 0 -29 2t-39 2q-11 0 -35.5 -2t-28.5 -2z" />
    <glyph glyph-name="Iogonek" unicode="&#x12e;" horiz-adv-x="266" 
d="M180 11q17 -4 17 -11q0 -6 -7 -6q-2 0 -17 2t-26 3l-19 -14q-41 -32 -61 -60t-20 -61q0 -61 57 -61q16 0 36.5 9t22.5 9q3 0 3 -3t-4 -8q-32 -28 -74 -28q-39 0 -60.5 20t-21.5 55q0 41 28.5 74t86.5 68q-11 -1 -27 -3t-18 -2q-7 0 -7 6q0 7 17 11q23 7 26.5 53t3.5 257
q0 201 -3.5 246t-26.5 52q-17 4 -17 10q0 7 7 7q1 0 20.5 -3t36.5 -3t36.5 3t20.5 3q7 0 7 -7q0 -6 -17 -10q-23 -7 -26.5 -52t-3.5 -246q0 -211 3.5 -257t26.5 -53z" />
    <glyph glyph-name="iogonek" unicode="&#x12f;" horiz-adv-x="235" 
d="M106 553q-17 0 -28 11.5t-11 29.5t11 29t28 11q18 0 29 -11t11 -29q0 -19 -11 -30t-29 -11zM183 10q10 -1 10 -8q0 -6 -7 -6q-4 0 -18.5 1.5t-23.5 1.5l-23 -17q-41 -32 -61 -60t-20 -61q0 -61 57 -61q16 0 36.5 9t22.5 9q3 0 3 -3t-4 -8q-32 -28 -74 -28q-39 0 -60.5 20
t-21.5 55q0 41 29.5 75t90.5 71h-1q-11 0 -35.5 -2t-28.5 -2q-7 0 -7 6q0 7 10 8q33 6 40 17.5t7 56.5v209q0 40 -8 50.5t-46 18.5q-8 2 -8 7t8 6q29 2 48 9.5t27 13.5t11 6q6 0 6 -7l-2 -22q-4 -32 -4 -80v-211q0 -45 7 -56.5t40 -17.5z" />
    <glyph glyph-name="Idotaccent" unicode="&#x130;" horiz-adv-x="266" 
d="M137 699q-17 0 -28 11.5t-11 29.5t11 29t28 11q18 0 29 -11t11 -29q0 -19 -11 -30t-29 -11zM76 -6q-7 0 -7 6q0 7 17 11q23 7 26.5 53t3.5 257q0 201 -3.5 246t-26.5 52q-17 4 -17 10q0 7 7 7q1 0 20.5 -3t36.5 -3t36.5 3t20.5 3q7 0 7 -7q0 -6 -17 -10q-23 -7 -26.5 -52
t-3.5 -246q0 -211 3.5 -257t26.5 -53q17 -4 17 -11q0 -6 -7 -6q-2 0 -23 3t-34 3t-34 -3t-23 -3z" />
    <glyph glyph-name="dotlessi" unicode="&#x131;" horiz-adv-x="247" 
d="M60 -4q-7 0 -7 6q0 7 10 8q33 6 40 17.5t7 56.5v209q0 40 -8 50.5t-46 18.5q-8 2 -8 7t8 6q29 2 48 9.5t27 13.5t11 6q6 0 6 -7l-2 -22q-4 -32 -4 -80v-211q0 -45 7 -56.5t40 -17.5q10 -1 10 -8q0 -6 -7 -6q-3 0 -29 2t-39 2q-11 0 -35.5 -2t-28.5 -2z" />
    <glyph glyph-name="IJ" unicode="&#x132;" horiz-adv-x="512" 
d="M246 -15q-72 0 -113.5 41.5t-41.5 107.5q0 36 15.5 56t35.5 20q13 0 21 -8t8 -19q0 -16 -26.5 -36.5t-26.5 -46.5q0 -35 33 -68t95 -33q146 0 146 178v250q0 93 -3 128t-10.5 47.5t-29.5 17.5q-16 6 -16 11q0 6 7 6q4 0 28.5 -3.5t41.5 -3.5q16 0 40.5 3.5t26.5 3.5
q7 0 7 -6q0 -5 -10 -9q-4 -1 -7 -2q-20 -5 -27.5 -16t-10.5 -41.5t-3 -108.5v-233q0 -236 -180 -236zM76 307q-7 0 -7 6t17 10q22 7 26 35t4 123v14q0 66 -4.5 91t-25.5 31q-17 4 -17 10t7 6q2 0 25.5 -1.5t31.5 -1.5q9 0 32 1.5t25 1.5q7 0 7 -6t-17 -10
q-21 -6 -25.5 -30.5t-4.5 -91.5v-14v-18q0 -81 4.5 -107t25.5 -33q17 -4 17 -10t-7 -6q-2 0 -25 1.5t-32 1.5q-8 0 -31.5 -1.5t-25.5 -1.5z" />
    <glyph glyph-name="ij" unicode="&#x133;" horiz-adv-x="466" 
d="M106 553q-17 0 -28 11.5t-11 29.5t11 29t28 11q18 0 29 -11t11 -29q0 -19 -11 -30t-29 -11zM354 549q-17 0 -28 11.5t-11 29.5t11 29t28 11q18 0 29 -11t11 -29q0 -19 -11 -30t-29 -11zM54 -4q-7 0 -7 6q0 7 10 8q33 6 40 17.5t7 56.5v209q0 40 -8 50.5t-46 18.5
q-8 2 -8 7t8 6q29 2 48 9.5t27 13.5t11 6q6 0 6 -7l-2 -22q-4 -32 -4 -80v-211q0 -45 7 -56.5t40 -17.5q10 -1 10 -8q0 -6 -7 -6q-3 0 -29 2t-39 2q-11 0 -35.5 -2t-28.5 -2zM289 -215q-29 0 -52 16.5t-23 36.5q0 26 23 26q18 0 27 -29q10 -32 40 -32q46 0 46 65v65v356
q0 34 -10 44.5t-49 18.5q-17 4 -17 11t10 7q30 2 52 9.5t32 14t12 6.5q8 0 8 -7l-2 -22q-4 -32 -4 -80v-391q0 -54 -24.5 -84.5t-68.5 -30.5z" />
    <glyph glyph-name="Kcommaaccent" unicode="&#x136;" horiz-adv-x="608" 
d="M558 20q6 -2 12.5 -4.5t10 -3.5t6.5 -2.5t4.5 -3t1.5 -3.5q0 -6 -7 -6q-4 0 -34 1.5t-44 1.5q-20 0 -48.5 -1.5t-29.5 -1.5q-7 0 -7 5q0 6 12 9q37 11 37 21q0 6 -4.5 17.5t-15.5 30.5t-21.5 35.5t-31 47t-35 51t-42 60.5t-43.5 64q-6 7 -9 7q-5 0 -9 -4l-110 -116
q0 -135 5 -171t25 -43q17 -4 17 -11q0 -6 -7 -6q-2 0 -23 3t-34 3t-34 -3t-23 -3q-7 0 -7 6q0 7 17 11q23 7 26.5 53t3.5 257q0 201 -3.5 246t-26.5 52q-17 4 -17 10q0 7 7 7q1 0 20.5 -3t36.5 -3t36.5 3t20.5 3q7 0 7 -7q0 -6 -17 -10q-23 -7 -26.5 -52t-3.5 -246v-78
l247 263q39 42 51.5 58.5t12.5 27.5q0 16 -37 28q-9 3 -9 9q0 7 10 7q2 0 13.5 -1.5t28.5 -3t31 -1.5t30 1.5t27 3t12 1.5q9 0 9 -7q0 -5 -15 -9q-32 -8 -52 -22.5t-53 -48.5l-160 -169q188 -281 207 -306q35 -46 54 -54zM313 -59q60 0 60 -76q0 -47 -31.5 -75.5
t-55.5 -28.5q-9 0 -9 8q0 7 10 10q65 21 65 85q0 22 -8 22q-2 0 -13.5 -10.5t-24.5 -10.5q-16 0 -26.5 10t-10.5 26q0 18 12.5 29t31.5 11z" />
    <glyph glyph-name="kcommaaccent" unicode="&#x137;" horiz-adv-x="447" 
d="M383 28q9 -6 21.5 -11.5t20 -9t7.5 -7.5t-8 -4q-1 0 -22.5 2t-33.5 2q-11 0 -34 -2t-26 -2q-7 0 -7 5q0 2 12 8t12 15q0 5 -6.5 18t-19.5 33t-25.5 38.5t-30.5 44.5t-29 42q-12 18 -19 18q-5 0 -23 -17l-41 -38v-69v-21.5v-17.5v-13t1.5 -10.5t3.5 -7t6 -6t9 -3.5t12 -4
q10 -3 10 -9t-7 -6q-3 0 -23 2t-30 2t-27 -2t-18 -2q-7 0 -7 6t12 10q16 6 21 20t5 61v445q0 35 -4.5 45t-22.5 16q-13 4 -16.5 6t-3.5 7q0 6 10 7q19 3 34 10.5t22.5 13.5t10.5 6q8 0 8 -7q-6 -36 -6 -82v-379q18 17 39.5 37t34.5 32.5t28 26.5t24 23t18.5 18t14.5 14.5
t9.5 11t6 9t1.5 6.5q0 18 -19 23q-10 3 -10 10q0 5 7 5l22 -3q22 -4 35 -4q11 0 37 3t29 3q8 0 8 -7q0 -8 -16 -11q-32 -6 -56.5 -22t-72.5 -61l-48 -45q24 -36 52 -77t40.5 -60t27 -39t23 -30t17.5 -16zM232 -59q60 0 60 -76q0 -47 -31.5 -75.5t-55.5 -28.5q-9 0 -9 8
q0 7 10 10q65 21 65 85q0 22 -8 22q-2 0 -13.5 -10.5t-24.5 -10.5q-16 0 -26.5 10t-10.5 26q0 18 12.5 29t31.5 11z" />
    <glyph glyph-name="Lacute" unicode="&#x139;" horiz-adv-x="492" 
d="M119 680q-4 0 -4 5q0 2 4 6q24 14 52 30.5t43.5 26t33.5 20t27 15.5t19 10t15.5 6.5t9.5 1.5q10 0 17.5 -7t7.5 -20q0 -18 -30 -29q-128 -47 -186 -63zM126 630q15 0 34.5 3.5t22.5 3.5q7 0 7 -6q0 -2 -0.5 -3t-2.5 -2.5t-4 -2.5l-7 -3.5l-9 -4.5q-18 -9 -21 -53t-3 -261
q0 -179 1.5 -217t9.5 -50q15 -23 123 -23q93 0 127 29.5t50 119.5q2 9 7 9q6 0 6 -8q0 -6 -7.5 -53.5t-7.5 -66.5q0 -16 5 -27.5t5 -14.5q0 -6 -7 -6q-3 0 -29.5 1.5t-69 3.5t-85.5 2q-66 0 -111.5 -1t-63.5 -2.5t-19 -1.5q-7 0 -7 6q0 2 1.5 3t6.5 4.5t9 6.5q16 11 19 52
t3 234q0 223 -2 264t-18 50q-2 2 -5.5 3.5t-5 2.5t-3.5 2.5t-3 2.5t-1.5 2.5t-0.5 2.5q0 6 7 6q1 0 18 -3.5t31 -3.5z" />
    <glyph glyph-name="lacute" unicode="&#x13a;" horiz-adv-x="210" 
d="M20 680q-4 0 -4 5q0 2 4 6q24 14 52 30.5t43.5 26t33.5 20t27 15.5t19 10t15.5 6.5t9.5 1.5q10 0 17.5 -7t7.5 -20q0 -18 -30 -29q-128 -47 -186 -63zM52 -4q-7 0 -7 6t13 9q25 6 30.5 19t5.5 63v405q0 53 -6.5 73t-28.5 27q-26 7 -26 13t10 7q27 2 45.5 10t27 14.5
t11.5 6.5q6 0 6 -6q0 -2 -2 -17.5t-4 -48t-2 -75.5v-419q1 -42 7.5 -54t29.5 -18q10 -3 10 -8q0 -7 -7 -7q-3 0 -23 2t-30 2q-14 0 -37 -2z" />
    <glyph glyph-name="Lcommaaccent" unicode="&#x13b;" horiz-adv-x="492" 
d="M126 630q15 0 34.5 3.5t22.5 3.5q7 0 7 -6q0 -2 -0.5 -3t-2.5 -2.5t-4 -2.5l-7 -3.5l-9 -4.5q-18 -9 -21 -53t-3 -261q0 -179 1.5 -217t9.5 -50q15 -23 123 -23q93 0 127 29.5t50 119.5q2 9 7 9q6 0 6 -8q0 -6 -7.5 -53.5t-7.5 -66.5q0 -16 5 -27.5t5 -14.5q0 -6 -7 -6
q-3 0 -29.5 1.5t-69 3.5t-85.5 2q-66 0 -111.5 -1t-63.5 -2.5t-19 -1.5q-7 0 -7 6q0 2 1.5 3t6.5 4.5t9 6.5q16 11 19 52t3 234q0 223 -2 264t-18 50q-2 2 -5.5 3.5t-5 2.5t-3.5 2.5t-3 2.5t-1.5 2.5t-0.5 2.5q0 6 7 6q1 0 18 -3.5t31 -3.5zM242 -239q-9 0 -9 8q0 7 10 10
q65 21 65 85q0 22 -8 22q-2 0 -13.5 -10.5t-24.5 -10.5q-16 0 -26.5 10t-10.5 26q0 18 12.5 29t31.5 11q60 0 60 -76q0 -47 -31.5 -75.5t-55.5 -28.5z" />
    <glyph glyph-name="lcommaaccent" unicode="&#x13c;" horiz-adv-x="210" 
d="M52 -4q-7 0 -7 6t13 9q25 6 30.5 19t5.5 63v405q0 53 -6.5 73t-28.5 27q-26 7 -26 13t10 7q27 2 45.5 10t27 14.5t11.5 6.5q6 0 6 -6q0 -2 -2 -17.5t-4 -48t-2 -75.5v-419q1 -42 7.5 -54t29.5 -18q10 -3 10 -8q0 -7 -7 -7q-3 0 -23 2t-30 2q-14 0 -37 -2zM94 -239
q-9 0 -9 8q0 7 10 10q65 21 65 85q0 22 -8 22q-2 0 -13.5 -10.5t-24.5 -10.5q-16 0 -26.5 10t-10.5 26q0 18 12.5 29t31.5 11q60 0 60 -76q0 -47 -31.5 -75.5t-55.5 -28.5z" />
    <glyph glyph-name="Lcaron" unicode="&#x13d;" horiz-adv-x="492" 
d="M126 630q15 0 34.5 3.5t22.5 3.5q7 0 7 -6q0 -2 -0.5 -3t-2.5 -2.5t-4 -2.5l-7 -3.5l-9 -4.5q-18 -9 -21 -53t-3 -261q0 -179 1.5 -217t9.5 -50q15 -23 123 -23q93 0 127 29.5t50 119.5q2 9 7 9q6 0 6 -8q0 -6 -7.5 -53.5t-7.5 -66.5q0 -16 5 -27.5t5 -14.5q0 -6 -7 -6
q-3 0 -29.5 1.5t-69 3.5t-85.5 2q-66 0 -111.5 -1t-63.5 -2.5t-19 -1.5q-7 0 -7 6q0 2 1.5 3t6.5 4.5t9 6.5q16 11 19 52t3 234q0 223 -2 264t-18 50q-2 2 -5.5 3.5t-5 2.5t-3.5 2.5t-3 2.5t-1.5 2.5t-0.5 2.5q0 6 7 6q1 0 18 -3.5t31 -3.5zM295 451q-9 0 -9 8q0 6 10 10
q28 9 46 31t18 54q0 22 -7 22q-2 0 -14 -10.5t-25 -10.5q-16 0 -26 9.5t-10 25.5q0 18 12.5 29.5t31.5 11.5q59 0 59 -77q0 -47 -31 -75t-55 -28z" />
    <glyph glyph-name="lcaron" unicode="&#x13e;" horiz-adv-x="210" 
d="M52 -4q-7 0 -7 6t13 9q25 6 30.5 19t5.5 63v405q0 53 -6.5 73t-28.5 27q-26 7 -26 13t10 7q27 2 45.5 10t27 14.5t11.5 6.5q6 0 6 -6q0 -2 -2 -17.5t-4 -48t-2 -75.5v-419q1 -42 7.5 -54t29.5 -18q10 -3 10 -8q0 -7 -7 -7q-3 0 -23 2t-30 2q-14 0 -37 -2zM197 463
q-9 0 -9 8q0 7 10 11q64 20 64 85q0 22 -7 22q-2 0 -14 -11t-25 -11q-16 0 -26 10t-10 26q0 18 12.5 29.5t31.5 11.5q59 0 59 -77q0 -47 -31 -75.5t-55 -28.5z" />
    <glyph glyph-name="Ldot" unicode="&#x13f;" horiz-adv-x="492" 
d="M126 630q15 0 34.5 3.5t22.5 3.5q7 0 7 -6q0 -2 -0.5 -3t-2.5 -2.5t-4 -2.5l-7 -3.5l-9 -4.5q-18 -9 -21 -53t-3 -261q0 -179 1.5 -217t9.5 -50q15 -23 123 -23q93 0 127 29.5t50 119.5q2 9 7 9q6 0 6 -8q0 -6 -7.5 -53.5t-7.5 -66.5q0 -16 5 -27.5t5 -14.5q0 -6 -7 -6
q-3 0 -29.5 1.5t-69 3.5t-85.5 2q-66 0 -111.5 -1t-63.5 -2.5t-19 -1.5q-7 0 -7 6q0 2 1.5 3t6.5 4.5t9 6.5q16 11 19 52t3 234q0 223 -2 264t-18 50q-2 2 -5.5 3.5t-5 2.5t-3.5 2.5t-3 2.5t-1.5 2.5t-0.5 2.5q0 6 7 6q1 0 18 -3.5t31 -3.5zM308 359q17 0 27 -10.5t10 -27.5
t-10 -27.5t-27 -10.5q-15 0 -25.5 10.5t-10.5 27.5t10.5 27.5t25.5 10.5z" />
    <glyph glyph-name="ldot" unicode="&#x140;" horiz-adv-x="265" 
d="M52 -4q-7 0 -7 6t13 9q25 6 30.5 19t5.5 63v405q0 53 -6.5 73t-28.5 27q-26 7 -26 13t10 7q27 2 45.5 10t27 14.5t11.5 6.5q6 0 6 -6q0 -2 -2 -17.5t-4 -48t-2 -75.5v-419q1 -42 7.5 -54t29.5 -18q10 -3 10 -8q0 -7 -7 -7q-3 0 -23 2t-30 2q-14 0 -37 -2zM230 348
q17 0 27 -10.5t10 -27.5t-10 -27.5t-27 -10.5q-15 0 -25.5 10.5t-10.5 27.5t10.5 27.5t25.5 10.5z" />
    <glyph glyph-name="Lslash" unicode="&#x141;" horiz-adv-x="492" 
d="M467 161q0 -6 -7.5 -53.5t-7.5 -66.5q0 -16 5 -27.5t5 -14.5q0 -6 -7 -6q-3 0 -29.5 1.5t-69 3.5t-85.5 2q-66 0 -111.5 -1t-63.5 -2.5t-19 -1.5q-7 0 -7 6q0 2 1.5 3t6.5 4.5t9 6.5q16 11 19 52t3 234v2l-57 -23q-6 -3 -10 -3q-9 0 -9 11q0 6 8 9l68 27
q0 201 -2.5 241.5t-17.5 49.5q-2 2 -5.5 3.5t-5 2.5t-3.5 2.5t-3 2.5t-1.5 2.5t-0.5 2.5q0 6 7 6q1 0 18 -3.5t31 -3.5q15 0 34.5 3.5t22.5 3.5q7 0 7 -6q0 -2 -0.5 -3t-2.5 -2.5t-4 -2.5l-7 -3.5l-9 -4.5q-18 -9 -21 -49.5t-3 -227.5l89 36q2 1 6 1q9 0 9 -11q0 -6 -8 -9
l-96 -39v-15q0 -179 1.5 -217t9.5 -50q15 -23 123 -23q93 0 127 29.5t50 119.5q2 9 7 9q6 0 6 -8z" />
    <glyph glyph-name="lslash" unicode="&#x142;" horiz-adv-x="235" 
d="M203 373q4 -9 -5 -14l-73 -42v-234q1 -42 7.5 -54t29.5 -18q10 -3 10 -8q0 -7 -7 -7q-3 0 -23 2t-30 2q-14 0 -37 -2l-23 -2q-7 0 -7 6t13 9q25 6 30.5 19t5.5 63v206l-25 -14q-9 -5 -15 3q-4 9 5 14l35 20v176q0 53 -6.5 73t-28.5 27q-26 7 -26 13t10 7q27 2 45.5 10
t27 14.5t11.5 6.5q6 0 6 -6q0 -2 -2 -17.5t-4 -48t-2 -75.5v-162l63 36q9 5 15 -3z" />
    <glyph glyph-name="Nacute" unicode="&#x143;" horiz-adv-x="677" 
d="M287 680q-4 0 -4 5q0 2 4 6q24 14 52 30.5t43.5 26t33.5 20t27 15.5t19 10t15.5 6.5t9.5 1.5q10 0 17.5 -7t7.5 -20q0 -18 -30 -29q-128 -47 -186 -63zM579 -15q-9 0 -16 12q-23 38 -180 251t-250 335q-10 13 -12 13q-4 0 -4 -8v-468q0 -56 11 -78t48 -31q15 -4 15 -10
q0 -7 -9 -7q-2 0 -27 3t-45 3q-19 0 -42 -3t-27 -3q-9 0 -9 7q0 5 16 9q30 7 40.5 31t10.5 79v441q0 29 -6 39t-29 14q-39 5 -39 17q0 5 7 5q2 0 21 -3t28 -3q8 0 21 3t19 3q19 0 40 -28l404 -542q5 -8 7 -8t2 7v461q0 46 -10 65t-37 27q-20 7 -20 12q0 6 7 6l27 -3
q27 -3 41 -3q16 0 42 3l26 3q7 0 7 -5q0 -6 -17 -11q-26 -8 -37.5 -28.5t-11.5 -65.5v-521q0 -20 -12 -20z" />
    <glyph glyph-name="nacute" unicode="&#x144;" horiz-adv-x="501" 
d="M182 451q-4 -1 -6 3q0 2 2 6q27 28 56.5 59t43.5 46t28.5 29.5t22 20.5t12.5 7q24 5 32 -20q4 -16 -22 -36q-100 -73 -165 -113zM445 12q12 -4 12 -10t-7 -6q-1 0 -21 2t-31 2q-9 0 -28 -2t-21 -2q-7 0 -7 6t10 9q18 5 25 20t7 62v151q0 138 -106 138q-63 0 -106.5 -52.5
t-43.5 -144.5v-97q0 -45 6.5 -58.5t29.5 -19.5q10 -3 10 -8q0 -6 -7 -6q-3 0 -23 2t-30 2q-11 0 -29.5 -2t-19.5 -2q-7 0 -7 6q0 5 11 8q18 6 22.5 19t4.5 59v205q0 57 -37 65q-7 2 -11 3.5t-4 5.5q0 5 12 7q20 3 35 10.5t22.5 13.5t10.5 6q6 0 6 -7q0 -1 -2.5 -15.5t-4 -47
t-0.5 -79.5q14 69 56.5 109t98.5 40q70 0 104 -38.5t34 -122.5v-150q0 -48 5 -62t24 -19z" />
    <glyph glyph-name="Ncommaaccent" unicode="&#x145;" horiz-adv-x="677" 
d="M579 -15q-9 0 -16 12q-23 38 -180 251t-250 335q-10 13 -12 13q-4 0 -4 -8v-468q0 -56 11 -78t48 -31q15 -4 15 -10q0 -7 -9 -7q-2 0 -27 3t-45 3q-19 0 -42 -3t-27 -3q-9 0 -9 7q0 5 16 9q30 7 40.5 31t10.5 79v441q0 29 -6 39t-29 14q-39 5 -39 17q0 5 7 5q2 0 21 -3
t28 -3q8 0 21 3t19 3q19 0 40 -28l404 -542q5 -8 7 -8t2 7v461q0 46 -10 65t-37 27q-20 7 -20 12q0 6 7 6l27 -3q27 -3 41 -3q16 0 42 3l26 3q7 0 7 -5q0 -6 -17 -11q-26 -8 -37.5 -28.5t-11.5 -65.5v-521q0 -20 -12 -20zM340 -239q-9 0 -9 8q0 7 10 10q65 21 65 85
q0 22 -8 22q-2 0 -13.5 -10.5t-24.5 -10.5q-16 0 -26.5 10t-10.5 26q0 18 12.5 29t31.5 11q60 0 60 -76q0 -47 -31.5 -75.5t-55.5 -28.5z" />
    <glyph glyph-name="ncommaaccent" unicode="&#x146;" horiz-adv-x="501" 
d="M445 12q12 -4 12 -10t-7 -6q-1 0 -21 2t-31 2q-9 0 -28 -2t-21 -2q-7 0 -7 6t10 9q18 5 25 20t7 62v151q0 138 -106 138q-63 0 -106.5 -52.5t-43.5 -144.5v-97q0 -45 6.5 -58.5t29.5 -19.5q10 -3 10 -8q0 -6 -7 -6q-3 0 -23 2t-30 2q-11 0 -29.5 -2t-19.5 -2q-7 0 -7 6
q0 5 11 8q18 6 22.5 19t4.5 59v205q0 57 -37 65q-7 2 -11 3.5t-4 5.5q0 5 12 7q20 3 35 10.5t22.5 13.5t10.5 6q6 0 6 -7q0 -1 -2.5 -15.5t-4 -47t-0.5 -79.5q14 69 56.5 109t98.5 40q70 0 104 -38.5t34 -122.5v-150q0 -48 5 -62t24 -19zM257 -59q60 0 60 -76
q0 -47 -31.5 -75.5t-55.5 -28.5q-9 0 -9 8q0 7 10 10q65 21 65 85q0 22 -8 22q-2 0 -13.5 -10.5t-24.5 -10.5q-16 0 -26.5 10t-10.5 26q0 18 12.5 29t31.5 11z" />
    <glyph glyph-name="Ncaron" unicode="&#x147;" horiz-adv-x="677" 
d="M263 822q3 0 7 -1.5t12.5 -8t19 -14t33.5 -24t49 -34.5h2q20 14 38.5 27t29.5 21t20 14.5t14 10t9 6t6 3t4 0.5q7 0 7 -7t-59 -61q-6 -5 -9 -8.5t-9 -8.5t-11 -10q-3 -3 -9 -8.5t-8.5 -8t-7 -6t-8.5 -5t-8 -1.5q-3 0 -7 1.5t-6.5 3t-7 5.5t-7 6t-7.5 7.5t-8 8.5
q-81 75 -84 80q-2 3 -2 5q0 7 7 7zM579 -15q-9 0 -16 12q-23 38 -180 251t-250 335q-10 13 -12 13q-4 0 -4 -8v-468q0 -56 11 -78t48 -31q15 -4 15 -10q0 -7 -9 -7q-2 0 -27 3t-45 3q-19 0 -42 -3t-27 -3q-9 0 -9 7q0 5 16 9q30 7 40.5 31t10.5 79v441q0 29 -6 39t-29 14
q-39 5 -39 17q0 5 7 5q2 0 21 -3t28 -3q8 0 21 3t19 3q19 0 40 -28l404 -542q5 -8 7 -8t2 7v461q0 46 -10 65t-37 27q-20 7 -20 12q0 6 7 6l27 -3q27 -3 41 -3q16 0 42 3l26 3q7 0 7 -5q0 -6 -17 -11q-26 -8 -37.5 -28.5t-11.5 -65.5v-521q0 -20 -12 -20z" />
    <glyph glyph-name="ncaron" unicode="&#x148;" horiz-adv-x="501" 
d="M255 456q-11 0 -18 3t-10 6l-14 14q-13 14 -33 36q-52 60 -54 68q0 7 7 7q2 0 4 -0.5t4.5 -2.5t5.5 -4t8.5 -6.5t11 -9.5t15 -13t19 -16.5t24 -21t29.5 -25.5h2q111 95 112 96q5 3 9 3q7 0 7 -7t-12 -21.5t-77 -85.5l-9.5 -9.5t-7.5 -6t-10 -4t-13 -0.5zM445 12
q12 -4 12 -10t-7 -6q-1 0 -21 2t-31 2q-9 0 -28 -2t-21 -2q-7 0 -7 6t10 9q18 5 25 20t7 62v151q0 138 -106 138q-63 0 -106.5 -52.5t-43.5 -144.5v-97q0 -45 6.5 -58.5t29.5 -19.5q10 -3 10 -8q0 -6 -7 -6q-3 0 -23 2t-30 2q-11 0 -29.5 -2t-19.5 -2q-7 0 -7 6q0 5 11 8
q18 6 22.5 19t4.5 59v205q0 57 -37 65q-7 2 -11 3.5t-4 5.5q0 5 12 7q20 3 35 10.5t22.5 13.5t10.5 6q6 0 6 -7q0 -1 -2.5 -15.5t-4 -47t-0.5 -79.5q14 69 56.5 109t98.5 40q70 0 104 -38.5t34 -122.5v-150q0 -48 5 -62t24 -19z" />
    <glyph glyph-name="Eng" unicode="&#x14a;" horiz-adv-x="685" 
d="M436 -216q-58 0 -93 32t-35 82q0 36 15.5 56t35.5 20q29 0 29 -27q0 -19 -26.5 -36t-26.5 -42q0 -26 26.5 -48.5t74.5 -22.5q61 0 94.5 47t33.5 133q0 7 -10 22q-44 67 -188.5 266.5t-232.5 316.5q-10 13 -12 13q-4 0 -4 -8v-468q0 -56 11 -78t48 -31q15 -4 15 -10
q0 -7 -9 -7q-2 0 -27 3t-45 3q-19 0 -42 -3t-27 -3q-9 0 -9 7q0 5 16 9q30 7 40.5 31t10.5 79v441q0 29 -6 39t-29 14q-39 5 -39 17q0 6 7 6q2 0 21 -3.5t28 -3.5q8 0 21 3.5t19 3.5q19 0 40 -29l404 -553q5 -8 7 -8t2 7v472q0 46 -10 65.5t-37 27.5q-3 1 -7 2.5t-6 2
t-4 1.5t-2.5 2t-0.5 3q0 6 7 6l27 -3q27 -3 41 -3q16 0 42 3l26 3q7 0 7 -5t-17 -10q-26 -8 -37.5 -29t-11.5 -66v-532q0 -94 -39.5 -152t-115.5 -58z" />
    <glyph glyph-name="eng" unicode="&#x14b;" horiz-adv-x="490" 
d="M278 404q70 0 104 -38.5t34 -122.5v-343q0 -54 -24.5 -84.5t-68.5 -30.5q-29 0 -52 16.5t-23 36.5q0 26 23 26q18 0 27 -29q10 -32 40 -32q46 0 46 65v65l-2 311q0 138 -104 138q-61 0 -104 -49.5t-46 -135.5v-109q0 -45 6.5 -58.5t29.5 -19.5q10 -3 10 -8q0 -6 -7 -6
q-3 0 -23 2t-30 2q-11 0 -29.5 -2t-19.5 -2q-7 0 -7 6q0 5 11 8q18 6 22.5 19t4.5 59v205q0 57 -37 65q-7 2 -11 3.5t-4 5.5q0 5 12 7q20 3 35 10.5t22.5 13.5t10.5 6q6 0 6 -7q0 -1 -2.5 -15.5t-4 -47t-0.5 -78.5q14 68 57 108t98 40z" />
    <glyph glyph-name="Omacron" unicode="&#x14c;" horiz-adv-x="700" 
d="M252 725q-12 0 -12 10q0 19 16 19q5 0 37.5 -1t48.5 -1q20 0 57.5 1t43.5 1q12 0 12 -9q0 -20 -15 -20q-16 0 -47.5 1t-46.5 1q-14 0 -49.5 -1t-44.5 -1zM350 649q134 0 217 -95.5t83 -236.5q0 -139 -83.5 -235.5t-216.5 -96.5t-216.5 96.5t-83.5 235.5q0 141 83.5 236.5
t216.5 95.5zM350 3q108 0 180.5 76.5t72.5 237.5q0 86 -21 149t-57.5 98t-79.5 51t-95 16q-50 0 -93 -16t-80 -51t-58.5 -98t-21.5 -149q0 -83 21.5 -146t58.5 -98.5t80.5 -52.5t92.5 -17z" />
    <glyph glyph-name="omacron" unicode="&#x14d;" horiz-adv-x="465" 
d="M142 533q5 0 37.5 -1t48.5 -1q20 0 57.5 1t43.5 1q12 0 12 -9q0 -20 -15 -20q-16 0 -47.5 1t-46.5 1q-14 0 -49.5 -1t-44.5 -1q-12 0 -12 10q0 19 16 19zM233 404q88 0 139.5 -60t51.5 -150t-51.5 -149.5t-139.5 -59.5t-139.5 59.5t-51.5 149.5t51.5 150t139.5 60z
M233 -1q72 0 111.5 50.5t39.5 144.5t-39.5 145t-111.5 51t-111.5 -51t-39.5 -145t39.5 -144.5t111.5 -50.5z" />
    <glyph glyph-name="Ohungarumlaut" unicode="&#x150;" horiz-adv-x="700" 
d="M258 691q-3 -2 -5 3q-1 4 0 6q16 24 41 62q44 66 58 83.5t26 17.5q25 0 25 -24q0 -14 -19 -33q-71 -71 -122 -113zM356 694q-1 2 1 6q15 18 42 50q57 68 78 90.5t31 22.5q11 0 18 -7.5t7 -17.5q0 -16 -22 -32q-97 -80 -145 -113l-5 -2q-5 -3 -5 3zM350 649
q134 0 217 -95.5t83 -236.5q0 -139 -83.5 -235.5t-216.5 -96.5t-216.5 96.5t-83.5 235.5q0 141 83.5 236.5t216.5 95.5zM350 3q108 0 180.5 76.5t72.5 237.5q0 86 -21 149t-57.5 98t-79.5 51t-95 16q-50 0 -93 -16t-80 -51t-58.5 -98t-21.5 -149q0 -83 21.5 -146t58.5 -98.5
t80.5 -52.5t92.5 -17z" />
    <glyph glyph-name="ohungarumlaut" unicode="&#x151;" horiz-adv-x="465" 
d="M144 451q-3 -2 -5 3q-1 4 0 6q16 24 41 62q44 66 58 83.5t26 17.5q25 0 25 -24q0 -14 -19 -33q-71 -71 -122 -113zM247 451q-5 -3 -5 3q-1 2 1 6q15 18 42 50q57 68 78 90.5t31 22.5q11 0 18 -7.5t7 -17.5q0 -16 -22 -32q-97 -80 -145 -113zM233 404q88 0 139.5 -60
t51.5 -150t-51.5 -149.5t-139.5 -59.5t-139.5 59.5t-51.5 149.5t51.5 150t139.5 60zM233 -1q72 0 111.5 50.5t39.5 144.5t-39.5 145t-111.5 51t-111.5 -51t-39.5 -145t39.5 -144.5t111.5 -50.5z" />
    <glyph glyph-name="OE" unicode="&#x152;" horiz-adv-x="807" 
d="M770 156q0 -1 -3 -19t-5.5 -44t-2.5 -48q0 -12 4 -26.5t4 -16.5q0 -6 -8 -6q-4 0 -103.5 1.5t-146.5 1.5q-24 0 -95.5 -7t-105.5 -7q-109 0 -183.5 97.5t-74.5 234.5q0 140 75.5 236t190.5 96q36 0 93 -7.5t65 -7.5h46q59 0 111.5 1t80 1.5t34.5 0.5q8 0 8 -6
q0 -1 -4 -12t-4 -17q0 -12 6 -56l5 -44q0 -8 -6 -8q-9 0 -11 11q-14 82 -34 100.5t-94 18.5q-68 0 -92 -3.5t-33 -15.5q-8 -10 -9.5 -45.5t-1.5 -194.5q0 -17 13.5 -21.5t61.5 -4.5q57 0 77.5 19.5t27.5 68.5q1 8 9 8q6 0 6 -7q0 -2 -1.5 -15.5t-3 -36t-1.5 -45.5
q0 -26 1.5 -48t3 -34t1.5 -14q0 -7 -6 -7q-8 0 -8 9q-5 48 -26.5 68t-79.5 20q-49 0 -62 -4.5t-13 -22.5q0 -115 2 -172t4.5 -71.5t8.5 -20.5q15 -20 111 -20q89 0 113.5 22.5t37.5 116.5q1 10 11 10q6 0 6 -7zM431 31q7 13 9 60.5t2 223.5q0 261 -19 289q-18 31 -104 31
q-42 0 -78.5 -14.5t-71.5 -47.5t-55.5 -99t-20.5 -157t20.5 -156.5t54.5 -99t69 -48t73 -14.5q43 0 78.5 9t42.5 23z" />
    <glyph glyph-name="oe" unicode="&#x153;" horiz-adv-x="735" 
d="M694 117q5 0 5 -5q0 -3 -2 -9q-14 -49 -55 -83.5t-102 -34.5q-57 0 -98.5 31t-61.5 83q-21 -52 -62 -82.5t-98 -30.5q-82 0 -130 59.5t-48 149.5t48 149.5t130 59.5q57 0 98.5 -30.5t61.5 -83.5q22 52 64 83t98 31q68 0 110 -42.5t42 -103.5q0 -16 -4.5 -21t-17.5 -5
l-272 1q-2 -24 -2 -36q0 -86 39 -139t108 -53q57 0 95.5 34t47.5 72q2 6 6 6zM220 0q66 0 102.5 51t36.5 144t-36.5 144t-102.5 51t-102.5 -51t-36.5 -144t36.5 -144t102.5 -51zM540 390q-54 0 -90 -37t-47 -101l250 2q6 0 6 10q0 49 -31.5 87.5t-87.5 38.5z" />
    <glyph glyph-name="Racute" unicode="&#x154;" horiz-adv-x="616" 
d="M174 680q-4 0 -4 5q0 2 4 6q24 14 52 30.5t43.5 26t33.5 20t27 15.5t19 10t15.5 6.5t9.5 1.5q10 0 17.5 -7t7.5 -20q0 -18 -30 -29q-128 -47 -186 -63zM483 -12q-36 0 -80.5 27t-80 59t-80.5 59t-81 27q-12 0 -12 -14q0 -73 3 -95t12 -31q4 -4 12.5 -7t13.5 -5.5t5 -5.5
q0 -6 -8 -6q-2 0 -23 2t-34 2q-11 0 -30.5 -2t-20.5 -2q-8 0 -8 6q0 4 2 5.5t9 4.5t13 7q7 4 10.5 24t5.5 90.5t2 216.5q0 163 -3 205.5t-14 54.5q-3 4 -10 6.5t-11.5 4.5t-4.5 5q0 7 8 7q1 0 18 -1.5t27 -1.5t62.5 7t90.5 7q117 0 190 -65.5t73 -174.5q0 -112 -81.5 -176.5
t-199.5 -64.5q-37 0 -55 2v-2q36 -8 86.5 -42t100 -62t93.5 -28q39 0 62 26.5t23 71.5q0 5 4 5q5 0 8.5 -13t3.5 -29q0 -44 -30.5 -74t-70.5 -30zM245 175q104 0 177.5 57t73.5 172q0 117 -63 171.5t-157 54.5q-93 0 -114 -25q-11 -13 -13 -49t-2 -206v-144q0 -21 14.5 -26
t83.5 -5z" />
    <glyph glyph-name="racute" unicode="&#x155;" horiz-adv-x="342" 
d="M115 451q-5 -1 -6 3q0 2 2 6q27 28 56.5 59t43.5 46t28.5 29.5t22 20.5t12.5 7q24 5 32 -20q4 -16 -22 -36q-100 -73 -165 -113zM262 403q30 0 46.5 -12.5t16.5 -32.5q0 -33 -28 -33q-20 0 -31.5 26.5t-32.5 26.5q-29 0 -58 -40.5t-31 -105.5v-161q0 -30 12 -41t53 -21
q7 -1 7 -7q0 -7 -8 -7q-3 0 -32.5 2t-45.5 2t-43 -2t-29 -2q-7 0 -7 7q0 5 11 8q34 8 42 18.5t8 42.5v227q0 25 -11.5 37.5t-38.5 17.5q-18 2 -18 9q0 6 12 7q28 3 46.5 10.5t26.5 13.5t11 6q6 0 6 -7q0 -1 -2.5 -18t-4 -42.5t-0.5 -50.5q11 57 45 89.5t78 32.5z" />
    <glyph glyph-name="Rcommaaccent" unicode="&#x156;" horiz-adv-x="616" 
d="M483 -12q-36 0 -80.5 27t-80 59t-80.5 59t-81 27q-12 0 -12 -14q0 -73 3 -95t12 -31q4 -4 12.5 -7t13.5 -5.5t5 -5.5q0 -6 -8 -6q-2 0 -23 2t-34 2q-11 0 -30.5 -2t-20.5 -2q-8 0 -8 6q0 4 2 5.5t9 4.5t13 7q7 4 10.5 24t5.5 90.5t2 216.5q0 163 -3 205.5t-14 54.5
q-3 4 -10 6.5t-11.5 4.5t-4.5 5q0 7 8 7q1 0 18 -1.5t27 -1.5t62.5 7t90.5 7q117 0 190 -65.5t73 -174.5q0 -112 -81.5 -176.5t-199.5 -64.5q-37 0 -55 2v-2q36 -8 86.5 -42t100 -62t93.5 -28q39 0 62 26.5t23 71.5q0 5 4 5q5 0 8.5 -13t3.5 -29q0 -44 -30.5 -74t-70.5 -30z
M245 175q104 0 177.5 57t73.5 172q0 117 -63 171.5t-157 54.5q-93 0 -114 -25q-11 -13 -13 -49t-2 -206v-144q0 -21 14.5 -26t83.5 -5zM247 -239q-9 0 -9 8q0 7 10 10q65 21 65 85q0 22 -8 22q-2 0 -13.5 -10.5t-24.5 -10.5q-16 0 -26.5 10t-10.5 26q0 18 12.5 29t31.5 11
q60 0 60 -76q0 -47 -31.5 -75.5t-55.5 -28.5z" />
    <glyph glyph-name="rcommaaccent" unicode="&#x157;" horiz-adv-x="342" 
d="M262 403q30 0 46.5 -12.5t16.5 -32.5q0 -33 -28 -33q-20 0 -31.5 26.5t-32.5 26.5q-29 0 -58 -40.5t-31 -105.5v-161q0 -30 12 -41t53 -21q7 -1 7 -7q0 -7 -8 -7q-3 0 -32.5 2t-45.5 2t-43 -2t-29 -2q-7 0 -7 7q0 5 11 8q34 8 42 18.5t8 42.5v227q0 25 -11.5 37.5
t-38.5 17.5q-18 2 -18 9q0 6 12 7q28 3 46.5 10.5t26.5 13.5t11 6q6 0 6 -7q0 -1 -2.5 -18t-4 -42.5t-0.5 -50.5q11 57 45 89.5t78 32.5zM121 -59q60 0 60 -76q0 -47 -31.5 -75.5t-55.5 -28.5q-9 0 -9 8q0 7 10 10q65 21 65 85q0 22 -8 22q-2 0 -13.5 -10.5t-24.5 -10.5
q-16 0 -26.5 10t-10.5 26q0 18 12.5 29t31.5 11z" />
    <glyph glyph-name="Rcaron" unicode="&#x158;" horiz-adv-x="616" 
d="M150 822q3 0 7 -1.5t12.5 -8t19 -14t33.5 -24t49 -34.5h2q20 14 38.5 27t29.5 21t20 14.5t14 10t9 6t6 3t4 0.5q7 0 7 -7t-59 -61q-6 -5 -9 -8.5t-9 -8.5t-11 -10q-3 -3 -9 -8.5t-8.5 -8t-7 -6t-8.5 -5t-8 -1.5q-3 0 -7 1.5t-6.5 3t-7 5.5t-7 6t-7.5 7.5t-8 8.5
q-81 75 -84 80q-2 3 -2 5q0 7 7 7zM483 -12q-36 0 -80.5 27t-80 59t-80.5 59t-81 27q-12 0 -12 -14q0 -73 3 -95t12 -31q4 -4 12.5 -7t13.5 -5.5t5 -5.5q0 -6 -8 -6q-2 0 -23 2t-34 2q-11 0 -30.5 -2t-20.5 -2q-8 0 -8 6q0 4 2 5.5t9 4.5t13 7q7 4 10.5 24t5.5 90.5t2 216.5
q0 163 -3 205.5t-14 54.5q-3 4 -10 6.5t-11.5 4.5t-4.5 5q0 7 8 7q1 0 18 -1.5t27 -1.5t62.5 7t90.5 7q117 0 190 -65.5t73 -174.5q0 -112 -81.5 -176.5t-199.5 -64.5q-37 0 -55 2v-2q36 -8 86.5 -42t100 -62t93.5 -28q39 0 62 26.5t23 71.5q0 5 4 5q5 0 8.5 -13t3.5 -29
q0 -44 -30.5 -74t-70.5 -30zM245 175q104 0 177.5 57t73.5 172q0 117 -63 171.5t-157 54.5q-93 0 -114 -25q-11 -13 -13 -49t-2 -206v-144q0 -21 14.5 -26t83.5 -5z" />
    <glyph glyph-name="rcaron" unicode="&#x159;" horiz-adv-x="342" 
d="M188 456q-11 0 -18 3t-10 6l-14 14q-82 91 -85 98q-2 3 -2 6q0 7 7 7q2 0 4 -0.5t4.5 -2.5t5.5 -4t8.5 -6.5t11 -9.5t15 -13t19 -16.5t24 -21t29.5 -25.5h2q111 95 112 96q5 3 9 3q7 0 7 -7t-12 -21.5t-77 -85.5l-9.5 -9.5t-7.5 -6t-10 -4t-13 -0.5zM262 403
q30 0 46.5 -12.5t16.5 -32.5q0 -33 -28 -33q-20 0 -31.5 26.5t-32.5 26.5q-29 0 -58 -40.5t-31 -105.5v-161q0 -30 12 -41t53 -21q7 -1 7 -7q0 -7 -8 -7q-3 0 -32.5 2t-45.5 2t-43 -2t-29 -2q-7 0 -7 7q0 5 11 8q34 8 42 18.5t8 42.5v227q0 25 -11.5 37.5t-38.5 17.5
q-18 2 -18 9q0 6 12 7q28 3 46.5 10.5t26.5 13.5t11 6q6 0 6 -7q0 -1 -2.5 -18t-4 -42.5t-0.5 -50.5q11 57 45 89.5t78 32.5z" />
    <glyph glyph-name="Sacute" unicode="&#x15a;" horiz-adv-x="554" 
d="M179 680q-4 0 -4 5q0 2 4 6q24 14 52 30.5t43.5 26t33.5 20t27 15.5t19 10t15.5 6.5t9.5 1.5q10 0 17.5 -7t7.5 -20q0 -18 -30 -29q-128 -47 -186 -63zM82 -15q-8 0 -8 11q0 1 1.5 34t1.5 56q0 28 -2 60.5t-4 54.5t-2 25q0 8 8 8q6 0 10 -11q15 -50 27.5 -79.5t37.5 -67
t64 -56t92 -18.5q83 0 126.5 41.5t43.5 110.5q0 57 -35.5 92.5t-108.5 55.5l-94 25q-152 41 -152 159q0 73 51.5 118t126.5 45q40 0 75 -14.5t57.5 -28.5t31.5 -14q4 0 7 2t4 5.5t1.5 7t1 9.5t0.5 9q1 18 10 18q10 0 10 -9q0 -55 3 -91q0 -5 6.5 -56t6.5 -55q0 -7 -8 -7
q-7 0 -10 9q-12 41 -24.5 70t-34.5 61.5t-55.5 49.5t-77.5 17q-67 0 -110 -36.5t-43 -99.5q0 -55 35.5 -86.5t113.5 -52.5l82 -22q81 -21 120 -60.5t39 -104.5q0 -84 -53.5 -134.5t-147.5 -50.5q-46 0 -87 13t-67.5 26t-38.5 13q-9 0 -13.5 -7.5t-8.5 -33.5q-2 -11 -9 -11z
" />
    <glyph glyph-name="sacute" unicode="&#x15b;" horiz-adv-x="403" 
d="M136 451q-4 -1 -6 3q0 2 2 6q27 28 56.5 59t43.5 46t28.5 29.5t22 20.5t12.5 7q24 5 32 -20q4 -16 -22 -36q-100 -73 -165 -113zM217 -15q-36 0 -77 17l-42 16q-8 0 -11.5 -4t-7.5 -16q-3 -9 -8 -9q-7 0 -7 9q0 1 0.5 17.5t0.5 28.5q0 25 -5.5 61t-5.5 38q0 7 6 7
q7 0 10 -10q44 -140 152 -140q46 0 76 24.5t30 68.5q0 68 -81 87l-71 17q-55 13 -83 35.5t-28 66.5t36 74.5t93 30.5q41 0 77.5 -17t38.5 -17q10 0 11 23q1 9 7 9q7 0 7 -10q0 -31 2.5 -58.5t4.5 -42.5l2 -15q0 -6 -6 -6q-5 0 -9 9q-22 60 -53 85.5t-85 25.5
q-43 0 -69 -23.5t-26 -56.5q0 -32 24 -52.5t74 -32.5l67 -15q100 -23 100 -111q0 -50 -41 -82t-103 -32z" />
    <glyph glyph-name="Scedilla" unicode="&#x15e;" horiz-adv-x="554" 
d="M306 -15h-11l-9 -40q76 -15 76 -64q0 -27 -20.5 -43t-48.5 -16q-19 0 -34 5t-20.5 10t-5.5 7q0 6 6 6q1 0 7 -3t16.5 -6.5t22.5 -3.5q22 0 34 11t12 29q0 21 -14.5 32t-46.5 19q-6 1 -6 8q0 5 2 11l10 39q-49 5 -101 28t-62 23q-9 0 -13.5 -7.5t-8.5 -33.5q-2 -11 -9 -11
q-8 0 -8 11q0 1 1.5 34t1.5 56q0 28 -2 60.5t-4 54.5t-2 25q0 8 8 8q6 0 10 -11q15 -50 27.5 -79.5t37.5 -67t64 -56t92 -18.5q83 0 126.5 41.5t43.5 110.5q0 57 -35.5 92.5t-108.5 55.5l-94 25q-152 41 -152 159q0 73 51.5 118t126.5 45q40 0 75 -14.5t57.5 -28.5t31.5 -14
q4 0 7 2t4 5.5t1.5 7t1 9.5t0.5 9q1 18 10 18q10 0 10 -9q0 -55 3 -91q0 -5 6.5 -56t6.5 -55q0 -7 -8 -7q-7 0 -10 9q-12 41 -24.5 70t-34.5 61.5t-55.5 49.5t-77.5 17q-67 0 -110 -36.5t-43 -99.5q0 -55 35.5 -86.5t113.5 -52.5l82 -22q81 -21 120 -60.5t39 -104.5
q0 -84 -53.5 -134.5t-147.5 -50.5z" />
    <glyph glyph-name="scedilla" unicode="&#x15f;" horiz-adv-x="403" 
d="M217 -15h-2l-9 -40q76 -15 76 -64q0 -27 -20.5 -43t-48.5 -16q-19 0 -34 5t-20.5 10t-5.5 7q0 6 6 6q1 0 7 -3t16.5 -6.5t22.5 -3.5q21 0 33.5 11t12.5 29q0 21 -14.5 32t-46.5 19q-6 1 -6 8q0 5 2 11l10 39q-22 3 -44 11t-36 14.5t-18 6.5q-8 0 -11.5 -4t-7.5 -16
q-3 -9 -8 -9q-7 0 -7 9q0 1 0.5 17.5t0.5 28.5q0 25 -5.5 61t-5.5 38q0 7 6 7q7 0 10 -10q44 -140 152 -140q46 0 76 24.5t30 68.5q0 68 -81 87l-71 17q-55 13 -83 35.5t-28 66.5t36 74.5t93 30.5q41 0 77.5 -17t38.5 -17q10 0 11 23q1 9 7 9q7 0 7 -10q0 -31 2.5 -58.5
t4.5 -42.5l2 -15q0 -6 -6 -6q-5 0 -9 9q-22 60 -53 85.5t-85 25.5q-43 0 -69 -23.5t-26 -56.5q0 -32 24 -52.5t74 -32.5l67 -15q100 -23 100 -111q0 -50 -41 -82t-103 -32z" />
    <glyph glyph-name="Scaron" unicode="&#x160;" horiz-adv-x="554" 
d="M156 822q3 0 7 -1.5t12.5 -8t19 -14t33.5 -24t49 -34.5h2q20 14 38.5 27t29.5 21t20 14.5t14 10t9 6t6 3t4 0.5q7 0 7 -7t-59 -61q-6 -5 -9 -8.5t-9 -8.5t-11 -10q-3 -3 -9 -8.5t-8.5 -8t-7 -6t-8.5 -5t-8 -1.5q-3 0 -7 1.5t-6.5 3t-7 5.5t-7 6t-7.5 7.5t-8 8.5
q-81 75 -84 80q-2 3 -2 5q0 7 7 7zM82 -15q-8 0 -8 11q0 1 1.5 34t1.5 56q0 28 -2 60.5t-4 54.5t-2 25q0 8 8 8q6 0 10 -11q15 -50 27.5 -79.5t37.5 -67t64 -56t92 -18.5q83 0 126.5 41.5t43.5 110.5q0 57 -35.5 92.5t-108.5 55.5l-94 25q-152 41 -152 159q0 73 51.5 118
t126.5 45q40 0 75 -14.5t57.5 -28.5t31.5 -14q4 0 7 2t4 5.5t1.5 7t1 9.5t0.5 9q1 18 10 18q10 0 10 -9q0 -55 3 -91q0 -5 6.5 -56t6.5 -55q0 -7 -8 -7q-7 0 -10 9q-12 41 -24.5 70t-34.5 61.5t-55.5 49.5t-77.5 17q-67 0 -110 -36.5t-43 -99.5q0 -55 35.5 -86.5
t113.5 -52.5l82 -22q81 -21 120 -60.5t39 -104.5q0 -84 -53.5 -134.5t-147.5 -50.5q-46 0 -87 13t-67.5 26t-38.5 13q-9 0 -13.5 -7.5t-8.5 -33.5q-2 -11 -9 -11z" />
    <glyph glyph-name="scaron" unicode="&#x161;" horiz-adv-x="403" 
d="M87 590q2 0 4 -0.5t4.5 -2.5t5.5 -4t8.5 -6.5t11 -9.5t15 -13t19 -16.5t24 -21t29.5 -25.5h2q111 95 112 96q5 3 9 3q7 0 7 -7t-12 -21.5t-77 -85.5l-9.5 -9.5t-7.5 -6t-10 -4t-13 -0.5q-11 0 -18 3t-10 6l-14 14q-13 14 -33 36q-52 60 -54 68q0 7 7 7zM217 -15
q-36 0 -77 17l-42 16q-8 0 -11.5 -4t-7.5 -16q-3 -9 -8 -9q-7 0 -7 9q0 1 0.5 17.5t0.5 28.5q0 25 -5.5 61t-5.5 38q0 7 6 7q7 0 10 -10q44 -140 152 -140q46 0 76 24.5t30 68.5q0 68 -81 87l-71 17q-55 13 -83 35.5t-28 66.5t36 74.5t93 30.5q41 0 77.5 -17t38.5 -17
q10 0 11 23q1 9 7 9q7 0 7 -10q0 -31 2.5 -58.5t4.5 -42.5l2 -15q0 -6 -6 -6q-5 0 -9 9q-22 60 -53 85.5t-85 25.5q-43 0 -69 -23.5t-26 -56.5q0 -32 24 -52.5t74 -32.5l67 -15q100 -23 100 -111q0 -50 -41 -82t-103 -32z" />
    <glyph glyph-name="uni0162" unicode="&#x162;" horiz-adv-x="607" 
d="M220 -5q-7 0 -7 7q0 5 11 8q49 8 59.5 23.5t10.5 77.5v171q-1 228 -2 268.5t-9 49.5q-13 17 -89 17q-33 0 -49.5 -2.5t-31.5 -9t-21.5 -24.5t-11.5 -43.5t-9 -71.5q-1 -16 -10 -16q-7 0 -7 10l2 54q1 54 1 78q0 17 -5.5 28t-5.5 12q0 7 7 7q2 0 9 -1t23.5 -2.5t42 -2.5
t73.5 -2t109 -1t109 1t73.5 2t42 2.5t23.5 2.5t9 1q7 0 7 -7q0 -1 -5.5 -12t-5.5 -28q0 -24 1 -78l2 -54q0 -10 -7 -10q-8 0 -10 16q-4 46 -9 71.5t-11.5 43.5t-21.5 24.5t-31.5 9t-49.5 2.5q-75 0 -89 -17q-8 -9 -9 -50t-1 -268l-1 -171q0 -62 10.5 -77.5t59.5 -23.5
q11 -3 11 -8q0 -7 -7 -7l-34 2q-34 2 -56 2t-56 -2zM314 -178q-19 0 -34 5t-20.5 10t-5.5 7q0 6 6 6q1 0 7 -3t16.5 -6.5t22.5 -3.5q22 0 34 11t12 29q0 21 -14.5 32t-46.5 19q-6 1 -6 8q0 5 2 11l12 49h19l-11 -51q76 -15 76 -64q0 -27 -20.5 -43t-48.5 -16z" />
    <glyph glyph-name="uni0163" unicode="&#x163;" horiz-adv-x="301" 
d="M183 -15q-14 0 -26 3l-9 -43q76 -15 76 -64q0 -27 -20.5 -43t-48.5 -16q-19 0 -34 5t-20.5 10t-5.5 7q0 6 6 6q1 0 7 -3t16.5 -6.5t22.5 -3.5q21 0 33.5 11t12.5 29q0 21 -14.5 32t-46.5 19q-6 1 -6 8q0 5 2 11l12 48q-37 19 -37 80v262q0 20 -4.5 25t-23.5 6l-40 2
q-12 0 -12 11q0 9 12 9q23 0 33 2t20 7.5t13.5 24t6 41t5.5 70.5q1 15 13 15q11 0 11 -14l-1 -138q0 -7 6 -7l104 1q15 0 15 -14t-13 -14q-7 0 -20.5 0.5t-39 1t-46.5 0.5q-7 0 -7 -8v-282q0 -35 13 -50.5t41 -15.5q57 0 59 63q0 10 7 10q8 0 8 -11q0 -37 -21.5 -62
t-58.5 -25z" />
    <glyph glyph-name="Tcaron" unicode="&#x164;" horiz-adv-x="607" 
d="M188 822q3 0 7 -1.5t12.5 -8t19 -14t33.5 -24t49 -34.5h2q20 14 38.5 27t29.5 21t20 14.5t14 10t9 6t6 3t4 0.5q7 0 7 -7t-59 -61q-6 -5 -9 -8.5t-9 -8.5t-11 -10q-3 -3 -9 -8.5t-8.5 -8t-7 -6t-8.5 -5t-8 -1.5q-3 0 -7 1.5t-6.5 3t-7 5.5t-7 6t-7.5 7.5t-8 8.5
q-81 75 -84 80q-2 3 -2 5q0 7 7 7zM220 -5q-7 0 -7 7q0 5 11 8q49 8 59.5 23.5t10.5 77.5v171q-1 228 -2 268.5t-9 49.5q-13 17 -89 17q-33 0 -49.5 -2.5t-31.5 -9t-21.5 -24.5t-11.5 -43.5t-9 -71.5q-1 -16 -10 -16q-7 0 -7 10l2 54q1 54 1 78q0 17 -5.5 28t-5.5 12
q0 7 7 7q2 0 9 -1t23.5 -2.5t42 -2.5t73.5 -2t109 -1t109 1t73.5 2t42 2.5t23.5 2.5t9 1q7 0 7 -7q0 -1 -5.5 -12t-5.5 -28q0 -24 1 -78l2 -54q0 -10 -7 -10q-8 0 -10 16q-4 46 -9 71.5t-11.5 43.5t-21.5 24.5t-31.5 9t-49.5 2.5q-75 0 -89 -17q-8 -9 -9 -50t-1 -268
l-1 -171q0 -62 10.5 -77.5t59.5 -23.5q11 -3 11 -8q0 -7 -7 -7l-34 2q-34 2 -56 2t-56 -2z" />
    <glyph glyph-name="tcaron" unicode="&#x165;" horiz-adv-x="301" 
d="M215 441q-7 0 -7 7q0 5 8 8q51 16 51 68q0 18 -6 18q-2 0 -11 -8.5t-19 -8.5q-13 0 -21.5 7.5t-8.5 20.5q0 15 10.5 23.5t25.5 8.5q47 0 47 -61q0 -37 -25 -60t-44 -23zM183 -15q-80 0 -80 90v262q0 20 -4.5 25t-23.5 6l-40 2q-12 0 -12 11q0 9 12 9q23 0 33 2t20 7.5
t13.5 24t6 41t5.5 70.5q1 15 13 15q11 0 11 -14l-1 -138q0 -7 6 -7l104 1q15 0 15 -14t-13 -14q-7 0 -20.5 0.5t-39 1t-46.5 0.5q-7 0 -7 -8v-282q0 -35 13 -50.5t41 -15.5q57 0 59 63q0 10 7 10q8 0 8 -11q0 -37 -21.5 -62t-58.5 -25z" />
    <glyph glyph-name="Tbar" unicode="&#x166;" horiz-adv-x="607" 
d="M574 632q0 -1 -5.5 -12t-5.5 -28q0 -24 1 -78l2 -54q0 -10 -7 -10q-8 0 -10 16q-4 46 -9 71.5t-11.5 43.5t-21.5 24.5t-31.5 9t-49.5 2.5q-75 0 -89 -17q-7 -8 -8.5 -44.5t-1.5 -204.5h93q8 0 8 -12t-8 -12h-93v-45l-1 -171q0 -62 10.5 -77.5t59.5 -23.5q11 -3 11 -8
q0 -7 -7 -7l-34 2q-34 2 -56 2t-56 -2l-34 -2q-7 0 -7 7q0 5 11 8q49 8 59.5 23.5t10.5 77.5v171q-1 16 -1 45h-93q-8 0 -8 12t8 12h93q0 168 -1.5 204.5t-8.5 44.5q-13 17 -89 17q-33 0 -49.5 -2.5t-31.5 -9t-21.5 -24.5t-11.5 -43.5t-9 -71.5q-1 -16 -10 -16q-7 0 -7 10
l2 54q1 54 1 78q0 17 -5.5 28t-5.5 12q0 7 7 7q2 0 9 -1t23.5 -2.5t42 -2.5t73.5 -2t109 -1t109 1t73.5 2t42 2.5t23.5 2.5t9 1q7 0 7 -7z" />
    <glyph glyph-name="tbar" unicode="&#x167;" horiz-adv-x="302" 
d="M255 83q8 0 8 -11q0 -37 -21.5 -62t-58.5 -25q-80 0 -80 90v151h-68q-8 0 -8 12t8 12h68v87q0 20 -4.5 25t-23.5 6l-40 2q-12 0 -12 11q0 9 12 9q23 0 33 2t20 7.5t13.5 24t6 41t5.5 70.5q1 15 13 15q11 0 11 -14l-1 -138q0 -7 6 -7l104 1q15 0 15 -14t-13 -14
q-7 0 -20.5 0.5t-39 1t-46.5 0.5q-7 0 -7 -8v-108h94q8 0 8 -12t-8 -12h-94v-150q0 -35 13 -50.5t41 -15.5q57 0 59 63q0 10 7 10z" />
    <glyph glyph-name="Utilde" unicode="&#x168;" horiz-adv-x="623" 
d="M208 704q-8 0 -6 9q7 80 57 80q25 0 63 -23q40 -21 56 -21q32 2 36 30q1 10 7 10q8 0 8 -11q0 -26 -15 -45.5t-41 -19.5q-19 0 -61 22q-40 21 -55 21q-16 -1 -26 -10t-14 -32q-3 -10 -9 -10zM315 -15q-116 0 -179 73.5t-63 221.5v249q0 43 -7 61t-31 27q-17 7 -17 13t8 6
q1 0 26.5 -3t40.5 -3q17 0 42.5 3t29.5 3q7 0 7 -6q0 -7 -19 -13q-25 -8 -34 -24t-9 -52l-1 -269q-1 -132 52.5 -200t153.5 -68q95 0 150.5 65.5t55.5 202.5v229q0 60 -12.5 85.5t-42.5 33.5q-16 4 -16 10t8 6q1 0 12.5 -1.5t26.5 -3t27 -1.5q21 0 45.5 3t26.5 3q6 0 6 -6
t-16 -11q-26 -7 -36.5 -28t-10.5 -61v-258q0 -151 -61 -219t-163 -68z" />
    <glyph glyph-name="utilde" unicode="&#x169;" horiz-adv-x="475" 
d="M130 504q-8 0 -6 9q7 80 57 80q25 0 63 -23q40 -21 56 -21q32 2 36 30q1 10 7 10q8 0 8 -11q0 -26 -15 -45.5t-41 -19.5q-19 0 -61 22q-40 21 -55 21q-16 -1 -26 -10t-14 -32q-3 -10 -9 -10zM438 22q13 -3 13 -8q0 -6 -11 -7q-28 -3 -41.5 -10t-15.5 -7q-8 0 -8 7
q-4 18 -6 117h-1q-15 -60 -55.5 -94.5t-101.5 -34.5q-131 0 -131 157v137q0 45 -5.5 60.5t-24.5 24.5q-3 1 -6.5 2.5t-5 2.5t-3.5 1.5t-2.5 1.5l-1 2t-0.5 3q0 6 10 6q24 0 46 8.5t23 8.5q8 0 8 -9q0 -1 -1.5 -10t-3 -35t-1.5 -67v-132q0 -140 110 -140q62 0 101.5 49.5
t39.5 128.5v1q0 65 -1 95t-5.5 50t-10 24.5t-19.5 7.5q-20 7 -21 13q0 7 10 7q27 0 45 4.5t26 8.5t10 4q6 0 6 -6l-4 -16q-4 -16 -4 -36v-261q0 -30 10.5 -41.5t32.5 -17.5z" />
    <glyph glyph-name="Umacron" unicode="&#x16a;" horiz-adv-x="623" 
d="M224 754q5 0 37.5 -1t48.5 -1q20 0 57.5 1t43.5 1q12 0 12 -9q0 -20 -15 -20q-16 0 -47.5 1t-46.5 1q-14 0 -49.5 -1t-44.5 -1q-12 0 -12 10q0 19 16 19zM315 -15q-116 0 -179 73.5t-63 221.5v249q0 43 -7 61t-31 27q-17 7 -17 13t8 6q1 0 26.5 -3t40.5 -3q17 0 42.5 3
t29.5 3q7 0 7 -6q0 -7 -19 -13q-25 -8 -34 -24t-9 -52l-1 -269q-1 -132 52.5 -200t153.5 -68q95 0 150.5 65.5t55.5 202.5v229q0 60 -12.5 85.5t-42.5 33.5q-16 4 -16 10t8 6q1 0 12.5 -1.5t26.5 -3t27 -1.5q21 0 45.5 3t26.5 3q6 0 6 -6t-16 -11q-26 -7 -36.5 -28
t-10.5 -61v-258q0 -151 -61 -219t-163 -68z" />
    <glyph glyph-name="umacron" unicode="&#x16b;" horiz-adv-x="475" 
d="M143 504q-12 0 -12 10q0 19 16 19q5 0 37.5 -1t48.5 -1q20 0 57.5 1t43.5 1q12 0 12 -9q0 -20 -15 -20q-16 0 -47.5 1t-46.5 1q-14 0 -49.5 -1t-44.5 -1zM438 22q13 -3 13 -8q0 -6 -11 -7q-28 -3 -41.5 -10t-15.5 -7q-8 0 -8 7q-4 18 -6 117h-1q-15 -60 -55.5 -94.5
t-101.5 -34.5q-131 0 -131 157v137q0 45 -5.5 60.5t-24.5 24.5q-3 1 -6.5 2.5t-5 2.5t-3.5 1.5t-2.5 1.5l-1 2t-0.5 3q0 6 10 6q24 0 46 8.5t23 8.5q8 0 8 -9q0 -1 -1.5 -10t-3 -35t-1.5 -67v-132q0 -140 110 -140q62 0 101.5 49.5t39.5 128.5v1q0 65 -1 95t-5.5 50
t-10 24.5t-19.5 7.5q-20 7 -21 13q0 7 10 7q27 0 45 4.5t26 8.5t10 4q6 0 6 -6l-4 -16q-4 -16 -4 -36v-261q0 -30 10.5 -41.5t32.5 -17.5z" />
    <glyph glyph-name="Uring" unicode="&#x16e;" horiz-adv-x="623" 
d="M315 684q-31 0 -52 19.5t-21 48.5q0 30 20.5 49t52.5 19q33 0 53 -19t20 -49t-20 -49t-53 -19zM315 697q43 0 43 55t-43 55q-20 0 -31.5 -14.5t-11.5 -40.5t11.5 -40.5t31.5 -14.5zM315 -15q-116 0 -179 73.5t-63 221.5v249q0 43 -7 61t-31 27q-17 7 -17 13t8 6
q1 0 26.5 -3t40.5 -3q17 0 42.5 3t29.5 3q7 0 7 -6q0 -7 -19 -13q-25 -8 -34 -24t-9 -52l-1 -269q-1 -132 52.5 -200t153.5 -68q95 0 150.5 65.5t55.5 202.5v229q0 60 -12.5 85.5t-42.5 33.5q-16 4 -16 10t8 6q1 0 12.5 -1.5t26.5 -3t27 -1.5q21 0 45.5 3t26.5 3q6 0 6 -6
t-16 -11q-26 -7 -36.5 -28t-10.5 -61v-258q0 -151 -61 -219t-163 -68z" />
    <glyph glyph-name="uring" unicode="&#x16f;" horiz-adv-x="475" 
d="M247 494q-31 0 -52 19.5t-21 48.5q0 30 20.5 49t52.5 19q33 0 53 -19t20 -49t-20 -49t-53 -19zM247 617q-20 0 -31.5 -14.5t-11.5 -40.5t11.5 -40.5t31.5 -14.5q43 0 43 55t-43 55zM438 22q13 -3 13 -8q0 -6 -11 -7q-28 -3 -41.5 -10t-15.5 -7q-8 0 -8 7q-4 18 -6 117h-1
q-15 -60 -55.5 -94.5t-101.5 -34.5q-131 0 -131 157v137q0 45 -5.5 60.5t-24.5 24.5q-3 1 -6.5 2.5t-5 2.5t-3.5 1.5t-2.5 1.5l-1 2t-0.5 3q0 6 10 6q24 0 46 8.5t23 8.5q8 0 8 -9q0 -1 -1.5 -10t-3 -35t-1.5 -67v-132q0 -140 110 -140q62 0 101.5 49.5t39.5 128.5v1
q0 65 -1 95t-5.5 50t-10 24.5t-19.5 7.5q-20 7 -21 13q0 7 10 7q27 0 45 4.5t26 8.5t10 4q6 0 6 -6l-4 -16q-4 -16 -4 -36v-261q0 -30 10.5 -41.5t32.5 -17.5z" />
    <glyph glyph-name="Uhungarumlaut" unicode="&#x170;" horiz-adv-x="623" 
d="M235 650q-3 -2 -5 3q-1 4 0 6q16 24 41 62q44 66 58 83.5t26 17.5q25 0 25 -24q0 -14 -19 -33q-71 -71 -122 -113zM338 650q-5 -2 -5 3q-1 2 1 6q15 18 42 50q57 68 78 90.5t31 22.5q11 0 18 -7.5t7 -17.5q0 -16 -22 -32q-97 -80 -145 -113zM315 -15q-116 0 -179 73.5
t-63 221.5v249q0 43 -7 61t-31 27q-17 7 -17 13t8 6q1 0 26.5 -3t40.5 -3q17 0 42.5 3t29.5 3q7 0 7 -6q0 -7 -19 -13q-25 -8 -34 -24t-9 -52l-1 -269q-1 -132 52.5 -200t153.5 -68q95 0 150.5 65.5t55.5 202.5v229q0 60 -12.5 85.5t-42.5 33.5q-16 4 -16 10t8 6
q1 0 12.5 -1.5t26.5 -3t27 -1.5q21 0 45.5 3t26.5 3q6 0 6 -6t-16 -11q-26 -7 -36.5 -28t-10.5 -61v-258q0 -151 -61 -219t-163 -68z" />
    <glyph glyph-name="uhungarumlaut" unicode="&#x171;" horiz-adv-x="475" 
d="M149 451q-3 -2 -5 3q-1 4 0 6q16 24 41 62q44 66 58 83.5t26 17.5q25 0 25 -24q0 -14 -19 -33q-71 -71 -122 -113zM247 454q-1 2 1 6q15 18 42 50q57 68 78 90.5t31 22.5q11 0 18 -7.5t7 -17.5q0 -16 -22 -32q-97 -80 -145 -113l-5 -2q-5 -3 -5 3zM438 22q13 -3 13 -8
q0 -6 -11 -7q-28 -3 -41.5 -10t-15.5 -7q-8 0 -8 7q-4 18 -6 117h-1q-15 -60 -55.5 -94.5t-101.5 -34.5q-131 0 -131 157v137q0 45 -5.5 60.5t-24.5 24.5q-3 1 -6.5 2.5t-5 2.5t-3.5 1.5t-2.5 1.5l-1 2t-0.5 3q0 6 10 6q24 0 46 8.5t23 8.5q8 0 8 -9q0 -1 -1.5 -10t-3 -35
t-1.5 -67v-132q0 -140 110 -140q62 0 101.5 49.5t39.5 128.5v1q0 65 -1 95t-5.5 50t-10 24.5t-19.5 7.5q-20 7 -21 13q0 7 10 7q27 0 45 4.5t26 8.5t10 4q6 0 6 -6l-4 -16q-4 -16 -4 -36v-261q0 -30 10.5 -41.5t32.5 -17.5z" />
    <glyph glyph-name="Uogonek" unicode="&#x172;" horiz-adv-x="623" 
d="M596 636q6 0 6 -6t-16 -11q-26 -7 -36.5 -28t-10.5 -61v-258q0 -200 -114 -262h5l-34 -25q-41 -32 -61 -60t-20 -61q0 -61 57 -61q16 0 36.5 9t22.5 9q3 0 3 -3t-4 -8q-32 -28 -74 -28q-39 0 -60.5 20t-21.5 55q0 38 25.5 70t77.5 65q-28 -7 -62 -7q-116 0 -179 73.5
t-63 221.5v249q0 43 -7 61t-31 27q-17 7 -17 13t8 6q1 0 26.5 -3t40.5 -3q17 0 42.5 3t29.5 3q7 0 7 -6q0 -7 -19 -13q-25 -8 -34 -24t-9 -52l-1 -269q-1 -132 52.5 -200t153.5 -68q95 0 150.5 65.5t55.5 202.5v229q0 60 -12.5 85.5t-42.5 33.5q-16 4 -16 10t8 6
q1 0 12.5 -1.5t26.5 -3t27 -1.5q21 0 45.5 3t26.5 3z" />
    <glyph glyph-name="uogonek" unicode="&#x173;" horiz-adv-x="475" 
d="M438 22q13 -3 13 -8q0 -6 -11 -7q-29 -3 -42 -10l-12 -9q-41 -32 -61 -60t-20 -61q0 -61 57 -61q16 0 36.5 9t22.5 9q3 0 3 -3t-4 -8q-32 -28 -74 -28q-39 0 -60.5 20t-21.5 55q0 39 27.5 72t82.5 68q-4 45 -5 114h-1q-15 -60 -55.5 -94.5t-101.5 -34.5q-131 0 -131 157
v137q0 45 -5.5 60.5t-24.5 24.5q-3 1 -6.5 2.5t-5 2.5t-3.5 1.5t-2.5 1.5l-1 2t-0.5 3q0 6 10 6q24 0 46 8.5t23 8.5q8 0 8 -9q0 -1 -1.5 -10t-3 -35t-1.5 -67v-132q0 -140 110 -140q62 0 101.5 49.5t39.5 128.5v1q0 65 -1 95t-5.5 50t-10 24.5t-19.5 7.5q-20 7 -21 13
q0 7 10 7q27 0 45 4.5t26 8.5t10 4q6 0 6 -6l-4 -16q-4 -16 -4 -36v-261q0 -30 10.5 -41.5t32.5 -17.5z" />
    <glyph glyph-name="Wcircumflex" unicode="&#x174;" horiz-adv-x="962" 
d="M350 691q-7 0 -7 7q0 6 46 49q8 6 12.5 10t12.5 11.5t15 14.5q3 3 8 8.5t7.5 7.5t7 6t7 5.5t6.5 3t7 1.5q4 0 8 -1.5t8.5 -5t7 -6t8.5 -8t9 -8.5q83 -77 87 -83q1 -3 1 -5q0 -7 -7 -7q-3 0 -6 1.5t-11.5 7.5t-18.5 13.5t-33.5 24t-51.5 35.5h-2q-26 -18 -49 -34
t-33.5 -24t-19 -14t-12.5 -8t-7 -2zM947 636q10 0 10 -7t-10 -9q-25 -7 -38.5 -23.5t-28.5 -59.5l-189 -564q-3 -7 -8 -7q-7 0 -10 6l-184 519l-176 -519q-3 -7 -8 -7q-7 0 -9 7l-201 563q-13 34 -28.5 53t-44.5 30q-17 6 -17 12q0 7 9 7q2 0 34 -3.5t48 -3.5q14 0 49.5 3.5
t36.5 3.5q10 0 10 -7q0 -6 -23 -13q-43 -12 -43 -40q0 -35 186 -547l1 -1q1 0 2 1l165 487l-5 14q-11 27 -16.5 38.5t-18 24.5t-31.5 22q-17 8 -17 14q0 7 9 7q3 0 29 -3.5t44 -3.5t33.5 2t25 3.5t11.5 1.5q10 0 10 -7t-22 -13q-19 -6 -26 -12t-7 -17q0 -34 192 -554l1 -2
q1 0 1 2q101 299 133.5 402.5t32.5 128.5q0 21 -13.5 33.5t-46.5 20.5q-12 3 -12 10t9 7q2 0 15.5 -1.5t33 -3t35.5 -1.5q14 0 30 1.5t26 3t11 1.5z" />
    <glyph glyph-name="wcircumflex" unicode="&#x175;" horiz-adv-x="656" 
d="M213 474q-7 0 -7 7q0 6 9.5 18t44.5 50q20 22 33 36q13 15 20 19t22 4q11 0 17.5 -2.5t10 -5.5t12.5 -12q65 -71 77 -85.5t12 -21.5t-7 -7t-50 37q-39 35 -71 62h-2q-15 -13 -29.5 -25.5t-24 -21t-19 -16.5t-15 -13t-11 -9.5t-8.5 -6.5t-5.5 -4t-4.5 -2.5t-4 -0.5z
M204 -16q-3 0 -7 12l-128 340q-7 19 -14 27t-20 13q-19 9 -20 12q0 7 8 7l24 -3q24 -2 38 -2q10 0 33 2t26 2q8 0 8 -7q0 -5 -11 -8q-19 -4 -25.5 -11t-6.5 -20q0 -27 95 -283l8 -21l2 4q1 3 2.5 8t2.5 7l82 254q10 31 10 42t-19 21q-12 6 -12 9q0 6 8 6q1 0 8 -1.5
t17.5 -2.5t19.5 -1q12 0 29 2l16 2q7 0 7 -5q0 -3 -12 -10q-14 -7 -14 -19q0 -7 4.5 -22t14 -42.5t20.5 -56.5t29 -77.5t33 -91.5l2 -6t2 -5t1.5 -3.5t0.5 -2.5l1 -1q1 0 8 18l69 195q14 41 14 70q0 37 -30 45q-12 4 -12 9t5 5q3 0 25.5 -2t36.5 -2t27 1t20.5 2t8.5 1
q9 0 9 -5q0 -7 -8 -9q-24 -6 -36.5 -14.5t-16.5 -16.5t-12 -31l-108 -318q-6 -16 -9 -16t-9 16q-24 63 -121 330q-3 11 -5 11t-5 -11l-107 -334q-3 -12 -7 -12z" />
    <glyph glyph-name="Ycircumflex" unicode="&#x176;" horiz-adv-x="582" 
d="M171 714q-7 0 -7 7q0 6 9.5 18t44.5 50q20 22 33 36q13 15 20 19t22 4q11 0 17.5 -2.5t10 -5.5t12.5 -12q65 -71 77 -85.5t12 -21.5t-7 -7t-50 37q-39 35 -71 62h-2q-15 -13 -29.5 -25.5t-24 -21t-19 -16.5t-15 -13t-11 -9.5t-8.5 -6.5t-5.5 -4t-4.5 -2.5t-4 -0.5z
M220 -7q-8 0 -8 6t24 14q11 4 17.5 8.5t12 16t8 24t4 42t2 60t0.5 86.5q0 9 -7 23l-153 247q-33 56 -52 74.5t-44 26.5q-14 4 -14 10q0 5 8 5q2 0 23 -3t37 -3q18 0 50 3t34 3q8 0 8 -5t-16 -11q-24 -10 -24 -23t9 -34.5t48.5 -90.5t115.5 -189l102 161q35 56 48.5 83.5
t13.5 48.5q0 39 -52 45q-12 1 -12 8t9 7q2 0 35 -3t51 -3q13 0 40.5 3t29.5 3q9 0 9 -6t-9 -9q-23 -7 -37 -21t-42 -58l-170 -263q-6 -7 -6 -14q0 -191 9 -220q6 -19 26 -27q1 -1 10 -4q22 -9 22 -15t-8 -6q-1 0 -32 3.5t-41 3.5q-13 0 -46 -4z" />
    <glyph glyph-name="ycircumflex" unicode="&#x177;" horiz-adv-x="450" 
d="M110 474q-7 0 -7 7q0 6 9.5 18t44.5 50q20 22 33 36q13 15 20 19t22 4q11 0 17.5 -2.5t10 -5.5t12.5 -12q65 -71 77 -85.5t12 -21.5t-7 -7t-50 37q-39 35 -71 62h-2q-15 -13 -29.5 -25.5t-24 -21t-19 -16.5t-15 -13t-11 -9.5t-8.5 -6.5t-5.5 -4t-4.5 -2.5t-4 -0.5z
M57 -128q11 0 30.5 -20.5t31.5 -20.5q17 0 52.5 63t35.5 88q0 28 -140 352q-10 21 -18.5 29.5t-25.5 13.5q-20 6 -20 13t9 7q3 0 27.5 -3.5t33.5 -3.5q11 0 32.5 3t25.5 3q8 0 8 -7q0 -8 -17 -12q-18 -3 -18 -24q0 -17 52.5 -145t75.5 -178l2 -2l2 2q4 12 37.5 86.5
t61 143.5t27.5 89q0 13 -8 19.5t-32 11.5q-10 2 -10 9t9 7l21 -3q21 -3 35 -3q15 0 36 3t22 3q7 0 7 -7t-11 -9q-19 -4 -30 -16t-25 -44l-158 -363q-32 -78 -65 -121.5t-78 -43.5q-54 0 -54 42q0 18 10.5 28t25.5 10z" />
    <glyph glyph-name="Ydieresis" unicode="&#x178;" horiz-adv-x="582" 
d="M231 682q-17 0 -27.5 10.5t-10.5 27.5t10.5 27.5t27.5 10.5t27.5 -10.5t10.5 -27.5t-10.5 -27.5t-27.5 -10.5zM354 682q-17 0 -27.5 10.5t-10.5 27.5t10.5 27.5t27.5 10.5t27.5 -10.5t10.5 -27.5t-10.5 -27.5t-27.5 -10.5zM220 -7q-8 0 -8 6t24 14q11 4 17.5 8.5t12 16
t8 24t4 42t2 60t0.5 86.5q0 9 -7 23l-153 247q-33 56 -52 74.5t-44 26.5q-14 4 -14 10q0 5 8 5q2 0 23 -3t37 -3q18 0 50 3t34 3q8 0 8 -5t-16 -11q-24 -10 -24 -23t9 -34.5t48.5 -90.5t115.5 -189l102 161q35 56 48.5 83.5t13.5 48.5q0 39 -52 45q-12 1 -12 8t9 7
q2 0 35 -3t51 -3q13 0 40.5 3t29.5 3q9 0 9 -6t-9 -9q-23 -7 -37 -21t-42 -58l-170 -263q-6 -7 -6 -14q0 -191 9 -220q6 -19 26 -27q1 -1 10 -4q22 -9 22 -15t-8 -6q-1 0 -32 3.5t-41 3.5q-13 0 -46 -4z" />
    <glyph glyph-name="Zacute" unicode="&#x179;" horiz-adv-x="620" 
d="M206 680q-4 0 -4 5q0 2 4 6q24 14 52 30.5t43.5 26t33.5 20t27 15.5t19 10t15.5 6.5t9.5 1.5q10 0 17.5 -7t7.5 -20q0 -18 -30 -29q-128 -47 -186 -63zM44 -7q-7 0 -7 6q0 2 1 4t2 3t3 3.5t4 4.5q12 13 25.5 29.5t37 46t44 55.5t63.5 81.5t77 99.5q172 221 187 244
q13 21 13 30q0 5 -6 7.5t-29.5 4.5t-71.5 2h-98q-43 0 -65 -0.5t-45.5 -5.5t-33.5 -11.5t-22.5 -22t-19 -34t-16.5 -50.5q-6 -12 -10 -12q-7 0 -7 8q0 1 3 17.5t6 38.5t3 38q0 27 -5 38.5t-5 12.5q0 6 7 6q1 0 95.5 -1.5t169.5 -1.5q56 0 133 1.5t80 1.5q7 0 7 -6
q0 -3 -2 -4.5t-6.5 -4.5t-8.5 -8l-227 -294q-192 -246 -207 -272q-10 -15 -10 -22q0 -9 23 -9h180q54 1 87 3.5t61.5 11t43 19t28 34t20.5 49t16 70.5q4 16 12 16q5 0 5 -8q0 -1 -5.5 -27.5t-10.5 -65.5t-5 -69q0 -11 1 -30t1 -20q0 -6 -7 -6t-71 0.5t-155.5 1t-165.5 0.5
q-30 0 -73 -1.5t-44 -1.5z" />
    <glyph glyph-name="zacute" unicode="&#x17a;" horiz-adv-x="432" 
d="M158 451q-4 -1 -6 3q0 2 2 6q27 28 56.5 59t43.5 46t28.5 29.5t22 20.5t12.5 7q24 5 32 -20q4 -16 -22 -36q-100 -73 -165 -113zM48 -3q-8 0 -8 6q0 2 22 32l146 184q41 51 87 107q37 45 37 49q0 5 -69 5q-124 0 -147 -22q-20 -20 -41 -96q-4 -10 -11 -10q-9 0 -9 8
q0 1 3.5 14.5t7.5 32.5t4 33q0 22 -2.5 35.5t-2.5 15.5q0 6 8 6q15 0 121 -1.5t149 -1.5q13 0 22 1t13 1.5t5 0.5q8 0 8 -6q0 -2 -28 -38l-124 -150q-146 -178 -146 -186q0 -7 63 -7q140 0 175 27q26 21 45 100q1 7 9 7q7 0 7 -6q0 -2 -4 -20.5t-7.5 -44.5t-3.5 -47v-22
q0 -6 -8 -6h-209h-73z" />
    <glyph glyph-name="Zdotaccent" unicode="&#x17b;" horiz-adv-x="620" 
d="M307 699q-17 0 -28 11.5t-11 29.5t11 29t28 11q18 0 29 -11t11 -29q0 -19 -11 -30t-29 -11zM44 -7q-7 0 -7 6q0 2 1 4t2 3t3 3.5t4 4.5q12 13 25.5 29.5t37 46t44 55.5t63.5 81.5t77 99.5q172 221 187 244q13 21 13 30q0 5 -6 7.5t-29.5 4.5t-71.5 2h-98q-43 0 -65 -0.5
t-45.5 -5.5t-33.5 -11.5t-22.5 -22t-19 -34t-16.5 -50.5q-6 -12 -10 -12q-7 0 -7 8q0 1 3 17.5t6 38.5t3 38q0 27 -5 38.5t-5 12.5q0 6 7 6q1 0 95.5 -1.5t169.5 -1.5q56 0 133 1.5t80 1.5q7 0 7 -6q0 -3 -2 -4.5t-6.5 -4.5t-8.5 -8l-227 -294q-192 -246 -207 -272
q-10 -15 -10 -22q0 -9 23 -9h180q54 1 87 3.5t61.5 11t43 19t28 34t20.5 49t16 70.5q4 16 12 16q5 0 5 -8q0 -1 -5.5 -27.5t-10.5 -65.5t-5 -69q0 -11 1 -30t1 -20q0 -6 -7 -6t-71 0.5t-155.5 1t-165.5 0.5q-30 0 -73 -1.5t-44 -1.5z" />
    <glyph glyph-name="zdotaccent" unicode="&#x17c;" horiz-adv-x="432" 
d="M199 509q-17 0 -28 11.5t-11 29.5t11 29t28 11q18 0 29 -11t11 -29q0 -19 -11 -30t-29 -11zM48 -3q-8 0 -8 6q0 2 22 32l146 184q41 51 87 107q37 45 37 49q0 5 -69 5q-124 0 -147 -22q-20 -20 -41 -96q-4 -10 -11 -10q-9 0 -9 8q0 1 3.5 14.5t7.5 32.5t4 33
q0 22 -2.5 35.5t-2.5 15.5q0 6 8 6q15 0 121 -1.5t149 -1.5q13 0 22 1t13 1.5t5 0.5q8 0 8 -6q0 -2 -28 -38l-124 -150q-146 -178 -146 -186q0 -7 63 -7q140 0 175 27q26 21 45 100q1 7 9 7q7 0 7 -6q0 -2 -4 -20.5t-7.5 -44.5t-3.5 -47v-22q0 -6 -8 -6h-209h-73z" />
    <glyph glyph-name="Zcaron" unicode="&#x17d;" horiz-adv-x="620" 
d="M182 822q3 0 7 -1.5t12.5 -8t19 -14t33.5 -24t49 -34.5h2q20 14 38.5 27t29.5 21t20 14.5t14 10t9 6t6 3t4 0.5q7 0 7 -7t-59 -61q-6 -5 -9 -8.5t-9 -8.5t-11 -10q-3 -3 -9 -8.5t-8.5 -8t-7 -6t-8.5 -5t-8 -1.5q-3 0 -7 1.5t-6.5 3t-7 5.5t-7 6t-7.5 7.5t-8 8.5
q-81 75 -84 80q-2 3 -2 5q0 7 7 7zM44 -7q-7 0 -7 6q0 2 1 4t2 3t3 3.5t4 4.5q12 13 25.5 29.5t37 46t44 55.5t63.5 81.5t77 99.5q172 221 187 244q13 21 13 30q0 5 -6 7.5t-29.5 4.5t-71.5 2h-98q-43 0 -65 -0.5t-45.5 -5.5t-33.5 -11.5t-22.5 -22t-19 -34t-16.5 -50.5
q-6 -12 -10 -12q-7 0 -7 8q0 1 3 17.5t6 38.5t3 38q0 27 -5 38.5t-5 12.5q0 6 7 6q1 0 95.5 -1.5t169.5 -1.5q56 0 133 1.5t80 1.5q7 0 7 -6q0 -3 -2 -4.5t-6.5 -4.5t-8.5 -8l-227 -294q-192 -246 -207 -272q-10 -15 -10 -22q0 -9 23 -9h180q54 1 87 3.5t61.5 11t43 19
t28 34t20.5 49t16 70.5q4 16 12 16q5 0 5 -8q0 -1 -5.5 -27.5t-10.5 -65.5t-5 -69q0 -11 1 -30t1 -20q0 -6 -7 -6t-71 0.5t-155.5 1t-165.5 0.5q-30 0 -73 -1.5t-44 -1.5z" />
    <glyph glyph-name="zcaron" unicode="&#x17e;" horiz-adv-x="432" 
d="M109 590q2 0 4 -0.5t4.5 -2.5t5.5 -4t8.5 -6.5t11 -9.5t15 -13t19 -16.5t24 -21t29.5 -25.5h2q111 95 112 96q5 3 9 3q7 0 7 -7t-12 -21.5t-77 -85.5l-9.5 -9.5t-7.5 -6t-10 -4t-13 -0.5q-11 0 -18 3t-10 6l-14 14q-13 14 -33 36q-52 60 -54 68q0 7 7 7zM48 -3q-8 0 -8 6
q0 2 22 32l146 184q41 51 87 107q37 45 37 49q0 5 -69 5q-124 0 -147 -22q-20 -20 -41 -96q-4 -10 -11 -10q-9 0 -9 8q0 1 3.5 14.5t7.5 32.5t4 33q0 22 -2.5 35.5t-2.5 15.5q0 6 8 6q15 0 121 -1.5t149 -1.5q13 0 22 1t13 1.5t5 0.5q8 0 8 -6q0 -2 -28 -38l-124 -150
q-146 -178 -146 -186q0 -7 63 -7q140 0 175 27q26 21 45 100q1 7 9 7q7 0 7 -6q0 -2 -4 -20.5t-7.5 -44.5t-3.5 -47v-22q0 -6 -8 -6h-209h-73z" />
    <glyph glyph-name="florin" unicode="&#x192;" horiz-adv-x="381" 
d="M292 646q36 0 63 -14.5t26 -32.5q-2 -21 -20 -21q-11 0 -25 25q-1 3 -2 4q-17 21 -51 21q-29 0 -48.5 -18.5t-22.5 -56.5q0 -10 -5 -65q-6 -64 -10 -101q19 0 45.5 1t45.5 2t22 1q16 0 16 -14t-16 -14q-2 0 -21.5 0.5t-46.5 1.5t-47 1l-42 -451q-5 -58 -36 -91.5
t-79 -33.5q-36 0 -62.5 14.5t-26.5 34.5q0 19 19 19q4 0 8 -2.5t6.5 -5.5t7.5 -10t8 -11q17 -21 50 -21q29 0 48.5 18.5t22.5 56.5q0 4 1.5 28t2.5 37l40 418l-64 -2q-13 0 -13 13t13 13q3 0 13 -0.5t25.5 -1.5t27.5 -1l12 134q6 59 36.5 92t78.5 33z" />
    <glyph glyph-name="Ohorn" unicode="&#x1a0;" horiz-adv-x="700" 
d="M678 624q0 -32 -25.5 -56.5t-65.5 -23.5q-9 0 -12 1q75 -94 75 -228q0 -139 -83.5 -235.5t-216.5 -96.5t-216.5 96.5t-83.5 235.5q0 141 83.5 236.5t216.5 95.5q127 0 210 -88q14 -2 26 -2q21 0 35 9t14 19q0 5 -14 19.5t-14 29.5q0 14 9 23t25 9q37 0 37 -44zM350 3
q108 0 180.5 76.5t72.5 237.5q0 86 -21 149t-57.5 98t-79.5 51t-95 16q-50 0 -93 -16t-80 -51t-58.5 -98t-21.5 -149q0 -83 21.5 -146t58.5 -98.5t80.5 -52.5t92.5 -17z" />
    <glyph glyph-name="ohorn" unicode="&#x1a1;" horiz-adv-x="465" 
d="M456 433q0 -32 -25.5 -56.5t-65.5 -23.5h-1q60 -58 60 -159q0 -90 -51.5 -149.5t-139.5 -59.5t-139.5 59.5t-51.5 149.5t51.5 150t139.5 60q64 0 112 -35q3 0 9 -0.5t10 -0.5q21 0 35 9t14 19q0 5 -14 19.5t-14 29.5q0 14 9 23t25 9q37 0 37 -44zM384 194q0 94 -39.5 145
t-111.5 51t-111.5 -51t-39.5 -145t39.5 -144.5t111.5 -50.5t111.5 50.5t39.5 144.5z" />
    <glyph glyph-name="Uhorn" unicode="&#x1af;" horiz-adv-x="641" 
d="M333 -15q-116 0 -179 73.5t-63 221.5v249q0 43 -7 61t-31 27q-17 7 -17 13t8 6q1 0 26.5 -3t40.5 -3q17 0 42.5 3t29.5 3q7 0 7 -6q0 -7 -19 -13q-25 -8 -34 -24t-9 -52l-1 -269q-1 -132 52.5 -200t153.5 -68q95 0 150.5 65.5t55.5 202.5v229q0 60 -12.5 85.5t-42.5 33.5
q-16 4 -16 10q0 8 8 6q40 -6 74 -6q77 0 77 19q0 10 -19.5 21.5t-19.5 26.5q0 16 10.5 25t25.5 9q20 0 30 -12t10 -30q0 -21 -15 -40t-43 -26q-29 -11 -39 -23.5t-10 -38.5v-289q0 -151 -61 -219t-163 -68z" />
    <glyph glyph-name="uhorn" unicode="&#x1b0;" horiz-adv-x="512" 
d="M418 316q-9 0 -23 2v-237q0 -30 10.5 -41.5t32.5 -17.5q13 -3 13 -8q0 -6 -11 -7q-28 -3 -41.5 -10t-15.5 -7q-8 0 -8 7q-4 18 -6 117h-1q-15 -60 -55.5 -94.5t-101.5 -34.5q-131 0 -131 157v137q0 45 -5.5 60.5t-24.5 24.5q-3 1 -6.5 2.5t-5 2.5t-3.5 1.5t-2.5 1.5l-1 2
t-0.5 3q0 6 10 6q24 0 46 8.5t23 8.5q8 0 8 -9q0 -1 -1.5 -10t-3 -35t-1.5 -67v-132q0 -140 110 -140q62 0 101.5 49.5t39.5 128.5v1q0 65 -1 95t-5.5 50t-10 24.5t-19.5 7.5q-20 7 -21 13q0 7 10 7q27 0 45 4.5t26 8.5t10 4q6 0 6 -6l-4 -16q-4 -16 -4 -36v-9q14 -2 22 -2
q21 0 35 9t14 19q0 5 -14 19.5t-14 29.5q0 14 9 23t25 9q37 0 37 -44q0 -32 -25.5 -56.5t-65.5 -23.5z" />
    <glyph glyph-name="uni01CD" unicode="&#x1cd;" horiz-adv-x="637" 
d="M184 822q3 0 7 -1.5t12.5 -8t19 -14t33.5 -24t49 -34.5h2q20 14 38.5 27t29.5 21t20 14.5t14 10t9 6t6 3t4 0.5q7 0 7 -7t-59 -61q-6 -5 -9 -8.5t-9 -8.5t-11 -10q-3 -3 -9 -8.5t-8.5 -8t-7 -6t-8.5 -5t-8 -1.5q-3 0 -7 1.5t-6.5 3t-7 5.5t-7 6t-7.5 7.5t-8 8.5
q-81 75 -84 80q-2 3 -2 5q0 7 7 7zM461 -5q-10 0 -10 6t17 10q36 12 36 44q0 17 -45 138q-3 8 -13 10q-17 3 -156 3q-108 0 -122 -3q-8 -1 -11 -10l-32 -87q-8 -24 -8 -41q0 -38 48 -55q15 -3 15 -9q0 -7 -9 -7q-1 0 -33.5 3t-52.5 3q-16 0 -39 -3t-25 -3q-10 0 -10 7
q0 6 15 10q32 11 44 27.5t40 82.5q71 175 162 432q12 34 12 37q0 13 -27 23q-11 3 -11 9q0 8 10 8q25 0 43 5t26 9.5t10 4.5q8 0 8 -7q0 -2 -3.5 -7t-3.5 -9q0 -9 7 -28l191 -504q16 -43 27 -57.5t32 -20.5q26 -7 26 -14t-9 -7q-4 0 -31 2.5t-42 2.5q-14 0 -43.5 -2.5
t-32.5 -2.5zM295 221q108 0 143 5q7 0 7 4q0 2 -2 8l-136 358q-1 2 -2 2t-1 -1l-133 -363q-1 -2 -1 -6q0 -3 4 -4q14 -3 121 -3z" />
    <glyph glyph-name="uni01CE" unicode="&#x1ce;" horiz-adv-x="457" 
d="M211 456q-11 0 -18 3t-10 6l-14 14q-13 14 -33 36q-52 60 -54 68q0 7 7 7q2 0 4 -0.5t4.5 -2.5t5.5 -4t8.5 -6.5t11 -9.5t15 -13t19 -16.5t24 -21t29.5 -25.5h2q111 95 112 96q5 3 9 3q7 0 7 -7t-12 -21.5t-77 -85.5l-9.5 -9.5t-7.5 -6t-10 -4t-13 -0.5zM433 38q7 0 7 -9
q0 -20 -12.5 -32t-34.5 -12q-29 0 -42 17t-13 53v44q-22 -54 -69 -84t-96 -30q-60 0 -93.5 25.5t-33.5 69.5q0 37 21.5 63t63 41t90.5 22t117 10v17q0 157 -135 157q-43 0 -68.5 -14.5t-25.5 -34.5q0 -9 8.5 -21t8.5 -23q0 -13 -9 -21.5t-25 -8.5q-34 0 -34 41q0 36 39 66
t110 30q167 0 167 -178v-173q0 -48 25 -48q23 0 26 23q1 10 8 10zM175 -1q66 0 114.5 48.5t48.5 135.5v22q-171 -7 -220 -46q-34 -26 -34 -74q0 -86 91 -86z" />
    <glyph glyph-name="uni01CF" unicode="&#x1cf;" horiz-adv-x="266" 
d="M12 822q3 0 7 -1.5t12.5 -8t19 -14t33.5 -24t49 -34.5h2q20 14 38.5 27t29.5 21t20 14.5t14 10t9 6t6 3t4 0.5q7 0 7 -7t-59 -61q-18 -17 -29 -27q-3 -3 -9 -8.5t-8.5 -8t-7 -6t-8.5 -5t-8 -1.5q-3 0 -7 1.5t-6.5 3t-7 5.5t-7 6t-7.5 7.5t-8 8.5q-81 75 -84 80q-2 3 -2 5
q0 7 7 7zM76 -6q-7 0 -7 6q0 7 17 11q23 7 26.5 53t3.5 257q0 201 -3.5 246t-26.5 52q-17 4 -17 10q0 7 7 7q1 0 20.5 -3t36.5 -3t36.5 3t20.5 3q7 0 7 -7q0 -6 -17 -10q-23 -7 -26.5 -52t-3.5 -246q0 -211 3.5 -257t26.5 -53q17 -4 17 -11q0 -6 -7 -6q-2 0 -23 3t-34 3
t-34 -3t-23 -3z" />
    <glyph glyph-name="uni01D0" unicode="&#x1d0;" horiz-adv-x="247" 
d="M-8 590q2 0 4 -0.5t4.5 -2.5t5.5 -4t8.5 -6.5t11 -9.5t15 -13t19 -16.5t24 -21t29.5 -25.5h2q111 95 112 96q5 3 9 3q7 0 7 -7t-12 -21.5t-77 -85.5l-9.5 -9.5t-7.5 -6t-10 -4t-13 -0.5q-11 0 -18 3t-10 6l-14 14q-82 91 -85 98q-2 3 -2 6q0 7 7 7zM60 -4q-7 0 -7 6
q0 7 10 8q33 6 40 17.5t7 56.5v209q0 40 -8 50.5t-46 18.5q-8 2 -8 7t8 6q29 2 48 9.5t27 13.5t11 6q6 0 6 -7l-2 -22q-4 -32 -4 -80v-211q0 -45 7 -56.5t40 -17.5q10 -1 10 -8q0 -6 -7 -6q-3 0 -29 2t-39 2q-11 0 -35.5 -2t-28.5 -2z" />
    <glyph glyph-name="uni01D1" unicode="&#x1d1;" horiz-adv-x="700" 
d="M304 730q-81 75 -84 80q-2 3 -2 5q0 7 7 7q3 0 7 -1.5t12.5 -8t19 -14t33.5 -24t49 -34.5h2q20 14 38.5 27t29.5 21t20 14.5t14 10t9 6t6 3t4 0.5q7 0 7 -7t-59 -61q-6 -5 -9 -8.5t-9 -8.5t-11 -10q-3 -3 -9 -8.5t-8.5 -8t-7 -6t-8.5 -5t-8 -1.5q-3 0 -7 1.5t-6.5 3
t-7 5.5t-7 6t-7.5 7.5t-8 8.5zM350 649q134 0 217 -95.5t83 -236.5q0 -139 -83.5 -235.5t-216.5 -96.5t-216.5 96.5t-83.5 235.5q0 141 83.5 236.5t216.5 95.5zM350 3q108 0 180.5 76.5t72.5 237.5q0 86 -21 149t-57.5 98t-79.5 51t-95 16q-50 0 -93 -16t-80 -51t-58.5 -98
t-21.5 -149q0 -83 21.5 -146t58.5 -98.5t80.5 -52.5t92.5 -17z" />
    <glyph glyph-name="uni01D2" unicode="&#x1d2;" horiz-adv-x="465" 
d="M111 590q2 0 4 -0.5t4.5 -2.5t5.5 -4t8.5 -6.5t11 -9.5t15 -13t19 -16.5t24 -21t29.5 -25.5h2q111 95 112 96q5 3 9 3q7 0 7 -7t-12 -21.5t-77 -85.5l-9.5 -9.5t-7.5 -6t-10 -4t-13 -0.5q-11 0 -18 3t-10 6l-14 14q-13 14 -33 36q-52 60 -54 68q0 7 7 7zM233 404
q88 0 139.5 -60t51.5 -150t-51.5 -149.5t-139.5 -59.5t-139.5 59.5t-51.5 149.5t51.5 150t139.5 60zM233 -1q72 0 111.5 50.5t39.5 144.5t-39.5 145t-111.5 51t-111.5 -51t-39.5 -145t39.5 -144.5t111.5 -50.5z" />
    <glyph glyph-name="uni01D3" unicode="&#x1d3;" horiz-adv-x="623" 
d="M193 822q3 0 7 -1.5t12.5 -8t19 -14t33.5 -24t49 -34.5h2q20 14 38.5 27t29.5 21t20 14.5t14 10t9 6t6 3t4 0.5q7 0 7 -7t-59 -61q-6 -5 -9 -8.5t-9 -8.5t-11 -10q-3 -3 -9 -8.5t-8.5 -8t-7 -6t-8.5 -5t-8 -1.5q-3 0 -7 1.5t-6.5 3t-7 5.5t-7 6t-7.5 7.5t-8 8.5
q-81 75 -84 80q-2 3 -2 5q0 7 7 7zM315 -15q-116 0 -179 73.5t-63 221.5v249q0 43 -7 61t-31 27q-17 7 -17 13t8 6q1 0 26.5 -3t40.5 -3q17 0 42.5 3t29.5 3q7 0 7 -6q0 -7 -19 -13q-25 -8 -34 -24t-9 -52l-1 -269q-1 -132 52.5 -200t153.5 -68q95 0 150.5 65.5t55.5 202.5
v229q0 60 -12.5 85.5t-42.5 33.5q-16 4 -16 10t8 6q1 0 12.5 -1.5t26.5 -3t27 -1.5q21 0 45.5 3t26.5 3q6 0 6 -6t-16 -11q-26 -7 -36.5 -28t-10.5 -61v-258q0 -151 -61 -219t-163 -68z" />
    <glyph glyph-name="uni01D4" unicode="&#x1d4;" horiz-adv-x="475" 
d="M238 456q-11 0 -18 3t-10 6l-14 14q-13 14 -33 36q-52 60 -54 68q0 7 7 7q2 0 4 -0.5t4.5 -2.5t5.5 -4t8.5 -6.5t11 -9.5t15 -13t19 -16.5t24 -21t29.5 -25.5h2q111 95 112 96q5 3 9 3q7 0 7 -7t-12 -21.5t-77 -85.5l-9.5 -9.5t-7.5 -6t-10 -4t-13 -0.5zM438 22
q13 -3 13 -8q0 -6 -11 -7q-28 -3 -41.5 -10t-15.5 -7q-8 0 -8 7q-4 18 -6 117h-1q-15 -60 -55.5 -94.5t-101.5 -34.5q-131 0 -131 157v137q0 45 -5.5 60.5t-24.5 24.5q-3 1 -6.5 2.5t-5 2.5t-3.5 1.5t-2.5 1.5l-1 2t-0.5 3q0 6 10 6q24 0 46 8.5t23 8.5q8 0 8 -9
q0 -1 -1.5 -10t-3 -35t-1.5 -67v-132q0 -140 110 -140q62 0 101.5 49.5t39.5 128.5v1q0 65 -1 95t-5.5 50t-10 24.5t-19.5 7.5q-20 7 -21 13q0 7 10 7q27 0 45 4.5t26 8.5t10 4q6 0 6 -6l-4 -16q-4 -16 -4 -36v-261q0 -30 10.5 -41.5t32.5 -17.5z" />
    <glyph glyph-name="uni01D5" unicode="&#x1d5;" horiz-adv-x="623" 
d="M224 882q5 0 37.5 -1t48.5 -1q20 0 57.5 1t43.5 1q12 0 12 -9q0 -20 -15 -20q-16 0 -47.5 1t-46.5 1q-14 0 -49.5 -1t-44.5 -1q-12 0 -12 10q0 19 16 19zM254 682q-17 0 -27.5 10.5t-10.5 27.5t10.5 27.5t27.5 10.5t27.5 -10.5t10.5 -27.5t-10.5 -27.5t-27.5 -10.5z
M377 682q-17 0 -27.5 10.5t-10.5 27.5t10.5 27.5t27.5 10.5t27.5 -10.5t10.5 -27.5t-10.5 -27.5t-27.5 -10.5zM315 -15q-116 0 -179 73.5t-63 221.5v249q0 43 -7 61t-31 27q-17 7 -17 13t8 6q1 0 26.5 -3t40.5 -3q17 0 42.5 3t29.5 3q7 0 7 -6q0 -7 -19 -13q-25 -8 -34 -24
t-9 -52l-1 -269q-1 -132 52.5 -200t153.5 -68q95 0 150.5 65.5t55.5 202.5v229q0 60 -12.5 85.5t-42.5 33.5q-16 4 -16 10t8 6q1 0 12.5 -1.5t26.5 -3t27 -1.5q21 0 45.5 3t26.5 3q6 0 6 -6t-16 -11q-26 -7 -36.5 -28t-10.5 -61v-258q0 -151 -61 -219t-163 -68z" />
    <glyph glyph-name="uni01D6" unicode="&#x1d6;" horiz-adv-x="475" 
d="M143 668q-12 0 -12 10q0 19 16 19q5 0 37.5 -1t48.5 -1q20 0 57.5 1t43.5 1q12 0 12 -9q0 -20 -15 -20q-16 0 -47.5 1t-46.5 1q-14 0 -49.5 -1t-44.5 -1zM139 516q0 17 10.5 27.5t27.5 10.5t27.5 -10.5t10.5 -27.5t-10.5 -27.5t-27.5 -10.5t-27.5 10.5t-10.5 27.5z
M300 554q17 0 27.5 -10.5t10.5 -27.5t-10.5 -27.5t-27.5 -10.5t-27.5 10.5t-10.5 27.5t10.5 27.5t27.5 10.5zM438 22q13 -3 13 -8q0 -6 -11 -7q-28 -3 -41.5 -10t-15.5 -7q-8 0 -8 7q-4 18 -6 117h-1q-15 -60 -55.5 -94.5t-101.5 -34.5q-131 0 -131 157v137q0 45 -5.5 60.5
t-24.5 24.5q-3 1 -6.5 2.5t-5 2.5t-3.5 1.5t-2.5 1.5l-1 2t-0.5 3q0 6 10 6q24 0 46 8.5t23 8.5q8 0 8 -9q0 -1 -1.5 -10t-3 -35t-1.5 -67v-132q0 -140 110 -140q62 0 101.5 49.5t39.5 128.5v1q0 65 -1 95t-5.5 50t-10 24.5t-19.5 7.5q-20 7 -21 13q0 7 10 7q27 0 45 4.5
t26 8.5t10 4q6 0 6 -6l-4 -16q-4 -16 -4 -36v-261q0 -30 10.5 -41.5t32.5 -17.5z" />
    <glyph glyph-name="uni01D7" unicode="&#x1d7;" horiz-adv-x="623" 
d="M217 808q-4 0 -4 5q0 2 4 6q24 14 52 30.5t43.5 26t33.5 20t27 15.5t19 10t15.5 6.5t9.5 1.5q10 0 17.5 -7t7.5 -20q0 -18 -30 -29q-128 -47 -186 -63zM254 682q-17 0 -27.5 10.5t-10.5 27.5t10.5 27.5t27.5 10.5t27.5 -10.5t10.5 -27.5t-10.5 -27.5t-27.5 -10.5z
M377 682q-17 0 -27.5 10.5t-10.5 27.5t10.5 27.5t27.5 10.5t27.5 -10.5t10.5 -27.5t-10.5 -27.5t-27.5 -10.5zM315 -15q-116 0 -179 73.5t-63 221.5v249q0 43 -7 61t-31 27q-17 7 -17 13t8 6q1 0 26.5 -3t40.5 -3q17 0 42.5 3t29.5 3q7 0 7 -6q0 -7 -19 -13q-25 -8 -34 -24
t-9 -52l-1 -269q-1 -132 52.5 -200t153.5 -68q95 0 150.5 65.5t55.5 202.5v229q0 60 -12.5 85.5t-42.5 33.5q-16 4 -16 10t8 6q1 0 12.5 -1.5t26.5 -3t27 -1.5q21 0 45.5 3t26.5 3q6 0 6 -6t-16 -11q-26 -7 -36.5 -28t-10.5 -61v-258q0 -151 -61 -219t-163 -68z" />
    <glyph glyph-name="uni01D8" unicode="&#x1d8;" horiz-adv-x="475" 
d="M165 615q-5 -1 -6 3q0 2 2 6q27 28 56.5 59t43.5 46t28.5 29.5t22 20.5t12.5 7q24 5 32 -20q4 -16 -22 -36q-100 -73 -165 -113zM177 478q-17 0 -27.5 10.5t-10.5 27.5t10.5 27.5t27.5 10.5t27.5 -10.5t10.5 -27.5t-10.5 -27.5t-27.5 -10.5zM300 554q17 0 27.5 -10.5
t10.5 -27.5t-10.5 -27.5t-27.5 -10.5t-27.5 10.5t-10.5 27.5t10.5 27.5t27.5 10.5zM438 22q13 -3 13 -8q0 -6 -11 -7q-28 -3 -41.5 -10t-15.5 -7q-8 0 -8 7q-4 18 -6 117h-1q-15 -60 -55.5 -94.5t-101.5 -34.5q-131 0 -131 157v137q0 45 -5.5 60.5t-24.5 24.5q-3 1 -6.5 2.5
t-5 2.5t-3.5 1.5t-2.5 1.5l-1 2t-0.5 3q0 6 10 6q24 0 46 8.5t23 8.5q8 0 8 -9q0 -1 -1.5 -10t-3 -35t-1.5 -67v-132q0 -140 110 -140q62 0 101.5 49.5t39.5 128.5v1q0 65 -1 95t-5.5 50t-10 24.5t-19.5 7.5q-20 7 -21 13q0 7 10 7q27 0 45 4.5t26 8.5t10 4q6 0 6 -6l-4 -16
q-4 -16 -4 -36v-261q0 -30 10.5 -41.5t32.5 -17.5z" />
    <glyph glyph-name="uni01D9" unicode="&#x1d9;" horiz-adv-x="623" 
d="M193 950q3 0 7 -1.5t12.5 -8t19 -14t33.5 -24t49 -34.5h2q20 14 38.5 27t29.5 21t20 14.5t14 10t9 6t6 3t4 0.5q7 0 7 -7t-59 -61q-6 -5 -9 -8.5t-9 -8.5t-11 -10q-3 -3 -9 -8.5t-8.5 -8t-7 -6t-8.5 -5t-8 -1.5q-3 0 -7 1.5t-6.5 3t-7 5.5t-7 6t-7.5 7.5t-8 8.5
q-81 75 -84 80q-2 3 -2 5q0 7 7 7zM254 682q-17 0 -27.5 10.5t-10.5 27.5t10.5 27.5t27.5 10.5t27.5 -10.5t10.5 -27.5t-10.5 -27.5t-27.5 -10.5zM377 682q-17 0 -27.5 10.5t-10.5 27.5t10.5 27.5t27.5 10.5t27.5 -10.5t10.5 -27.5t-10.5 -27.5t-27.5 -10.5zM315 -15
q-116 0 -179 73.5t-63 221.5v249q0 43 -7 61t-31 27q-17 7 -17 13t8 6q1 0 26.5 -3t40.5 -3q17 0 42.5 3t29.5 3q7 0 7 -6q0 -7 -19 -13q-25 -8 -34 -24t-9 -52l-1 -269q-1 -132 52.5 -200t153.5 -68q95 0 150.5 65.5t55.5 202.5v229q0 60 -12.5 85.5t-42.5 33.5
q-16 4 -16 10t8 6q1 0 12.5 -1.5t26.5 -3t27 -1.5q21 0 45.5 3t26.5 3q6 0 6 -6t-16 -11q-26 -7 -36.5 -28t-10.5 -61v-258q0 -151 -61 -219t-163 -68z" />
    <glyph glyph-name="uni01DA" unicode="&#x1da;" horiz-adv-x="475" 
d="M238 620q-11 0 -18 3t-10 6l-14 14q-13 14 -33 36q-52 60 -54 68q0 7 7 7q2 0 4 -0.5t4.5 -2.5t5.5 -4t8.5 -6.5t11 -9.5t15 -13t19 -16.5t24 -21t29.5 -25.5h2q111 95 112 96q5 3 9 3q7 0 7 -7t-12 -21.5t-77 -85.5l-9.5 -9.5t-7.5 -6t-10 -4t-13 -0.5zM177 554
q17 0 27.5 -10.5t10.5 -27.5t-10.5 -27.5t-27.5 -10.5t-27.5 10.5t-10.5 27.5t10.5 27.5t27.5 10.5zM262 516q0 17 10.5 27.5t27.5 10.5t27.5 -10.5t10.5 -27.5t-10.5 -27.5t-27.5 -10.5t-27.5 10.5t-10.5 27.5zM438 22q13 -3 13 -8q0 -6 -11 -7q-28 -3 -41.5 -10t-15.5 -7
q-8 0 -8 7q-4 18 -6 117h-1q-15 -60 -55.5 -94.5t-101.5 -34.5q-131 0 -131 157v137q0 45 -5.5 60.5t-24.5 24.5q-3 1 -6.5 2.5t-5 2.5t-3.5 1.5t-2.5 1.5l-1 2t-0.5 3q0 6 10 6q24 0 46 8.5t23 8.5q8 0 8 -9q0 -1 -1.5 -10t-3 -35t-1.5 -67v-132q0 -140 110 -140
q62 0 101.5 49.5t39.5 128.5v1q0 65 -1 95t-5.5 50t-10 24.5t-19.5 7.5q-20 7 -21 13q0 7 10 7q27 0 45 4.5t26 8.5t10 4q6 0 6 -6l-4 -16q-4 -16 -4 -36v-261q0 -30 10.5 -41.5t32.5 -17.5z" />
    <glyph glyph-name="uni01DB" unicode="&#x1db;" horiz-adv-x="623" 
d="M426 819q-2 0 -9 2q-58 16 -186 63q-30 11 -30 29q0 13 7.5 20t17.5 7q4 0 9.5 -1.5t15.5 -6.5t19 -10t27 -15.5t33.5 -20t43.5 -26t52 -30.5q4 -4 4 -6q0 -5 -4 -5zM254 682q-17 0 -27.5 10.5t-10.5 27.5t10.5 27.5t27.5 10.5t27.5 -10.5t10.5 -27.5t-10.5 -27.5
t-27.5 -10.5zM377 682q-17 0 -27.5 10.5t-10.5 27.5t10.5 27.5t27.5 10.5t27.5 -10.5t10.5 -27.5t-10.5 -27.5t-27.5 -10.5zM315 -15q-116 0 -179 73.5t-63 221.5v249q0 43 -7 61t-31 27q-17 7 -17 13t8 6q1 0 26.5 -3t40.5 -3q17 0 42.5 3t29.5 3q7 0 7 -6q0 -7 -19 -13
q-25 -8 -34 -24t-9 -52l-1 -269q-1 -132 52.5 -200t153.5 -68q95 0 150.5 65.5t55.5 202.5v229q0 60 -12.5 85.5t-42.5 33.5q-16 4 -16 10t8 6q1 0 12.5 -1.5t26.5 -3t27 -1.5q21 0 45.5 3t26.5 3q6 0 6 -6t-16 -11q-26 -7 -36.5 -28t-10.5 -61v-258q0 -151 -61 -219
t-163 -68z" />
    </font>
</defs>
</svg>
